G04 #@! TF.GenerationSoftware,KiCad,Pcbnew,8.0.8-8.0.8-0~ubuntu22.04.1*
G04 #@! TF.CreationDate,2025-02-26T16:06:35+08:00*
G04 #@! TF.ProjectId,macropad,6d616372-6f70-4616-942e-6b696361645f,rev?*
G04 #@! TF.SameCoordinates,Original*
G04 #@! TF.FileFunction,Copper,L1,Top*
G04 #@! TF.FilePolarity,Positive*
%FSLAX46Y46*%
G04 Gerber Fmt 4.6, Leading zero omitted, Abs format (unit mm)*
G04 Created by KiCad (PCBNEW 8.0.8-8.0.8-0~ubuntu22.04.1) date 2025-02-26 16:06:35*
%MOMM*%
%LPD*%
G01*
G04 APERTURE LIST*
G04 Aperture macros list*
%AMRoundRect*
0 Rectangle with rounded corners*
0 $1 Rounding radius*
0 $2 $3 $4 $5 $6 $7 $8 $9 X,Y pos of 4 corners*
0 Add a 4 corners polygon primitive as box body*
4,1,4,$2,$3,$4,$5,$6,$7,$8,$9,$2,$3,0*
0 Add four circle primitives for the rounded corners*
1,1,$1+$1,$2,$3*
1,1,$1+$1,$4,$5*
1,1,$1+$1,$6,$7*
1,1,$1+$1,$8,$9*
0 Add four rect primitives between the rounded corners*
20,1,$1+$1,$2,$3,$4,$5,0*
20,1,$1+$1,$4,$5,$6,$7,0*
20,1,$1+$1,$6,$7,$8,$9,0*
20,1,$1+$1,$8,$9,$2,$3,0*%
G04 Aperture macros list end*
G04 #@! TA.AperFunction,ComponentPad*
%ADD10R,2.030000X1.730000*%
G04 #@! TD*
G04 #@! TA.AperFunction,ComponentPad*
%ADD11O,2.030000X1.730000*%
G04 #@! TD*
G04 #@! TA.AperFunction,ComponentPad*
%ADD12C,2.200000*%
G04 #@! TD*
G04 #@! TA.AperFunction,ComponentPad*
%ADD13RoundRect,0.400000X0.400000X-0.900000X0.400000X0.900000X-0.400000X0.900000X-0.400000X-0.900000X0*%
G04 #@! TD*
G04 #@! TA.AperFunction,ComponentPad*
%ADD14RoundRect,0.400050X0.400050X-0.899950X0.400050X0.899950X-0.400050X0.899950X-0.400050X-0.899950X0*%
G04 #@! TD*
G04 #@! TA.AperFunction,ComponentPad*
%ADD15RoundRect,0.400000X0.900000X-0.400000X0.900000X0.400000X-0.900000X0.400000X-0.900000X-0.400000X0*%
G04 #@! TD*
G04 #@! TA.AperFunction,ComponentPad*
%ADD16RoundRect,0.393700X0.906300X-0.393700X0.906300X0.393700X-0.906300X0.393700X-0.906300X-0.393700X0*%
G04 #@! TD*
G04 #@! TA.AperFunction,Conductor*
%ADD17C,0.500000*%
G04 #@! TD*
G04 #@! TA.AperFunction,Conductor*
%ADD18C,0.300000*%
G04 #@! TD*
G04 APERTURE END LIST*
D10*
X200000000Y-78540000D03*
D11*
X200000000Y-76000000D03*
X200000000Y-73460000D03*
X200000000Y-70920000D03*
D12*
X222250000Y-97790000D03*
X228600000Y-95250000D03*
X203200000Y-97790000D03*
X209550000Y-95250000D03*
X190500000Y-95250000D03*
X184150000Y-97790000D03*
D13*
X172765000Y-72240000D03*
X175305000Y-72240000D03*
X177845000Y-72240000D03*
X180385000Y-72240000D03*
X182925000Y-72240000D03*
D14*
X185465000Y-72240000D03*
X188005000Y-72240000D03*
X190545000Y-72240000D03*
X193085000Y-72240000D03*
D15*
X193895000Y-75380000D03*
D16*
X193895000Y-77920000D03*
X193895000Y-80460000D03*
X193895000Y-83000000D03*
X193895000Y-85540000D03*
D14*
X193085000Y-88680000D03*
X190545000Y-88680000D03*
X188005000Y-88680000D03*
X185465000Y-88680000D03*
X172765000Y-88680000D03*
X175305000Y-88680000D03*
X177845000Y-88680000D03*
X182925000Y-88680000D03*
X180385000Y-88680000D03*
D17*
X200000000Y-76000000D02*
X194490000Y-70490000D01*
X194490000Y-70490000D02*
X179632918Y-70490000D01*
X179632918Y-70490000D02*
X179095000Y-71027918D01*
X179095000Y-71027918D02*
X179095000Y-86830000D01*
X179095000Y-86830000D02*
X177845000Y-88080000D01*
D18*
X200000000Y-70920000D02*
X198480000Y-69400000D01*
X198480000Y-69400000D02*
X177400000Y-69400000D01*
X177400000Y-69400000D02*
X175305000Y-71495000D01*
X175305000Y-71495000D02*
X175305000Y-72840000D01*
X200000000Y-73460000D02*
X201600000Y-71860000D01*
X201600000Y-71860000D02*
X201600000Y-70400000D01*
X201600000Y-70400000D02*
X200000000Y-68800000D01*
X176384338Y-68800000D02*
X172765000Y-72419338D01*
X200000000Y-68800000D02*
X176384338Y-68800000D01*
X172765000Y-72419338D02*
X172765000Y-72840000D01*
X228600000Y-95250000D02*
X225850000Y-92500000D01*
X225850000Y-92500000D02*
X190700000Y-92500000D01*
X190700000Y-92500000D02*
X189394900Y-91194900D01*
X189394900Y-91194900D02*
X189394900Y-74112400D01*
X189394900Y-74112400D02*
X188122500Y-72840000D01*
X188122500Y-72840000D02*
X188005000Y-72840000D01*
X190500000Y-95250000D02*
X190500000Y-95200000D01*
X190500000Y-95200000D02*
X188800000Y-93500000D01*
X188800000Y-93500000D02*
X186300000Y-93500000D01*
X184075100Y-73990100D02*
X182925000Y-72840000D01*
X186300000Y-93500000D02*
X184075100Y-91275100D01*
X184075100Y-91275100D02*
X184075100Y-73990100D01*
X209550000Y-95250000D02*
X207300000Y-93000000D01*
X207300000Y-93000000D02*
X188700000Y-93000000D01*
X188700000Y-93000000D02*
X186854900Y-91154900D01*
X186854900Y-91154900D02*
X186854900Y-74229900D01*
X186854900Y-74229900D02*
X185465000Y-72840000D01*
G04 #@! TA.AperFunction,Conductor*
G36*
X239003032Y-65500648D02*
G01*
X239336929Y-65517052D01*
X239349037Y-65518245D01*
X239452146Y-65533539D01*
X239676699Y-65566849D01*
X239688617Y-65569219D01*
X240009951Y-65649709D01*
X240021588Y-65653240D01*
X240092806Y-65678722D01*
X240333467Y-65764832D01*
X240344688Y-65769479D01*
X240644163Y-65911120D01*
X240654871Y-65916844D01*
X240938988Y-66087137D01*
X240949106Y-66093897D01*
X241215170Y-66291224D01*
X241224576Y-66298944D01*
X241470013Y-66521395D01*
X241478604Y-66529986D01*
X241665755Y-66736475D01*
X241701055Y-66775423D01*
X241708775Y-66784829D01*
X241906102Y-67050893D01*
X241912862Y-67061011D01*
X242041776Y-67276092D01*
X242083148Y-67345116D01*
X242088885Y-67355848D01*
X242230514Y-67655297D01*
X242235170Y-67666540D01*
X242346759Y-67978411D01*
X242350292Y-67990055D01*
X242430777Y-68311369D01*
X242433151Y-68323305D01*
X242481754Y-68650962D01*
X242482947Y-68663071D01*
X242499351Y-68996966D01*
X242499500Y-69003051D01*
X242499500Y-112996948D01*
X242499351Y-113003033D01*
X242482947Y-113336928D01*
X242481754Y-113349037D01*
X242433151Y-113676694D01*
X242430777Y-113688630D01*
X242350292Y-114009944D01*
X242346759Y-114021588D01*
X242235170Y-114333459D01*
X242230514Y-114344702D01*
X242088885Y-114644151D01*
X242083148Y-114654883D01*
X241912862Y-114938988D01*
X241906102Y-114949106D01*
X241708775Y-115215170D01*
X241701055Y-115224576D01*
X241478611Y-115470006D01*
X241470006Y-115478611D01*
X241224576Y-115701055D01*
X241215170Y-115708775D01*
X240949106Y-115906102D01*
X240938988Y-115912862D01*
X240654883Y-116083148D01*
X240644151Y-116088885D01*
X240344702Y-116230514D01*
X240333459Y-116235170D01*
X240021588Y-116346759D01*
X240009944Y-116350292D01*
X239688630Y-116430777D01*
X239676694Y-116433151D01*
X239349037Y-116481754D01*
X239336928Y-116482947D01*
X239021989Y-116498419D01*
X239003031Y-116499351D01*
X238996949Y-116499500D01*
X175003051Y-116499500D01*
X174996968Y-116499351D01*
X174976900Y-116498365D01*
X174663071Y-116482947D01*
X174650962Y-116481754D01*
X174323305Y-116433151D01*
X174311369Y-116430777D01*
X173990055Y-116350292D01*
X173978411Y-116346759D01*
X173666540Y-116235170D01*
X173655301Y-116230515D01*
X173355844Y-116088883D01*
X173345121Y-116083150D01*
X173061011Y-115912862D01*
X173050893Y-115906102D01*
X172784829Y-115708775D01*
X172775423Y-115701055D01*
X172736475Y-115665755D01*
X172529986Y-115478604D01*
X172521395Y-115470013D01*
X172298944Y-115224576D01*
X172291224Y-115215170D01*
X172093897Y-114949106D01*
X172087137Y-114938988D01*
X171916844Y-114654871D01*
X171911120Y-114644163D01*
X171769479Y-114344688D01*
X171764829Y-114333459D01*
X171653240Y-114021588D01*
X171649707Y-114009944D01*
X171631131Y-113935783D01*
X171569219Y-113688617D01*
X171566848Y-113676694D01*
X171518245Y-113349037D01*
X171517052Y-113336927D01*
X171500649Y-113003032D01*
X171500500Y-112996948D01*
X171500500Y-111837106D01*
X173099500Y-111837106D01*
X173099500Y-112162893D01*
X173135974Y-112486604D01*
X173135976Y-112486620D01*
X173208467Y-112804226D01*
X173208471Y-112804238D01*
X173316066Y-113111725D01*
X173457413Y-113405234D01*
X173457415Y-113405237D01*
X173630739Y-113681081D01*
X173833857Y-113935783D01*
X174064217Y-114166143D01*
X174318919Y-114369261D01*
X174594763Y-114542585D01*
X174888278Y-114683935D01*
X175119217Y-114764744D01*
X175195761Y-114791528D01*
X175195773Y-114791532D01*
X175513383Y-114864024D01*
X175837106Y-114900499D01*
X175837107Y-114900500D01*
X175837111Y-114900500D01*
X176162893Y-114900500D01*
X176162893Y-114900499D01*
X176486617Y-114864024D01*
X176804227Y-114791532D01*
X177111722Y-114683935D01*
X177405237Y-114542585D01*
X177681081Y-114369261D01*
X177935783Y-114166143D01*
X178166143Y-113935783D01*
X178369261Y-113681081D01*
X178542585Y-113405237D01*
X178683935Y-113111722D01*
X178791532Y-112804227D01*
X178864024Y-112486617D01*
X178900500Y-112162889D01*
X178900500Y-111837111D01*
X178900499Y-111837106D01*
X235099500Y-111837106D01*
X235099500Y-112162893D01*
X235135974Y-112486604D01*
X235135976Y-112486620D01*
X235208467Y-112804226D01*
X235208471Y-112804238D01*
X235316066Y-113111725D01*
X235457413Y-113405234D01*
X235457415Y-113405237D01*
X235630739Y-113681081D01*
X235833857Y-113935783D01*
X236064217Y-114166143D01*
X236318919Y-114369261D01*
X236594763Y-114542585D01*
X236888278Y-114683935D01*
X237119217Y-114764744D01*
X237195761Y-114791528D01*
X237195773Y-114791532D01*
X237513383Y-114864024D01*
X237837106Y-114900499D01*
X237837107Y-114900500D01*
X237837111Y-114900500D01*
X238162893Y-114900500D01*
X238162893Y-114900499D01*
X238486617Y-114864024D01*
X238804227Y-114791532D01*
X239111722Y-114683935D01*
X239405237Y-114542585D01*
X239681081Y-114369261D01*
X239935783Y-114166143D01*
X240166143Y-113935783D01*
X240369261Y-113681081D01*
X240542585Y-113405237D01*
X240683935Y-113111722D01*
X240791532Y-112804227D01*
X240864024Y-112486617D01*
X240900500Y-112162889D01*
X240900500Y-111837111D01*
X240864024Y-111513383D01*
X240791532Y-111195773D01*
X240683935Y-110888278D01*
X240542585Y-110594763D01*
X240369261Y-110318919D01*
X240166143Y-110064217D01*
X239935783Y-109833857D01*
X239681081Y-109630739D01*
X239405237Y-109457415D01*
X239405234Y-109457413D01*
X239111725Y-109316066D01*
X238804238Y-109208471D01*
X238804226Y-109208467D01*
X238486620Y-109135976D01*
X238486604Y-109135974D01*
X238162893Y-109099500D01*
X238162889Y-109099500D01*
X237837111Y-109099500D01*
X237837107Y-109099500D01*
X237513395Y-109135974D01*
X237513379Y-109135976D01*
X237195773Y-109208467D01*
X237195761Y-109208471D01*
X236888274Y-109316066D01*
X236594765Y-109457413D01*
X236318920Y-109630738D01*
X236064217Y-109833856D01*
X235833856Y-110064217D01*
X235630738Y-110318920D01*
X235457413Y-110594765D01*
X235316066Y-110888274D01*
X235208471Y-111195761D01*
X235208467Y-111195773D01*
X235135976Y-111513379D01*
X235135974Y-111513395D01*
X235099500Y-111837106D01*
X178900499Y-111837106D01*
X178864024Y-111513383D01*
X178791532Y-111195773D01*
X178683935Y-110888278D01*
X178542585Y-110594763D01*
X178369261Y-110318919D01*
X178166143Y-110064217D01*
X177935783Y-109833857D01*
X177681081Y-109630739D01*
X177405237Y-109457415D01*
X177405234Y-109457413D01*
X177111725Y-109316066D01*
X176804238Y-109208471D01*
X176804226Y-109208467D01*
X176486620Y-109135976D01*
X176486604Y-109135974D01*
X176162893Y-109099500D01*
X176162889Y-109099500D01*
X175837111Y-109099500D01*
X175837107Y-109099500D01*
X175513395Y-109135974D01*
X175513379Y-109135976D01*
X175195773Y-109208467D01*
X175195761Y-109208471D01*
X174888274Y-109316066D01*
X174594765Y-109457413D01*
X174318920Y-109630738D01*
X174064217Y-109833856D01*
X173833856Y-110064217D01*
X173630738Y-110318920D01*
X173457413Y-110594765D01*
X173316066Y-110888274D01*
X173208471Y-111195761D01*
X173208467Y-111195773D01*
X173135976Y-111513379D01*
X173135974Y-111513395D01*
X173099500Y-111837106D01*
X171500500Y-111837106D01*
X171500500Y-100243389D01*
X181779500Y-100243389D01*
X181779500Y-100416611D01*
X181806598Y-100587701D01*
X181860127Y-100752445D01*
X181938768Y-100906788D01*
X182040586Y-101046928D01*
X182163072Y-101169414D01*
X182303212Y-101271232D01*
X182457555Y-101349873D01*
X182622299Y-101403402D01*
X182793389Y-101430500D01*
X182793390Y-101430500D01*
X182966610Y-101430500D01*
X182966611Y-101430500D01*
X183137701Y-101403402D01*
X183302445Y-101349873D01*
X183456788Y-101271232D01*
X183596928Y-101169414D01*
X183719414Y-101046928D01*
X183821232Y-100906788D01*
X183899873Y-100752445D01*
X183953402Y-100587701D01*
X183980500Y-100416611D01*
X183980500Y-100243389D01*
X183970854Y-100182486D01*
X185709500Y-100182486D01*
X185709500Y-100477513D01*
X185741571Y-100721113D01*
X185748007Y-100769993D01*
X185822212Y-101046930D01*
X185824361Y-101054951D01*
X185824364Y-101054961D01*
X185937254Y-101327500D01*
X185937258Y-101327510D01*
X186084761Y-101582993D01*
X186264352Y-101817040D01*
X186264358Y-101817047D01*
X186472952Y-102025641D01*
X186472959Y-102025647D01*
X186707006Y-102205238D01*
X186962489Y-102352741D01*
X186962490Y-102352741D01*
X186962493Y-102352743D01*
X187235048Y-102465639D01*
X187520007Y-102541993D01*
X187812494Y-102580500D01*
X187812501Y-102580500D01*
X188107499Y-102580500D01*
X188107506Y-102580500D01*
X188399993Y-102541993D01*
X188684952Y-102465639D01*
X188957507Y-102352743D01*
X189212994Y-102205238D01*
X189447042Y-102025646D01*
X189655646Y-101817042D01*
X189835238Y-101582994D01*
X189982743Y-101327507D01*
X190095639Y-101054952D01*
X190171993Y-100769993D01*
X190210500Y-100477506D01*
X190210500Y-100243389D01*
X191939500Y-100243389D01*
X191939500Y-100416611D01*
X191966598Y-100587701D01*
X192020127Y-100752445D01*
X192098768Y-100906788D01*
X192200586Y-101046928D01*
X192323072Y-101169414D01*
X192463212Y-101271232D01*
X192617555Y-101349873D01*
X192782299Y-101403402D01*
X192953389Y-101430500D01*
X192953390Y-101430500D01*
X193126610Y-101430500D01*
X193126611Y-101430500D01*
X193297701Y-101403402D01*
X193462445Y-101349873D01*
X193616788Y-101271232D01*
X193756928Y-101169414D01*
X193879414Y-101046928D01*
X193981232Y-100906788D01*
X194059873Y-100752445D01*
X194113402Y-100587701D01*
X194140500Y-100416611D01*
X194140500Y-100243389D01*
X200829500Y-100243389D01*
X200829500Y-100416611D01*
X200856598Y-100587701D01*
X200910127Y-100752445D01*
X200988768Y-100906788D01*
X201090586Y-101046928D01*
X201213072Y-101169414D01*
X201353212Y-101271232D01*
X201507555Y-101349873D01*
X201672299Y-101403402D01*
X201843389Y-101430500D01*
X201843390Y-101430500D01*
X202016610Y-101430500D01*
X202016611Y-101430500D01*
X202187701Y-101403402D01*
X202352445Y-101349873D01*
X202506788Y-101271232D01*
X202646928Y-101169414D01*
X202769414Y-101046928D01*
X202871232Y-100906788D01*
X202949873Y-100752445D01*
X203003402Y-100587701D01*
X203030500Y-100416611D01*
X203030500Y-100243389D01*
X203020854Y-100182486D01*
X204759500Y-100182486D01*
X204759500Y-100477513D01*
X204791571Y-100721113D01*
X204798007Y-100769993D01*
X204872212Y-101046930D01*
X204874361Y-101054951D01*
X204874364Y-101054961D01*
X204987254Y-101327500D01*
X204987258Y-101327510D01*
X205134761Y-101582993D01*
X205314352Y-101817040D01*
X205314358Y-101817047D01*
X205522952Y-102025641D01*
X205522959Y-102025647D01*
X205757006Y-102205238D01*
X206012489Y-102352741D01*
X206012490Y-102352741D01*
X206012493Y-102352743D01*
X206285048Y-102465639D01*
X206570007Y-102541993D01*
X206862494Y-102580500D01*
X206862501Y-102580500D01*
X207157499Y-102580500D01*
X207157506Y-102580500D01*
X207449993Y-102541993D01*
X207734952Y-102465639D01*
X208007507Y-102352743D01*
X208262994Y-102205238D01*
X208497042Y-102025646D01*
X208705646Y-101817042D01*
X208885238Y-101582994D01*
X209032743Y-101327507D01*
X209145639Y-101054952D01*
X209221993Y-100769993D01*
X209260500Y-100477506D01*
X209260500Y-100243389D01*
X210989500Y-100243389D01*
X210989500Y-100416611D01*
X211016598Y-100587701D01*
X211070127Y-100752445D01*
X211148768Y-100906788D01*
X211250586Y-101046928D01*
X211373072Y-101169414D01*
X211513212Y-101271232D01*
X211667555Y-101349873D01*
X211832299Y-101403402D01*
X212003389Y-101430500D01*
X212003390Y-101430500D01*
X212176610Y-101430500D01*
X212176611Y-101430500D01*
X212347701Y-101403402D01*
X212512445Y-101349873D01*
X212666788Y-101271232D01*
X212806928Y-101169414D01*
X212929414Y-101046928D01*
X213031232Y-100906788D01*
X213109873Y-100752445D01*
X213163402Y-100587701D01*
X213190500Y-100416611D01*
X213190500Y-100243389D01*
X219879500Y-100243389D01*
X219879500Y-100416611D01*
X219906598Y-100587701D01*
X219960127Y-100752445D01*
X220038768Y-100906788D01*
X220140586Y-101046928D01*
X220263072Y-101169414D01*
X220403212Y-101271232D01*
X220557555Y-101349873D01*
X220722299Y-101403402D01*
X220893389Y-101430500D01*
X220893390Y-101430500D01*
X221066610Y-101430500D01*
X221066611Y-101430500D01*
X221237701Y-101403402D01*
X221402445Y-101349873D01*
X221556788Y-101271232D01*
X221696928Y-101169414D01*
X221819414Y-101046928D01*
X221921232Y-100906788D01*
X221999873Y-100752445D01*
X222053402Y-100587701D01*
X222080500Y-100416611D01*
X222080500Y-100243389D01*
X222070854Y-100182486D01*
X223809500Y-100182486D01*
X223809500Y-100477513D01*
X223841571Y-100721113D01*
X223848007Y-100769993D01*
X223922212Y-101046930D01*
X223924361Y-101054951D01*
X223924364Y-101054961D01*
X224037254Y-101327500D01*
X224037258Y-101327510D01*
X224184761Y-101582993D01*
X224364352Y-101817040D01*
X224364358Y-101817047D01*
X224572952Y-102025641D01*
X224572959Y-102025647D01*
X224807006Y-102205238D01*
X225062489Y-102352741D01*
X225062490Y-102352741D01*
X225062493Y-102352743D01*
X225335048Y-102465639D01*
X225620007Y-102541993D01*
X225912494Y-102580500D01*
X225912501Y-102580500D01*
X226207499Y-102580500D01*
X226207506Y-102580500D01*
X226499993Y-102541993D01*
X226784952Y-102465639D01*
X227057507Y-102352743D01*
X227312994Y-102205238D01*
X227547042Y-102025646D01*
X227755646Y-101817042D01*
X227935238Y-101582994D01*
X228082743Y-101327507D01*
X228195639Y-101054952D01*
X228271993Y-100769993D01*
X228310500Y-100477506D01*
X228310500Y-100243389D01*
X230039500Y-100243389D01*
X230039500Y-100416611D01*
X230066598Y-100587701D01*
X230120127Y-100752445D01*
X230198768Y-100906788D01*
X230300586Y-101046928D01*
X230423072Y-101169414D01*
X230563212Y-101271232D01*
X230717555Y-101349873D01*
X230882299Y-101403402D01*
X231053389Y-101430500D01*
X231053390Y-101430500D01*
X231226610Y-101430500D01*
X231226611Y-101430500D01*
X231397701Y-101403402D01*
X231562445Y-101349873D01*
X231716788Y-101271232D01*
X231856928Y-101169414D01*
X231979414Y-101046928D01*
X232081232Y-100906788D01*
X232159873Y-100752445D01*
X232213402Y-100587701D01*
X232240500Y-100416611D01*
X232240500Y-100243389D01*
X232213402Y-100072299D01*
X232159873Y-99907555D01*
X232081232Y-99753212D01*
X231979414Y-99613072D01*
X231856928Y-99490586D01*
X231716788Y-99388768D01*
X231562445Y-99310127D01*
X231397701Y-99256598D01*
X231397699Y-99256597D01*
X231397698Y-99256597D01*
X231249271Y-99233089D01*
X231226611Y-99229500D01*
X231053389Y-99229500D01*
X231030729Y-99233089D01*
X230882302Y-99256597D01*
X230717552Y-99310128D01*
X230563211Y-99388768D01*
X230515822Y-99423199D01*
X230423072Y-99490586D01*
X230423070Y-99490588D01*
X230423069Y-99490588D01*
X230300588Y-99613069D01*
X230300588Y-99613070D01*
X230300586Y-99613072D01*
X230256859Y-99673256D01*
X230198768Y-99753211D01*
X230120128Y-99907552D01*
X230066597Y-100072302D01*
X230049146Y-100182486D01*
X230039500Y-100243389D01*
X228310500Y-100243389D01*
X228310500Y-100182494D01*
X228271993Y-99890007D01*
X228195639Y-99605048D01*
X228082743Y-99332493D01*
X228073449Y-99316396D01*
X227935238Y-99077006D01*
X227755647Y-98842959D01*
X227755641Y-98842952D01*
X227547047Y-98634358D01*
X227547040Y-98634352D01*
X227312993Y-98454761D01*
X227057510Y-98307258D01*
X227057500Y-98307254D01*
X226784961Y-98194364D01*
X226784954Y-98194362D01*
X226784952Y-98194361D01*
X226499993Y-98118007D01*
X226451113Y-98111571D01*
X226207513Y-98079500D01*
X226207506Y-98079500D01*
X225912494Y-98079500D01*
X225912486Y-98079500D01*
X225634085Y-98116153D01*
X225620007Y-98118007D01*
X225335048Y-98194361D01*
X225335038Y-98194364D01*
X225062499Y-98307254D01*
X225062489Y-98307258D01*
X224807006Y-98454761D01*
X224572959Y-98634352D01*
X224572952Y-98634358D01*
X224364358Y-98842952D01*
X224364352Y-98842959D01*
X224184761Y-99077006D01*
X224037258Y-99332489D01*
X224037254Y-99332499D01*
X223924364Y-99605038D01*
X223924361Y-99605048D01*
X223848008Y-99890004D01*
X223848006Y-99890015D01*
X223809500Y-100182486D01*
X222070854Y-100182486D01*
X222053402Y-100072299D01*
X221999873Y-99907555D01*
X221921232Y-99753212D01*
X221819414Y-99613072D01*
X221760556Y-99554214D01*
X221727071Y-99492891D01*
X221732055Y-99423199D01*
X221773927Y-99367266D01*
X221839391Y-99342849D01*
X221877184Y-99345959D01*
X221998928Y-99375187D01*
X222250000Y-99394947D01*
X222501072Y-99375187D01*
X222745956Y-99316396D01*
X222978631Y-99220019D01*
X223193361Y-99088432D01*
X223193363Y-99088430D01*
X223194180Y-99087732D01*
X222574025Y-98467578D01*
X222605258Y-98454641D01*
X222728097Y-98372563D01*
X222832563Y-98268097D01*
X222914641Y-98145258D01*
X222927578Y-98114025D01*
X223547732Y-98734180D01*
X223548430Y-98733363D01*
X223548432Y-98733361D01*
X223680019Y-98518631D01*
X223776396Y-98285956D01*
X223835187Y-98041072D01*
X223854947Y-97790000D01*
X223835187Y-97538927D01*
X223776396Y-97294043D01*
X223680019Y-97061368D01*
X223548429Y-96846634D01*
X223547733Y-96845819D01*
X223547732Y-96845819D01*
X222927577Y-97465973D01*
X222914641Y-97434742D01*
X222832563Y-97311903D01*
X222728097Y-97207437D01*
X222605258Y-97125359D01*
X222574023Y-97112421D01*
X223194179Y-96492266D01*
X223193362Y-96491568D01*
X222978631Y-96359980D01*
X222745956Y-96263603D01*
X222501072Y-96204812D01*
X222250000Y-96185052D01*
X221998927Y-96204812D01*
X221754043Y-96263603D01*
X221521368Y-96359980D01*
X221306637Y-96491567D01*
X221305818Y-96492266D01*
X221925974Y-97112421D01*
X221894742Y-97125359D01*
X221771903Y-97207437D01*
X221667437Y-97311903D01*
X221585359Y-97434742D01*
X221572421Y-97465974D01*
X220952266Y-96845818D01*
X220951567Y-96846637D01*
X220819980Y-97061368D01*
X220723603Y-97294043D01*
X220664812Y-97538927D01*
X220645052Y-97790000D01*
X220664812Y-98041072D01*
X220723603Y-98285956D01*
X220819980Y-98518631D01*
X220951568Y-98733362D01*
X220952266Y-98734179D01*
X221572421Y-98114024D01*
X221585359Y-98145258D01*
X221667437Y-98268097D01*
X221771903Y-98372563D01*
X221894742Y-98454641D01*
X221925974Y-98467577D01*
X221305819Y-99087732D01*
X221306989Y-99117539D01*
X221289948Y-99185299D01*
X221238980Y-99233089D01*
X221170264Y-99245738D01*
X221163686Y-99244875D01*
X221089271Y-99233089D01*
X221066611Y-99229500D01*
X220893389Y-99229500D01*
X220870729Y-99233089D01*
X220722302Y-99256597D01*
X220557552Y-99310128D01*
X220403211Y-99388768D01*
X220355822Y-99423199D01*
X220263072Y-99490586D01*
X220263070Y-99490588D01*
X220263069Y-99490588D01*
X220140588Y-99613069D01*
X220140588Y-99613070D01*
X220140586Y-99613072D01*
X220096859Y-99673256D01*
X220038768Y-99753211D01*
X219960128Y-99907552D01*
X219906597Y-100072302D01*
X219889146Y-100182486D01*
X219879500Y-100243389D01*
X213190500Y-100243389D01*
X213163402Y-100072299D01*
X213109873Y-99907555D01*
X213031232Y-99753212D01*
X212929414Y-99613072D01*
X212806928Y-99490586D01*
X212666788Y-99388768D01*
X212512445Y-99310127D01*
X212347701Y-99256598D01*
X212347699Y-99256597D01*
X212347698Y-99256597D01*
X212199271Y-99233089D01*
X212176611Y-99229500D01*
X212003389Y-99229500D01*
X211980729Y-99233089D01*
X211832302Y-99256597D01*
X211667552Y-99310128D01*
X211513211Y-99388768D01*
X211465822Y-99423199D01*
X211373072Y-99490586D01*
X211373070Y-99490588D01*
X211373069Y-99490588D01*
X211250588Y-99613069D01*
X211250588Y-99613070D01*
X211250586Y-99613072D01*
X211206859Y-99673256D01*
X211148768Y-99753211D01*
X211070128Y-99907552D01*
X211016597Y-100072302D01*
X210999146Y-100182486D01*
X210989500Y-100243389D01*
X209260500Y-100243389D01*
X209260500Y-100182494D01*
X209221993Y-99890007D01*
X209145639Y-99605048D01*
X209032743Y-99332493D01*
X209023449Y-99316396D01*
X208885238Y-99077006D01*
X208705647Y-98842959D01*
X208705641Y-98842952D01*
X208497047Y-98634358D01*
X208497040Y-98634352D01*
X208262993Y-98454761D01*
X208007510Y-98307258D01*
X208007500Y-98307254D01*
X207734961Y-98194364D01*
X207734954Y-98194362D01*
X207734952Y-98194361D01*
X207449993Y-98118007D01*
X207401113Y-98111571D01*
X207157513Y-98079500D01*
X207157506Y-98079500D01*
X206862494Y-98079500D01*
X206862486Y-98079500D01*
X206584085Y-98116153D01*
X206570007Y-98118007D01*
X206285048Y-98194361D01*
X206285038Y-98194364D01*
X206012499Y-98307254D01*
X206012489Y-98307258D01*
X205757006Y-98454761D01*
X205522959Y-98634352D01*
X205522952Y-98634358D01*
X205314358Y-98842952D01*
X205314352Y-98842959D01*
X205134761Y-99077006D01*
X204987258Y-99332489D01*
X204987254Y-99332499D01*
X204874364Y-99605038D01*
X204874361Y-99605048D01*
X204798008Y-99890004D01*
X204798006Y-99890015D01*
X204759500Y-100182486D01*
X203020854Y-100182486D01*
X203003402Y-100072299D01*
X202949873Y-99907555D01*
X202871232Y-99753212D01*
X202769414Y-99613072D01*
X202710556Y-99554214D01*
X202677071Y-99492891D01*
X202682055Y-99423199D01*
X202723927Y-99367266D01*
X202789391Y-99342849D01*
X202827184Y-99345959D01*
X202948928Y-99375187D01*
X203200000Y-99394947D01*
X203451072Y-99375187D01*
X203695956Y-99316396D01*
X203928631Y-99220019D01*
X204143361Y-99088432D01*
X204143363Y-99088430D01*
X204144180Y-99087732D01*
X203524025Y-98467578D01*
X203555258Y-98454641D01*
X203678097Y-98372563D01*
X203782563Y-98268097D01*
X203864641Y-98145258D01*
X203877578Y-98114025D01*
X204497732Y-98734180D01*
X204498430Y-98733363D01*
X204498432Y-98733361D01*
X204630019Y-98518631D01*
X204726396Y-98285956D01*
X204785187Y-98041072D01*
X204804947Y-97790000D01*
X204785187Y-97538927D01*
X204726396Y-97294043D01*
X204630019Y-97061368D01*
X204498429Y-96846634D01*
X204497733Y-96845819D01*
X204497732Y-96845819D01*
X203877577Y-97465973D01*
X203864641Y-97434742D01*
X203782563Y-97311903D01*
X203678097Y-97207437D01*
X203555258Y-97125359D01*
X203524023Y-97112421D01*
X204144179Y-96492266D01*
X204143362Y-96491568D01*
X203928631Y-96359980D01*
X203695956Y-96263603D01*
X203451072Y-96204812D01*
X203200000Y-96185052D01*
X202948927Y-96204812D01*
X202704043Y-96263603D01*
X202471368Y-96359980D01*
X202256637Y-96491567D01*
X202255818Y-96492266D01*
X202875974Y-97112421D01*
X202844742Y-97125359D01*
X202721903Y-97207437D01*
X202617437Y-97311903D01*
X202535359Y-97434742D01*
X202522421Y-97465974D01*
X201902266Y-96845818D01*
X201901567Y-96846637D01*
X201769980Y-97061368D01*
X201673603Y-97294043D01*
X201614812Y-97538927D01*
X201595052Y-97790000D01*
X201614812Y-98041072D01*
X201673603Y-98285956D01*
X201769980Y-98518631D01*
X201901568Y-98733362D01*
X201902266Y-98734179D01*
X202522421Y-98114024D01*
X202535359Y-98145258D01*
X202617437Y-98268097D01*
X202721903Y-98372563D01*
X202844742Y-98454641D01*
X202875974Y-98467577D01*
X202255819Y-99087732D01*
X202256989Y-99117539D01*
X202239948Y-99185299D01*
X202188980Y-99233089D01*
X202120264Y-99245738D01*
X202113686Y-99244875D01*
X202039271Y-99233089D01*
X202016611Y-99229500D01*
X201843389Y-99229500D01*
X201820729Y-99233089D01*
X201672302Y-99256597D01*
X201507552Y-99310128D01*
X201353211Y-99388768D01*
X201305822Y-99423199D01*
X201213072Y-99490586D01*
X201213070Y-99490588D01*
X201213069Y-99490588D01*
X201090588Y-99613069D01*
X201090588Y-99613070D01*
X201090586Y-99613072D01*
X201046859Y-99673256D01*
X200988768Y-99753211D01*
X200910128Y-99907552D01*
X200856597Y-100072302D01*
X200839146Y-100182486D01*
X200829500Y-100243389D01*
X194140500Y-100243389D01*
X194113402Y-100072299D01*
X194059873Y-99907555D01*
X193981232Y-99753212D01*
X193879414Y-99613072D01*
X193756928Y-99490586D01*
X193616788Y-99388768D01*
X193462445Y-99310127D01*
X193297701Y-99256598D01*
X193297699Y-99256597D01*
X193297698Y-99256597D01*
X193149271Y-99233089D01*
X193126611Y-99229500D01*
X192953389Y-99229500D01*
X192930729Y-99233089D01*
X192782302Y-99256597D01*
X192617552Y-99310128D01*
X192463211Y-99388768D01*
X192415822Y-99423199D01*
X192323072Y-99490586D01*
X192323070Y-99490588D01*
X192323069Y-99490588D01*
X192200588Y-99613069D01*
X192200588Y-99613070D01*
X192200586Y-99613072D01*
X192156859Y-99673256D01*
X192098768Y-99753211D01*
X192020128Y-99907552D01*
X191966597Y-100072302D01*
X191949146Y-100182486D01*
X191939500Y-100243389D01*
X190210500Y-100243389D01*
X190210500Y-100182494D01*
X190171993Y-99890007D01*
X190095639Y-99605048D01*
X189982743Y-99332493D01*
X189973449Y-99316396D01*
X189835238Y-99077006D01*
X189655647Y-98842959D01*
X189655641Y-98842952D01*
X189447047Y-98634358D01*
X189447040Y-98634352D01*
X189212993Y-98454761D01*
X188957510Y-98307258D01*
X188957500Y-98307254D01*
X188684961Y-98194364D01*
X188684954Y-98194362D01*
X188684952Y-98194361D01*
X188399993Y-98118007D01*
X188351113Y-98111571D01*
X188107513Y-98079500D01*
X188107506Y-98079500D01*
X187812494Y-98079500D01*
X187812486Y-98079500D01*
X187534085Y-98116153D01*
X187520007Y-98118007D01*
X187235048Y-98194361D01*
X187235038Y-98194364D01*
X186962499Y-98307254D01*
X186962489Y-98307258D01*
X186707006Y-98454761D01*
X186472959Y-98634352D01*
X186472952Y-98634358D01*
X186264358Y-98842952D01*
X186264352Y-98842959D01*
X186084761Y-99077006D01*
X185937258Y-99332489D01*
X185937254Y-99332499D01*
X185824364Y-99605038D01*
X185824361Y-99605048D01*
X185748008Y-99890004D01*
X185748006Y-99890015D01*
X185709500Y-100182486D01*
X183970854Y-100182486D01*
X183953402Y-100072299D01*
X183899873Y-99907555D01*
X183821232Y-99753212D01*
X183719414Y-99613072D01*
X183660556Y-99554214D01*
X183627071Y-99492891D01*
X183632055Y-99423199D01*
X183673927Y-99367266D01*
X183739391Y-99342849D01*
X183777184Y-99345959D01*
X183898928Y-99375187D01*
X184150000Y-99394947D01*
X184401072Y-99375187D01*
X184645956Y-99316396D01*
X184878631Y-99220019D01*
X185093361Y-99088432D01*
X185093363Y-99088430D01*
X185094180Y-99087732D01*
X184474025Y-98467578D01*
X184505258Y-98454641D01*
X184628097Y-98372563D01*
X184732563Y-98268097D01*
X184814641Y-98145258D01*
X184827578Y-98114025D01*
X185447732Y-98734180D01*
X185448430Y-98733363D01*
X185448432Y-98733361D01*
X185580019Y-98518631D01*
X185676396Y-98285956D01*
X185735187Y-98041072D01*
X185754947Y-97790000D01*
X185735187Y-97538927D01*
X185676396Y-97294043D01*
X185580019Y-97061368D01*
X185448429Y-96846634D01*
X185447733Y-96845819D01*
X185447732Y-96845819D01*
X184827577Y-97465973D01*
X184814641Y-97434742D01*
X184732563Y-97311903D01*
X184628097Y-97207437D01*
X184505258Y-97125359D01*
X184474023Y-97112421D01*
X185094179Y-96492266D01*
X185093362Y-96491568D01*
X184878631Y-96359980D01*
X184645956Y-96263603D01*
X184401072Y-96204812D01*
X184150000Y-96185052D01*
X183898927Y-96204812D01*
X183654043Y-96263603D01*
X183421368Y-96359980D01*
X183206637Y-96491567D01*
X183205818Y-96492266D01*
X183825974Y-97112421D01*
X183794742Y-97125359D01*
X183671903Y-97207437D01*
X183567437Y-97311903D01*
X183485359Y-97434742D01*
X183472421Y-97465974D01*
X182852266Y-96845818D01*
X182851567Y-96846637D01*
X182719980Y-97061368D01*
X182623603Y-97294043D01*
X182564812Y-97538927D01*
X182545052Y-97790000D01*
X182564812Y-98041072D01*
X182623603Y-98285956D01*
X182719980Y-98518631D01*
X182851568Y-98733362D01*
X182852266Y-98734179D01*
X183472421Y-98114024D01*
X183485359Y-98145258D01*
X183567437Y-98268097D01*
X183671903Y-98372563D01*
X183794742Y-98454641D01*
X183825974Y-98467577D01*
X183205819Y-99087732D01*
X183206989Y-99117539D01*
X183189948Y-99185299D01*
X183138980Y-99233089D01*
X183070264Y-99245738D01*
X183063686Y-99244875D01*
X182989271Y-99233089D01*
X182966611Y-99229500D01*
X182793389Y-99229500D01*
X182770729Y-99233089D01*
X182622302Y-99256597D01*
X182457552Y-99310128D01*
X182303211Y-99388768D01*
X182255822Y-99423199D01*
X182163072Y-99490586D01*
X182163070Y-99490588D01*
X182163069Y-99490588D01*
X182040588Y-99613069D01*
X182040588Y-99613070D01*
X182040586Y-99613072D01*
X181996859Y-99673256D01*
X181938768Y-99753211D01*
X181860128Y-99907552D01*
X181806597Y-100072302D01*
X181789146Y-100182486D01*
X181779500Y-100243389D01*
X171500500Y-100243389D01*
X171500500Y-90293594D01*
X171520185Y-90226555D01*
X171572989Y-90180800D01*
X171642147Y-90170856D01*
X171705703Y-90199881D01*
X171720864Y-90215557D01*
X171723772Y-90219148D01*
X171724657Y-90220241D01*
X171871773Y-90339375D01*
X171871775Y-90339376D01*
X171927279Y-90367656D01*
X172040444Y-90425316D01*
X172223297Y-90474312D01*
X172301925Y-90480500D01*
X173228074Y-90480499D01*
X173306703Y-90474312D01*
X173489556Y-90425316D01*
X173658226Y-90339375D01*
X173805342Y-90220242D01*
X173924475Y-90073126D01*
X173924512Y-90073052D01*
X173924546Y-90073016D01*
X173928014Y-90067677D01*
X173928990Y-90068310D01*
X173972484Y-90022255D01*
X174040304Y-90005455D01*
X174106440Y-90027989D01*
X174141246Y-90068157D01*
X174141986Y-90067677D01*
X174145444Y-90073002D01*
X174145488Y-90073053D01*
X174145526Y-90073128D01*
X174197165Y-90136896D01*
X174264658Y-90220242D01*
X174345946Y-90286068D01*
X174411773Y-90339375D01*
X174411775Y-90339376D01*
X174467279Y-90367656D01*
X174580444Y-90425316D01*
X174763297Y-90474312D01*
X174841925Y-90480500D01*
X175768074Y-90480499D01*
X175846703Y-90474312D01*
X176029556Y-90425316D01*
X176198226Y-90339375D01*
X176345342Y-90220242D01*
X176464475Y-90073126D01*
X176464512Y-90073052D01*
X176464546Y-90073016D01*
X176468014Y-90067677D01*
X176468990Y-90068310D01*
X176512484Y-90022255D01*
X176580304Y-90005455D01*
X176646440Y-90027989D01*
X176681246Y-90068157D01*
X176681986Y-90067677D01*
X176685444Y-90073002D01*
X176685488Y-90073053D01*
X176685526Y-90073128D01*
X176737165Y-90136896D01*
X176804658Y-90220242D01*
X176885946Y-90286068D01*
X176951773Y-90339375D01*
X176951775Y-90339376D01*
X177007279Y-90367656D01*
X177120444Y-90425316D01*
X177303297Y-90474312D01*
X177381925Y-90480500D01*
X178308074Y-90480499D01*
X178386703Y-90474312D01*
X178569556Y-90425316D01*
X178738226Y-90339375D01*
X178885342Y-90220242D01*
X179004475Y-90073126D01*
X179004794Y-90072500D01*
X179005075Y-90072201D01*
X179008014Y-90067677D01*
X179008841Y-90068214D01*
X179052768Y-90021703D01*
X179120588Y-90004907D01*
X179186724Y-90027443D01*
X179221730Y-90067843D01*
X179222407Y-90067404D01*
X179225568Y-90072271D01*
X179225765Y-90072499D01*
X179225944Y-90072851D01*
X179225946Y-90072854D01*
X179345013Y-90219886D01*
X179492045Y-90338953D01*
X179492048Y-90338955D01*
X179660625Y-90424848D01*
X179843377Y-90473816D01*
X179921946Y-90479999D01*
X179921960Y-90480000D01*
X180135000Y-90480000D01*
X180135000Y-88395686D01*
X180139394Y-88400080D01*
X180230606Y-88452741D01*
X180332339Y-88480000D01*
X180437661Y-88480000D01*
X180539394Y-88452741D01*
X180630606Y-88400080D01*
X180635000Y-88395686D01*
X180635000Y-90480000D01*
X180848040Y-90480000D01*
X180848053Y-90479999D01*
X180926622Y-90473816D01*
X181109374Y-90424848D01*
X181277951Y-90338955D01*
X181277954Y-90338953D01*
X181424986Y-90219886D01*
X181544052Y-90072855D01*
X181544227Y-90072513D01*
X181544381Y-90072349D01*
X181547593Y-90067404D01*
X181548496Y-90067990D01*
X181592194Y-90021711D01*
X181660013Y-90004906D01*
X181726151Y-90027435D01*
X181761374Y-90068074D01*
X181761986Y-90067677D01*
X181764842Y-90072076D01*
X181765198Y-90072486D01*
X181765522Y-90073123D01*
X181765524Y-90073126D01*
X181831351Y-90154414D01*
X181884658Y-90220242D01*
X181965946Y-90286068D01*
X182031773Y-90339375D01*
X182031775Y-90339376D01*
X182087279Y-90367656D01*
X182200444Y-90425316D01*
X182383297Y-90474312D01*
X182461925Y-90480500D01*
X183300600Y-90480499D01*
X183367639Y-90500183D01*
X183413394Y-90552987D01*
X183424600Y-90604499D01*
X183424600Y-91339169D01*
X183433646Y-91384643D01*
X183433646Y-91384645D01*
X183449237Y-91463027D01*
X183449599Y-91464844D01*
X183498635Y-91583227D01*
X183569823Y-91689769D01*
X183569826Y-91689773D01*
X185885326Y-94005273D01*
X185885329Y-94005275D01*
X185885331Y-94005277D01*
X185991873Y-94076465D01*
X186110256Y-94125501D01*
X186110260Y-94125501D01*
X186110261Y-94125502D01*
X186235928Y-94150500D01*
X186235931Y-94150500D01*
X186364069Y-94150500D01*
X188479192Y-94150500D01*
X188546231Y-94170185D01*
X188566873Y-94186819D01*
X188961641Y-94581587D01*
X188995126Y-94642910D01*
X188990142Y-94712602D01*
X188988522Y-94716718D01*
X188973127Y-94753886D01*
X188973127Y-94753887D01*
X188914317Y-94998848D01*
X188894551Y-95250000D01*
X188914317Y-95501151D01*
X188973126Y-95746110D01*
X189069533Y-95978859D01*
X189201160Y-96193653D01*
X189201161Y-96193656D01*
X189256604Y-96258571D01*
X189364776Y-96385224D01*
X189489288Y-96491567D01*
X189556343Y-96548838D01*
X189556346Y-96548839D01*
X189771140Y-96680466D01*
X190003889Y-96776873D01*
X190248852Y-96835683D01*
X190500000Y-96855449D01*
X190751148Y-96835683D01*
X190996111Y-96776873D01*
X191228859Y-96680466D01*
X191443659Y-96548836D01*
X191635224Y-96385224D01*
X191798836Y-96193659D01*
X191930466Y-95978859D01*
X192026873Y-95746111D01*
X192085683Y-95501148D01*
X192105449Y-95250000D01*
X192085683Y-94998852D01*
X192026873Y-94753889D01*
X192011476Y-94716718D01*
X191930466Y-94521140D01*
X191798839Y-94306346D01*
X191798838Y-94306343D01*
X191761875Y-94263066D01*
X191635224Y-94114776D01*
X191507012Y-94005273D01*
X191443656Y-93951161D01*
X191443654Y-93951160D01*
X191327901Y-93880227D01*
X191281026Y-93828416D01*
X191269603Y-93759486D01*
X191297260Y-93695323D01*
X191355216Y-93656298D01*
X191392691Y-93650500D01*
X206979192Y-93650500D01*
X207046231Y-93670185D01*
X207066873Y-93686819D01*
X207996997Y-94616943D01*
X208030482Y-94678266D01*
X208025498Y-94747958D01*
X208023879Y-94752071D01*
X208023128Y-94753882D01*
X208023127Y-94753887D01*
X207964317Y-94998848D01*
X207944551Y-95250000D01*
X207964317Y-95501151D01*
X208023126Y-95746110D01*
X208119533Y-95978859D01*
X208251160Y-96193653D01*
X208251161Y-96193656D01*
X208306604Y-96258571D01*
X208414776Y-96385224D01*
X208539288Y-96491567D01*
X208606343Y-96548838D01*
X208606346Y-96548839D01*
X208821140Y-96680466D01*
X209053889Y-96776873D01*
X209298852Y-96835683D01*
X209550000Y-96855449D01*
X209801148Y-96835683D01*
X210046111Y-96776873D01*
X210278859Y-96680466D01*
X210493659Y-96548836D01*
X210685224Y-96385224D01*
X210848836Y-96193659D01*
X210980466Y-95978859D01*
X211076873Y-95746111D01*
X211135683Y-95501148D01*
X211155449Y-95250000D01*
X211135683Y-94998852D01*
X211076873Y-94753889D01*
X211061476Y-94716718D01*
X210980466Y-94521140D01*
X210848839Y-94306346D01*
X210848838Y-94306343D01*
X210811875Y-94263066D01*
X210685224Y-94114776D01*
X210557012Y-94005273D01*
X210493656Y-93951161D01*
X210493653Y-93951160D01*
X210278859Y-93819533D01*
X210046110Y-93723126D01*
X209801151Y-93664317D01*
X209550000Y-93644551D01*
X209298848Y-93664317D01*
X209053887Y-93723127D01*
X209053882Y-93723128D01*
X209052071Y-93723879D01*
X209051327Y-93723958D01*
X209049256Y-93724632D01*
X209049114Y-93724196D01*
X208982602Y-93731345D01*
X208920124Y-93700067D01*
X208916943Y-93696997D01*
X208582127Y-93362181D01*
X208548642Y-93300858D01*
X208553626Y-93231166D01*
X208595498Y-93175233D01*
X208660962Y-93150816D01*
X208669808Y-93150500D01*
X225529192Y-93150500D01*
X225596231Y-93170185D01*
X225616873Y-93186819D01*
X227046997Y-94616943D01*
X227080482Y-94678266D01*
X227075498Y-94747958D01*
X227073879Y-94752071D01*
X227073128Y-94753882D01*
X227073127Y-94753887D01*
X227014317Y-94998848D01*
X226994551Y-95250000D01*
X227014317Y-95501151D01*
X227073126Y-95746110D01*
X227169533Y-95978859D01*
X227301160Y-96193653D01*
X227301161Y-96193656D01*
X227356604Y-96258571D01*
X227464776Y-96385224D01*
X227589288Y-96491567D01*
X227656343Y-96548838D01*
X227656346Y-96548839D01*
X227871140Y-96680466D01*
X228103889Y-96776873D01*
X228348852Y-96835683D01*
X228600000Y-96855449D01*
X228851148Y-96835683D01*
X229096111Y-96776873D01*
X229328859Y-96680466D01*
X229543659Y-96548836D01*
X229735224Y-96385224D01*
X229898836Y-96193659D01*
X230030466Y-95978859D01*
X230126873Y-95746111D01*
X230185683Y-95501148D01*
X230205449Y-95250000D01*
X230185683Y-94998852D01*
X230126873Y-94753889D01*
X230111476Y-94716718D01*
X230030466Y-94521140D01*
X229898839Y-94306346D01*
X229898838Y-94306343D01*
X229861875Y-94263066D01*
X229735224Y-94114776D01*
X229607012Y-94005273D01*
X229543656Y-93951161D01*
X229543653Y-93951160D01*
X229328859Y-93819533D01*
X229096110Y-93723126D01*
X228851151Y-93664317D01*
X228600000Y-93644551D01*
X228348848Y-93664317D01*
X228103887Y-93723127D01*
X228103882Y-93723128D01*
X228102071Y-93723879D01*
X228101327Y-93723958D01*
X228099256Y-93724632D01*
X228099114Y-93724196D01*
X228032602Y-93731345D01*
X227970124Y-93700067D01*
X227966943Y-93696997D01*
X226264674Y-91994727D01*
X226264673Y-91994726D01*
X226264669Y-91994723D01*
X226158127Y-91923535D01*
X226039744Y-91874499D01*
X226039738Y-91874497D01*
X225914071Y-91849500D01*
X225914069Y-91849500D01*
X191020808Y-91849500D01*
X190953769Y-91829815D01*
X190933127Y-91813181D01*
X190081719Y-90961773D01*
X190048234Y-90900450D01*
X190045400Y-90874092D01*
X190045400Y-90604499D01*
X190065085Y-90537460D01*
X190117889Y-90491705D01*
X190169395Y-90480499D01*
X191008074Y-90480499D01*
X191086703Y-90474312D01*
X191269556Y-90425316D01*
X191438226Y-90339375D01*
X191585342Y-90220242D01*
X191704475Y-90073126D01*
X191704512Y-90073052D01*
X191704546Y-90073016D01*
X191708014Y-90067677D01*
X191708990Y-90068310D01*
X191752484Y-90022255D01*
X191820304Y-90005455D01*
X191886440Y-90027989D01*
X191921246Y-90068157D01*
X191921986Y-90067677D01*
X191925444Y-90073002D01*
X191925488Y-90073053D01*
X191925526Y-90073128D01*
X191977165Y-90136896D01*
X192044658Y-90220242D01*
X192125946Y-90286068D01*
X192191773Y-90339375D01*
X192191775Y-90339376D01*
X192247279Y-90367656D01*
X192360444Y-90425316D01*
X192543297Y-90474312D01*
X192621925Y-90480500D01*
X193548074Y-90480499D01*
X193626703Y-90474312D01*
X193809556Y-90425316D01*
X193978226Y-90339375D01*
X194125342Y-90220242D01*
X194244475Y-90073126D01*
X194330416Y-89904456D01*
X194379412Y-89721603D01*
X194385600Y-89642975D01*
X194385599Y-87717026D01*
X194379412Y-87638397D01*
X194330416Y-87455544D01*
X194255451Y-87308416D01*
X194244476Y-87286875D01*
X194244475Y-87286873D01*
X194125341Y-87139757D01*
X194012358Y-87048264D01*
X193972647Y-86990777D01*
X193970320Y-86920946D01*
X194006116Y-86860942D01*
X194054021Y-86837106D01*
X199099500Y-86837106D01*
X199099500Y-87162893D01*
X199135974Y-87486604D01*
X199135976Y-87486620D01*
X199208467Y-87804226D01*
X199208471Y-87804238D01*
X199316066Y-88111725D01*
X199457413Y-88405234D01*
X199457415Y-88405237D01*
X199630739Y-88681081D01*
X199833857Y-88935783D01*
X200064217Y-89166143D01*
X200318919Y-89369261D01*
X200594763Y-89542585D01*
X200888278Y-89683935D01*
X201119217Y-89764744D01*
X201195761Y-89791528D01*
X201195773Y-89791532D01*
X201513383Y-89864024D01*
X201837106Y-89900499D01*
X201837107Y-89900500D01*
X201837111Y-89900500D01*
X202162893Y-89900500D01*
X202162893Y-89900499D01*
X202486617Y-89864024D01*
X202804227Y-89791532D01*
X203111722Y-89683935D01*
X203405237Y-89542585D01*
X203681081Y-89369261D01*
X203935783Y-89166143D01*
X204166143Y-88935783D01*
X204369261Y-88681081D01*
X204542585Y-88405237D01*
X204683935Y-88111722D01*
X204791532Y-87804227D01*
X204864024Y-87486617D01*
X204900500Y-87162889D01*
X204900500Y-86837111D01*
X204900499Y-86837106D01*
X235099500Y-86837106D01*
X235099500Y-87162893D01*
X235135974Y-87486604D01*
X235135976Y-87486620D01*
X235208467Y-87804226D01*
X235208471Y-87804238D01*
X235316066Y-88111725D01*
X235457413Y-88405234D01*
X235457415Y-88405237D01*
X235630739Y-88681081D01*
X235833857Y-88935783D01*
X236064217Y-89166143D01*
X236318919Y-89369261D01*
X236594763Y-89542585D01*
X236888278Y-89683935D01*
X237119217Y-89764744D01*
X237195761Y-89791528D01*
X237195773Y-89791532D01*
X237513383Y-89864024D01*
X237837106Y-89900499D01*
X237837107Y-89900500D01*
X237837111Y-89900500D01*
X238162893Y-89900500D01*
X238162893Y-89900499D01*
X238486617Y-89864024D01*
X238804227Y-89791532D01*
X239111722Y-89683935D01*
X239405237Y-89542585D01*
X239681081Y-89369261D01*
X239935783Y-89166143D01*
X240166143Y-88935783D01*
X240369261Y-88681081D01*
X240542585Y-88405237D01*
X240683935Y-88111722D01*
X240791532Y-87804227D01*
X240864024Y-87486617D01*
X240900500Y-87162889D01*
X240900500Y-86837111D01*
X240864024Y-86513383D01*
X240791532Y-86195773D01*
X240683935Y-85888278D01*
X240542585Y-85594763D01*
X240369261Y-85318919D01*
X240166143Y-85064217D01*
X239935783Y-84833857D01*
X239681081Y-84630739D01*
X239405237Y-84457415D01*
X239405234Y-84457413D01*
X239111725Y-84316066D01*
X238804238Y-84208471D01*
X238804226Y-84208467D01*
X238486620Y-84135976D01*
X238486604Y-84135974D01*
X238162893Y-84099500D01*
X238162889Y-84099500D01*
X237837111Y-84099500D01*
X237837107Y-84099500D01*
X237513395Y-84135974D01*
X237513379Y-84135976D01*
X237195773Y-84208467D01*
X237195761Y-84208471D01*
X236888274Y-84316066D01*
X236594765Y-84457413D01*
X236318920Y-84630738D01*
X236064217Y-84833856D01*
X235833856Y-85064217D01*
X235630738Y-85318920D01*
X235457413Y-85594765D01*
X235316066Y-85888274D01*
X235208471Y-86195761D01*
X235208467Y-86195773D01*
X235135976Y-86513379D01*
X235135974Y-86513395D01*
X235099500Y-86837106D01*
X204900499Y-86837106D01*
X204864024Y-86513383D01*
X204791532Y-86195773D01*
X204683935Y-85888278D01*
X204542585Y-85594763D01*
X204369261Y-85318919D01*
X204166143Y-85064217D01*
X203935783Y-84833857D01*
X203681081Y-84630739D01*
X203405237Y-84457415D01*
X203405234Y-84457413D01*
X203111725Y-84316066D01*
X202804238Y-84208471D01*
X202804226Y-84208467D01*
X202486620Y-84135976D01*
X202486604Y-84135974D01*
X202162893Y-84099500D01*
X202162889Y-84099500D01*
X201837111Y-84099500D01*
X201837107Y-84099500D01*
X201513395Y-84135974D01*
X201513379Y-84135976D01*
X201195773Y-84208467D01*
X201195761Y-84208471D01*
X200888274Y-84316066D01*
X200594765Y-84457413D01*
X200318920Y-84630738D01*
X200064217Y-84833856D01*
X199833856Y-85064217D01*
X199630738Y-85318920D01*
X199457413Y-85594765D01*
X199316066Y-85888274D01*
X199208471Y-86195761D01*
X199208467Y-86195773D01*
X199135976Y-86513379D01*
X199135974Y-86513395D01*
X199099500Y-86837106D01*
X194054021Y-86837106D01*
X194068670Y-86829817D01*
X194090390Y-86827899D01*
X194863888Y-86827899D01*
X194941954Y-86821756D01*
X195123518Y-86773106D01*
X195238022Y-86714763D01*
X195290996Y-86687773D01*
X195290997Y-86687771D01*
X195290999Y-86687771D01*
X195437078Y-86569478D01*
X195555371Y-86423399D01*
X195640706Y-86255918D01*
X195689356Y-86074354D01*
X195695500Y-85996289D01*
X195695499Y-85083712D01*
X195689356Y-85005646D01*
X195640706Y-84824082D01*
X195611534Y-84766829D01*
X195555373Y-84656603D01*
X195522772Y-84616345D01*
X195437078Y-84510522D01*
X195290999Y-84392229D01*
X195290998Y-84392228D01*
X195278691Y-84385958D01*
X195267950Y-84380485D01*
X195217154Y-84332513D01*
X195200358Y-84264692D01*
X195222894Y-84198557D01*
X195267949Y-84159515D01*
X195290999Y-84147771D01*
X195437078Y-84029478D01*
X195555371Y-83883399D01*
X195640706Y-83715918D01*
X195689356Y-83534354D01*
X195695500Y-83456289D01*
X195695499Y-82543712D01*
X195689356Y-82465646D01*
X195640706Y-82284082D01*
X195611534Y-82226829D01*
X195555373Y-82116603D01*
X195522772Y-82076345D01*
X195437078Y-81970522D01*
X195290999Y-81852229D01*
X195290998Y-81852228D01*
X195278691Y-81845958D01*
X195267950Y-81840485D01*
X195217154Y-81792513D01*
X195200358Y-81724692D01*
X195222894Y-81658557D01*
X195267949Y-81619515D01*
X195290999Y-81607771D01*
X195437078Y-81489478D01*
X195555371Y-81343399D01*
X195640706Y-81175918D01*
X195689356Y-80994354D01*
X195695500Y-80916289D01*
X195695499Y-80003712D01*
X195689356Y-79925646D01*
X195640706Y-79744082D01*
X195591285Y-79647086D01*
X195555373Y-79576603D01*
X195503359Y-79512372D01*
X195437078Y-79430522D01*
X195290999Y-79312229D01*
X195290998Y-79312228D01*
X195278691Y-79305958D01*
X195267950Y-79300485D01*
X195217154Y-79252513D01*
X195200358Y-79184692D01*
X195222894Y-79118557D01*
X195267949Y-79079515D01*
X195290999Y-79067771D01*
X195437078Y-78949478D01*
X195555371Y-78803399D01*
X195640706Y-78635918D01*
X195689356Y-78454354D01*
X195695500Y-78376289D01*
X195695499Y-77463712D01*
X195689356Y-77385646D01*
X195640706Y-77204082D01*
X195577996Y-77081005D01*
X195555373Y-77036603D01*
X195513161Y-76984476D01*
X195437078Y-76890522D01*
X195290999Y-76772229D01*
X195290998Y-76772228D01*
X195290995Y-76772226D01*
X195277917Y-76765562D01*
X195227122Y-76717586D01*
X195210329Y-76649764D01*
X195232869Y-76583630D01*
X195277923Y-76544593D01*
X195288149Y-76539383D01*
X195435257Y-76420257D01*
X195554383Y-76273149D01*
X195640320Y-76104488D01*
X195689312Y-75921645D01*
X195695500Y-75843021D01*
X195695499Y-74916980D01*
X195689312Y-74838355D01*
X195640320Y-74655512D01*
X195573490Y-74524350D01*
X195554385Y-74486853D01*
X195469351Y-74381846D01*
X195435257Y-74339743D01*
X195336222Y-74259546D01*
X195288146Y-74220614D01*
X195135695Y-74142938D01*
X195119488Y-74134680D01*
X195021819Y-74108510D01*
X194936643Y-74085687D01*
X194858026Y-74079500D01*
X194105954Y-74079500D01*
X194038915Y-74059815D01*
X193993160Y-74007011D01*
X193983216Y-73937853D01*
X194012241Y-73874297D01*
X194027912Y-73859139D01*
X194125342Y-73780242D01*
X194244475Y-73633126D01*
X194330416Y-73464456D01*
X194379412Y-73281603D01*
X194385600Y-73202975D01*
X194385599Y-71746328D01*
X194405284Y-71679290D01*
X194458087Y-71633535D01*
X194527246Y-71623591D01*
X194590802Y-71652616D01*
X194597280Y-71658648D01*
X198489100Y-75550468D01*
X198522585Y-75611791D01*
X198519355Y-75676452D01*
X198518124Y-75680239D01*
X198518124Y-75680241D01*
X198484500Y-75892534D01*
X198484500Y-76107465D01*
X198518124Y-76319756D01*
X198518124Y-76319759D01*
X198584540Y-76524167D01*
X198584541Y-76524170D01*
X198636080Y-76625320D01*
X198682120Y-76715678D01*
X198808455Y-76889563D01*
X198808457Y-76889565D01*
X198903369Y-76984477D01*
X198936854Y-77045800D01*
X198931870Y-77115492D01*
X198889998Y-77171425D01*
X198859021Y-77188340D01*
X198742913Y-77231645D01*
X198742906Y-77231649D01*
X198627812Y-77317809D01*
X198627809Y-77317812D01*
X198541649Y-77432906D01*
X198541645Y-77432913D01*
X198491403Y-77567620D01*
X198491401Y-77567627D01*
X198485000Y-77627155D01*
X198485000Y-78290000D01*
X199555440Y-78290000D01*
X199524755Y-78343147D01*
X199490000Y-78472857D01*
X199490000Y-78607143D01*
X199524755Y-78736853D01*
X199555440Y-78790000D01*
X198485000Y-78790000D01*
X198485000Y-79452844D01*
X198491401Y-79512372D01*
X198491403Y-79512379D01*
X198541645Y-79647086D01*
X198541649Y-79647093D01*
X198627809Y-79762187D01*
X198627812Y-79762190D01*
X198742906Y-79848350D01*
X198742913Y-79848354D01*
X198877620Y-79898596D01*
X198877627Y-79898598D01*
X198937155Y-79904999D01*
X198937172Y-79905000D01*
X199750000Y-79905000D01*
X199750000Y-78984560D01*
X199803147Y-79015245D01*
X199932857Y-79050000D01*
X200067143Y-79050000D01*
X200196853Y-79015245D01*
X200250000Y-78984560D01*
X200250000Y-79905000D01*
X201062828Y-79905000D01*
X201062844Y-79904999D01*
X201122372Y-79898598D01*
X201122379Y-79898596D01*
X201257086Y-79848354D01*
X201257093Y-79848350D01*
X201372187Y-79762190D01*
X201372190Y-79762187D01*
X201458350Y-79647093D01*
X201458354Y-79647086D01*
X201508596Y-79512379D01*
X201508598Y-79512372D01*
X201514999Y-79452844D01*
X201515000Y-79452827D01*
X201515000Y-78790000D01*
X200444560Y-78790000D01*
X200475245Y-78736853D01*
X200510000Y-78607143D01*
X200510000Y-78472857D01*
X200475245Y-78343147D01*
X200444560Y-78290000D01*
X201515000Y-78290000D01*
X201515000Y-77627172D01*
X201514999Y-77627155D01*
X201508598Y-77567627D01*
X201508596Y-77567620D01*
X201458354Y-77432913D01*
X201458350Y-77432906D01*
X201372190Y-77317812D01*
X201372187Y-77317809D01*
X201257093Y-77231649D01*
X201257086Y-77231645D01*
X201140978Y-77188340D01*
X201085044Y-77146469D01*
X201060627Y-77081005D01*
X201075479Y-77012732D01*
X201096624Y-76984483D01*
X201191545Y-76889563D01*
X201317880Y-76715678D01*
X201415458Y-76524170D01*
X201449221Y-76420257D01*
X201481875Y-76319759D01*
X201481875Y-76319758D01*
X201481876Y-76319755D01*
X201515500Y-76107467D01*
X201515500Y-75892533D01*
X201481876Y-75680245D01*
X201481875Y-75680241D01*
X201481875Y-75680240D01*
X201415459Y-75475832D01*
X201415458Y-75475829D01*
X201317879Y-75284321D01*
X201191545Y-75110437D01*
X201039563Y-74958455D01*
X200982464Y-74916970D01*
X200863198Y-74830318D01*
X200820532Y-74774988D01*
X200814553Y-74705375D01*
X200847159Y-74643580D01*
X200863198Y-74629682D01*
X200891381Y-74609205D01*
X201039563Y-74501545D01*
X201191545Y-74349563D01*
X201317880Y-74175678D01*
X201415458Y-73984170D01*
X201443009Y-73899376D01*
X201481875Y-73779759D01*
X201481875Y-73779758D01*
X201481876Y-73779755D01*
X201515500Y-73567467D01*
X201515500Y-73352533D01*
X201481876Y-73140245D01*
X201445965Y-73029726D01*
X201443971Y-72959886D01*
X201476214Y-72903730D01*
X202105277Y-72274669D01*
X202176465Y-72168127D01*
X202206962Y-72094500D01*
X202225501Y-72049744D01*
X202225502Y-72049739D01*
X202250500Y-71924071D01*
X202250500Y-70335928D01*
X202225502Y-70210261D01*
X202225501Y-70210260D01*
X202225501Y-70210256D01*
X202176465Y-70091873D01*
X202105277Y-69985331D01*
X202105275Y-69985329D01*
X202105273Y-69985326D01*
X200414673Y-68294726D01*
X200414669Y-68294723D01*
X200308127Y-68223535D01*
X200189744Y-68174499D01*
X200189738Y-68174497D01*
X200064071Y-68149500D01*
X200064069Y-68149500D01*
X176320269Y-68149500D01*
X176320267Y-68149500D01*
X176194599Y-68174497D01*
X176194593Y-68174499D01*
X176076212Y-68223534D01*
X175969664Y-68294726D01*
X173738828Y-70525562D01*
X173677505Y-70559047D01*
X173607813Y-70554063D01*
X173594857Y-70548368D01*
X173489488Y-70494680D01*
X173489485Y-70494679D01*
X173306643Y-70445687D01*
X173234736Y-70440028D01*
X173228021Y-70439500D01*
X173228020Y-70439500D01*
X172301989Y-70439500D01*
X172301970Y-70439501D01*
X172223356Y-70445687D01*
X172040512Y-70494680D01*
X171871853Y-70580614D01*
X171724741Y-70699744D01*
X171720864Y-70704533D01*
X171663377Y-70744243D01*
X171593546Y-70746569D01*
X171533542Y-70710773D01*
X171502418Y-70648219D01*
X171500500Y-70626495D01*
X171500500Y-69003051D01*
X171500649Y-68996967D01*
X171517052Y-68663072D01*
X171518245Y-68650962D01*
X171566849Y-68323296D01*
X171569218Y-68311385D01*
X171649710Y-67990043D01*
X171653240Y-67978411D01*
X171764835Y-67666525D01*
X171769476Y-67655318D01*
X171911124Y-67355828D01*
X171916840Y-67345136D01*
X172087145Y-67060998D01*
X172093888Y-67050905D01*
X172291232Y-66784818D01*
X172298935Y-66775433D01*
X172521405Y-66529975D01*
X172529975Y-66521405D01*
X172775433Y-66298935D01*
X172784818Y-66291232D01*
X173050905Y-66093888D01*
X173060998Y-66087145D01*
X173345136Y-65916840D01*
X173355828Y-65911124D01*
X173655318Y-65769476D01*
X173666525Y-65764835D01*
X173978412Y-65653239D01*
X173990043Y-65649710D01*
X174311385Y-65569218D01*
X174323296Y-65566849D01*
X174650962Y-65518244D01*
X174663068Y-65517052D01*
X174996967Y-65500648D01*
X175003051Y-65500500D01*
X175065892Y-65500500D01*
X238934108Y-65500500D01*
X238996949Y-65500500D01*
X239003032Y-65500648D01*
G37*
G04 #@! TD.AperFunction*
G04 #@! TA.AperFunction,Conductor*
G36*
X181726444Y-73587835D02*
G01*
X181761376Y-73628149D01*
X181762075Y-73627696D01*
X181765340Y-73632724D01*
X181765486Y-73632892D01*
X181765617Y-73633149D01*
X181884743Y-73780257D01*
X181975195Y-73853504D01*
X182031853Y-73899385D01*
X182107353Y-73937853D01*
X182200512Y-73985320D01*
X182383355Y-74034312D01*
X182461979Y-74040500D01*
X183154191Y-74040499D01*
X183221230Y-74060183D01*
X183241872Y-74076818D01*
X183388281Y-74223227D01*
X183421766Y-74284550D01*
X183424600Y-74310908D01*
X183424600Y-86755500D01*
X183404915Y-86822539D01*
X183352111Y-86868294D01*
X183300600Y-86879500D01*
X182461935Y-86879500D01*
X182461916Y-86879501D01*
X182383300Y-86885687D01*
X182200444Y-86934684D01*
X182031775Y-87020623D01*
X182031773Y-87020624D01*
X181884658Y-87139758D01*
X181765524Y-87286873D01*
X181765518Y-87286882D01*
X181765194Y-87287520D01*
X181764909Y-87287821D01*
X181761986Y-87292323D01*
X181761161Y-87291787D01*
X181717211Y-87338307D01*
X181649387Y-87355091D01*
X181583256Y-87332542D01*
X181548269Y-87292156D01*
X181547593Y-87292596D01*
X181544426Y-87287719D01*
X181544230Y-87287493D01*
X181544052Y-87287143D01*
X181424986Y-87140113D01*
X181277954Y-87021046D01*
X181277951Y-87021044D01*
X181109374Y-86935151D01*
X180926622Y-86886183D01*
X180848053Y-86880000D01*
X180635000Y-86880000D01*
X180635000Y-87764314D01*
X180630606Y-87759920D01*
X180539394Y-87707259D01*
X180437661Y-87680000D01*
X180332339Y-87680000D01*
X180230606Y-87707259D01*
X180139394Y-87759920D01*
X180135000Y-87764314D01*
X180135000Y-86880000D01*
X179969500Y-86880000D01*
X179902461Y-86860315D01*
X179856706Y-86807511D01*
X179845500Y-86756000D01*
X179845500Y-74164499D01*
X179865185Y-74097460D01*
X179917989Y-74051705D01*
X179969495Y-74040499D01*
X180848020Y-74040499D01*
X180926645Y-74034312D01*
X181109488Y-73985320D01*
X181238008Y-73919835D01*
X181278146Y-73899385D01*
X181278147Y-73899383D01*
X181278149Y-73899383D01*
X181425257Y-73780257D01*
X181544383Y-73633149D01*
X181544514Y-73632892D01*
X181544630Y-73632768D01*
X181547925Y-73627696D01*
X181548852Y-73628298D01*
X181592488Y-73582095D01*
X181660309Y-73565299D01*
X181726444Y-73587835D01*
G37*
G04 #@! TD.AperFunction*
M02*
