G04 #@! TF.GenerationSoftware,KiCad,Pcbnew,8.0.8-8.0.8-0~ubuntu22.04.1*
G04 #@! TF.CreationDate,2025-02-26T16:06:35+08:00*
G04 #@! TF.ProjectId,macropad,6d616372-6f70-4616-942e-6b696361645f,rev?*
G04 #@! TF.SameCoordinates,Original*
G04 #@! TF.FileFunction,Legend,Bot*
G04 #@! TF.FilePolarity,Positive*
%FSLAX46Y46*%
G04 Gerber Fmt 4.6, Leading zero omitted, Abs format (unit mm)*
G04 Created by KiCad (PCBNEW 8.0.8-8.0.8-0~ubuntu22.04.1) date 2025-02-26 16:06:35*
%MOMM*%
%LPD*%
G01*
G04 APERTURE LIST*
G04 Aperture macros list*
%AMRoundRect*
0 Rectangle with rounded corners*
0 $1 Rounding radius*
0 $2 $3 $4 $5 $6 $7 $8 $9 X,Y pos of 4 corners*
0 Add a 4 corners polygon primitive as box body*
4,1,4,$2,$3,$4,$5,$6,$7,$8,$9,$2,$3,0*
0 Add four circle primitives for the rounded corners*
1,1,$1+$1,$2,$3*
1,1,$1+$1,$4,$5*
1,1,$1+$1,$6,$7*
1,1,$1+$1,$8,$9*
0 Add four rect primitives between the rounded corners*
20,1,$1+$1,$2,$3,$4,$5,0*
20,1,$1+$1,$4,$5,$6,$7,0*
20,1,$1+$1,$6,$7,$8,$9,0*
20,1,$1+$1,$8,$9,$2,$3,0*%
G04 Aperture macros list end*
%ADD10C,0.000000*%
%ADD11C,0.396874*%
%ADD12C,5.300000*%
%ADD13R,2.030000X1.730000*%
%ADD14O,2.030000X1.730000*%
%ADD15C,2.200000*%
%ADD16C,1.700000*%
%ADD17C,4.000000*%
%ADD18RoundRect,0.400000X0.400000X-0.900000X0.400000X0.900000X-0.400000X0.900000X-0.400000X-0.900000X0*%
%ADD19RoundRect,0.400050X0.400050X-0.899950X0.400050X0.899950X-0.400050X0.899950X-0.400050X-0.899950X0*%
%ADD20RoundRect,0.400000X0.900000X-0.400000X0.900000X0.400000X-0.900000X0.400000X-0.900000X-0.400000X0*%
%ADD21RoundRect,0.393700X0.906300X-0.393700X0.906300X0.393700X-0.906300X0.393700X-0.906300X-0.393700X0*%
G04 APERTURE END LIST*
D10*
G36*
X205092420Y-96365416D02*
G01*
X204825193Y-96365416D01*
X204825193Y-96098189D01*
X205092420Y-96098189D01*
X205092420Y-96365416D01*
G37*
G36*
X200947988Y-97320563D02*
G01*
X200680761Y-97320563D01*
X200680761Y-96098189D01*
X200947988Y-96098189D01*
X200947988Y-97320563D01*
G37*
G36*
X200947988Y-97799456D02*
G01*
X200680761Y-97799456D01*
X200680761Y-97534873D01*
X200947988Y-97534873D01*
X200947988Y-97799456D01*
G37*
G36*
X202257547Y-96817854D02*
G01*
X202498315Y-96817854D01*
X202498315Y-97561335D01*
X202257547Y-97561335D01*
X202257547Y-97799456D01*
X201511419Y-97799456D01*
X201511419Y-97558688D01*
X201268003Y-97558688D01*
X201268003Y-97291457D01*
X201537878Y-97291457D01*
X201537878Y-97534873D01*
X202231084Y-97534873D01*
X202231084Y-97320563D01*
X201749547Y-97320563D01*
X201749547Y-97053336D01*
X202231084Y-97053336D01*
X202231084Y-96841666D01*
X201537878Y-96841666D01*
X201537878Y-97079791D01*
X201268003Y-97079791D01*
X201268003Y-96817854D01*
X201511419Y-96817854D01*
X201511419Y-96577082D01*
X202257547Y-96577082D01*
X202257547Y-96817854D01*
G37*
G36*
X203033170Y-97799456D02*
G01*
X202765939Y-97799456D01*
X202765939Y-96098189D01*
X203033170Y-96098189D01*
X203033170Y-97799456D01*
G37*
G36*
X204531766Y-97561335D02*
G01*
X204291002Y-97561335D01*
X204291002Y-97799456D01*
X203544874Y-97799456D01*
X203544874Y-97561335D01*
X203301458Y-97561335D01*
X203301458Y-96841666D01*
X203571332Y-96841666D01*
X203571332Y-97534873D01*
X204264539Y-97534873D01*
X204264539Y-96841666D01*
X203571332Y-96841666D01*
X203301458Y-96841666D01*
X203301458Y-96817854D01*
X203544874Y-96817854D01*
X203544874Y-96577082D01*
X204264539Y-96577082D01*
X204264539Y-96098189D01*
X204531766Y-96098189D01*
X204531766Y-97534873D01*
X204531766Y-97561335D01*
G37*
G36*
X205092420Y-97799456D02*
G01*
X204825193Y-97799456D01*
X204825193Y-96577082D01*
X205092420Y-96577082D01*
X205092420Y-97799456D01*
G37*
G36*
X206401979Y-96817854D02*
G01*
X206642747Y-96817854D01*
X206642747Y-97079791D01*
X206401979Y-97079791D01*
X206401979Y-97320563D01*
X205682313Y-97320563D01*
X205682313Y-97534873D01*
X206642747Y-97534873D01*
X206642747Y-97799456D01*
X205655851Y-97799456D01*
X205655851Y-97561335D01*
X205412435Y-97561335D01*
X205412435Y-97294108D01*
X205655851Y-97294108D01*
X205655851Y-97053336D01*
X206375520Y-97053336D01*
X206375520Y-96841666D01*
X205412435Y-96841666D01*
X205412435Y-96577082D01*
X206401979Y-96577082D01*
X206401979Y-96817854D01*
G37*
G36*
X207900579Y-96817854D02*
G01*
X208141347Y-96817854D01*
X208141347Y-97079791D01*
X207900579Y-97079791D01*
X207900579Y-97320563D01*
X207180913Y-97320563D01*
X207180913Y-97534873D01*
X208141347Y-97534873D01*
X208141347Y-97799456D01*
X207154451Y-97799456D01*
X207154451Y-97561335D01*
X206911035Y-97561335D01*
X206911035Y-97294108D01*
X207154451Y-97294108D01*
X207154451Y-97053336D01*
X207874120Y-97053336D01*
X207874120Y-96841666D01*
X206911035Y-96841666D01*
X206911035Y-96577082D01*
X207900579Y-96577082D01*
X207900579Y-96817854D01*
G37*
G36*
X209691675Y-97561335D02*
G01*
X209450902Y-97561335D01*
X209450902Y-97799456D01*
X208704778Y-97799456D01*
X208704778Y-97561335D01*
X208461362Y-97561335D01*
X208461362Y-96841666D01*
X208731237Y-96841666D01*
X208731237Y-97534873D01*
X209424444Y-97534873D01*
X209424444Y-96841666D01*
X208731237Y-96841666D01*
X208461362Y-96841666D01*
X208461362Y-96817854D01*
X208704778Y-96817854D01*
X208704778Y-96577082D01*
X209450902Y-96577082D01*
X209450902Y-96817854D01*
X209691675Y-96817854D01*
X209691675Y-97534873D01*
X209691675Y-97561335D01*
G37*
G36*
X211161829Y-97799456D02*
G01*
X210894601Y-97799456D01*
X210894601Y-97320563D01*
X210174936Y-97320563D01*
X210174936Y-97079791D01*
X209931520Y-97079791D01*
X209931520Y-96365416D01*
X210201395Y-96365416D01*
X210201395Y-97053336D01*
X210894601Y-97053336D01*
X210894601Y-96365416D01*
X210201395Y-96365416D01*
X209931520Y-96365416D01*
X209931520Y-96338961D01*
X210174936Y-96338961D01*
X210174936Y-96098189D01*
X210921064Y-96098189D01*
X210921064Y-96338961D01*
X211161829Y-96338961D01*
X211161829Y-97053336D01*
X211161829Y-97799456D01*
G37*
G36*
X213241853Y-97561335D02*
G01*
X213001081Y-97561335D01*
X213001081Y-97799456D01*
X212254957Y-97799456D01*
X212254957Y-97561335D01*
X212011541Y-97561335D01*
X212011541Y-96841666D01*
X212281415Y-96841666D01*
X212281415Y-97534873D01*
X212974622Y-97534873D01*
X212974622Y-96841666D01*
X212281415Y-96841666D01*
X212011541Y-96841666D01*
X212011541Y-96817854D01*
X212254957Y-96817854D01*
X212254957Y-96577082D01*
X213001081Y-96577082D01*
X213001081Y-96817854D01*
X213241853Y-96817854D01*
X213241853Y-97534873D01*
X213241853Y-97561335D01*
G37*
G36*
X214471242Y-96338961D02*
G01*
X214712007Y-96338961D01*
X214712007Y-96841666D01*
X214471242Y-96841666D01*
X214471242Y-97079791D01*
X213751573Y-97079791D01*
X213751573Y-97534873D01*
X214444780Y-97534873D01*
X214444780Y-97294108D01*
X214712007Y-97294108D01*
X214712007Y-97561335D01*
X214471242Y-97561335D01*
X214471242Y-97799456D01*
X213725114Y-97799456D01*
X213725114Y-97561335D01*
X213481698Y-97561335D01*
X213481698Y-97053336D01*
X213725114Y-97053336D01*
X213725114Y-96817854D01*
X214444780Y-96817854D01*
X214444780Y-96365416D01*
X213751573Y-96365416D01*
X213751573Y-96603545D01*
X213481698Y-96603545D01*
X213481698Y-96338961D01*
X213725114Y-96338961D01*
X213725114Y-96098189D01*
X214471242Y-96098189D01*
X214471242Y-96338961D01*
G37*
G36*
X205452653Y-90296935D02*
G01*
X203780881Y-90296935D01*
X203780881Y-89822669D01*
X204955900Y-89822669D01*
X204955900Y-88752429D01*
X204035280Y-88752429D01*
X204035280Y-88296420D01*
X204949945Y-88296420D01*
X204949945Y-87280947D01*
X203865682Y-87280947D01*
X203865682Y-86800597D01*
X205452653Y-86800597D01*
X205452653Y-90296935D01*
G37*
G36*
X213193170Y-90296935D02*
G01*
X212678422Y-90296935D01*
X212678422Y-88959200D01*
X212230218Y-88959200D01*
X212185334Y-88958356D01*
X212141518Y-88955872D01*
X212098697Y-88951819D01*
X212056798Y-88946269D01*
X212015750Y-88939292D01*
X211975478Y-88930960D01*
X211935911Y-88921345D01*
X211896974Y-88910517D01*
X211876749Y-88904600D01*
X211856951Y-88898257D01*
X211837580Y-88891489D01*
X211818637Y-88884295D01*
X211800119Y-88876675D01*
X211782028Y-88868628D01*
X211764362Y-88860154D01*
X211747121Y-88851252D01*
X211730305Y-88841922D01*
X211713913Y-88832165D01*
X211697946Y-88821978D01*
X211682402Y-88811362D01*
X211667282Y-88800317D01*
X211652584Y-88788842D01*
X211638309Y-88776937D01*
X211624456Y-88764601D01*
X211609909Y-88750836D01*
X211595787Y-88736914D01*
X211582091Y-88722816D01*
X211568820Y-88708524D01*
X211555974Y-88694021D01*
X211543554Y-88679288D01*
X211531561Y-88664307D01*
X211519993Y-88649060D01*
X211508852Y-88633530D01*
X211498138Y-88617699D01*
X211487850Y-88601547D01*
X211477989Y-88585058D01*
X211468555Y-88568213D01*
X211459549Y-88550994D01*
X211450970Y-88533383D01*
X211442819Y-88515362D01*
X211435072Y-88495824D01*
X211427762Y-88476004D01*
X211420897Y-88455900D01*
X211414486Y-88435514D01*
X211408538Y-88414846D01*
X211403062Y-88393893D01*
X211398065Y-88372658D01*
X211393558Y-88351139D01*
X211389548Y-88329336D01*
X211386045Y-88307250D01*
X211383056Y-88284879D01*
X211380592Y-88262224D01*
X211378660Y-88239284D01*
X211377269Y-88216060D01*
X211376428Y-88192551D01*
X211376146Y-88168757D01*
X211376146Y-87657980D01*
X211884935Y-87657980D01*
X211891023Y-87657980D01*
X211891023Y-88168757D01*
X211891380Y-88190054D01*
X211892455Y-88210628D01*
X211894257Y-88230473D01*
X211896796Y-88249578D01*
X211900080Y-88267935D01*
X211904117Y-88285535D01*
X211908917Y-88302369D01*
X211914488Y-88318430D01*
X211920839Y-88333707D01*
X211927978Y-88348193D01*
X211931846Y-88355137D01*
X211935914Y-88361879D01*
X211940184Y-88368419D01*
X211944657Y-88374755D01*
X211949333Y-88380887D01*
X211954215Y-88386814D01*
X211959302Y-88392534D01*
X211964596Y-88398046D01*
X211970098Y-88403349D01*
X211975809Y-88408443D01*
X211981730Y-88413325D01*
X211987863Y-88417996D01*
X212000577Y-88425768D01*
X212013715Y-88433103D01*
X212027278Y-88439992D01*
X212041266Y-88446426D01*
X212055679Y-88452397D01*
X212070517Y-88457896D01*
X212085779Y-88462913D01*
X212101466Y-88467440D01*
X212117578Y-88471467D01*
X212134115Y-88474987D01*
X212151077Y-88477989D01*
X212168463Y-88480466D01*
X212186274Y-88482407D01*
X212204511Y-88483805D01*
X212223172Y-88484651D01*
X212242258Y-88484934D01*
X212684373Y-88484934D01*
X212684373Y-87280947D01*
X212242258Y-87280947D01*
X212220456Y-87281321D01*
X212199330Y-87282442D01*
X212178879Y-87284308D01*
X212159106Y-87286920D01*
X212140010Y-87290275D01*
X212121594Y-87294373D01*
X212103858Y-87299212D01*
X212086804Y-87304791D01*
X212070432Y-87311110D01*
X212054745Y-87318167D01*
X212039742Y-87325961D01*
X212025425Y-87334491D01*
X212011796Y-87343757D01*
X211998855Y-87353755D01*
X211986604Y-87364487D01*
X211975043Y-87375951D01*
X211964174Y-87388145D01*
X211953999Y-87401068D01*
X211944517Y-87414720D01*
X211935730Y-87429099D01*
X211927640Y-87444204D01*
X211920247Y-87460035D01*
X211913553Y-87476589D01*
X211907559Y-87493867D01*
X211902266Y-87511866D01*
X211897675Y-87530586D01*
X211893787Y-87550026D01*
X211890603Y-87570184D01*
X211888125Y-87591059D01*
X211886353Y-87612652D01*
X211884935Y-87657980D01*
X211376146Y-87657980D01*
X211376146Y-87645810D01*
X211377068Y-87594202D01*
X211379836Y-87544291D01*
X211384448Y-87496057D01*
X211390906Y-87449483D01*
X211399209Y-87404549D01*
X211409359Y-87361239D01*
X211421354Y-87319532D01*
X211435195Y-87279411D01*
X211450883Y-87240858D01*
X211468418Y-87203853D01*
X211487799Y-87168379D01*
X211509028Y-87134418D01*
X211532104Y-87101949D01*
X211557027Y-87070957D01*
X211583798Y-87041421D01*
X211612417Y-87013323D01*
X211641504Y-86987890D01*
X211672005Y-86964035D01*
X211703910Y-86941766D01*
X211737210Y-86921093D01*
X211771897Y-86902023D01*
X211807960Y-86884565D01*
X211845390Y-86868729D01*
X211884179Y-86854522D01*
X211924316Y-86841955D01*
X211965792Y-86831035D01*
X212008599Y-86821770D01*
X212052726Y-86814171D01*
X212098165Y-86808245D01*
X212144906Y-86804002D01*
X212192940Y-86801449D01*
X212242258Y-86800597D01*
X213193170Y-86800597D01*
X213193170Y-88484934D01*
X213193170Y-90296935D01*
G37*
G36*
X219698213Y-89719214D02*
G01*
X220824808Y-86800597D01*
X221557706Y-86800597D01*
X221557706Y-90296935D01*
X221097330Y-90296935D01*
X221097330Y-87420781D01*
X220037408Y-90296935D01*
X219243928Y-90296935D01*
X219243928Y-86800597D01*
X219698213Y-86800597D01*
X219698213Y-89719214D01*
G37*
G36*
X222944654Y-90296935D02*
G01*
X222429773Y-90296935D01*
X222429773Y-86800597D01*
X222944654Y-86800597D01*
X222944654Y-90296935D01*
G37*
G36*
X208008527Y-90303019D02*
G01*
X207493780Y-90303019D01*
X207493780Y-88843710D01*
X207106168Y-88843710D01*
X206470106Y-90303019D01*
X205943189Y-90303019D01*
X206609411Y-88788943D01*
X206576919Y-88777177D01*
X206545273Y-88764702D01*
X206514476Y-88751516D01*
X206484526Y-88737619D01*
X206455426Y-88723012D01*
X206427174Y-88707693D01*
X206399772Y-88691664D01*
X206373221Y-88674923D01*
X206347521Y-88657470D01*
X206322673Y-88639306D01*
X206298677Y-88620430D01*
X206275534Y-88600841D01*
X206253245Y-88580541D01*
X206231809Y-88559527D01*
X206211228Y-88537801D01*
X206191503Y-88515362D01*
X206172842Y-88492044D01*
X206155449Y-88467731D01*
X206139316Y-88442422D01*
X206124434Y-88416117D01*
X206110794Y-88388816D01*
X206098386Y-88360518D01*
X206087203Y-88331225D01*
X206077234Y-88300934D01*
X206068472Y-88269647D01*
X206060907Y-88237363D01*
X206054530Y-88204081D01*
X206049333Y-88169802D01*
X206045306Y-88134526D01*
X206042440Y-88098252D01*
X206040728Y-88060980D01*
X206040159Y-88022709D01*
X206040159Y-87670151D01*
X206560991Y-87670151D01*
X206560991Y-88022709D01*
X206561347Y-88045102D01*
X206562423Y-88066644D01*
X206564226Y-88087347D01*
X206566766Y-88107218D01*
X206570052Y-88126268D01*
X206574093Y-88144506D01*
X206578897Y-88161940D01*
X206584474Y-88178581D01*
X206590832Y-88194437D01*
X206597980Y-88209518D01*
X206605927Y-88223834D01*
X206614683Y-88237393D01*
X206624255Y-88250204D01*
X206634654Y-88262278D01*
X206645887Y-88273623D01*
X206657964Y-88284249D01*
X206669653Y-88293090D01*
X206682037Y-88301358D01*
X206695098Y-88309054D01*
X206708818Y-88316177D01*
X206723180Y-88322727D01*
X206738164Y-88328707D01*
X206753753Y-88334115D01*
X206769929Y-88338952D01*
X206786675Y-88343218D01*
X206803971Y-88346915D01*
X206821800Y-88350041D01*
X206840144Y-88352599D01*
X206858985Y-88354587D01*
X206878305Y-88356007D01*
X206898086Y-88356858D01*
X206918310Y-88357142D01*
X207499734Y-88357142D01*
X207499734Y-87287034D01*
X206924398Y-87287034D01*
X206902044Y-87287408D01*
X206880399Y-87288530D01*
X206859463Y-87290400D01*
X206839236Y-87293018D01*
X206819719Y-87296384D01*
X206800912Y-87300499D01*
X206782814Y-87305361D01*
X206765425Y-87310972D01*
X206748746Y-87317331D01*
X206732776Y-87324438D01*
X206717516Y-87332294D01*
X206702965Y-87340898D01*
X206689124Y-87350250D01*
X206675993Y-87360350D01*
X206663571Y-87371199D01*
X206651858Y-87382796D01*
X206640856Y-87395142D01*
X206630563Y-87408236D01*
X206620980Y-87422078D01*
X206612106Y-87436669D01*
X206603942Y-87452009D01*
X206596488Y-87468097D01*
X206589744Y-87484933D01*
X206583710Y-87502518D01*
X206578385Y-87520852D01*
X206573770Y-87539934D01*
X206569866Y-87559765D01*
X206566671Y-87580345D01*
X206564186Y-87601673D01*
X206562411Y-87623751D01*
X206560991Y-87670151D01*
X206040159Y-87670151D01*
X206040159Y-87664067D01*
X206041011Y-87609110D01*
X206043575Y-87556010D01*
X206047860Y-87504766D01*
X206053874Y-87455378D01*
X206061626Y-87407845D01*
X206071127Y-87362165D01*
X206082384Y-87318340D01*
X206095407Y-87276368D01*
X206110205Y-87236248D01*
X206126788Y-87197981D01*
X206145164Y-87161565D01*
X206165342Y-87127000D01*
X206187331Y-87094285D01*
X206211142Y-87063420D01*
X206236782Y-87034404D01*
X206264261Y-87007237D01*
X206293418Y-86981873D01*
X206324128Y-86958211D01*
X206356383Y-86936242D01*
X206390175Y-86915958D01*
X206425493Y-86897349D01*
X206462329Y-86880405D01*
X206500674Y-86865119D01*
X206540520Y-86851480D01*
X206581857Y-86839480D01*
X206624676Y-86829109D01*
X206668969Y-86820359D01*
X206714726Y-86813220D01*
X206761940Y-86807684D01*
X206810600Y-86803741D01*
X206860698Y-86801381D01*
X206912225Y-86800597D01*
X208008527Y-86800597D01*
X208008527Y-88357142D01*
X208008527Y-90303019D01*
G37*
G36*
X216100412Y-90303019D02*
G01*
X215573495Y-90303019D01*
X215331266Y-89384783D01*
X214398477Y-89384783D01*
X214162336Y-90303019D01*
X213641374Y-90303019D01*
X213996819Y-88934859D01*
X214513570Y-88934859D01*
X215228345Y-88934859D01*
X214870893Y-87359927D01*
X214513570Y-88934859D01*
X213996819Y-88934859D01*
X214556039Y-86782341D01*
X215161672Y-86782341D01*
X215735611Y-88934859D01*
X216100412Y-90303019D01*
G37*
G36*
X224635970Y-86740600D02*
G01*
X224690341Y-86743167D01*
X224743298Y-86747446D01*
X224794983Y-86753436D01*
X224845540Y-86761137D01*
X224895111Y-86770550D01*
X224943838Y-86781675D01*
X224991865Y-86794512D01*
X225015423Y-86801617D01*
X225038434Y-86809278D01*
X225060915Y-86817476D01*
X225082884Y-86826194D01*
X225104357Y-86835413D01*
X225125352Y-86845116D01*
X225145887Y-86855284D01*
X225165978Y-86865900D01*
X225185642Y-86876945D01*
X225204898Y-86888401D01*
X225223762Y-86900251D01*
X225242251Y-86912477D01*
X225260383Y-86925059D01*
X225278174Y-86937981D01*
X225295643Y-86951225D01*
X225312807Y-86964772D01*
X225328562Y-86979727D01*
X225344017Y-86994988D01*
X225359154Y-87010573D01*
X225373955Y-87026498D01*
X225388402Y-87042781D01*
X225402477Y-87059440D01*
X225416161Y-87076492D01*
X225429437Y-87093954D01*
X225442287Y-87111845D01*
X225454692Y-87130180D01*
X225466635Y-87148978D01*
X225478097Y-87168257D01*
X225489062Y-87188033D01*
X225499509Y-87208324D01*
X225509422Y-87229148D01*
X225518783Y-87250521D01*
X225527579Y-87272391D01*
X225535811Y-87294692D01*
X225543477Y-87317423D01*
X225550578Y-87340583D01*
X225557114Y-87364173D01*
X225563083Y-87388192D01*
X225568485Y-87412640D01*
X225573321Y-87437516D01*
X225577589Y-87462819D01*
X225581289Y-87488550D01*
X225584421Y-87514709D01*
X225586984Y-87541294D01*
X225588979Y-87568305D01*
X225590404Y-87595743D01*
X225591259Y-87623606D01*
X225591545Y-87651894D01*
X225590666Y-87705746D01*
X225589541Y-87732007D01*
X225587935Y-87757815D01*
X225585833Y-87783158D01*
X225583215Y-87808029D01*
X225580064Y-87832419D01*
X225576364Y-87856318D01*
X225572096Y-87879719D01*
X225567243Y-87902611D01*
X225561788Y-87924986D01*
X225555714Y-87946835D01*
X225549002Y-87968149D01*
X225541636Y-87988920D01*
X225533597Y-88009138D01*
X225524869Y-88028794D01*
X225515648Y-88049120D01*
X225506142Y-88069033D01*
X225496350Y-88088551D01*
X225486274Y-88107693D01*
X225475911Y-88126477D01*
X225465264Y-88144921D01*
X225454331Y-88163044D01*
X225443113Y-88180863D01*
X225431610Y-88198396D01*
X225419821Y-88215663D01*
X225407747Y-88232681D01*
X225395388Y-88249469D01*
X225369814Y-88282424D01*
X225343099Y-88314677D01*
X225330483Y-88329345D01*
X225317599Y-88343740D01*
X225304465Y-88357870D01*
X225291099Y-88371744D01*
X225263740Y-88398755D01*
X225235663Y-88424842D01*
X225207009Y-88450074D01*
X225177920Y-88474518D01*
X225148535Y-88498242D01*
X225118997Y-88521315D01*
X225087495Y-88541854D01*
X225056635Y-88562392D01*
X225026488Y-88582931D01*
X224997125Y-88603469D01*
X224968617Y-88624007D01*
X224941037Y-88644546D01*
X224914455Y-88665084D01*
X224888942Y-88685622D01*
X224836773Y-88718539D01*
X224780646Y-88753206D01*
X224721121Y-88789038D01*
X224658756Y-88825453D01*
X224626968Y-88841681D01*
X224595251Y-88858561D01*
X224563677Y-88876164D01*
X224532317Y-88894559D01*
X224501243Y-88913816D01*
X224470525Y-88934005D01*
X224440234Y-88955196D01*
X224410444Y-88977458D01*
X224395826Y-88987776D01*
X224381491Y-88998249D01*
X224367438Y-89008885D01*
X224353668Y-89019693D01*
X224340181Y-89030681D01*
X224326977Y-89041859D01*
X224314056Y-89053235D01*
X224301419Y-89064818D01*
X224289065Y-89076617D01*
X224276996Y-89088640D01*
X224265210Y-89100895D01*
X224253709Y-89113392D01*
X224242493Y-89126140D01*
X224231561Y-89139147D01*
X224220914Y-89152421D01*
X224210552Y-89165972D01*
X224200617Y-89178643D01*
X224191259Y-89191601D01*
X224182486Y-89204847D01*
X224174308Y-89218381D01*
X224166732Y-89232201D01*
X224159769Y-89246307D01*
X224153426Y-89260700D01*
X224147713Y-89275378D01*
X224142639Y-89290342D01*
X224138213Y-89305590D01*
X224134443Y-89321123D01*
X224131338Y-89336940D01*
X224128908Y-89353041D01*
X224127161Y-89369424D01*
X224126106Y-89386091D01*
X224125753Y-89403040D01*
X224126319Y-89434393D01*
X224128011Y-89464599D01*
X224130820Y-89493648D01*
X224134738Y-89521531D01*
X224139756Y-89548240D01*
X224145865Y-89573763D01*
X224153057Y-89598093D01*
X224161322Y-89621221D01*
X224170653Y-89643135D01*
X224181039Y-89663829D01*
X224186626Y-89673714D01*
X224192474Y-89683291D01*
X224198581Y-89692557D01*
X224204947Y-89701513D01*
X224211570Y-89710156D01*
X224218450Y-89718485D01*
X224225586Y-89726500D01*
X224232975Y-89734199D01*
X224240618Y-89741581D01*
X224248513Y-89748645D01*
X224256658Y-89755389D01*
X224265054Y-89761813D01*
X224282522Y-89772867D01*
X224300848Y-89783207D01*
X224320042Y-89792835D01*
X224340113Y-89801749D01*
X224361069Y-89809950D01*
X224382921Y-89817438D01*
X224405677Y-89824213D01*
X224429346Y-89830275D01*
X224453938Y-89835623D01*
X224479461Y-89840258D01*
X224505925Y-89844181D01*
X224533338Y-89847390D01*
X224561710Y-89849886D01*
X224591051Y-89851668D01*
X224621368Y-89852738D01*
X224652671Y-89853095D01*
X224684114Y-89852665D01*
X224714838Y-89851371D01*
X224744835Y-89849204D01*
X224774094Y-89846154D01*
X224802608Y-89842212D01*
X224830367Y-89837370D01*
X224857362Y-89831619D01*
X224883585Y-89824950D01*
X224909027Y-89817354D01*
X224933678Y-89808822D01*
X224957531Y-89799344D01*
X224980575Y-89788913D01*
X225002802Y-89777519D01*
X225024203Y-89765153D01*
X225044770Y-89751807D01*
X225064493Y-89737471D01*
X225083602Y-89722232D01*
X225102283Y-89706126D01*
X225120536Y-89689144D01*
X225138362Y-89671277D01*
X225155759Y-89652517D01*
X225172729Y-89632856D01*
X225189271Y-89612285D01*
X225205385Y-89590795D01*
X225221071Y-89568378D01*
X225236329Y-89545025D01*
X225251159Y-89520728D01*
X225265561Y-89495478D01*
X225279536Y-89469268D01*
X225293082Y-89442087D01*
X225306200Y-89413929D01*
X225318891Y-89384783D01*
X225718677Y-89707045D01*
X225697742Y-89748523D01*
X225675820Y-89788567D01*
X225652922Y-89827166D01*
X225629055Y-89864313D01*
X225604230Y-89899999D01*
X225578455Y-89934215D01*
X225551739Y-89966953D01*
X225524092Y-89998203D01*
X225495523Y-90027957D01*
X225466040Y-90056206D01*
X225435653Y-90082942D01*
X225404370Y-90108156D01*
X225372202Y-90131838D01*
X225339157Y-90153981D01*
X225305244Y-90174576D01*
X225270473Y-90193614D01*
X225234921Y-90212347D01*
X225198675Y-90229809D01*
X225161752Y-90246008D01*
X225124170Y-90260953D01*
X225085949Y-90274652D01*
X225047105Y-90287113D01*
X225007657Y-90298347D01*
X224967624Y-90308361D01*
X224927023Y-90317164D01*
X224885874Y-90324766D01*
X224844193Y-90331173D01*
X224801999Y-90336397D01*
X224759311Y-90340444D01*
X224716147Y-90343324D01*
X224672524Y-90345046D01*
X224628461Y-90345618D01*
X224574511Y-90344762D01*
X224521700Y-90342195D01*
X224470027Y-90337916D01*
X224419490Y-90331925D01*
X224370088Y-90324223D01*
X224321819Y-90314809D01*
X224274682Y-90303683D01*
X224228675Y-90290846D01*
X224205117Y-90282647D01*
X224182106Y-90274023D01*
X224159625Y-90264973D01*
X224137656Y-90255497D01*
X224116183Y-90245595D01*
X224095188Y-90235266D01*
X224074654Y-90224509D01*
X224054563Y-90213326D01*
X224034898Y-90201714D01*
X224015643Y-90189674D01*
X223996780Y-90177205D01*
X223978291Y-90164307D01*
X223960159Y-90150979D01*
X223942368Y-90137222D01*
X223924900Y-90123034D01*
X223907737Y-90108416D01*
X223890908Y-90093461D01*
X223874505Y-90078200D01*
X223858526Y-90062616D01*
X223842973Y-90046691D01*
X223827846Y-90030408D01*
X223813144Y-90013749D01*
X223798869Y-89996697D01*
X223785019Y-89979235D01*
X223771596Y-89961345D01*
X223758600Y-89943010D01*
X223746030Y-89924211D01*
X223733887Y-89904933D01*
X223722171Y-89885157D01*
X223710883Y-89864866D01*
X223700022Y-89844042D01*
X223689588Y-89822669D01*
X223679722Y-89800730D01*
X223670557Y-89778237D01*
X223662084Y-89755206D01*
X223654295Y-89731656D01*
X223647180Y-89707606D01*
X223640730Y-89683073D01*
X223634937Y-89658075D01*
X223629792Y-89632632D01*
X223625285Y-89606760D01*
X223621408Y-89580479D01*
X223618152Y-89553807D01*
X223615508Y-89526761D01*
X223613467Y-89499360D01*
X223612020Y-89471622D01*
X223610874Y-89415209D01*
X223611729Y-89357341D01*
X223614293Y-89302253D01*
X223616214Y-89275730D01*
X223618562Y-89249876D01*
X223621335Y-89224681D01*
X223624533Y-89200137D01*
X223628156Y-89176235D01*
X223632204Y-89152966D01*
X223636675Y-89130320D01*
X223641570Y-89108290D01*
X223646888Y-89086866D01*
X223652629Y-89066039D01*
X223658793Y-89045800D01*
X223665378Y-89026141D01*
X223672340Y-89006889D01*
X223679585Y-88987935D01*
X223687112Y-88969286D01*
X223694922Y-88950950D01*
X223703014Y-88932937D01*
X223711390Y-88915255D01*
X223720050Y-88897913D01*
X223728992Y-88880919D01*
X223738219Y-88864281D01*
X223747729Y-88848008D01*
X223757524Y-88832108D01*
X223767603Y-88816591D01*
X223777966Y-88801464D01*
X223788615Y-88786737D01*
X223799548Y-88772417D01*
X223810766Y-88758513D01*
X223833783Y-88731470D01*
X223857442Y-88705058D01*
X223881810Y-88679349D01*
X223906958Y-88654417D01*
X223919846Y-88642265D01*
X223932956Y-88630334D01*
X223946295Y-88618634D01*
X223959873Y-88607174D01*
X223973698Y-88595962D01*
X223987779Y-88585009D01*
X224002125Y-88574322D01*
X224016744Y-88563912D01*
X224072263Y-88522817D01*
X224129507Y-88481115D01*
X224187916Y-88438247D01*
X224217383Y-88416201D01*
X224246932Y-88393654D01*
X224268233Y-88377700D01*
X224291306Y-88361592D01*
X224316223Y-88345190D01*
X224343058Y-88328352D01*
X224371884Y-88310937D01*
X224402773Y-88292804D01*
X224471035Y-88253821D01*
X224542639Y-88212671D01*
X224612569Y-88170974D01*
X224647081Y-88149735D01*
X224681384Y-88128136D01*
X224715547Y-88106103D01*
X224749641Y-88083561D01*
X224783113Y-88060462D01*
X224815465Y-88036801D01*
X224846692Y-88012576D01*
X224876789Y-87987783D01*
X224891412Y-87975173D01*
X224905751Y-87962420D01*
X224919805Y-87949523D01*
X224933574Y-87936483D01*
X224947056Y-87923298D01*
X224960252Y-87909969D01*
X224973161Y-87896495D01*
X224985782Y-87882876D01*
X224997859Y-87868065D01*
X225009091Y-87853242D01*
X225019489Y-87838399D01*
X225029061Y-87823527D01*
X225037816Y-87808618D01*
X225045763Y-87793663D01*
X225052911Y-87778654D01*
X225059268Y-87763582D01*
X225064845Y-87748439D01*
X225069649Y-87733216D01*
X225073689Y-87717904D01*
X225076975Y-87702496D01*
X225079515Y-87686982D01*
X225081318Y-87671355D01*
X225082393Y-87655604D01*
X225082750Y-87639723D01*
X225082255Y-87611722D01*
X225080783Y-87584725D01*
X225078352Y-87558742D01*
X225074980Y-87533783D01*
X225070684Y-87509855D01*
X225065484Y-87486970D01*
X225059396Y-87465136D01*
X225052439Y-87444362D01*
X225044631Y-87424657D01*
X225035989Y-87406032D01*
X225026533Y-87388495D01*
X225016280Y-87372056D01*
X225005248Y-87356724D01*
X224993454Y-87342508D01*
X224980918Y-87329417D01*
X224967657Y-87317462D01*
X224952473Y-87305337D01*
X224936445Y-87294059D01*
X224919583Y-87283619D01*
X224901895Y-87274008D01*
X224883390Y-87265217D01*
X224864076Y-87257237D01*
X224843964Y-87250060D01*
X224823061Y-87243676D01*
X224801377Y-87238076D01*
X224778921Y-87233252D01*
X224755701Y-87229195D01*
X224731727Y-87225895D01*
X224707007Y-87223344D01*
X224681550Y-87221533D01*
X224655365Y-87220453D01*
X224628461Y-87220095D01*
X224617032Y-87220238D01*
X224605479Y-87220666D01*
X224593818Y-87221379D01*
X224582070Y-87222377D01*
X224570250Y-87223661D01*
X224558379Y-87225230D01*
X224546472Y-87227084D01*
X224534550Y-87229223D01*
X224522629Y-87231648D01*
X224510727Y-87234358D01*
X224498863Y-87237353D01*
X224487055Y-87240633D01*
X224475320Y-87244199D01*
X224463677Y-87248050D01*
X224452144Y-87252186D01*
X224440738Y-87256608D01*
X224418029Y-87266020D01*
X224395391Y-87276002D01*
X224372896Y-87286552D01*
X224350615Y-87297667D01*
X224328618Y-87309347D01*
X224306979Y-87321589D01*
X224285767Y-87334393D01*
X224265054Y-87347756D01*
X224242619Y-87361733D01*
X224220753Y-87376281D01*
X224199459Y-87391399D01*
X224178735Y-87407088D01*
X224158581Y-87423348D01*
X224138998Y-87440178D01*
X224119985Y-87457579D01*
X224101543Y-87475550D01*
X224092514Y-87483582D01*
X224083639Y-87491742D01*
X224074927Y-87500012D01*
X224066386Y-87508373D01*
X224049853Y-87525298D01*
X224034107Y-87542374D01*
X224019217Y-87559456D01*
X224005251Y-87576400D01*
X223992277Y-87593062D01*
X223980363Y-87609297D01*
X223671463Y-87214009D01*
X223692257Y-87187006D01*
X223713761Y-87160716D01*
X223735975Y-87135138D01*
X223758899Y-87110274D01*
X223782533Y-87086121D01*
X223806877Y-87062681D01*
X223831932Y-87039953D01*
X223857696Y-87017936D01*
X223884170Y-86996631D01*
X223911354Y-86976038D01*
X223939249Y-86956156D01*
X223967853Y-86936984D01*
X223997168Y-86918524D01*
X224027193Y-86900774D01*
X224057927Y-86883735D01*
X224089372Y-86867405D01*
X224120031Y-86851954D01*
X224150690Y-86837497D01*
X224181349Y-86824037D01*
X224212009Y-86811572D01*
X224242670Y-86800103D01*
X224273331Y-86789631D01*
X224303994Y-86780155D01*
X224334658Y-86771676D01*
X224365324Y-86764194D01*
X224395991Y-86757708D01*
X224426661Y-86752220D01*
X224457332Y-86747730D01*
X224488006Y-86744236D01*
X224518682Y-86741741D01*
X224549361Y-86740244D01*
X224580043Y-86739745D01*
X224635970Y-86740600D01*
G37*
G36*
X210915903Y-87809983D02*
G01*
X210915903Y-89299719D01*
X210915549Y-89331429D01*
X210914494Y-89362710D01*
X210912747Y-89393564D01*
X210910317Y-89423990D01*
X210907213Y-89453988D01*
X210903442Y-89483558D01*
X210899016Y-89512701D01*
X210893941Y-89541415D01*
X210888228Y-89569702D01*
X210881885Y-89597561D01*
X210874922Y-89624992D01*
X210867346Y-89651995D01*
X210859167Y-89678570D01*
X210850394Y-89704717D01*
X210841036Y-89730437D01*
X210831102Y-89755728D01*
X210820577Y-89779453D01*
X210809496Y-89802752D01*
X210797868Y-89825625D01*
X210785702Y-89848072D01*
X210773007Y-89870093D01*
X210759792Y-89891688D01*
X210746064Y-89912855D01*
X210731833Y-89933595D01*
X210717108Y-89953907D01*
X210701896Y-89973790D01*
X210686208Y-89993245D01*
X210670051Y-90012271D01*
X210653435Y-90030868D01*
X210636368Y-90049035D01*
X210618858Y-90066772D01*
X210600915Y-90084078D01*
X210582453Y-90100908D01*
X210563435Y-90117173D01*
X210543869Y-90132883D01*
X210523765Y-90148048D01*
X210503130Y-90162676D01*
X210481974Y-90176777D01*
X210460304Y-90190360D01*
X210438130Y-90203435D01*
X210415460Y-90216011D01*
X210392303Y-90228097D01*
X210368666Y-90239703D01*
X210344559Y-90250837D01*
X210319990Y-90261509D01*
X210294968Y-90271728D01*
X210269500Y-90281504D01*
X210243597Y-90290846D01*
X210190749Y-90305953D01*
X210136782Y-90319278D01*
X210081694Y-90330748D01*
X210025480Y-90340293D01*
X209968137Y-90347841D01*
X209909663Y-90353321D01*
X209850053Y-90356661D01*
X209789304Y-90357790D01*
X209728719Y-90357790D01*
X209669986Y-90356661D01*
X209611956Y-90353321D01*
X209554772Y-90347841D01*
X209498578Y-90340293D01*
X209443519Y-90330748D01*
X209389740Y-90319278D01*
X209337384Y-90305953D01*
X209286596Y-90290846D01*
X209260691Y-90281504D01*
X209235219Y-90271728D01*
X209210190Y-90261509D01*
X209185613Y-90250837D01*
X209161496Y-90239703D01*
X209137849Y-90228097D01*
X209114679Y-90216011D01*
X209091997Y-90203435D01*
X209069811Y-90190360D01*
X209048130Y-90176777D01*
X209026963Y-90162676D01*
X209006318Y-90148048D01*
X208986206Y-90132883D01*
X208966634Y-90117173D01*
X208947611Y-90100908D01*
X208929147Y-90084078D01*
X208910132Y-90066704D01*
X208891684Y-90048774D01*
X208873804Y-90030307D01*
X208856491Y-90011321D01*
X208839746Y-89991834D01*
X208823569Y-89971865D01*
X208807959Y-89951432D01*
X208792916Y-89930553D01*
X208778441Y-89909245D01*
X208764534Y-89887528D01*
X208751194Y-89865420D01*
X208738421Y-89842939D01*
X208726216Y-89820102D01*
X208714579Y-89796929D01*
X208703509Y-89773436D01*
X208693006Y-89749644D01*
X208682000Y-89724421D01*
X208671704Y-89698894D01*
X208662118Y-89673047D01*
X208653242Y-89646861D01*
X208645076Y-89620318D01*
X208637621Y-89593401D01*
X208630875Y-89566092D01*
X208624839Y-89538373D01*
X208619514Y-89510226D01*
X208614898Y-89481633D01*
X208610993Y-89452577D01*
X208607798Y-89423039D01*
X208605312Y-89393003D01*
X208603537Y-89362449D01*
X208602472Y-89331360D01*
X208602117Y-89299719D01*
X208602117Y-87809983D01*
X208602188Y-87803898D01*
X209123086Y-87803898D01*
X209123086Y-89287547D01*
X209123792Y-89323464D01*
X209125897Y-89358241D01*
X209129384Y-89391876D01*
X209134236Y-89424370D01*
X209140435Y-89455723D01*
X209147963Y-89485936D01*
X209156804Y-89515007D01*
X209166940Y-89542937D01*
X209178353Y-89569726D01*
X209191027Y-89595374D01*
X209204943Y-89619881D01*
X209220084Y-89643247D01*
X209236432Y-89665472D01*
X209253971Y-89686557D01*
X209272683Y-89706500D01*
X209292551Y-89725302D01*
X209313439Y-89741917D01*
X209335183Y-89757524D01*
X209357793Y-89772115D01*
X209381278Y-89785681D01*
X209405647Y-89798213D01*
X209430910Y-89809702D01*
X209457077Y-89820139D01*
X209484157Y-89829515D01*
X209512159Y-89837822D01*
X209541093Y-89845050D01*
X209570968Y-89851190D01*
X209601795Y-89856234D01*
X209633582Y-89860173D01*
X209666338Y-89862997D01*
X209700075Y-89864698D01*
X209734800Y-89865267D01*
X209795393Y-89865267D01*
X209830096Y-89864698D01*
X209863826Y-89862997D01*
X209896599Y-89860173D01*
X209928433Y-89856234D01*
X209959345Y-89851190D01*
X209989353Y-89845050D01*
X210018475Y-89837822D01*
X210046729Y-89829515D01*
X210074131Y-89820139D01*
X210100700Y-89809702D01*
X210126453Y-89798213D01*
X210151407Y-89785681D01*
X210175582Y-89772115D01*
X210198993Y-89757524D01*
X210221659Y-89741917D01*
X210243597Y-89725302D01*
X210264444Y-89706500D01*
X210283884Y-89686557D01*
X210301924Y-89665472D01*
X210318573Y-89643247D01*
X210333840Y-89619881D01*
X210347734Y-89595374D01*
X210360263Y-89569726D01*
X210371437Y-89542937D01*
X210381263Y-89515007D01*
X210389750Y-89485936D01*
X210396908Y-89455723D01*
X210402745Y-89424370D01*
X210407269Y-89391876D01*
X210410490Y-89358241D01*
X210412417Y-89323464D01*
X210413057Y-89287547D01*
X210413057Y-87797812D01*
X210412417Y-87765175D01*
X210410490Y-87733394D01*
X210407269Y-87702468D01*
X210402745Y-87672398D01*
X210396908Y-87643182D01*
X210389750Y-87614821D01*
X210381263Y-87587315D01*
X210371437Y-87560663D01*
X210360263Y-87534865D01*
X210347734Y-87509921D01*
X210333840Y-87485831D01*
X210318573Y-87462595D01*
X210301924Y-87440212D01*
X210283884Y-87418682D01*
X210264444Y-87398006D01*
X210243597Y-87378182D01*
X210221593Y-87360451D01*
X210198755Y-87343734D01*
X210175099Y-87328047D01*
X210150645Y-87313411D01*
X210125409Y-87299841D01*
X210099409Y-87287357D01*
X210072664Y-87275977D01*
X210045191Y-87265718D01*
X210017008Y-87256598D01*
X209988132Y-87248636D01*
X209958583Y-87241849D01*
X209928376Y-87236256D01*
X209897532Y-87231875D01*
X209866066Y-87228723D01*
X209833997Y-87226818D01*
X209801343Y-87226180D01*
X209734800Y-87226180D01*
X209703286Y-87226762D01*
X209687742Y-87227504D01*
X209672341Y-87228557D01*
X209657081Y-87229931D01*
X209641963Y-87231636D01*
X209626987Y-87233679D01*
X209612151Y-87236069D01*
X209597457Y-87238816D01*
X209582903Y-87241929D01*
X209568490Y-87245416D01*
X209554218Y-87249286D01*
X209540086Y-87253549D01*
X209526094Y-87258212D01*
X209512242Y-87263286D01*
X209498529Y-87268778D01*
X209483979Y-87273552D01*
X209469837Y-87278733D01*
X209456084Y-87284303D01*
X209442703Y-87290247D01*
X209429676Y-87296545D01*
X209416987Y-87303181D01*
X209404616Y-87310137D01*
X209392546Y-87317395D01*
X209380760Y-87324939D01*
X209369241Y-87332751D01*
X209357969Y-87340813D01*
X209346928Y-87349108D01*
X209336101Y-87357618D01*
X209325468Y-87366327D01*
X209304719Y-87384268D01*
X209294575Y-87393539D01*
X209284590Y-87403095D01*
X209274784Y-87412936D01*
X209265172Y-87423061D01*
X209255774Y-87433471D01*
X209246607Y-87444165D01*
X209237688Y-87455143D01*
X209229034Y-87466405D01*
X209220665Y-87477951D01*
X209212597Y-87489781D01*
X209204848Y-87501893D01*
X209197435Y-87514289D01*
X209190376Y-87526968D01*
X209183690Y-87539929D01*
X209177393Y-87553173D01*
X209171503Y-87566699D01*
X209165967Y-87579391D01*
X209160725Y-87592365D01*
X209155786Y-87605623D01*
X209151158Y-87619164D01*
X209146850Y-87632989D01*
X209142871Y-87647098D01*
X209139230Y-87661491D01*
X209135935Y-87676170D01*
X209132995Y-87691133D01*
X209130418Y-87706383D01*
X209128214Y-87721918D01*
X209126392Y-87737740D01*
X209124959Y-87753848D01*
X209123924Y-87770244D01*
X209123297Y-87786927D01*
X209123086Y-87803898D01*
X208602188Y-87803898D01*
X208602472Y-87779346D01*
X208603537Y-87749012D01*
X208605312Y-87718998D01*
X208607798Y-87689323D01*
X208610993Y-87660004D01*
X208614898Y-87631057D01*
X208619514Y-87602502D01*
X208624839Y-87574356D01*
X208630875Y-87546636D01*
X208637621Y-87519360D01*
X208645076Y-87492545D01*
X208653242Y-87466210D01*
X208662118Y-87440371D01*
X208671704Y-87415047D01*
X208682000Y-87390255D01*
X208693006Y-87366013D01*
X208704580Y-87342291D01*
X208716588Y-87318996D01*
X208729039Y-87296128D01*
X208741941Y-87273688D01*
X208755304Y-87251675D01*
X208769135Y-87230089D01*
X208783446Y-87208929D01*
X208798243Y-87188196D01*
X208813537Y-87167890D01*
X208829335Y-87148009D01*
X208845648Y-87128555D01*
X208862483Y-87109526D01*
X208879850Y-87090923D01*
X208897758Y-87072745D01*
X208916216Y-87054992D01*
X208935232Y-87037665D01*
X208954697Y-87019786D01*
X208974459Y-87002599D01*
X208994538Y-86986087D01*
X209014949Y-86970233D01*
X209035713Y-86955019D01*
X209056847Y-86940429D01*
X209078370Y-86926443D01*
X209100298Y-86913046D01*
X209122652Y-86900219D01*
X209145449Y-86887945D01*
X209168706Y-86876207D01*
X209192444Y-86864987D01*
X209216679Y-86854268D01*
X209241429Y-86844032D01*
X209266714Y-86834262D01*
X209292551Y-86824940D01*
X209345086Y-86807825D01*
X209398263Y-86792991D01*
X209452154Y-86780440D01*
X209506829Y-86770171D01*
X209562360Y-86762184D01*
X209618818Y-86756479D01*
X209676274Y-86753056D01*
X209734800Y-86751915D01*
X209789304Y-86751915D01*
X209818682Y-86752269D01*
X209847787Y-86753318D01*
X209876627Y-86755043D01*
X209905211Y-86757428D01*
X209933547Y-86760454D01*
X209961645Y-86764103D01*
X209989513Y-86768357D01*
X210017160Y-86773197D01*
X210044595Y-86778607D01*
X210071826Y-86784568D01*
X210125712Y-86798070D01*
X210178888Y-86813560D01*
X210231424Y-86830893D01*
X210257263Y-86840305D01*
X210282552Y-86850278D01*
X210307309Y-86860804D01*
X210331551Y-86871872D01*
X210355296Y-86883475D01*
X210378563Y-86895603D01*
X210401367Y-86908246D01*
X210423727Y-86921397D01*
X210445662Y-86935045D01*
X210467187Y-86949181D01*
X210488321Y-86963797D01*
X210509082Y-86978883D01*
X210529487Y-86994431D01*
X210549553Y-87010430D01*
X210569300Y-87026873D01*
X210588743Y-87043749D01*
X210606711Y-87061077D01*
X210624251Y-87078830D01*
X210641363Y-87097008D01*
X210658049Y-87115611D01*
X210674307Y-87134639D01*
X210690139Y-87154094D01*
X210705543Y-87173974D01*
X210720521Y-87194281D01*
X210735073Y-87215014D01*
X210749199Y-87236173D01*
X210762899Y-87257760D01*
X210776173Y-87279773D01*
X210789022Y-87302213D01*
X210801446Y-87325081D01*
X210813444Y-87348376D01*
X210825017Y-87372099D01*
X210836023Y-87397320D01*
X210846318Y-87422830D01*
X210855904Y-87448626D01*
X210864779Y-87474710D01*
X210872945Y-87501081D01*
X210880400Y-87527739D01*
X210887145Y-87554682D01*
X210893181Y-87581912D01*
X210898506Y-87609426D01*
X210903122Y-87637226D01*
X210907027Y-87665309D01*
X210910222Y-87693678D01*
X210912707Y-87722329D01*
X210914482Y-87751264D01*
X210915548Y-87780482D01*
X210915756Y-87797812D01*
X210915903Y-87809983D01*
G37*
G36*
X217552175Y-86752201D02*
G01*
X217580332Y-86753056D01*
X217608330Y-86754483D01*
X217636162Y-86756479D01*
X217663818Y-86759046D01*
X217691289Y-86762184D01*
X217718566Y-86765892D01*
X217745640Y-86770171D01*
X217772501Y-86775020D01*
X217799141Y-86780440D01*
X217825550Y-86786430D01*
X217851719Y-86792991D01*
X217877640Y-86800123D01*
X217903302Y-86807825D01*
X217928698Y-86816097D01*
X217953817Y-86824940D01*
X217979656Y-86834329D01*
X218004945Y-86844281D01*
X218029702Y-86854789D01*
X218053944Y-86865842D01*
X218077690Y-86877432D01*
X218100956Y-86889549D01*
X218123760Y-86902184D01*
X218146121Y-86915327D01*
X218168055Y-86928970D01*
X218189581Y-86943102D01*
X218210715Y-86957716D01*
X218231476Y-86972800D01*
X218251882Y-86988346D01*
X218271949Y-87004346D01*
X218291696Y-87020788D01*
X218311140Y-87037665D01*
X218330178Y-87054992D01*
X218348656Y-87072745D01*
X218366581Y-87090923D01*
X218383963Y-87109526D01*
X218400811Y-87128555D01*
X218417134Y-87148009D01*
X218432942Y-87167890D01*
X218448242Y-87188196D01*
X218463045Y-87208929D01*
X218477360Y-87230089D01*
X218491195Y-87251675D01*
X218504560Y-87273688D01*
X218517463Y-87296128D01*
X218529915Y-87318996D01*
X218541924Y-87342291D01*
X218553499Y-87366013D01*
X218564503Y-87391258D01*
X218574798Y-87416794D01*
X218584383Y-87442630D01*
X218593258Y-87468776D01*
X218601423Y-87495240D01*
X218608878Y-87522033D01*
X218615624Y-87549162D01*
X218621659Y-87576637D01*
X218626984Y-87604467D01*
X218631599Y-87632661D01*
X218635504Y-87661229D01*
X218638700Y-87690178D01*
X218641185Y-87719520D01*
X218642960Y-87749261D01*
X218644025Y-87779413D01*
X218644380Y-87809983D01*
X218644380Y-89299719D01*
X218644093Y-89330356D01*
X218643228Y-89360690D01*
X218641774Y-89390703D01*
X218639725Y-89420377D01*
X218637071Y-89449695D01*
X218633804Y-89478638D01*
X218629915Y-89507190D01*
X218625396Y-89535331D01*
X218620238Y-89563044D01*
X218614433Y-89590312D01*
X218607972Y-89617116D01*
X218600846Y-89643439D01*
X218593048Y-89669262D01*
X218584568Y-89694569D01*
X218575398Y-89719340D01*
X218565530Y-89743559D01*
X218542260Y-89790881D01*
X218530149Y-89814066D01*
X218517698Y-89836909D01*
X218504890Y-89859393D01*
X218491707Y-89881501D01*
X218478132Y-89903214D01*
X218464148Y-89924516D01*
X218449738Y-89945389D01*
X218434884Y-89965814D01*
X218419569Y-89985775D01*
X218403776Y-90005253D01*
X218387488Y-90024231D01*
X218370686Y-90042692D01*
X218353355Y-90060617D01*
X218335477Y-90077990D01*
X218317015Y-90094820D01*
X218298003Y-90111086D01*
X218278459Y-90126797D01*
X218258401Y-90141962D01*
X218237847Y-90156590D01*
X218216814Y-90170692D01*
X218195322Y-90184275D01*
X218173387Y-90197351D01*
X218151027Y-90209926D01*
X218128260Y-90222013D01*
X218105104Y-90233618D01*
X218081577Y-90244752D01*
X218057696Y-90255424D01*
X218033480Y-90265644D01*
X218008947Y-90275420D01*
X217984113Y-90284762D01*
X217931297Y-90301877D01*
X217877281Y-90316711D01*
X217821989Y-90329263D01*
X217765351Y-90339532D01*
X217707293Y-90347520D01*
X217647742Y-90353226D01*
X217586625Y-90356649D01*
X217523870Y-90357790D01*
X217485394Y-90357294D01*
X217447221Y-90355817D01*
X217409369Y-90353378D01*
X217371854Y-90349993D01*
X217334696Y-90345682D01*
X217297912Y-90340461D01*
X217261518Y-90334349D01*
X217225533Y-90327363D01*
X217189975Y-90319521D01*
X217154861Y-90310841D01*
X217120208Y-90301341D01*
X217086035Y-90291039D01*
X217052359Y-90279952D01*
X217019197Y-90268099D01*
X216986568Y-90255496D01*
X216954488Y-90242163D01*
X216922764Y-90227000D01*
X216891209Y-90211139D01*
X216859849Y-90194598D01*
X216828712Y-90177395D01*
X216797824Y-90159549D01*
X216767212Y-90141078D01*
X216736901Y-90122000D01*
X216706919Y-90102333D01*
X216677292Y-90082095D01*
X216648047Y-90061305D01*
X216619209Y-90039982D01*
X216590806Y-90018142D01*
X216562865Y-89995805D01*
X216535411Y-89972988D01*
X216508471Y-89949710D01*
X216482072Y-89925990D01*
X216482072Y-88411911D01*
X217584325Y-88411911D01*
X217584325Y-88843710D01*
X216990865Y-88843710D01*
X216990865Y-89688921D01*
X217005624Y-89701167D01*
X217020384Y-89712863D01*
X217035143Y-89724026D01*
X217049902Y-89734676D01*
X217064661Y-89744828D01*
X217079420Y-89754501D01*
X217094178Y-89763713D01*
X217108937Y-89772480D01*
X217123696Y-89780821D01*
X217138455Y-89788754D01*
X217153213Y-89796295D01*
X217167972Y-89803463D01*
X217197489Y-89816749D01*
X217227006Y-89828753D01*
X217257404Y-89837311D01*
X217289652Y-89844727D01*
X217323891Y-89851003D01*
X217360260Y-89856138D01*
X217398898Y-89860132D01*
X217439945Y-89862985D01*
X217483541Y-89864697D01*
X217529825Y-89865267D01*
X217563481Y-89864698D01*
X217596294Y-89862997D01*
X217628272Y-89860173D01*
X217659424Y-89856234D01*
X217689759Y-89851190D01*
X217719286Y-89845050D01*
X217748014Y-89837822D01*
X217775952Y-89829515D01*
X217803108Y-89820139D01*
X217829492Y-89809702D01*
X217855113Y-89798213D01*
X217879979Y-89785681D01*
X217904099Y-89772115D01*
X217927482Y-89757524D01*
X217950138Y-89741917D01*
X217972074Y-89725302D01*
X217991943Y-89707570D01*
X218010659Y-89688554D01*
X218028204Y-89668255D01*
X218044562Y-89646671D01*
X218059713Y-89623804D01*
X218073640Y-89599654D01*
X218086325Y-89574220D01*
X218097751Y-89547502D01*
X218107899Y-89519500D01*
X218116752Y-89490215D01*
X218124292Y-89459646D01*
X218130501Y-89427793D01*
X218135362Y-89394657D01*
X218138855Y-89360237D01*
X218140965Y-89324534D01*
X218141672Y-89287547D01*
X218141672Y-87797812D01*
X218140965Y-87766247D01*
X218138855Y-87735403D01*
X218135362Y-87705290D01*
X218130501Y-87675916D01*
X218124292Y-87647291D01*
X218116752Y-87619422D01*
X218107899Y-87592318D01*
X218097751Y-87565988D01*
X218086325Y-87540442D01*
X218073640Y-87515687D01*
X218059713Y-87491732D01*
X218044562Y-87468586D01*
X218028204Y-87446258D01*
X218010659Y-87424757D01*
X217991943Y-87404091D01*
X217972074Y-87384268D01*
X217950138Y-87365466D01*
X217927482Y-87347811D01*
X217904099Y-87331312D01*
X217879979Y-87315978D01*
X217855113Y-87301819D01*
X217829492Y-87288843D01*
X217803108Y-87277060D01*
X217775952Y-87266479D01*
X217748014Y-87257108D01*
X217719286Y-87248957D01*
X217689759Y-87242035D01*
X217659424Y-87236351D01*
X217628272Y-87231915D01*
X217596294Y-87228735D01*
X217563481Y-87226820D01*
X217529825Y-87226180D01*
X217506059Y-87226607D01*
X217482441Y-87227891D01*
X217458981Y-87230030D01*
X217435688Y-87233024D01*
X217412571Y-87236873D01*
X217389639Y-87241576D01*
X217366902Y-87247135D01*
X217344367Y-87253547D01*
X217322045Y-87260814D01*
X217299944Y-87268935D01*
X217278074Y-87277910D01*
X217256444Y-87287739D01*
X217235062Y-87298421D01*
X217213939Y-87309956D01*
X217193082Y-87322344D01*
X217172502Y-87335585D01*
X217151134Y-87349423D01*
X217130186Y-87363564D01*
X217109647Y-87378025D01*
X217089508Y-87392825D01*
X217069761Y-87407980D01*
X217050396Y-87423509D01*
X217031405Y-87439428D01*
X217012777Y-87455757D01*
X216994505Y-87472511D01*
X216976578Y-87489710D01*
X216958989Y-87507370D01*
X216941726Y-87525509D01*
X216924783Y-87544145D01*
X216908149Y-87563296D01*
X216891815Y-87582979D01*
X216875772Y-87603211D01*
X216554700Y-87244435D01*
X216575425Y-87216292D01*
X216596719Y-87188872D01*
X216618583Y-87162182D01*
X216641017Y-87136231D01*
X216664019Y-87111029D01*
X216687590Y-87086583D01*
X216711730Y-87062902D01*
X216736437Y-87039996D01*
X216761711Y-87017873D01*
X216787553Y-86996541D01*
X216813961Y-86976010D01*
X216840936Y-86956287D01*
X216868476Y-86937383D01*
X216896582Y-86919305D01*
X216925253Y-86902062D01*
X216954488Y-86885663D01*
X216983382Y-86869139D01*
X217013251Y-86853746D01*
X217044076Y-86839472D01*
X217075841Y-86826311D01*
X217108528Y-86814252D01*
X217142119Y-86803288D01*
X217176596Y-86793409D01*
X217211942Y-86784608D01*
X217248139Y-86776874D01*
X217285170Y-86770200D01*
X217323017Y-86764577D01*
X217361662Y-86759995D01*
X217401087Y-86756447D01*
X217441275Y-86753924D01*
X217482209Y-86752416D01*
X217523870Y-86751915D01*
X217552175Y-86752201D01*
G37*
G36*
X205985658Y-93081934D02*
G01*
X205640375Y-93081934D01*
X205640375Y-90740771D01*
X205985658Y-90740771D01*
X205985658Y-93081934D01*
G37*
G36*
X206869894Y-92698821D02*
G01*
X207620912Y-90740771D01*
X208111585Y-90740771D01*
X208111585Y-93081934D01*
X207802679Y-93081934D01*
X207802679Y-91160399D01*
X207093996Y-93081934D01*
X206560991Y-93081934D01*
X206560991Y-90740771D01*
X206869894Y-90740771D01*
X206869894Y-92698821D01*
G37*
G36*
X208923192Y-91786669D02*
G01*
X209722631Y-91786669D01*
X209722631Y-90740771D01*
X210055742Y-90740771D01*
X210055742Y-93081934D01*
X209722631Y-93081934D01*
X209722631Y-92108935D01*
X208923192Y-92108935D01*
X208923192Y-93081934D01*
X208583997Y-93081934D01*
X208583997Y-90740771D01*
X208923192Y-90740771D01*
X208923192Y-91786669D01*
G37*
G36*
X213253759Y-93081934D02*
G01*
X212133249Y-93081934D01*
X212133249Y-92759543D01*
X212920648Y-92759543D01*
X212920648Y-92048209D01*
X212308935Y-92048209D01*
X212308935Y-91744074D01*
X212920648Y-91744074D01*
X212920648Y-91063170D01*
X212193841Y-91063170D01*
X212193841Y-90740771D01*
X213253759Y-90740771D01*
X213253759Y-93081934D01*
G37*
G36*
X214998159Y-91063170D02*
G01*
X214434858Y-91063170D01*
X214434858Y-93081934D01*
X214089578Y-93081934D01*
X214089578Y-91063170D01*
X213526281Y-91063170D01*
X213526281Y-90740771D01*
X214998159Y-90740771D01*
X214998159Y-91063170D01*
G37*
G36*
X215949071Y-91768416D02*
G01*
X216403360Y-90734686D01*
X216778802Y-90734686D01*
X216124753Y-92145445D01*
X216130704Y-92145445D01*
X216130704Y-93081934D01*
X215785558Y-93081934D01*
X215785558Y-92151530D01*
X215113252Y-90734686D01*
X215488695Y-90734686D01*
X215949071Y-91768416D01*
G37*
G36*
X218056875Y-93081934D02*
G01*
X216869684Y-93081934D01*
X216869684Y-92759543D01*
X217723630Y-92759543D01*
X217723630Y-90740771D01*
X218056875Y-90740771D01*
X218056875Y-93081934D01*
G37*
G36*
X221533365Y-93081934D02*
G01*
X221188215Y-93081934D01*
X221188215Y-92188044D01*
X220885400Y-92188044D01*
X220855863Y-92187485D01*
X220826478Y-92185857D01*
X220797389Y-92183230D01*
X220768734Y-92179676D01*
X220740657Y-92175266D01*
X220713298Y-92170071D01*
X220686798Y-92164164D01*
X220661298Y-92157614D01*
X220647799Y-92153980D01*
X220634584Y-92149936D01*
X220621655Y-92145501D01*
X220609011Y-92140691D01*
X220596652Y-92135526D01*
X220584579Y-92130023D01*
X220572790Y-92124200D01*
X220561287Y-92118076D01*
X220550069Y-92111668D01*
X220539136Y-92104994D01*
X220528489Y-92098073D01*
X220518127Y-92090922D01*
X220508050Y-92083559D01*
X220498259Y-92076003D01*
X220488752Y-92068271D01*
X220479532Y-92060381D01*
X220469521Y-92052252D01*
X220459917Y-92043838D01*
X220450703Y-92035138D01*
X220441861Y-92026154D01*
X220433374Y-92016886D01*
X220425223Y-92007333D01*
X220417391Y-91997495D01*
X220409860Y-91987374D01*
X220402613Y-91976969D01*
X220395633Y-91966281D01*
X220388901Y-91955309D01*
X220382399Y-91944055D01*
X220376111Y-91932517D01*
X220370019Y-91920696D01*
X220364104Y-91908594D01*
X220358350Y-91896208D01*
X220352814Y-91883516D01*
X220347572Y-91870547D01*
X220342633Y-91857312D01*
X220338005Y-91843818D01*
X220333697Y-91830076D01*
X220329718Y-91816094D01*
X220326076Y-91801882D01*
X220322781Y-91787448D01*
X220319840Y-91772802D01*
X220317263Y-91757952D01*
X220315059Y-91742908D01*
X220313236Y-91727679D01*
X220311803Y-91712274D01*
X220310768Y-91696703D01*
X220310141Y-91680973D01*
X220309930Y-91665095D01*
X220309930Y-91312407D01*
X220655214Y-91312407D01*
X220655214Y-91659010D01*
X220655496Y-91673557D01*
X220656337Y-91687530D01*
X220657727Y-91700930D01*
X220659658Y-91713757D01*
X220662120Y-91726013D01*
X220665106Y-91737697D01*
X220668605Y-91748810D01*
X220672609Y-91759352D01*
X220674798Y-91764409D01*
X220677110Y-91769323D01*
X220679543Y-91774095D01*
X220682097Y-91778725D01*
X220684771Y-91783212D01*
X220687563Y-91787556D01*
X220690472Y-91791759D01*
X220693498Y-91795819D01*
X220696639Y-91799736D01*
X220699894Y-91803512D01*
X220703261Y-91807146D01*
X220706741Y-91810637D01*
X220710331Y-91813987D01*
X220714030Y-91817194D01*
X220717838Y-91820260D01*
X220721754Y-91823184D01*
X220729859Y-91829747D01*
X220738256Y-91835758D01*
X220746952Y-91841234D01*
X220755957Y-91846193D01*
X220765280Y-91850653D01*
X220774930Y-91854632D01*
X220784915Y-91858147D01*
X220795245Y-91861217D01*
X220805928Y-91863858D01*
X220816973Y-91866090D01*
X220828390Y-91867929D01*
X220840187Y-91869394D01*
X220852373Y-91870503D01*
X220864957Y-91871272D01*
X220877948Y-91871721D01*
X220891355Y-91871867D01*
X221188215Y-91871867D01*
X221188215Y-91063170D01*
X220891355Y-91063170D01*
X220876827Y-91063419D01*
X220862760Y-91064165D01*
X220849154Y-91065408D01*
X220836009Y-91067146D01*
X220823326Y-91069378D01*
X220811103Y-91072102D01*
X220799342Y-91075319D01*
X220788043Y-91079026D01*
X220777204Y-91083224D01*
X220766827Y-91087909D01*
X220756911Y-91093083D01*
X220747456Y-91098742D01*
X220738462Y-91104887D01*
X220729930Y-91111517D01*
X220721859Y-91118629D01*
X220714249Y-91126224D01*
X220707100Y-91134299D01*
X220700412Y-91142854D01*
X220694186Y-91151889D01*
X220688421Y-91161400D01*
X220683117Y-91171389D01*
X220678274Y-91181853D01*
X220673893Y-91192791D01*
X220669972Y-91204203D01*
X220666513Y-91216087D01*
X220663516Y-91228442D01*
X220660979Y-91241268D01*
X220658903Y-91254562D01*
X220657289Y-91268324D01*
X220656136Y-91282553D01*
X220655214Y-91312407D01*
X220309930Y-91312407D01*
X220310568Y-91277629D01*
X220312473Y-91243983D01*
X220315639Y-91211460D01*
X220320055Y-91180051D01*
X220325713Y-91149748D01*
X220332604Y-91120541D01*
X220340719Y-91092422D01*
X220350049Y-91065382D01*
X220360586Y-91039411D01*
X220372319Y-91014502D01*
X220385240Y-90990644D01*
X220399341Y-90967830D01*
X220414612Y-90946049D01*
X220431045Y-90925294D01*
X220448630Y-90905555D01*
X220467359Y-90886824D01*
X220487109Y-90869138D01*
X220507717Y-90852594D01*
X220529192Y-90837190D01*
X220551543Y-90822927D01*
X220574780Y-90809805D01*
X220598911Y-90797824D01*
X220623944Y-90786984D01*
X220649890Y-90777285D01*
X220676756Y-90768727D01*
X220704553Y-90761310D01*
X220733288Y-90755034D01*
X220762970Y-90749900D01*
X220793609Y-90745906D01*
X220825214Y-90743053D01*
X220857793Y-90741341D01*
X220891355Y-90740771D01*
X221533365Y-90740771D01*
X221533365Y-91871867D01*
X221533365Y-93081934D01*
G37*
G36*
X220007116Y-92406985D02*
G01*
X220006903Y-92428429D01*
X220006266Y-92449463D01*
X220005203Y-92470105D01*
X220003716Y-92490374D01*
X220001802Y-92510286D01*
X219999463Y-92529861D01*
X219996698Y-92549115D01*
X219993506Y-92568069D01*
X219989889Y-92586738D01*
X219985845Y-92605141D01*
X219981374Y-92623297D01*
X219976476Y-92641224D01*
X219971151Y-92658938D01*
X219965399Y-92676460D01*
X219959219Y-92693805D01*
X219952611Y-92710993D01*
X219944576Y-92726802D01*
X219936384Y-92742327D01*
X219928016Y-92757570D01*
X219919454Y-92772530D01*
X219910680Y-92787205D01*
X219901677Y-92801597D01*
X219892427Y-92815704D01*
X219882910Y-92829526D01*
X219873110Y-92843063D01*
X219863008Y-92856315D01*
X219852587Y-92869280D01*
X219841828Y-92881958D01*
X219830713Y-92894350D01*
X219819224Y-92906455D01*
X219807343Y-92918272D01*
X219795053Y-92929801D01*
X219767520Y-92952040D01*
X219753518Y-92962709D01*
X219739346Y-92973067D01*
X219724996Y-92983103D01*
X219710459Y-92992809D01*
X219695725Y-93002176D01*
X219680787Y-93011196D01*
X219665634Y-93019859D01*
X219650259Y-93028157D01*
X219634652Y-93036080D01*
X219618804Y-93043620D01*
X219602707Y-93050768D01*
X219586351Y-93057515D01*
X219569727Y-93063851D01*
X219552827Y-93069769D01*
X219535647Y-93075238D01*
X219518193Y-93080291D01*
X219500474Y-93084937D01*
X219482499Y-93089184D01*
X219445817Y-93096517D01*
X219408215Y-93102360D01*
X219369763Y-93106783D01*
X219330532Y-93109856D01*
X219290591Y-93111649D01*
X219250009Y-93112231D01*
X219207548Y-93112231D01*
X219167228Y-93111649D01*
X219127976Y-93109856D01*
X219089720Y-93106783D01*
X219052386Y-93102360D01*
X219034042Y-93099620D01*
X219015901Y-93096517D01*
X218997955Y-93093041D01*
X218980193Y-93089184D01*
X218962607Y-93084937D01*
X218945188Y-93080291D01*
X218927927Y-93075238D01*
X218910814Y-93069769D01*
X218877302Y-93055768D01*
X218860974Y-93048508D01*
X218844930Y-93041053D01*
X218829171Y-93033384D01*
X218813696Y-93025483D01*
X218798506Y-93017332D01*
X218783599Y-93008914D01*
X218768976Y-93000211D01*
X218754636Y-92991205D01*
X218740580Y-92981877D01*
X218726807Y-92972211D01*
X218713317Y-92962188D01*
X218700110Y-92951791D01*
X218687185Y-92941001D01*
X218674543Y-92929801D01*
X218662209Y-92918203D01*
X218650165Y-92906193D01*
X218638422Y-92893788D01*
X218626988Y-92881007D01*
X218615872Y-92867868D01*
X218605082Y-92854388D01*
X218594628Y-92840587D01*
X218584519Y-92826483D01*
X218574763Y-92812093D01*
X218565369Y-92797436D01*
X218556347Y-92782531D01*
X218547704Y-92767394D01*
X218539451Y-92752046D01*
X218531596Y-92736503D01*
X218524147Y-92720785D01*
X218517114Y-92704909D01*
X218509458Y-92688792D01*
X218502357Y-92672384D01*
X218495803Y-92655675D01*
X218489788Y-92638657D01*
X218484304Y-92621320D01*
X218479341Y-92603656D01*
X218474891Y-92585655D01*
X218470945Y-92567308D01*
X218467496Y-92548606D01*
X218464534Y-92529540D01*
X218462052Y-92510100D01*
X218460039Y-92490279D01*
X218458489Y-92470065D01*
X218457392Y-92449451D01*
X218456741Y-92428427D01*
X218456525Y-92406985D01*
X218456525Y-91409640D01*
X218795721Y-91409640D01*
X218795721Y-92406985D01*
X218796215Y-92430565D01*
X218797687Y-92453432D01*
X218800118Y-92475587D01*
X218803491Y-92497029D01*
X218807786Y-92517759D01*
X218812987Y-92537776D01*
X218819075Y-92557081D01*
X218826032Y-92575675D01*
X218833840Y-92593557D01*
X218842481Y-92610728D01*
X218851937Y-92627187D01*
X218862191Y-92642935D01*
X218873223Y-92657972D01*
X218885016Y-92672299D01*
X218897553Y-92685915D01*
X218910814Y-92698821D01*
X218924719Y-92709851D01*
X218939203Y-92720171D01*
X218954274Y-92729781D01*
X218969942Y-92738680D01*
X218986214Y-92746868D01*
X219003099Y-92754345D01*
X219020606Y-92761111D01*
X219038743Y-92767166D01*
X219057519Y-92772509D01*
X219076941Y-92777140D01*
X219097020Y-92781059D01*
X219117763Y-92784266D01*
X219139179Y-92786761D01*
X219161276Y-92788543D01*
X219184062Y-92789612D01*
X219207548Y-92789969D01*
X219250009Y-92789969D01*
X219273563Y-92789612D01*
X219296543Y-92788543D01*
X219318940Y-92786761D01*
X219340745Y-92784266D01*
X219361948Y-92781059D01*
X219382540Y-92777140D01*
X219402513Y-92772509D01*
X219421856Y-92767166D01*
X219440560Y-92761111D01*
X219458617Y-92754345D01*
X219476016Y-92746868D01*
X219492748Y-92738680D01*
X219508805Y-92729781D01*
X219524177Y-92720171D01*
X219538854Y-92709851D01*
X219552827Y-92698821D01*
X219566042Y-92686918D01*
X219578401Y-92674046D01*
X219589905Y-92660232D01*
X219600555Y-92645502D01*
X219610350Y-92629883D01*
X219619292Y-92613401D01*
X219627380Y-92596084D01*
X219634616Y-92577957D01*
X219640999Y-92559047D01*
X219646529Y-92539380D01*
X219651208Y-92518984D01*
X219655035Y-92497885D01*
X219658011Y-92476108D01*
X219660136Y-92453682D01*
X219661411Y-92430632D01*
X219661836Y-92406985D01*
X219661836Y-91409640D01*
X219661410Y-91387131D01*
X219660124Y-91365201D01*
X219657971Y-91343859D01*
X219654940Y-91323114D01*
X219651022Y-91302974D01*
X219646208Y-91283449D01*
X219640489Y-91264546D01*
X219633855Y-91246275D01*
X219626298Y-91228644D01*
X219617807Y-91211662D01*
X219608373Y-91195338D01*
X219597988Y-91179681D01*
X219586641Y-91164698D01*
X219574325Y-91150399D01*
X219561028Y-91136793D01*
X219546743Y-91123889D01*
X219532839Y-91111719D01*
X219518366Y-91100268D01*
X219503322Y-91089546D01*
X219487710Y-91079560D01*
X219471528Y-91070322D01*
X219454778Y-91061839D01*
X219437460Y-91054120D01*
X219419574Y-91047175D01*
X219401121Y-91041014D01*
X219382101Y-91035644D01*
X219362514Y-91031075D01*
X219342361Y-91027317D01*
X219321642Y-91024378D01*
X219300357Y-91022267D01*
X219278508Y-91020994D01*
X219256093Y-91020567D01*
X219207548Y-91020567D01*
X219197329Y-91020709D01*
X219187119Y-91021126D01*
X219176928Y-91021811D01*
X219166763Y-91022755D01*
X219156634Y-91023948D01*
X219146549Y-91025382D01*
X219136519Y-91027047D01*
X219126550Y-91028936D01*
X219116653Y-91031038D01*
X219106836Y-91033346D01*
X219097109Y-91035850D01*
X219087479Y-91038540D01*
X219068550Y-91044448D01*
X219050119Y-91050997D01*
X219041111Y-91054470D01*
X219032242Y-91058097D01*
X219023514Y-91061887D01*
X219014926Y-91065849D01*
X219006479Y-91069992D01*
X218998174Y-91074324D01*
X218990011Y-91078854D01*
X218981989Y-91083591D01*
X218974111Y-91088543D01*
X218966375Y-91093720D01*
X218958783Y-91099129D01*
X218951334Y-91104780D01*
X218944030Y-91110682D01*
X218936870Y-91116843D01*
X218929856Y-91123272D01*
X218922986Y-91129977D01*
X218916236Y-91135822D01*
X218909629Y-91141944D01*
X218903164Y-91148333D01*
X218896842Y-91154980D01*
X218890663Y-91161876D01*
X218884626Y-91169011D01*
X218878732Y-91176378D01*
X218872981Y-91183966D01*
X218867372Y-91191766D01*
X218861905Y-91199770D01*
X218856582Y-91207967D01*
X218851400Y-91216350D01*
X218846362Y-91224908D01*
X218841466Y-91233633D01*
X218836712Y-91242516D01*
X218832101Y-91251547D01*
X218825596Y-91269828D01*
X218819722Y-91288250D01*
X218814551Y-91306954D01*
X218812252Y-91316455D01*
X218810157Y-91326080D01*
X218808274Y-91335846D01*
X218806612Y-91345771D01*
X218805181Y-91355872D01*
X218803990Y-91366167D01*
X218803048Y-91376674D01*
X218802363Y-91387410D01*
X218801946Y-91398393D01*
X218801805Y-91409640D01*
X218795721Y-91409640D01*
X218456525Y-91409640D01*
X218456741Y-91389267D01*
X218457392Y-91369171D01*
X218458489Y-91349342D01*
X218460039Y-91329771D01*
X218462052Y-91310449D01*
X218464534Y-91291366D01*
X218467496Y-91272514D01*
X218470945Y-91253883D01*
X218474891Y-91235465D01*
X218479341Y-91217250D01*
X218484304Y-91199230D01*
X218489788Y-91181394D01*
X218495803Y-91163734D01*
X218502357Y-91146241D01*
X218509458Y-91128906D01*
X218517114Y-91111720D01*
X218525218Y-91095911D01*
X218533604Y-91080385D01*
X218542272Y-91065143D01*
X218551222Y-91050183D01*
X218560454Y-91035507D01*
X218569968Y-91021115D01*
X218579765Y-91007008D01*
X218589843Y-90993186D01*
X218600204Y-90979648D01*
X218610847Y-90966396D01*
X218621772Y-90953431D01*
X218632979Y-90940751D01*
X218644469Y-90928359D01*
X218656241Y-90916253D01*
X218668295Y-90904435D01*
X218680631Y-90892905D01*
X218693273Y-90881639D01*
X218706198Y-90870668D01*
X218719405Y-90859999D01*
X218732895Y-90849643D01*
X218746668Y-90839607D01*
X218760724Y-90829901D01*
X218775064Y-90820534D01*
X218789687Y-90811514D01*
X218804593Y-90802851D01*
X218819784Y-90794554D01*
X218835258Y-90786631D01*
X218851017Y-90779091D01*
X218867060Y-90771944D01*
X218883388Y-90765197D01*
X218900001Y-90758861D01*
X218916898Y-90752944D01*
X218951522Y-90742159D01*
X218987133Y-90732576D01*
X219023590Y-90724268D01*
X219060752Y-90717308D01*
X219098478Y-90711767D01*
X219136627Y-90707719D01*
X219175059Y-90705237D01*
X219194337Y-90704606D01*
X219213632Y-90704394D01*
X219213632Y-90710478D01*
X219256093Y-90710478D01*
X219294667Y-90711072D01*
X219333099Y-90712948D01*
X219371248Y-90716247D01*
X219390174Y-90718474D01*
X219408975Y-90721110D01*
X219427636Y-90724173D01*
X219446137Y-90727679D01*
X219464463Y-90731647D01*
X219482594Y-90736094D01*
X219500514Y-90741038D01*
X219518205Y-90746497D01*
X219535648Y-90752487D01*
X219552827Y-90759028D01*
X219569726Y-90764946D01*
X219586339Y-90771282D01*
X219602667Y-90778029D01*
X219618711Y-90785175D01*
X219634470Y-90792713D01*
X219649945Y-90800633D01*
X219665136Y-90808927D01*
X219680043Y-90817584D01*
X219694666Y-90826596D01*
X219709006Y-90835955D01*
X219723062Y-90845650D01*
X219736835Y-90855673D01*
X219750326Y-90866014D01*
X219763534Y-90876665D01*
X219776459Y-90887617D01*
X219789102Y-90898860D01*
X219801370Y-90910413D01*
X219813234Y-90922251D01*
X219824711Y-90934374D01*
X219835818Y-90946781D01*
X219846573Y-90959473D01*
X219856992Y-90972449D01*
X219867093Y-90985710D01*
X219876893Y-90999254D01*
X219886409Y-91013082D01*
X219895659Y-91027193D01*
X219904659Y-91041588D01*
X219913428Y-91056266D01*
X219930338Y-91086470D01*
X219946527Y-91117804D01*
X219954205Y-91133920D01*
X219961323Y-91150318D01*
X219967887Y-91166998D01*
X219973909Y-91183961D01*
X219979397Y-91201207D01*
X219984359Y-91218736D01*
X219988806Y-91236548D01*
X219992746Y-91254644D01*
X219996188Y-91273023D01*
X219999142Y-91291687D01*
X220001616Y-91310634D01*
X220003620Y-91329866D01*
X220005163Y-91349382D01*
X220006254Y-91369183D01*
X220006902Y-91389269D01*
X220007116Y-91409640D01*
X220007116Y-92406985D01*
G37*
G36*
X204423928Y-90710689D02*
G01*
X204442824Y-90711316D01*
X204461473Y-90712351D01*
X204479893Y-90713785D01*
X204498101Y-90715610D01*
X204516115Y-90717816D01*
X204533952Y-90720397D01*
X204551631Y-90723342D01*
X204569168Y-90726644D01*
X204586582Y-90730294D01*
X204621111Y-90738605D01*
X204655357Y-90748205D01*
X204689462Y-90759028D01*
X204706359Y-90764946D01*
X204722962Y-90771282D01*
X204739262Y-90778029D01*
X204755251Y-90785175D01*
X204770920Y-90792713D01*
X204786260Y-90800633D01*
X204801262Y-90808927D01*
X204815918Y-90817584D01*
X204830219Y-90826596D01*
X204844156Y-90835955D01*
X204857720Y-90845650D01*
X204870903Y-90855673D01*
X204883697Y-90866014D01*
X204896091Y-90876665D01*
X204908078Y-90887617D01*
X204919649Y-90898860D01*
X204931915Y-90910413D01*
X204943765Y-90922251D01*
X204955208Y-90934374D01*
X204966253Y-90946781D01*
X204976909Y-90959473D01*
X204987185Y-90972449D01*
X204997090Y-90985710D01*
X205006632Y-90999254D01*
X205015821Y-91013082D01*
X205024665Y-91027193D01*
X205033173Y-91041588D01*
X205041355Y-91056266D01*
X205049219Y-91071226D01*
X205056774Y-91086470D01*
X205064029Y-91101996D01*
X205070993Y-91117804D01*
X205077600Y-91133920D01*
X205083779Y-91150318D01*
X205089531Y-91166998D01*
X205094855Y-91183961D01*
X205099753Y-91201207D01*
X205104223Y-91218736D01*
X205108267Y-91236548D01*
X205111885Y-91254644D01*
X205115076Y-91273023D01*
X205117841Y-91291687D01*
X205120180Y-91310634D01*
X205122093Y-91329866D01*
X205123581Y-91349382D01*
X205124644Y-91369183D01*
X205125281Y-91389269D01*
X205125493Y-91409640D01*
X205125493Y-92425108D01*
X205124782Y-92466661D01*
X205122642Y-92506939D01*
X205119064Y-92545951D01*
X205114041Y-92583706D01*
X205107562Y-92620213D01*
X205099620Y-92655482D01*
X205090205Y-92689520D01*
X205079309Y-92722336D01*
X205066923Y-92753941D01*
X205053039Y-92784342D01*
X205037647Y-92813548D01*
X205020739Y-92841569D01*
X205002307Y-92868413D01*
X204982340Y-92894089D01*
X204960832Y-92918606D01*
X204937772Y-92941973D01*
X204913345Y-92963008D01*
X204887785Y-92982747D01*
X204861092Y-93001183D01*
X204833267Y-93018306D01*
X204804309Y-93034108D01*
X204774216Y-93048581D01*
X204742990Y-93061716D01*
X204710629Y-93073505D01*
X204677133Y-93083939D01*
X204642502Y-93093009D01*
X204606736Y-93100707D01*
X204569833Y-93107025D01*
X204531794Y-93111953D01*
X204492619Y-93115484D01*
X204452306Y-93117609D01*
X204410856Y-93118319D01*
X204387138Y-93118037D01*
X204363715Y-93117195D01*
X204340594Y-93115804D01*
X204317786Y-93113870D01*
X204295298Y-93111404D01*
X204273140Y-93108412D01*
X204251321Y-93104904D01*
X204229849Y-93100889D01*
X204208734Y-93096374D01*
X204187984Y-93091369D01*
X204167609Y-93085881D01*
X204147616Y-93079921D01*
X204128016Y-93073495D01*
X204108817Y-93066612D01*
X204090027Y-93059282D01*
X204071657Y-93051512D01*
X204052429Y-93043170D01*
X204033341Y-93034124D01*
X204014392Y-93024382D01*
X203995584Y-93013955D01*
X203976916Y-93002852D01*
X203958389Y-92991080D01*
X203940002Y-92978651D01*
X203921756Y-92965571D01*
X203903651Y-92951852D01*
X203885687Y-92937501D01*
X203867865Y-92922529D01*
X203850184Y-92906943D01*
X203832645Y-92890753D01*
X203815248Y-92873969D01*
X203797994Y-92856599D01*
X203780881Y-92838652D01*
X203980775Y-92583331D01*
X203992136Y-92596694D01*
X204003497Y-92609498D01*
X204014858Y-92621740D01*
X204026219Y-92633420D01*
X204037579Y-92644535D01*
X204048939Y-92655084D01*
X204060298Y-92665066D01*
X204071657Y-92674479D01*
X204094379Y-92692641D01*
X204105740Y-92701543D01*
X204117101Y-92710232D01*
X204128462Y-92718636D01*
X204139823Y-92726682D01*
X204151185Y-92734301D01*
X204162546Y-92741419D01*
X204168295Y-92744749D01*
X204174185Y-92747948D01*
X204180215Y-92751025D01*
X204186386Y-92753989D01*
X204199151Y-92759610D01*
X204212484Y-92764884D01*
X204226388Y-92769878D01*
X204240865Y-92774663D01*
X204255920Y-92779308D01*
X204271554Y-92783885D01*
X204303514Y-92788353D01*
X204319862Y-92790410D01*
X204336640Y-92792253D01*
X204353990Y-92793810D01*
X204372049Y-92795011D01*
X204390958Y-92795784D01*
X204410856Y-92796057D01*
X204433200Y-92795701D01*
X204454845Y-92794631D01*
X204475802Y-92792849D01*
X204496078Y-92790354D01*
X204515681Y-92787147D01*
X204534622Y-92783227D01*
X204552908Y-92778596D01*
X204570548Y-92773252D01*
X204587551Y-92767198D01*
X204603926Y-92760432D01*
X204619680Y-92752955D01*
X204634824Y-92744766D01*
X204649365Y-92735868D01*
X204663313Y-92726258D01*
X204676676Y-92715939D01*
X204689462Y-92704909D01*
X204701515Y-92693140D01*
X204712727Y-92680644D01*
X204723107Y-92667401D01*
X204732664Y-92653393D01*
X204741406Y-92638602D01*
X204749343Y-92623010D01*
X204756482Y-92606599D01*
X204762833Y-92589351D01*
X204768404Y-92571246D01*
X204773203Y-92552268D01*
X204777241Y-92532398D01*
X204780525Y-92511617D01*
X204783064Y-92489907D01*
X204784867Y-92467250D01*
X204785942Y-92443629D01*
X204786298Y-92419024D01*
X204786298Y-91403555D01*
X204785943Y-91382186D01*
X204784878Y-91361386D01*
X204783104Y-91341157D01*
X204780620Y-91321498D01*
X204777427Y-91302408D01*
X204773524Y-91283889D01*
X204768913Y-91265938D01*
X204763593Y-91248557D01*
X204757565Y-91231745D01*
X204750828Y-91215502D01*
X204743384Y-91199827D01*
X204735231Y-91184721D01*
X204726371Y-91170183D01*
X204716803Y-91156213D01*
X204706529Y-91142811D01*
X204695547Y-91129977D01*
X204683830Y-91117807D01*
X204671394Y-91106356D01*
X204658231Y-91095634D01*
X204644331Y-91085649D01*
X204629687Y-91076410D01*
X204614289Y-91067927D01*
X204598129Y-91060208D01*
X204581197Y-91053264D01*
X204563486Y-91047102D01*
X204544986Y-91041732D01*
X204525689Y-91037163D01*
X204505586Y-91033405D01*
X204484668Y-91030466D01*
X204462927Y-91028355D01*
X204440354Y-91027082D01*
X204416940Y-91026656D01*
X204397828Y-91026942D01*
X204379127Y-91027808D01*
X204360817Y-91029262D01*
X204342882Y-91031313D01*
X204325303Y-91033969D01*
X204308064Y-91037239D01*
X204291144Y-91041131D01*
X204274528Y-91045656D01*
X204258198Y-91050820D01*
X204242134Y-91056634D01*
X204226321Y-91063105D01*
X204210739Y-91070243D01*
X204195371Y-91078055D01*
X204180199Y-91086552D01*
X204165206Y-91095741D01*
X204150373Y-91105631D01*
X204136968Y-91114833D01*
X204123987Y-91124186D01*
X204111431Y-91133698D01*
X204099300Y-91143380D01*
X204087594Y-91153239D01*
X204076312Y-91163284D01*
X204065456Y-91173524D01*
X204055024Y-91183967D01*
X204045016Y-91194623D01*
X204035434Y-91205500D01*
X204026276Y-91216607D01*
X204017544Y-91227952D01*
X204009235Y-91239544D01*
X204001352Y-91251393D01*
X203993894Y-91263506D01*
X203986860Y-91275893D01*
X203762758Y-91044913D01*
X203777591Y-91023591D01*
X203792584Y-91002986D01*
X203807755Y-90983096D01*
X203823122Y-90963921D01*
X203838702Y-90945461D01*
X203854512Y-90927715D01*
X203870572Y-90910683D01*
X203886897Y-90894364D01*
X203903506Y-90878759D01*
X203920417Y-90863867D01*
X203937646Y-90849686D01*
X203955212Y-90836218D01*
X203973132Y-90823462D01*
X203991425Y-90811416D01*
X204010106Y-90800082D01*
X204029195Y-90789458D01*
X204047729Y-90779545D01*
X204066961Y-90770339D01*
X204086884Y-90761830D01*
X204107487Y-90754011D01*
X204128763Y-90746870D01*
X204150704Y-90740399D01*
X204173300Y-90734588D01*
X204196544Y-90729429D01*
X204220426Y-90724911D01*
X204244938Y-90721026D01*
X204270072Y-90717764D01*
X204295819Y-90715117D01*
X204322171Y-90713073D01*
X204349118Y-90711625D01*
X204376653Y-90710764D01*
X204404768Y-90710478D01*
X204423928Y-90710689D01*
G37*
G36*
X211129938Y-90710689D02*
G01*
X211149767Y-90711316D01*
X211169221Y-90712351D01*
X211188329Y-90713785D01*
X211207117Y-90715610D01*
X211225611Y-90717816D01*
X211243839Y-90720397D01*
X211261827Y-90723342D01*
X211279604Y-90726644D01*
X211297195Y-90730294D01*
X211331928Y-90738605D01*
X211366242Y-90748205D01*
X211400354Y-90759028D01*
X211416179Y-90764946D01*
X211431844Y-90771282D01*
X211447331Y-90778029D01*
X211462623Y-90785175D01*
X211477701Y-90792713D01*
X211492549Y-90800633D01*
X211507148Y-90808927D01*
X211521482Y-90817584D01*
X211535531Y-90826596D01*
X211549280Y-90835955D01*
X211562709Y-90845650D01*
X211575802Y-90855673D01*
X211588541Y-90866014D01*
X211600908Y-90876665D01*
X211612885Y-90887617D01*
X211624456Y-90898860D01*
X211636745Y-90910413D01*
X211648615Y-90922251D01*
X211660075Y-90934374D01*
X211671135Y-90946781D01*
X211681804Y-90959473D01*
X211692090Y-90972449D01*
X211702003Y-90985710D01*
X211711552Y-90999254D01*
X211720746Y-91013082D01*
X211729594Y-91027193D01*
X211738105Y-91041588D01*
X211746288Y-91056266D01*
X211754153Y-91071226D01*
X211761708Y-91086470D01*
X211768963Y-91101996D01*
X211775926Y-91117804D01*
X211782512Y-91133920D01*
X211788676Y-91150318D01*
X211794418Y-91166998D01*
X211799736Y-91183961D01*
X211804632Y-91201207D01*
X211809103Y-91218736D01*
X211813151Y-91236548D01*
X211816774Y-91254644D01*
X211819973Y-91273023D01*
X211822746Y-91291687D01*
X211825094Y-91310634D01*
X211827015Y-91329866D01*
X211828510Y-91349382D01*
X211829579Y-91369183D01*
X211830220Y-91389269D01*
X211830434Y-91409640D01*
X211830434Y-92425108D01*
X211829723Y-92466661D01*
X211827582Y-92506939D01*
X211824004Y-92545951D01*
X211818980Y-92583706D01*
X211812501Y-92620213D01*
X211804558Y-92655482D01*
X211795143Y-92689520D01*
X211784247Y-92722336D01*
X211771861Y-92753941D01*
X211757976Y-92784342D01*
X211742585Y-92813548D01*
X211725677Y-92841569D01*
X211707245Y-92868413D01*
X211687279Y-92894089D01*
X211665771Y-92918606D01*
X211642713Y-92941973D01*
X211619287Y-92963008D01*
X211594467Y-92982747D01*
X211568280Y-93001183D01*
X211540753Y-93018306D01*
X211511914Y-93034108D01*
X211481787Y-93048581D01*
X211450402Y-93061716D01*
X211417783Y-93073505D01*
X211383958Y-93083939D01*
X211348954Y-93093009D01*
X211312797Y-93100707D01*
X211275514Y-93107025D01*
X211237132Y-93111953D01*
X211197678Y-93115484D01*
X211157178Y-93117609D01*
X211115659Y-93118319D01*
X211091964Y-93118037D01*
X211068561Y-93117195D01*
X211045457Y-93115804D01*
X211022662Y-93113870D01*
X211000185Y-93111404D01*
X210978035Y-93108412D01*
X210956221Y-93104904D01*
X210934751Y-93100889D01*
X210913634Y-93096374D01*
X210892880Y-93091369D01*
X210872497Y-93085881D01*
X210852494Y-93079921D01*
X210832881Y-93073495D01*
X210813665Y-93066612D01*
X210794857Y-93059282D01*
X210776464Y-93051512D01*
X210757238Y-93043170D01*
X210738154Y-93034124D01*
X210719212Y-93024382D01*
X210700412Y-93013955D01*
X210681754Y-93002852D01*
X210663237Y-92991080D01*
X210644862Y-92978651D01*
X210626628Y-92965571D01*
X210608536Y-92951852D01*
X210590584Y-92937501D01*
X210572773Y-92922529D01*
X210555102Y-92906943D01*
X210537572Y-92890753D01*
X210520182Y-92873969D01*
X210502932Y-92856599D01*
X210485822Y-92838652D01*
X210685712Y-92583331D01*
X210697073Y-92596694D01*
X210708432Y-92609498D01*
X210719787Y-92621740D01*
X210731138Y-92633420D01*
X210742483Y-92644535D01*
X210753820Y-92655084D01*
X210765147Y-92665066D01*
X210776464Y-92674479D01*
X210799186Y-92692641D01*
X210810547Y-92701543D01*
X210821908Y-92710232D01*
X210833269Y-92718636D01*
X210844629Y-92726682D01*
X210855989Y-92734301D01*
X210867349Y-92741419D01*
X210873101Y-92744749D01*
X210878995Y-92747948D01*
X210885032Y-92751025D01*
X210891210Y-92753989D01*
X210903993Y-92759610D01*
X210917341Y-92764884D01*
X210931253Y-92769878D01*
X210945729Y-92774663D01*
X210960765Y-92779308D01*
X210976362Y-92783885D01*
X211008376Y-92788353D01*
X211024726Y-92790410D01*
X211041496Y-92792253D01*
X211058830Y-92793810D01*
X211076873Y-92795011D01*
X211095768Y-92795784D01*
X211115659Y-92796057D01*
X211138027Y-92795701D01*
X211159694Y-92794631D01*
X211180667Y-92792849D01*
X211200957Y-92790354D01*
X211220572Y-92787147D01*
X211239520Y-92783227D01*
X211257811Y-92778596D01*
X211275452Y-92773252D01*
X211292453Y-92767198D01*
X211308823Y-92760432D01*
X211324570Y-92752955D01*
X211339703Y-92744766D01*
X211354231Y-92735868D01*
X211368162Y-92726258D01*
X211381505Y-92715939D01*
X211394269Y-92704909D01*
X211406346Y-92693140D01*
X211417579Y-92680644D01*
X211427977Y-92667401D01*
X211437549Y-92653393D01*
X211446304Y-92638602D01*
X211454251Y-92623010D01*
X211461399Y-92606599D01*
X211467757Y-92589351D01*
X211473333Y-92571246D01*
X211478137Y-92552268D01*
X211482178Y-92532398D01*
X211485463Y-92511617D01*
X211488004Y-92489907D01*
X211489807Y-92467250D01*
X211490883Y-92443629D01*
X211491239Y-92419024D01*
X211491239Y-91403555D01*
X211490884Y-91382186D01*
X211489819Y-91361386D01*
X211488044Y-91341157D01*
X211485559Y-91321498D01*
X211482363Y-91302408D01*
X211478458Y-91283889D01*
X211473843Y-91265938D01*
X211468517Y-91248557D01*
X211462482Y-91231745D01*
X211455736Y-91215502D01*
X211448281Y-91199827D01*
X211440116Y-91184721D01*
X211431240Y-91170183D01*
X211421655Y-91156213D01*
X211411359Y-91142811D01*
X211400354Y-91129977D01*
X211388638Y-91117807D01*
X211376206Y-91106356D01*
X211363048Y-91095634D01*
X211349155Y-91085649D01*
X211334519Y-91076410D01*
X211319129Y-91067927D01*
X211302976Y-91060208D01*
X211286052Y-91053264D01*
X211268346Y-91047102D01*
X211249849Y-91041732D01*
X211230553Y-91037163D01*
X211210448Y-91033405D01*
X211189524Y-91030466D01*
X211167772Y-91028355D01*
X211145183Y-91027082D01*
X211121747Y-91026656D01*
X211102659Y-91026942D01*
X211083977Y-91027808D01*
X211065685Y-91029262D01*
X211047765Y-91031313D01*
X211030199Y-91033969D01*
X211012970Y-91037239D01*
X210996060Y-91041131D01*
X210979451Y-91045656D01*
X210963126Y-91050820D01*
X210947067Y-91056634D01*
X210931257Y-91063105D01*
X210915677Y-91070243D01*
X210900311Y-91078055D01*
X210885140Y-91086552D01*
X210870147Y-91095741D01*
X210855314Y-91105631D01*
X210841884Y-91114833D01*
X210828883Y-91124186D01*
X210816310Y-91133698D01*
X210804164Y-91143380D01*
X210792447Y-91153239D01*
X210781158Y-91163284D01*
X210770296Y-91173524D01*
X210759863Y-91183967D01*
X210749857Y-91194623D01*
X210740280Y-91205500D01*
X210731130Y-91216607D01*
X210722409Y-91227952D01*
X210714115Y-91239544D01*
X210706249Y-91251393D01*
X210698811Y-91263506D01*
X210691801Y-91275893D01*
X210467699Y-91044913D01*
X210482531Y-91023591D01*
X210497525Y-91002986D01*
X210512696Y-90983096D01*
X210528062Y-90963921D01*
X210543642Y-90945461D01*
X210559453Y-90927715D01*
X210575512Y-90910683D01*
X210591837Y-90894364D01*
X210608446Y-90878759D01*
X210625356Y-90863867D01*
X210642586Y-90849686D01*
X210660151Y-90836218D01*
X210678071Y-90823462D01*
X210696363Y-90811416D01*
X210715044Y-90800082D01*
X210734132Y-90789458D01*
X210752666Y-90779545D01*
X210771898Y-90770339D01*
X210791821Y-90761830D01*
X210812424Y-90754011D01*
X210833700Y-90746870D01*
X210855641Y-90740399D01*
X210878237Y-90734588D01*
X210901481Y-90729429D01*
X210925364Y-90724911D01*
X210949876Y-90721026D01*
X210975010Y-90717764D01*
X211000758Y-90715117D01*
X211027110Y-90713073D01*
X211054058Y-90711625D01*
X211081594Y-90710764D01*
X211109708Y-90710478D01*
X211129938Y-90710689D01*
G37*
G36*
X202551366Y-95386458D02*
G01*
X202303052Y-95386458D01*
X202303052Y-84538542D01*
X202551366Y-84538542D01*
X202551366Y-95386458D01*
G37*
G36*
X195032701Y-93695639D02*
G01*
X193449300Y-93695639D01*
X193449300Y-91458190D01*
X192249547Y-91458190D01*
X192099209Y-91455573D01*
X191950905Y-91447731D01*
X191804815Y-91434674D01*
X191661118Y-91416413D01*
X191519995Y-91392960D01*
X191381624Y-91364326D01*
X191246186Y-91330522D01*
X191113860Y-91291560D01*
X190984825Y-91247449D01*
X190859261Y-91198202D01*
X190737347Y-91143829D01*
X190619264Y-91084342D01*
X190505191Y-91019752D01*
X190395306Y-90950070D01*
X190289791Y-90875306D01*
X190188824Y-90795474D01*
X190092585Y-90710582D01*
X190001254Y-90620643D01*
X189915010Y-90525668D01*
X189834032Y-90425668D01*
X189758501Y-90320653D01*
X189688595Y-90210636D01*
X189624495Y-90095627D01*
X189566380Y-89975637D01*
X189514430Y-89850678D01*
X189468824Y-89720761D01*
X189429741Y-89585896D01*
X189397362Y-89446095D01*
X189371865Y-89301370D01*
X189353431Y-89151731D01*
X189342239Y-88997189D01*
X189338756Y-88849928D01*
X190946210Y-88849928D01*
X190946210Y-88868052D01*
X190947562Y-88927468D01*
X190951602Y-88985965D01*
X190958305Y-89043480D01*
X190967647Y-89099950D01*
X190979602Y-89155311D01*
X190994147Y-89209500D01*
X191011258Y-89262453D01*
X191030908Y-89314106D01*
X191053075Y-89364397D01*
X191077733Y-89413262D01*
X191104858Y-89460638D01*
X191134425Y-89506460D01*
X191166410Y-89550665D01*
X191200788Y-89593191D01*
X191237535Y-89633973D01*
X191276626Y-89672948D01*
X191318037Y-89710053D01*
X191361743Y-89745223D01*
X191407719Y-89778397D01*
X191455941Y-89809509D01*
X191506385Y-89838498D01*
X191559026Y-89865298D01*
X191613839Y-89889847D01*
X191670799Y-89912082D01*
X191729884Y-89931938D01*
X191791067Y-89949353D01*
X191854324Y-89964263D01*
X191919631Y-89976604D01*
X191986963Y-89986314D01*
X192056295Y-89993327D01*
X192127604Y-89997582D01*
X192200864Y-89999014D01*
X193455385Y-89999014D01*
X193455385Y-87718966D01*
X192231294Y-87718966D01*
X192157946Y-87720122D01*
X192086382Y-87723585D01*
X192016639Y-87729343D01*
X191948751Y-87737388D01*
X191882755Y-87747708D01*
X191818685Y-87760295D01*
X191756579Y-87775137D01*
X191696471Y-87792225D01*
X191638398Y-87811548D01*
X191582394Y-87833098D01*
X191528496Y-87856863D01*
X191476739Y-87882833D01*
X191427159Y-87910999D01*
X191379792Y-87941350D01*
X191334673Y-87973877D01*
X191291838Y-88008569D01*
X191251323Y-88045417D01*
X191213163Y-88084410D01*
X191177394Y-88125538D01*
X191144051Y-88168791D01*
X191113171Y-88214159D01*
X191084789Y-88261632D01*
X191058941Y-88311200D01*
X191035662Y-88362853D01*
X191014988Y-88416581D01*
X190996955Y-88472374D01*
X190981598Y-88530221D01*
X190968954Y-88590113D01*
X190959057Y-88652040D01*
X190951944Y-88715992D01*
X190947650Y-88781958D01*
X190946210Y-88849928D01*
X189338756Y-88849928D01*
X189338468Y-88837756D01*
X189338468Y-88819502D01*
X189341490Y-88678371D01*
X189350514Y-88540057D01*
X189365475Y-88404668D01*
X189386309Y-88272315D01*
X189412949Y-88143105D01*
X189445333Y-88017148D01*
X189483395Y-87894554D01*
X189527071Y-87775431D01*
X189576295Y-87659888D01*
X189631004Y-87548035D01*
X189691132Y-87439981D01*
X189756615Y-87335834D01*
X189827389Y-87235704D01*
X189903387Y-87139700D01*
X189984547Y-87047931D01*
X190070803Y-86960506D01*
X190162090Y-86877534D01*
X190258344Y-86799125D01*
X190359500Y-86725387D01*
X190465494Y-86656429D01*
X190576260Y-86592361D01*
X190691735Y-86533292D01*
X190811852Y-86479331D01*
X190936549Y-86430587D01*
X191065760Y-86387168D01*
X191199420Y-86349185D01*
X191337465Y-86316746D01*
X191479829Y-86289961D01*
X191626450Y-86268938D01*
X191777261Y-86253786D01*
X191932197Y-86244615D01*
X192091196Y-86241534D01*
X195032701Y-86241534D01*
X195032701Y-89999014D01*
X195032701Y-93695639D01*
G37*
G36*
X198573447Y-86128647D02*
G01*
X198707223Y-86136410D01*
X198838307Y-86149252D01*
X198966584Y-86167094D01*
X199091938Y-86189856D01*
X199214256Y-86217460D01*
X199333422Y-86249827D01*
X199449322Y-86286878D01*
X199561840Y-86328533D01*
X199670862Y-86374713D01*
X199776272Y-86425340D01*
X199877957Y-86480334D01*
X199975802Y-86539617D01*
X200069690Y-86603109D01*
X200159508Y-86670732D01*
X200245141Y-86742405D01*
X200326474Y-86818051D01*
X200403391Y-86897591D01*
X200475779Y-86980944D01*
X200543523Y-87068032D01*
X200606506Y-87158777D01*
X200664616Y-87253099D01*
X200717736Y-87350918D01*
X200765752Y-87452157D01*
X200808550Y-87556735D01*
X200846013Y-87664574D01*
X200878028Y-87775596D01*
X200904480Y-87889719D01*
X200925253Y-88006867D01*
X200940234Y-88126960D01*
X200949306Y-88249918D01*
X200952356Y-88375662D01*
X200952356Y-88400004D01*
X200949639Y-88535980D01*
X200941538Y-88665877D01*
X200928130Y-88789884D01*
X200909490Y-88908192D01*
X200885693Y-89020992D01*
X200856816Y-89128473D01*
X200822935Y-89230826D01*
X200784125Y-89328242D01*
X200740461Y-89420911D01*
X200692021Y-89509022D01*
X200638879Y-89592768D01*
X200581112Y-89672337D01*
X200518794Y-89747921D01*
X200452003Y-89819709D01*
X200380814Y-89887892D01*
X200305302Y-89952661D01*
X200225543Y-90014206D01*
X200141614Y-90072716D01*
X199961545Y-90181398D01*
X199765703Y-90280228D01*
X199554694Y-90370730D01*
X199329123Y-90454427D01*
X199089597Y-90532843D01*
X198836723Y-90607499D01*
X198571107Y-90679919D01*
X198356114Y-90739136D01*
X198162621Y-90796244D01*
X197989576Y-90851695D01*
X197910393Y-90878942D01*
X197835927Y-90905945D01*
X197766046Y-90932761D01*
X197700619Y-90959446D01*
X197639515Y-90986058D01*
X197582602Y-91012653D01*
X197529748Y-91039289D01*
X197480821Y-91066021D01*
X197435690Y-91092906D01*
X197394224Y-91120002D01*
X197356290Y-91147365D01*
X197321757Y-91175052D01*
X197290494Y-91203119D01*
X197262369Y-91231624D01*
X197237251Y-91260622D01*
X197215007Y-91290172D01*
X197195506Y-91320329D01*
X197178616Y-91351150D01*
X197164206Y-91382693D01*
X197152145Y-91415013D01*
X197142300Y-91448168D01*
X197134541Y-91482214D01*
X197128735Y-91517208D01*
X197124750Y-91553207D01*
X197122456Y-91590268D01*
X197121721Y-91628447D01*
X197121721Y-91646704D01*
X197122858Y-91687242D01*
X197126255Y-91726764D01*
X197131887Y-91765254D01*
X197139728Y-91802692D01*
X197149755Y-91839061D01*
X197161942Y-91874344D01*
X197176267Y-91908522D01*
X197192703Y-91941578D01*
X197211227Y-91973493D01*
X197231814Y-92004251D01*
X197254439Y-92033834D01*
X197279078Y-92062223D01*
X197305706Y-92089400D01*
X197334300Y-92115349D01*
X197364833Y-92140050D01*
X197397283Y-92163487D01*
X197431624Y-92185642D01*
X197467832Y-92206496D01*
X197545750Y-92244232D01*
X197630841Y-92276554D01*
X197722910Y-92303318D01*
X197821760Y-92324383D01*
X197927194Y-92339605D01*
X198039017Y-92348843D01*
X198157033Y-92351954D01*
X198309578Y-92347858D01*
X198458991Y-92335719D01*
X198605423Y-92315759D01*
X198749026Y-92288201D01*
X198889952Y-92253269D01*
X199028352Y-92211185D01*
X199164378Y-92162172D01*
X199298181Y-92106452D01*
X199429913Y-92044250D01*
X199559725Y-91975786D01*
X199687769Y-91901286D01*
X199814197Y-91820970D01*
X199939159Y-91735062D01*
X200062808Y-91643786D01*
X200185295Y-91547363D01*
X200306772Y-91446017D01*
X201244718Y-92607276D01*
X201079915Y-92751922D01*
X200910035Y-92887171D01*
X200735424Y-93013031D01*
X200556433Y-93129511D01*
X200373408Y-93236621D01*
X200186698Y-93334369D01*
X199996652Y-93422764D01*
X199803617Y-93501816D01*
X199607942Y-93571533D01*
X199409975Y-93631926D01*
X199210064Y-93683002D01*
X199008558Y-93724771D01*
X198805805Y-93757243D01*
X198602153Y-93780425D01*
X198397949Y-93794328D01*
X198193544Y-93798960D01*
X198049328Y-93796543D01*
X197907939Y-93789312D01*
X197769493Y-93777299D01*
X197634103Y-93760535D01*
X197501884Y-93739051D01*
X197372952Y-93712878D01*
X197247422Y-93682047D01*
X197125407Y-93646589D01*
X197007023Y-93606536D01*
X196892386Y-93561919D01*
X196781608Y-93512768D01*
X196674807Y-93459116D01*
X196572096Y-93400992D01*
X196473590Y-93338429D01*
X196379403Y-93271458D01*
X196289652Y-93200109D01*
X196204451Y-93124413D01*
X196123914Y-93044403D01*
X196048157Y-92960109D01*
X195977293Y-92871562D01*
X195911439Y-92778793D01*
X195850709Y-92681834D01*
X195795218Y-92580715D01*
X195745080Y-92475469D01*
X195700410Y-92366125D01*
X195661324Y-92252715D01*
X195627937Y-92135271D01*
X195600362Y-92013823D01*
X195578715Y-91888403D01*
X195563110Y-91759042D01*
X195553663Y-91625770D01*
X195550489Y-91488619D01*
X195550489Y-91470362D01*
X195552892Y-91350592D01*
X195560078Y-91235163D01*
X195572014Y-91123961D01*
X195588667Y-91016874D01*
X195610002Y-90913790D01*
X195635988Y-90814597D01*
X195666590Y-90719181D01*
X195701775Y-90627432D01*
X195741509Y-90539235D01*
X195785760Y-90454480D01*
X195834493Y-90373053D01*
X195887675Y-90294842D01*
X195945274Y-90219734D01*
X196007255Y-90147619D01*
X196073585Y-90078381D01*
X196144230Y-90011911D01*
X196219158Y-89948095D01*
X196298335Y-89886820D01*
X196469302Y-89771446D01*
X196656864Y-89664890D01*
X196860753Y-89566253D01*
X197080703Y-89474636D01*
X197316446Y-89389140D01*
X197567714Y-89308865D01*
X197834241Y-89232913D01*
X198056415Y-89173220D01*
X198257660Y-89116778D01*
X198438888Y-89062848D01*
X198601009Y-89010692D01*
X198675187Y-88985048D01*
X198744931Y-88959569D01*
X198810352Y-88934165D01*
X198871565Y-88908742D01*
X198928683Y-88883208D01*
X198981820Y-88857470D01*
X199031090Y-88831437D01*
X199076607Y-88805015D01*
X199118484Y-88778113D01*
X199156835Y-88750637D01*
X199191774Y-88722497D01*
X199223415Y-88693599D01*
X199251870Y-88663850D01*
X199277255Y-88633159D01*
X199299682Y-88601433D01*
X199319266Y-88568580D01*
X199336119Y-88534507D01*
X199350357Y-88499122D01*
X199362092Y-88462333D01*
X199371439Y-88424047D01*
X199378510Y-88384171D01*
X199383421Y-88342614D01*
X199386283Y-88299283D01*
X199387212Y-88254086D01*
X199387212Y-88229744D01*
X199386285Y-88195777D01*
X199383507Y-88162311D01*
X199378882Y-88129384D01*
X199372414Y-88097034D01*
X199364109Y-88065298D01*
X199353971Y-88034216D01*
X199342004Y-88003824D01*
X199328212Y-87974161D01*
X199312601Y-87945264D01*
X199295174Y-87917170D01*
X199275936Y-87889919D01*
X199254892Y-87863548D01*
X199232046Y-87838094D01*
X199207403Y-87813595D01*
X199180966Y-87790090D01*
X199152741Y-87767616D01*
X199122733Y-87746211D01*
X199090944Y-87725912D01*
X199057381Y-87706758D01*
X199022047Y-87688787D01*
X198946085Y-87656543D01*
X198863095Y-87629482D01*
X198773113Y-87607908D01*
X198676173Y-87592124D01*
X198572313Y-87582431D01*
X198461568Y-87579133D01*
X198348226Y-87582385D01*
X198234331Y-87592040D01*
X198119901Y-87607948D01*
X198004955Y-87629956D01*
X197889511Y-87657913D01*
X197773587Y-87691668D01*
X197657200Y-87731070D01*
X197540369Y-87775967D01*
X197423112Y-87826208D01*
X197305446Y-87881641D01*
X197187391Y-87942116D01*
X197068963Y-88007480D01*
X196950181Y-88077583D01*
X196831063Y-88152273D01*
X196711626Y-88231398D01*
X196591890Y-88314808D01*
X195763612Y-87074574D01*
X195902557Y-86963724D01*
X196045338Y-86859251D01*
X196191938Y-86761261D01*
X196342338Y-86669861D01*
X196496521Y-86585159D01*
X196654468Y-86507260D01*
X196816163Y-86436273D01*
X196981587Y-86372304D01*
X197150723Y-86315460D01*
X197323552Y-86265848D01*
X197500057Y-86223575D01*
X197680220Y-86188748D01*
X197864022Y-86161475D01*
X198051448Y-86141861D01*
X198242477Y-86130015D01*
X198437093Y-86126042D01*
X198573447Y-86128647D01*
G37*
D11*
X226478846Y-83019684D02*
X226576262Y-83027091D01*
X226672262Y-83039290D01*
X226766725Y-83056159D01*
X226859530Y-83077579D01*
X226950557Y-83103427D01*
X227039686Y-83133585D01*
X227126796Y-83167932D01*
X227211767Y-83206346D01*
X227294477Y-83248707D01*
X227374807Y-83294896D01*
X227452635Y-83344791D01*
X227527842Y-83398272D01*
X227600307Y-83455218D01*
X227669909Y-83515509D01*
X227736528Y-83579024D01*
X227800043Y-83645643D01*
X227860334Y-83715245D01*
X227917280Y-83787710D01*
X227970761Y-83862917D01*
X228020656Y-83940745D01*
X228066844Y-84021075D01*
X228109206Y-84103785D01*
X228147620Y-84188756D01*
X228181967Y-84275866D01*
X228212124Y-84364994D01*
X228237973Y-84456022D01*
X228259393Y-84548827D01*
X228276262Y-84643290D01*
X228288461Y-84739290D01*
X228295868Y-84836706D01*
X228298364Y-84935418D01*
X228298364Y-97238543D01*
X228295868Y-97337255D01*
X228288461Y-97434670D01*
X228276262Y-97530670D01*
X228259393Y-97625132D01*
X228237973Y-97717938D01*
X228212124Y-97808965D01*
X228181967Y-97898093D01*
X228147620Y-97985203D01*
X228109206Y-98070173D01*
X228066844Y-98152884D01*
X228020656Y-98233213D01*
X227970761Y-98311042D01*
X227917280Y-98386249D01*
X227860334Y-98458713D01*
X227800043Y-98528316D01*
X227736528Y-98594934D01*
X227669909Y-98658450D01*
X227600307Y-98718741D01*
X227527842Y-98775687D01*
X227452635Y-98829167D01*
X227374807Y-98879062D01*
X227294477Y-98925251D01*
X227211767Y-98967613D01*
X227126796Y-99006027D01*
X227039686Y-99040373D01*
X226950557Y-99070531D01*
X226859530Y-99096380D01*
X226766725Y-99117800D01*
X226672262Y-99134669D01*
X226576262Y-99146868D01*
X226478846Y-99154275D01*
X226380134Y-99156771D01*
X188809301Y-99156771D01*
X188710590Y-99154275D01*
X188613174Y-99146868D01*
X188517175Y-99134669D01*
X188422713Y-99117800D01*
X188329908Y-99096380D01*
X188238881Y-99070531D01*
X188149752Y-99040373D01*
X188062642Y-99006027D01*
X187977672Y-98967613D01*
X187894962Y-98925251D01*
X187814632Y-98879062D01*
X187736804Y-98829167D01*
X187661597Y-98775687D01*
X187589132Y-98718741D01*
X187519530Y-98658450D01*
X187452911Y-98594934D01*
X187389396Y-98528316D01*
X187329105Y-98458713D01*
X187272158Y-98386249D01*
X187218677Y-98311042D01*
X187168782Y-98233213D01*
X187122594Y-98152884D01*
X187080232Y-98070173D01*
X187041817Y-97985203D01*
X187007471Y-97898093D01*
X186977313Y-97808965D01*
X186951464Y-97717938D01*
X186930045Y-97625132D01*
X186913175Y-97530670D01*
X186900976Y-97434670D01*
X186893569Y-97337255D01*
X186891073Y-97238543D01*
X186891073Y-84935418D01*
X186893569Y-84836706D01*
X186900976Y-84739290D01*
X186913175Y-84643290D01*
X186930045Y-84548827D01*
X186951464Y-84456022D01*
X186977313Y-84364994D01*
X187007471Y-84275866D01*
X187041817Y-84188756D01*
X187080232Y-84103785D01*
X187122594Y-84021075D01*
X187168782Y-83940745D01*
X187218677Y-83862917D01*
X187272158Y-83787710D01*
X187329105Y-83715245D01*
X187389396Y-83645643D01*
X187452911Y-83579024D01*
X187519530Y-83515509D01*
X187589132Y-83455218D01*
X187661597Y-83398272D01*
X187736804Y-83344791D01*
X187814632Y-83294896D01*
X187894962Y-83248707D01*
X187977672Y-83206346D01*
X188062642Y-83167932D01*
X188149752Y-83133585D01*
X188238881Y-83103427D01*
X188329908Y-83077579D01*
X188422713Y-83056159D01*
X188517175Y-83039290D01*
X188613174Y-83027091D01*
X188710590Y-83019684D01*
X188809301Y-83017188D01*
X226380134Y-83017188D01*
X226478846Y-83019684D01*
D10*
G36*
X256719931Y-36112521D02*
G01*
X256344799Y-36242032D01*
X256215247Y-35866986D01*
X256590377Y-35737340D01*
X256719931Y-36112521D01*
G37*
G36*
X261114752Y-55063498D02*
G01*
X260739626Y-55193051D01*
X260610072Y-54817912D01*
X260985199Y-54688358D01*
X261114752Y-55063498D01*
G37*
G36*
X144491727Y-58330123D02*
G01*
X144116682Y-58459676D01*
X143987173Y-58084537D01*
X144362211Y-57954983D01*
X144491727Y-58330123D01*
G37*
G36*
X256260960Y-33745953D02*
G01*
X256390512Y-34121132D01*
X256015378Y-34250647D01*
X255885846Y-33875526D01*
X255885825Y-33875533D01*
X256015378Y-34250647D01*
X249200000Y-36500000D01*
X242340932Y-38555805D01*
X235438183Y-40418058D01*
X228491765Y-42086756D01*
X221501687Y-43561895D01*
X214467960Y-44843471D01*
X207390593Y-45931481D01*
X200269598Y-46825921D01*
X193188552Y-47715338D01*
X186150955Y-48797222D01*
X179156797Y-50071576D01*
X172206069Y-51538403D01*
X165298761Y-53197704D01*
X158434865Y-55049484D01*
X151614371Y-57093743D01*
X145973840Y-58955368D01*
X144837270Y-59330486D01*
X144462095Y-59460039D01*
X144332578Y-59084900D01*
X144707700Y-58955368D01*
X144707693Y-58955347D01*
X144332578Y-59084900D01*
X144116682Y-58459676D01*
X144491796Y-58330122D01*
X144362211Y-57954983D01*
X151177575Y-55705622D01*
X158036644Y-53649814D01*
X164939404Y-51787560D01*
X171885840Y-50118864D01*
X178875938Y-48643728D01*
X185909685Y-47362155D01*
X192987066Y-46274148D01*
X200108068Y-45379709D01*
X207189108Y-44490309D01*
X214226691Y-43408438D01*
X221220831Y-42134094D01*
X228171541Y-40667275D01*
X235078834Y-39007979D01*
X241942725Y-37156204D01*
X248763226Y-35111949D01*
X255540352Y-32875210D01*
X255669884Y-33250263D01*
X255669904Y-33250256D01*
X255540352Y-32875210D01*
X255915487Y-32745564D01*
X256045039Y-33120743D01*
X256089768Y-33250256D01*
X256260960Y-33745953D01*
G37*
G36*
X145512090Y-62322248D02*
G01*
X145137052Y-62451802D01*
X145007535Y-62076675D01*
X144791509Y-61451452D01*
X144661992Y-61076313D01*
X145037168Y-60946759D01*
X151852527Y-58697398D01*
X158711580Y-56641589D01*
X165614318Y-54779336D01*
X172560729Y-53110640D01*
X179550802Y-51635504D01*
X186584527Y-50353931D01*
X193661892Y-49265924D01*
X200782888Y-48371484D01*
X207863934Y-47482069D01*
X214901532Y-46400191D01*
X221895691Y-45125846D01*
X228846421Y-43659030D01*
X235753732Y-41999740D01*
X242617633Y-40147972D01*
X249438135Y-38103722D01*
X256215247Y-35866986D01*
X256344779Y-36242040D01*
X256719931Y-36112521D01*
X256935857Y-36737730D01*
X257065410Y-37112910D01*
X256690271Y-37242421D01*
X256560739Y-36867304D01*
X256560720Y-36867311D01*
X256690271Y-37242421D01*
X249874912Y-39491782D01*
X243015857Y-41547591D01*
X236113114Y-43409845D01*
X229166694Y-45078541D01*
X222176604Y-46553677D01*
X215142856Y-47835250D01*
X208065457Y-48923258D01*
X200944417Y-49817697D01*
X193863380Y-50707114D01*
X186825797Y-51788998D01*
X179831656Y-53063351D01*
X172880943Y-54530177D01*
X165973643Y-56189477D01*
X159109744Y-58041253D01*
X152289231Y-60085510D01*
X148543066Y-61321900D01*
X145512090Y-62322248D01*
G37*
G36*
X146187047Y-65314024D02*
G01*
X145811864Y-65443578D01*
X145682348Y-65068438D01*
X146057475Y-64938918D01*
X146057466Y-64938890D01*
X145682348Y-65068438D01*
X145466459Y-64443215D01*
X145336942Y-64068088D01*
X145711988Y-63938535D01*
X152527353Y-61689173D01*
X159386421Y-59633364D01*
X166289181Y-57771109D01*
X173235617Y-56102412D01*
X180225715Y-54627276D01*
X187259461Y-53345701D01*
X194336841Y-52257691D01*
X201457841Y-51363247D01*
X208538887Y-50473834D01*
X215576483Y-49391952D01*
X222570639Y-48117598D01*
X229521364Y-46650768D01*
X236428668Y-44991460D01*
X243292558Y-43139669D01*
X250113045Y-41095394D01*
X256890137Y-38858630D01*
X257265276Y-38729115D01*
X257394829Y-39104294D01*
X257019690Y-39233809D01*
X257019691Y-39233811D01*
X257394829Y-39104294D01*
X257610743Y-39729506D01*
X257740296Y-40104685D01*
X257365170Y-40234198D01*
X257235636Y-39859076D01*
X257235616Y-39859083D01*
X257365170Y-40234198D01*
X250549785Y-42483555D01*
X243690711Y-44539360D01*
X236787959Y-46401612D01*
X229841539Y-48070307D01*
X222851460Y-49545444D01*
X215817732Y-50827019D01*
X208740366Y-51915029D01*
X201619371Y-52809473D01*
X194538327Y-53698890D01*
X187500730Y-54780774D01*
X180506573Y-56055128D01*
X173555845Y-57521953D01*
X166648538Y-59181253D01*
X159784642Y-61033030D01*
X152964148Y-63077286D01*
X147323584Y-64938918D01*
X146187047Y-65314024D01*
G37*
G36*
X263814322Y-67030589D02*
G01*
X263439183Y-67160141D01*
X263309629Y-66785002D01*
X263684769Y-66655448D01*
X263814322Y-67030589D01*
G37*
G36*
X258069729Y-42096072D02*
G01*
X258285642Y-42721282D01*
X258415195Y-43096460D01*
X258040055Y-43225975D01*
X257910524Y-42850856D01*
X257910503Y-42850863D01*
X258040055Y-43225975D01*
X251224692Y-45475331D01*
X244365634Y-47531136D01*
X237462889Y-49393388D01*
X230516468Y-51062083D01*
X223526378Y-52537218D01*
X216492629Y-53818792D01*
X209415231Y-54906801D01*
X202294191Y-55801242D01*
X195213150Y-56690659D01*
X188175569Y-57772542D01*
X181181433Y-59046895D01*
X174230731Y-60513720D01*
X167323450Y-62173021D01*
X160459577Y-64024799D01*
X153639099Y-66069058D01*
X146862005Y-68305800D01*
X146732418Y-67930662D01*
X146732358Y-67930683D01*
X146862005Y-68305800D01*
X146486814Y-68435354D01*
X146357313Y-68060214D01*
X146141271Y-67434990D01*
X146011762Y-67059865D01*
X146386945Y-66930311D01*
X153202304Y-64680946D01*
X160061359Y-62625134D01*
X166964102Y-60762879D01*
X173910522Y-59094182D01*
X180900611Y-57619045D01*
X187934359Y-56337472D01*
X195011756Y-55249464D01*
X202132795Y-54355023D01*
X209213833Y-53465606D01*
X216251415Y-52383721D01*
X223245553Y-51109365D01*
X230196259Y-49642535D01*
X237103548Y-47983227D01*
X243967432Y-46131438D01*
X250787923Y-44087165D01*
X257565036Y-41850405D01*
X257940175Y-41720891D01*
X258069729Y-42096072D01*
G37*
G36*
X264489209Y-70022312D02*
G01*
X264114082Y-70151957D01*
X263984528Y-69776778D01*
X264359655Y-69647225D01*
X264489209Y-70022312D01*
G37*
G36*
X147536817Y-71297603D02*
G01*
X147161634Y-71427116D01*
X147032125Y-71051938D01*
X147407246Y-70922442D01*
X147407239Y-70922424D01*
X147032125Y-71051938D01*
X146816228Y-70426727D01*
X146686712Y-70051679D01*
X147061758Y-69922034D01*
X153877122Y-67672686D01*
X160736191Y-65616887D01*
X167638951Y-63754640D01*
X174585386Y-62085949D01*
X181575484Y-60610816D01*
X188609230Y-59329244D01*
X195686611Y-58241236D01*
X202807611Y-57346796D01*
X209888656Y-56457380D01*
X216926253Y-55375496D01*
X223920409Y-54101143D01*
X230871135Y-52634317D01*
X237778439Y-50975015D01*
X244642330Y-49123236D01*
X251462817Y-47078977D01*
X258239909Y-44842234D01*
X258615048Y-44712681D01*
X258744601Y-45087821D01*
X258369462Y-45217373D01*
X258369463Y-45217375D01*
X258744601Y-45087821D01*
X258960515Y-45713044D01*
X258585388Y-45842595D01*
X258585389Y-45842597D01*
X258960515Y-45713044D01*
X259090068Y-46088184D01*
X258714942Y-46217737D01*
X251899557Y-48467098D01*
X245040484Y-50522906D01*
X238137732Y-52385160D01*
X231191311Y-54053855D01*
X224201232Y-55528991D01*
X217167503Y-56810564D01*
X210090136Y-57898572D01*
X202969141Y-58793011D01*
X195888096Y-59682428D01*
X188850500Y-60764313D01*
X181856343Y-62038668D01*
X174905615Y-63505497D01*
X167998308Y-65164801D01*
X161134412Y-67016585D01*
X154313918Y-69060852D01*
X148673513Y-70922442D01*
X147536817Y-71297603D01*
G37*
G36*
X259419501Y-48079596D02*
G01*
X259635414Y-48704820D01*
X259764967Y-49079946D01*
X259389828Y-49209499D01*
X252574465Y-51458863D01*
X245715406Y-53514675D01*
X238812661Y-55376930D01*
X231866239Y-57045628D01*
X224876149Y-58520766D01*
X217842399Y-59802340D01*
X210765000Y-60890348D01*
X203643960Y-61784787D01*
X196562920Y-62674204D01*
X189525338Y-63756089D01*
X182531202Y-65030444D01*
X175580500Y-66497273D01*
X168673218Y-68156578D01*
X161809343Y-70008362D01*
X154988864Y-72052628D01*
X148211767Y-74289380D01*
X148082189Y-73914201D01*
X148082128Y-73914222D01*
X148211767Y-74289380D01*
X147836591Y-74418892D01*
X147707082Y-74043713D01*
X147491041Y-73418503D01*
X147361532Y-73043456D01*
X147736715Y-72913809D01*
X154552072Y-70664461D01*
X161411126Y-68608663D01*
X168313868Y-66746416D01*
X175260289Y-65077725D01*
X182250378Y-63602592D01*
X189284127Y-62321021D01*
X196361526Y-61233014D01*
X203482564Y-60338575D01*
X210563604Y-59449158D01*
X217601187Y-58367273D01*
X224595325Y-57092919D01*
X231546032Y-55626093D01*
X238453321Y-53966791D01*
X245317204Y-52115012D01*
X252137695Y-50070752D01*
X258914808Y-47834010D01*
X259289947Y-47704457D01*
X259419501Y-48079596D01*
G37*
G36*
X260310313Y-51696596D02*
G01*
X259935173Y-51826142D01*
X259935175Y-51826148D01*
X260310313Y-51696596D01*
X260439866Y-52071722D01*
X260064726Y-52201275D01*
X253249375Y-54450636D01*
X246390316Y-56506445D01*
X239487564Y-58368699D01*
X232541134Y-60037396D01*
X225551039Y-61512534D01*
X218517294Y-62794109D01*
X211439915Y-63882120D01*
X204318914Y-64776563D01*
X197237868Y-65665982D01*
X190200271Y-66747870D01*
X183206113Y-68022230D01*
X176255385Y-69489063D01*
X169348077Y-71148370D01*
X162484181Y-73000154D01*
X155663687Y-75044415D01*
X148886587Y-77281155D01*
X148511411Y-77410668D01*
X148381895Y-77035489D01*
X148165998Y-76410279D01*
X148036489Y-76035233D01*
X148411527Y-75905585D01*
X155226892Y-73656237D01*
X162085961Y-71600438D01*
X168988720Y-69738191D01*
X175935156Y-68069499D01*
X182925255Y-66594365D01*
X189959002Y-65312791D01*
X197036383Y-64224781D01*
X204157384Y-63330338D01*
X211238430Y-62440921D01*
X218276026Y-61359037D01*
X225270184Y-60084684D01*
X232220911Y-58617860D01*
X239128218Y-56958560D01*
X245992113Y-55106783D01*
X252812606Y-53062526D01*
X259585971Y-50827019D01*
X259590133Y-50827019D01*
X259719253Y-51200918D01*
X259719257Y-51200917D01*
X259590133Y-50827019D01*
X259585971Y-50827019D01*
X259589707Y-50825786D01*
X259964833Y-50696233D01*
X260094387Y-51071372D01*
X260139126Y-51200917D01*
X260310313Y-51696596D01*
G37*
G36*
X149215993Y-79272541D02*
G01*
X148840955Y-79402054D01*
X148711301Y-79027007D01*
X149086477Y-78897362D01*
X149215993Y-79272541D01*
G37*
G36*
X260769286Y-54063135D02*
G01*
X260394146Y-54192688D01*
X260265323Y-53819677D01*
X260394145Y-54192691D01*
X260769286Y-54063135D01*
X260985199Y-54688358D01*
X260610070Y-54817910D01*
X260739626Y-55193051D01*
X253924262Y-57442412D01*
X247065202Y-59498221D01*
X240162458Y-61360474D01*
X233216040Y-63029170D01*
X226225961Y-64504306D01*
X219192230Y-65785879D01*
X212114861Y-66873887D01*
X204993864Y-67768326D01*
X197912820Y-68657761D01*
X190875224Y-69739658D01*
X183881066Y-71014021D01*
X176930337Y-72480853D01*
X170023029Y-74140157D01*
X163159132Y-75991936D01*
X156338637Y-78036192D01*
X149561536Y-80272931D01*
X149431958Y-79897750D01*
X149431904Y-79897769D01*
X149561536Y-80272931D01*
X149186361Y-80402443D01*
X149056844Y-80027264D01*
X148840955Y-79402054D01*
X149216062Y-79272542D01*
X149086477Y-78897362D01*
X155901836Y-76648010D01*
X162760892Y-74592207D01*
X169663636Y-72729958D01*
X176610057Y-71061265D01*
X183600147Y-69586132D01*
X190633897Y-68304560D01*
X197711295Y-67216553D01*
X204832334Y-66322113D01*
X211913376Y-65432696D01*
X218950963Y-64350812D01*
X225945107Y-63076459D01*
X232895820Y-61609633D01*
X239803113Y-59950333D01*
X246666998Y-58098556D01*
X253487488Y-56054300D01*
X260264593Y-53817562D01*
X260639732Y-53688009D01*
X260769286Y-54063135D01*
G37*
G36*
X149890951Y-82264317D02*
G01*
X149515775Y-82393830D01*
X149386259Y-82018784D01*
X149761442Y-81889138D01*
X149890951Y-82264317D01*
G37*
G36*
X261660098Y-57680136D02*
G01*
X261789651Y-58055274D01*
X261414512Y-58184827D01*
X261284959Y-57809690D01*
X261284958Y-57809690D01*
X261414512Y-58184827D01*
X254599145Y-60434188D01*
X247740078Y-62489997D01*
X240837323Y-64352250D01*
X233890893Y-66020946D01*
X226900802Y-67496082D01*
X219867062Y-68777655D01*
X212789686Y-69865663D01*
X205668687Y-70760102D01*
X198587649Y-71649536D01*
X191550066Y-72731433D01*
X184555926Y-74005796D01*
X177605213Y-75472628D01*
X170697915Y-77131932D01*
X163834016Y-78983710D01*
X157013504Y-81027968D01*
X150236364Y-83264706D01*
X149861318Y-83394221D01*
X149731672Y-83019041D01*
X149515775Y-82393830D01*
X149890954Y-82264317D01*
X149761442Y-81889138D01*
X156576800Y-79639787D01*
X163435854Y-77583989D01*
X170338591Y-75721744D01*
X177285002Y-74053056D01*
X184275074Y-72577925D01*
X191308799Y-71296352D01*
X198386163Y-70208340D01*
X205507158Y-69313889D01*
X212588201Y-68424472D01*
X219625795Y-67342588D01*
X226619949Y-66068234D01*
X233570674Y-64601408D01*
X240477981Y-62942107D01*
X247341879Y-61090329D01*
X254162379Y-59046070D01*
X260939492Y-56809330D01*
X261314618Y-56679777D01*
X261444171Y-57054912D01*
X261488913Y-57184462D01*
X261660098Y-57680136D01*
G37*
G36*
X150565763Y-85256093D02*
G01*
X150190725Y-85385605D01*
X150061071Y-85010428D01*
X150436254Y-84880913D01*
X150565763Y-85256093D01*
G37*
G36*
X150911314Y-86256482D02*
G01*
X150536130Y-86385994D01*
X150406621Y-86010817D01*
X150781742Y-85881321D01*
X150781736Y-85881303D01*
X150406621Y-86010817D01*
X150190725Y-85385605D01*
X150565835Y-85256093D01*
X150436254Y-84880913D01*
X157251619Y-82631563D01*
X164110688Y-80575765D01*
X171013447Y-78713521D01*
X177959883Y-77044833D01*
X184949981Y-75569701D01*
X191983727Y-74288128D01*
X199061107Y-73200116D01*
X206182107Y-72305665D01*
X213263149Y-71416232D01*
X220300737Y-70334341D01*
X227294883Y-69059987D01*
X234245598Y-67593164D01*
X241152893Y-65933868D01*
X248016781Y-64082095D01*
X254837272Y-62037841D01*
X261614378Y-59801100D01*
X261989518Y-59671547D01*
X262119071Y-60046686D01*
X261743933Y-60176239D01*
X261743934Y-60176241D01*
X262119071Y-60046686D01*
X262334997Y-60671910D01*
X262464550Y-61047036D01*
X262089410Y-61176589D01*
X255274046Y-63425953D01*
X248414984Y-65481761D01*
X241512238Y-67344012D01*
X234565818Y-69012706D01*
X227575736Y-70487840D01*
X220542005Y-71769414D01*
X213464634Y-72857427D01*
X206343637Y-73751877D01*
X199262593Y-74641312D01*
X192224996Y-75723209D01*
X185230839Y-76997572D01*
X178280111Y-78464404D01*
X171372804Y-80123708D01*
X164508908Y-81975487D01*
X157688414Y-84019744D01*
X152048014Y-85881321D01*
X150911314Y-86256482D01*
G37*
G36*
X263009870Y-63663673D02*
G01*
X263139423Y-64038812D01*
X262764284Y-64168365D01*
X262634731Y-63793228D01*
X262634729Y-63793229D01*
X262764284Y-64168365D01*
X255948917Y-66417729D01*
X249089849Y-68473537D01*
X242187094Y-70335789D01*
X235240665Y-72004482D01*
X228250573Y-73479616D01*
X221216833Y-74761191D01*
X214139457Y-75849204D01*
X207018457Y-76743655D01*
X199937418Y-77633089D01*
X192899836Y-78714986D01*
X185905695Y-79989348D01*
X178954983Y-81456180D01*
X172047684Y-83115484D01*
X165183786Y-84967263D01*
X158363274Y-87011520D01*
X151586133Y-89248259D01*
X151211095Y-89377772D01*
X151081441Y-89002593D01*
X151456617Y-88873080D01*
X151585381Y-89246080D01*
X151456620Y-88873078D01*
X151081441Y-89002593D01*
X150865545Y-88377383D01*
X150736028Y-88002203D01*
X151111211Y-87872689D01*
X157926570Y-85623338D01*
X164785622Y-83567540D01*
X171688359Y-81705296D01*
X178634769Y-80036607D01*
X185624841Y-78561476D01*
X192658565Y-77279903D01*
X199735931Y-76191891D01*
X206856927Y-75297440D01*
X213937972Y-74408007D01*
X220975566Y-73326115D01*
X227969721Y-72051758D01*
X234920446Y-70584934D01*
X241827753Y-68925637D01*
X248691651Y-67073865D01*
X255512151Y-65029612D01*
X262282856Y-62794991D01*
X262289994Y-62794991D01*
X262418814Y-63168001D01*
X262418816Y-63168000D01*
X262289994Y-62794991D01*
X262282856Y-62794991D01*
X262289264Y-62792876D01*
X262664390Y-62663323D01*
X262793943Y-63038449D01*
X262838685Y-63168000D01*
X263009870Y-63663673D01*
G37*
G36*
X151915540Y-91239642D02*
G01*
X151540494Y-91369158D01*
X151410848Y-90993979D01*
X151786024Y-90864462D01*
X151915540Y-91239642D01*
G37*
G36*
X270563301Y-96948294D02*
G01*
X270188121Y-97077807D01*
X270058608Y-96702761D01*
X270433654Y-96573115D01*
X270563301Y-96948294D01*
G37*
G36*
X271913072Y-102931849D02*
G01*
X271537893Y-103061362D01*
X271408380Y-102686312D01*
X271783426Y-102556670D01*
X271913072Y-102931849D01*
G37*
G36*
X154960630Y-104207003D02*
G01*
X154585447Y-104336649D01*
X154455938Y-103961470D01*
X154831113Y-103831957D01*
X154960630Y-104207003D01*
G37*
G36*
X155635580Y-107198782D02*
G01*
X155260397Y-107328425D01*
X155130888Y-106953246D01*
X155505933Y-106823733D01*
X155635580Y-107198782D01*
G37*
G36*
X273262845Y-108915396D02*
G01*
X272887664Y-109044909D01*
X272758151Y-108669863D01*
X273133197Y-108540217D01*
X273262845Y-108915396D01*
G37*
G36*
X156310400Y-110190558D02*
G01*
X155935224Y-110320204D01*
X155805707Y-109945025D01*
X156180883Y-109815512D01*
X156310400Y-110190558D01*
G37*
G36*
X232245690Y-85180975D02*
G01*
X230555925Y-85512871D01*
X228893676Y-85839363D01*
X228893676Y-87475874D01*
X233149350Y-86649054D01*
X237853957Y-85642862D01*
X242538659Y-84548388D01*
X247203460Y-83365629D01*
X251848365Y-82094584D01*
X256473376Y-80735251D01*
X261078497Y-79287628D01*
X265663733Y-77751715D01*
X266038872Y-77622202D01*
X266168426Y-77997380D01*
X266384339Y-78622593D01*
X266513892Y-78997639D01*
X266138753Y-79127284D01*
X261513107Y-80676571D01*
X256867277Y-82136533D01*
X252201266Y-83507164D01*
X247515078Y-84788458D01*
X242808718Y-85980413D01*
X238082188Y-87083022D01*
X233335492Y-88096281D01*
X232716013Y-88216348D01*
X228893676Y-88957187D01*
X228893676Y-90592479D01*
X233237031Y-89759943D01*
X238027676Y-88746260D01*
X242797699Y-87641119D01*
X247547104Y-86444519D01*
X252275894Y-85156458D01*
X256984072Y-83776934D01*
X261671641Y-82305946D01*
X266338605Y-80743493D01*
X266713746Y-80613978D01*
X266843297Y-80989157D01*
X266468179Y-81118665D01*
X266468180Y-81118666D01*
X266843297Y-80989157D01*
X267059225Y-81614367D01*
X267188765Y-81989415D01*
X266813638Y-82119061D01*
X262106015Y-83694933D01*
X257377487Y-85178291D01*
X252628060Y-86569130D01*
X247857736Y-87867446D01*
X243066522Y-89073235D01*
X238254421Y-90186492D01*
X233421438Y-91207212D01*
X228893676Y-92073032D01*
X228893676Y-93707242D01*
X233324883Y-92869355D01*
X238201584Y-91848520D01*
X243056928Y-90733013D01*
X247890920Y-89522829D01*
X252703568Y-88217965D01*
X257494877Y-86818419D01*
X262264854Y-85324187D01*
X267013505Y-83735266D01*
X267388645Y-83605755D01*
X267518197Y-83980935D01*
X267734110Y-84606144D01*
X267863664Y-84981190D01*
X267488525Y-85110837D01*
X267358985Y-84735657D01*
X267733840Y-84606238D01*
X267358977Y-84735657D01*
X267488525Y-85110837D01*
X262698971Y-86713261D01*
X257887779Y-88219925D01*
X253054954Y-89630824D01*
X248200500Y-90945956D01*
X243324424Y-92165316D01*
X238426731Y-93288903D01*
X233507428Y-94316713D01*
X232824627Y-94445514D01*
X230637475Y-94858088D01*
X228893676Y-95187030D01*
X228893676Y-96820134D01*
X233412048Y-95977502D01*
X238374916Y-94949889D01*
X243315695Y-93824314D01*
X248234389Y-92600777D01*
X253131003Y-91279280D01*
X258005540Y-89859824D01*
X262858006Y-88342412D01*
X267688405Y-86727044D01*
X268063529Y-86597529D01*
X268193083Y-86972577D01*
X268409009Y-87597920D01*
X268538577Y-87972966D01*
X268163424Y-88102480D01*
X263275156Y-89736892D01*
X258364354Y-91271551D01*
X253431024Y-92706459D01*
X248475167Y-94041615D01*
X243496789Y-95277018D01*
X238495891Y-96412670D01*
X233472478Y-97448570D01*
X230533673Y-97993794D01*
X228636756Y-98345720D01*
X228613058Y-98393622D01*
X228568310Y-98476135D01*
X228520605Y-98556758D01*
X228470017Y-98635419D01*
X228416617Y-98712044D01*
X228360479Y-98786561D01*
X228301675Y-98858895D01*
X228240277Y-98928974D01*
X228176358Y-98996725D01*
X228109991Y-99062074D01*
X228041247Y-99124949D01*
X227970200Y-99185276D01*
X227896922Y-99242982D01*
X227821486Y-99297993D01*
X227743963Y-99350238D01*
X227664427Y-99399642D01*
X227582951Y-99446132D01*
X227499606Y-99489636D01*
X227414465Y-99530079D01*
X227327601Y-99567390D01*
X227239086Y-99601495D01*
X227194938Y-99616600D01*
X227148993Y-99632320D01*
X227057394Y-99659792D01*
X226964362Y-99683839D01*
X226869969Y-99704387D01*
X226774288Y-99721364D01*
X226677392Y-99734695D01*
X226579352Y-99744307D01*
X226480242Y-99750129D01*
X226380134Y-99752085D01*
X219761614Y-99752085D01*
X217951010Y-100000117D01*
X216109439Y-100239000D01*
X214264942Y-100464909D01*
X212417543Y-100677859D01*
X205336504Y-101567250D01*
X198298923Y-102649114D01*
X191304786Y-103923454D01*
X184354082Y-105390270D01*
X177446799Y-107049565D01*
X170582923Y-108901338D01*
X163762444Y-110945593D01*
X160016227Y-112182008D01*
X156985349Y-113182330D01*
X156855772Y-112807219D01*
X156480657Y-112936801D01*
X156264760Y-112311587D01*
X156135114Y-111936408D01*
X156510290Y-111806895D01*
X156639792Y-112182037D01*
X156639875Y-112182008D01*
X156510290Y-111806895D01*
X163325649Y-109557539D01*
X170184705Y-107501728D01*
X177087448Y-105639468D01*
X184033869Y-103970765D01*
X191023959Y-102495626D01*
X198057708Y-101214056D01*
X205135107Y-100126062D01*
X208112597Y-99752085D01*
X197066076Y-99752085D01*
X191915205Y-100682513D01*
X186757394Y-101724078D01*
X181623403Y-102871221D01*
X176513221Y-104123941D01*
X171426840Y-105482237D01*
X166364249Y-106946106D01*
X161325439Y-108515547D01*
X156310400Y-110190558D01*
X156180879Y-109815424D01*
X155805707Y-109945025D01*
X155589811Y-109319811D01*
X155460302Y-108944632D01*
X155835340Y-108815119D01*
X160432888Y-107274928D01*
X165050376Y-105823003D01*
X169687801Y-104459342D01*
X174345161Y-103183943D01*
X179022451Y-101996806D01*
X183719669Y-100897928D01*
X188436810Y-99887309D01*
X189131288Y-99752085D01*
X188809301Y-99752085D01*
X188623632Y-99745331D01*
X188441640Y-99725383D01*
X188263792Y-99692715D01*
X188090560Y-99647802D01*
X187922413Y-99591118D01*
X187759820Y-99523136D01*
X187603253Y-99444331D01*
X187453179Y-99355177D01*
X187310069Y-99256147D01*
X187174393Y-99147716D01*
X187046621Y-99030357D01*
X186927222Y-98904545D01*
X186816666Y-98770754D01*
X186715422Y-98629457D01*
X186699739Y-98604022D01*
X183013702Y-99404664D01*
X179060015Y-100329415D01*
X175120503Y-101317062D01*
X171195167Y-102367605D01*
X167284007Y-103481048D01*
X163387022Y-104657390D01*
X159504213Y-105896635D01*
X158607507Y-106198458D01*
X155635580Y-107198782D01*
X155506002Y-106823668D01*
X155130888Y-106953246D01*
X154914854Y-106328040D01*
X154785337Y-105952860D01*
X155160520Y-105823344D01*
X155290016Y-106198464D01*
X155290033Y-106198458D01*
X155160520Y-105823344D01*
X159044322Y-104516045D01*
X162942370Y-103271765D01*
X166854661Y-102090508D01*
X170781193Y-100972276D01*
X174721963Y-99917073D01*
X178676967Y-98924902D01*
X182646202Y-97995766D01*
X183108259Y-97895304D01*
X186846303Y-97895304D01*
X186900418Y-98154354D01*
X187258184Y-97982417D01*
X187285138Y-98036080D01*
X187313884Y-98088647D01*
X187344382Y-98140079D01*
X187376592Y-98190334D01*
X187410472Y-98239373D01*
X187445983Y-98287156D01*
X187483084Y-98333644D01*
X187521734Y-98378797D01*
X187561895Y-98422575D01*
X187603524Y-98464937D01*
X187646582Y-98505845D01*
X187691028Y-98545259D01*
X187736822Y-98583137D01*
X187783924Y-98619442D01*
X187832292Y-98654133D01*
X187881888Y-98687170D01*
X187932670Y-98718513D01*
X187984598Y-98748122D01*
X188037631Y-98775958D01*
X188091730Y-98801981D01*
X188146853Y-98826151D01*
X188202961Y-98848428D01*
X188260013Y-98868773D01*
X188317969Y-98887145D01*
X188376788Y-98903505D01*
X188436430Y-98917813D01*
X188496854Y-98930028D01*
X188558021Y-98940112D01*
X188619889Y-98948025D01*
X188682419Y-98953726D01*
X188745569Y-98957176D01*
X188809301Y-98958335D01*
X193245965Y-98958335D01*
X193307093Y-99624435D01*
X196887146Y-98977729D01*
X196966115Y-98977729D01*
X197030305Y-99355219D01*
X197030305Y-99355208D01*
X214630254Y-99355208D01*
X214630254Y-99355777D01*
X214661740Y-99616603D01*
X214661763Y-99616600D01*
X214630254Y-99355208D01*
X197030305Y-99355208D01*
X196966115Y-98977729D01*
X196887146Y-98977729D01*
X196963762Y-98963889D01*
X196996702Y-98958335D01*
X197030305Y-98958335D01*
X214630254Y-98958335D01*
X214669724Y-99615625D01*
X216010156Y-99451434D01*
X217846070Y-99213269D01*
X219679033Y-98962168D01*
X219706548Y-98958335D01*
X219734331Y-98958335D01*
X226380134Y-98958335D01*
X226516265Y-98953024D01*
X226649507Y-98937357D01*
X226779458Y-98911728D01*
X226905719Y-98876533D01*
X227027889Y-98832168D01*
X227145569Y-98779029D01*
X227258358Y-98717512D01*
X227365856Y-98648012D01*
X227467663Y-98570924D01*
X227563379Y-98486645D01*
X227652603Y-98395571D01*
X227734936Y-98298096D01*
X227809977Y-98194617D01*
X227877325Y-98085529D01*
X227936582Y-97971228D01*
X227987346Y-97852110D01*
X228032765Y-97733333D01*
X228312459Y-97733333D01*
X228358023Y-97993767D01*
X228358093Y-97993794D01*
X228312480Y-97733330D01*
X228312459Y-97733333D01*
X228032765Y-97733333D01*
X228067779Y-97641768D01*
X228089525Y-97637956D01*
X228099264Y-97286959D01*
X228099744Y-97262850D01*
X228099878Y-97250721D01*
X228099926Y-97238543D01*
X228099926Y-94858088D01*
X228099926Y-94660441D01*
X228099926Y-94186175D01*
X228099926Y-91744864D01*
X228099926Y-91548148D01*
X228099926Y-91072558D01*
X228099926Y-88629794D01*
X228099926Y-88434002D01*
X228099926Y-87957223D01*
X228099926Y-85512871D01*
X228099926Y-85183331D01*
X228112527Y-85180975D01*
X228098207Y-84857895D01*
X228494684Y-84840432D01*
X228543159Y-85099320D01*
X228543164Y-85099319D01*
X228494685Y-84840367D01*
X228098207Y-84857895D01*
X228092350Y-84772792D01*
X228082412Y-84688873D01*
X228068492Y-84606238D01*
X228050689Y-84524986D01*
X228029104Y-84445218D01*
X228003835Y-84367033D01*
X227974982Y-84290529D01*
X227942645Y-84215808D01*
X227906923Y-84142967D01*
X227867916Y-84072107D01*
X227825724Y-84003327D01*
X227780445Y-83936726D01*
X227732180Y-83872404D01*
X227681029Y-83810462D01*
X227627090Y-83750996D01*
X227570463Y-83694109D01*
X227511248Y-83639898D01*
X227449544Y-83588464D01*
X227385451Y-83539906D01*
X227319069Y-83494323D01*
X227250496Y-83451816D01*
X227179833Y-83412482D01*
X227107180Y-83376423D01*
X227032634Y-83343736D01*
X226956298Y-83314523D01*
X226878269Y-83288882D01*
X226798647Y-83266913D01*
X226717532Y-83248715D01*
X226635024Y-83234388D01*
X226551222Y-83224031D01*
X226466226Y-83217744D01*
X226380134Y-83215626D01*
X226200086Y-83215626D01*
X226140447Y-82548389D01*
X224605087Y-82818212D01*
X222409422Y-83204078D01*
X222373815Y-83210335D01*
X222341798Y-83215626D01*
X222309255Y-83215626D01*
X204261896Y-83215626D01*
X204220231Y-82558644D01*
X203863599Y-82603116D01*
X201654320Y-82897891D01*
X199500718Y-83204078D01*
X199449258Y-83211394D01*
X199420682Y-83215626D01*
X199391710Y-83215626D01*
X188809301Y-83215626D01*
X188720797Y-83217864D01*
X188633456Y-83224505D01*
X188547385Y-83235441D01*
X188462692Y-83250565D01*
X188379486Y-83269767D01*
X188297874Y-83292941D01*
X188217964Y-83319978D01*
X188139865Y-83350770D01*
X188063685Y-83385210D01*
X187989531Y-83423188D01*
X187917511Y-83464597D01*
X187847734Y-83509329D01*
X187780308Y-83557276D01*
X187715340Y-83608330D01*
X187652939Y-83662383D01*
X187593213Y-83719327D01*
X187536269Y-83779053D01*
X187482216Y-83841454D01*
X187431163Y-83906422D01*
X187383216Y-83973849D01*
X187338484Y-84043626D01*
X187297074Y-84115646D01*
X187259096Y-84189800D01*
X187224657Y-84265981D01*
X187193865Y-84344080D01*
X187166828Y-84423990D01*
X187143654Y-84505602D01*
X187124452Y-84588808D01*
X187109328Y-84673501D01*
X187098392Y-84759573D01*
X187091751Y-84846914D01*
X187089513Y-84935418D01*
X187089513Y-85005135D01*
X187089513Y-85196032D01*
X187089513Y-85264662D01*
X187089513Y-85679558D01*
X187089513Y-88131585D01*
X187089513Y-88321423D01*
X187089513Y-88806269D01*
X187089513Y-91259753D01*
X187089513Y-91448794D01*
X187089513Y-91519039D01*
X187089513Y-91934836D01*
X187089513Y-94389906D01*
X187089513Y-94577891D01*
X187089513Y-94648997D01*
X187089513Y-95065386D01*
X187089513Y-97238543D01*
X187089749Y-97267495D01*
X187090454Y-97296310D01*
X187091627Y-97324985D01*
X187093267Y-97353520D01*
X187095372Y-97381911D01*
X187097940Y-97410159D01*
X187100969Y-97438261D01*
X187104459Y-97466216D01*
X187140171Y-97736888D01*
X187258184Y-97982417D01*
X186900465Y-98154265D01*
X186846324Y-97895300D01*
X186846303Y-97895304D01*
X183108259Y-97895304D01*
X186295759Y-97202267D01*
X186295759Y-95556864D01*
X182745439Y-96321554D01*
X178732405Y-97253793D01*
X174733966Y-98250777D01*
X170750120Y-99312511D01*
X166780865Y-100438997D01*
X162826200Y-101630239D01*
X158886122Y-102886240D01*
X154960630Y-104207003D01*
X154831107Y-103831872D01*
X154455938Y-103961470D01*
X154240041Y-103336260D01*
X154110525Y-102961081D01*
X154485570Y-102831572D01*
X158449533Y-101498002D01*
X162428327Y-100230080D01*
X166421951Y-99027807D01*
X170430404Y-97891185D01*
X174453683Y-96820215D01*
X178491787Y-95814898D01*
X182544714Y-94875236D01*
X184803510Y-94389906D01*
X186692636Y-94389906D01*
X186746080Y-94648997D01*
X186746081Y-94648997D01*
X186692640Y-94389906D01*
X186692636Y-94389906D01*
X184803510Y-94389906D01*
X186295759Y-94069278D01*
X186295759Y-92425093D01*
X182658015Y-93198996D01*
X178559228Y-94141710D01*
X174475645Y-95151918D01*
X170407267Y-96229620D01*
X166354095Y-97374815D01*
X162316128Y-98587504D01*
X158293366Y-99867686D01*
X157260840Y-100214907D01*
X154285810Y-101215361D01*
X154156229Y-100840182D01*
X154156171Y-100840202D01*
X154285810Y-101215361D01*
X153910627Y-101344878D01*
X153781110Y-100969698D01*
X153565084Y-100344485D01*
X153435567Y-99969306D01*
X153810750Y-99839793D01*
X153940240Y-100214915D01*
X153940263Y-100214907D01*
X153810750Y-99839793D01*
X157857028Y-98479275D01*
X161918755Y-97187158D01*
X165995929Y-95963443D01*
X170088547Y-94808131D01*
X174196606Y-93721224D01*
X178320102Y-92702723D01*
X182459032Y-91752631D01*
X182816831Y-91676695D01*
X186639934Y-91676695D01*
X186692622Y-91934836D01*
X186692640Y-91934836D01*
X186639939Y-91676694D01*
X186639934Y-91676695D01*
X182816831Y-91676695D01*
X184781399Y-91259753D01*
X186692622Y-91259753D01*
X186745459Y-91519040D01*
X186745464Y-91519039D01*
X186692640Y-91259753D01*
X186692622Y-91259753D01*
X184781399Y-91259753D01*
X186295759Y-90938359D01*
X186295759Y-89295185D01*
X182570513Y-90077904D01*
X178385922Y-91030741D01*
X174217170Y-92053852D01*
X170064254Y-93147240D01*
X165927169Y-94310906D01*
X161805910Y-95544852D01*
X157700473Y-96849079D01*
X154727083Y-97848428D01*
X153610853Y-98223589D01*
X153235677Y-98353098D01*
X153106161Y-97977919D01*
X153481282Y-97848428D01*
X153481275Y-97848407D01*
X153106161Y-97977919D01*
X152890272Y-97352709D01*
X152760755Y-96977530D01*
X153135793Y-96848017D01*
X157264343Y-95460618D01*
X161408977Y-94144411D01*
X165569693Y-92899399D01*
X169746489Y-91725585D01*
X173939365Y-90622974D01*
X178148318Y-89591567D01*
X182373348Y-88631369D01*
X182771365Y-88547940D01*
X186640639Y-88547940D01*
X186692635Y-88806269D01*
X186692640Y-88806269D01*
X186640640Y-88547940D01*
X186640639Y-88547940D01*
X182771365Y-88547940D01*
X186295759Y-87809185D01*
X186295759Y-86167139D01*
X182483000Y-86958250D01*
X178212575Y-87920852D01*
X173958621Y-88956565D01*
X169721138Y-90065391D01*
X165500124Y-91247328D01*
X161295581Y-92502377D01*
X157107507Y-93830538D01*
X155914102Y-94231411D01*
X154052812Y-94856632D01*
X152935903Y-95231810D01*
X152560857Y-95361323D01*
X152431211Y-94986144D01*
X152806391Y-94856632D01*
X152806390Y-94856629D01*
X152431211Y-94986144D01*
X152215307Y-94360930D01*
X152085805Y-93985754D01*
X152460981Y-93856242D01*
X152590489Y-94231419D01*
X152590513Y-94231411D01*
X152460981Y-93856242D01*
X156671754Y-92441991D01*
X160899258Y-91101787D01*
X165143490Y-89835634D01*
X169404448Y-88643537D01*
X173682131Y-87525501D01*
X177976536Y-86481530D01*
X182287662Y-85511628D01*
X184734589Y-85005135D01*
X186692636Y-85005135D01*
X186744050Y-85264662D01*
X186744051Y-85264662D01*
X186692640Y-85005135D01*
X186692636Y-85005135D01*
X184734589Y-85005135D01*
X186308669Y-84679314D01*
X186308737Y-84678432D01*
X186324722Y-84552643D01*
X186346827Y-84428867D01*
X186374895Y-84307263D01*
X186408768Y-84187988D01*
X186448287Y-84071200D01*
X186493294Y-83957057D01*
X186543632Y-83845717D01*
X186599142Y-83737339D01*
X186659667Y-83632079D01*
X186725048Y-83530097D01*
X186795128Y-83431549D01*
X186869749Y-83336594D01*
X186948753Y-83245391D01*
X187031981Y-83158096D01*
X187119276Y-83074867D01*
X187210480Y-82995864D01*
X187305435Y-82921243D01*
X187403982Y-82851164D01*
X187447698Y-82823137D01*
X186580610Y-82981124D01*
X179629881Y-84447956D01*
X172722574Y-86107260D01*
X165858678Y-87959039D01*
X159038184Y-90003296D01*
X153397783Y-91864874D01*
X152261083Y-92240035D01*
X151885908Y-92369547D01*
X151756391Y-91994368D01*
X152131512Y-91864874D01*
X152131505Y-91864855D01*
X151756391Y-91994368D01*
X151540494Y-91369158D01*
X151915626Y-91239637D01*
X151786024Y-90864462D01*
X158601388Y-88615113D01*
X165460457Y-86559315D01*
X172363217Y-84697072D01*
X179309653Y-83028383D01*
X180303078Y-82818739D01*
X199391710Y-82818739D01*
X199391710Y-82818751D01*
X199448186Y-83204078D01*
X199391710Y-82818739D01*
X180303078Y-82818739D01*
X181540538Y-82557596D01*
X204228638Y-82557596D01*
X204261896Y-82818751D01*
X204261896Y-82818739D01*
X222309255Y-82818739D01*
X222309255Y-82818751D01*
X222372783Y-83204078D01*
X222309255Y-82818739D01*
X204261896Y-82818739D01*
X204261896Y-82818212D01*
X204228661Y-82557593D01*
X204228638Y-82557596D01*
X181540538Y-82557596D01*
X186299751Y-81553252D01*
X193333498Y-80271680D01*
X200410879Y-79183668D01*
X207531881Y-78289217D01*
X214612923Y-77399783D01*
X221650511Y-76317886D01*
X228644656Y-75043525D01*
X235595371Y-73576696D01*
X242502666Y-71917396D01*
X249366553Y-70065624D01*
X256187044Y-68021377D01*
X262964149Y-65784651D01*
X263339289Y-65655099D01*
X263468842Y-66030224D01*
X263093703Y-66159778D01*
X262964880Y-65786767D01*
X263093701Y-66159780D01*
X263468842Y-66030224D01*
X263684769Y-66655448D01*
X263309627Y-66785003D01*
X263439183Y-67160141D01*
X256623818Y-69409504D01*
X249764757Y-71465313D01*
X242862010Y-73327564D01*
X235915590Y-74996257D01*
X228925509Y-76471391D01*
X221891777Y-77752965D01*
X214814407Y-78840978D01*
X207693410Y-79735428D01*
X200612365Y-80624864D01*
X193574768Y-81706761D01*
X189649966Y-82421876D01*
X199363941Y-82421876D01*
X201545973Y-82111584D01*
X203761999Y-81815898D01*
X205982241Y-81539039D01*
X208206701Y-81280993D01*
X215287745Y-80391558D01*
X222325340Y-79309661D01*
X229319497Y-78035299D01*
X236270224Y-76568469D01*
X243177534Y-74909168D01*
X250041434Y-73057395D01*
X256861936Y-71013145D01*
X263639049Y-68776415D01*
X264014188Y-68646862D01*
X264143741Y-69022001D01*
X264359655Y-69647225D01*
X263984515Y-69776760D01*
X264114082Y-70151957D01*
X257298719Y-72401307D01*
X250439662Y-74457106D01*
X243536919Y-76319350D01*
X236590499Y-77988039D01*
X229600411Y-79463170D01*
X222566663Y-80744743D01*
X215489266Y-81832755D01*
X210799069Y-82421876D01*
X222274805Y-82421876D01*
X227591891Y-81487440D01*
X232913778Y-80435541D01*
X238210365Y-79271462D01*
X243481655Y-77995198D01*
X248727654Y-76606743D01*
X253948366Y-75106089D01*
X259143796Y-73493232D01*
X264313947Y-71768164D01*
X264689074Y-71638650D01*
X264818628Y-72013830D01*
X265034554Y-72639040D01*
X265164107Y-73014086D01*
X264788968Y-73143733D01*
X264659416Y-72768556D01*
X264659415Y-72768556D01*
X264788968Y-73143733D01*
X260048312Y-74730314D01*
X255286460Y-76223080D01*
X250503415Y-77622025D01*
X245699182Y-78927145D01*
X240873766Y-80138434D01*
X236027171Y-81255889D01*
X231159403Y-82279504D01*
X227863352Y-82906342D01*
X227943220Y-82966866D01*
X228033397Y-83042054D01*
X228119935Y-83121302D01*
X228202690Y-83204464D01*
X228281516Y-83291395D01*
X228356268Y-83381951D01*
X228426800Y-83475985D01*
X228492967Y-83573352D01*
X228554625Y-83673907D01*
X228611627Y-83777505D01*
X228663827Y-83884001D01*
X228711082Y-83993248D01*
X228753245Y-84105103D01*
X228790172Y-84219419D01*
X228821716Y-84336052D01*
X228829166Y-84370074D01*
X233059760Y-83537163D01*
X237678652Y-82538832D01*
X242278340Y-81455313D01*
X246858828Y-80286606D01*
X251420118Y-79032714D01*
X255962213Y-77693638D01*
X260485118Y-76269379D01*
X264988834Y-74759940D01*
X265363973Y-74630427D01*
X265493527Y-75005606D01*
X265118388Y-75135120D01*
X265118388Y-75135121D01*
X265493527Y-75005606D01*
X265709440Y-75630816D01*
X265334312Y-75760327D01*
X265429240Y-76035233D01*
X265334314Y-75760331D01*
X265709440Y-75630816D01*
X265838993Y-76005864D01*
X265463867Y-76135510D01*
X260920235Y-77658176D01*
X256357129Y-79094634D01*
X251774554Y-80444883D01*
X247172509Y-81708924D01*
X242550999Y-82886756D01*
X237910025Y-83978379D01*
X233249589Y-84983793D01*
X232661418Y-85099319D01*
X232245690Y-85180975D01*
G37*
G36*
X156985349Y-113182330D02*
G01*
X156610174Y-113311980D01*
X156480657Y-112936801D01*
X156855711Y-112807284D01*
X156985349Y-113182330D01*
G37*
G36*
X274612615Y-114898951D02*
G01*
X274237436Y-115028464D01*
X274107921Y-114653418D01*
X274482969Y-114523772D01*
X274612615Y-114898951D01*
G37*
G36*
X268867982Y-89964354D02*
G01*
X269083883Y-90589694D01*
X269213396Y-90964739D01*
X268838349Y-91094256D01*
X262022973Y-93343650D01*
X255163900Y-95399481D01*
X248261140Y-97261749D01*
X241314707Y-98930453D01*
X234324614Y-100405594D01*
X227290873Y-101687172D01*
X220213496Y-102775186D01*
X213092496Y-103669638D01*
X206011451Y-104559029D01*
X198973854Y-105640893D01*
X191979696Y-106915232D01*
X185028967Y-108382048D01*
X178121660Y-110041342D01*
X171257764Y-111893116D01*
X164437270Y-113937371D01*
X157660169Y-116174109D01*
X157285123Y-116303752D01*
X157155477Y-115928576D01*
X157530660Y-115799059D01*
X157659763Y-116172934D01*
X157530657Y-115798996D01*
X157155477Y-115928576D01*
X156939580Y-115303366D01*
X156810071Y-114928187D01*
X157185110Y-114798674D01*
X164000514Y-112549318D01*
X170859601Y-110493507D01*
X177762363Y-108631246D01*
X184708790Y-106962543D01*
X191698874Y-105487402D01*
X198732603Y-104205832D01*
X205809971Y-103117837D01*
X212930967Y-102223425D01*
X220012010Y-101333990D01*
X227049603Y-100252092D01*
X234043756Y-98977729D01*
X240994479Y-97510897D01*
X247901783Y-95851594D01*
X254765679Y-93999815D01*
X261586177Y-91955559D01*
X268363289Y-89718821D01*
X268738470Y-89589304D01*
X268867982Y-89964354D01*
G37*
G36*
X158335126Y-119165884D02*
G01*
X158205545Y-118790771D01*
X157830427Y-118920351D01*
X157614538Y-118295142D01*
X157484884Y-117919962D01*
X157860067Y-117790446D01*
X157989564Y-118165591D01*
X157989650Y-118165562D01*
X157860067Y-117790446D01*
X164675431Y-115541091D01*
X171534500Y-113485281D01*
X178437259Y-111623021D01*
X185383694Y-109954317D01*
X192373792Y-108479177D01*
X199407538Y-107197606D01*
X206484919Y-106109610D01*
X213605920Y-105215197D01*
X220686962Y-104325764D01*
X227724549Y-103243867D01*
X234718695Y-101969504D01*
X241669412Y-100502672D01*
X248576712Y-98843368D01*
X255440609Y-96991590D01*
X262261115Y-94947333D01*
X269038242Y-92710597D01*
X269413289Y-92581084D01*
X269542934Y-92956130D01*
X269758834Y-93581469D01*
X269888348Y-93956519D01*
X269513169Y-94086035D01*
X262697818Y-96335428D01*
X255838768Y-98391258D01*
X248936031Y-100253525D01*
X241989618Y-101922229D01*
X234999542Y-103397369D01*
X227965814Y-104678947D01*
X220888446Y-105766962D01*
X213767450Y-106661414D01*
X206686405Y-107550804D01*
X199648808Y-108632668D01*
X192654650Y-109907008D01*
X185703923Y-111373824D01*
X178796616Y-113033118D01*
X171932720Y-114884892D01*
X165112227Y-116929147D01*
X161366008Y-118165562D01*
X158335126Y-119165884D01*
G37*
G36*
X158335126Y-119165884D02*
G01*
X157959943Y-119295531D01*
X157830427Y-118920351D01*
X158205480Y-118790839D01*
X158335126Y-119165884D01*
G37*
G36*
X275616842Y-119882113D02*
G01*
X275241796Y-120011626D01*
X275112148Y-119636580D01*
X275487327Y-119507067D01*
X275616842Y-119882113D01*
G37*
G36*
X159009946Y-122157656D02*
G01*
X158634893Y-122287310D01*
X158505254Y-121912127D01*
X158880430Y-121782610D01*
X159009542Y-122156487D01*
X158880430Y-121782547D01*
X158505254Y-121912127D01*
X158289350Y-121286913D01*
X158159833Y-120911738D01*
X158535024Y-120782221D01*
X158664505Y-121157344D01*
X158664533Y-121157335D01*
X158535024Y-120782221D01*
X165350380Y-118532866D01*
X172209432Y-116477055D01*
X179112168Y-114614796D01*
X186058578Y-112946093D01*
X193048652Y-111470954D01*
X200082377Y-110189384D01*
X207159743Y-109101389D01*
X214280740Y-108206976D01*
X221361784Y-107317542D01*
X228399379Y-106235645D01*
X235393535Y-104961282D01*
X242344261Y-103494450D01*
X249251566Y-101835146D01*
X256115462Y-99983367D01*
X262935957Y-97939110D01*
X269713062Y-95702372D01*
X270088240Y-95572856D01*
X270217755Y-95947901D01*
X270433654Y-96573115D01*
X270058542Y-96702694D01*
X270188121Y-97077807D01*
X263372749Y-99327201D01*
X256513677Y-101383033D01*
X249610918Y-103245301D01*
X242664484Y-104914005D01*
X235674389Y-106389146D01*
X228640646Y-107670723D01*
X221563267Y-108758736D01*
X214442266Y-109653185D01*
X207361227Y-110542577D01*
X200323645Y-111624442D01*
X193329505Y-112898782D01*
X186378794Y-114365598D01*
X179471496Y-116024892D01*
X172607598Y-117876665D01*
X165787086Y-119920920D01*
X162040844Y-121157335D01*
X159009946Y-122157656D01*
G37*
G36*
X160821193Y-124774405D02*
G01*
X159684896Y-125149432D01*
X159309713Y-125279086D01*
X159180204Y-124903903D01*
X159555347Y-124774405D01*
X159555318Y-124774321D01*
X159180204Y-124903903D01*
X158964307Y-124278697D01*
X158834791Y-123903513D01*
X159209836Y-123774004D01*
X159339340Y-124149142D01*
X159339417Y-124149115D01*
X159209836Y-123774004D01*
X166025201Y-121524646D01*
X172884270Y-119468833D01*
X179787029Y-117606572D01*
X186733465Y-115937868D01*
X193723563Y-114462728D01*
X200757309Y-113181158D01*
X207834690Y-112093164D01*
X214955690Y-111198752D01*
X222036732Y-110309317D01*
X229074321Y-109227420D01*
X236068469Y-107953057D01*
X243019187Y-106486225D01*
X249926489Y-104826921D01*
X256790386Y-102975143D01*
X263610890Y-100930886D01*
X270388013Y-98694148D01*
X270763060Y-98564631D01*
X270892706Y-98939681D01*
X271108607Y-99564890D01*
X270733435Y-99694490D01*
X270733448Y-99694529D01*
X271108607Y-99564890D01*
X271238120Y-99940070D01*
X270862941Y-100069582D01*
X264047598Y-102318977D01*
X257188551Y-104374808D01*
X250285814Y-106237076D01*
X243339400Y-107905781D01*
X236349320Y-109380922D01*
X229315588Y-110662500D01*
X222238217Y-111750514D01*
X215117219Y-112644965D01*
X208036174Y-113534356D01*
X200998577Y-114616221D01*
X194004420Y-115890560D01*
X187053692Y-117357376D01*
X180146385Y-119016669D01*
X173282490Y-120868442D01*
X166461997Y-122912695D01*
X162715760Y-124149115D01*
X160821193Y-124774405D01*
G37*
G36*
X271783426Y-102556670D02*
G01*
X271408313Y-102686247D01*
X271537893Y-103061362D01*
X264722530Y-105310756D01*
X257863473Y-107366586D01*
X250960730Y-109228853D01*
X244014310Y-110897557D01*
X237024222Y-112372697D01*
X229990475Y-113654274D01*
X222913078Y-114742289D01*
X215792039Y-115636740D01*
X208711000Y-116526131D01*
X201673417Y-117607995D01*
X194679276Y-118882334D01*
X187728562Y-120349150D01*
X180821263Y-122008443D01*
X173957365Y-123860217D01*
X167136854Y-125904471D01*
X163390599Y-127140890D01*
X160359716Y-128141207D01*
X160230211Y-127766120D01*
X159855154Y-127895678D01*
X159639120Y-127270472D01*
X159509611Y-126895289D01*
X159884786Y-126765772D01*
X160014282Y-127140896D01*
X160014300Y-127140890D01*
X159884786Y-126765772D01*
X166700145Y-124516418D01*
X173559199Y-122460607D01*
X180461937Y-120598347D01*
X187408349Y-118929644D01*
X194398423Y-117454504D01*
X201432150Y-116172934D01*
X208509517Y-115084940D01*
X215630514Y-114190527D01*
X222711558Y-113301093D01*
X229749154Y-112219196D01*
X236743311Y-110944833D01*
X243694038Y-109478001D01*
X250601344Y-107818697D01*
X257465239Y-105966918D01*
X264285733Y-103922661D01*
X271062833Y-101685923D01*
X271192413Y-102061037D01*
X271192452Y-102061024D01*
X271062833Y-101685923D01*
X271438013Y-101556410D01*
X271567525Y-101931456D01*
X271612268Y-102061024D01*
X271783426Y-102556670D01*
G37*
G36*
X160359716Y-128141207D02*
G01*
X159984670Y-128270861D01*
X159855154Y-127895678D01*
X160230199Y-127766169D01*
X160359716Y-128141207D01*
G37*
G36*
X160689123Y-130132601D02*
G01*
X160314077Y-130262240D01*
X160184568Y-129887064D01*
X160559606Y-129757548D01*
X160689123Y-130132601D01*
G37*
G36*
X161034666Y-131132990D02*
G01*
X160659490Y-131262637D01*
X160529973Y-130887454D01*
X160905116Y-130757958D01*
X160905088Y-130757876D01*
X160529973Y-130887454D01*
X160314077Y-130262240D01*
X160689191Y-130132661D01*
X160559606Y-129757548D01*
X167374971Y-127508193D01*
X174234040Y-125452383D01*
X181136799Y-123590124D01*
X188083235Y-121921422D01*
X195073334Y-120446282D01*
X202107081Y-119164713D01*
X209184462Y-118076719D01*
X216305463Y-117182307D01*
X223386505Y-116292871D01*
X230424093Y-115210973D01*
X237418241Y-113936610D01*
X244368959Y-112469778D01*
X251276261Y-110810474D01*
X258140157Y-108958695D01*
X264960662Y-106914438D01*
X271737785Y-104677699D01*
X272112833Y-104548186D01*
X272242477Y-104923232D01*
X272458377Y-105548441D01*
X272083205Y-105678042D01*
X272083219Y-105678084D01*
X272458377Y-105548441D01*
X272587892Y-105923621D01*
X272212713Y-106053137D01*
X265397369Y-108302532D01*
X258538322Y-110358363D01*
X251635585Y-112220630D01*
X244689170Y-113889334D01*
X237699091Y-115364474D01*
X230665360Y-116646051D01*
X223587990Y-117734065D01*
X216466993Y-118628516D01*
X209385947Y-119517906D01*
X202348350Y-120599770D01*
X195354192Y-121874110D01*
X188403464Y-123340926D01*
X181496156Y-125000221D01*
X174632260Y-126851995D01*
X167811766Y-128896251D01*
X162170976Y-130757958D01*
X161034666Y-131132990D01*
G37*
G36*
X273133197Y-108540217D02*
G01*
X272758085Y-108669798D01*
X272887664Y-109044909D01*
X266072303Y-111294304D01*
X259213247Y-113350135D01*
X252310504Y-115212403D01*
X245364084Y-116881108D01*
X238373996Y-118356249D01*
X231340247Y-119637828D01*
X224262849Y-120725843D01*
X217141809Y-121620295D01*
X210060770Y-122509684D01*
X203023187Y-123591548D01*
X196029045Y-124865886D01*
X189078332Y-126332702D01*
X182171033Y-127991997D01*
X175307135Y-129843771D01*
X168486623Y-131888027D01*
X164740395Y-133124439D01*
X161709485Y-134124766D01*
X161334440Y-134254412D01*
X161204923Y-133879229D01*
X161579977Y-133749713D01*
X161709054Y-134123516D01*
X161579980Y-133749671D01*
X161204923Y-133879229D01*
X160988897Y-133254015D01*
X161364073Y-133124439D01*
X161364053Y-133124383D01*
X160988897Y-133254015D01*
X160859380Y-132878840D01*
X161234556Y-132749323D01*
X168049915Y-130499969D01*
X174908969Y-128444159D01*
X181811708Y-126581899D01*
X188758120Y-124913197D01*
X195748195Y-123438057D01*
X202781921Y-122156487D01*
X209859287Y-121068492D01*
X216980283Y-120174078D01*
X224061328Y-119284644D01*
X231098924Y-118202747D01*
X238093081Y-116928383D01*
X245043809Y-115461552D01*
X251951116Y-113802248D01*
X258815012Y-111950469D01*
X265635505Y-109906212D01*
X272412607Y-107669474D01*
X272542186Y-108044588D01*
X272542224Y-108044575D01*
X272412607Y-107669474D01*
X272787784Y-107539961D01*
X272917297Y-107915011D01*
X272962039Y-108044575D01*
X273133197Y-108540217D01*
G37*
G36*
X163520778Y-136741501D02*
G01*
X162384443Y-137116541D01*
X162009260Y-137246180D01*
X161879751Y-136871005D01*
X162254887Y-136741501D01*
X162254861Y-136741427D01*
X161879751Y-136871005D01*
X161663854Y-136245791D01*
X162038960Y-136116215D01*
X162038948Y-136116180D01*
X161663854Y-136245791D01*
X161534337Y-135870615D01*
X161909383Y-135741107D01*
X168724748Y-133491749D01*
X175583816Y-131435937D01*
X182486574Y-129573677D01*
X189433009Y-127904974D01*
X196423107Y-126429834D01*
X203456853Y-125148264D01*
X210534234Y-124060270D01*
X217655237Y-123165858D01*
X224736279Y-122276423D01*
X231773869Y-121194525D01*
X238768019Y-119920162D01*
X245718740Y-118453330D01*
X252626042Y-116794026D01*
X259489938Y-114942247D01*
X266310439Y-112897990D01*
X273087556Y-110661253D01*
X273462604Y-110531737D01*
X273592250Y-110906783D01*
X273808151Y-111531996D01*
X273433037Y-111661574D01*
X273433050Y-111661612D01*
X273808151Y-111531996D01*
X273937664Y-111907176D01*
X273562616Y-112036685D01*
X266747233Y-114286080D01*
X259888156Y-116341912D01*
X252985396Y-118204180D01*
X246038965Y-119872885D01*
X239048875Y-121348026D01*
X232015138Y-122629604D01*
X224937764Y-123717619D01*
X217816766Y-124612071D01*
X210735721Y-125501460D01*
X203698124Y-126583324D01*
X196703967Y-127857664D01*
X189753239Y-129324481D01*
X182845932Y-130983775D01*
X175982037Y-132835550D01*
X169161543Y-134879805D01*
X165415337Y-136116215D01*
X163520778Y-136741501D01*
G37*
G36*
X274482969Y-114523772D02*
G01*
X274107856Y-114653349D01*
X274237436Y-115028464D01*
X267422075Y-117277820D01*
X260563019Y-119333633D01*
X253660276Y-121195898D01*
X246713856Y-122864611D01*
X239723768Y-124339766D01*
X232690020Y-125621361D01*
X225612622Y-126709389D01*
X218491582Y-127603846D01*
X211410544Y-128493236D01*
X204372961Y-129575100D01*
X197378820Y-130849439D01*
X190428107Y-132316256D01*
X183520809Y-133975551D01*
X176656911Y-135827325D01*
X169836401Y-137871580D01*
X166090167Y-139107993D01*
X163059263Y-140108317D01*
X162684209Y-140237826D01*
X162554700Y-139862780D01*
X162338666Y-139237574D01*
X162713846Y-139107993D01*
X162713823Y-139107927D01*
X162338666Y-139237574D01*
X162209150Y-138862399D01*
X162584333Y-138732882D01*
X169399692Y-136483527D01*
X176258745Y-134427716D01*
X183161483Y-132565456D01*
X190107894Y-130896752D01*
X197097967Y-129421611D01*
X204131692Y-128140040D01*
X211209057Y-127052046D01*
X218330053Y-126157633D01*
X225411098Y-125268199D01*
X232448695Y-124186301D01*
X239442853Y-122911938D01*
X246393580Y-121445106D01*
X253300887Y-119785802D01*
X260164782Y-117934022D01*
X266985276Y-115889765D01*
X273762376Y-113653025D01*
X273891956Y-114028140D01*
X273891996Y-114028126D01*
X273762376Y-113653025D01*
X274137558Y-113523512D01*
X274267068Y-113898558D01*
X274311811Y-114028126D01*
X274482969Y-114523772D01*
G37*
G36*
X163734212Y-143100092D02*
G01*
X163359037Y-143229601D01*
X163229520Y-142854563D01*
X163013616Y-142229350D01*
X163388732Y-142099772D01*
X163388715Y-142099725D01*
X163013616Y-142229350D01*
X162884107Y-141854174D01*
X163259153Y-141724658D01*
X170074517Y-139475261D01*
X176933586Y-137419429D01*
X183836345Y-135557161D01*
X190782780Y-133888457D01*
X197772878Y-132413317D01*
X204806624Y-131131741D01*
X211884005Y-130043728D01*
X219005006Y-129149279D01*
X226086049Y-128259887D01*
X233123640Y-127178022D01*
X240117791Y-125903682D01*
X247068512Y-124436865D01*
X253975815Y-122777570D01*
X260839711Y-120925796D01*
X267660212Y-118881540D01*
X274437330Y-116644801D01*
X274812377Y-116515158D01*
X274942022Y-116890337D01*
X274566843Y-117019850D01*
X274437762Y-116646051D01*
X274566843Y-117019915D01*
X274942022Y-116890337D01*
X275157922Y-117515544D01*
X274782809Y-117645125D01*
X274782823Y-117645166D01*
X275157922Y-117515544D01*
X275287435Y-117890723D01*
X274912389Y-118020239D01*
X268097006Y-120269595D01*
X261237928Y-122325406D01*
X254335168Y-124187666D01*
X247388736Y-125856369D01*
X240398646Y-127331509D01*
X233364907Y-128613078D01*
X226287532Y-129701072D01*
X219166532Y-130595484D01*
X212085488Y-131484919D01*
X205047892Y-132566816D01*
X198053735Y-133841179D01*
X191103008Y-135308011D01*
X184195702Y-136967316D01*
X177331806Y-138819095D01*
X170511313Y-140863353D01*
X166765086Y-142099772D01*
X163734212Y-143100092D01*
G37*
G36*
X164409162Y-146091860D02*
G01*
X164279584Y-145716754D01*
X164279551Y-145716765D01*
X164409162Y-146091860D01*
X164033986Y-146221377D01*
X163904470Y-145846339D01*
X163688573Y-145221125D01*
X164063623Y-145091569D01*
X164063595Y-145091487D01*
X163688573Y-145221125D01*
X163558927Y-144845942D01*
X163934102Y-144716433D01*
X170749462Y-142467036D01*
X177608517Y-140411204D01*
X184511261Y-138548936D01*
X191457682Y-136880232D01*
X198447771Y-135405092D01*
X205481521Y-134123516D01*
X212558920Y-133035504D01*
X219679960Y-132141055D01*
X226760999Y-131251661D01*
X233798582Y-130169794D01*
X240792719Y-128895454D01*
X247743424Y-127428638D01*
X254650707Y-125769345D01*
X261514581Y-123917572D01*
X268335057Y-121873318D01*
X275112148Y-119636580D01*
X275241727Y-120011691D01*
X275616842Y-119882113D01*
X275832874Y-120507323D01*
X275457695Y-120636902D01*
X275457715Y-120636958D01*
X275832874Y-120507323D01*
X275962387Y-120882502D01*
X275587207Y-121012011D01*
X268771853Y-123261369D01*
X261912799Y-125317183D01*
X255010057Y-127179450D01*
X248063636Y-128848164D01*
X241073545Y-130323321D01*
X234039795Y-131604915D01*
X226962395Y-132692942D01*
X219841356Y-133587397D01*
X212760316Y-134476786D01*
X205722734Y-135558650D01*
X198728597Y-136832988D01*
X191777894Y-138299803D01*
X184870611Y-139959097D01*
X178006736Y-141810870D01*
X171186257Y-143855124D01*
X167439949Y-145091569D01*
X164409162Y-146091860D01*
G37*
G36*
X165083982Y-149083643D02*
G01*
X164708807Y-149213160D01*
X164579290Y-148838114D01*
X164363386Y-148212901D01*
X164738502Y-148083318D01*
X164738490Y-148083282D01*
X164363386Y-148212901D01*
X164233877Y-147837718D01*
X164608923Y-147708209D01*
X171424287Y-145458814D01*
X178283356Y-143402983D01*
X185186115Y-141540715D01*
X192132550Y-139872011D01*
X199122648Y-138396870D01*
X206156395Y-137115293D01*
X213233777Y-136027280D01*
X220354780Y-135132830D01*
X227435823Y-134243436D01*
X234473415Y-133161570D01*
X241467567Y-131887230D01*
X248418290Y-130420413D01*
X255325594Y-128761119D01*
X262189490Y-126909346D01*
X269009989Y-124865090D01*
X275787101Y-122628352D01*
X276162281Y-122498705D01*
X276291793Y-122873889D01*
X275916653Y-123003385D01*
X275916682Y-123003470D01*
X276291793Y-122873889D01*
X276507694Y-123499102D01*
X276637207Y-123874278D01*
X276262161Y-124003794D01*
X269446781Y-126253149D01*
X262587705Y-128308959D01*
X255684945Y-130171219D01*
X248738513Y-131839922D01*
X241748421Y-133315062D01*
X234714681Y-134596633D01*
X227637305Y-135684628D01*
X220516305Y-136579043D01*
X213435261Y-137468477D01*
X206397665Y-138550374D01*
X199403507Y-139824736D01*
X192452780Y-141291566D01*
X185545472Y-142950869D01*
X178681577Y-144802648D01*
X171861083Y-146846905D01*
X168114869Y-148083318D01*
X165083982Y-149083643D01*
G37*
G36*
X165413389Y-151075030D02*
G01*
X165038351Y-151204676D01*
X164908697Y-150829493D01*
X165283872Y-150699984D01*
X165413389Y-151075030D01*
G37*
G36*
X276966613Y-125865664D02*
G01*
X276591566Y-125995173D01*
X276462476Y-125621361D01*
X276591560Y-125995225D01*
X276966613Y-125865664D01*
X277182645Y-126490870D01*
X277312160Y-126866053D01*
X276936981Y-126995570D01*
X276807486Y-126620445D01*
X276807465Y-126620452D01*
X276936981Y-126995570D01*
X270121629Y-129244924D01*
X263262579Y-131300734D01*
X256359842Y-133162994D01*
X249413429Y-134831697D01*
X242423353Y-136306837D01*
X235389625Y-137588408D01*
X228312256Y-138676404D01*
X221191259Y-139570818D01*
X214110175Y-140460253D01*
X207072560Y-141542149D01*
X200078399Y-142816511D01*
X193127680Y-144283342D01*
X186220387Y-145942645D01*
X179356507Y-147794423D01*
X172536027Y-149838680D01*
X165758932Y-152075419D01*
X165629354Y-151700305D01*
X165629318Y-151700317D01*
X165758932Y-152075419D01*
X165383756Y-152204936D01*
X165254240Y-151829882D01*
X165038351Y-151204676D01*
X165413458Y-151075096D01*
X165283872Y-150699984D01*
X172099231Y-148450590D01*
X178958287Y-146394758D01*
X185861031Y-144532491D01*
X192807453Y-142863786D01*
X199797543Y-141388646D01*
X206831292Y-140107068D01*
X213908691Y-139019055D01*
X221029729Y-138124606D01*
X228110771Y-137235214D01*
X235148359Y-136153349D01*
X242142505Y-134879009D01*
X249093222Y-133412193D01*
X256000523Y-131752899D01*
X262864420Y-129901126D01*
X269684926Y-127856871D01*
X276462053Y-125620135D01*
X276837099Y-125490481D01*
X276966613Y-125865664D01*
G37*
%LPC*%
D12*
X202000000Y-87000000D03*
X238000000Y-87000000D03*
X238000000Y-112000000D03*
X176000000Y-112000000D03*
D13*
X200000000Y-78540000D03*
D14*
X200000000Y-76000000D03*
X200000000Y-73460000D03*
X200000000Y-70920000D03*
D15*
X222250000Y-97790000D03*
X228600000Y-95250000D03*
D16*
X231140000Y-100330000D03*
D17*
X226060000Y-100330000D03*
D16*
X220980000Y-100330000D03*
D15*
X203200000Y-97790000D03*
X209550000Y-95250000D03*
D16*
X212090000Y-100330000D03*
D17*
X207010000Y-100330000D03*
D16*
X201930000Y-100330000D03*
X182880000Y-100330000D03*
D17*
X187960000Y-100330000D03*
D16*
X193040000Y-100330000D03*
D15*
X190500000Y-95250000D03*
X184150000Y-97790000D03*
D18*
X172765000Y-72240000D03*
X175305000Y-72240000D03*
X177845000Y-72240000D03*
X180385000Y-72240000D03*
X182925000Y-72240000D03*
D19*
X185465000Y-72240000D03*
X188005000Y-72240000D03*
X190545000Y-72240000D03*
X193085000Y-72240000D03*
D20*
X193895000Y-75380000D03*
D21*
X193895000Y-77920000D03*
X193895000Y-80460000D03*
X193895000Y-83000000D03*
X193895000Y-85540000D03*
D19*
X193085000Y-88680000D03*
X190545000Y-88680000D03*
X188005000Y-88680000D03*
X185465000Y-88680000D03*
X172765000Y-88680000D03*
X175305000Y-88680000D03*
X177845000Y-88680000D03*
X182925000Y-88680000D03*
X180385000Y-88680000D03*
%LPD*%
M02*
