<?xml version="1.0" standalone="no"?>
 <!DOCTYPE svg PUBLIC "-//W3C//DTD SVG 1.1//EN" 
 "http://www.w3.org/Graphics/SVG/1.1/DTD/svg11.dtd"> 
<svg
  xmlns:svg="http://www.w3.org/2000/svg"
  xmlns="http://www.w3.org/2000/svg"
  xmlns:xlink="http://www.w3.org/1999/xlink"
  version="1.1"
  width="169.0370mm" height="67.0306mm" viewBox="0.0000 0.0000 169.0370 67.0306">
<title>SVG Image created as macropad-Edge_Cuts.svg date 2025/05/21 23:16:17 </title>
  <desc>Image generated by PCBNEW </desc>
<g style="fill:#000000; fill-opacity:1.0000;stroke:#000000; stroke-opacity:1.0000;
stroke-linecap:round; stroke-linejoin:round;"
 transform="translate(0 0) scale(1 1)">
</g>
<g style="fill:none; 
stroke:#000000; stroke-width:0.0500; stroke-opacity:1; 
stroke-linecap:round; stroke-linejoin:round;">
<path d="M0.0250 65.5250 A1.5000 1.5000 0.0 0 0 1.5250 67.0250" />
<path d="M1.5250 67.0250
L167.5250 67.0250
" />
<path d="M167.5250 67.0250 A1.5000 1.5000 0.0 0 0 169.0250 65.5250" />
<path d="M169.0250 1.5250 A1.5000 1.5000 0.0 0 0 167.5250 0.0250" />
<path d="M2.0250 0.0250
L167.5250 0.0250
" />
<path d="M2.0250 0.0250 A2.0000 2.0000 0.0 0 0 0.0250 2.0250" />
<path d="M169.0250 65.5250
L169.0250 1.5250
" />
<path d="M0.0250 2.0250
L0.0250 65.5250
" />
<path d="M0.0250 65.5250 A1.5000 1.5000 0.0 0 0 1.5250 67.0250" />
<path d="M1.5250 67.0250
L167.5250 67.0250
" />
<path d="M167.5250 67.0250 A1.5000 1.5000 0.0 0 0 169.0250 65.5250" />
<path d="M169.0250 1.5250 A1.5000 1.5000 0.0 0 0 167.5250 0.0250" />
<path d="M2.0250 0.0250
L167.5250 0.0250
" />
<path d="M2.0250 0.0250 A2.0000 2.0000 0.0 0 0 0.0250 2.0250" />
<path d="M169.0250 65.5250
L169.0250 1.5250
" />
<path d="M0.0250 2.0250
L0.0250 65.5250
" />
</g> 
</svg>
