G04 #@! TF.GenerationSoftware,KiCad,Pcbnew,8.0.8-8.0.8-0~ubuntu22.04.1*
G04 #@! TF.CreationDate,2025-02-26T16:06:35+08:00*
G04 #@! TF.ProjectId,macropad,6d616372-6f70-4616-942e-6b696361645f,rev?*
G04 #@! TF.SameCoordinates,Original*
G04 #@! TF.FileFunction,Soldermask,Top*
G04 #@! TF.FilePolarity,Negative*
%FSLAX46Y46*%
G04 Gerber Fmt 4.6, Leading zero omitted, Abs format (unit mm)*
G04 Created by KiCad (PCBNEW 8.0.8-8.0.8-0~ubuntu22.04.1) date 2025-02-26 16:06:35*
%MOMM*%
%LPD*%
G01*
G04 APERTURE LIST*
G04 Aperture macros list*
%AMRoundRect*
0 Rectangle with rounded corners*
0 $1 Rounding radius*
0 $2 $3 $4 $5 $6 $7 $8 $9 X,Y pos of 4 corners*
0 Add a 4 corners polygon primitive as box body*
4,1,4,$2,$3,$4,$5,$6,$7,$8,$9,$2,$3,0*
0 Add four circle primitives for the rounded corners*
1,1,$1+$1,$2,$3*
1,1,$1+$1,$4,$5*
1,1,$1+$1,$6,$7*
1,1,$1+$1,$8,$9*
0 Add four rect primitives between the rounded corners*
20,1,$1+$1,$2,$3,$4,$5,0*
20,1,$1+$1,$4,$5,$6,$7,0*
20,1,$1+$1,$6,$7,$8,$9,0*
20,1,$1+$1,$8,$9,$2,$3,0*%
G04 Aperture macros list end*
%ADD10C,0.000000*%
%ADD11C,5.300000*%
%ADD12R,2.030000X1.730000*%
%ADD13O,2.030000X1.730000*%
%ADD14C,2.200000*%
%ADD15C,1.700000*%
%ADD16C,4.000000*%
%ADD17RoundRect,0.400000X0.400000X-0.900000X0.400000X0.900000X-0.400000X0.900000X-0.400000X-0.900000X0*%
%ADD18RoundRect,0.400050X0.400050X-0.899950X0.400050X0.899950X-0.400050X0.899950X-0.400050X-0.899950X0*%
%ADD19RoundRect,0.400000X0.900000X-0.400000X0.900000X0.400000X-0.900000X0.400000X-0.900000X-0.400000X0*%
%ADD20RoundRect,0.393700X0.906300X-0.393700X0.906300X0.393700X-0.906300X0.393700X-0.906300X-0.393700X0*%
G04 APERTURE END LIST*
D10*
G36*
X206663320Y-111652636D02*
G01*
X206686265Y-111653483D01*
X206709161Y-111654893D01*
X206731999Y-111656863D01*
X206754768Y-111659391D01*
X206777457Y-111662476D01*
X206800058Y-111666114D01*
X206822559Y-111670306D01*
X206844951Y-111675047D01*
X206867223Y-111680337D01*
X206889366Y-111686172D01*
X206911368Y-111692552D01*
X206933220Y-111699474D01*
X206954912Y-111706936D01*
X206976433Y-111714937D01*
X206997773Y-111723473D01*
X207018897Y-111732532D01*
X207039770Y-111742098D01*
X207060382Y-111752165D01*
X207080726Y-111762726D01*
X207100793Y-111773778D01*
X207120574Y-111785313D01*
X207140060Y-111797326D01*
X207159243Y-111809811D01*
X207178114Y-111822763D01*
X207196665Y-111836175D01*
X207214887Y-111850042D01*
X207232771Y-111864358D01*
X207250309Y-111879118D01*
X207267492Y-111894315D01*
X207284311Y-111909945D01*
X207300758Y-111926000D01*
X207316814Y-111942447D01*
X207332443Y-111959267D01*
X207347641Y-111976450D01*
X207362401Y-111993988D01*
X207376717Y-112011873D01*
X207390585Y-112030094D01*
X207403997Y-112048645D01*
X207416948Y-112067517D01*
X207429434Y-112086700D01*
X207441447Y-112106186D01*
X207452982Y-112125967D01*
X207464033Y-112146034D01*
X207474595Y-112166378D01*
X207484662Y-112186991D01*
X207494227Y-112207864D01*
X207503286Y-112228989D01*
X207511823Y-112250329D01*
X207519823Y-112271851D01*
X207527285Y-112293542D01*
X207534207Y-112315394D01*
X207540587Y-112337396D01*
X207546423Y-112359539D01*
X207551712Y-112381810D01*
X207556453Y-112404202D01*
X207560645Y-112426703D01*
X207564283Y-112449303D01*
X207567368Y-112471993D01*
X207569896Y-112494761D01*
X207571866Y-112517598D01*
X207573276Y-112540494D01*
X207574123Y-112563438D01*
X207574406Y-112586420D01*
X207574123Y-112609403D01*
X207573276Y-112632348D01*
X207571866Y-112655244D01*
X207569896Y-112678082D01*
X207567368Y-112700851D01*
X207564283Y-112723540D01*
X207560645Y-112746141D01*
X207556453Y-112768642D01*
X207551712Y-112791034D01*
X207546423Y-112813306D01*
X207540587Y-112835449D01*
X207534207Y-112857451D01*
X207527285Y-112879303D01*
X207519823Y-112900994D01*
X207511823Y-112922516D01*
X207503286Y-112943856D01*
X207494227Y-112964980D01*
X207484662Y-112985853D01*
X207474595Y-113006465D01*
X207464033Y-113026809D01*
X207452982Y-113046876D01*
X207441447Y-113066657D01*
X207429434Y-113086143D01*
X207416948Y-113105326D01*
X207403997Y-113124197D01*
X207390585Y-113142748D01*
X207376717Y-113160970D01*
X207362401Y-113178854D01*
X207347641Y-113196392D01*
X207332443Y-113213575D01*
X207316814Y-113230394D01*
X207300758Y-113246841D01*
X205799957Y-114747648D01*
X204299151Y-113246841D01*
X204267214Y-113213281D01*
X204237108Y-113178335D01*
X204208864Y-113142080D01*
X204182514Y-113104591D01*
X204158090Y-113065946D01*
X204135624Y-113026221D01*
X204115146Y-112985493D01*
X204096690Y-112943838D01*
X204080286Y-112901333D01*
X204065966Y-112858054D01*
X204053763Y-112814078D01*
X204043707Y-112769482D01*
X204035831Y-112724341D01*
X204030165Y-112678733D01*
X204026743Y-112632733D01*
X204025595Y-112586420D01*
X204026743Y-112540107D01*
X204030165Y-112494109D01*
X204035831Y-112448501D01*
X204043707Y-112403361D01*
X204053763Y-112358764D01*
X204065966Y-112314788D01*
X204080286Y-112271510D01*
X204096690Y-112229004D01*
X204115146Y-112187349D01*
X204135624Y-112146621D01*
X204158090Y-112106896D01*
X204182514Y-112068251D01*
X204208864Y-112030762D01*
X204237108Y-111994506D01*
X204267214Y-111959560D01*
X204299151Y-111926000D01*
X204332711Y-111894063D01*
X204367657Y-111863957D01*
X204403913Y-111835713D01*
X204441402Y-111809363D01*
X204480047Y-111784939D01*
X204519772Y-111762472D01*
X204560500Y-111741995D01*
X204602156Y-111723539D01*
X204644661Y-111707135D01*
X204687940Y-111692815D01*
X204731916Y-111680612D01*
X204776512Y-111670556D01*
X204821653Y-111662679D01*
X204867260Y-111657014D01*
X204913259Y-111653592D01*
X204959571Y-111652444D01*
X205005885Y-111653592D01*
X205051884Y-111657014D01*
X205097492Y-111662679D01*
X205142633Y-111670556D01*
X205187230Y-111680612D01*
X205231206Y-111692815D01*
X205274485Y-111707135D01*
X205316990Y-111723539D01*
X205358645Y-111741995D01*
X205399373Y-111762472D01*
X205439098Y-111784939D01*
X205477743Y-111809363D01*
X205515231Y-111835713D01*
X205551487Y-111863957D01*
X205586433Y-111894063D01*
X205619993Y-111926000D01*
X205799957Y-112105960D01*
X205979916Y-111926000D01*
X205996364Y-111909945D01*
X206013184Y-111894315D01*
X206030367Y-111879118D01*
X206047905Y-111864358D01*
X206065789Y-111850042D01*
X206084011Y-111836175D01*
X206102562Y-111822763D01*
X206121433Y-111809811D01*
X206140616Y-111797326D01*
X206160102Y-111785313D01*
X206179882Y-111773778D01*
X206199949Y-111762726D01*
X206220292Y-111752165D01*
X206240904Y-111742098D01*
X206261777Y-111732532D01*
X206282901Y-111723473D01*
X206304242Y-111714937D01*
X206325764Y-111706936D01*
X206347456Y-111699474D01*
X206369309Y-111692552D01*
X206391312Y-111686172D01*
X206413454Y-111680337D01*
X206435727Y-111675047D01*
X206458118Y-111670306D01*
X206480620Y-111666114D01*
X206503220Y-111662476D01*
X206525910Y-111659391D01*
X206548678Y-111656863D01*
X206571515Y-111654893D01*
X206594411Y-111653483D01*
X206617355Y-111652636D01*
X206640337Y-111652353D01*
X206663320Y-111652636D01*
G37*
D11*
X202000000Y-87000000D03*
X238000000Y-87000000D03*
X238000000Y-112000000D03*
X176000000Y-112000000D03*
D12*
X200000000Y-78540000D03*
D13*
X200000000Y-76000000D03*
X200000000Y-73460000D03*
X200000000Y-70920000D03*
D14*
X222250000Y-97790000D03*
X228600000Y-95250000D03*
D15*
X231140000Y-100330000D03*
D16*
X226060000Y-100330000D03*
D15*
X220980000Y-100330000D03*
D14*
X203200000Y-97790000D03*
X209550000Y-95250000D03*
D15*
X212090000Y-100330000D03*
D16*
X207010000Y-100330000D03*
D15*
X201930000Y-100330000D03*
X182880000Y-100330000D03*
D16*
X187960000Y-100330000D03*
D15*
X193040000Y-100330000D03*
D14*
X190500000Y-95250000D03*
X184150000Y-97790000D03*
D17*
X172765000Y-72240000D03*
X175305000Y-72240000D03*
X177845000Y-72240000D03*
X180385000Y-72240000D03*
X182925000Y-72240000D03*
D18*
X185465000Y-72240000D03*
X188005000Y-72240000D03*
X190545000Y-72240000D03*
X193085000Y-72240000D03*
D19*
X193895000Y-75380000D03*
D20*
X193895000Y-77920000D03*
X193895000Y-80460000D03*
X193895000Y-83000000D03*
X193895000Y-85540000D03*
D18*
X193085000Y-88680000D03*
X190545000Y-88680000D03*
X188005000Y-88680000D03*
X185465000Y-88680000D03*
X172765000Y-88680000D03*
X175305000Y-88680000D03*
X177845000Y-88680000D03*
X182925000Y-88680000D03*
X180385000Y-88680000D03*
M02*
