M48
; DRILL file {KiCad 8.0.9-8.0.9-0~ubuntu22.04.1} date 2025-05-05T00:52:08+0800
; FORMAT={-:-/ absolute / inch / decimal}
; #@! TF.CreationDate,2025-05-05T00:52:08+08:00
; #@! TF.GenerationSoftware,Kicad,Pcbnew,8.0.9-8.0.9-0~ubuntu22.04.1
; #@! TF.FileFunction,NonPlated,1,2,NPTH
FMAT,2
INCH
; #@! TA.AperFunction,NonPlated,NPTH,ComponentDrill
T1C0.0256
; #@! TA.AperFunction,NonPlated,NPTH,ComponentDrill
T2C0.0669
; #@! TA.AperFunction,NonPlated,NPTH,ComponentDrill
T3C0.1575
; #@! TA.AperFunction,NonPlated,NPTH,ComponentDrill
T4C0.2087
%
G90
G05
T1
X3.1197Y-3.0506
X3.1197Y-3.2781
T2
X3.0Y-3.75
X3.0Y-4.4969
X3.0Y-5.25
X3.0Y-6.0
X3.4Y-3.75
X3.4Y-4.4969
X3.4Y-5.25
X3.4Y-6.0
X3.75Y-3.75
X3.75Y-4.4969
X3.75Y-5.25
X3.75Y-6.0
X4.15Y-3.75
X4.15Y-4.4969
X4.15Y-5.25
X4.15Y-6.0
X4.5Y-3.75
X4.5Y-4.4969
X4.5Y-5.25
X4.5Y-6.0
X4.9Y-3.75
X4.9Y-4.4969
X4.9Y-5.25
X4.9Y-6.0
X5.25Y-3.75
X5.25Y-4.4969
X5.25Y-5.25
X5.25Y-6.0
X5.65Y-3.75
X5.65Y-4.4969
X5.65Y-5.25
X5.65Y-6.0
X6.0Y-3.75
X6.0Y-4.4969
X6.0Y-5.25
X6.0Y-6.0
X6.4Y-3.75
X6.4Y-4.4969
X6.4Y-5.25
X6.4Y-6.0
X6.75Y-3.75
X6.75Y-4.4969
X6.75Y-5.25
X6.75Y-6.0
X7.15Y-3.75
X7.15Y-4.4969
X7.15Y-5.25
X7.15Y-6.0
X7.5Y-3.75
X7.5Y-4.4969
X7.5Y-5.25
X7.5Y-6.0
X7.9Y-3.75
X7.9Y-4.4969
X7.9Y-5.25
X7.9Y-6.0
X8.25Y-3.75
X8.25Y-4.4969
X8.25Y-5.25
X8.25Y-6.0
X8.65Y-3.75
X8.65Y-4.4969
X8.65Y-5.25
X8.65Y-6.0
X9.0Y-3.75
X9.0Y-4.4969
X9.0Y-5.25
X9.0Y-6.0
X9.4Y-3.75
X9.4Y-4.4969
X9.4Y-5.25
X9.4Y-6.0
X9.75Y-3.75
X9.75Y-4.4969
X9.75Y-5.25
X9.75Y-6.0
X10.15Y-3.75
X10.15Y-4.4969
X10.15Y-5.25
X10.15Y-6.0
T3
X3.2Y-3.75
X3.2Y-4.4969
X3.2Y-5.25
X3.2Y-6.0
X3.95Y-3.75
X3.95Y-4.4969
X3.95Y-5.25
X3.95Y-6.0
X4.7Y-3.75
X4.7Y-4.4969
X4.7Y-5.25
X4.7Y-6.0
X5.45Y-3.75
X5.45Y-4.4969
X5.45Y-5.25
X5.45Y-6.0
X6.2Y-3.75
X6.2Y-4.4969
X6.2Y-5.25
X6.2Y-6.0
X6.95Y-3.75
X6.95Y-4.4969
X6.95Y-5.25
X6.95Y-6.0
X7.7Y-3.75
X7.7Y-4.4969
X7.7Y-5.25
X7.7Y-6.0
X8.45Y-3.75
X8.45Y-4.4969
X8.45Y-5.25
X8.45Y-6.0
X9.2Y-3.75
X9.2Y-4.4969
X9.2Y-5.25
X9.2Y-6.0
X9.95Y-3.75
X9.95Y-4.4969
X9.95Y-5.25
X9.95Y-6.0
T4
X3.5728Y-5.6201
X3.5748Y-4.1181
X6.5748Y-4.8661
X9.5768Y-4.124
X9.5768Y-5.6299
M30
