%TF.GenerationSoftware,KiCad,Pcbnew,8.0.8-8.0.8-0~ubuntu22.04.1*%
%TF.CreationDate,2025-02-27T16:32:07+08:00*%
%TF.ProjectId,macropad,6d616372-6f70-4616-942e-6b696361645f,rev?*%
%TF.SameCoordinates,Original*%
%TF.FileFunction,Drillmap*%
%TF.FilePolarity,Positive*%
%FSLAX45Y45*%
G04 Gerber Fmt 4.5, Leading zero omitted, Abs format (unit mm)*
G04 Created by KiCad (PCBNEW 8.0.8-8.0.8-0~ubuntu22.04.1) date 2025-02-27 16:32:07*
%MOMM*%
%LPD*%
G01*
G04 APERTURE LIST*
%ADD10C,0.200000*%
%ADD11C,0.100000*%
%ADD12C,0.102000*%
%ADD13C,0.150000*%
G04 APERTURE END LIST*
D10*
X17500000Y-11700000D02*
G75*
G02*
X17100000Y-11300000I0J400000D01*
G01*
X24300000Y-6900000D02*
X24300000Y-11300000D01*
X24300000Y-11300000D02*
G75*
G02*
X23900000Y-11700000I-400000J0D01*
G01*
X17100000Y-6900000D02*
G75*
G02*
X17500000Y-6500000I400000J0D01*
G01*
X23900000Y-6500000D02*
X17500000Y-6500000D01*
X23900000Y-11700000D02*
X17500000Y-11700000D01*
X17100000Y-6900000D02*
X17100000Y-11300000D01*
X23900000Y-6500000D02*
G75*
G02*
X24300000Y-6900000I0J-400000D01*
G01*
D11*
X17395000Y-7890000D02*
X17425000Y-7920000D01*
X17425000Y-7890000D02*
X17395000Y-7920000D01*
X17395000Y-9706667D02*
X17425000Y-9736667D01*
X17425000Y-9706667D02*
X17395000Y-9736667D01*
X17485000Y-6735000D02*
X17515000Y-6765000D01*
X17515000Y-6735000D02*
X17485000Y-6765000D01*
X17485000Y-7485000D02*
X17515000Y-7515000D01*
X17515000Y-7485000D02*
X17485000Y-7515000D01*
X17735000Y-6735000D02*
X17765000Y-6765000D01*
X17765000Y-6735000D02*
X17735000Y-6765000D01*
X17735000Y-7485000D02*
X17765000Y-7515000D01*
X17765000Y-7485000D02*
X17735000Y-7515000D01*
X18235000Y-7735000D02*
X18265000Y-7765000D01*
X18265000Y-7735000D02*
X18235000Y-7765000D01*
X18235000Y-7985000D02*
X18265000Y-8015000D01*
X18265000Y-7985000D02*
X18235000Y-8015000D01*
X18235000Y-8235000D02*
X18265000Y-8265000D01*
X18265000Y-8235000D02*
X18235000Y-8265000D01*
X18235000Y-11235000D02*
X18265000Y-11265000D01*
X18265000Y-11235000D02*
X18235000Y-11265000D01*
X18235000Y-11485000D02*
X18265000Y-11515000D01*
X18265000Y-11485000D02*
X18235000Y-11515000D01*
X18485000Y-7735000D02*
X18515000Y-7765000D01*
X18515000Y-7735000D02*
X18485000Y-7765000D01*
X18485000Y-7985000D02*
X18515000Y-8015000D01*
X18515000Y-7985000D02*
X18485000Y-8015000D01*
X18485000Y-8235000D02*
X18515000Y-8265000D01*
X18515000Y-8235000D02*
X18485000Y-8265000D01*
X18485000Y-11235000D02*
X18515000Y-11265000D01*
X18515000Y-11235000D02*
X18485000Y-11265000D01*
X18485000Y-11485000D02*
X18515000Y-11515000D01*
X18515000Y-11485000D02*
X18485000Y-11515000D01*
X18735000Y-7735000D02*
X18765000Y-7765000D01*
X18765000Y-7735000D02*
X18735000Y-7765000D01*
X18735000Y-7985000D02*
X18765000Y-8015000D01*
X18765000Y-7985000D02*
X18735000Y-8015000D01*
X18735000Y-8235000D02*
X18765000Y-8265000D01*
X18765000Y-8235000D02*
X18735000Y-8265000D01*
X18985000Y-7735000D02*
X19015000Y-7765000D01*
X19015000Y-7735000D02*
X18985000Y-7765000D01*
X18985000Y-7985000D02*
X19015000Y-8015000D01*
X19015000Y-7985000D02*
X18985000Y-8015000D01*
X18985000Y-8235000D02*
X19015000Y-8265000D01*
X19015000Y-8235000D02*
X18985000Y-8265000D01*
X19241667Y-11380000D02*
X19271667Y-11410000D01*
X19271667Y-11380000D02*
X19241667Y-11410000D01*
X19745000Y-6640000D02*
X19775000Y-6670000D01*
X19775000Y-6640000D02*
X19745000Y-6670000D01*
X21643333Y-11380000D02*
X21673333Y-11410000D01*
X21673333Y-11380000D02*
X21643333Y-11410000D01*
X22133333Y-6635000D02*
X22163333Y-6665000D01*
X22163333Y-6635000D02*
X22133333Y-6665000D01*
X23600000Y-7795000D02*
X23630000Y-7825000D01*
X23630000Y-7795000D02*
X23600000Y-7825000D01*
X23735000Y-6735000D02*
X23765000Y-6765000D01*
X23765000Y-6735000D02*
X23735000Y-6765000D01*
X23735000Y-6985000D02*
X23765000Y-7015000D01*
X23765000Y-6985000D02*
X23735000Y-7015000D01*
X23920000Y-10196667D02*
X23950000Y-10226667D01*
X23950000Y-10196667D02*
X23920000Y-10226667D01*
X23985000Y-6735000D02*
X24015000Y-6765000D01*
X24015000Y-6735000D02*
X23985000Y-6765000D01*
X23985000Y-6985000D02*
X24015000Y-7015000D01*
X24015000Y-6985000D02*
X23985000Y-7015000D01*
X25985000Y-8735000D02*
X26015000Y-8765000D01*
X26015000Y-8735000D02*
X25985000Y-8765000D01*
X17316500Y-7284000D02*
G75*
G02*
X17236500Y-7284000I-40000J0D01*
G01*
X17236500Y-7284000D02*
G75*
G02*
X17316500Y-7284000I40000J0D01*
G01*
X17316500Y-8808000D02*
G75*
G02*
X17236500Y-8808000I-40000J0D01*
G01*
X17236500Y-8808000D02*
G75*
G02*
X17316500Y-8808000I40000J0D01*
G01*
X17570500Y-7284000D02*
G75*
G02*
X17490500Y-7284000I-40000J0D01*
G01*
X17490500Y-7284000D02*
G75*
G02*
X17570500Y-7284000I40000J0D01*
G01*
X17570500Y-8808000D02*
G75*
G02*
X17490500Y-8808000I-40000J0D01*
G01*
X17490500Y-8808000D02*
G75*
G02*
X17570500Y-8808000I40000J0D01*
G01*
X17824500Y-7284000D02*
G75*
G02*
X17744500Y-7284000I-40000J0D01*
G01*
X17744500Y-7284000D02*
G75*
G02*
X17824500Y-7284000I40000J0D01*
G01*
X17824500Y-8808000D02*
G75*
G02*
X17744500Y-8808000I-40000J0D01*
G01*
X17744500Y-8808000D02*
G75*
G02*
X17824500Y-8808000I40000J0D01*
G01*
X18078500Y-7284000D02*
G75*
G02*
X17998500Y-7284000I-40000J0D01*
G01*
X17998500Y-7284000D02*
G75*
G02*
X18078500Y-7284000I40000J0D01*
G01*
X18078500Y-8808000D02*
G75*
G02*
X17998500Y-8808000I-40000J0D01*
G01*
X17998500Y-8808000D02*
G75*
G02*
X18078500Y-8808000I40000J0D01*
G01*
X18332500Y-7284000D02*
G75*
G02*
X18252500Y-7284000I-40000J0D01*
G01*
X18252500Y-7284000D02*
G75*
G02*
X18332500Y-7284000I40000J0D01*
G01*
X18332500Y-8808000D02*
G75*
G02*
X18252500Y-8808000I-40000J0D01*
G01*
X18252500Y-8808000D02*
G75*
G02*
X18332500Y-8808000I40000J0D01*
G01*
X18586500Y-7284000D02*
G75*
G02*
X18506500Y-7284000I-40000J0D01*
G01*
X18506500Y-7284000D02*
G75*
G02*
X18586500Y-7284000I40000J0D01*
G01*
X18586500Y-8808000D02*
G75*
G02*
X18506500Y-8808000I-40000J0D01*
G01*
X18506500Y-8808000D02*
G75*
G02*
X18586500Y-8808000I40000J0D01*
G01*
X18840500Y-7284000D02*
G75*
G02*
X18760500Y-7284000I-40000J0D01*
G01*
X18760500Y-7284000D02*
G75*
G02*
X18840500Y-7284000I40000J0D01*
G01*
X18840500Y-8808000D02*
G75*
G02*
X18760500Y-8808000I-40000J0D01*
G01*
X18760500Y-8808000D02*
G75*
G02*
X18840500Y-8808000I40000J0D01*
G01*
X19094500Y-7284000D02*
G75*
G02*
X19014500Y-7284000I-40000J0D01*
G01*
X19014500Y-7284000D02*
G75*
G02*
X19094500Y-7284000I40000J0D01*
G01*
X19094500Y-8808000D02*
G75*
G02*
X19014500Y-8808000I-40000J0D01*
G01*
X19014500Y-8808000D02*
G75*
G02*
X19094500Y-8808000I40000J0D01*
G01*
X19348500Y-7284000D02*
G75*
G02*
X19268500Y-7284000I-40000J0D01*
G01*
X19268500Y-7284000D02*
G75*
G02*
X19348500Y-7284000I40000J0D01*
G01*
X19348500Y-8808000D02*
G75*
G02*
X19268500Y-8808000I-40000J0D01*
G01*
X19268500Y-8808000D02*
G75*
G02*
X19348500Y-8808000I40000J0D01*
G01*
X19369500Y-7538000D02*
G75*
G02*
X19289500Y-7538000I-40000J0D01*
G01*
X19289500Y-7538000D02*
G75*
G02*
X19369500Y-7538000I40000J0D01*
G01*
X19369500Y-7792000D02*
G75*
G02*
X19289500Y-7792000I-40000J0D01*
G01*
X19289500Y-7792000D02*
G75*
G02*
X19369500Y-7792000I40000J0D01*
G01*
X19369500Y-8046000D02*
G75*
G02*
X19289500Y-8046000I-40000J0D01*
G01*
X19289500Y-8046000D02*
G75*
G02*
X19369500Y-8046000I40000J0D01*
G01*
X19369500Y-8300000D02*
G75*
G02*
X19289500Y-8300000I-40000J0D01*
G01*
X19289500Y-8300000D02*
G75*
G02*
X19369500Y-8300000I40000J0D01*
G01*
X19369500Y-8554000D02*
G75*
G02*
X19289500Y-8554000I-40000J0D01*
G01*
X19289500Y-8554000D02*
G75*
G02*
X19369500Y-8554000I40000J0D01*
G01*
D12*
X20000000Y-7041000D02*
X20000000Y-7143000D01*
X19949000Y-7092000D02*
X20051000Y-7092000D01*
X20000000Y-7295000D02*
X20000000Y-7397000D01*
X19949000Y-7346000D02*
X20051000Y-7346000D01*
X20000000Y-7549000D02*
X20000000Y-7651000D01*
X19949000Y-7600000D02*
X20051000Y-7600000D01*
X20000000Y-7803000D02*
X20000000Y-7905000D01*
X19949000Y-7854000D02*
X20051000Y-7854000D01*
D13*
X18468034Y-9832034D02*
X18468034Y-9725967D01*
X18361967Y-9725967D01*
X18361967Y-9832034D01*
X18468034Y-9832034D01*
X19103034Y-9578034D02*
X19103034Y-9471967D01*
X18996967Y-9471967D01*
X18996967Y-9578034D01*
X19103034Y-9578034D01*
X20373034Y-9832034D02*
X20373034Y-9725967D01*
X20266967Y-9725967D01*
X20266967Y-9832034D01*
X20373034Y-9832034D01*
X21008034Y-9578034D02*
X21008034Y-9471967D01*
X20901967Y-9471967D01*
X20901967Y-9578034D01*
X21008034Y-9578034D01*
X22278034Y-9832034D02*
X22278034Y-9725967D01*
X22171967Y-9725967D01*
X22171967Y-9832034D01*
X22278034Y-9832034D01*
X22913033Y-9578034D02*
X22913033Y-9471967D01*
X22806966Y-9471967D01*
X22806966Y-9578034D01*
X22913033Y-9578034D01*
D10*
X17350777Y-12021484D02*
X17350777Y-11821484D01*
X17350777Y-11821484D02*
X17398396Y-11821484D01*
X17398396Y-11821484D02*
X17426967Y-11831008D01*
X17426967Y-11831008D02*
X17446015Y-11850055D01*
X17446015Y-11850055D02*
X17455539Y-11869103D01*
X17455539Y-11869103D02*
X17465063Y-11907198D01*
X17465063Y-11907198D02*
X17465063Y-11935769D01*
X17465063Y-11935769D02*
X17455539Y-11973865D01*
X17455539Y-11973865D02*
X17446015Y-11992912D01*
X17446015Y-11992912D02*
X17426967Y-12011960D01*
X17426967Y-12011960D02*
X17398396Y-12021484D01*
X17398396Y-12021484D02*
X17350777Y-12021484D01*
X17550777Y-12021484D02*
X17550777Y-11888150D01*
X17550777Y-11926246D02*
X17560301Y-11907198D01*
X17560301Y-11907198D02*
X17569824Y-11897674D01*
X17569824Y-11897674D02*
X17588872Y-11888150D01*
X17588872Y-11888150D02*
X17607920Y-11888150D01*
X17674586Y-12021484D02*
X17674586Y-11888150D01*
X17674586Y-11821484D02*
X17665063Y-11831008D01*
X17665063Y-11831008D02*
X17674586Y-11840531D01*
X17674586Y-11840531D02*
X17684110Y-11831008D01*
X17684110Y-11831008D02*
X17674586Y-11821484D01*
X17674586Y-11821484D02*
X17674586Y-11840531D01*
X17798396Y-12021484D02*
X17779348Y-12011960D01*
X17779348Y-12011960D02*
X17769824Y-11992912D01*
X17769824Y-11992912D02*
X17769824Y-11821484D01*
X17903158Y-12021484D02*
X17884110Y-12011960D01*
X17884110Y-12011960D02*
X17874586Y-11992912D01*
X17874586Y-11992912D02*
X17874586Y-11821484D01*
X18131729Y-12021484D02*
X18131729Y-11821484D01*
X18131729Y-11821484D02*
X18198396Y-11964341D01*
X18198396Y-11964341D02*
X18265063Y-11821484D01*
X18265063Y-11821484D02*
X18265063Y-12021484D01*
X18446015Y-12021484D02*
X18446015Y-11916722D01*
X18446015Y-11916722D02*
X18436491Y-11897674D01*
X18436491Y-11897674D02*
X18417444Y-11888150D01*
X18417444Y-11888150D02*
X18379348Y-11888150D01*
X18379348Y-11888150D02*
X18360301Y-11897674D01*
X18446015Y-12011960D02*
X18426967Y-12021484D01*
X18426967Y-12021484D02*
X18379348Y-12021484D01*
X18379348Y-12021484D02*
X18360301Y-12011960D01*
X18360301Y-12011960D02*
X18350777Y-11992912D01*
X18350777Y-11992912D02*
X18350777Y-11973865D01*
X18350777Y-11973865D02*
X18360301Y-11954817D01*
X18360301Y-11954817D02*
X18379348Y-11945293D01*
X18379348Y-11945293D02*
X18426967Y-11945293D01*
X18426967Y-11945293D02*
X18446015Y-11935769D01*
X18541253Y-11888150D02*
X18541253Y-12088150D01*
X18541253Y-11897674D02*
X18560301Y-11888150D01*
X18560301Y-11888150D02*
X18598396Y-11888150D01*
X18598396Y-11888150D02*
X18617444Y-11897674D01*
X18617444Y-11897674D02*
X18626967Y-11907198D01*
X18626967Y-11907198D02*
X18636491Y-11926246D01*
X18636491Y-11926246D02*
X18636491Y-11983388D01*
X18636491Y-11983388D02*
X18626967Y-12002436D01*
X18626967Y-12002436D02*
X18617444Y-12011960D01*
X18617444Y-12011960D02*
X18598396Y-12021484D01*
X18598396Y-12021484D02*
X18560301Y-12021484D01*
X18560301Y-12021484D02*
X18541253Y-12011960D01*
X18722205Y-12002436D02*
X18731729Y-12011960D01*
X18731729Y-12011960D02*
X18722205Y-12021484D01*
X18722205Y-12021484D02*
X18712682Y-12011960D01*
X18712682Y-12011960D02*
X18722205Y-12002436D01*
X18722205Y-12002436D02*
X18722205Y-12021484D01*
X18722205Y-11897674D02*
X18731729Y-11907198D01*
X18731729Y-11907198D02*
X18722205Y-11916722D01*
X18722205Y-11916722D02*
X18712682Y-11907198D01*
X18712682Y-11907198D02*
X18722205Y-11897674D01*
X18722205Y-11897674D02*
X18722205Y-11916722D01*
D11*
X17060000Y-12335000D02*
X17090000Y-12365000D01*
X17090000Y-12335000D02*
X17060000Y-12365000D01*
D10*
X17388872Y-12241484D02*
X17407920Y-12241484D01*
X17407920Y-12241484D02*
X17426967Y-12251008D01*
X17426967Y-12251008D02*
X17436491Y-12260531D01*
X17436491Y-12260531D02*
X17446015Y-12279579D01*
X17446015Y-12279579D02*
X17455539Y-12317674D01*
X17455539Y-12317674D02*
X17455539Y-12365293D01*
X17455539Y-12365293D02*
X17446015Y-12403388D01*
X17446015Y-12403388D02*
X17436491Y-12422436D01*
X17436491Y-12422436D02*
X17426967Y-12431960D01*
X17426967Y-12431960D02*
X17407920Y-12441484D01*
X17407920Y-12441484D02*
X17388872Y-12441484D01*
X17388872Y-12441484D02*
X17369824Y-12431960D01*
X17369824Y-12431960D02*
X17360301Y-12422436D01*
X17360301Y-12422436D02*
X17350777Y-12403388D01*
X17350777Y-12403388D02*
X17341253Y-12365293D01*
X17341253Y-12365293D02*
X17341253Y-12317674D01*
X17341253Y-12317674D02*
X17350777Y-12279579D01*
X17350777Y-12279579D02*
X17360301Y-12260531D01*
X17360301Y-12260531D02*
X17369824Y-12251008D01*
X17369824Y-12251008D02*
X17388872Y-12241484D01*
X17541253Y-12422436D02*
X17550777Y-12431960D01*
X17550777Y-12431960D02*
X17541253Y-12441484D01*
X17541253Y-12441484D02*
X17531729Y-12431960D01*
X17531729Y-12431960D02*
X17541253Y-12422436D01*
X17541253Y-12422436D02*
X17541253Y-12441484D01*
X17617444Y-12241484D02*
X17741253Y-12241484D01*
X17741253Y-12241484D02*
X17674586Y-12317674D01*
X17674586Y-12317674D02*
X17703158Y-12317674D01*
X17703158Y-12317674D02*
X17722205Y-12327198D01*
X17722205Y-12327198D02*
X17731729Y-12336722D01*
X17731729Y-12336722D02*
X17741253Y-12355769D01*
X17741253Y-12355769D02*
X17741253Y-12403388D01*
X17741253Y-12403388D02*
X17731729Y-12422436D01*
X17731729Y-12422436D02*
X17722205Y-12431960D01*
X17722205Y-12431960D02*
X17703158Y-12441484D01*
X17703158Y-12441484D02*
X17646015Y-12441484D01*
X17646015Y-12441484D02*
X17626967Y-12431960D01*
X17626967Y-12431960D02*
X17617444Y-12422436D01*
X17865063Y-12241484D02*
X17884110Y-12241484D01*
X17884110Y-12241484D02*
X17903158Y-12251008D01*
X17903158Y-12251008D02*
X17912682Y-12260531D01*
X17912682Y-12260531D02*
X17922205Y-12279579D01*
X17922205Y-12279579D02*
X17931729Y-12317674D01*
X17931729Y-12317674D02*
X17931729Y-12365293D01*
X17931729Y-12365293D02*
X17922205Y-12403388D01*
X17922205Y-12403388D02*
X17912682Y-12422436D01*
X17912682Y-12422436D02*
X17903158Y-12431960D01*
X17903158Y-12431960D02*
X17884110Y-12441484D01*
X17884110Y-12441484D02*
X17865063Y-12441484D01*
X17865063Y-12441484D02*
X17846015Y-12431960D01*
X17846015Y-12431960D02*
X17836491Y-12422436D01*
X17836491Y-12422436D02*
X17826967Y-12403388D01*
X17826967Y-12403388D02*
X17817444Y-12365293D01*
X17817444Y-12365293D02*
X17817444Y-12317674D01*
X17817444Y-12317674D02*
X17826967Y-12279579D01*
X17826967Y-12279579D02*
X17836491Y-12260531D01*
X17836491Y-12260531D02*
X17846015Y-12251008D01*
X17846015Y-12251008D02*
X17865063Y-12241484D01*
X18055539Y-12241484D02*
X18074586Y-12241484D01*
X18074586Y-12241484D02*
X18093634Y-12251008D01*
X18093634Y-12251008D02*
X18103158Y-12260531D01*
X18103158Y-12260531D02*
X18112682Y-12279579D01*
X18112682Y-12279579D02*
X18122205Y-12317674D01*
X18122205Y-12317674D02*
X18122205Y-12365293D01*
X18122205Y-12365293D02*
X18112682Y-12403388D01*
X18112682Y-12403388D02*
X18103158Y-12422436D01*
X18103158Y-12422436D02*
X18093634Y-12431960D01*
X18093634Y-12431960D02*
X18074586Y-12441484D01*
X18074586Y-12441484D02*
X18055539Y-12441484D01*
X18055539Y-12441484D02*
X18036491Y-12431960D01*
X18036491Y-12431960D02*
X18026967Y-12422436D01*
X18026967Y-12422436D02*
X18017444Y-12403388D01*
X18017444Y-12403388D02*
X18007920Y-12365293D01*
X18007920Y-12365293D02*
X18007920Y-12317674D01*
X18007920Y-12317674D02*
X18017444Y-12279579D01*
X18017444Y-12279579D02*
X18026967Y-12260531D01*
X18026967Y-12260531D02*
X18036491Y-12251008D01*
X18036491Y-12251008D02*
X18055539Y-12241484D01*
X18207920Y-12441484D02*
X18207920Y-12308150D01*
X18207920Y-12327198D02*
X18217444Y-12317674D01*
X18217444Y-12317674D02*
X18236491Y-12308150D01*
X18236491Y-12308150D02*
X18265063Y-12308150D01*
X18265063Y-12308150D02*
X18284110Y-12317674D01*
X18284110Y-12317674D02*
X18293634Y-12336722D01*
X18293634Y-12336722D02*
X18293634Y-12441484D01*
X18293634Y-12336722D02*
X18303158Y-12317674D01*
X18303158Y-12317674D02*
X18322205Y-12308150D01*
X18322205Y-12308150D02*
X18350777Y-12308150D01*
X18350777Y-12308150D02*
X18369825Y-12317674D01*
X18369825Y-12317674D02*
X18379348Y-12336722D01*
X18379348Y-12336722D02*
X18379348Y-12441484D01*
X18474586Y-12441484D02*
X18474586Y-12308150D01*
X18474586Y-12327198D02*
X18484110Y-12317674D01*
X18484110Y-12317674D02*
X18503158Y-12308150D01*
X18503158Y-12308150D02*
X18531729Y-12308150D01*
X18531729Y-12308150D02*
X18550777Y-12317674D01*
X18550777Y-12317674D02*
X18560301Y-12336722D01*
X18560301Y-12336722D02*
X18560301Y-12441484D01*
X18560301Y-12336722D02*
X18569825Y-12317674D01*
X18569825Y-12317674D02*
X18588872Y-12308150D01*
X18588872Y-12308150D02*
X18617444Y-12308150D01*
X18617444Y-12308150D02*
X18636491Y-12317674D01*
X18636491Y-12317674D02*
X18646015Y-12336722D01*
X18646015Y-12336722D02*
X18646015Y-12441484D01*
X19036491Y-12231960D02*
X18865063Y-12489103D01*
X19293634Y-12241484D02*
X19312682Y-12241484D01*
X19312682Y-12241484D02*
X19331729Y-12251008D01*
X19331729Y-12251008D02*
X19341253Y-12260531D01*
X19341253Y-12260531D02*
X19350777Y-12279579D01*
X19350777Y-12279579D02*
X19360301Y-12317674D01*
X19360301Y-12317674D02*
X19360301Y-12365293D01*
X19360301Y-12365293D02*
X19350777Y-12403388D01*
X19350777Y-12403388D02*
X19341253Y-12422436D01*
X19341253Y-12422436D02*
X19331729Y-12431960D01*
X19331729Y-12431960D02*
X19312682Y-12441484D01*
X19312682Y-12441484D02*
X19293634Y-12441484D01*
X19293634Y-12441484D02*
X19274587Y-12431960D01*
X19274587Y-12431960D02*
X19265063Y-12422436D01*
X19265063Y-12422436D02*
X19255539Y-12403388D01*
X19255539Y-12403388D02*
X19246015Y-12365293D01*
X19246015Y-12365293D02*
X19246015Y-12317674D01*
X19246015Y-12317674D02*
X19255539Y-12279579D01*
X19255539Y-12279579D02*
X19265063Y-12260531D01*
X19265063Y-12260531D02*
X19274587Y-12251008D01*
X19274587Y-12251008D02*
X19293634Y-12241484D01*
X19446015Y-12422436D02*
X19455539Y-12431960D01*
X19455539Y-12431960D02*
X19446015Y-12441484D01*
X19446015Y-12441484D02*
X19436491Y-12431960D01*
X19436491Y-12431960D02*
X19446015Y-12422436D01*
X19446015Y-12422436D02*
X19446015Y-12441484D01*
X19579348Y-12241484D02*
X19598396Y-12241484D01*
X19598396Y-12241484D02*
X19617444Y-12251008D01*
X19617444Y-12251008D02*
X19626968Y-12260531D01*
X19626968Y-12260531D02*
X19636491Y-12279579D01*
X19636491Y-12279579D02*
X19646015Y-12317674D01*
X19646015Y-12317674D02*
X19646015Y-12365293D01*
X19646015Y-12365293D02*
X19636491Y-12403388D01*
X19636491Y-12403388D02*
X19626968Y-12422436D01*
X19626968Y-12422436D02*
X19617444Y-12431960D01*
X19617444Y-12431960D02*
X19598396Y-12441484D01*
X19598396Y-12441484D02*
X19579348Y-12441484D01*
X19579348Y-12441484D02*
X19560301Y-12431960D01*
X19560301Y-12431960D02*
X19550777Y-12422436D01*
X19550777Y-12422436D02*
X19541253Y-12403388D01*
X19541253Y-12403388D02*
X19531729Y-12365293D01*
X19531729Y-12365293D02*
X19531729Y-12317674D01*
X19531729Y-12317674D02*
X19541253Y-12279579D01*
X19541253Y-12279579D02*
X19550777Y-12260531D01*
X19550777Y-12260531D02*
X19560301Y-12251008D01*
X19560301Y-12251008D02*
X19579348Y-12241484D01*
X19836491Y-12441484D02*
X19722206Y-12441484D01*
X19779348Y-12441484D02*
X19779348Y-12241484D01*
X19779348Y-12241484D02*
X19760301Y-12270055D01*
X19760301Y-12270055D02*
X19741253Y-12289103D01*
X19741253Y-12289103D02*
X19722206Y-12298627D01*
X20026968Y-12441484D02*
X19912682Y-12441484D01*
X19969825Y-12441484D02*
X19969825Y-12241484D01*
X19969825Y-12241484D02*
X19950777Y-12270055D01*
X19950777Y-12270055D02*
X19931729Y-12289103D01*
X19931729Y-12289103D02*
X19912682Y-12298627D01*
X20141253Y-12327198D02*
X20122206Y-12317674D01*
X20122206Y-12317674D02*
X20112682Y-12308150D01*
X20112682Y-12308150D02*
X20103158Y-12289103D01*
X20103158Y-12289103D02*
X20103158Y-12279579D01*
X20103158Y-12279579D02*
X20112682Y-12260531D01*
X20112682Y-12260531D02*
X20122206Y-12251008D01*
X20122206Y-12251008D02*
X20141253Y-12241484D01*
X20141253Y-12241484D02*
X20179349Y-12241484D01*
X20179349Y-12241484D02*
X20198396Y-12251008D01*
X20198396Y-12251008D02*
X20207920Y-12260531D01*
X20207920Y-12260531D02*
X20217444Y-12279579D01*
X20217444Y-12279579D02*
X20217444Y-12289103D01*
X20217444Y-12289103D02*
X20207920Y-12308150D01*
X20207920Y-12308150D02*
X20198396Y-12317674D01*
X20198396Y-12317674D02*
X20179349Y-12327198D01*
X20179349Y-12327198D02*
X20141253Y-12327198D01*
X20141253Y-12327198D02*
X20122206Y-12336722D01*
X20122206Y-12336722D02*
X20112682Y-12346246D01*
X20112682Y-12346246D02*
X20103158Y-12365293D01*
X20103158Y-12365293D02*
X20103158Y-12403388D01*
X20103158Y-12403388D02*
X20112682Y-12422436D01*
X20112682Y-12422436D02*
X20122206Y-12431960D01*
X20122206Y-12431960D02*
X20141253Y-12441484D01*
X20141253Y-12441484D02*
X20179349Y-12441484D01*
X20179349Y-12441484D02*
X20198396Y-12431960D01*
X20198396Y-12431960D02*
X20207920Y-12422436D01*
X20207920Y-12422436D02*
X20217444Y-12403388D01*
X20217444Y-12403388D02*
X20217444Y-12365293D01*
X20217444Y-12365293D02*
X20207920Y-12346246D01*
X20207920Y-12346246D02*
X20198396Y-12336722D01*
X20198396Y-12336722D02*
X20179349Y-12327198D01*
X20293634Y-12241484D02*
X20293634Y-12279579D01*
X20369825Y-12241484D02*
X20369825Y-12279579D01*
X20665063Y-12517674D02*
X20655539Y-12508150D01*
X20655539Y-12508150D02*
X20636491Y-12479579D01*
X20636491Y-12479579D02*
X20626968Y-12460531D01*
X20626968Y-12460531D02*
X20617444Y-12431960D01*
X20617444Y-12431960D02*
X20607920Y-12384341D01*
X20607920Y-12384341D02*
X20607920Y-12346246D01*
X20607920Y-12346246D02*
X20617444Y-12298627D01*
X20617444Y-12298627D02*
X20626968Y-12270055D01*
X20626968Y-12270055D02*
X20636491Y-12251008D01*
X20636491Y-12251008D02*
X20655539Y-12222436D01*
X20655539Y-12222436D02*
X20665063Y-12212912D01*
X20722206Y-12241484D02*
X20846015Y-12241484D01*
X20846015Y-12241484D02*
X20779349Y-12317674D01*
X20779349Y-12317674D02*
X20807920Y-12317674D01*
X20807920Y-12317674D02*
X20826968Y-12327198D01*
X20826968Y-12327198D02*
X20836491Y-12336722D01*
X20836491Y-12336722D02*
X20846015Y-12355769D01*
X20846015Y-12355769D02*
X20846015Y-12403388D01*
X20846015Y-12403388D02*
X20836491Y-12422436D01*
X20836491Y-12422436D02*
X20826968Y-12431960D01*
X20826968Y-12431960D02*
X20807920Y-12441484D01*
X20807920Y-12441484D02*
X20750777Y-12441484D01*
X20750777Y-12441484D02*
X20731730Y-12431960D01*
X20731730Y-12431960D02*
X20722206Y-12422436D01*
X20912682Y-12241484D02*
X21036491Y-12241484D01*
X21036491Y-12241484D02*
X20969825Y-12317674D01*
X20969825Y-12317674D02*
X20998396Y-12317674D01*
X20998396Y-12317674D02*
X21017444Y-12327198D01*
X21017444Y-12327198D02*
X21026968Y-12336722D01*
X21026968Y-12336722D02*
X21036491Y-12355769D01*
X21036491Y-12355769D02*
X21036491Y-12403388D01*
X21036491Y-12403388D02*
X21026968Y-12422436D01*
X21026968Y-12422436D02*
X21017444Y-12431960D01*
X21017444Y-12431960D02*
X20998396Y-12441484D01*
X20998396Y-12441484D02*
X20941253Y-12441484D01*
X20941253Y-12441484D02*
X20922206Y-12431960D01*
X20922206Y-12431960D02*
X20912682Y-12422436D01*
X21274587Y-12441484D02*
X21274587Y-12241484D01*
X21360301Y-12441484D02*
X21360301Y-12336722D01*
X21360301Y-12336722D02*
X21350777Y-12317674D01*
X21350777Y-12317674D02*
X21331730Y-12308150D01*
X21331730Y-12308150D02*
X21303158Y-12308150D01*
X21303158Y-12308150D02*
X21284111Y-12317674D01*
X21284111Y-12317674D02*
X21274587Y-12327198D01*
X21484111Y-12441484D02*
X21465063Y-12431960D01*
X21465063Y-12431960D02*
X21455539Y-12422436D01*
X21455539Y-12422436D02*
X21446015Y-12403388D01*
X21446015Y-12403388D02*
X21446015Y-12346246D01*
X21446015Y-12346246D02*
X21455539Y-12327198D01*
X21455539Y-12327198D02*
X21465063Y-12317674D01*
X21465063Y-12317674D02*
X21484111Y-12308150D01*
X21484111Y-12308150D02*
X21512682Y-12308150D01*
X21512682Y-12308150D02*
X21531730Y-12317674D01*
X21531730Y-12317674D02*
X21541253Y-12327198D01*
X21541253Y-12327198D02*
X21550777Y-12346246D01*
X21550777Y-12346246D02*
X21550777Y-12403388D01*
X21550777Y-12403388D02*
X21541253Y-12422436D01*
X21541253Y-12422436D02*
X21531730Y-12431960D01*
X21531730Y-12431960D02*
X21512682Y-12441484D01*
X21512682Y-12441484D02*
X21484111Y-12441484D01*
X21665063Y-12441484D02*
X21646015Y-12431960D01*
X21646015Y-12431960D02*
X21636492Y-12412912D01*
X21636492Y-12412912D02*
X21636492Y-12241484D01*
X21817444Y-12431960D02*
X21798396Y-12441484D01*
X21798396Y-12441484D02*
X21760301Y-12441484D01*
X21760301Y-12441484D02*
X21741253Y-12431960D01*
X21741253Y-12431960D02*
X21731730Y-12412912D01*
X21731730Y-12412912D02*
X21731730Y-12336722D01*
X21731730Y-12336722D02*
X21741253Y-12317674D01*
X21741253Y-12317674D02*
X21760301Y-12308150D01*
X21760301Y-12308150D02*
X21798396Y-12308150D01*
X21798396Y-12308150D02*
X21817444Y-12317674D01*
X21817444Y-12317674D02*
X21826968Y-12336722D01*
X21826968Y-12336722D02*
X21826968Y-12355769D01*
X21826968Y-12355769D02*
X21731730Y-12374817D01*
X21903158Y-12431960D02*
X21922206Y-12441484D01*
X21922206Y-12441484D02*
X21960301Y-12441484D01*
X21960301Y-12441484D02*
X21979349Y-12431960D01*
X21979349Y-12431960D02*
X21988873Y-12412912D01*
X21988873Y-12412912D02*
X21988873Y-12403388D01*
X21988873Y-12403388D02*
X21979349Y-12384341D01*
X21979349Y-12384341D02*
X21960301Y-12374817D01*
X21960301Y-12374817D02*
X21931730Y-12374817D01*
X21931730Y-12374817D02*
X21912682Y-12365293D01*
X21912682Y-12365293D02*
X21903158Y-12346246D01*
X21903158Y-12346246D02*
X21903158Y-12336722D01*
X21903158Y-12336722D02*
X21912682Y-12317674D01*
X21912682Y-12317674D02*
X21931730Y-12308150D01*
X21931730Y-12308150D02*
X21960301Y-12308150D01*
X21960301Y-12308150D02*
X21979349Y-12317674D01*
X22055539Y-12517674D02*
X22065063Y-12508150D01*
X22065063Y-12508150D02*
X22084111Y-12479579D01*
X22084111Y-12479579D02*
X22093634Y-12460531D01*
X22093634Y-12460531D02*
X22103158Y-12431960D01*
X22103158Y-12431960D02*
X22112682Y-12384341D01*
X22112682Y-12384341D02*
X22112682Y-12346246D01*
X22112682Y-12346246D02*
X22103158Y-12298627D01*
X22103158Y-12298627D02*
X22093634Y-12270055D01*
X22093634Y-12270055D02*
X22084111Y-12251008D01*
X22084111Y-12251008D02*
X22065063Y-12222436D01*
X22065063Y-12222436D02*
X22055539Y-12212912D01*
D11*
X17090000Y-12614000D02*
G75*
G02*
X17010000Y-12614000I-40000J0D01*
G01*
X17010000Y-12614000D02*
G75*
G02*
X17090000Y-12614000I40000J0D01*
G01*
D10*
X17388872Y-12505484D02*
X17407920Y-12505484D01*
X17407920Y-12505484D02*
X17426967Y-12515008D01*
X17426967Y-12515008D02*
X17436491Y-12524531D01*
X17436491Y-12524531D02*
X17446015Y-12543579D01*
X17446015Y-12543579D02*
X17455539Y-12581674D01*
X17455539Y-12581674D02*
X17455539Y-12629293D01*
X17455539Y-12629293D02*
X17446015Y-12667388D01*
X17446015Y-12667388D02*
X17436491Y-12686436D01*
X17436491Y-12686436D02*
X17426967Y-12695960D01*
X17426967Y-12695960D02*
X17407920Y-12705484D01*
X17407920Y-12705484D02*
X17388872Y-12705484D01*
X17388872Y-12705484D02*
X17369824Y-12695960D01*
X17369824Y-12695960D02*
X17360301Y-12686436D01*
X17360301Y-12686436D02*
X17350777Y-12667388D01*
X17350777Y-12667388D02*
X17341253Y-12629293D01*
X17341253Y-12629293D02*
X17341253Y-12581674D01*
X17341253Y-12581674D02*
X17350777Y-12543579D01*
X17350777Y-12543579D02*
X17360301Y-12524531D01*
X17360301Y-12524531D02*
X17369824Y-12515008D01*
X17369824Y-12515008D02*
X17388872Y-12505484D01*
X17541253Y-12686436D02*
X17550777Y-12695960D01*
X17550777Y-12695960D02*
X17541253Y-12705484D01*
X17541253Y-12705484D02*
X17531729Y-12695960D01*
X17531729Y-12695960D02*
X17541253Y-12686436D01*
X17541253Y-12686436D02*
X17541253Y-12705484D01*
X17665063Y-12591198D02*
X17646015Y-12581674D01*
X17646015Y-12581674D02*
X17636491Y-12572150D01*
X17636491Y-12572150D02*
X17626967Y-12553103D01*
X17626967Y-12553103D02*
X17626967Y-12543579D01*
X17626967Y-12543579D02*
X17636491Y-12524531D01*
X17636491Y-12524531D02*
X17646015Y-12515008D01*
X17646015Y-12515008D02*
X17665063Y-12505484D01*
X17665063Y-12505484D02*
X17703158Y-12505484D01*
X17703158Y-12505484D02*
X17722205Y-12515008D01*
X17722205Y-12515008D02*
X17731729Y-12524531D01*
X17731729Y-12524531D02*
X17741253Y-12543579D01*
X17741253Y-12543579D02*
X17741253Y-12553103D01*
X17741253Y-12553103D02*
X17731729Y-12572150D01*
X17731729Y-12572150D02*
X17722205Y-12581674D01*
X17722205Y-12581674D02*
X17703158Y-12591198D01*
X17703158Y-12591198D02*
X17665063Y-12591198D01*
X17665063Y-12591198D02*
X17646015Y-12600722D01*
X17646015Y-12600722D02*
X17636491Y-12610246D01*
X17636491Y-12610246D02*
X17626967Y-12629293D01*
X17626967Y-12629293D02*
X17626967Y-12667388D01*
X17626967Y-12667388D02*
X17636491Y-12686436D01*
X17636491Y-12686436D02*
X17646015Y-12695960D01*
X17646015Y-12695960D02*
X17665063Y-12705484D01*
X17665063Y-12705484D02*
X17703158Y-12705484D01*
X17703158Y-12705484D02*
X17722205Y-12695960D01*
X17722205Y-12695960D02*
X17731729Y-12686436D01*
X17731729Y-12686436D02*
X17741253Y-12667388D01*
X17741253Y-12667388D02*
X17741253Y-12629293D01*
X17741253Y-12629293D02*
X17731729Y-12610246D01*
X17731729Y-12610246D02*
X17722205Y-12600722D01*
X17722205Y-12600722D02*
X17703158Y-12591198D01*
X17865063Y-12505484D02*
X17884110Y-12505484D01*
X17884110Y-12505484D02*
X17903158Y-12515008D01*
X17903158Y-12515008D02*
X17912682Y-12524531D01*
X17912682Y-12524531D02*
X17922205Y-12543579D01*
X17922205Y-12543579D02*
X17931729Y-12581674D01*
X17931729Y-12581674D02*
X17931729Y-12629293D01*
X17931729Y-12629293D02*
X17922205Y-12667388D01*
X17922205Y-12667388D02*
X17912682Y-12686436D01*
X17912682Y-12686436D02*
X17903158Y-12695960D01*
X17903158Y-12695960D02*
X17884110Y-12705484D01*
X17884110Y-12705484D02*
X17865063Y-12705484D01*
X17865063Y-12705484D02*
X17846015Y-12695960D01*
X17846015Y-12695960D02*
X17836491Y-12686436D01*
X17836491Y-12686436D02*
X17826967Y-12667388D01*
X17826967Y-12667388D02*
X17817444Y-12629293D01*
X17817444Y-12629293D02*
X17817444Y-12581674D01*
X17817444Y-12581674D02*
X17826967Y-12543579D01*
X17826967Y-12543579D02*
X17836491Y-12524531D01*
X17836491Y-12524531D02*
X17846015Y-12515008D01*
X17846015Y-12515008D02*
X17865063Y-12505484D01*
X18055539Y-12505484D02*
X18074586Y-12505484D01*
X18074586Y-12505484D02*
X18093634Y-12515008D01*
X18093634Y-12515008D02*
X18103158Y-12524531D01*
X18103158Y-12524531D02*
X18112682Y-12543579D01*
X18112682Y-12543579D02*
X18122205Y-12581674D01*
X18122205Y-12581674D02*
X18122205Y-12629293D01*
X18122205Y-12629293D02*
X18112682Y-12667388D01*
X18112682Y-12667388D02*
X18103158Y-12686436D01*
X18103158Y-12686436D02*
X18093634Y-12695960D01*
X18093634Y-12695960D02*
X18074586Y-12705484D01*
X18074586Y-12705484D02*
X18055539Y-12705484D01*
X18055539Y-12705484D02*
X18036491Y-12695960D01*
X18036491Y-12695960D02*
X18026967Y-12686436D01*
X18026967Y-12686436D02*
X18017444Y-12667388D01*
X18017444Y-12667388D02*
X18007920Y-12629293D01*
X18007920Y-12629293D02*
X18007920Y-12581674D01*
X18007920Y-12581674D02*
X18017444Y-12543579D01*
X18017444Y-12543579D02*
X18026967Y-12524531D01*
X18026967Y-12524531D02*
X18036491Y-12515008D01*
X18036491Y-12515008D02*
X18055539Y-12505484D01*
X18207920Y-12705484D02*
X18207920Y-12572150D01*
X18207920Y-12591198D02*
X18217444Y-12581674D01*
X18217444Y-12581674D02*
X18236491Y-12572150D01*
X18236491Y-12572150D02*
X18265063Y-12572150D01*
X18265063Y-12572150D02*
X18284110Y-12581674D01*
X18284110Y-12581674D02*
X18293634Y-12600722D01*
X18293634Y-12600722D02*
X18293634Y-12705484D01*
X18293634Y-12600722D02*
X18303158Y-12581674D01*
X18303158Y-12581674D02*
X18322205Y-12572150D01*
X18322205Y-12572150D02*
X18350777Y-12572150D01*
X18350777Y-12572150D02*
X18369825Y-12581674D01*
X18369825Y-12581674D02*
X18379348Y-12600722D01*
X18379348Y-12600722D02*
X18379348Y-12705484D01*
X18474586Y-12705484D02*
X18474586Y-12572150D01*
X18474586Y-12591198D02*
X18484110Y-12581674D01*
X18484110Y-12581674D02*
X18503158Y-12572150D01*
X18503158Y-12572150D02*
X18531729Y-12572150D01*
X18531729Y-12572150D02*
X18550777Y-12581674D01*
X18550777Y-12581674D02*
X18560301Y-12600722D01*
X18560301Y-12600722D02*
X18560301Y-12705484D01*
X18560301Y-12600722D02*
X18569825Y-12581674D01*
X18569825Y-12581674D02*
X18588872Y-12572150D01*
X18588872Y-12572150D02*
X18617444Y-12572150D01*
X18617444Y-12572150D02*
X18636491Y-12581674D01*
X18636491Y-12581674D02*
X18646015Y-12600722D01*
X18646015Y-12600722D02*
X18646015Y-12705484D01*
X19036491Y-12495960D02*
X18865063Y-12753103D01*
X19293634Y-12505484D02*
X19312682Y-12505484D01*
X19312682Y-12505484D02*
X19331729Y-12515008D01*
X19331729Y-12515008D02*
X19341253Y-12524531D01*
X19341253Y-12524531D02*
X19350777Y-12543579D01*
X19350777Y-12543579D02*
X19360301Y-12581674D01*
X19360301Y-12581674D02*
X19360301Y-12629293D01*
X19360301Y-12629293D02*
X19350777Y-12667388D01*
X19350777Y-12667388D02*
X19341253Y-12686436D01*
X19341253Y-12686436D02*
X19331729Y-12695960D01*
X19331729Y-12695960D02*
X19312682Y-12705484D01*
X19312682Y-12705484D02*
X19293634Y-12705484D01*
X19293634Y-12705484D02*
X19274587Y-12695960D01*
X19274587Y-12695960D02*
X19265063Y-12686436D01*
X19265063Y-12686436D02*
X19255539Y-12667388D01*
X19255539Y-12667388D02*
X19246015Y-12629293D01*
X19246015Y-12629293D02*
X19246015Y-12581674D01*
X19246015Y-12581674D02*
X19255539Y-12543579D01*
X19255539Y-12543579D02*
X19265063Y-12524531D01*
X19265063Y-12524531D02*
X19274587Y-12515008D01*
X19274587Y-12515008D02*
X19293634Y-12505484D01*
X19446015Y-12686436D02*
X19455539Y-12695960D01*
X19455539Y-12695960D02*
X19446015Y-12705484D01*
X19446015Y-12705484D02*
X19436491Y-12695960D01*
X19436491Y-12695960D02*
X19446015Y-12686436D01*
X19446015Y-12686436D02*
X19446015Y-12705484D01*
X19579348Y-12505484D02*
X19598396Y-12505484D01*
X19598396Y-12505484D02*
X19617444Y-12515008D01*
X19617444Y-12515008D02*
X19626968Y-12524531D01*
X19626968Y-12524531D02*
X19636491Y-12543579D01*
X19636491Y-12543579D02*
X19646015Y-12581674D01*
X19646015Y-12581674D02*
X19646015Y-12629293D01*
X19646015Y-12629293D02*
X19636491Y-12667388D01*
X19636491Y-12667388D02*
X19626968Y-12686436D01*
X19626968Y-12686436D02*
X19617444Y-12695960D01*
X19617444Y-12695960D02*
X19598396Y-12705484D01*
X19598396Y-12705484D02*
X19579348Y-12705484D01*
X19579348Y-12705484D02*
X19560301Y-12695960D01*
X19560301Y-12695960D02*
X19550777Y-12686436D01*
X19550777Y-12686436D02*
X19541253Y-12667388D01*
X19541253Y-12667388D02*
X19531729Y-12629293D01*
X19531729Y-12629293D02*
X19531729Y-12581674D01*
X19531729Y-12581674D02*
X19541253Y-12543579D01*
X19541253Y-12543579D02*
X19550777Y-12524531D01*
X19550777Y-12524531D02*
X19560301Y-12515008D01*
X19560301Y-12515008D02*
X19579348Y-12505484D01*
X19712682Y-12505484D02*
X19836491Y-12505484D01*
X19836491Y-12505484D02*
X19769825Y-12581674D01*
X19769825Y-12581674D02*
X19798396Y-12581674D01*
X19798396Y-12581674D02*
X19817444Y-12591198D01*
X19817444Y-12591198D02*
X19826968Y-12600722D01*
X19826968Y-12600722D02*
X19836491Y-12619769D01*
X19836491Y-12619769D02*
X19836491Y-12667388D01*
X19836491Y-12667388D02*
X19826968Y-12686436D01*
X19826968Y-12686436D02*
X19817444Y-12695960D01*
X19817444Y-12695960D02*
X19798396Y-12705484D01*
X19798396Y-12705484D02*
X19741253Y-12705484D01*
X19741253Y-12705484D02*
X19722206Y-12695960D01*
X19722206Y-12695960D02*
X19712682Y-12686436D01*
X20026968Y-12705484D02*
X19912682Y-12705484D01*
X19969825Y-12705484D02*
X19969825Y-12505484D01*
X19969825Y-12505484D02*
X19950777Y-12534055D01*
X19950777Y-12534055D02*
X19931729Y-12553103D01*
X19931729Y-12553103D02*
X19912682Y-12562627D01*
X20207920Y-12505484D02*
X20112682Y-12505484D01*
X20112682Y-12505484D02*
X20103158Y-12600722D01*
X20103158Y-12600722D02*
X20112682Y-12591198D01*
X20112682Y-12591198D02*
X20131729Y-12581674D01*
X20131729Y-12581674D02*
X20179349Y-12581674D01*
X20179349Y-12581674D02*
X20198396Y-12591198D01*
X20198396Y-12591198D02*
X20207920Y-12600722D01*
X20207920Y-12600722D02*
X20217444Y-12619769D01*
X20217444Y-12619769D02*
X20217444Y-12667388D01*
X20217444Y-12667388D02*
X20207920Y-12686436D01*
X20207920Y-12686436D02*
X20198396Y-12695960D01*
X20198396Y-12695960D02*
X20179349Y-12705484D01*
X20179349Y-12705484D02*
X20131729Y-12705484D01*
X20131729Y-12705484D02*
X20112682Y-12695960D01*
X20112682Y-12695960D02*
X20103158Y-12686436D01*
X20293634Y-12505484D02*
X20293634Y-12543579D01*
X20369825Y-12505484D02*
X20369825Y-12543579D01*
X20665063Y-12781674D02*
X20655539Y-12772150D01*
X20655539Y-12772150D02*
X20636491Y-12743579D01*
X20636491Y-12743579D02*
X20626968Y-12724531D01*
X20626968Y-12724531D02*
X20617444Y-12695960D01*
X20617444Y-12695960D02*
X20607920Y-12648341D01*
X20607920Y-12648341D02*
X20607920Y-12610246D01*
X20607920Y-12610246D02*
X20617444Y-12562627D01*
X20617444Y-12562627D02*
X20626968Y-12534055D01*
X20626968Y-12534055D02*
X20636491Y-12515008D01*
X20636491Y-12515008D02*
X20655539Y-12486436D01*
X20655539Y-12486436D02*
X20665063Y-12476912D01*
X20731730Y-12524531D02*
X20741253Y-12515008D01*
X20741253Y-12515008D02*
X20760301Y-12505484D01*
X20760301Y-12505484D02*
X20807920Y-12505484D01*
X20807920Y-12505484D02*
X20826968Y-12515008D01*
X20826968Y-12515008D02*
X20836491Y-12524531D01*
X20836491Y-12524531D02*
X20846015Y-12543579D01*
X20846015Y-12543579D02*
X20846015Y-12562627D01*
X20846015Y-12562627D02*
X20836491Y-12591198D01*
X20836491Y-12591198D02*
X20722206Y-12705484D01*
X20722206Y-12705484D02*
X20846015Y-12705484D01*
X20912682Y-12505484D02*
X21036491Y-12505484D01*
X21036491Y-12505484D02*
X20969825Y-12581674D01*
X20969825Y-12581674D02*
X20998396Y-12581674D01*
X20998396Y-12581674D02*
X21017444Y-12591198D01*
X21017444Y-12591198D02*
X21026968Y-12600722D01*
X21026968Y-12600722D02*
X21036491Y-12619769D01*
X21036491Y-12619769D02*
X21036491Y-12667388D01*
X21036491Y-12667388D02*
X21026968Y-12686436D01*
X21026968Y-12686436D02*
X21017444Y-12695960D01*
X21017444Y-12695960D02*
X20998396Y-12705484D01*
X20998396Y-12705484D02*
X20941253Y-12705484D01*
X20941253Y-12705484D02*
X20922206Y-12695960D01*
X20922206Y-12695960D02*
X20912682Y-12686436D01*
X21274587Y-12705484D02*
X21274587Y-12505484D01*
X21360301Y-12705484D02*
X21360301Y-12600722D01*
X21360301Y-12600722D02*
X21350777Y-12581674D01*
X21350777Y-12581674D02*
X21331730Y-12572150D01*
X21331730Y-12572150D02*
X21303158Y-12572150D01*
X21303158Y-12572150D02*
X21284111Y-12581674D01*
X21284111Y-12581674D02*
X21274587Y-12591198D01*
X21484111Y-12705484D02*
X21465063Y-12695960D01*
X21465063Y-12695960D02*
X21455539Y-12686436D01*
X21455539Y-12686436D02*
X21446015Y-12667388D01*
X21446015Y-12667388D02*
X21446015Y-12610246D01*
X21446015Y-12610246D02*
X21455539Y-12591198D01*
X21455539Y-12591198D02*
X21465063Y-12581674D01*
X21465063Y-12581674D02*
X21484111Y-12572150D01*
X21484111Y-12572150D02*
X21512682Y-12572150D01*
X21512682Y-12572150D02*
X21531730Y-12581674D01*
X21531730Y-12581674D02*
X21541253Y-12591198D01*
X21541253Y-12591198D02*
X21550777Y-12610246D01*
X21550777Y-12610246D02*
X21550777Y-12667388D01*
X21550777Y-12667388D02*
X21541253Y-12686436D01*
X21541253Y-12686436D02*
X21531730Y-12695960D01*
X21531730Y-12695960D02*
X21512682Y-12705484D01*
X21512682Y-12705484D02*
X21484111Y-12705484D01*
X21665063Y-12705484D02*
X21646015Y-12695960D01*
X21646015Y-12695960D02*
X21636492Y-12676912D01*
X21636492Y-12676912D02*
X21636492Y-12505484D01*
X21817444Y-12695960D02*
X21798396Y-12705484D01*
X21798396Y-12705484D02*
X21760301Y-12705484D01*
X21760301Y-12705484D02*
X21741253Y-12695960D01*
X21741253Y-12695960D02*
X21731730Y-12676912D01*
X21731730Y-12676912D02*
X21731730Y-12600722D01*
X21731730Y-12600722D02*
X21741253Y-12581674D01*
X21741253Y-12581674D02*
X21760301Y-12572150D01*
X21760301Y-12572150D02*
X21798396Y-12572150D01*
X21798396Y-12572150D02*
X21817444Y-12581674D01*
X21817444Y-12581674D02*
X21826968Y-12600722D01*
X21826968Y-12600722D02*
X21826968Y-12619769D01*
X21826968Y-12619769D02*
X21731730Y-12638817D01*
X21903158Y-12695960D02*
X21922206Y-12705484D01*
X21922206Y-12705484D02*
X21960301Y-12705484D01*
X21960301Y-12705484D02*
X21979349Y-12695960D01*
X21979349Y-12695960D02*
X21988873Y-12676912D01*
X21988873Y-12676912D02*
X21988873Y-12667388D01*
X21988873Y-12667388D02*
X21979349Y-12648341D01*
X21979349Y-12648341D02*
X21960301Y-12638817D01*
X21960301Y-12638817D02*
X21931730Y-12638817D01*
X21931730Y-12638817D02*
X21912682Y-12629293D01*
X21912682Y-12629293D02*
X21903158Y-12610246D01*
X21903158Y-12610246D02*
X21903158Y-12600722D01*
X21903158Y-12600722D02*
X21912682Y-12581674D01*
X21912682Y-12581674D02*
X21931730Y-12572150D01*
X21931730Y-12572150D02*
X21960301Y-12572150D01*
X21960301Y-12572150D02*
X21979349Y-12581674D01*
X22055539Y-12781674D02*
X22065063Y-12772150D01*
X22065063Y-12772150D02*
X22084111Y-12743579D01*
X22084111Y-12743579D02*
X22093634Y-12724531D01*
X22093634Y-12724531D02*
X22103158Y-12695960D01*
X22103158Y-12695960D02*
X22112682Y-12648341D01*
X22112682Y-12648341D02*
X22112682Y-12610246D01*
X22112682Y-12610246D02*
X22103158Y-12562627D01*
X22103158Y-12562627D02*
X22093634Y-12534055D01*
X22093634Y-12534055D02*
X22084111Y-12515008D01*
X22084111Y-12515008D02*
X22065063Y-12486436D01*
X22065063Y-12486436D02*
X22055539Y-12476912D01*
D12*
X17039000Y-12827000D02*
X17039000Y-12929000D01*
X16988000Y-12878000D02*
X17090000Y-12878000D01*
D10*
X17455539Y-12969484D02*
X17341253Y-12969484D01*
X17398396Y-12969484D02*
X17398396Y-12769484D01*
X17398396Y-12769484D02*
X17379348Y-12798055D01*
X17379348Y-12798055D02*
X17360301Y-12817103D01*
X17360301Y-12817103D02*
X17341253Y-12826627D01*
X17541253Y-12950436D02*
X17550777Y-12959960D01*
X17550777Y-12959960D02*
X17541253Y-12969484D01*
X17541253Y-12969484D02*
X17531729Y-12959960D01*
X17531729Y-12959960D02*
X17541253Y-12950436D01*
X17541253Y-12950436D02*
X17541253Y-12969484D01*
X17674586Y-12769484D02*
X17693634Y-12769484D01*
X17693634Y-12769484D02*
X17712682Y-12779008D01*
X17712682Y-12779008D02*
X17722205Y-12788531D01*
X17722205Y-12788531D02*
X17731729Y-12807579D01*
X17731729Y-12807579D02*
X17741253Y-12845674D01*
X17741253Y-12845674D02*
X17741253Y-12893293D01*
X17741253Y-12893293D02*
X17731729Y-12931388D01*
X17731729Y-12931388D02*
X17722205Y-12950436D01*
X17722205Y-12950436D02*
X17712682Y-12959960D01*
X17712682Y-12959960D02*
X17693634Y-12969484D01*
X17693634Y-12969484D02*
X17674586Y-12969484D01*
X17674586Y-12969484D02*
X17655539Y-12959960D01*
X17655539Y-12959960D02*
X17646015Y-12950436D01*
X17646015Y-12950436D02*
X17636491Y-12931388D01*
X17636491Y-12931388D02*
X17626967Y-12893293D01*
X17626967Y-12893293D02*
X17626967Y-12845674D01*
X17626967Y-12845674D02*
X17636491Y-12807579D01*
X17636491Y-12807579D02*
X17646015Y-12788531D01*
X17646015Y-12788531D02*
X17655539Y-12779008D01*
X17655539Y-12779008D02*
X17674586Y-12769484D01*
X17817444Y-12788531D02*
X17826967Y-12779008D01*
X17826967Y-12779008D02*
X17846015Y-12769484D01*
X17846015Y-12769484D02*
X17893634Y-12769484D01*
X17893634Y-12769484D02*
X17912682Y-12779008D01*
X17912682Y-12779008D02*
X17922205Y-12788531D01*
X17922205Y-12788531D02*
X17931729Y-12807579D01*
X17931729Y-12807579D02*
X17931729Y-12826627D01*
X17931729Y-12826627D02*
X17922205Y-12855198D01*
X17922205Y-12855198D02*
X17807920Y-12969484D01*
X17807920Y-12969484D02*
X17931729Y-12969484D01*
X18055539Y-12769484D02*
X18074586Y-12769484D01*
X18074586Y-12769484D02*
X18093634Y-12779008D01*
X18093634Y-12779008D02*
X18103158Y-12788531D01*
X18103158Y-12788531D02*
X18112682Y-12807579D01*
X18112682Y-12807579D02*
X18122205Y-12845674D01*
X18122205Y-12845674D02*
X18122205Y-12893293D01*
X18122205Y-12893293D02*
X18112682Y-12931388D01*
X18112682Y-12931388D02*
X18103158Y-12950436D01*
X18103158Y-12950436D02*
X18093634Y-12959960D01*
X18093634Y-12959960D02*
X18074586Y-12969484D01*
X18074586Y-12969484D02*
X18055539Y-12969484D01*
X18055539Y-12969484D02*
X18036491Y-12959960D01*
X18036491Y-12959960D02*
X18026967Y-12950436D01*
X18026967Y-12950436D02*
X18017444Y-12931388D01*
X18017444Y-12931388D02*
X18007920Y-12893293D01*
X18007920Y-12893293D02*
X18007920Y-12845674D01*
X18007920Y-12845674D02*
X18017444Y-12807579D01*
X18017444Y-12807579D02*
X18026967Y-12788531D01*
X18026967Y-12788531D02*
X18036491Y-12779008D01*
X18036491Y-12779008D02*
X18055539Y-12769484D01*
X18207920Y-12969484D02*
X18207920Y-12836150D01*
X18207920Y-12855198D02*
X18217444Y-12845674D01*
X18217444Y-12845674D02*
X18236491Y-12836150D01*
X18236491Y-12836150D02*
X18265063Y-12836150D01*
X18265063Y-12836150D02*
X18284110Y-12845674D01*
X18284110Y-12845674D02*
X18293634Y-12864722D01*
X18293634Y-12864722D02*
X18293634Y-12969484D01*
X18293634Y-12864722D02*
X18303158Y-12845674D01*
X18303158Y-12845674D02*
X18322205Y-12836150D01*
X18322205Y-12836150D02*
X18350777Y-12836150D01*
X18350777Y-12836150D02*
X18369825Y-12845674D01*
X18369825Y-12845674D02*
X18379348Y-12864722D01*
X18379348Y-12864722D02*
X18379348Y-12969484D01*
X18474586Y-12969484D02*
X18474586Y-12836150D01*
X18474586Y-12855198D02*
X18484110Y-12845674D01*
X18484110Y-12845674D02*
X18503158Y-12836150D01*
X18503158Y-12836150D02*
X18531729Y-12836150D01*
X18531729Y-12836150D02*
X18550777Y-12845674D01*
X18550777Y-12845674D02*
X18560301Y-12864722D01*
X18560301Y-12864722D02*
X18560301Y-12969484D01*
X18560301Y-12864722D02*
X18569825Y-12845674D01*
X18569825Y-12845674D02*
X18588872Y-12836150D01*
X18588872Y-12836150D02*
X18617444Y-12836150D01*
X18617444Y-12836150D02*
X18636491Y-12845674D01*
X18636491Y-12845674D02*
X18646015Y-12864722D01*
X18646015Y-12864722D02*
X18646015Y-12969484D01*
X19036491Y-12759960D02*
X18865063Y-13017103D01*
X19293634Y-12769484D02*
X19312682Y-12769484D01*
X19312682Y-12769484D02*
X19331729Y-12779008D01*
X19331729Y-12779008D02*
X19341253Y-12788531D01*
X19341253Y-12788531D02*
X19350777Y-12807579D01*
X19350777Y-12807579D02*
X19360301Y-12845674D01*
X19360301Y-12845674D02*
X19360301Y-12893293D01*
X19360301Y-12893293D02*
X19350777Y-12931388D01*
X19350777Y-12931388D02*
X19341253Y-12950436D01*
X19341253Y-12950436D02*
X19331729Y-12959960D01*
X19331729Y-12959960D02*
X19312682Y-12969484D01*
X19312682Y-12969484D02*
X19293634Y-12969484D01*
X19293634Y-12969484D02*
X19274587Y-12959960D01*
X19274587Y-12959960D02*
X19265063Y-12950436D01*
X19265063Y-12950436D02*
X19255539Y-12931388D01*
X19255539Y-12931388D02*
X19246015Y-12893293D01*
X19246015Y-12893293D02*
X19246015Y-12845674D01*
X19246015Y-12845674D02*
X19255539Y-12807579D01*
X19255539Y-12807579D02*
X19265063Y-12788531D01*
X19265063Y-12788531D02*
X19274587Y-12779008D01*
X19274587Y-12779008D02*
X19293634Y-12769484D01*
X19446015Y-12950436D02*
X19455539Y-12959960D01*
X19455539Y-12959960D02*
X19446015Y-12969484D01*
X19446015Y-12969484D02*
X19436491Y-12959960D01*
X19436491Y-12959960D02*
X19446015Y-12950436D01*
X19446015Y-12950436D02*
X19446015Y-12969484D01*
X19579348Y-12769484D02*
X19598396Y-12769484D01*
X19598396Y-12769484D02*
X19617444Y-12779008D01*
X19617444Y-12779008D02*
X19626968Y-12788531D01*
X19626968Y-12788531D02*
X19636491Y-12807579D01*
X19636491Y-12807579D02*
X19646015Y-12845674D01*
X19646015Y-12845674D02*
X19646015Y-12893293D01*
X19646015Y-12893293D02*
X19636491Y-12931388D01*
X19636491Y-12931388D02*
X19626968Y-12950436D01*
X19626968Y-12950436D02*
X19617444Y-12959960D01*
X19617444Y-12959960D02*
X19598396Y-12969484D01*
X19598396Y-12969484D02*
X19579348Y-12969484D01*
X19579348Y-12969484D02*
X19560301Y-12959960D01*
X19560301Y-12959960D02*
X19550777Y-12950436D01*
X19550777Y-12950436D02*
X19541253Y-12931388D01*
X19541253Y-12931388D02*
X19531729Y-12893293D01*
X19531729Y-12893293D02*
X19531729Y-12845674D01*
X19531729Y-12845674D02*
X19541253Y-12807579D01*
X19541253Y-12807579D02*
X19550777Y-12788531D01*
X19550777Y-12788531D02*
X19560301Y-12779008D01*
X19560301Y-12779008D02*
X19579348Y-12769484D01*
X19817444Y-12836150D02*
X19817444Y-12969484D01*
X19769825Y-12759960D02*
X19722206Y-12902817D01*
X19722206Y-12902817D02*
X19846015Y-12902817D01*
X19960301Y-12769484D02*
X19979349Y-12769484D01*
X19979349Y-12769484D02*
X19998396Y-12779008D01*
X19998396Y-12779008D02*
X20007920Y-12788531D01*
X20007920Y-12788531D02*
X20017444Y-12807579D01*
X20017444Y-12807579D02*
X20026968Y-12845674D01*
X20026968Y-12845674D02*
X20026968Y-12893293D01*
X20026968Y-12893293D02*
X20017444Y-12931388D01*
X20017444Y-12931388D02*
X20007920Y-12950436D01*
X20007920Y-12950436D02*
X19998396Y-12959960D01*
X19998396Y-12959960D02*
X19979349Y-12969484D01*
X19979349Y-12969484D02*
X19960301Y-12969484D01*
X19960301Y-12969484D02*
X19941253Y-12959960D01*
X19941253Y-12959960D02*
X19931729Y-12950436D01*
X19931729Y-12950436D02*
X19922206Y-12931388D01*
X19922206Y-12931388D02*
X19912682Y-12893293D01*
X19912682Y-12893293D02*
X19912682Y-12845674D01*
X19912682Y-12845674D02*
X19922206Y-12807579D01*
X19922206Y-12807579D02*
X19931729Y-12788531D01*
X19931729Y-12788531D02*
X19941253Y-12779008D01*
X19941253Y-12779008D02*
X19960301Y-12769484D01*
X20103158Y-12788531D02*
X20112682Y-12779008D01*
X20112682Y-12779008D02*
X20131729Y-12769484D01*
X20131729Y-12769484D02*
X20179349Y-12769484D01*
X20179349Y-12769484D02*
X20198396Y-12779008D01*
X20198396Y-12779008D02*
X20207920Y-12788531D01*
X20207920Y-12788531D02*
X20217444Y-12807579D01*
X20217444Y-12807579D02*
X20217444Y-12826627D01*
X20217444Y-12826627D02*
X20207920Y-12855198D01*
X20207920Y-12855198D02*
X20093634Y-12969484D01*
X20093634Y-12969484D02*
X20217444Y-12969484D01*
X20293634Y-12769484D02*
X20293634Y-12807579D01*
X20369825Y-12769484D02*
X20369825Y-12807579D01*
X20665063Y-13045674D02*
X20655539Y-13036150D01*
X20655539Y-13036150D02*
X20636491Y-13007579D01*
X20636491Y-13007579D02*
X20626968Y-12988531D01*
X20626968Y-12988531D02*
X20617444Y-12959960D01*
X20617444Y-12959960D02*
X20607920Y-12912341D01*
X20607920Y-12912341D02*
X20607920Y-12874246D01*
X20607920Y-12874246D02*
X20617444Y-12826627D01*
X20617444Y-12826627D02*
X20626968Y-12798055D01*
X20626968Y-12798055D02*
X20636491Y-12779008D01*
X20636491Y-12779008D02*
X20655539Y-12750436D01*
X20655539Y-12750436D02*
X20665063Y-12740912D01*
X20826968Y-12836150D02*
X20826968Y-12969484D01*
X20779349Y-12759960D02*
X20731730Y-12902817D01*
X20731730Y-12902817D02*
X20855539Y-12902817D01*
X21084111Y-12969484D02*
X21084111Y-12769484D01*
X21169825Y-12969484D02*
X21169825Y-12864722D01*
X21169825Y-12864722D02*
X21160301Y-12845674D01*
X21160301Y-12845674D02*
X21141253Y-12836150D01*
X21141253Y-12836150D02*
X21112682Y-12836150D01*
X21112682Y-12836150D02*
X21093634Y-12845674D01*
X21093634Y-12845674D02*
X21084111Y-12855198D01*
X21293634Y-12969484D02*
X21274587Y-12959960D01*
X21274587Y-12959960D02*
X21265063Y-12950436D01*
X21265063Y-12950436D02*
X21255539Y-12931388D01*
X21255539Y-12931388D02*
X21255539Y-12874246D01*
X21255539Y-12874246D02*
X21265063Y-12855198D01*
X21265063Y-12855198D02*
X21274587Y-12845674D01*
X21274587Y-12845674D02*
X21293634Y-12836150D01*
X21293634Y-12836150D02*
X21322206Y-12836150D01*
X21322206Y-12836150D02*
X21341253Y-12845674D01*
X21341253Y-12845674D02*
X21350777Y-12855198D01*
X21350777Y-12855198D02*
X21360301Y-12874246D01*
X21360301Y-12874246D02*
X21360301Y-12931388D01*
X21360301Y-12931388D02*
X21350777Y-12950436D01*
X21350777Y-12950436D02*
X21341253Y-12959960D01*
X21341253Y-12959960D02*
X21322206Y-12969484D01*
X21322206Y-12969484D02*
X21293634Y-12969484D01*
X21474587Y-12969484D02*
X21455539Y-12959960D01*
X21455539Y-12959960D02*
X21446015Y-12940912D01*
X21446015Y-12940912D02*
X21446015Y-12769484D01*
X21626968Y-12959960D02*
X21607920Y-12969484D01*
X21607920Y-12969484D02*
X21569825Y-12969484D01*
X21569825Y-12969484D02*
X21550777Y-12959960D01*
X21550777Y-12959960D02*
X21541253Y-12940912D01*
X21541253Y-12940912D02*
X21541253Y-12864722D01*
X21541253Y-12864722D02*
X21550777Y-12845674D01*
X21550777Y-12845674D02*
X21569825Y-12836150D01*
X21569825Y-12836150D02*
X21607920Y-12836150D01*
X21607920Y-12836150D02*
X21626968Y-12845674D01*
X21626968Y-12845674D02*
X21636492Y-12864722D01*
X21636492Y-12864722D02*
X21636492Y-12883769D01*
X21636492Y-12883769D02*
X21541253Y-12902817D01*
X21712682Y-12959960D02*
X21731730Y-12969484D01*
X21731730Y-12969484D02*
X21769825Y-12969484D01*
X21769825Y-12969484D02*
X21788873Y-12959960D01*
X21788873Y-12959960D02*
X21798396Y-12940912D01*
X21798396Y-12940912D02*
X21798396Y-12931388D01*
X21798396Y-12931388D02*
X21788873Y-12912341D01*
X21788873Y-12912341D02*
X21769825Y-12902817D01*
X21769825Y-12902817D02*
X21741253Y-12902817D01*
X21741253Y-12902817D02*
X21722206Y-12893293D01*
X21722206Y-12893293D02*
X21712682Y-12874246D01*
X21712682Y-12874246D02*
X21712682Y-12864722D01*
X21712682Y-12864722D02*
X21722206Y-12845674D01*
X21722206Y-12845674D02*
X21741253Y-12836150D01*
X21741253Y-12836150D02*
X21769825Y-12836150D01*
X21769825Y-12836150D02*
X21788873Y-12845674D01*
X21865063Y-13045674D02*
X21874587Y-13036150D01*
X21874587Y-13036150D02*
X21893634Y-13007579D01*
X21893634Y-13007579D02*
X21903158Y-12988531D01*
X21903158Y-12988531D02*
X21912682Y-12959960D01*
X21912682Y-12959960D02*
X21922206Y-12912341D01*
X21922206Y-12912341D02*
X21922206Y-12874246D01*
X21922206Y-12874246D02*
X21912682Y-12826627D01*
X21912682Y-12826627D02*
X21903158Y-12798055D01*
X21903158Y-12798055D02*
X21893634Y-12779008D01*
X21893634Y-12779008D02*
X21874587Y-12750436D01*
X21874587Y-12750436D02*
X21865063Y-12740912D01*
D13*
X17068034Y-13195033D02*
X17068034Y-13088966D01*
X16961967Y-13088966D01*
X16961967Y-13195033D01*
X17068034Y-13195033D01*
D10*
X17455539Y-13233484D02*
X17341253Y-13233484D01*
X17398396Y-13233484D02*
X17398396Y-13033484D01*
X17398396Y-13033484D02*
X17379348Y-13062055D01*
X17379348Y-13062055D02*
X17360301Y-13081103D01*
X17360301Y-13081103D02*
X17341253Y-13090627D01*
X17541253Y-13214436D02*
X17550777Y-13223960D01*
X17550777Y-13223960D02*
X17541253Y-13233484D01*
X17541253Y-13233484D02*
X17531729Y-13223960D01*
X17531729Y-13223960D02*
X17541253Y-13214436D01*
X17541253Y-13214436D02*
X17541253Y-13233484D01*
X17731729Y-13033484D02*
X17636491Y-13033484D01*
X17636491Y-13033484D02*
X17626967Y-13128722D01*
X17626967Y-13128722D02*
X17636491Y-13119198D01*
X17636491Y-13119198D02*
X17655539Y-13109674D01*
X17655539Y-13109674D02*
X17703158Y-13109674D01*
X17703158Y-13109674D02*
X17722205Y-13119198D01*
X17722205Y-13119198D02*
X17731729Y-13128722D01*
X17731729Y-13128722D02*
X17741253Y-13147769D01*
X17741253Y-13147769D02*
X17741253Y-13195388D01*
X17741253Y-13195388D02*
X17731729Y-13214436D01*
X17731729Y-13214436D02*
X17722205Y-13223960D01*
X17722205Y-13223960D02*
X17703158Y-13233484D01*
X17703158Y-13233484D02*
X17655539Y-13233484D01*
X17655539Y-13233484D02*
X17636491Y-13223960D01*
X17636491Y-13223960D02*
X17626967Y-13214436D01*
X17865063Y-13033484D02*
X17884110Y-13033484D01*
X17884110Y-13033484D02*
X17903158Y-13043008D01*
X17903158Y-13043008D02*
X17912682Y-13052531D01*
X17912682Y-13052531D02*
X17922205Y-13071579D01*
X17922205Y-13071579D02*
X17931729Y-13109674D01*
X17931729Y-13109674D02*
X17931729Y-13157293D01*
X17931729Y-13157293D02*
X17922205Y-13195388D01*
X17922205Y-13195388D02*
X17912682Y-13214436D01*
X17912682Y-13214436D02*
X17903158Y-13223960D01*
X17903158Y-13223960D02*
X17884110Y-13233484D01*
X17884110Y-13233484D02*
X17865063Y-13233484D01*
X17865063Y-13233484D02*
X17846015Y-13223960D01*
X17846015Y-13223960D02*
X17836491Y-13214436D01*
X17836491Y-13214436D02*
X17826967Y-13195388D01*
X17826967Y-13195388D02*
X17817444Y-13157293D01*
X17817444Y-13157293D02*
X17817444Y-13109674D01*
X17817444Y-13109674D02*
X17826967Y-13071579D01*
X17826967Y-13071579D02*
X17836491Y-13052531D01*
X17836491Y-13052531D02*
X17846015Y-13043008D01*
X17846015Y-13043008D02*
X17865063Y-13033484D01*
X18055539Y-13033484D02*
X18074586Y-13033484D01*
X18074586Y-13033484D02*
X18093634Y-13043008D01*
X18093634Y-13043008D02*
X18103158Y-13052531D01*
X18103158Y-13052531D02*
X18112682Y-13071579D01*
X18112682Y-13071579D02*
X18122205Y-13109674D01*
X18122205Y-13109674D02*
X18122205Y-13157293D01*
X18122205Y-13157293D02*
X18112682Y-13195388D01*
X18112682Y-13195388D02*
X18103158Y-13214436D01*
X18103158Y-13214436D02*
X18093634Y-13223960D01*
X18093634Y-13223960D02*
X18074586Y-13233484D01*
X18074586Y-13233484D02*
X18055539Y-13233484D01*
X18055539Y-13233484D02*
X18036491Y-13223960D01*
X18036491Y-13223960D02*
X18026967Y-13214436D01*
X18026967Y-13214436D02*
X18017444Y-13195388D01*
X18017444Y-13195388D02*
X18007920Y-13157293D01*
X18007920Y-13157293D02*
X18007920Y-13109674D01*
X18007920Y-13109674D02*
X18017444Y-13071579D01*
X18017444Y-13071579D02*
X18026967Y-13052531D01*
X18026967Y-13052531D02*
X18036491Y-13043008D01*
X18036491Y-13043008D02*
X18055539Y-13033484D01*
X18207920Y-13233484D02*
X18207920Y-13100150D01*
X18207920Y-13119198D02*
X18217444Y-13109674D01*
X18217444Y-13109674D02*
X18236491Y-13100150D01*
X18236491Y-13100150D02*
X18265063Y-13100150D01*
X18265063Y-13100150D02*
X18284110Y-13109674D01*
X18284110Y-13109674D02*
X18293634Y-13128722D01*
X18293634Y-13128722D02*
X18293634Y-13233484D01*
X18293634Y-13128722D02*
X18303158Y-13109674D01*
X18303158Y-13109674D02*
X18322205Y-13100150D01*
X18322205Y-13100150D02*
X18350777Y-13100150D01*
X18350777Y-13100150D02*
X18369825Y-13109674D01*
X18369825Y-13109674D02*
X18379348Y-13128722D01*
X18379348Y-13128722D02*
X18379348Y-13233484D01*
X18474586Y-13233484D02*
X18474586Y-13100150D01*
X18474586Y-13119198D02*
X18484110Y-13109674D01*
X18484110Y-13109674D02*
X18503158Y-13100150D01*
X18503158Y-13100150D02*
X18531729Y-13100150D01*
X18531729Y-13100150D02*
X18550777Y-13109674D01*
X18550777Y-13109674D02*
X18560301Y-13128722D01*
X18560301Y-13128722D02*
X18560301Y-13233484D01*
X18560301Y-13128722D02*
X18569825Y-13109674D01*
X18569825Y-13109674D02*
X18588872Y-13100150D01*
X18588872Y-13100150D02*
X18617444Y-13100150D01*
X18617444Y-13100150D02*
X18636491Y-13109674D01*
X18636491Y-13109674D02*
X18646015Y-13128722D01*
X18646015Y-13128722D02*
X18646015Y-13233484D01*
X19036491Y-13023960D02*
X18865063Y-13281103D01*
X19293634Y-13033484D02*
X19312682Y-13033484D01*
X19312682Y-13033484D02*
X19331729Y-13043008D01*
X19331729Y-13043008D02*
X19341253Y-13052531D01*
X19341253Y-13052531D02*
X19350777Y-13071579D01*
X19350777Y-13071579D02*
X19360301Y-13109674D01*
X19360301Y-13109674D02*
X19360301Y-13157293D01*
X19360301Y-13157293D02*
X19350777Y-13195388D01*
X19350777Y-13195388D02*
X19341253Y-13214436D01*
X19341253Y-13214436D02*
X19331729Y-13223960D01*
X19331729Y-13223960D02*
X19312682Y-13233484D01*
X19312682Y-13233484D02*
X19293634Y-13233484D01*
X19293634Y-13233484D02*
X19274587Y-13223960D01*
X19274587Y-13223960D02*
X19265063Y-13214436D01*
X19265063Y-13214436D02*
X19255539Y-13195388D01*
X19255539Y-13195388D02*
X19246015Y-13157293D01*
X19246015Y-13157293D02*
X19246015Y-13109674D01*
X19246015Y-13109674D02*
X19255539Y-13071579D01*
X19255539Y-13071579D02*
X19265063Y-13052531D01*
X19265063Y-13052531D02*
X19274587Y-13043008D01*
X19274587Y-13043008D02*
X19293634Y-13033484D01*
X19446015Y-13214436D02*
X19455539Y-13223960D01*
X19455539Y-13223960D02*
X19446015Y-13233484D01*
X19446015Y-13233484D02*
X19436491Y-13223960D01*
X19436491Y-13223960D02*
X19446015Y-13214436D01*
X19446015Y-13214436D02*
X19446015Y-13233484D01*
X19579348Y-13033484D02*
X19598396Y-13033484D01*
X19598396Y-13033484D02*
X19617444Y-13043008D01*
X19617444Y-13043008D02*
X19626968Y-13052531D01*
X19626968Y-13052531D02*
X19636491Y-13071579D01*
X19636491Y-13071579D02*
X19646015Y-13109674D01*
X19646015Y-13109674D02*
X19646015Y-13157293D01*
X19646015Y-13157293D02*
X19636491Y-13195388D01*
X19636491Y-13195388D02*
X19626968Y-13214436D01*
X19626968Y-13214436D02*
X19617444Y-13223960D01*
X19617444Y-13223960D02*
X19598396Y-13233484D01*
X19598396Y-13233484D02*
X19579348Y-13233484D01*
X19579348Y-13233484D02*
X19560301Y-13223960D01*
X19560301Y-13223960D02*
X19550777Y-13214436D01*
X19550777Y-13214436D02*
X19541253Y-13195388D01*
X19541253Y-13195388D02*
X19531729Y-13157293D01*
X19531729Y-13157293D02*
X19531729Y-13109674D01*
X19531729Y-13109674D02*
X19541253Y-13071579D01*
X19541253Y-13071579D02*
X19550777Y-13052531D01*
X19550777Y-13052531D02*
X19560301Y-13043008D01*
X19560301Y-13043008D02*
X19579348Y-13033484D01*
X19826968Y-13033484D02*
X19731729Y-13033484D01*
X19731729Y-13033484D02*
X19722206Y-13128722D01*
X19722206Y-13128722D02*
X19731729Y-13119198D01*
X19731729Y-13119198D02*
X19750777Y-13109674D01*
X19750777Y-13109674D02*
X19798396Y-13109674D01*
X19798396Y-13109674D02*
X19817444Y-13119198D01*
X19817444Y-13119198D02*
X19826968Y-13128722D01*
X19826968Y-13128722D02*
X19836491Y-13147769D01*
X19836491Y-13147769D02*
X19836491Y-13195388D01*
X19836491Y-13195388D02*
X19826968Y-13214436D01*
X19826968Y-13214436D02*
X19817444Y-13223960D01*
X19817444Y-13223960D02*
X19798396Y-13233484D01*
X19798396Y-13233484D02*
X19750777Y-13233484D01*
X19750777Y-13233484D02*
X19731729Y-13223960D01*
X19731729Y-13223960D02*
X19722206Y-13214436D01*
X19931729Y-13233484D02*
X19969825Y-13233484D01*
X19969825Y-13233484D02*
X19988872Y-13223960D01*
X19988872Y-13223960D02*
X19998396Y-13214436D01*
X19998396Y-13214436D02*
X20017444Y-13185865D01*
X20017444Y-13185865D02*
X20026968Y-13147769D01*
X20026968Y-13147769D02*
X20026968Y-13071579D01*
X20026968Y-13071579D02*
X20017444Y-13052531D01*
X20017444Y-13052531D02*
X20007920Y-13043008D01*
X20007920Y-13043008D02*
X19988872Y-13033484D01*
X19988872Y-13033484D02*
X19950777Y-13033484D01*
X19950777Y-13033484D02*
X19931729Y-13043008D01*
X19931729Y-13043008D02*
X19922206Y-13052531D01*
X19922206Y-13052531D02*
X19912682Y-13071579D01*
X19912682Y-13071579D02*
X19912682Y-13119198D01*
X19912682Y-13119198D02*
X19922206Y-13138246D01*
X19922206Y-13138246D02*
X19931729Y-13147769D01*
X19931729Y-13147769D02*
X19950777Y-13157293D01*
X19950777Y-13157293D02*
X19988872Y-13157293D01*
X19988872Y-13157293D02*
X20007920Y-13147769D01*
X20007920Y-13147769D02*
X20017444Y-13138246D01*
X20017444Y-13138246D02*
X20026968Y-13119198D01*
X20217444Y-13233484D02*
X20103158Y-13233484D01*
X20160301Y-13233484D02*
X20160301Y-13033484D01*
X20160301Y-13033484D02*
X20141253Y-13062055D01*
X20141253Y-13062055D02*
X20122206Y-13081103D01*
X20122206Y-13081103D02*
X20103158Y-13090627D01*
X20293634Y-13033484D02*
X20293634Y-13071579D01*
X20369825Y-13033484D02*
X20369825Y-13071579D01*
X20665063Y-13309674D02*
X20655539Y-13300150D01*
X20655539Y-13300150D02*
X20636491Y-13271579D01*
X20636491Y-13271579D02*
X20626968Y-13252531D01*
X20626968Y-13252531D02*
X20617444Y-13223960D01*
X20617444Y-13223960D02*
X20607920Y-13176341D01*
X20607920Y-13176341D02*
X20607920Y-13138246D01*
X20607920Y-13138246D02*
X20617444Y-13090627D01*
X20617444Y-13090627D02*
X20626968Y-13062055D01*
X20626968Y-13062055D02*
X20636491Y-13043008D01*
X20636491Y-13043008D02*
X20655539Y-13014436D01*
X20655539Y-13014436D02*
X20665063Y-13004912D01*
X20826968Y-13033484D02*
X20788872Y-13033484D01*
X20788872Y-13033484D02*
X20769825Y-13043008D01*
X20769825Y-13043008D02*
X20760301Y-13052531D01*
X20760301Y-13052531D02*
X20741253Y-13081103D01*
X20741253Y-13081103D02*
X20731730Y-13119198D01*
X20731730Y-13119198D02*
X20731730Y-13195388D01*
X20731730Y-13195388D02*
X20741253Y-13214436D01*
X20741253Y-13214436D02*
X20750777Y-13223960D01*
X20750777Y-13223960D02*
X20769825Y-13233484D01*
X20769825Y-13233484D02*
X20807920Y-13233484D01*
X20807920Y-13233484D02*
X20826968Y-13223960D01*
X20826968Y-13223960D02*
X20836491Y-13214436D01*
X20836491Y-13214436D02*
X20846015Y-13195388D01*
X20846015Y-13195388D02*
X20846015Y-13147769D01*
X20846015Y-13147769D02*
X20836491Y-13128722D01*
X20836491Y-13128722D02*
X20826968Y-13119198D01*
X20826968Y-13119198D02*
X20807920Y-13109674D01*
X20807920Y-13109674D02*
X20769825Y-13109674D01*
X20769825Y-13109674D02*
X20750777Y-13119198D01*
X20750777Y-13119198D02*
X20741253Y-13128722D01*
X20741253Y-13128722D02*
X20731730Y-13147769D01*
X21084111Y-13233484D02*
X21084111Y-13033484D01*
X21169825Y-13233484D02*
X21169825Y-13128722D01*
X21169825Y-13128722D02*
X21160301Y-13109674D01*
X21160301Y-13109674D02*
X21141253Y-13100150D01*
X21141253Y-13100150D02*
X21112682Y-13100150D01*
X21112682Y-13100150D02*
X21093634Y-13109674D01*
X21093634Y-13109674D02*
X21084111Y-13119198D01*
X21293634Y-13233484D02*
X21274587Y-13223960D01*
X21274587Y-13223960D02*
X21265063Y-13214436D01*
X21265063Y-13214436D02*
X21255539Y-13195388D01*
X21255539Y-13195388D02*
X21255539Y-13138246D01*
X21255539Y-13138246D02*
X21265063Y-13119198D01*
X21265063Y-13119198D02*
X21274587Y-13109674D01*
X21274587Y-13109674D02*
X21293634Y-13100150D01*
X21293634Y-13100150D02*
X21322206Y-13100150D01*
X21322206Y-13100150D02*
X21341253Y-13109674D01*
X21341253Y-13109674D02*
X21350777Y-13119198D01*
X21350777Y-13119198D02*
X21360301Y-13138246D01*
X21360301Y-13138246D02*
X21360301Y-13195388D01*
X21360301Y-13195388D02*
X21350777Y-13214436D01*
X21350777Y-13214436D02*
X21341253Y-13223960D01*
X21341253Y-13223960D02*
X21322206Y-13233484D01*
X21322206Y-13233484D02*
X21293634Y-13233484D01*
X21474587Y-13233484D02*
X21455539Y-13223960D01*
X21455539Y-13223960D02*
X21446015Y-13204912D01*
X21446015Y-13204912D02*
X21446015Y-13033484D01*
X21626968Y-13223960D02*
X21607920Y-13233484D01*
X21607920Y-13233484D02*
X21569825Y-13233484D01*
X21569825Y-13233484D02*
X21550777Y-13223960D01*
X21550777Y-13223960D02*
X21541253Y-13204912D01*
X21541253Y-13204912D02*
X21541253Y-13128722D01*
X21541253Y-13128722D02*
X21550777Y-13109674D01*
X21550777Y-13109674D02*
X21569825Y-13100150D01*
X21569825Y-13100150D02*
X21607920Y-13100150D01*
X21607920Y-13100150D02*
X21626968Y-13109674D01*
X21626968Y-13109674D02*
X21636492Y-13128722D01*
X21636492Y-13128722D02*
X21636492Y-13147769D01*
X21636492Y-13147769D02*
X21541253Y-13166817D01*
X21712682Y-13223960D02*
X21731730Y-13233484D01*
X21731730Y-13233484D02*
X21769825Y-13233484D01*
X21769825Y-13233484D02*
X21788873Y-13223960D01*
X21788873Y-13223960D02*
X21798396Y-13204912D01*
X21798396Y-13204912D02*
X21798396Y-13195388D01*
X21798396Y-13195388D02*
X21788873Y-13176341D01*
X21788873Y-13176341D02*
X21769825Y-13166817D01*
X21769825Y-13166817D02*
X21741253Y-13166817D01*
X21741253Y-13166817D02*
X21722206Y-13157293D01*
X21722206Y-13157293D02*
X21712682Y-13138246D01*
X21712682Y-13138246D02*
X21712682Y-13128722D01*
X21712682Y-13128722D02*
X21722206Y-13109674D01*
X21722206Y-13109674D02*
X21741253Y-13100150D01*
X21741253Y-13100150D02*
X21769825Y-13100150D01*
X21769825Y-13100150D02*
X21788873Y-13109674D01*
X21865063Y-13309674D02*
X21874587Y-13300150D01*
X21874587Y-13300150D02*
X21893634Y-13271579D01*
X21893634Y-13271579D02*
X21903158Y-13252531D01*
X21903158Y-13252531D02*
X21912682Y-13223960D01*
X21912682Y-13223960D02*
X21922206Y-13176341D01*
X21922206Y-13176341D02*
X21922206Y-13138246D01*
X21922206Y-13138246D02*
X21912682Y-13090627D01*
X21912682Y-13090627D02*
X21903158Y-13062055D01*
X21903158Y-13062055D02*
X21893634Y-13043008D01*
X21893634Y-13043008D02*
X21874587Y-13014436D01*
X21874587Y-13014436D02*
X21865063Y-13004912D01*
M02*
