%TF.GenerationSoftware,KiCad,Pcbnew,8.0.8-8.0.8-0~ubuntu22.04.1*%
%TF.CreationDate,2025-02-27T16:32:07+08:00*%
%TF.ProjectId,macropad,6d616372-6f70-4616-942e-6b696361645f,rev?*%
%TF.SameCoordinates,Original*%
%TF.FileFunction,Drillmap*%
%TF.FilePolarity,Positive*%
%FSLAX45Y45*%
G04 Gerber Fmt 4.5, Leading zero omitted, Abs format (unit mm)*
G04 Created by KiCad (PCBNEW 8.0.8-8.0.8-0~ubuntu22.04.1) date 2025-02-27 16:32:07*
%MOMM*%
%LPD*%
G01*
G04 APERTURE LIST*
%ADD10C,0.200000*%
%ADD11C,0.170000*%
%ADD12C,0.400000*%
%ADD13C,0.530000*%
G04 APERTURE END LIST*
D10*
X17500000Y-11700000D02*
G75*
G02*
X17100000Y-11300000I0J400000D01*
G01*
X24300000Y-6900000D02*
X24300000Y-11300000D01*
X24300000Y-11300000D02*
G75*
G02*
X23900000Y-11700000I-400000J0D01*
G01*
X17100000Y-6900000D02*
G75*
G02*
X17500000Y-6500000I400000J0D01*
G01*
X23900000Y-6500000D02*
X17500000Y-6500000D01*
X23900000Y-11700000D02*
X17500000Y-11700000D01*
X17100000Y-6900000D02*
X17100000Y-11300000D01*
X23900000Y-6500000D02*
G75*
G02*
X24300000Y-6900000I0J-400000D01*
G01*
D11*
X18203000Y-9948000D02*
X18373000Y-10118000D01*
X18373000Y-9948000D02*
X18203000Y-10118000D01*
X19219000Y-9948000D02*
X19389000Y-10118000D01*
X19389000Y-9948000D02*
X19219000Y-10118000D01*
X20108000Y-9948000D02*
X20278000Y-10118000D01*
X20278000Y-9948000D02*
X20108000Y-10118000D01*
X21124000Y-9948000D02*
X21294000Y-10118000D01*
X21294000Y-9948000D02*
X21124000Y-10118000D01*
X22013000Y-9948000D02*
X22183000Y-10118000D01*
X22183000Y-9948000D02*
X22013000Y-10118000D01*
X23029000Y-9948000D02*
X23199000Y-10118000D01*
X23199000Y-9948000D02*
X23029000Y-10118000D01*
D12*
X18996000Y-10033000D02*
G75*
G02*
X18596000Y-10033000I-200000J0D01*
G01*
X18596000Y-10033000D02*
G75*
G02*
X18996000Y-10033000I200000J0D01*
G01*
X20901000Y-10033000D02*
G75*
G02*
X20501000Y-10033000I-200000J0D01*
G01*
X20501000Y-10033000D02*
G75*
G02*
X20901000Y-10033000I200000J0D01*
G01*
X22806000Y-10033000D02*
G75*
G02*
X22406000Y-10033000I-200000J0D01*
G01*
X22406000Y-10033000D02*
G75*
G02*
X22806000Y-10033000I200000J0D01*
G01*
D13*
X17600000Y-10935000D02*
X17600000Y-11465000D01*
X17335000Y-11200000D02*
X17865000Y-11200000D01*
X20200000Y-8435000D02*
X20200000Y-8965000D01*
X19935000Y-8700000D02*
X20465000Y-8700000D01*
X23800000Y-8435000D02*
X23800000Y-8965000D01*
X23535000Y-8700000D02*
X24065000Y-8700000D01*
X23800000Y-10935000D02*
X23800000Y-11465000D01*
X23535000Y-11200000D02*
X24065000Y-11200000D01*
D10*
X17350777Y-12021484D02*
X17350777Y-11821484D01*
X17350777Y-11821484D02*
X17398396Y-11821484D01*
X17398396Y-11821484D02*
X17426967Y-11831008D01*
X17426967Y-11831008D02*
X17446015Y-11850055D01*
X17446015Y-11850055D02*
X17455539Y-11869103D01*
X17455539Y-11869103D02*
X17465063Y-11907198D01*
X17465063Y-11907198D02*
X17465063Y-11935769D01*
X17465063Y-11935769D02*
X17455539Y-11973865D01*
X17455539Y-11973865D02*
X17446015Y-11992912D01*
X17446015Y-11992912D02*
X17426967Y-12011960D01*
X17426967Y-12011960D02*
X17398396Y-12021484D01*
X17398396Y-12021484D02*
X17350777Y-12021484D01*
X17550777Y-12021484D02*
X17550777Y-11888150D01*
X17550777Y-11926246D02*
X17560301Y-11907198D01*
X17560301Y-11907198D02*
X17569824Y-11897674D01*
X17569824Y-11897674D02*
X17588872Y-11888150D01*
X17588872Y-11888150D02*
X17607920Y-11888150D01*
X17674586Y-12021484D02*
X17674586Y-11888150D01*
X17674586Y-11821484D02*
X17665063Y-11831008D01*
X17665063Y-11831008D02*
X17674586Y-11840531D01*
X17674586Y-11840531D02*
X17684110Y-11831008D01*
X17684110Y-11831008D02*
X17674586Y-11821484D01*
X17674586Y-11821484D02*
X17674586Y-11840531D01*
X17798396Y-12021484D02*
X17779348Y-12011960D01*
X17779348Y-12011960D02*
X17769824Y-11992912D01*
X17769824Y-11992912D02*
X17769824Y-11821484D01*
X17903158Y-12021484D02*
X17884110Y-12011960D01*
X17884110Y-12011960D02*
X17874586Y-11992912D01*
X17874586Y-11992912D02*
X17874586Y-11821484D01*
X18131729Y-12021484D02*
X18131729Y-11821484D01*
X18131729Y-11821484D02*
X18198396Y-11964341D01*
X18198396Y-11964341D02*
X18265063Y-11821484D01*
X18265063Y-11821484D02*
X18265063Y-12021484D01*
X18446015Y-12021484D02*
X18446015Y-11916722D01*
X18446015Y-11916722D02*
X18436491Y-11897674D01*
X18436491Y-11897674D02*
X18417444Y-11888150D01*
X18417444Y-11888150D02*
X18379348Y-11888150D01*
X18379348Y-11888150D02*
X18360301Y-11897674D01*
X18446015Y-12011960D02*
X18426967Y-12021484D01*
X18426967Y-12021484D02*
X18379348Y-12021484D01*
X18379348Y-12021484D02*
X18360301Y-12011960D01*
X18360301Y-12011960D02*
X18350777Y-11992912D01*
X18350777Y-11992912D02*
X18350777Y-11973865D01*
X18350777Y-11973865D02*
X18360301Y-11954817D01*
X18360301Y-11954817D02*
X18379348Y-11945293D01*
X18379348Y-11945293D02*
X18426967Y-11945293D01*
X18426967Y-11945293D02*
X18446015Y-11935769D01*
X18541253Y-11888150D02*
X18541253Y-12088150D01*
X18541253Y-11897674D02*
X18560301Y-11888150D01*
X18560301Y-11888150D02*
X18598396Y-11888150D01*
X18598396Y-11888150D02*
X18617444Y-11897674D01*
X18617444Y-11897674D02*
X18626967Y-11907198D01*
X18626967Y-11907198D02*
X18636491Y-11926246D01*
X18636491Y-11926246D02*
X18636491Y-11983388D01*
X18636491Y-11983388D02*
X18626967Y-12002436D01*
X18626967Y-12002436D02*
X18617444Y-12011960D01*
X18617444Y-12011960D02*
X18598396Y-12021484D01*
X18598396Y-12021484D02*
X18560301Y-12021484D01*
X18560301Y-12021484D02*
X18541253Y-12011960D01*
X18722205Y-12002436D02*
X18731729Y-12011960D01*
X18731729Y-12011960D02*
X18722205Y-12021484D01*
X18722205Y-12021484D02*
X18712682Y-12011960D01*
X18712682Y-12011960D02*
X18722205Y-12002436D01*
X18722205Y-12002436D02*
X18722205Y-12021484D01*
X18722205Y-11897674D02*
X18731729Y-11907198D01*
X18731729Y-11907198D02*
X18722205Y-11916722D01*
X18722205Y-11916722D02*
X18712682Y-11907198D01*
X18712682Y-11907198D02*
X18722205Y-11897674D01*
X18722205Y-11897674D02*
X18722205Y-11916722D01*
D11*
X16920000Y-12265000D02*
X17090000Y-12435000D01*
X17090000Y-12265000D02*
X16920000Y-12435000D01*
D10*
X17455539Y-12441484D02*
X17341253Y-12441484D01*
X17398396Y-12441484D02*
X17398396Y-12241484D01*
X17398396Y-12241484D02*
X17379348Y-12270055D01*
X17379348Y-12270055D02*
X17360301Y-12289103D01*
X17360301Y-12289103D02*
X17341253Y-12298627D01*
X17541253Y-12422436D02*
X17550777Y-12431960D01*
X17550777Y-12431960D02*
X17541253Y-12441484D01*
X17541253Y-12441484D02*
X17531729Y-12431960D01*
X17531729Y-12431960D02*
X17541253Y-12422436D01*
X17541253Y-12422436D02*
X17541253Y-12441484D01*
X17617444Y-12241484D02*
X17750777Y-12241484D01*
X17750777Y-12241484D02*
X17665063Y-12441484D01*
X17865063Y-12241484D02*
X17884110Y-12241484D01*
X17884110Y-12241484D02*
X17903158Y-12251008D01*
X17903158Y-12251008D02*
X17912682Y-12260531D01*
X17912682Y-12260531D02*
X17922205Y-12279579D01*
X17922205Y-12279579D02*
X17931729Y-12317674D01*
X17931729Y-12317674D02*
X17931729Y-12365293D01*
X17931729Y-12365293D02*
X17922205Y-12403388D01*
X17922205Y-12403388D02*
X17912682Y-12422436D01*
X17912682Y-12422436D02*
X17903158Y-12431960D01*
X17903158Y-12431960D02*
X17884110Y-12441484D01*
X17884110Y-12441484D02*
X17865063Y-12441484D01*
X17865063Y-12441484D02*
X17846015Y-12431960D01*
X17846015Y-12431960D02*
X17836491Y-12422436D01*
X17836491Y-12422436D02*
X17826967Y-12403388D01*
X17826967Y-12403388D02*
X17817444Y-12365293D01*
X17817444Y-12365293D02*
X17817444Y-12317674D01*
X17817444Y-12317674D02*
X17826967Y-12279579D01*
X17826967Y-12279579D02*
X17836491Y-12260531D01*
X17836491Y-12260531D02*
X17846015Y-12251008D01*
X17846015Y-12251008D02*
X17865063Y-12241484D01*
X18055539Y-12241484D02*
X18074586Y-12241484D01*
X18074586Y-12241484D02*
X18093634Y-12251008D01*
X18093634Y-12251008D02*
X18103158Y-12260531D01*
X18103158Y-12260531D02*
X18112682Y-12279579D01*
X18112682Y-12279579D02*
X18122205Y-12317674D01*
X18122205Y-12317674D02*
X18122205Y-12365293D01*
X18122205Y-12365293D02*
X18112682Y-12403388D01*
X18112682Y-12403388D02*
X18103158Y-12422436D01*
X18103158Y-12422436D02*
X18093634Y-12431960D01*
X18093634Y-12431960D02*
X18074586Y-12441484D01*
X18074586Y-12441484D02*
X18055539Y-12441484D01*
X18055539Y-12441484D02*
X18036491Y-12431960D01*
X18036491Y-12431960D02*
X18026967Y-12422436D01*
X18026967Y-12422436D02*
X18017444Y-12403388D01*
X18017444Y-12403388D02*
X18007920Y-12365293D01*
X18007920Y-12365293D02*
X18007920Y-12317674D01*
X18007920Y-12317674D02*
X18017444Y-12279579D01*
X18017444Y-12279579D02*
X18026967Y-12260531D01*
X18026967Y-12260531D02*
X18036491Y-12251008D01*
X18036491Y-12251008D02*
X18055539Y-12241484D01*
X18207920Y-12441484D02*
X18207920Y-12308150D01*
X18207920Y-12327198D02*
X18217444Y-12317674D01*
X18217444Y-12317674D02*
X18236491Y-12308150D01*
X18236491Y-12308150D02*
X18265063Y-12308150D01*
X18265063Y-12308150D02*
X18284110Y-12317674D01*
X18284110Y-12317674D02*
X18293634Y-12336722D01*
X18293634Y-12336722D02*
X18293634Y-12441484D01*
X18293634Y-12336722D02*
X18303158Y-12317674D01*
X18303158Y-12317674D02*
X18322205Y-12308150D01*
X18322205Y-12308150D02*
X18350777Y-12308150D01*
X18350777Y-12308150D02*
X18369825Y-12317674D01*
X18369825Y-12317674D02*
X18379348Y-12336722D01*
X18379348Y-12336722D02*
X18379348Y-12441484D01*
X18474586Y-12441484D02*
X18474586Y-12308150D01*
X18474586Y-12327198D02*
X18484110Y-12317674D01*
X18484110Y-12317674D02*
X18503158Y-12308150D01*
X18503158Y-12308150D02*
X18531729Y-12308150D01*
X18531729Y-12308150D02*
X18550777Y-12317674D01*
X18550777Y-12317674D02*
X18560301Y-12336722D01*
X18560301Y-12336722D02*
X18560301Y-12441484D01*
X18560301Y-12336722D02*
X18569825Y-12317674D01*
X18569825Y-12317674D02*
X18588872Y-12308150D01*
X18588872Y-12308150D02*
X18617444Y-12308150D01*
X18617444Y-12308150D02*
X18636491Y-12317674D01*
X18636491Y-12317674D02*
X18646015Y-12336722D01*
X18646015Y-12336722D02*
X18646015Y-12441484D01*
X19036491Y-12231960D02*
X18865063Y-12489103D01*
X19293634Y-12241484D02*
X19312682Y-12241484D01*
X19312682Y-12241484D02*
X19331729Y-12251008D01*
X19331729Y-12251008D02*
X19341253Y-12260531D01*
X19341253Y-12260531D02*
X19350777Y-12279579D01*
X19350777Y-12279579D02*
X19360301Y-12317674D01*
X19360301Y-12317674D02*
X19360301Y-12365293D01*
X19360301Y-12365293D02*
X19350777Y-12403388D01*
X19350777Y-12403388D02*
X19341253Y-12422436D01*
X19341253Y-12422436D02*
X19331729Y-12431960D01*
X19331729Y-12431960D02*
X19312682Y-12441484D01*
X19312682Y-12441484D02*
X19293634Y-12441484D01*
X19293634Y-12441484D02*
X19274587Y-12431960D01*
X19274587Y-12431960D02*
X19265063Y-12422436D01*
X19265063Y-12422436D02*
X19255539Y-12403388D01*
X19255539Y-12403388D02*
X19246015Y-12365293D01*
X19246015Y-12365293D02*
X19246015Y-12317674D01*
X19246015Y-12317674D02*
X19255539Y-12279579D01*
X19255539Y-12279579D02*
X19265063Y-12260531D01*
X19265063Y-12260531D02*
X19274587Y-12251008D01*
X19274587Y-12251008D02*
X19293634Y-12241484D01*
X19446015Y-12422436D02*
X19455539Y-12431960D01*
X19455539Y-12431960D02*
X19446015Y-12441484D01*
X19446015Y-12441484D02*
X19436491Y-12431960D01*
X19436491Y-12431960D02*
X19446015Y-12422436D01*
X19446015Y-12422436D02*
X19446015Y-12441484D01*
X19579348Y-12241484D02*
X19598396Y-12241484D01*
X19598396Y-12241484D02*
X19617444Y-12251008D01*
X19617444Y-12251008D02*
X19626968Y-12260531D01*
X19626968Y-12260531D02*
X19636491Y-12279579D01*
X19636491Y-12279579D02*
X19646015Y-12317674D01*
X19646015Y-12317674D02*
X19646015Y-12365293D01*
X19646015Y-12365293D02*
X19636491Y-12403388D01*
X19636491Y-12403388D02*
X19626968Y-12422436D01*
X19626968Y-12422436D02*
X19617444Y-12431960D01*
X19617444Y-12431960D02*
X19598396Y-12441484D01*
X19598396Y-12441484D02*
X19579348Y-12441484D01*
X19579348Y-12441484D02*
X19560301Y-12431960D01*
X19560301Y-12431960D02*
X19550777Y-12422436D01*
X19550777Y-12422436D02*
X19541253Y-12403388D01*
X19541253Y-12403388D02*
X19531729Y-12365293D01*
X19531729Y-12365293D02*
X19531729Y-12317674D01*
X19531729Y-12317674D02*
X19541253Y-12279579D01*
X19541253Y-12279579D02*
X19550777Y-12260531D01*
X19550777Y-12260531D02*
X19560301Y-12251008D01*
X19560301Y-12251008D02*
X19579348Y-12241484D01*
X19817444Y-12241484D02*
X19779348Y-12241484D01*
X19779348Y-12241484D02*
X19760301Y-12251008D01*
X19760301Y-12251008D02*
X19750777Y-12260531D01*
X19750777Y-12260531D02*
X19731729Y-12289103D01*
X19731729Y-12289103D02*
X19722206Y-12327198D01*
X19722206Y-12327198D02*
X19722206Y-12403388D01*
X19722206Y-12403388D02*
X19731729Y-12422436D01*
X19731729Y-12422436D02*
X19741253Y-12431960D01*
X19741253Y-12431960D02*
X19760301Y-12441484D01*
X19760301Y-12441484D02*
X19798396Y-12441484D01*
X19798396Y-12441484D02*
X19817444Y-12431960D01*
X19817444Y-12431960D02*
X19826968Y-12422436D01*
X19826968Y-12422436D02*
X19836491Y-12403388D01*
X19836491Y-12403388D02*
X19836491Y-12355769D01*
X19836491Y-12355769D02*
X19826968Y-12336722D01*
X19826968Y-12336722D02*
X19817444Y-12327198D01*
X19817444Y-12327198D02*
X19798396Y-12317674D01*
X19798396Y-12317674D02*
X19760301Y-12317674D01*
X19760301Y-12317674D02*
X19741253Y-12327198D01*
X19741253Y-12327198D02*
X19731729Y-12336722D01*
X19731729Y-12336722D02*
X19722206Y-12355769D01*
X20007920Y-12241484D02*
X19969825Y-12241484D01*
X19969825Y-12241484D02*
X19950777Y-12251008D01*
X19950777Y-12251008D02*
X19941253Y-12260531D01*
X19941253Y-12260531D02*
X19922206Y-12289103D01*
X19922206Y-12289103D02*
X19912682Y-12327198D01*
X19912682Y-12327198D02*
X19912682Y-12403388D01*
X19912682Y-12403388D02*
X19922206Y-12422436D01*
X19922206Y-12422436D02*
X19931729Y-12431960D01*
X19931729Y-12431960D02*
X19950777Y-12441484D01*
X19950777Y-12441484D02*
X19988872Y-12441484D01*
X19988872Y-12441484D02*
X20007920Y-12431960D01*
X20007920Y-12431960D02*
X20017444Y-12422436D01*
X20017444Y-12422436D02*
X20026968Y-12403388D01*
X20026968Y-12403388D02*
X20026968Y-12355769D01*
X20026968Y-12355769D02*
X20017444Y-12336722D01*
X20017444Y-12336722D02*
X20007920Y-12327198D01*
X20007920Y-12327198D02*
X19988872Y-12317674D01*
X19988872Y-12317674D02*
X19950777Y-12317674D01*
X19950777Y-12317674D02*
X19931729Y-12327198D01*
X19931729Y-12327198D02*
X19922206Y-12336722D01*
X19922206Y-12336722D02*
X19912682Y-12355769D01*
X20122206Y-12441484D02*
X20160301Y-12441484D01*
X20160301Y-12441484D02*
X20179349Y-12431960D01*
X20179349Y-12431960D02*
X20188872Y-12422436D01*
X20188872Y-12422436D02*
X20207920Y-12393865D01*
X20207920Y-12393865D02*
X20217444Y-12355769D01*
X20217444Y-12355769D02*
X20217444Y-12279579D01*
X20217444Y-12279579D02*
X20207920Y-12260531D01*
X20207920Y-12260531D02*
X20198396Y-12251008D01*
X20198396Y-12251008D02*
X20179349Y-12241484D01*
X20179349Y-12241484D02*
X20141253Y-12241484D01*
X20141253Y-12241484D02*
X20122206Y-12251008D01*
X20122206Y-12251008D02*
X20112682Y-12260531D01*
X20112682Y-12260531D02*
X20103158Y-12279579D01*
X20103158Y-12279579D02*
X20103158Y-12327198D01*
X20103158Y-12327198D02*
X20112682Y-12346246D01*
X20112682Y-12346246D02*
X20122206Y-12355769D01*
X20122206Y-12355769D02*
X20141253Y-12365293D01*
X20141253Y-12365293D02*
X20179349Y-12365293D01*
X20179349Y-12365293D02*
X20198396Y-12355769D01*
X20198396Y-12355769D02*
X20207920Y-12346246D01*
X20207920Y-12346246D02*
X20217444Y-12327198D01*
X20293634Y-12241484D02*
X20293634Y-12279579D01*
X20369825Y-12241484D02*
X20369825Y-12279579D01*
X20665063Y-12517674D02*
X20655539Y-12508150D01*
X20655539Y-12508150D02*
X20636491Y-12479579D01*
X20636491Y-12479579D02*
X20626968Y-12460531D01*
X20626968Y-12460531D02*
X20617444Y-12431960D01*
X20617444Y-12431960D02*
X20607920Y-12384341D01*
X20607920Y-12384341D02*
X20607920Y-12346246D01*
X20607920Y-12346246D02*
X20617444Y-12298627D01*
X20617444Y-12298627D02*
X20626968Y-12270055D01*
X20626968Y-12270055D02*
X20636491Y-12251008D01*
X20636491Y-12251008D02*
X20655539Y-12222436D01*
X20655539Y-12222436D02*
X20665063Y-12212912D01*
X20826968Y-12241484D02*
X20788872Y-12241484D01*
X20788872Y-12241484D02*
X20769825Y-12251008D01*
X20769825Y-12251008D02*
X20760301Y-12260531D01*
X20760301Y-12260531D02*
X20741253Y-12289103D01*
X20741253Y-12289103D02*
X20731730Y-12327198D01*
X20731730Y-12327198D02*
X20731730Y-12403388D01*
X20731730Y-12403388D02*
X20741253Y-12422436D01*
X20741253Y-12422436D02*
X20750777Y-12431960D01*
X20750777Y-12431960D02*
X20769825Y-12441484D01*
X20769825Y-12441484D02*
X20807920Y-12441484D01*
X20807920Y-12441484D02*
X20826968Y-12431960D01*
X20826968Y-12431960D02*
X20836491Y-12422436D01*
X20836491Y-12422436D02*
X20846015Y-12403388D01*
X20846015Y-12403388D02*
X20846015Y-12355769D01*
X20846015Y-12355769D02*
X20836491Y-12336722D01*
X20836491Y-12336722D02*
X20826968Y-12327198D01*
X20826968Y-12327198D02*
X20807920Y-12317674D01*
X20807920Y-12317674D02*
X20769825Y-12317674D01*
X20769825Y-12317674D02*
X20750777Y-12327198D01*
X20750777Y-12327198D02*
X20741253Y-12336722D01*
X20741253Y-12336722D02*
X20731730Y-12355769D01*
X21084111Y-12441484D02*
X21084111Y-12241484D01*
X21169825Y-12441484D02*
X21169825Y-12336722D01*
X21169825Y-12336722D02*
X21160301Y-12317674D01*
X21160301Y-12317674D02*
X21141253Y-12308150D01*
X21141253Y-12308150D02*
X21112682Y-12308150D01*
X21112682Y-12308150D02*
X21093634Y-12317674D01*
X21093634Y-12317674D02*
X21084111Y-12327198D01*
X21293634Y-12441484D02*
X21274587Y-12431960D01*
X21274587Y-12431960D02*
X21265063Y-12422436D01*
X21265063Y-12422436D02*
X21255539Y-12403388D01*
X21255539Y-12403388D02*
X21255539Y-12346246D01*
X21255539Y-12346246D02*
X21265063Y-12327198D01*
X21265063Y-12327198D02*
X21274587Y-12317674D01*
X21274587Y-12317674D02*
X21293634Y-12308150D01*
X21293634Y-12308150D02*
X21322206Y-12308150D01*
X21322206Y-12308150D02*
X21341253Y-12317674D01*
X21341253Y-12317674D02*
X21350777Y-12327198D01*
X21350777Y-12327198D02*
X21360301Y-12346246D01*
X21360301Y-12346246D02*
X21360301Y-12403388D01*
X21360301Y-12403388D02*
X21350777Y-12422436D01*
X21350777Y-12422436D02*
X21341253Y-12431960D01*
X21341253Y-12431960D02*
X21322206Y-12441484D01*
X21322206Y-12441484D02*
X21293634Y-12441484D01*
X21474587Y-12441484D02*
X21455539Y-12431960D01*
X21455539Y-12431960D02*
X21446015Y-12412912D01*
X21446015Y-12412912D02*
X21446015Y-12241484D01*
X21626968Y-12431960D02*
X21607920Y-12441484D01*
X21607920Y-12441484D02*
X21569825Y-12441484D01*
X21569825Y-12441484D02*
X21550777Y-12431960D01*
X21550777Y-12431960D02*
X21541253Y-12412912D01*
X21541253Y-12412912D02*
X21541253Y-12336722D01*
X21541253Y-12336722D02*
X21550777Y-12317674D01*
X21550777Y-12317674D02*
X21569825Y-12308150D01*
X21569825Y-12308150D02*
X21607920Y-12308150D01*
X21607920Y-12308150D02*
X21626968Y-12317674D01*
X21626968Y-12317674D02*
X21636492Y-12336722D01*
X21636492Y-12336722D02*
X21636492Y-12355769D01*
X21636492Y-12355769D02*
X21541253Y-12374817D01*
X21712682Y-12431960D02*
X21731730Y-12441484D01*
X21731730Y-12441484D02*
X21769825Y-12441484D01*
X21769825Y-12441484D02*
X21788873Y-12431960D01*
X21788873Y-12431960D02*
X21798396Y-12412912D01*
X21798396Y-12412912D02*
X21798396Y-12403388D01*
X21798396Y-12403388D02*
X21788873Y-12384341D01*
X21788873Y-12384341D02*
X21769825Y-12374817D01*
X21769825Y-12374817D02*
X21741253Y-12374817D01*
X21741253Y-12374817D02*
X21722206Y-12365293D01*
X21722206Y-12365293D02*
X21712682Y-12346246D01*
X21712682Y-12346246D02*
X21712682Y-12336722D01*
X21712682Y-12336722D02*
X21722206Y-12317674D01*
X21722206Y-12317674D02*
X21741253Y-12308150D01*
X21741253Y-12308150D02*
X21769825Y-12308150D01*
X21769825Y-12308150D02*
X21788873Y-12317674D01*
X21865063Y-12517674D02*
X21874587Y-12508150D01*
X21874587Y-12508150D02*
X21893634Y-12479579D01*
X21893634Y-12479579D02*
X21903158Y-12460531D01*
X21903158Y-12460531D02*
X21912682Y-12431960D01*
X21912682Y-12431960D02*
X21922206Y-12384341D01*
X21922206Y-12384341D02*
X21922206Y-12346246D01*
X21922206Y-12346246D02*
X21912682Y-12298627D01*
X21912682Y-12298627D02*
X21903158Y-12270055D01*
X21903158Y-12270055D02*
X21893634Y-12251008D01*
X21893634Y-12251008D02*
X21874587Y-12222436D01*
X21874587Y-12222436D02*
X21865063Y-12212912D01*
X22226968Y-12517674D02*
X22217444Y-12508150D01*
X22217444Y-12508150D02*
X22198396Y-12479579D01*
X22198396Y-12479579D02*
X22188873Y-12460531D01*
X22188873Y-12460531D02*
X22179349Y-12431960D01*
X22179349Y-12431960D02*
X22169825Y-12384341D01*
X22169825Y-12384341D02*
X22169825Y-12346246D01*
X22169825Y-12346246D02*
X22179349Y-12298627D01*
X22179349Y-12298627D02*
X22188873Y-12270055D01*
X22188873Y-12270055D02*
X22198396Y-12251008D01*
X22198396Y-12251008D02*
X22217444Y-12222436D01*
X22217444Y-12222436D02*
X22226968Y-12212912D01*
X22303158Y-12308150D02*
X22303158Y-12441484D01*
X22303158Y-12327198D02*
X22312682Y-12317674D01*
X22312682Y-12317674D02*
X22331730Y-12308150D01*
X22331730Y-12308150D02*
X22360301Y-12308150D01*
X22360301Y-12308150D02*
X22379349Y-12317674D01*
X22379349Y-12317674D02*
X22388872Y-12336722D01*
X22388872Y-12336722D02*
X22388872Y-12441484D01*
X22512682Y-12441484D02*
X22493634Y-12431960D01*
X22493634Y-12431960D02*
X22484111Y-12422436D01*
X22484111Y-12422436D02*
X22474587Y-12403388D01*
X22474587Y-12403388D02*
X22474587Y-12346246D01*
X22474587Y-12346246D02*
X22484111Y-12327198D01*
X22484111Y-12327198D02*
X22493634Y-12317674D01*
X22493634Y-12317674D02*
X22512682Y-12308150D01*
X22512682Y-12308150D02*
X22541253Y-12308150D01*
X22541253Y-12308150D02*
X22560301Y-12317674D01*
X22560301Y-12317674D02*
X22569825Y-12327198D01*
X22569825Y-12327198D02*
X22579349Y-12346246D01*
X22579349Y-12346246D02*
X22579349Y-12403388D01*
X22579349Y-12403388D02*
X22569825Y-12422436D01*
X22569825Y-12422436D02*
X22560301Y-12431960D01*
X22560301Y-12431960D02*
X22541253Y-12441484D01*
X22541253Y-12441484D02*
X22512682Y-12441484D01*
X22636492Y-12308150D02*
X22712682Y-12308150D01*
X22665063Y-12241484D02*
X22665063Y-12412912D01*
X22665063Y-12412912D02*
X22674587Y-12431960D01*
X22674587Y-12431960D02*
X22693634Y-12441484D01*
X22693634Y-12441484D02*
X22712682Y-12441484D01*
X22931730Y-12308150D02*
X22931730Y-12508150D01*
X22931730Y-12317674D02*
X22950777Y-12308150D01*
X22950777Y-12308150D02*
X22988873Y-12308150D01*
X22988873Y-12308150D02*
X23007920Y-12317674D01*
X23007920Y-12317674D02*
X23017444Y-12327198D01*
X23017444Y-12327198D02*
X23026968Y-12346246D01*
X23026968Y-12346246D02*
X23026968Y-12403388D01*
X23026968Y-12403388D02*
X23017444Y-12422436D01*
X23017444Y-12422436D02*
X23007920Y-12431960D01*
X23007920Y-12431960D02*
X22988873Y-12441484D01*
X22988873Y-12441484D02*
X22950777Y-12441484D01*
X22950777Y-12441484D02*
X22931730Y-12431960D01*
X23141253Y-12441484D02*
X23122206Y-12431960D01*
X23122206Y-12431960D02*
X23112682Y-12412912D01*
X23112682Y-12412912D02*
X23112682Y-12241484D01*
X23303158Y-12441484D02*
X23303158Y-12336722D01*
X23303158Y-12336722D02*
X23293634Y-12317674D01*
X23293634Y-12317674D02*
X23274587Y-12308150D01*
X23274587Y-12308150D02*
X23236492Y-12308150D01*
X23236492Y-12308150D02*
X23217444Y-12317674D01*
X23303158Y-12431960D02*
X23284111Y-12441484D01*
X23284111Y-12441484D02*
X23236492Y-12441484D01*
X23236492Y-12441484D02*
X23217444Y-12431960D01*
X23217444Y-12431960D02*
X23207920Y-12412912D01*
X23207920Y-12412912D02*
X23207920Y-12393865D01*
X23207920Y-12393865D02*
X23217444Y-12374817D01*
X23217444Y-12374817D02*
X23236492Y-12365293D01*
X23236492Y-12365293D02*
X23284111Y-12365293D01*
X23284111Y-12365293D02*
X23303158Y-12355769D01*
X23369825Y-12308150D02*
X23446015Y-12308150D01*
X23398396Y-12241484D02*
X23398396Y-12412912D01*
X23398396Y-12412912D02*
X23407920Y-12431960D01*
X23407920Y-12431960D02*
X23426968Y-12441484D01*
X23426968Y-12441484D02*
X23446015Y-12441484D01*
X23588873Y-12431960D02*
X23569825Y-12441484D01*
X23569825Y-12441484D02*
X23531730Y-12441484D01*
X23531730Y-12441484D02*
X23512682Y-12431960D01*
X23512682Y-12431960D02*
X23503158Y-12412912D01*
X23503158Y-12412912D02*
X23503158Y-12336722D01*
X23503158Y-12336722D02*
X23512682Y-12317674D01*
X23512682Y-12317674D02*
X23531730Y-12308150D01*
X23531730Y-12308150D02*
X23569825Y-12308150D01*
X23569825Y-12308150D02*
X23588873Y-12317674D01*
X23588873Y-12317674D02*
X23598396Y-12336722D01*
X23598396Y-12336722D02*
X23598396Y-12355769D01*
X23598396Y-12355769D02*
X23503158Y-12374817D01*
X23769825Y-12441484D02*
X23769825Y-12241484D01*
X23769825Y-12431960D02*
X23750777Y-12441484D01*
X23750777Y-12441484D02*
X23712682Y-12441484D01*
X23712682Y-12441484D02*
X23693634Y-12431960D01*
X23693634Y-12431960D02*
X23684111Y-12422436D01*
X23684111Y-12422436D02*
X23674587Y-12403388D01*
X23674587Y-12403388D02*
X23674587Y-12346246D01*
X23674587Y-12346246D02*
X23684111Y-12327198D01*
X23684111Y-12327198D02*
X23693634Y-12317674D01*
X23693634Y-12317674D02*
X23712682Y-12308150D01*
X23712682Y-12308150D02*
X23750777Y-12308150D01*
X23750777Y-12308150D02*
X23769825Y-12317674D01*
X23846015Y-12517674D02*
X23855539Y-12508150D01*
X23855539Y-12508150D02*
X23874587Y-12479579D01*
X23874587Y-12479579D02*
X23884111Y-12460531D01*
X23884111Y-12460531D02*
X23893634Y-12431960D01*
X23893634Y-12431960D02*
X23903158Y-12384341D01*
X23903158Y-12384341D02*
X23903158Y-12346246D01*
X23903158Y-12346246D02*
X23893634Y-12298627D01*
X23893634Y-12298627D02*
X23884111Y-12270055D01*
X23884111Y-12270055D02*
X23874587Y-12251008D01*
X23874587Y-12251008D02*
X23855539Y-12222436D01*
X23855539Y-12222436D02*
X23846015Y-12212912D01*
X17090000Y-12640000D02*
G75*
G02*
X16890000Y-12640000I-100000J0D01*
G01*
X16890000Y-12640000D02*
G75*
G02*
X17090000Y-12640000I100000J0D01*
G01*
X17436491Y-12598150D02*
X17436491Y-12731484D01*
X17388872Y-12521960D02*
X17341253Y-12664817D01*
X17341253Y-12664817D02*
X17465063Y-12664817D01*
X17541253Y-12712436D02*
X17550777Y-12721960D01*
X17550777Y-12721960D02*
X17541253Y-12731484D01*
X17541253Y-12731484D02*
X17531729Y-12721960D01*
X17531729Y-12721960D02*
X17541253Y-12712436D01*
X17541253Y-12712436D02*
X17541253Y-12731484D01*
X17674586Y-12531484D02*
X17693634Y-12531484D01*
X17693634Y-12531484D02*
X17712682Y-12541008D01*
X17712682Y-12541008D02*
X17722205Y-12550531D01*
X17722205Y-12550531D02*
X17731729Y-12569579D01*
X17731729Y-12569579D02*
X17741253Y-12607674D01*
X17741253Y-12607674D02*
X17741253Y-12655293D01*
X17741253Y-12655293D02*
X17731729Y-12693388D01*
X17731729Y-12693388D02*
X17722205Y-12712436D01*
X17722205Y-12712436D02*
X17712682Y-12721960D01*
X17712682Y-12721960D02*
X17693634Y-12731484D01*
X17693634Y-12731484D02*
X17674586Y-12731484D01*
X17674586Y-12731484D02*
X17655539Y-12721960D01*
X17655539Y-12721960D02*
X17646015Y-12712436D01*
X17646015Y-12712436D02*
X17636491Y-12693388D01*
X17636491Y-12693388D02*
X17626967Y-12655293D01*
X17626967Y-12655293D02*
X17626967Y-12607674D01*
X17626967Y-12607674D02*
X17636491Y-12569579D01*
X17636491Y-12569579D02*
X17646015Y-12550531D01*
X17646015Y-12550531D02*
X17655539Y-12541008D01*
X17655539Y-12541008D02*
X17674586Y-12531484D01*
X17865063Y-12531484D02*
X17884110Y-12531484D01*
X17884110Y-12531484D02*
X17903158Y-12541008D01*
X17903158Y-12541008D02*
X17912682Y-12550531D01*
X17912682Y-12550531D02*
X17922205Y-12569579D01*
X17922205Y-12569579D02*
X17931729Y-12607674D01*
X17931729Y-12607674D02*
X17931729Y-12655293D01*
X17931729Y-12655293D02*
X17922205Y-12693388D01*
X17922205Y-12693388D02*
X17912682Y-12712436D01*
X17912682Y-12712436D02*
X17903158Y-12721960D01*
X17903158Y-12721960D02*
X17884110Y-12731484D01*
X17884110Y-12731484D02*
X17865063Y-12731484D01*
X17865063Y-12731484D02*
X17846015Y-12721960D01*
X17846015Y-12721960D02*
X17836491Y-12712436D01*
X17836491Y-12712436D02*
X17826967Y-12693388D01*
X17826967Y-12693388D02*
X17817444Y-12655293D01*
X17817444Y-12655293D02*
X17817444Y-12607674D01*
X17817444Y-12607674D02*
X17826967Y-12569579D01*
X17826967Y-12569579D02*
X17836491Y-12550531D01*
X17836491Y-12550531D02*
X17846015Y-12541008D01*
X17846015Y-12541008D02*
X17865063Y-12531484D01*
X18055539Y-12531484D02*
X18074586Y-12531484D01*
X18074586Y-12531484D02*
X18093634Y-12541008D01*
X18093634Y-12541008D02*
X18103158Y-12550531D01*
X18103158Y-12550531D02*
X18112682Y-12569579D01*
X18112682Y-12569579D02*
X18122205Y-12607674D01*
X18122205Y-12607674D02*
X18122205Y-12655293D01*
X18122205Y-12655293D02*
X18112682Y-12693388D01*
X18112682Y-12693388D02*
X18103158Y-12712436D01*
X18103158Y-12712436D02*
X18093634Y-12721960D01*
X18093634Y-12721960D02*
X18074586Y-12731484D01*
X18074586Y-12731484D02*
X18055539Y-12731484D01*
X18055539Y-12731484D02*
X18036491Y-12721960D01*
X18036491Y-12721960D02*
X18026967Y-12712436D01*
X18026967Y-12712436D02*
X18017444Y-12693388D01*
X18017444Y-12693388D02*
X18007920Y-12655293D01*
X18007920Y-12655293D02*
X18007920Y-12607674D01*
X18007920Y-12607674D02*
X18017444Y-12569579D01*
X18017444Y-12569579D02*
X18026967Y-12550531D01*
X18026967Y-12550531D02*
X18036491Y-12541008D01*
X18036491Y-12541008D02*
X18055539Y-12531484D01*
X18207920Y-12731484D02*
X18207920Y-12598150D01*
X18207920Y-12617198D02*
X18217444Y-12607674D01*
X18217444Y-12607674D02*
X18236491Y-12598150D01*
X18236491Y-12598150D02*
X18265063Y-12598150D01*
X18265063Y-12598150D02*
X18284110Y-12607674D01*
X18284110Y-12607674D02*
X18293634Y-12626722D01*
X18293634Y-12626722D02*
X18293634Y-12731484D01*
X18293634Y-12626722D02*
X18303158Y-12607674D01*
X18303158Y-12607674D02*
X18322205Y-12598150D01*
X18322205Y-12598150D02*
X18350777Y-12598150D01*
X18350777Y-12598150D02*
X18369825Y-12607674D01*
X18369825Y-12607674D02*
X18379348Y-12626722D01*
X18379348Y-12626722D02*
X18379348Y-12731484D01*
X18474586Y-12731484D02*
X18474586Y-12598150D01*
X18474586Y-12617198D02*
X18484110Y-12607674D01*
X18484110Y-12607674D02*
X18503158Y-12598150D01*
X18503158Y-12598150D02*
X18531729Y-12598150D01*
X18531729Y-12598150D02*
X18550777Y-12607674D01*
X18550777Y-12607674D02*
X18560301Y-12626722D01*
X18560301Y-12626722D02*
X18560301Y-12731484D01*
X18560301Y-12626722D02*
X18569825Y-12607674D01*
X18569825Y-12607674D02*
X18588872Y-12598150D01*
X18588872Y-12598150D02*
X18617444Y-12598150D01*
X18617444Y-12598150D02*
X18636491Y-12607674D01*
X18636491Y-12607674D02*
X18646015Y-12626722D01*
X18646015Y-12626722D02*
X18646015Y-12731484D01*
X19036491Y-12521960D02*
X18865063Y-12779103D01*
X19293634Y-12531484D02*
X19312682Y-12531484D01*
X19312682Y-12531484D02*
X19331729Y-12541008D01*
X19331729Y-12541008D02*
X19341253Y-12550531D01*
X19341253Y-12550531D02*
X19350777Y-12569579D01*
X19350777Y-12569579D02*
X19360301Y-12607674D01*
X19360301Y-12607674D02*
X19360301Y-12655293D01*
X19360301Y-12655293D02*
X19350777Y-12693388D01*
X19350777Y-12693388D02*
X19341253Y-12712436D01*
X19341253Y-12712436D02*
X19331729Y-12721960D01*
X19331729Y-12721960D02*
X19312682Y-12731484D01*
X19312682Y-12731484D02*
X19293634Y-12731484D01*
X19293634Y-12731484D02*
X19274587Y-12721960D01*
X19274587Y-12721960D02*
X19265063Y-12712436D01*
X19265063Y-12712436D02*
X19255539Y-12693388D01*
X19255539Y-12693388D02*
X19246015Y-12655293D01*
X19246015Y-12655293D02*
X19246015Y-12607674D01*
X19246015Y-12607674D02*
X19255539Y-12569579D01*
X19255539Y-12569579D02*
X19265063Y-12550531D01*
X19265063Y-12550531D02*
X19274587Y-12541008D01*
X19274587Y-12541008D02*
X19293634Y-12531484D01*
X19446015Y-12712436D02*
X19455539Y-12721960D01*
X19455539Y-12721960D02*
X19446015Y-12731484D01*
X19446015Y-12731484D02*
X19436491Y-12721960D01*
X19436491Y-12721960D02*
X19446015Y-12712436D01*
X19446015Y-12712436D02*
X19446015Y-12731484D01*
X19646015Y-12731484D02*
X19531729Y-12731484D01*
X19588872Y-12731484D02*
X19588872Y-12531484D01*
X19588872Y-12531484D02*
X19569825Y-12560055D01*
X19569825Y-12560055D02*
X19550777Y-12579103D01*
X19550777Y-12579103D02*
X19531729Y-12588627D01*
X19826968Y-12531484D02*
X19731729Y-12531484D01*
X19731729Y-12531484D02*
X19722206Y-12626722D01*
X19722206Y-12626722D02*
X19731729Y-12617198D01*
X19731729Y-12617198D02*
X19750777Y-12607674D01*
X19750777Y-12607674D02*
X19798396Y-12607674D01*
X19798396Y-12607674D02*
X19817444Y-12617198D01*
X19817444Y-12617198D02*
X19826968Y-12626722D01*
X19826968Y-12626722D02*
X19836491Y-12645769D01*
X19836491Y-12645769D02*
X19836491Y-12693388D01*
X19836491Y-12693388D02*
X19826968Y-12712436D01*
X19826968Y-12712436D02*
X19817444Y-12721960D01*
X19817444Y-12721960D02*
X19798396Y-12731484D01*
X19798396Y-12731484D02*
X19750777Y-12731484D01*
X19750777Y-12731484D02*
X19731729Y-12721960D01*
X19731729Y-12721960D02*
X19722206Y-12712436D01*
X19903158Y-12531484D02*
X20036491Y-12531484D01*
X20036491Y-12531484D02*
X19950777Y-12731484D01*
X20207920Y-12531484D02*
X20112682Y-12531484D01*
X20112682Y-12531484D02*
X20103158Y-12626722D01*
X20103158Y-12626722D02*
X20112682Y-12617198D01*
X20112682Y-12617198D02*
X20131729Y-12607674D01*
X20131729Y-12607674D02*
X20179349Y-12607674D01*
X20179349Y-12607674D02*
X20198396Y-12617198D01*
X20198396Y-12617198D02*
X20207920Y-12626722D01*
X20207920Y-12626722D02*
X20217444Y-12645769D01*
X20217444Y-12645769D02*
X20217444Y-12693388D01*
X20217444Y-12693388D02*
X20207920Y-12712436D01*
X20207920Y-12712436D02*
X20198396Y-12721960D01*
X20198396Y-12721960D02*
X20179349Y-12731484D01*
X20179349Y-12731484D02*
X20131729Y-12731484D01*
X20131729Y-12731484D02*
X20112682Y-12721960D01*
X20112682Y-12721960D02*
X20103158Y-12712436D01*
X20293634Y-12531484D02*
X20293634Y-12569579D01*
X20369825Y-12531484D02*
X20369825Y-12569579D01*
X20665063Y-12807674D02*
X20655539Y-12798150D01*
X20655539Y-12798150D02*
X20636491Y-12769579D01*
X20636491Y-12769579D02*
X20626968Y-12750531D01*
X20626968Y-12750531D02*
X20617444Y-12721960D01*
X20617444Y-12721960D02*
X20607920Y-12674341D01*
X20607920Y-12674341D02*
X20607920Y-12636246D01*
X20607920Y-12636246D02*
X20617444Y-12588627D01*
X20617444Y-12588627D02*
X20626968Y-12560055D01*
X20626968Y-12560055D02*
X20636491Y-12541008D01*
X20636491Y-12541008D02*
X20655539Y-12512436D01*
X20655539Y-12512436D02*
X20665063Y-12502912D01*
X20722206Y-12531484D02*
X20846015Y-12531484D01*
X20846015Y-12531484D02*
X20779349Y-12607674D01*
X20779349Y-12607674D02*
X20807920Y-12607674D01*
X20807920Y-12607674D02*
X20826968Y-12617198D01*
X20826968Y-12617198D02*
X20836491Y-12626722D01*
X20836491Y-12626722D02*
X20846015Y-12645769D01*
X20846015Y-12645769D02*
X20846015Y-12693388D01*
X20846015Y-12693388D02*
X20836491Y-12712436D01*
X20836491Y-12712436D02*
X20826968Y-12721960D01*
X20826968Y-12721960D02*
X20807920Y-12731484D01*
X20807920Y-12731484D02*
X20750777Y-12731484D01*
X20750777Y-12731484D02*
X20731730Y-12721960D01*
X20731730Y-12721960D02*
X20722206Y-12712436D01*
X21084111Y-12731484D02*
X21084111Y-12531484D01*
X21169825Y-12731484D02*
X21169825Y-12626722D01*
X21169825Y-12626722D02*
X21160301Y-12607674D01*
X21160301Y-12607674D02*
X21141253Y-12598150D01*
X21141253Y-12598150D02*
X21112682Y-12598150D01*
X21112682Y-12598150D02*
X21093634Y-12607674D01*
X21093634Y-12607674D02*
X21084111Y-12617198D01*
X21293634Y-12731484D02*
X21274587Y-12721960D01*
X21274587Y-12721960D02*
X21265063Y-12712436D01*
X21265063Y-12712436D02*
X21255539Y-12693388D01*
X21255539Y-12693388D02*
X21255539Y-12636246D01*
X21255539Y-12636246D02*
X21265063Y-12617198D01*
X21265063Y-12617198D02*
X21274587Y-12607674D01*
X21274587Y-12607674D02*
X21293634Y-12598150D01*
X21293634Y-12598150D02*
X21322206Y-12598150D01*
X21322206Y-12598150D02*
X21341253Y-12607674D01*
X21341253Y-12607674D02*
X21350777Y-12617198D01*
X21350777Y-12617198D02*
X21360301Y-12636246D01*
X21360301Y-12636246D02*
X21360301Y-12693388D01*
X21360301Y-12693388D02*
X21350777Y-12712436D01*
X21350777Y-12712436D02*
X21341253Y-12721960D01*
X21341253Y-12721960D02*
X21322206Y-12731484D01*
X21322206Y-12731484D02*
X21293634Y-12731484D01*
X21474587Y-12731484D02*
X21455539Y-12721960D01*
X21455539Y-12721960D02*
X21446015Y-12702912D01*
X21446015Y-12702912D02*
X21446015Y-12531484D01*
X21626968Y-12721960D02*
X21607920Y-12731484D01*
X21607920Y-12731484D02*
X21569825Y-12731484D01*
X21569825Y-12731484D02*
X21550777Y-12721960D01*
X21550777Y-12721960D02*
X21541253Y-12702912D01*
X21541253Y-12702912D02*
X21541253Y-12626722D01*
X21541253Y-12626722D02*
X21550777Y-12607674D01*
X21550777Y-12607674D02*
X21569825Y-12598150D01*
X21569825Y-12598150D02*
X21607920Y-12598150D01*
X21607920Y-12598150D02*
X21626968Y-12607674D01*
X21626968Y-12607674D02*
X21636492Y-12626722D01*
X21636492Y-12626722D02*
X21636492Y-12645769D01*
X21636492Y-12645769D02*
X21541253Y-12664817D01*
X21712682Y-12721960D02*
X21731730Y-12731484D01*
X21731730Y-12731484D02*
X21769825Y-12731484D01*
X21769825Y-12731484D02*
X21788873Y-12721960D01*
X21788873Y-12721960D02*
X21798396Y-12702912D01*
X21798396Y-12702912D02*
X21798396Y-12693388D01*
X21798396Y-12693388D02*
X21788873Y-12674341D01*
X21788873Y-12674341D02*
X21769825Y-12664817D01*
X21769825Y-12664817D02*
X21741253Y-12664817D01*
X21741253Y-12664817D02*
X21722206Y-12655293D01*
X21722206Y-12655293D02*
X21712682Y-12636246D01*
X21712682Y-12636246D02*
X21712682Y-12626722D01*
X21712682Y-12626722D02*
X21722206Y-12607674D01*
X21722206Y-12607674D02*
X21741253Y-12598150D01*
X21741253Y-12598150D02*
X21769825Y-12598150D01*
X21769825Y-12598150D02*
X21788873Y-12607674D01*
X21865063Y-12807674D02*
X21874587Y-12798150D01*
X21874587Y-12798150D02*
X21893634Y-12769579D01*
X21893634Y-12769579D02*
X21903158Y-12750531D01*
X21903158Y-12750531D02*
X21912682Y-12721960D01*
X21912682Y-12721960D02*
X21922206Y-12674341D01*
X21922206Y-12674341D02*
X21922206Y-12636246D01*
X21922206Y-12636246D02*
X21912682Y-12588627D01*
X21912682Y-12588627D02*
X21903158Y-12560055D01*
X21903158Y-12560055D02*
X21893634Y-12541008D01*
X21893634Y-12541008D02*
X21874587Y-12512436D01*
X21874587Y-12512436D02*
X21865063Y-12502912D01*
X22226968Y-12807674D02*
X22217444Y-12798150D01*
X22217444Y-12798150D02*
X22198396Y-12769579D01*
X22198396Y-12769579D02*
X22188873Y-12750531D01*
X22188873Y-12750531D02*
X22179349Y-12721960D01*
X22179349Y-12721960D02*
X22169825Y-12674341D01*
X22169825Y-12674341D02*
X22169825Y-12636246D01*
X22169825Y-12636246D02*
X22179349Y-12588627D01*
X22179349Y-12588627D02*
X22188873Y-12560055D01*
X22188873Y-12560055D02*
X22198396Y-12541008D01*
X22198396Y-12541008D02*
X22217444Y-12512436D01*
X22217444Y-12512436D02*
X22226968Y-12502912D01*
X22303158Y-12598150D02*
X22303158Y-12731484D01*
X22303158Y-12617198D02*
X22312682Y-12607674D01*
X22312682Y-12607674D02*
X22331730Y-12598150D01*
X22331730Y-12598150D02*
X22360301Y-12598150D01*
X22360301Y-12598150D02*
X22379349Y-12607674D01*
X22379349Y-12607674D02*
X22388872Y-12626722D01*
X22388872Y-12626722D02*
X22388872Y-12731484D01*
X22512682Y-12731484D02*
X22493634Y-12721960D01*
X22493634Y-12721960D02*
X22484111Y-12712436D01*
X22484111Y-12712436D02*
X22474587Y-12693388D01*
X22474587Y-12693388D02*
X22474587Y-12636246D01*
X22474587Y-12636246D02*
X22484111Y-12617198D01*
X22484111Y-12617198D02*
X22493634Y-12607674D01*
X22493634Y-12607674D02*
X22512682Y-12598150D01*
X22512682Y-12598150D02*
X22541253Y-12598150D01*
X22541253Y-12598150D02*
X22560301Y-12607674D01*
X22560301Y-12607674D02*
X22569825Y-12617198D01*
X22569825Y-12617198D02*
X22579349Y-12636246D01*
X22579349Y-12636246D02*
X22579349Y-12693388D01*
X22579349Y-12693388D02*
X22569825Y-12712436D01*
X22569825Y-12712436D02*
X22560301Y-12721960D01*
X22560301Y-12721960D02*
X22541253Y-12731484D01*
X22541253Y-12731484D02*
X22512682Y-12731484D01*
X22636492Y-12598150D02*
X22712682Y-12598150D01*
X22665063Y-12531484D02*
X22665063Y-12702912D01*
X22665063Y-12702912D02*
X22674587Y-12721960D01*
X22674587Y-12721960D02*
X22693634Y-12731484D01*
X22693634Y-12731484D02*
X22712682Y-12731484D01*
X22931730Y-12598150D02*
X22931730Y-12798150D01*
X22931730Y-12607674D02*
X22950777Y-12598150D01*
X22950777Y-12598150D02*
X22988873Y-12598150D01*
X22988873Y-12598150D02*
X23007920Y-12607674D01*
X23007920Y-12607674D02*
X23017444Y-12617198D01*
X23017444Y-12617198D02*
X23026968Y-12636246D01*
X23026968Y-12636246D02*
X23026968Y-12693388D01*
X23026968Y-12693388D02*
X23017444Y-12712436D01*
X23017444Y-12712436D02*
X23007920Y-12721960D01*
X23007920Y-12721960D02*
X22988873Y-12731484D01*
X22988873Y-12731484D02*
X22950777Y-12731484D01*
X22950777Y-12731484D02*
X22931730Y-12721960D01*
X23141253Y-12731484D02*
X23122206Y-12721960D01*
X23122206Y-12721960D02*
X23112682Y-12702912D01*
X23112682Y-12702912D02*
X23112682Y-12531484D01*
X23303158Y-12731484D02*
X23303158Y-12626722D01*
X23303158Y-12626722D02*
X23293634Y-12607674D01*
X23293634Y-12607674D02*
X23274587Y-12598150D01*
X23274587Y-12598150D02*
X23236492Y-12598150D01*
X23236492Y-12598150D02*
X23217444Y-12607674D01*
X23303158Y-12721960D02*
X23284111Y-12731484D01*
X23284111Y-12731484D02*
X23236492Y-12731484D01*
X23236492Y-12731484D02*
X23217444Y-12721960D01*
X23217444Y-12721960D02*
X23207920Y-12702912D01*
X23207920Y-12702912D02*
X23207920Y-12683865D01*
X23207920Y-12683865D02*
X23217444Y-12664817D01*
X23217444Y-12664817D02*
X23236492Y-12655293D01*
X23236492Y-12655293D02*
X23284111Y-12655293D01*
X23284111Y-12655293D02*
X23303158Y-12645769D01*
X23369825Y-12598150D02*
X23446015Y-12598150D01*
X23398396Y-12531484D02*
X23398396Y-12702912D01*
X23398396Y-12702912D02*
X23407920Y-12721960D01*
X23407920Y-12721960D02*
X23426968Y-12731484D01*
X23426968Y-12731484D02*
X23446015Y-12731484D01*
X23588873Y-12721960D02*
X23569825Y-12731484D01*
X23569825Y-12731484D02*
X23531730Y-12731484D01*
X23531730Y-12731484D02*
X23512682Y-12721960D01*
X23512682Y-12721960D02*
X23503158Y-12702912D01*
X23503158Y-12702912D02*
X23503158Y-12626722D01*
X23503158Y-12626722D02*
X23512682Y-12607674D01*
X23512682Y-12607674D02*
X23531730Y-12598150D01*
X23531730Y-12598150D02*
X23569825Y-12598150D01*
X23569825Y-12598150D02*
X23588873Y-12607674D01*
X23588873Y-12607674D02*
X23598396Y-12626722D01*
X23598396Y-12626722D02*
X23598396Y-12645769D01*
X23598396Y-12645769D02*
X23503158Y-12664817D01*
X23769825Y-12731484D02*
X23769825Y-12531484D01*
X23769825Y-12721960D02*
X23750777Y-12731484D01*
X23750777Y-12731484D02*
X23712682Y-12731484D01*
X23712682Y-12731484D02*
X23693634Y-12721960D01*
X23693634Y-12721960D02*
X23684111Y-12712436D01*
X23684111Y-12712436D02*
X23674587Y-12693388D01*
X23674587Y-12693388D02*
X23674587Y-12636246D01*
X23674587Y-12636246D02*
X23684111Y-12617198D01*
X23684111Y-12617198D02*
X23693634Y-12607674D01*
X23693634Y-12607674D02*
X23712682Y-12598150D01*
X23712682Y-12598150D02*
X23750777Y-12598150D01*
X23750777Y-12598150D02*
X23769825Y-12607674D01*
X23846015Y-12807674D02*
X23855539Y-12798150D01*
X23855539Y-12798150D02*
X23874587Y-12769579D01*
X23874587Y-12769579D02*
X23884111Y-12750531D01*
X23884111Y-12750531D02*
X23893634Y-12721960D01*
X23893634Y-12721960D02*
X23903158Y-12674341D01*
X23903158Y-12674341D02*
X23903158Y-12636246D01*
X23903158Y-12636246D02*
X23893634Y-12588627D01*
X23893634Y-12588627D02*
X23884111Y-12560055D01*
X23884111Y-12560055D02*
X23874587Y-12541008D01*
X23874587Y-12541008D02*
X23855539Y-12512436D01*
X23855539Y-12512436D02*
X23846015Y-12502912D01*
X16990000Y-12860000D02*
X16990000Y-13060000D01*
X16890000Y-12960000D02*
X17090000Y-12960000D01*
X17446015Y-12851484D02*
X17350777Y-12851484D01*
X17350777Y-12851484D02*
X17341253Y-12946722D01*
X17341253Y-12946722D02*
X17350777Y-12937198D01*
X17350777Y-12937198D02*
X17369824Y-12927674D01*
X17369824Y-12927674D02*
X17417444Y-12927674D01*
X17417444Y-12927674D02*
X17436491Y-12937198D01*
X17436491Y-12937198D02*
X17446015Y-12946722D01*
X17446015Y-12946722D02*
X17455539Y-12965769D01*
X17455539Y-12965769D02*
X17455539Y-13013388D01*
X17455539Y-13013388D02*
X17446015Y-13032436D01*
X17446015Y-13032436D02*
X17436491Y-13041960D01*
X17436491Y-13041960D02*
X17417444Y-13051484D01*
X17417444Y-13051484D02*
X17369824Y-13051484D01*
X17369824Y-13051484D02*
X17350777Y-13041960D01*
X17350777Y-13041960D02*
X17341253Y-13032436D01*
X17541253Y-13032436D02*
X17550777Y-13041960D01*
X17550777Y-13041960D02*
X17541253Y-13051484D01*
X17541253Y-13051484D02*
X17531729Y-13041960D01*
X17531729Y-13041960D02*
X17541253Y-13032436D01*
X17541253Y-13032436D02*
X17541253Y-13051484D01*
X17617444Y-12851484D02*
X17741253Y-12851484D01*
X17741253Y-12851484D02*
X17674586Y-12927674D01*
X17674586Y-12927674D02*
X17703158Y-12927674D01*
X17703158Y-12927674D02*
X17722205Y-12937198D01*
X17722205Y-12937198D02*
X17731729Y-12946722D01*
X17731729Y-12946722D02*
X17741253Y-12965769D01*
X17741253Y-12965769D02*
X17741253Y-13013388D01*
X17741253Y-13013388D02*
X17731729Y-13032436D01*
X17731729Y-13032436D02*
X17722205Y-13041960D01*
X17722205Y-13041960D02*
X17703158Y-13051484D01*
X17703158Y-13051484D02*
X17646015Y-13051484D01*
X17646015Y-13051484D02*
X17626967Y-13041960D01*
X17626967Y-13041960D02*
X17617444Y-13032436D01*
X17865063Y-12851484D02*
X17884110Y-12851484D01*
X17884110Y-12851484D02*
X17903158Y-12861008D01*
X17903158Y-12861008D02*
X17912682Y-12870531D01*
X17912682Y-12870531D02*
X17922205Y-12889579D01*
X17922205Y-12889579D02*
X17931729Y-12927674D01*
X17931729Y-12927674D02*
X17931729Y-12975293D01*
X17931729Y-12975293D02*
X17922205Y-13013388D01*
X17922205Y-13013388D02*
X17912682Y-13032436D01*
X17912682Y-13032436D02*
X17903158Y-13041960D01*
X17903158Y-13041960D02*
X17884110Y-13051484D01*
X17884110Y-13051484D02*
X17865063Y-13051484D01*
X17865063Y-13051484D02*
X17846015Y-13041960D01*
X17846015Y-13041960D02*
X17836491Y-13032436D01*
X17836491Y-13032436D02*
X17826967Y-13013388D01*
X17826967Y-13013388D02*
X17817444Y-12975293D01*
X17817444Y-12975293D02*
X17817444Y-12927674D01*
X17817444Y-12927674D02*
X17826967Y-12889579D01*
X17826967Y-12889579D02*
X17836491Y-12870531D01*
X17836491Y-12870531D02*
X17846015Y-12861008D01*
X17846015Y-12861008D02*
X17865063Y-12851484D01*
X18055539Y-12851484D02*
X18074586Y-12851484D01*
X18074586Y-12851484D02*
X18093634Y-12861008D01*
X18093634Y-12861008D02*
X18103158Y-12870531D01*
X18103158Y-12870531D02*
X18112682Y-12889579D01*
X18112682Y-12889579D02*
X18122205Y-12927674D01*
X18122205Y-12927674D02*
X18122205Y-12975293D01*
X18122205Y-12975293D02*
X18112682Y-13013388D01*
X18112682Y-13013388D02*
X18103158Y-13032436D01*
X18103158Y-13032436D02*
X18093634Y-13041960D01*
X18093634Y-13041960D02*
X18074586Y-13051484D01*
X18074586Y-13051484D02*
X18055539Y-13051484D01*
X18055539Y-13051484D02*
X18036491Y-13041960D01*
X18036491Y-13041960D02*
X18026967Y-13032436D01*
X18026967Y-13032436D02*
X18017444Y-13013388D01*
X18017444Y-13013388D02*
X18007920Y-12975293D01*
X18007920Y-12975293D02*
X18007920Y-12927674D01*
X18007920Y-12927674D02*
X18017444Y-12889579D01*
X18017444Y-12889579D02*
X18026967Y-12870531D01*
X18026967Y-12870531D02*
X18036491Y-12861008D01*
X18036491Y-12861008D02*
X18055539Y-12851484D01*
X18207920Y-13051484D02*
X18207920Y-12918150D01*
X18207920Y-12937198D02*
X18217444Y-12927674D01*
X18217444Y-12927674D02*
X18236491Y-12918150D01*
X18236491Y-12918150D02*
X18265063Y-12918150D01*
X18265063Y-12918150D02*
X18284110Y-12927674D01*
X18284110Y-12927674D02*
X18293634Y-12946722D01*
X18293634Y-12946722D02*
X18293634Y-13051484D01*
X18293634Y-12946722D02*
X18303158Y-12927674D01*
X18303158Y-12927674D02*
X18322205Y-12918150D01*
X18322205Y-12918150D02*
X18350777Y-12918150D01*
X18350777Y-12918150D02*
X18369825Y-12927674D01*
X18369825Y-12927674D02*
X18379348Y-12946722D01*
X18379348Y-12946722D02*
X18379348Y-13051484D01*
X18474586Y-13051484D02*
X18474586Y-12918150D01*
X18474586Y-12937198D02*
X18484110Y-12927674D01*
X18484110Y-12927674D02*
X18503158Y-12918150D01*
X18503158Y-12918150D02*
X18531729Y-12918150D01*
X18531729Y-12918150D02*
X18550777Y-12927674D01*
X18550777Y-12927674D02*
X18560301Y-12946722D01*
X18560301Y-12946722D02*
X18560301Y-13051484D01*
X18560301Y-12946722D02*
X18569825Y-12927674D01*
X18569825Y-12927674D02*
X18588872Y-12918150D01*
X18588872Y-12918150D02*
X18617444Y-12918150D01*
X18617444Y-12918150D02*
X18636491Y-12927674D01*
X18636491Y-12927674D02*
X18646015Y-12946722D01*
X18646015Y-12946722D02*
X18646015Y-13051484D01*
X19036491Y-12841960D02*
X18865063Y-13099103D01*
X19293634Y-12851484D02*
X19312682Y-12851484D01*
X19312682Y-12851484D02*
X19331729Y-12861008D01*
X19331729Y-12861008D02*
X19341253Y-12870531D01*
X19341253Y-12870531D02*
X19350777Y-12889579D01*
X19350777Y-12889579D02*
X19360301Y-12927674D01*
X19360301Y-12927674D02*
X19360301Y-12975293D01*
X19360301Y-12975293D02*
X19350777Y-13013388D01*
X19350777Y-13013388D02*
X19341253Y-13032436D01*
X19341253Y-13032436D02*
X19331729Y-13041960D01*
X19331729Y-13041960D02*
X19312682Y-13051484D01*
X19312682Y-13051484D02*
X19293634Y-13051484D01*
X19293634Y-13051484D02*
X19274587Y-13041960D01*
X19274587Y-13041960D02*
X19265063Y-13032436D01*
X19265063Y-13032436D02*
X19255539Y-13013388D01*
X19255539Y-13013388D02*
X19246015Y-12975293D01*
X19246015Y-12975293D02*
X19246015Y-12927674D01*
X19246015Y-12927674D02*
X19255539Y-12889579D01*
X19255539Y-12889579D02*
X19265063Y-12870531D01*
X19265063Y-12870531D02*
X19274587Y-12861008D01*
X19274587Y-12861008D02*
X19293634Y-12851484D01*
X19446015Y-13032436D02*
X19455539Y-13041960D01*
X19455539Y-13041960D02*
X19446015Y-13051484D01*
X19446015Y-13051484D02*
X19436491Y-13041960D01*
X19436491Y-13041960D02*
X19446015Y-13032436D01*
X19446015Y-13032436D02*
X19446015Y-13051484D01*
X19531729Y-12870531D02*
X19541253Y-12861008D01*
X19541253Y-12861008D02*
X19560301Y-12851484D01*
X19560301Y-12851484D02*
X19607920Y-12851484D01*
X19607920Y-12851484D02*
X19626968Y-12861008D01*
X19626968Y-12861008D02*
X19636491Y-12870531D01*
X19636491Y-12870531D02*
X19646015Y-12889579D01*
X19646015Y-12889579D02*
X19646015Y-12908627D01*
X19646015Y-12908627D02*
X19636491Y-12937198D01*
X19636491Y-12937198D02*
X19522206Y-13051484D01*
X19522206Y-13051484D02*
X19646015Y-13051484D01*
X19769825Y-12851484D02*
X19788872Y-12851484D01*
X19788872Y-12851484D02*
X19807920Y-12861008D01*
X19807920Y-12861008D02*
X19817444Y-12870531D01*
X19817444Y-12870531D02*
X19826968Y-12889579D01*
X19826968Y-12889579D02*
X19836491Y-12927674D01*
X19836491Y-12927674D02*
X19836491Y-12975293D01*
X19836491Y-12975293D02*
X19826968Y-13013388D01*
X19826968Y-13013388D02*
X19817444Y-13032436D01*
X19817444Y-13032436D02*
X19807920Y-13041960D01*
X19807920Y-13041960D02*
X19788872Y-13051484D01*
X19788872Y-13051484D02*
X19769825Y-13051484D01*
X19769825Y-13051484D02*
X19750777Y-13041960D01*
X19750777Y-13041960D02*
X19741253Y-13032436D01*
X19741253Y-13032436D02*
X19731729Y-13013388D01*
X19731729Y-13013388D02*
X19722206Y-12975293D01*
X19722206Y-12975293D02*
X19722206Y-12927674D01*
X19722206Y-12927674D02*
X19731729Y-12889579D01*
X19731729Y-12889579D02*
X19741253Y-12870531D01*
X19741253Y-12870531D02*
X19750777Y-12861008D01*
X19750777Y-12861008D02*
X19769825Y-12851484D01*
X19950777Y-12937198D02*
X19931729Y-12927674D01*
X19931729Y-12927674D02*
X19922206Y-12918150D01*
X19922206Y-12918150D02*
X19912682Y-12899103D01*
X19912682Y-12899103D02*
X19912682Y-12889579D01*
X19912682Y-12889579D02*
X19922206Y-12870531D01*
X19922206Y-12870531D02*
X19931729Y-12861008D01*
X19931729Y-12861008D02*
X19950777Y-12851484D01*
X19950777Y-12851484D02*
X19988872Y-12851484D01*
X19988872Y-12851484D02*
X20007920Y-12861008D01*
X20007920Y-12861008D02*
X20017444Y-12870531D01*
X20017444Y-12870531D02*
X20026968Y-12889579D01*
X20026968Y-12889579D02*
X20026968Y-12899103D01*
X20026968Y-12899103D02*
X20017444Y-12918150D01*
X20017444Y-12918150D02*
X20007920Y-12927674D01*
X20007920Y-12927674D02*
X19988872Y-12937198D01*
X19988872Y-12937198D02*
X19950777Y-12937198D01*
X19950777Y-12937198D02*
X19931729Y-12946722D01*
X19931729Y-12946722D02*
X19922206Y-12956246D01*
X19922206Y-12956246D02*
X19912682Y-12975293D01*
X19912682Y-12975293D02*
X19912682Y-13013388D01*
X19912682Y-13013388D02*
X19922206Y-13032436D01*
X19922206Y-13032436D02*
X19931729Y-13041960D01*
X19931729Y-13041960D02*
X19950777Y-13051484D01*
X19950777Y-13051484D02*
X19988872Y-13051484D01*
X19988872Y-13051484D02*
X20007920Y-13041960D01*
X20007920Y-13041960D02*
X20017444Y-13032436D01*
X20017444Y-13032436D02*
X20026968Y-13013388D01*
X20026968Y-13013388D02*
X20026968Y-12975293D01*
X20026968Y-12975293D02*
X20017444Y-12956246D01*
X20017444Y-12956246D02*
X20007920Y-12946722D01*
X20007920Y-12946722D02*
X19988872Y-12937198D01*
X20093634Y-12851484D02*
X20226968Y-12851484D01*
X20226968Y-12851484D02*
X20141253Y-13051484D01*
X20293634Y-12851484D02*
X20293634Y-12889579D01*
X20369825Y-12851484D02*
X20369825Y-12889579D01*
X20665063Y-13127674D02*
X20655539Y-13118150D01*
X20655539Y-13118150D02*
X20636491Y-13089579D01*
X20636491Y-13089579D02*
X20626968Y-13070531D01*
X20626968Y-13070531D02*
X20617444Y-13041960D01*
X20617444Y-13041960D02*
X20607920Y-12994341D01*
X20607920Y-12994341D02*
X20607920Y-12956246D01*
X20607920Y-12956246D02*
X20617444Y-12908627D01*
X20617444Y-12908627D02*
X20626968Y-12880055D01*
X20626968Y-12880055D02*
X20636491Y-12861008D01*
X20636491Y-12861008D02*
X20655539Y-12832436D01*
X20655539Y-12832436D02*
X20665063Y-12822912D01*
X20826968Y-12918150D02*
X20826968Y-13051484D01*
X20779349Y-12841960D02*
X20731730Y-12984817D01*
X20731730Y-12984817D02*
X20855539Y-12984817D01*
X21084111Y-13051484D02*
X21084111Y-12851484D01*
X21169825Y-13051484D02*
X21169825Y-12946722D01*
X21169825Y-12946722D02*
X21160301Y-12927674D01*
X21160301Y-12927674D02*
X21141253Y-12918150D01*
X21141253Y-12918150D02*
X21112682Y-12918150D01*
X21112682Y-12918150D02*
X21093634Y-12927674D01*
X21093634Y-12927674D02*
X21084111Y-12937198D01*
X21293634Y-13051484D02*
X21274587Y-13041960D01*
X21274587Y-13041960D02*
X21265063Y-13032436D01*
X21265063Y-13032436D02*
X21255539Y-13013388D01*
X21255539Y-13013388D02*
X21255539Y-12956246D01*
X21255539Y-12956246D02*
X21265063Y-12937198D01*
X21265063Y-12937198D02*
X21274587Y-12927674D01*
X21274587Y-12927674D02*
X21293634Y-12918150D01*
X21293634Y-12918150D02*
X21322206Y-12918150D01*
X21322206Y-12918150D02*
X21341253Y-12927674D01*
X21341253Y-12927674D02*
X21350777Y-12937198D01*
X21350777Y-12937198D02*
X21360301Y-12956246D01*
X21360301Y-12956246D02*
X21360301Y-13013388D01*
X21360301Y-13013388D02*
X21350777Y-13032436D01*
X21350777Y-13032436D02*
X21341253Y-13041960D01*
X21341253Y-13041960D02*
X21322206Y-13051484D01*
X21322206Y-13051484D02*
X21293634Y-13051484D01*
X21474587Y-13051484D02*
X21455539Y-13041960D01*
X21455539Y-13041960D02*
X21446015Y-13022912D01*
X21446015Y-13022912D02*
X21446015Y-12851484D01*
X21626968Y-13041960D02*
X21607920Y-13051484D01*
X21607920Y-13051484D02*
X21569825Y-13051484D01*
X21569825Y-13051484D02*
X21550777Y-13041960D01*
X21550777Y-13041960D02*
X21541253Y-13022912D01*
X21541253Y-13022912D02*
X21541253Y-12946722D01*
X21541253Y-12946722D02*
X21550777Y-12927674D01*
X21550777Y-12927674D02*
X21569825Y-12918150D01*
X21569825Y-12918150D02*
X21607920Y-12918150D01*
X21607920Y-12918150D02*
X21626968Y-12927674D01*
X21626968Y-12927674D02*
X21636492Y-12946722D01*
X21636492Y-12946722D02*
X21636492Y-12965769D01*
X21636492Y-12965769D02*
X21541253Y-12984817D01*
X21712682Y-13041960D02*
X21731730Y-13051484D01*
X21731730Y-13051484D02*
X21769825Y-13051484D01*
X21769825Y-13051484D02*
X21788873Y-13041960D01*
X21788873Y-13041960D02*
X21798396Y-13022912D01*
X21798396Y-13022912D02*
X21798396Y-13013388D01*
X21798396Y-13013388D02*
X21788873Y-12994341D01*
X21788873Y-12994341D02*
X21769825Y-12984817D01*
X21769825Y-12984817D02*
X21741253Y-12984817D01*
X21741253Y-12984817D02*
X21722206Y-12975293D01*
X21722206Y-12975293D02*
X21712682Y-12956246D01*
X21712682Y-12956246D02*
X21712682Y-12946722D01*
X21712682Y-12946722D02*
X21722206Y-12927674D01*
X21722206Y-12927674D02*
X21741253Y-12918150D01*
X21741253Y-12918150D02*
X21769825Y-12918150D01*
X21769825Y-12918150D02*
X21788873Y-12927674D01*
X21865063Y-13127674D02*
X21874587Y-13118150D01*
X21874587Y-13118150D02*
X21893634Y-13089579D01*
X21893634Y-13089579D02*
X21903158Y-13070531D01*
X21903158Y-13070531D02*
X21912682Y-13041960D01*
X21912682Y-13041960D02*
X21922206Y-12994341D01*
X21922206Y-12994341D02*
X21922206Y-12956246D01*
X21922206Y-12956246D02*
X21912682Y-12908627D01*
X21912682Y-12908627D02*
X21903158Y-12880055D01*
X21903158Y-12880055D02*
X21893634Y-12861008D01*
X21893634Y-12861008D02*
X21874587Y-12832436D01*
X21874587Y-12832436D02*
X21865063Y-12822912D01*
X22226968Y-13127674D02*
X22217444Y-13118150D01*
X22217444Y-13118150D02*
X22198396Y-13089579D01*
X22198396Y-13089579D02*
X22188873Y-13070531D01*
X22188873Y-13070531D02*
X22179349Y-13041960D01*
X22179349Y-13041960D02*
X22169825Y-12994341D01*
X22169825Y-12994341D02*
X22169825Y-12956246D01*
X22169825Y-12956246D02*
X22179349Y-12908627D01*
X22179349Y-12908627D02*
X22188873Y-12880055D01*
X22188873Y-12880055D02*
X22198396Y-12861008D01*
X22198396Y-12861008D02*
X22217444Y-12832436D01*
X22217444Y-12832436D02*
X22226968Y-12822912D01*
X22303158Y-12918150D02*
X22303158Y-13051484D01*
X22303158Y-12937198D02*
X22312682Y-12927674D01*
X22312682Y-12927674D02*
X22331730Y-12918150D01*
X22331730Y-12918150D02*
X22360301Y-12918150D01*
X22360301Y-12918150D02*
X22379349Y-12927674D01*
X22379349Y-12927674D02*
X22388872Y-12946722D01*
X22388872Y-12946722D02*
X22388872Y-13051484D01*
X22512682Y-13051484D02*
X22493634Y-13041960D01*
X22493634Y-13041960D02*
X22484111Y-13032436D01*
X22484111Y-13032436D02*
X22474587Y-13013388D01*
X22474587Y-13013388D02*
X22474587Y-12956246D01*
X22474587Y-12956246D02*
X22484111Y-12937198D01*
X22484111Y-12937198D02*
X22493634Y-12927674D01*
X22493634Y-12927674D02*
X22512682Y-12918150D01*
X22512682Y-12918150D02*
X22541253Y-12918150D01*
X22541253Y-12918150D02*
X22560301Y-12927674D01*
X22560301Y-12927674D02*
X22569825Y-12937198D01*
X22569825Y-12937198D02*
X22579349Y-12956246D01*
X22579349Y-12956246D02*
X22579349Y-13013388D01*
X22579349Y-13013388D02*
X22569825Y-13032436D01*
X22569825Y-13032436D02*
X22560301Y-13041960D01*
X22560301Y-13041960D02*
X22541253Y-13051484D01*
X22541253Y-13051484D02*
X22512682Y-13051484D01*
X22636492Y-12918150D02*
X22712682Y-12918150D01*
X22665063Y-12851484D02*
X22665063Y-13022912D01*
X22665063Y-13022912D02*
X22674587Y-13041960D01*
X22674587Y-13041960D02*
X22693634Y-13051484D01*
X22693634Y-13051484D02*
X22712682Y-13051484D01*
X22931730Y-12918150D02*
X22931730Y-13118150D01*
X22931730Y-12927674D02*
X22950777Y-12918150D01*
X22950777Y-12918150D02*
X22988873Y-12918150D01*
X22988873Y-12918150D02*
X23007920Y-12927674D01*
X23007920Y-12927674D02*
X23017444Y-12937198D01*
X23017444Y-12937198D02*
X23026968Y-12956246D01*
X23026968Y-12956246D02*
X23026968Y-13013388D01*
X23026968Y-13013388D02*
X23017444Y-13032436D01*
X23017444Y-13032436D02*
X23007920Y-13041960D01*
X23007920Y-13041960D02*
X22988873Y-13051484D01*
X22988873Y-13051484D02*
X22950777Y-13051484D01*
X22950777Y-13051484D02*
X22931730Y-13041960D01*
X23141253Y-13051484D02*
X23122206Y-13041960D01*
X23122206Y-13041960D02*
X23112682Y-13022912D01*
X23112682Y-13022912D02*
X23112682Y-12851484D01*
X23303158Y-13051484D02*
X23303158Y-12946722D01*
X23303158Y-12946722D02*
X23293634Y-12927674D01*
X23293634Y-12927674D02*
X23274587Y-12918150D01*
X23274587Y-12918150D02*
X23236492Y-12918150D01*
X23236492Y-12918150D02*
X23217444Y-12927674D01*
X23303158Y-13041960D02*
X23284111Y-13051484D01*
X23284111Y-13051484D02*
X23236492Y-13051484D01*
X23236492Y-13051484D02*
X23217444Y-13041960D01*
X23217444Y-13041960D02*
X23207920Y-13022912D01*
X23207920Y-13022912D02*
X23207920Y-13003865D01*
X23207920Y-13003865D02*
X23217444Y-12984817D01*
X23217444Y-12984817D02*
X23236492Y-12975293D01*
X23236492Y-12975293D02*
X23284111Y-12975293D01*
X23284111Y-12975293D02*
X23303158Y-12965769D01*
X23369825Y-12918150D02*
X23446015Y-12918150D01*
X23398396Y-12851484D02*
X23398396Y-13022912D01*
X23398396Y-13022912D02*
X23407920Y-13041960D01*
X23407920Y-13041960D02*
X23426968Y-13051484D01*
X23426968Y-13051484D02*
X23446015Y-13051484D01*
X23588873Y-13041960D02*
X23569825Y-13051484D01*
X23569825Y-13051484D02*
X23531730Y-13051484D01*
X23531730Y-13051484D02*
X23512682Y-13041960D01*
X23512682Y-13041960D02*
X23503158Y-13022912D01*
X23503158Y-13022912D02*
X23503158Y-12946722D01*
X23503158Y-12946722D02*
X23512682Y-12927674D01*
X23512682Y-12927674D02*
X23531730Y-12918150D01*
X23531730Y-12918150D02*
X23569825Y-12918150D01*
X23569825Y-12918150D02*
X23588873Y-12927674D01*
X23588873Y-12927674D02*
X23598396Y-12946722D01*
X23598396Y-12946722D02*
X23598396Y-12965769D01*
X23598396Y-12965769D02*
X23503158Y-12984817D01*
X23769825Y-13051484D02*
X23769825Y-12851484D01*
X23769825Y-13041960D02*
X23750777Y-13051484D01*
X23750777Y-13051484D02*
X23712682Y-13051484D01*
X23712682Y-13051484D02*
X23693634Y-13041960D01*
X23693634Y-13041960D02*
X23684111Y-13032436D01*
X23684111Y-13032436D02*
X23674587Y-13013388D01*
X23674587Y-13013388D02*
X23674587Y-12956246D01*
X23674587Y-12956246D02*
X23684111Y-12937198D01*
X23684111Y-12937198D02*
X23693634Y-12927674D01*
X23693634Y-12927674D02*
X23712682Y-12918150D01*
X23712682Y-12918150D02*
X23750777Y-12918150D01*
X23750777Y-12918150D02*
X23769825Y-12927674D01*
X23846015Y-13127674D02*
X23855539Y-13118150D01*
X23855539Y-13118150D02*
X23874587Y-13089579D01*
X23874587Y-13089579D02*
X23884111Y-13070531D01*
X23884111Y-13070531D02*
X23893634Y-13041960D01*
X23893634Y-13041960D02*
X23903158Y-12994341D01*
X23903158Y-12994341D02*
X23903158Y-12956246D01*
X23903158Y-12956246D02*
X23893634Y-12908627D01*
X23893634Y-12908627D02*
X23884111Y-12880055D01*
X23884111Y-12880055D02*
X23874587Y-12861008D01*
X23874587Y-12861008D02*
X23855539Y-12832436D01*
X23855539Y-12832436D02*
X23846015Y-12822912D01*
M02*
