G04 #@! TF.GenerationSoftware,KiCad,Pcbnew,8.0.9-8.0.9-0~ubuntu22.04.1*
G04 #@! TF.CreationDate,2025-05-05T00:51:58+08:00*
G04 #@! TF.ProjectId,macropad,6d616372-6f70-4616-942e-6b696361645f,rev?*
G04 #@! TF.SameCoordinates,Original*
G04 #@! TF.FileFunction,Soldermask,Bot*
G04 #@! TF.FilePolarity,Negative*
%FSLAX46Y46*%
G04 Gerber Fmt 4.6, Leading zero omitted, Abs format (unit mm)*
G04 Created by KiCad (PCBNEW 8.0.9-8.0.9-0~ubuntu22.04.1) date 2025-05-05 00:51:58*
%MOMM*%
%LPD*%
G01*
G04 APERTURE LIST*
G04 Aperture macros list*
%AMRoundRect*
0 Rectangle with rounded corners*
0 $1 Rounding radius*
0 $2 $3 $4 $5 $6 $7 $8 $9 X,Y pos of 4 corners*
0 Add a 4 corners polygon primitive as box body*
4,1,4,$2,$3,$4,$5,$6,$7,$8,$9,$2,$3,0*
0 Add four circle primitives for the rounded corners*
1,1,$1+$1,$2,$3*
1,1,$1+$1,$4,$5*
1,1,$1+$1,$6,$7*
1,1,$1+$1,$8,$9*
0 Add four rect primitives between the rounded corners*
20,1,$1+$1,$2,$3,$4,$5,0*
20,1,$1+$1,$4,$5,$6,$7,0*
20,1,$1+$1,$6,$7,$8,$9,0*
20,1,$1+$1,$8,$9,$2,$3,0*%
%AMRotRect*
0 Rectangle, with rotation*
0 The origin of the aperture is its center*
0 $1 length*
0 $2 width*
0 $3 Rotation angle, in degrees counterclockwise*
0 Add horizontal line*
21,1,$1,$2,0,0,$3*%
G04 Aperture macros list end*
%ADD10C,1.700000*%
%ADD11C,4.000000*%
%ADD12C,2.200000*%
%ADD13C,5.300000*%
%ADD14RoundRect,0.250000X-0.600000X-0.600000X0.600000X-0.600000X0.600000X0.600000X-0.600000X0.600000X0*%
%ADD15C,0.650000*%
%ADD16O,2.100000X1.000000*%
%ADD17O,1.600000X1.000000*%
%ADD18RoundRect,0.225000X0.225000X0.375000X-0.225000X0.375000X-0.225000X-0.375000X0.225000X-0.375000X0*%
%ADD19RoundRect,0.225000X0.375000X-0.225000X0.375000X0.225000X-0.375000X0.225000X-0.375000X-0.225000X0*%
%ADD20RoundRect,0.225000X-0.225000X-0.375000X0.225000X-0.375000X0.225000X0.375000X-0.225000X0.375000X0*%
%ADD21RoundRect,0.250000X-0.097227X0.574524X-0.574524X0.097227X0.097227X-0.574524X0.574524X-0.097227X0*%
%ADD22RoundRect,0.250000X-0.574524X-0.097227X-0.097227X-0.574524X0.574524X0.097227X0.097227X0.574524X0*%
%ADD23RoundRect,0.250000X0.337500X0.475000X-0.337500X0.475000X-0.337500X-0.475000X0.337500X-0.475000X0*%
%ADD24RoundRect,0.250000X0.350000X0.450000X-0.350000X0.450000X-0.350000X-0.450000X0.350000X-0.450000X0*%
%ADD25RoundRect,0.250000X0.574524X0.097227X0.097227X0.574524X-0.574524X-0.097227X-0.097227X-0.574524X0*%
%ADD26RotRect,1.500000X0.550000X315.000000*%
%ADD27RotRect,1.500000X0.550000X225.000000*%
%ADD28RoundRect,0.225000X-0.375000X0.225000X-0.375000X-0.225000X0.375000X-0.225000X0.375000X0.225000X0*%
%ADD29RoundRect,0.250000X0.097227X-0.574524X0.574524X-0.097227X-0.097227X0.574524X-0.574524X0.097227X0*%
%ADD30R,1.800000X2.100000*%
%ADD31RoundRect,0.250000X-0.337500X-0.475000X0.337500X-0.475000X0.337500X0.475000X-0.337500X0.475000X0*%
%ADD32C,0.600000*%
G04 APERTURE END LIST*
D10*
X190500000Y-114220000D03*
D11*
X195580000Y-114220000D03*
D10*
X200660000Y-114220000D03*
D12*
X198120000Y-109140000D03*
X191770000Y-111680000D03*
D10*
X209550000Y-152400000D03*
D11*
X214630000Y-152400000D03*
D10*
X219710000Y-152400000D03*
D12*
X217170000Y-147320000D03*
X210820000Y-149860000D03*
D10*
X152400000Y-114220000D03*
D11*
X157480000Y-114220000D03*
D10*
X162560000Y-114220000D03*
D12*
X160020000Y-109140000D03*
X153670000Y-111680000D03*
D10*
X228600000Y-95250000D03*
D11*
X233680000Y-95250000D03*
D10*
X238760000Y-95250000D03*
D12*
X236220000Y-90170000D03*
X229870000Y-92710000D03*
D10*
X190500000Y-152400000D03*
D11*
X195580000Y-152400000D03*
D10*
X200660000Y-152400000D03*
D12*
X198120000Y-147320000D03*
X191770000Y-149860000D03*
D10*
X95250000Y-95250000D03*
D11*
X100330000Y-95250000D03*
D10*
X105410000Y-95250000D03*
D12*
X102870000Y-90170000D03*
X96520000Y-92710000D03*
D10*
X152400000Y-152400000D03*
D11*
X157480000Y-152400000D03*
D10*
X162560000Y-152400000D03*
D12*
X160020000Y-147320000D03*
X153670000Y-149860000D03*
D10*
X190500000Y-95250000D03*
D11*
X195580000Y-95250000D03*
D10*
X200660000Y-95250000D03*
D12*
X198120000Y-90170000D03*
X191770000Y-92710000D03*
D10*
X228600000Y-114220000D03*
D11*
X233680000Y-114220000D03*
D10*
X238760000Y-114220000D03*
D12*
X236220000Y-109140000D03*
X229870000Y-111680000D03*
D10*
X171450000Y-133350000D03*
D11*
X176530000Y-133350000D03*
D10*
X181610000Y-133350000D03*
D12*
X179070000Y-128270000D03*
X172720000Y-130810000D03*
D10*
X247650000Y-114220000D03*
D11*
X252730000Y-114220000D03*
D10*
X257810000Y-114220000D03*
D12*
X255270000Y-109140000D03*
X248920000Y-111680000D03*
D10*
X133350000Y-133350000D03*
D11*
X138430000Y-133350000D03*
D10*
X143510000Y-133350000D03*
D12*
X140970000Y-128270000D03*
X134620000Y-130810000D03*
D10*
X114300000Y-95250000D03*
D11*
X119380000Y-95250000D03*
D10*
X124460000Y-95250000D03*
D12*
X121920000Y-90170000D03*
X115570000Y-92710000D03*
D10*
X209550000Y-95250000D03*
D11*
X214630000Y-95250000D03*
D10*
X219710000Y-95250000D03*
D12*
X217170000Y-90170000D03*
X210820000Y-92710000D03*
D13*
X167000000Y-123600000D03*
D10*
X209550000Y-114220000D03*
D11*
X214630000Y-114220000D03*
D10*
X219710000Y-114220000D03*
D12*
X217170000Y-109140000D03*
X210820000Y-111680000D03*
D10*
X76200000Y-95250000D03*
D11*
X81280000Y-95250000D03*
D10*
X86360000Y-95250000D03*
D12*
X83820000Y-90170000D03*
X77470000Y-92710000D03*
D10*
X228600000Y-133350000D03*
D11*
X233680000Y-133350000D03*
D10*
X238760000Y-133350000D03*
D12*
X236220000Y-128270000D03*
X229870000Y-130810000D03*
D10*
X190500000Y-133350000D03*
D11*
X195580000Y-133350000D03*
D10*
X200660000Y-133350000D03*
D12*
X198120000Y-128270000D03*
X191770000Y-130810000D03*
D10*
X76200000Y-133350000D03*
D11*
X81280000Y-133350000D03*
D10*
X86360000Y-133350000D03*
D12*
X83820000Y-128270000D03*
X77470000Y-130810000D03*
D10*
X247650000Y-133350000D03*
D11*
X252730000Y-133350000D03*
D10*
X257810000Y-133350000D03*
D12*
X255270000Y-128270000D03*
X248920000Y-130810000D03*
D10*
X114300000Y-133350000D03*
D11*
X119380000Y-133350000D03*
D10*
X124460000Y-133350000D03*
D12*
X121920000Y-128270000D03*
X115570000Y-130810000D03*
D10*
X247650000Y-152400000D03*
D11*
X252730000Y-152400000D03*
D10*
X257810000Y-152400000D03*
D12*
X255270000Y-147320000D03*
X248920000Y-149860000D03*
D10*
X95250000Y-114220000D03*
D11*
X100330000Y-114220000D03*
D10*
X105410000Y-114220000D03*
D12*
X102870000Y-109140000D03*
X96520000Y-111680000D03*
D10*
X133350000Y-114220000D03*
D11*
X138430000Y-114220000D03*
D10*
X143510000Y-114220000D03*
D12*
X140970000Y-109140000D03*
X134620000Y-111680000D03*
D10*
X76200000Y-152400000D03*
D11*
X81280000Y-152400000D03*
D10*
X86360000Y-152400000D03*
D12*
X83820000Y-147320000D03*
X77470000Y-149860000D03*
D14*
X91730000Y-77855000D03*
D10*
X94270000Y-77855000D03*
X91730000Y-80395000D03*
X94270000Y-80395000D03*
X91730000Y-82935000D03*
X94270000Y-82935000D03*
X95250000Y-133350000D03*
D11*
X100330000Y-133350000D03*
D10*
X105410000Y-133350000D03*
D12*
X102870000Y-128270000D03*
X96520000Y-130810000D03*
D10*
X114300000Y-114220000D03*
D11*
X119380000Y-114220000D03*
D10*
X124460000Y-114220000D03*
D12*
X121920000Y-109140000D03*
X115570000Y-111680000D03*
D13*
X243250000Y-143000000D03*
D10*
X133350000Y-95250000D03*
D11*
X138430000Y-95250000D03*
D10*
X143510000Y-95250000D03*
D12*
X140970000Y-90170000D03*
X134620000Y-92710000D03*
D10*
X171450000Y-114220000D03*
D11*
X176530000Y-114220000D03*
D10*
X181610000Y-114220000D03*
D12*
X179070000Y-109140000D03*
X172720000Y-111680000D03*
D13*
X90800000Y-104600000D03*
D10*
X171450000Y-152400000D03*
D11*
X176530000Y-152400000D03*
D10*
X181610000Y-152400000D03*
D12*
X179070000Y-147320000D03*
X172720000Y-149860000D03*
D10*
X152400000Y-95250000D03*
D11*
X157480000Y-95250000D03*
D10*
X162560000Y-95250000D03*
D12*
X160020000Y-90170000D03*
X153670000Y-92710000D03*
D13*
X90750000Y-142750000D03*
D10*
X152400000Y-133350000D03*
D11*
X157480000Y-133350000D03*
D10*
X162560000Y-133350000D03*
D12*
X160020000Y-128270000D03*
X153670000Y-130810000D03*
D10*
X228600000Y-152400000D03*
D11*
X233680000Y-152400000D03*
D10*
X238760000Y-152400000D03*
D12*
X236220000Y-147320000D03*
X229870000Y-149860000D03*
D10*
X247650000Y-95250000D03*
D11*
X252730000Y-95250000D03*
D10*
X257810000Y-95250000D03*
D12*
X255270000Y-90170000D03*
X248920000Y-92710000D03*
D10*
X171450000Y-95250000D03*
D11*
X176530000Y-95250000D03*
D10*
X181610000Y-95250000D03*
D12*
X179070000Y-90170000D03*
X172720000Y-92710000D03*
D13*
X243250000Y-104750000D03*
D10*
X114300000Y-152400000D03*
D11*
X119380000Y-152400000D03*
D10*
X124460000Y-152400000D03*
D12*
X121920000Y-147320000D03*
X115570000Y-149860000D03*
D15*
X79240000Y-77485000D03*
X79240000Y-83265000D03*
D16*
X79770000Y-76055000D03*
D17*
X75590000Y-76055000D03*
D16*
X79770000Y-84695000D03*
D17*
X75590000Y-84695000D03*
D10*
X76200000Y-114220000D03*
D11*
X81280000Y-114220000D03*
D10*
X86360000Y-114220000D03*
D12*
X83820000Y-109140000D03*
X77470000Y-111680000D03*
D10*
X95250000Y-152400000D03*
D11*
X100330000Y-152400000D03*
D10*
X105410000Y-152400000D03*
D12*
X102870000Y-147320000D03*
X96520000Y-149860000D03*
D10*
X133350000Y-152400000D03*
D11*
X138430000Y-152400000D03*
D10*
X143510000Y-152400000D03*
D12*
X140970000Y-147320000D03*
X134620000Y-149860000D03*
D10*
X209550000Y-133350000D03*
D11*
X214630000Y-133350000D03*
D10*
X219710000Y-133350000D03*
D12*
X217170000Y-128270000D03*
X210820000Y-130810000D03*
D18*
X99800000Y-89875000D03*
X96500000Y-89875000D03*
D19*
X88800000Y-115600000D03*
X88800000Y-112300000D03*
D20*
X245925000Y-136100000D03*
X249225000Y-136100000D03*
D21*
X101233623Y-101166377D03*
X99766377Y-102633623D03*
D19*
X146800000Y-93075000D03*
X146800000Y-89775000D03*
X108475000Y-134800000D03*
X108475000Y-131500000D03*
X204000000Y-134425000D03*
X204000000Y-131125000D03*
D20*
X245975000Y-155550000D03*
X249275000Y-155550000D03*
D19*
X223100000Y-153375000D03*
X223100000Y-150075000D03*
X146975000Y-153100000D03*
X146975000Y-149800000D03*
X203925000Y-153250000D03*
X203925000Y-149950000D03*
X222975000Y-134425000D03*
X222975000Y-131125000D03*
X165900000Y-134450000D03*
X165900000Y-131150000D03*
X146975000Y-115250000D03*
X146975000Y-111950000D03*
D22*
X115866377Y-96616377D03*
X117333623Y-98083623D03*
D20*
X246025000Y-98150000D03*
X249325000Y-98150000D03*
D23*
X126497500Y-107440000D03*
X124422500Y-107440000D03*
D19*
X165900000Y-153200000D03*
X165900000Y-149900000D03*
X88800000Y-134600000D03*
X88800000Y-131300000D03*
X242125000Y-115200000D03*
X242125000Y-111900000D03*
X165950000Y-115275000D03*
X165950000Y-111975000D03*
D24*
X111300000Y-114750000D03*
X109300000Y-114750000D03*
D19*
X184925000Y-115150000D03*
X184925000Y-111850000D03*
D25*
X107233623Y-112683623D03*
X105766377Y-111216377D03*
D19*
X127500000Y-134400000D03*
X127500000Y-131100000D03*
X242250000Y-96100000D03*
X242250000Y-92800000D03*
X185075000Y-153175000D03*
X185075000Y-149875000D03*
D26*
X103391064Y-103047918D03*
X103956750Y-102482233D03*
X104522435Y-101916548D03*
X105088120Y-101350862D03*
X105653806Y-100785177D03*
X106219491Y-100219491D03*
X106785177Y-99653806D03*
X107350862Y-99088120D03*
X107916548Y-98522435D03*
X108482233Y-97956750D03*
X109047918Y-97391064D03*
D27*
X111452082Y-97391064D03*
X112017767Y-97956750D03*
X112583452Y-98522435D03*
X113149138Y-99088120D03*
X113714823Y-99653806D03*
X114280509Y-100219491D03*
X114846194Y-100785177D03*
X115411880Y-101350862D03*
X115977565Y-101916548D03*
X116543250Y-102482233D03*
X117108936Y-103047918D03*
D26*
X117108936Y-105452082D03*
X116543250Y-106017767D03*
X115977565Y-106583452D03*
X115411880Y-107149138D03*
X114846194Y-107714823D03*
X114280509Y-108280509D03*
X113714823Y-108846194D03*
X113149138Y-109411880D03*
X112583452Y-109977565D03*
X112017767Y-110543250D03*
X111452082Y-111108936D03*
D27*
X109047918Y-111108936D03*
X108482233Y-110543250D03*
X107916548Y-109977565D03*
X107350862Y-109411880D03*
X106785177Y-108846194D03*
X106219491Y-108280509D03*
X105653806Y-107714823D03*
X105088120Y-107149138D03*
X104522435Y-106583452D03*
X103956750Y-106017767D03*
X103391064Y-105452082D03*
D20*
X246000000Y-116925000D03*
X249300000Y-116925000D03*
D19*
X89375000Y-153600000D03*
X89375000Y-150300000D03*
X88925000Y-96600000D03*
X88925000Y-93300000D03*
D21*
X104233623Y-96766377D03*
X102766377Y-98233623D03*
D19*
X223200000Y-115275000D03*
X223200000Y-111975000D03*
X184925000Y-94250000D03*
X184925000Y-90950000D03*
X109075000Y-126075000D03*
X109075000Y-122775000D03*
X223150000Y-96050000D03*
X223150000Y-92750000D03*
X204125000Y-95600000D03*
X204125000Y-92300000D03*
X184750000Y-134325000D03*
X184750000Y-131025000D03*
X241900000Y-133875000D03*
X241900000Y-130575000D03*
X147025000Y-134400000D03*
X147025000Y-131100000D03*
D20*
X114750000Y-118400000D03*
X118050000Y-118400000D03*
D19*
X127975000Y-153275000D03*
X127975000Y-149975000D03*
X242125000Y-153650000D03*
X242125000Y-150350000D03*
D28*
X127775000Y-89300000D03*
X127775000Y-92600000D03*
D24*
X111700000Y-93350000D03*
X109700000Y-93350000D03*
D19*
X108925000Y-153325000D03*
X108925000Y-150025000D03*
D29*
X118116377Y-107583623D03*
X119583623Y-106116377D03*
D19*
X203975000Y-115150000D03*
X203975000Y-111850000D03*
D30*
X124210000Y-104440000D03*
X124210000Y-101540000D03*
X126510000Y-101540000D03*
X126510000Y-104440000D03*
D19*
X165900000Y-93400000D03*
X165900000Y-90100000D03*
D31*
X124460000Y-97690000D03*
X126535000Y-97690000D03*
D32*
X104000000Y-79000000D03*
X104000000Y-80000000D03*
X103000000Y-80000000D03*
X103000000Y-79000000D03*
X94000000Y-86000000D03*
X94000000Y-87000000D03*
X93000000Y-87000000D03*
X93000000Y-86000000D03*
X127000000Y-128000000D03*
X126000000Y-128000000D03*
X125000000Y-128000000D03*
X135000000Y-97000000D03*
X187000000Y-96000000D03*
X187000000Y-95000000D03*
X187000000Y-94000000D03*
X187000000Y-93000000D03*
X187000000Y-92000000D03*
X150000000Y-94000000D03*
X150000000Y-95000000D03*
X150000000Y-93000000D03*
X150000000Y-92000000D03*
X150000000Y-91000000D03*
X125000000Y-118000000D03*
X125000000Y-119000000D03*
X125000000Y-120000000D03*
X124000000Y-120000000D03*
X124000000Y-119000000D03*
X124000000Y-118000000D03*
X101000000Y-118000000D03*
X101000000Y-119000000D03*
X101000000Y-120000000D03*
X100000000Y-120000000D03*
X100000000Y-119000000D03*
X100000000Y-118000000D03*
X118000000Y-92000000D03*
X119000000Y-92000000D03*
X101000000Y-92000000D03*
X100000000Y-92000000D03*
X99000000Y-92000000D03*
X105000000Y-93000000D03*
X105000000Y-92000000D03*
X114000000Y-90000000D03*
X113000000Y-90000000D03*
X112000000Y-90000000D03*
X111000000Y-90000000D03*
X108991332Y-104000000D03*
X110000000Y-105000000D03*
X111000000Y-104000000D03*
X110000000Y-103000000D03*
X113000000Y-104000000D03*
X112000000Y-105000000D03*
X111000000Y-106000000D03*
X110000000Y-107000000D03*
X108991332Y-106000000D03*
X108000000Y-105000000D03*
X112000000Y-103000000D03*
X111000000Y-102000000D03*
X110000000Y-101000000D03*
X109000000Y-102000000D03*
X107934314Y-103065686D03*
X107000000Y-104000000D03*
X97600000Y-102200000D03*
X128600000Y-123150000D03*
X120600000Y-105200000D03*
X127800000Y-123800000D03*
X121640520Y-105890670D03*
X83030870Y-79775000D03*
X83115000Y-82375000D03*
X130000000Y-128000000D03*
X112800000Y-117600000D03*
X111400000Y-124800000D03*
X131000000Y-122400000D03*
X82400000Y-83600000D03*
X118800000Y-108400000D03*
X107750000Y-114250000D03*
X106000000Y-98250000D03*
X99650000Y-100875000D03*
X82225761Y-77425761D03*
X102050000Y-104750000D03*
X111700000Y-92100000D03*
X109800000Y-152400000D03*
X112600000Y-112400000D03*
X110400000Y-134200000D03*
X113470000Y-111800000D03*
X94600000Y-93600000D03*
X90400000Y-97000000D03*
X107400000Y-89400000D03*
X118000000Y-89200000D03*
X101000000Y-89400000D03*
X125800000Y-92600000D03*
X82865000Y-78625000D03*
X82380870Y-81109130D03*
X97450000Y-81300000D03*
X91199479Y-89800521D03*
X91800521Y-89199479D03*
M02*
