G04 #@! TF.GenerationSoftware,KiCad,Pcbnew,8.0.9-8.0.9-0~ubuntu22.04.1*
G04 #@! TF.CreationDate,2025-05-05T00:51:58+08:00*
G04 #@! TF.ProjectId,macropad,6d616372-6f70-4616-942e-6b696361645f,rev?*
G04 #@! TF.SameCoordinates,Original*
G04 #@! TF.FileFunction,Legend,Bot*
G04 #@! TF.FilePolarity,Positive*
%FSLAX46Y46*%
G04 Gerber Fmt 4.6, Leading zero omitted, Abs format (unit mm)*
G04 Created by KiCad (PCBNEW 8.0.9-8.0.9-0~ubuntu22.04.1) date 2025-05-05 00:51:58*
%MOMM*%
%LPD*%
G01*
G04 APERTURE LIST*
G04 Aperture macros list*
%AMRoundRect*
0 Rectangle with rounded corners*
0 $1 Rounding radius*
0 $2 $3 $4 $5 $6 $7 $8 $9 X,Y pos of 4 corners*
0 Add a 4 corners polygon primitive as box body*
4,1,4,$2,$3,$4,$5,$6,$7,$8,$9,$2,$3,0*
0 Add four circle primitives for the rounded corners*
1,1,$1+$1,$2,$3*
1,1,$1+$1,$4,$5*
1,1,$1+$1,$6,$7*
1,1,$1+$1,$8,$9*
0 Add four rect primitives between the rounded corners*
20,1,$1+$1,$2,$3,$4,$5,0*
20,1,$1+$1,$4,$5,$6,$7,0*
20,1,$1+$1,$6,$7,$8,$9,0*
20,1,$1+$1,$8,$9,$2,$3,0*%
%AMRotRect*
0 Rectangle, with rotation*
0 The origin of the aperture is its center*
0 $1 length*
0 $2 width*
0 $3 Rotation angle, in degrees counterclockwise*
0 Add horizontal line*
21,1,$1,$2,0,0,$3*%
G04 Aperture macros list end*
%ADD10C,0.150000*%
%ADD11C,0.120000*%
%ADD12C,1.700000*%
%ADD13C,4.000000*%
%ADD14C,2.200000*%
%ADD15C,5.300000*%
%ADD16RoundRect,0.250000X-0.600000X-0.600000X0.600000X-0.600000X0.600000X0.600000X-0.600000X0.600000X0*%
%ADD17C,0.650000*%
%ADD18O,2.100000X1.000000*%
%ADD19O,1.600000X1.000000*%
%ADD20RoundRect,0.225000X0.225000X0.375000X-0.225000X0.375000X-0.225000X-0.375000X0.225000X-0.375000X0*%
%ADD21RoundRect,0.225000X0.375000X-0.225000X0.375000X0.225000X-0.375000X0.225000X-0.375000X-0.225000X0*%
%ADD22RoundRect,0.225000X-0.225000X-0.375000X0.225000X-0.375000X0.225000X0.375000X-0.225000X0.375000X0*%
%ADD23RoundRect,0.250000X-0.097227X0.574524X-0.574524X0.097227X0.097227X-0.574524X0.574524X-0.097227X0*%
%ADD24RoundRect,0.250000X-0.574524X-0.097227X-0.097227X-0.574524X0.574524X0.097227X0.097227X0.574524X0*%
%ADD25RoundRect,0.250000X0.337500X0.475000X-0.337500X0.475000X-0.337500X-0.475000X0.337500X-0.475000X0*%
%ADD26RoundRect,0.250000X0.350000X0.450000X-0.350000X0.450000X-0.350000X-0.450000X0.350000X-0.450000X0*%
%ADD27RoundRect,0.250000X0.574524X0.097227X0.097227X0.574524X-0.574524X-0.097227X-0.097227X-0.574524X0*%
%ADD28RotRect,1.500000X0.550000X315.000000*%
%ADD29RotRect,1.500000X0.550000X225.000000*%
%ADD30RoundRect,0.225000X-0.375000X0.225000X-0.375000X-0.225000X0.375000X-0.225000X0.375000X0.225000X0*%
%ADD31RoundRect,0.250000X0.097227X-0.574524X0.574524X-0.097227X-0.097227X0.574524X-0.574524X0.097227X0*%
%ADD32R,1.800000X2.100000*%
%ADD33RoundRect,0.250000X-0.337500X-0.475000X0.337500X-0.475000X0.337500X0.475000X-0.337500X0.475000X0*%
%ADD34C,0.600000*%
G04 APERTURE END LIST*
D10*
X99684173Y-100848472D02*
X99751517Y-100848472D01*
X99751517Y-100848472D02*
X99886204Y-100781128D01*
X99886204Y-100781128D02*
X99953547Y-100713785D01*
X99953547Y-100713785D02*
X100020891Y-100579098D01*
X100020891Y-100579098D02*
X100020891Y-100444411D01*
X100020891Y-100444411D02*
X99987219Y-100343396D01*
X99987219Y-100343396D02*
X99886204Y-100175037D01*
X99886204Y-100175037D02*
X99785189Y-100074022D01*
X99785189Y-100074022D02*
X99616830Y-99973006D01*
X99616830Y-99973006D02*
X99515815Y-99939335D01*
X99515815Y-99939335D02*
X99381128Y-99939335D01*
X99381128Y-99939335D02*
X99246441Y-100006678D01*
X99246441Y-100006678D02*
X99179097Y-100074022D01*
X99179097Y-100074022D02*
X99111754Y-100208709D01*
X99111754Y-100208709D02*
X99111754Y-100276052D01*
X98808708Y-100444411D02*
X98370975Y-100882144D01*
X98370975Y-100882144D02*
X98876051Y-100915815D01*
X98876051Y-100915815D02*
X98775036Y-101016831D01*
X98775036Y-101016831D02*
X98741364Y-101117846D01*
X98741364Y-101117846D02*
X98741364Y-101185189D01*
X98741364Y-101185189D02*
X98775036Y-101286205D01*
X98775036Y-101286205D02*
X98943395Y-101454563D01*
X98943395Y-101454563D02*
X99044410Y-101488235D01*
X99044410Y-101488235D02*
X99111754Y-101488235D01*
X99111754Y-101488235D02*
X99212769Y-101454563D01*
X99212769Y-101454563D02*
X99414799Y-101252533D01*
X99414799Y-101252533D02*
X99448471Y-101151518D01*
X99448471Y-101151518D02*
X99448471Y-101084174D01*
X119166666Y-99759580D02*
X119214285Y-99807200D01*
X119214285Y-99807200D02*
X119357142Y-99854819D01*
X119357142Y-99854819D02*
X119452380Y-99854819D01*
X119452380Y-99854819D02*
X119595237Y-99807200D01*
X119595237Y-99807200D02*
X119690475Y-99711961D01*
X119690475Y-99711961D02*
X119738094Y-99616723D01*
X119738094Y-99616723D02*
X119785713Y-99426247D01*
X119785713Y-99426247D02*
X119785713Y-99283390D01*
X119785713Y-99283390D02*
X119738094Y-99092914D01*
X119738094Y-99092914D02*
X119690475Y-98997676D01*
X119690475Y-98997676D02*
X119595237Y-98902438D01*
X119595237Y-98902438D02*
X119452380Y-98854819D01*
X119452380Y-98854819D02*
X119357142Y-98854819D01*
X119357142Y-98854819D02*
X119214285Y-98902438D01*
X119214285Y-98902438D02*
X119166666Y-98950057D01*
X118261904Y-98854819D02*
X118738094Y-98854819D01*
X118738094Y-98854819D02*
X118785713Y-99331009D01*
X118785713Y-99331009D02*
X118738094Y-99283390D01*
X118738094Y-99283390D02*
X118642856Y-99235771D01*
X118642856Y-99235771D02*
X118404761Y-99235771D01*
X118404761Y-99235771D02*
X118309523Y-99283390D01*
X118309523Y-99283390D02*
X118261904Y-99331009D01*
X118261904Y-99331009D02*
X118214285Y-99426247D01*
X118214285Y-99426247D02*
X118214285Y-99664342D01*
X118214285Y-99664342D02*
X118261904Y-99759580D01*
X118261904Y-99759580D02*
X118309523Y-99807200D01*
X118309523Y-99807200D02*
X118404761Y-99854819D01*
X118404761Y-99854819D02*
X118642856Y-99854819D01*
X118642856Y-99854819D02*
X118738094Y-99807200D01*
X118738094Y-99807200D02*
X118785713Y-99759580D01*
X125626666Y-109559580D02*
X125674285Y-109607200D01*
X125674285Y-109607200D02*
X125817142Y-109654819D01*
X125817142Y-109654819D02*
X125912380Y-109654819D01*
X125912380Y-109654819D02*
X126055237Y-109607200D01*
X126055237Y-109607200D02*
X126150475Y-109511961D01*
X126150475Y-109511961D02*
X126198094Y-109416723D01*
X126198094Y-109416723D02*
X126245713Y-109226247D01*
X126245713Y-109226247D02*
X126245713Y-109083390D01*
X126245713Y-109083390D02*
X126198094Y-108892914D01*
X126198094Y-108892914D02*
X126150475Y-108797676D01*
X126150475Y-108797676D02*
X126055237Y-108702438D01*
X126055237Y-108702438D02*
X125912380Y-108654819D01*
X125912380Y-108654819D02*
X125817142Y-108654819D01*
X125817142Y-108654819D02*
X125674285Y-108702438D01*
X125674285Y-108702438D02*
X125626666Y-108750057D01*
X124769523Y-108654819D02*
X124959999Y-108654819D01*
X124959999Y-108654819D02*
X125055237Y-108702438D01*
X125055237Y-108702438D02*
X125102856Y-108750057D01*
X125102856Y-108750057D02*
X125198094Y-108892914D01*
X125198094Y-108892914D02*
X125245713Y-109083390D01*
X125245713Y-109083390D02*
X125245713Y-109464342D01*
X125245713Y-109464342D02*
X125198094Y-109559580D01*
X125198094Y-109559580D02*
X125150475Y-109607200D01*
X125150475Y-109607200D02*
X125055237Y-109654819D01*
X125055237Y-109654819D02*
X124864761Y-109654819D01*
X124864761Y-109654819D02*
X124769523Y-109607200D01*
X124769523Y-109607200D02*
X124721904Y-109559580D01*
X124721904Y-109559580D02*
X124674285Y-109464342D01*
X124674285Y-109464342D02*
X124674285Y-109226247D01*
X124674285Y-109226247D02*
X124721904Y-109131009D01*
X124721904Y-109131009D02*
X124769523Y-109083390D01*
X124769523Y-109083390D02*
X124864761Y-109035771D01*
X124864761Y-109035771D02*
X125055237Y-109035771D01*
X125055237Y-109035771D02*
X125150475Y-109083390D01*
X125150475Y-109083390D02*
X125198094Y-109131009D01*
X125198094Y-109131009D02*
X125245713Y-109226247D01*
X110466666Y-113554819D02*
X110799999Y-113078628D01*
X111038094Y-113554819D02*
X111038094Y-112554819D01*
X111038094Y-112554819D02*
X110657142Y-112554819D01*
X110657142Y-112554819D02*
X110561904Y-112602438D01*
X110561904Y-112602438D02*
X110514285Y-112650057D01*
X110514285Y-112650057D02*
X110466666Y-112745295D01*
X110466666Y-112745295D02*
X110466666Y-112888152D01*
X110466666Y-112888152D02*
X110514285Y-112983390D01*
X110514285Y-112983390D02*
X110561904Y-113031009D01*
X110561904Y-113031009D02*
X110657142Y-113078628D01*
X110657142Y-113078628D02*
X111038094Y-113078628D01*
X109514285Y-113554819D02*
X110085713Y-113554819D01*
X109799999Y-113554819D02*
X109799999Y-112554819D01*
X109799999Y-112554819D02*
X109895237Y-112697676D01*
X109895237Y-112697676D02*
X109990475Y-112792914D01*
X109990475Y-112792914D02*
X110085713Y-112840533D01*
X104263588Y-112772112D02*
X104263588Y-112839456D01*
X104263588Y-112839456D02*
X104330932Y-112974143D01*
X104330932Y-112974143D02*
X104398275Y-113041486D01*
X104398275Y-113041486D02*
X104532962Y-113108830D01*
X104532962Y-113108830D02*
X104667649Y-113108830D01*
X104667649Y-113108830D02*
X104768664Y-113075158D01*
X104768664Y-113075158D02*
X104937023Y-112974143D01*
X104937023Y-112974143D02*
X105038038Y-112873128D01*
X105038038Y-112873128D02*
X105139054Y-112704769D01*
X105139054Y-112704769D02*
X105172725Y-112603754D01*
X105172725Y-112603754D02*
X105172725Y-112469067D01*
X105172725Y-112469067D02*
X105105382Y-112334380D01*
X105105382Y-112334380D02*
X105038038Y-112267036D01*
X105038038Y-112267036D02*
X104903351Y-112199693D01*
X104903351Y-112199693D02*
X104836008Y-112199693D01*
X104566634Y-111930319D02*
X104566634Y-111862975D01*
X104566634Y-111862975D02*
X104532962Y-111761960D01*
X104532962Y-111761960D02*
X104364603Y-111593601D01*
X104364603Y-111593601D02*
X104263588Y-111559929D01*
X104263588Y-111559929D02*
X104196245Y-111559929D01*
X104196245Y-111559929D02*
X104095229Y-111593601D01*
X104095229Y-111593601D02*
X104027886Y-111660945D01*
X104027886Y-111660945D02*
X103960542Y-111795632D01*
X103960542Y-111795632D02*
X103960542Y-112603754D01*
X103960542Y-112603754D02*
X103522810Y-112166021D01*
X110961904Y-103854819D02*
X110961904Y-104664342D01*
X110961904Y-104664342D02*
X110914285Y-104759580D01*
X110914285Y-104759580D02*
X110866666Y-104807200D01*
X110866666Y-104807200D02*
X110771428Y-104854819D01*
X110771428Y-104854819D02*
X110580952Y-104854819D01*
X110580952Y-104854819D02*
X110485714Y-104807200D01*
X110485714Y-104807200D02*
X110438095Y-104759580D01*
X110438095Y-104759580D02*
X110390476Y-104664342D01*
X110390476Y-104664342D02*
X110390476Y-103854819D01*
X109390476Y-104854819D02*
X109961904Y-104854819D01*
X109676190Y-104854819D02*
X109676190Y-103854819D01*
X109676190Y-103854819D02*
X109771428Y-103997676D01*
X109771428Y-103997676D02*
X109866666Y-104092914D01*
X109866666Y-104092914D02*
X109961904Y-104140533D01*
X104972112Y-98936411D02*
X105039456Y-98936411D01*
X105039456Y-98936411D02*
X105174143Y-98869067D01*
X105174143Y-98869067D02*
X105241486Y-98801724D01*
X105241486Y-98801724D02*
X105308830Y-98667037D01*
X105308830Y-98667037D02*
X105308830Y-98532350D01*
X105308830Y-98532350D02*
X105275158Y-98431335D01*
X105275158Y-98431335D02*
X105174143Y-98262976D01*
X105174143Y-98262976D02*
X105073128Y-98161961D01*
X105073128Y-98161961D02*
X104904769Y-98060945D01*
X104904769Y-98060945D02*
X104803754Y-98027274D01*
X104803754Y-98027274D02*
X104669067Y-98027274D01*
X104669067Y-98027274D02*
X104534380Y-98094617D01*
X104534380Y-98094617D02*
X104467036Y-98161961D01*
X104467036Y-98161961D02*
X104399693Y-98296648D01*
X104399693Y-98296648D02*
X104399693Y-98363991D01*
X104366021Y-99677189D02*
X104770082Y-99273128D01*
X104568051Y-99475159D02*
X103860945Y-98768052D01*
X103860945Y-98768052D02*
X104029303Y-98801724D01*
X104029303Y-98801724D02*
X104163990Y-98801724D01*
X104163990Y-98801724D02*
X104265006Y-98768052D01*
X110566666Y-95454819D02*
X110899999Y-94978628D01*
X111138094Y-95454819D02*
X111138094Y-94454819D01*
X111138094Y-94454819D02*
X110757142Y-94454819D01*
X110757142Y-94454819D02*
X110661904Y-94502438D01*
X110661904Y-94502438D02*
X110614285Y-94550057D01*
X110614285Y-94550057D02*
X110566666Y-94645295D01*
X110566666Y-94645295D02*
X110566666Y-94788152D01*
X110566666Y-94788152D02*
X110614285Y-94883390D01*
X110614285Y-94883390D02*
X110661904Y-94931009D01*
X110661904Y-94931009D02*
X110757142Y-94978628D01*
X110757142Y-94978628D02*
X111138094Y-94978628D01*
X109709523Y-94788152D02*
X109709523Y-95454819D01*
X109947618Y-94407200D02*
X110185713Y-95121485D01*
X110185713Y-95121485D02*
X109566666Y-95121485D01*
X118766666Y-109759580D02*
X118814285Y-109807200D01*
X118814285Y-109807200D02*
X118957142Y-109854819D01*
X118957142Y-109854819D02*
X119052380Y-109854819D01*
X119052380Y-109854819D02*
X119195237Y-109807200D01*
X119195237Y-109807200D02*
X119290475Y-109711961D01*
X119290475Y-109711961D02*
X119338094Y-109616723D01*
X119338094Y-109616723D02*
X119385713Y-109426247D01*
X119385713Y-109426247D02*
X119385713Y-109283390D01*
X119385713Y-109283390D02*
X119338094Y-109092914D01*
X119338094Y-109092914D02*
X119290475Y-108997676D01*
X119290475Y-108997676D02*
X119195237Y-108902438D01*
X119195237Y-108902438D02*
X119052380Y-108854819D01*
X119052380Y-108854819D02*
X118957142Y-108854819D01*
X118957142Y-108854819D02*
X118814285Y-108902438D01*
X118814285Y-108902438D02*
X118766666Y-108950057D01*
X117909523Y-109188152D02*
X117909523Y-109854819D01*
X118147618Y-108807200D02*
X118385713Y-109521485D01*
X118385713Y-109521485D02*
X117766666Y-109521485D01*
X129076190Y-102978628D02*
X129076190Y-103454819D01*
X129409523Y-102454819D02*
X129076190Y-102978628D01*
X129076190Y-102978628D02*
X128742857Y-102454819D01*
X127885714Y-103454819D02*
X128457142Y-103454819D01*
X128171428Y-103454819D02*
X128171428Y-102454819D01*
X128171428Y-102454819D02*
X128266666Y-102597676D01*
X128266666Y-102597676D02*
X128361904Y-102692914D01*
X128361904Y-102692914D02*
X128457142Y-102740533D01*
X125664166Y-99729580D02*
X125711785Y-99777200D01*
X125711785Y-99777200D02*
X125854642Y-99824819D01*
X125854642Y-99824819D02*
X125949880Y-99824819D01*
X125949880Y-99824819D02*
X126092737Y-99777200D01*
X126092737Y-99777200D02*
X126187975Y-99681961D01*
X126187975Y-99681961D02*
X126235594Y-99586723D01*
X126235594Y-99586723D02*
X126283213Y-99396247D01*
X126283213Y-99396247D02*
X126283213Y-99253390D01*
X126283213Y-99253390D02*
X126235594Y-99062914D01*
X126235594Y-99062914D02*
X126187975Y-98967676D01*
X126187975Y-98967676D02*
X126092737Y-98872438D01*
X126092737Y-98872438D02*
X125949880Y-98824819D01*
X125949880Y-98824819D02*
X125854642Y-98824819D01*
X125854642Y-98824819D02*
X125711785Y-98872438D01*
X125711785Y-98872438D02*
X125664166Y-98920057D01*
X125330832Y-98824819D02*
X124664166Y-98824819D01*
X124664166Y-98824819D02*
X125092737Y-99824819D01*
D11*
X96500000Y-88875000D02*
X100510000Y-88875000D01*
X96500000Y-90875000D02*
X100510000Y-90875000D01*
X100510000Y-90875000D02*
X100510000Y-88875000D01*
X87800000Y-112300000D02*
X87800000Y-116310000D01*
X87800000Y-116310000D02*
X89800000Y-116310000D01*
X89800000Y-112300000D02*
X89800000Y-116310000D01*
X245215000Y-135100000D02*
X245215000Y-137100000D01*
X249225000Y-135100000D02*
X245215000Y-135100000D01*
X249225000Y-137100000D02*
X245215000Y-137100000D01*
X99795543Y-101565010D02*
X100165010Y-101195543D01*
X100834990Y-102604457D02*
X101204457Y-102234990D01*
X145800000Y-89775000D02*
X145800000Y-93785000D01*
X145800000Y-93785000D02*
X147800000Y-93785000D01*
X147800000Y-89775000D02*
X147800000Y-93785000D01*
X107475000Y-131500000D02*
X107475000Y-135510000D01*
X107475000Y-135510000D02*
X109475000Y-135510000D01*
X109475000Y-131500000D02*
X109475000Y-135510000D01*
X203000000Y-131125000D02*
X203000000Y-135135000D01*
X203000000Y-135135000D02*
X205000000Y-135135000D01*
X205000000Y-131125000D02*
X205000000Y-135135000D01*
X245265000Y-154550000D02*
X245265000Y-156550000D01*
X249275000Y-154550000D02*
X245265000Y-154550000D01*
X249275000Y-156550000D02*
X245265000Y-156550000D01*
X222100000Y-150075000D02*
X222100000Y-154085000D01*
X222100000Y-154085000D02*
X224100000Y-154085000D01*
X224100000Y-150075000D02*
X224100000Y-154085000D01*
X145975000Y-149800000D02*
X145975000Y-153810000D01*
X145975000Y-153810000D02*
X147975000Y-153810000D01*
X147975000Y-149800000D02*
X147975000Y-153810000D01*
X202925000Y-149950000D02*
X202925000Y-153960000D01*
X202925000Y-153960000D02*
X204925000Y-153960000D01*
X204925000Y-149950000D02*
X204925000Y-153960000D01*
X221975000Y-131125000D02*
X221975000Y-135135000D01*
X221975000Y-135135000D02*
X223975000Y-135135000D01*
X223975000Y-131125000D02*
X223975000Y-135135000D01*
X164900000Y-131150000D02*
X164900000Y-135160000D01*
X164900000Y-135160000D02*
X166900000Y-135160000D01*
X166900000Y-131150000D02*
X166900000Y-135160000D01*
X145975000Y-111950000D02*
X145975000Y-115960000D01*
X145975000Y-115960000D02*
X147975000Y-115960000D01*
X147975000Y-111950000D02*
X147975000Y-115960000D01*
X116265010Y-98054457D02*
X115895543Y-97684990D01*
X117304457Y-97015010D02*
X116934990Y-96645543D01*
X245315000Y-97150000D02*
X245315000Y-99150000D01*
X249325000Y-97150000D02*
X245315000Y-97150000D01*
X249325000Y-99150000D02*
X245315000Y-99150000D01*
X125198748Y-106705000D02*
X125721252Y-106705000D01*
X125198748Y-108175000D02*
X125721252Y-108175000D01*
X164900000Y-149900000D02*
X164900000Y-153910000D01*
X164900000Y-153910000D02*
X166900000Y-153910000D01*
X166900000Y-149900000D02*
X166900000Y-153910000D01*
X87800000Y-131300000D02*
X87800000Y-135310000D01*
X87800000Y-135310000D02*
X89800000Y-135310000D01*
X89800000Y-131300000D02*
X89800000Y-135310000D01*
X241125000Y-111900000D02*
X241125000Y-115910000D01*
X241125000Y-115910000D02*
X243125000Y-115910000D01*
X243125000Y-111900000D02*
X243125000Y-115910000D01*
X164950000Y-111975000D02*
X164950000Y-115985000D01*
X164950000Y-115985000D02*
X166950000Y-115985000D01*
X166950000Y-111975000D02*
X166950000Y-115985000D01*
X110072936Y-114015000D02*
X110527064Y-114015000D01*
X110072936Y-115485000D02*
X110527064Y-115485000D01*
X183925000Y-111850000D02*
X183925000Y-115860000D01*
X183925000Y-115860000D02*
X185925000Y-115860000D01*
X185925000Y-111850000D02*
X185925000Y-115860000D01*
X105795543Y-112284990D02*
X106165010Y-112654457D01*
X106834990Y-111245543D02*
X107204457Y-111615010D01*
X126500000Y-131100000D02*
X126500000Y-135110000D01*
X126500000Y-135110000D02*
X128500000Y-135110000D01*
X128500000Y-131100000D02*
X128500000Y-135110000D01*
X241250000Y-92800000D02*
X241250000Y-96810000D01*
X241250000Y-96810000D02*
X243250000Y-96810000D01*
X243250000Y-92800000D02*
X243250000Y-96810000D01*
X184075000Y-149875000D02*
X184075000Y-153885000D01*
X184075000Y-153885000D02*
X186075000Y-153885000D01*
X186075000Y-149875000D02*
X186075000Y-153885000D01*
D10*
X103366315Y-103815129D02*
X102931445Y-104250000D01*
X103408742Y-104727297D02*
X102931445Y-104250000D01*
X109772703Y-97408742D02*
X110250000Y-96931445D01*
X109772703Y-111091258D02*
X110250000Y-111568555D01*
X110727297Y-97408742D02*
X110250000Y-96931445D01*
X110727297Y-111091258D02*
X110250000Y-111568555D01*
X117091258Y-103772703D02*
X117568555Y-104250000D01*
X117091258Y-104727297D02*
X117568555Y-104250000D01*
D11*
X102804166Y-103889376D02*
X102323333Y-103408543D01*
X102896089Y-103316619D01*
X102804166Y-103889376D01*
G36*
X102804166Y-103889376D02*
G01*
X102323333Y-103408543D01*
X102896089Y-103316619D01*
X102804166Y-103889376D01*
G37*
X245290000Y-115925000D02*
X245290000Y-117925000D01*
X249300000Y-115925000D02*
X245290000Y-115925000D01*
X249300000Y-117925000D02*
X245290000Y-117925000D01*
X88375000Y-150300000D02*
X88375000Y-154310000D01*
X88375000Y-154310000D02*
X90375000Y-154310000D01*
X90375000Y-150300000D02*
X90375000Y-154310000D01*
X87925000Y-93300000D02*
X87925000Y-97310000D01*
X87925000Y-97310000D02*
X89925000Y-97310000D01*
X89925000Y-93300000D02*
X89925000Y-97310000D01*
X102795543Y-97165010D02*
X103165010Y-96795543D01*
X103834990Y-98204457D02*
X104204457Y-97834990D01*
X222200000Y-111975000D02*
X222200000Y-115985000D01*
X222200000Y-115985000D02*
X224200000Y-115985000D01*
X224200000Y-111975000D02*
X224200000Y-115985000D01*
X183925000Y-90950000D02*
X183925000Y-94960000D01*
X183925000Y-94960000D02*
X185925000Y-94960000D01*
X185925000Y-90950000D02*
X185925000Y-94960000D01*
X108075000Y-122775000D02*
X108075000Y-126785000D01*
X108075000Y-126785000D02*
X110075000Y-126785000D01*
X110075000Y-122775000D02*
X110075000Y-126785000D01*
X222150000Y-92750000D02*
X222150000Y-96760000D01*
X222150000Y-96760000D02*
X224150000Y-96760000D01*
X224150000Y-92750000D02*
X224150000Y-96760000D01*
X203125000Y-92300000D02*
X203125000Y-96310000D01*
X203125000Y-96310000D02*
X205125000Y-96310000D01*
X205125000Y-92300000D02*
X205125000Y-96310000D01*
X183750000Y-131025000D02*
X183750000Y-135035000D01*
X183750000Y-135035000D02*
X185750000Y-135035000D01*
X185750000Y-131025000D02*
X185750000Y-135035000D01*
X240900000Y-130575000D02*
X240900000Y-134585000D01*
X240900000Y-134585000D02*
X242900000Y-134585000D01*
X242900000Y-130575000D02*
X242900000Y-134585000D01*
X146025000Y-131100000D02*
X146025000Y-135110000D01*
X146025000Y-135110000D02*
X148025000Y-135110000D01*
X148025000Y-131100000D02*
X148025000Y-135110000D01*
X114040000Y-117400000D02*
X114040000Y-119400000D01*
X118050000Y-117400000D02*
X114040000Y-117400000D01*
X118050000Y-119400000D02*
X114040000Y-119400000D01*
X126975000Y-149975000D02*
X126975000Y-153985000D01*
X126975000Y-153985000D02*
X128975000Y-153985000D01*
X128975000Y-149975000D02*
X128975000Y-153985000D01*
X241125000Y-150350000D02*
X241125000Y-154360000D01*
X241125000Y-154360000D02*
X243125000Y-154360000D01*
X243125000Y-150350000D02*
X243125000Y-154360000D01*
X126775000Y-92600000D02*
X126775000Y-88590000D01*
X128775000Y-88590000D02*
X126775000Y-88590000D01*
X128775000Y-92600000D02*
X128775000Y-88590000D01*
X110472936Y-92615000D02*
X110927064Y-92615000D01*
X110472936Y-94085000D02*
X110927064Y-94085000D01*
X107925000Y-150025000D02*
X107925000Y-154035000D01*
X107925000Y-154035000D02*
X109925000Y-154035000D01*
X109925000Y-150025000D02*
X109925000Y-154035000D01*
X118515010Y-106145543D02*
X118145543Y-106515010D01*
X119554457Y-107184990D02*
X119184990Y-107554457D01*
X202975000Y-111850000D02*
X202975000Y-115860000D01*
X202975000Y-115860000D02*
X204975000Y-115860000D01*
X204975000Y-111850000D02*
X204975000Y-115860000D01*
X123110000Y-100290000D02*
X123110000Y-105690000D01*
X123110000Y-105690000D02*
X127610000Y-105690000D01*
X164900000Y-90100000D02*
X164900000Y-94110000D01*
X164900000Y-94110000D02*
X166900000Y-94110000D01*
X166900000Y-90100000D02*
X166900000Y-94110000D01*
X125758752Y-96955000D02*
X125236248Y-96955000D01*
X125758752Y-98425000D02*
X125236248Y-98425000D01*
%LPC*%
D12*
X190500000Y-114220000D03*
D13*
X195580000Y-114220000D03*
D12*
X200660000Y-114220000D03*
D14*
X198120000Y-109140000D03*
X191770000Y-111680000D03*
D12*
X209550000Y-152400000D03*
D13*
X214630000Y-152400000D03*
D12*
X219710000Y-152400000D03*
D14*
X217170000Y-147320000D03*
X210820000Y-149860000D03*
D12*
X152400000Y-114220000D03*
D13*
X157480000Y-114220000D03*
D12*
X162560000Y-114220000D03*
D14*
X160020000Y-109140000D03*
X153670000Y-111680000D03*
D12*
X228600000Y-95250000D03*
D13*
X233680000Y-95250000D03*
D12*
X238760000Y-95250000D03*
D14*
X236220000Y-90170000D03*
X229870000Y-92710000D03*
D12*
X190500000Y-152400000D03*
D13*
X195580000Y-152400000D03*
D12*
X200660000Y-152400000D03*
D14*
X198120000Y-147320000D03*
X191770000Y-149860000D03*
D12*
X95250000Y-95250000D03*
D13*
X100330000Y-95250000D03*
D12*
X105410000Y-95250000D03*
D14*
X102870000Y-90170000D03*
X96520000Y-92710000D03*
D12*
X152400000Y-152400000D03*
D13*
X157480000Y-152400000D03*
D12*
X162560000Y-152400000D03*
D14*
X160020000Y-147320000D03*
X153670000Y-149860000D03*
D12*
X190500000Y-95250000D03*
D13*
X195580000Y-95250000D03*
D12*
X200660000Y-95250000D03*
D14*
X198120000Y-90170000D03*
X191770000Y-92710000D03*
D12*
X228600000Y-114220000D03*
D13*
X233680000Y-114220000D03*
D12*
X238760000Y-114220000D03*
D14*
X236220000Y-109140000D03*
X229870000Y-111680000D03*
D12*
X171450000Y-133350000D03*
D13*
X176530000Y-133350000D03*
D12*
X181610000Y-133350000D03*
D14*
X179070000Y-128270000D03*
X172720000Y-130810000D03*
D12*
X247650000Y-114220000D03*
D13*
X252730000Y-114220000D03*
D12*
X257810000Y-114220000D03*
D14*
X255270000Y-109140000D03*
X248920000Y-111680000D03*
D12*
X133350000Y-133350000D03*
D13*
X138430000Y-133350000D03*
D12*
X143510000Y-133350000D03*
D14*
X140970000Y-128270000D03*
X134620000Y-130810000D03*
D12*
X114300000Y-95250000D03*
D13*
X119380000Y-95250000D03*
D12*
X124460000Y-95250000D03*
D14*
X121920000Y-90170000D03*
X115570000Y-92710000D03*
D12*
X209550000Y-95250000D03*
D13*
X214630000Y-95250000D03*
D12*
X219710000Y-95250000D03*
D14*
X217170000Y-90170000D03*
X210820000Y-92710000D03*
D15*
X167000000Y-123600000D03*
D12*
X209550000Y-114220000D03*
D13*
X214630000Y-114220000D03*
D12*
X219710000Y-114220000D03*
D14*
X217170000Y-109140000D03*
X210820000Y-111680000D03*
D12*
X76200000Y-95250000D03*
D13*
X81280000Y-95250000D03*
D12*
X86360000Y-95250000D03*
D14*
X83820000Y-90170000D03*
X77470000Y-92710000D03*
D12*
X228600000Y-133350000D03*
D13*
X233680000Y-133350000D03*
D12*
X238760000Y-133350000D03*
D14*
X236220000Y-128270000D03*
X229870000Y-130810000D03*
D12*
X190500000Y-133350000D03*
D13*
X195580000Y-133350000D03*
D12*
X200660000Y-133350000D03*
D14*
X198120000Y-128270000D03*
X191770000Y-130810000D03*
D12*
X76200000Y-133350000D03*
D13*
X81280000Y-133350000D03*
D12*
X86360000Y-133350000D03*
D14*
X83820000Y-128270000D03*
X77470000Y-130810000D03*
D12*
X247650000Y-133350000D03*
D13*
X252730000Y-133350000D03*
D12*
X257810000Y-133350000D03*
D14*
X255270000Y-128270000D03*
X248920000Y-130810000D03*
D12*
X114300000Y-133350000D03*
D13*
X119380000Y-133350000D03*
D12*
X124460000Y-133350000D03*
D14*
X121920000Y-128270000D03*
X115570000Y-130810000D03*
D12*
X247650000Y-152400000D03*
D13*
X252730000Y-152400000D03*
D12*
X257810000Y-152400000D03*
D14*
X255270000Y-147320000D03*
X248920000Y-149860000D03*
D12*
X95250000Y-114220000D03*
D13*
X100330000Y-114220000D03*
D12*
X105410000Y-114220000D03*
D14*
X102870000Y-109140000D03*
X96520000Y-111680000D03*
D12*
X133350000Y-114220000D03*
D13*
X138430000Y-114220000D03*
D12*
X143510000Y-114220000D03*
D14*
X140970000Y-109140000D03*
X134620000Y-111680000D03*
D12*
X76200000Y-152400000D03*
D13*
X81280000Y-152400000D03*
D12*
X86360000Y-152400000D03*
D14*
X83820000Y-147320000D03*
X77470000Y-149860000D03*
D16*
X91730000Y-77855000D03*
D12*
X94270000Y-77855000D03*
X91730000Y-80395000D03*
X94270000Y-80395000D03*
X91730000Y-82935000D03*
X94270000Y-82935000D03*
X95250000Y-133350000D03*
D13*
X100330000Y-133350000D03*
D12*
X105410000Y-133350000D03*
D14*
X102870000Y-128270000D03*
X96520000Y-130810000D03*
D12*
X114300000Y-114220000D03*
D13*
X119380000Y-114220000D03*
D12*
X124460000Y-114220000D03*
D14*
X121920000Y-109140000D03*
X115570000Y-111680000D03*
D15*
X243250000Y-143000000D03*
D12*
X133350000Y-95250000D03*
D13*
X138430000Y-95250000D03*
D12*
X143510000Y-95250000D03*
D14*
X140970000Y-90170000D03*
X134620000Y-92710000D03*
D12*
X171450000Y-114220000D03*
D13*
X176530000Y-114220000D03*
D12*
X181610000Y-114220000D03*
D14*
X179070000Y-109140000D03*
X172720000Y-111680000D03*
D15*
X90800000Y-104600000D03*
D12*
X171450000Y-152400000D03*
D13*
X176530000Y-152400000D03*
D12*
X181610000Y-152400000D03*
D14*
X179070000Y-147320000D03*
X172720000Y-149860000D03*
D12*
X152400000Y-95250000D03*
D13*
X157480000Y-95250000D03*
D12*
X162560000Y-95250000D03*
D14*
X160020000Y-90170000D03*
X153670000Y-92710000D03*
D15*
X90750000Y-142750000D03*
D12*
X152400000Y-133350000D03*
D13*
X157480000Y-133350000D03*
D12*
X162560000Y-133350000D03*
D14*
X160020000Y-128270000D03*
X153670000Y-130810000D03*
D12*
X228600000Y-152400000D03*
D13*
X233680000Y-152400000D03*
D12*
X238760000Y-152400000D03*
D14*
X236220000Y-147320000D03*
X229870000Y-149860000D03*
D12*
X247650000Y-95250000D03*
D13*
X252730000Y-95250000D03*
D12*
X257810000Y-95250000D03*
D14*
X255270000Y-90170000D03*
X248920000Y-92710000D03*
D12*
X171450000Y-95250000D03*
D13*
X176530000Y-95250000D03*
D12*
X181610000Y-95250000D03*
D14*
X179070000Y-90170000D03*
X172720000Y-92710000D03*
D15*
X243250000Y-104750000D03*
D12*
X114300000Y-152400000D03*
D13*
X119380000Y-152400000D03*
D12*
X124460000Y-152400000D03*
D14*
X121920000Y-147320000D03*
X115570000Y-149860000D03*
D17*
X79240000Y-77485000D03*
X79240000Y-83265000D03*
D18*
X79770000Y-76055000D03*
D19*
X75590000Y-76055000D03*
D18*
X79770000Y-84695000D03*
D19*
X75590000Y-84695000D03*
D12*
X76200000Y-114220000D03*
D13*
X81280000Y-114220000D03*
D12*
X86360000Y-114220000D03*
D14*
X83820000Y-109140000D03*
X77470000Y-111680000D03*
D12*
X95250000Y-152400000D03*
D13*
X100330000Y-152400000D03*
D12*
X105410000Y-152400000D03*
D14*
X102870000Y-147320000D03*
X96520000Y-149860000D03*
D12*
X133350000Y-152400000D03*
D13*
X138430000Y-152400000D03*
D12*
X143510000Y-152400000D03*
D14*
X140970000Y-147320000D03*
X134620000Y-149860000D03*
D12*
X209550000Y-133350000D03*
D13*
X214630000Y-133350000D03*
D12*
X219710000Y-133350000D03*
D14*
X217170000Y-128270000D03*
X210820000Y-130810000D03*
D20*
X99800000Y-89875000D03*
X96500000Y-89875000D03*
D21*
X88800000Y-115600000D03*
X88800000Y-112300000D03*
D22*
X245925000Y-136100000D03*
X249225000Y-136100000D03*
D23*
X101233623Y-101166377D03*
X99766377Y-102633623D03*
D21*
X146800000Y-93075000D03*
X146800000Y-89775000D03*
X108475000Y-134800000D03*
X108475000Y-131500000D03*
X204000000Y-134425000D03*
X204000000Y-131125000D03*
D22*
X245975000Y-155550000D03*
X249275000Y-155550000D03*
D21*
X223100000Y-153375000D03*
X223100000Y-150075000D03*
X146975000Y-153100000D03*
X146975000Y-149800000D03*
X203925000Y-153250000D03*
X203925000Y-149950000D03*
X222975000Y-134425000D03*
X222975000Y-131125000D03*
X165900000Y-134450000D03*
X165900000Y-131150000D03*
X146975000Y-115250000D03*
X146975000Y-111950000D03*
D24*
X115866377Y-96616377D03*
X117333623Y-98083623D03*
D22*
X246025000Y-98150000D03*
X249325000Y-98150000D03*
D25*
X126497500Y-107440000D03*
X124422500Y-107440000D03*
D21*
X165900000Y-153200000D03*
X165900000Y-149900000D03*
X88800000Y-134600000D03*
X88800000Y-131300000D03*
X242125000Y-115200000D03*
X242125000Y-111900000D03*
X165950000Y-115275000D03*
X165950000Y-111975000D03*
D26*
X111300000Y-114750000D03*
X109300000Y-114750000D03*
D21*
X184925000Y-115150000D03*
X184925000Y-111850000D03*
D27*
X107233623Y-112683623D03*
X105766377Y-111216377D03*
D21*
X127500000Y-134400000D03*
X127500000Y-131100000D03*
X242250000Y-96100000D03*
X242250000Y-92800000D03*
X185075000Y-153175000D03*
X185075000Y-149875000D03*
D28*
X103391064Y-103047918D03*
X103956750Y-102482233D03*
X104522435Y-101916548D03*
X105088120Y-101350862D03*
X105653806Y-100785177D03*
X106219491Y-100219491D03*
X106785177Y-99653806D03*
X107350862Y-99088120D03*
X107916548Y-98522435D03*
X108482233Y-97956750D03*
X109047918Y-97391064D03*
D29*
X111452082Y-97391064D03*
X112017767Y-97956750D03*
X112583452Y-98522435D03*
X113149138Y-99088120D03*
X113714823Y-99653806D03*
X114280509Y-100219491D03*
X114846194Y-100785177D03*
X115411880Y-101350862D03*
X115977565Y-101916548D03*
X116543250Y-102482233D03*
X117108936Y-103047918D03*
D28*
X117108936Y-105452082D03*
X116543250Y-106017767D03*
X115977565Y-106583452D03*
X115411880Y-107149138D03*
X114846194Y-107714823D03*
X114280509Y-108280509D03*
X113714823Y-108846194D03*
X113149138Y-109411880D03*
X112583452Y-109977565D03*
X112017767Y-110543250D03*
X111452082Y-111108936D03*
D29*
X109047918Y-111108936D03*
X108482233Y-110543250D03*
X107916548Y-109977565D03*
X107350862Y-109411880D03*
X106785177Y-108846194D03*
X106219491Y-108280509D03*
X105653806Y-107714823D03*
X105088120Y-107149138D03*
X104522435Y-106583452D03*
X103956750Y-106017767D03*
X103391064Y-105452082D03*
D22*
X246000000Y-116925000D03*
X249300000Y-116925000D03*
D21*
X89375000Y-153600000D03*
X89375000Y-150300000D03*
X88925000Y-96600000D03*
X88925000Y-93300000D03*
D23*
X104233623Y-96766377D03*
X102766377Y-98233623D03*
D21*
X223200000Y-115275000D03*
X223200000Y-111975000D03*
X184925000Y-94250000D03*
X184925000Y-90950000D03*
X109075000Y-126075000D03*
X109075000Y-122775000D03*
X223150000Y-96050000D03*
X223150000Y-92750000D03*
X204125000Y-95600000D03*
X204125000Y-92300000D03*
X184750000Y-134325000D03*
X184750000Y-131025000D03*
X241900000Y-133875000D03*
X241900000Y-130575000D03*
X147025000Y-134400000D03*
X147025000Y-131100000D03*
D22*
X114750000Y-118400000D03*
X118050000Y-118400000D03*
D21*
X127975000Y-153275000D03*
X127975000Y-149975000D03*
X242125000Y-153650000D03*
X242125000Y-150350000D03*
D30*
X127775000Y-89300000D03*
X127775000Y-92600000D03*
D26*
X111700000Y-93350000D03*
X109700000Y-93350000D03*
D21*
X108925000Y-153325000D03*
X108925000Y-150025000D03*
D31*
X118116377Y-107583623D03*
X119583623Y-106116377D03*
D21*
X203975000Y-115150000D03*
X203975000Y-111850000D03*
D32*
X124210000Y-104440000D03*
X124210000Y-101540000D03*
X126510000Y-101540000D03*
X126510000Y-104440000D03*
D21*
X165900000Y-93400000D03*
X165900000Y-90100000D03*
D33*
X124460000Y-97690000D03*
X126535000Y-97690000D03*
D34*
X104000000Y-79000000D03*
X104000000Y-80000000D03*
X103000000Y-80000000D03*
X103000000Y-79000000D03*
X94000000Y-86000000D03*
X94000000Y-87000000D03*
X93000000Y-87000000D03*
X93000000Y-86000000D03*
X127000000Y-128000000D03*
X126000000Y-128000000D03*
X125000000Y-128000000D03*
X135000000Y-97000000D03*
X187000000Y-96000000D03*
X187000000Y-95000000D03*
X187000000Y-94000000D03*
X187000000Y-93000000D03*
X187000000Y-92000000D03*
X150000000Y-94000000D03*
X150000000Y-95000000D03*
X150000000Y-93000000D03*
X150000000Y-92000000D03*
X150000000Y-91000000D03*
X125000000Y-118000000D03*
X125000000Y-119000000D03*
X125000000Y-120000000D03*
X124000000Y-120000000D03*
X124000000Y-119000000D03*
X124000000Y-118000000D03*
X101000000Y-118000000D03*
X101000000Y-119000000D03*
X101000000Y-120000000D03*
X100000000Y-120000000D03*
X100000000Y-119000000D03*
X100000000Y-118000000D03*
X118000000Y-92000000D03*
X119000000Y-92000000D03*
X101000000Y-92000000D03*
X100000000Y-92000000D03*
X99000000Y-92000000D03*
X105000000Y-93000000D03*
X105000000Y-92000000D03*
X114000000Y-90000000D03*
X113000000Y-90000000D03*
X112000000Y-90000000D03*
X111000000Y-90000000D03*
X108991332Y-104000000D03*
X110000000Y-105000000D03*
X111000000Y-104000000D03*
X110000000Y-103000000D03*
X113000000Y-104000000D03*
X112000000Y-105000000D03*
X111000000Y-106000000D03*
X110000000Y-107000000D03*
X108991332Y-106000000D03*
X108000000Y-105000000D03*
X112000000Y-103000000D03*
X111000000Y-102000000D03*
X110000000Y-101000000D03*
X109000000Y-102000000D03*
X107934314Y-103065686D03*
X107000000Y-104000000D03*
X97600000Y-102200000D03*
X128600000Y-123150000D03*
X120600000Y-105200000D03*
X127800000Y-123800000D03*
X121640520Y-105890670D03*
X83030870Y-79775000D03*
X83115000Y-82375000D03*
X130000000Y-128000000D03*
X112800000Y-117600000D03*
X111400000Y-124800000D03*
X131000000Y-122400000D03*
X82400000Y-83600000D03*
X118800000Y-108400000D03*
X107750000Y-114250000D03*
X106000000Y-98250000D03*
X99650000Y-100875000D03*
X82225761Y-77425761D03*
X102050000Y-104750000D03*
X111700000Y-92100000D03*
X109800000Y-152400000D03*
X112600000Y-112400000D03*
X110400000Y-134200000D03*
X113470000Y-111800000D03*
X94600000Y-93600000D03*
X90400000Y-97000000D03*
X107400000Y-89400000D03*
X118000000Y-89200000D03*
X101000000Y-89400000D03*
X125800000Y-92600000D03*
X82865000Y-78625000D03*
X82380870Y-81109130D03*
X97450000Y-81300000D03*
X91199479Y-89800521D03*
X91800521Y-89199479D03*
%LPD*%
M02*
