G04 #@! TF.GenerationSoftware,KiCad,Pcbnew,8.0.8-8.0.8-0~ubuntu22.04.1*
G04 #@! TF.CreationDate,2025-02-27T16:32:05+08:00*
G04 #@! TF.ProjectId,macropad,6d616372-6f70-4616-942e-6b696361645f,rev?*
G04 #@! TF.SameCoordinates,Original*
G04 #@! TF.FileFunction,Soldermask,Bot*
G04 #@! TF.FilePolarity,Negative*
%FSLAX46Y46*%
G04 Gerber Fmt 4.6, Leading zero omitted, Abs format (unit mm)*
G04 Created by KiCad (PCBNEW 8.0.8-8.0.8-0~ubuntu22.04.1) date 2025-02-27 16:32:05*
%MOMM*%
%LPD*%
G01*
G04 APERTURE LIST*
G04 Aperture macros list*
%AMRoundRect*
0 Rectangle with rounded corners*
0 $1 Rounding radius*
0 $2 $3 $4 $5 $6 $7 $8 $9 X,Y pos of 4 corners*
0 Add a 4 corners polygon primitive as box body*
4,1,4,$2,$3,$4,$5,$6,$7,$8,$9,$2,$3,0*
0 Add four circle primitives for the rounded corners*
1,1,$1+$1,$2,$3*
1,1,$1+$1,$4,$5*
1,1,$1+$1,$6,$7*
1,1,$1+$1,$8,$9*
0 Add four rect primitives between the rounded corners*
20,1,$1+$1,$2,$3,$4,$5,0*
20,1,$1+$1,$4,$5,$6,$7,0*
20,1,$1+$1,$6,$7,$8,$9,0*
20,1,$1+$1,$8,$9,$2,$3,0*%
G04 Aperture macros list end*
%ADD10RoundRect,0.400000X0.400000X-0.900000X0.400000X0.900000X-0.400000X0.900000X-0.400000X-0.900000X0*%
%ADD11RoundRect,0.400050X0.400050X-0.899950X0.400050X0.899950X-0.400050X0.899950X-0.400050X-0.899950X0*%
%ADD12RoundRect,0.400000X0.900000X-0.400000X0.900000X0.400000X-0.900000X0.400000X-0.900000X-0.400000X0*%
%ADD13RoundRect,0.393700X0.906300X-0.393700X0.906300X0.393700X-0.906300X0.393700X-0.906300X-0.393700X0*%
%ADD14C,5.300000*%
%ADD15R,2.030000X1.730000*%
%ADD16O,2.030000X1.730000*%
%ADD17C,1.700000*%
%ADD18C,4.000000*%
%ADD19C,2.200000*%
%ADD20RoundRect,0.090000X-0.360000X0.660000X-0.360000X-0.660000X0.360000X-0.660000X0.360000X0.660000X0*%
%ADD21RoundRect,0.090000X-0.660000X-0.360000X0.660000X-0.360000X0.660000X0.360000X-0.660000X0.360000X0*%
%ADD22RoundRect,0.090000X0.660000X0.360000X-0.660000X0.360000X-0.660000X-0.360000X0.660000X-0.360000X0*%
%ADD23RoundRect,0.090000X0.360000X-0.660000X0.360000X0.660000X-0.360000X0.660000X-0.360000X-0.660000X0*%
G04 APERTURE END LIST*
D10*
X172765000Y-72240000D03*
X175305000Y-72240000D03*
X177845000Y-72240000D03*
X180385000Y-72240000D03*
X182925000Y-72240000D03*
D11*
X185465000Y-72240000D03*
X188005000Y-72240000D03*
X190545000Y-72240000D03*
X193085000Y-72240000D03*
D12*
X193895000Y-75380000D03*
D13*
X193895000Y-77920000D03*
X193895000Y-80460000D03*
X193895000Y-83000000D03*
X193895000Y-85540000D03*
D11*
X193085000Y-88680000D03*
X190545000Y-88680000D03*
X188005000Y-88680000D03*
X185465000Y-88680000D03*
X172765000Y-88680000D03*
X175305000Y-88680000D03*
X177845000Y-88680000D03*
X182925000Y-88680000D03*
X180385000Y-88680000D03*
D14*
X202000000Y-87000000D03*
D15*
X200000000Y-78540000D03*
D16*
X200000000Y-76000000D03*
X200000000Y-73460000D03*
X200000000Y-70920000D03*
D14*
X238000000Y-87000000D03*
D17*
X201930000Y-100330000D03*
D18*
X207010000Y-100330000D03*
D17*
X212090000Y-100330000D03*
D19*
X209550000Y-95250000D03*
X203200000Y-97790000D03*
D17*
X182880000Y-100330000D03*
D18*
X187960000Y-100330000D03*
D17*
X193040000Y-100330000D03*
D19*
X190500000Y-95250000D03*
X184150000Y-97790000D03*
D17*
X220980000Y-100330000D03*
D18*
X226060000Y-100330000D03*
D17*
X231140000Y-100330000D03*
D19*
X228600000Y-95250000D03*
X222250000Y-97790000D03*
D14*
X238000000Y-112000000D03*
X176000000Y-112000000D03*
D20*
X174100000Y-97216666D03*
X177400000Y-97216666D03*
X177400000Y-102116666D03*
X174100000Y-102116666D03*
D21*
X216583332Y-113950000D03*
X216583332Y-110650000D03*
X221483332Y-110650000D03*
X221483332Y-113950000D03*
D20*
X236150000Y-78100000D03*
X239450000Y-78100000D03*
X239450000Y-83000000D03*
X236150000Y-83000000D03*
D22*
X221483332Y-66500000D03*
X221483332Y-69800000D03*
X216583332Y-69800000D03*
X216583332Y-66500000D03*
D20*
X174100000Y-79050000D03*
X177400000Y-79050000D03*
X177400000Y-83950000D03*
X174100000Y-83950000D03*
D21*
X192566666Y-113950000D03*
X192566666Y-110650000D03*
X197466666Y-110650000D03*
X197466666Y-113950000D03*
D22*
X197466666Y-66600000D03*
X197466666Y-69900000D03*
X192566666Y-69900000D03*
X192566666Y-66600000D03*
D23*
X239350000Y-102116666D03*
X236050000Y-102116666D03*
X236050000Y-97216666D03*
X239350000Y-97216666D03*
M02*
