M48
; DRILL file {KiCad 8.0.8-8.0.8-0~ubuntu22.04.1} date 2025-02-27T16:32:07+0800
; FORMAT={-:-/ absolute / inch / decimal}
; #@! TF.CreationDate,2025-02-27T16:32:07+08:00
; #@! TF.GenerationSoftware,Kicad,Pcbnew,8.0.8-8.0.8-0~ubuntu22.04.1
; #@! TF.FileFunction,Plated,1,2,PTH
FMAT,2
INCH
; #@! TA.AperFunction,Plated,PTH,ViaDrill
T1C0.0118
; #@! TA.AperFunction,Plated,PTH,ComponentDrill
T2C0.0315
; #@! TA.AperFunction,Plated,PTH,ComponentDrill
T3C0.0402
; #@! TA.AperFunction,Plated,PTH,ComponentDrill
T4C0.0591
%
G90
G05
T1
X6.8543Y-3.1122
X6.8543Y-3.8274
X6.8898Y-2.6575
X6.8898Y-2.9528
X6.9882Y-2.6575
X6.9882Y-2.9528
X7.185Y-3.0512
X7.185Y-3.1496
X7.185Y-3.248
X7.185Y-4.4291
X7.185Y-4.5276
X7.2835Y-3.0512
X7.2835Y-3.1496
X7.2835Y-3.248
X7.2835Y-4.4291
X7.2835Y-4.5276
X7.3819Y-3.0512
X7.3819Y-3.1496
X7.3819Y-3.248
X7.4803Y-3.0512
X7.4803Y-3.1496
X7.4803Y-3.248
X7.5814Y-4.4862
X7.7795Y-2.6201
X8.5269Y-4.4862
X8.7198Y-2.6181
X9.2972Y-3.0748
X9.3504Y-2.6575
X9.3504Y-2.7559
X9.4232Y-4.0203
X9.4488Y-2.6575
X9.4488Y-2.7559
X10.2362Y-3.4449
T2
X6.8018Y-2.8677
X6.8018Y-3.4677
X6.9018Y-2.8677
X6.9018Y-3.4677
X7.0018Y-2.8677
X7.0018Y-3.4677
X7.1018Y-2.8677
X7.1018Y-3.4677
X7.2018Y-2.8677
X7.2018Y-3.4677
X7.3018Y-2.8677
X7.3018Y-3.4677
X7.4018Y-2.8677
X7.4018Y-3.4677
X7.5018Y-2.8677
X7.5018Y-3.4677
X7.6018Y-2.8677
X7.6018Y-3.4677
X7.61Y-2.9677
X7.61Y-3.0677
X7.61Y-3.1677
X7.61Y-3.2677
X7.61Y-3.3677
T3
X7.874Y-2.7921
X7.874Y-2.8921
X7.874Y-2.9921
X7.874Y-3.0921
T4
X7.25Y-3.85
X7.5Y-3.75
X8.0Y-3.85
X8.25Y-3.75
X8.75Y-3.85
X9.0Y-3.75
M30
