G04 #@! TF.GenerationSoftware,KiCad,Pcbnew,8.0.8-8.0.8-0~ubuntu22.04.1*
G04 #@! TF.CreationDate,2025-02-27T16:32:05+08:00*
G04 #@! TF.ProjectId,macropad,6d616372-6f70-4616-942e-6b696361645f,rev?*
G04 #@! TF.SameCoordinates,Original*
G04 #@! TF.FileFunction,Copper,L2,Bot*
G04 #@! TF.FilePolarity,Positive*
%FSLAX46Y46*%
G04 Gerber Fmt 4.6, Leading zero omitted, Abs format (unit mm)*
G04 Created by KiCad (PCBNEW 8.0.8-8.0.8-0~ubuntu22.04.1) date 2025-02-27 16:32:05*
%MOMM*%
%LPD*%
G01*
G04 APERTURE LIST*
G04 Aperture macros list*
%AMRoundRect*
0 Rectangle with rounded corners*
0 $1 Rounding radius*
0 $2 $3 $4 $5 $6 $7 $8 $9 X,Y pos of 4 corners*
0 Add a 4 corners polygon primitive as box body*
4,1,4,$2,$3,$4,$5,$6,$7,$8,$9,$2,$3,0*
0 Add four circle primitives for the rounded corners*
1,1,$1+$1,$2,$3*
1,1,$1+$1,$4,$5*
1,1,$1+$1,$6,$7*
1,1,$1+$1,$8,$9*
0 Add four rect primitives between the rounded corners*
20,1,$1+$1,$2,$3,$4,$5,0*
20,1,$1+$1,$4,$5,$6,$7,0*
20,1,$1+$1,$6,$7,$8,$9,0*
20,1,$1+$1,$8,$9,$2,$3,0*%
G04 Aperture macros list end*
%ADD10C,0.300000*%
G04 #@! TA.AperFunction,NonConductor*
%ADD11C,0.300000*%
G04 #@! TD*
G04 #@! TA.AperFunction,ComponentPad*
%ADD12RoundRect,0.400000X0.400000X-0.900000X0.400000X0.900000X-0.400000X0.900000X-0.400000X-0.900000X0*%
G04 #@! TD*
G04 #@! TA.AperFunction,ComponentPad*
%ADD13RoundRect,0.400050X0.400050X-0.899950X0.400050X0.899950X-0.400050X0.899950X-0.400050X-0.899950X0*%
G04 #@! TD*
G04 #@! TA.AperFunction,ComponentPad*
%ADD14RoundRect,0.400000X0.900000X-0.400000X0.900000X0.400000X-0.900000X0.400000X-0.900000X-0.400000X0*%
G04 #@! TD*
G04 #@! TA.AperFunction,ComponentPad*
%ADD15RoundRect,0.393700X0.906300X-0.393700X0.906300X0.393700X-0.906300X0.393700X-0.906300X-0.393700X0*%
G04 #@! TD*
G04 #@! TA.AperFunction,ComponentPad*
%ADD16R,2.030000X1.730000*%
G04 #@! TD*
G04 #@! TA.AperFunction,ComponentPad*
%ADD17O,2.030000X1.730000*%
G04 #@! TD*
G04 #@! TA.AperFunction,ComponentPad*
%ADD18C,2.200000*%
G04 #@! TD*
G04 #@! TA.AperFunction,SMDPad,CuDef*
%ADD19RoundRect,0.090000X-0.360000X0.660000X-0.360000X-0.660000X0.360000X-0.660000X0.360000X0.660000X0*%
G04 #@! TD*
G04 #@! TA.AperFunction,SMDPad,CuDef*
%ADD20RoundRect,0.090000X-0.660000X-0.360000X0.660000X-0.360000X0.660000X0.360000X-0.660000X0.360000X0*%
G04 #@! TD*
G04 #@! TA.AperFunction,SMDPad,CuDef*
%ADD21RoundRect,0.090000X0.660000X0.360000X-0.660000X0.360000X-0.660000X-0.360000X0.660000X-0.360000X0*%
G04 #@! TD*
G04 #@! TA.AperFunction,SMDPad,CuDef*
%ADD22RoundRect,0.090000X0.360000X-0.660000X0.360000X0.660000X-0.360000X0.660000X-0.360000X-0.660000X0*%
G04 #@! TD*
G04 #@! TA.AperFunction,ViaPad*
%ADD23C,0.600000*%
G04 #@! TD*
G04 #@! TA.AperFunction,Conductor*
%ADD24C,0.500000*%
G04 #@! TD*
G04 APERTURE END LIST*
D10*
D11*
X221516917Y-73300828D02*
X221516917Y-74372257D01*
X221516917Y-74372257D02*
X221588346Y-74586542D01*
X221588346Y-74586542D02*
X221731203Y-74729400D01*
X221731203Y-74729400D02*
X221945489Y-74800828D01*
X221945489Y-74800828D02*
X222088346Y-74800828D01*
X220802632Y-74015114D02*
X220302632Y-74015114D01*
X220088346Y-74800828D02*
X220802632Y-74800828D01*
X220802632Y-74800828D02*
X220802632Y-73300828D01*
X220802632Y-73300828D02*
X220088346Y-73300828D01*
X218588346Y-74800828D02*
X219088346Y-74086542D01*
X219445489Y-74800828D02*
X219445489Y-73300828D01*
X219445489Y-73300828D02*
X218874060Y-73300828D01*
X218874060Y-73300828D02*
X218731203Y-73372257D01*
X218731203Y-73372257D02*
X218659774Y-73443685D01*
X218659774Y-73443685D02*
X218588346Y-73586542D01*
X218588346Y-73586542D02*
X218588346Y-73800828D01*
X218588346Y-73800828D02*
X218659774Y-73943685D01*
X218659774Y-73943685D02*
X218731203Y-74015114D01*
X218731203Y-74015114D02*
X218874060Y-74086542D01*
X218874060Y-74086542D02*
X219445489Y-74086542D01*
X217088346Y-74800828D02*
X217588346Y-74086542D01*
X217945489Y-74800828D02*
X217945489Y-73300828D01*
X217945489Y-73300828D02*
X217374060Y-73300828D01*
X217374060Y-73300828D02*
X217231203Y-73372257D01*
X217231203Y-73372257D02*
X217159774Y-73443685D01*
X217159774Y-73443685D02*
X217088346Y-73586542D01*
X217088346Y-73586542D02*
X217088346Y-73800828D01*
X217088346Y-73800828D02*
X217159774Y-73943685D01*
X217159774Y-73943685D02*
X217231203Y-74015114D01*
X217231203Y-74015114D02*
X217374060Y-74086542D01*
X217374060Y-74086542D02*
X217945489Y-74086542D01*
X216159774Y-74086542D02*
X216159774Y-74800828D01*
X216659774Y-73300828D02*
X216159774Y-74086542D01*
X216159774Y-74086542D02*
X215659774Y-73300828D01*
X215159775Y-74800828D02*
X215159775Y-73300828D01*
X215159775Y-73300828D02*
X214588346Y-73300828D01*
X214588346Y-73300828D02*
X214445489Y-73372257D01*
X214445489Y-73372257D02*
X214374060Y-73443685D01*
X214374060Y-73443685D02*
X214302632Y-73586542D01*
X214302632Y-73586542D02*
X214302632Y-73800828D01*
X214302632Y-73800828D02*
X214374060Y-73943685D01*
X214374060Y-73943685D02*
X214445489Y-74015114D01*
X214445489Y-74015114D02*
X214588346Y-74086542D01*
X214588346Y-74086542D02*
X215159775Y-74086542D01*
X213731203Y-74372257D02*
X213016918Y-74372257D01*
X213874060Y-74800828D02*
X213374060Y-73300828D01*
X213374060Y-73300828D02*
X212874060Y-74800828D01*
X212374061Y-74800828D02*
X212374061Y-73300828D01*
X212374061Y-73300828D02*
X212016918Y-73300828D01*
X212016918Y-73300828D02*
X211802632Y-73372257D01*
X211802632Y-73372257D02*
X211659775Y-73515114D01*
X211659775Y-73515114D02*
X211588346Y-73657971D01*
X211588346Y-73657971D02*
X211516918Y-73943685D01*
X211516918Y-73943685D02*
X211516918Y-74157971D01*
X211516918Y-74157971D02*
X211588346Y-74443685D01*
X211588346Y-74443685D02*
X211659775Y-74586542D01*
X211659775Y-74586542D02*
X211802632Y-74729400D01*
X211802632Y-74729400D02*
X212016918Y-74800828D01*
X212016918Y-74800828D02*
X212374061Y-74800828D01*
X209945489Y-73300828D02*
X209445489Y-74800828D01*
X209445489Y-74800828D02*
X208945489Y-73300828D01*
X208588347Y-73300828D02*
X207659775Y-73300828D01*
X207659775Y-73300828D02*
X208159775Y-73872257D01*
X208159775Y-73872257D02*
X207945490Y-73872257D01*
X207945490Y-73872257D02*
X207802633Y-73943685D01*
X207802633Y-73943685D02*
X207731204Y-74015114D01*
X207731204Y-74015114D02*
X207659775Y-74157971D01*
X207659775Y-74157971D02*
X207659775Y-74515114D01*
X207659775Y-74515114D02*
X207731204Y-74657971D01*
X207731204Y-74657971D02*
X207802633Y-74729400D01*
X207802633Y-74729400D02*
X207945490Y-74800828D01*
X207945490Y-74800828D02*
X208374061Y-74800828D01*
X208374061Y-74800828D02*
X208516918Y-74729400D01*
X208516918Y-74729400D02*
X208588347Y-74657971D01*
X207016919Y-74657971D02*
X206945490Y-74729400D01*
X206945490Y-74729400D02*
X207016919Y-74800828D01*
X207016919Y-74800828D02*
X207088347Y-74729400D01*
X207088347Y-74729400D02*
X207016919Y-74657971D01*
X207016919Y-74657971D02*
X207016919Y-74800828D01*
X206016918Y-73300828D02*
X205874061Y-73300828D01*
X205874061Y-73300828D02*
X205731204Y-73372257D01*
X205731204Y-73372257D02*
X205659776Y-73443685D01*
X205659776Y-73443685D02*
X205588347Y-73586542D01*
X205588347Y-73586542D02*
X205516918Y-73872257D01*
X205516918Y-73872257D02*
X205516918Y-74229400D01*
X205516918Y-74229400D02*
X205588347Y-74515114D01*
X205588347Y-74515114D02*
X205659776Y-74657971D01*
X205659776Y-74657971D02*
X205731204Y-74729400D01*
X205731204Y-74729400D02*
X205874061Y-74800828D01*
X205874061Y-74800828D02*
X206016918Y-74800828D01*
X206016918Y-74800828D02*
X206159776Y-74729400D01*
X206159776Y-74729400D02*
X206231204Y-74657971D01*
X206231204Y-74657971D02*
X206302633Y-74515114D01*
X206302633Y-74515114D02*
X206374061Y-74229400D01*
X206374061Y-74229400D02*
X206374061Y-73872257D01*
X206374061Y-73872257D02*
X206302633Y-73586542D01*
X206302633Y-73586542D02*
X206231204Y-73443685D01*
X206231204Y-73443685D02*
X206159776Y-73372257D01*
X206159776Y-73372257D02*
X206016918Y-73300828D01*
D12*
X172765000Y-72240000D03*
X175305000Y-72240000D03*
X177845000Y-72240000D03*
X180385000Y-72240000D03*
X182925000Y-72240000D03*
D13*
X185465000Y-72240000D03*
X188005000Y-72240000D03*
X190545000Y-72240000D03*
X193085000Y-72240000D03*
D14*
X193895000Y-75380000D03*
D15*
X193895000Y-77920000D03*
X193895000Y-80460000D03*
X193895000Y-83000000D03*
X193895000Y-85540000D03*
D13*
X193085000Y-88680000D03*
X190545000Y-88680000D03*
X188005000Y-88680000D03*
X185465000Y-88680000D03*
X172765000Y-88680000D03*
X175305000Y-88680000D03*
X177845000Y-88680000D03*
X182925000Y-88680000D03*
X180385000Y-88680000D03*
D16*
X200000000Y-78540000D03*
D17*
X200000000Y-76000000D03*
X200000000Y-73460000D03*
X200000000Y-70920000D03*
D18*
X209550000Y-95250000D03*
X203200000Y-97790000D03*
X190500000Y-95250000D03*
X184150000Y-97790000D03*
X228600000Y-95250000D03*
X222250000Y-97790000D03*
D19*
X174100000Y-97216666D03*
X177400000Y-97216666D03*
X177400000Y-102116666D03*
X174100000Y-102116666D03*
D20*
X216583332Y-113950000D03*
X216583332Y-110650000D03*
X221483332Y-110650000D03*
X221483332Y-113950000D03*
D19*
X236150000Y-78100000D03*
X239450000Y-78100000D03*
X239450000Y-83000000D03*
X236150000Y-83000000D03*
D21*
X221483332Y-66500000D03*
X221483332Y-69800000D03*
X216583332Y-69800000D03*
X216583332Y-66500000D03*
D19*
X174100000Y-79050000D03*
X177400000Y-79050000D03*
X177400000Y-83950000D03*
X174100000Y-83950000D03*
D20*
X192566666Y-113950000D03*
X192566666Y-110650000D03*
X197466666Y-110650000D03*
X197466666Y-113950000D03*
D21*
X197466666Y-66600000D03*
X197466666Y-69900000D03*
X192566666Y-69900000D03*
X192566666Y-66600000D03*
D22*
X239350000Y-102116666D03*
X236050000Y-102116666D03*
X236050000Y-97216666D03*
X239350000Y-97216666D03*
D23*
X190000000Y-82500000D03*
X187500000Y-82500000D03*
X185000000Y-82500000D03*
X182500000Y-82500000D03*
X182500000Y-80000000D03*
X185000000Y-80000000D03*
X187500000Y-80000000D03*
X190000000Y-80000000D03*
X190000000Y-77500000D03*
X187500000Y-77500000D03*
X185000000Y-77500000D03*
X182500000Y-77500000D03*
X260000000Y-87500000D03*
X175000000Y-67500000D03*
X240000000Y-70000000D03*
X185000000Y-115000000D03*
X182500000Y-115000000D03*
X177500000Y-67500000D03*
X185000000Y-112500000D03*
X240000000Y-67500000D03*
X182500000Y-112500000D03*
X237500000Y-70000000D03*
X175000000Y-75000000D03*
X237500000Y-67500000D03*
X177500000Y-75000000D03*
X192566666Y-113950000D03*
X236150000Y-78100000D03*
X221483332Y-66500000D03*
X239350000Y-102116666D03*
X216583332Y-113950000D03*
X174100000Y-97216666D03*
X174100000Y-79050000D03*
X197600000Y-66550000D03*
D24*
X197550000Y-66600000D02*
X197600000Y-66550000D01*
X197466666Y-66600000D02*
X197550000Y-66600000D01*
X186062918Y-66600000D02*
X192566666Y-66600000D01*
X180385000Y-72840000D02*
X180385000Y-72277918D01*
X180385000Y-72277918D02*
X186062918Y-66600000D01*
X200866666Y-66500000D02*
X216583332Y-66500000D01*
X197466666Y-69900000D02*
X200866666Y-66500000D01*
X222950000Y-69800000D02*
X236150000Y-83000000D01*
X221483332Y-69800000D02*
X222950000Y-69800000D01*
X239450000Y-78100000D02*
X241150000Y-79800000D01*
X241150000Y-79800000D02*
X241150000Y-95416666D01*
X241150000Y-95416666D02*
X239350000Y-97216666D01*
X236050000Y-102116666D02*
X224216666Y-113950000D01*
X224216666Y-113950000D02*
X221483332Y-113950000D01*
X213333332Y-113900000D02*
X213000000Y-113900000D01*
X212950000Y-113950000D02*
X197466666Y-113950000D01*
X213000000Y-113900000D02*
X212950000Y-113950000D01*
X216583332Y-110650000D02*
X213333332Y-113900000D01*
X182633334Y-110650000D02*
X174100000Y-102116666D01*
X192566666Y-110650000D02*
X182633334Y-110650000D01*
X176555100Y-96371766D02*
X176555100Y-86405100D01*
X176555100Y-86405100D02*
X174100000Y-83950000D01*
X177400000Y-97216666D02*
X176555100Y-96371766D01*
G04 #@! TA.AperFunction,Conductor*
G36*
X196502146Y-65520185D02*
G01*
X196547901Y-65572989D01*
X196557845Y-65642147D01*
X196528820Y-65705703D01*
X196510594Y-65722875D01*
X196385519Y-65818849D01*
X196385518Y-65818850D01*
X196385517Y-65818851D01*
X196310319Y-65916851D01*
X196290864Y-65942205D01*
X196231365Y-66085848D01*
X196231364Y-66085850D01*
X196216166Y-66201298D01*
X196216166Y-66998703D01*
X196231362Y-67114142D01*
X196231365Y-67114151D01*
X196290866Y-67257798D01*
X196385517Y-67381149D01*
X196508868Y-67475800D01*
X196652515Y-67535301D01*
X196767965Y-67550500D01*
X198165366Y-67550499D01*
X198165369Y-67550499D01*
X198280808Y-67535303D01*
X198280812Y-67535301D01*
X198280817Y-67535301D01*
X198424464Y-67475800D01*
X198547815Y-67381149D01*
X198642466Y-67257798D01*
X198701967Y-67114151D01*
X198717166Y-66998701D01*
X198717165Y-66201300D01*
X198717165Y-66201298D01*
X198717165Y-66201296D01*
X198701969Y-66085857D01*
X198701967Y-66085850D01*
X198701967Y-66085849D01*
X198642466Y-65942202D01*
X198547815Y-65818851D01*
X198480091Y-65766884D01*
X198422738Y-65722875D01*
X198381536Y-65666447D01*
X198377381Y-65596701D01*
X198411594Y-65535781D01*
X198473311Y-65503029D01*
X198498225Y-65500500D01*
X215421452Y-65500500D01*
X215488491Y-65520185D01*
X215534246Y-65572989D01*
X215544190Y-65642147D01*
X215515165Y-65705703D01*
X215507629Y-65712803D01*
X215507930Y-65713104D01*
X215507853Y-65713181D01*
X215506366Y-65713992D01*
X215496934Y-65722880D01*
X215495731Y-65723803D01*
X215493566Y-65720981D01*
X215446530Y-65746666D01*
X215420172Y-65749500D01*
X200792746Y-65749500D01*
X200647758Y-65778340D01*
X200647748Y-65778343D01*
X200511177Y-65834912D01*
X200511164Y-65834919D01*
X200436342Y-65884915D01*
X200388247Y-65917050D01*
X200388244Y-65917053D01*
X197392115Y-68913181D01*
X197330792Y-68946666D01*
X197304434Y-68949500D01*
X196767962Y-68949500D01*
X196652523Y-68964696D01*
X196652514Y-68964699D01*
X196508871Y-69024198D01*
X196508868Y-69024199D01*
X196508868Y-69024200D01*
X196385517Y-69118851D01*
X196310165Y-69217052D01*
X196290864Y-69242205D01*
X196231365Y-69385848D01*
X196231364Y-69385850D01*
X196216166Y-69501298D01*
X196216166Y-70298703D01*
X196231362Y-70414142D01*
X196231365Y-70414151D01*
X196277504Y-70525541D01*
X196290866Y-70557798D01*
X196385517Y-70681149D01*
X196508868Y-70775800D01*
X196652515Y-70835301D01*
X196767965Y-70850500D01*
X198165366Y-70850499D01*
X198165369Y-70850499D01*
X198280808Y-70835303D01*
X198280812Y-70835301D01*
X198280817Y-70835301D01*
X198313046Y-70821950D01*
X198382515Y-70814481D01*
X198444995Y-70845755D01*
X198480648Y-70905844D01*
X198484500Y-70936511D01*
X198484500Y-71027465D01*
X198518124Y-71239756D01*
X198518124Y-71239759D01*
X198584540Y-71444167D01*
X198584541Y-71444170D01*
X198682120Y-71635678D01*
X198808455Y-71809563D01*
X198960437Y-71961545D01*
X199106181Y-72067434D01*
X199136802Y-72089682D01*
X199179467Y-72145012D01*
X199185446Y-72214626D01*
X199152840Y-72276421D01*
X199136802Y-72290318D01*
X199134322Y-72292120D01*
X198960437Y-72418455D01*
X198960435Y-72418457D01*
X198960434Y-72418457D01*
X198808457Y-72570434D01*
X198808457Y-72570435D01*
X198808455Y-72570437D01*
X198756096Y-72642503D01*
X198682120Y-72744321D01*
X198584541Y-72935829D01*
X198584540Y-72935832D01*
X198518124Y-73140240D01*
X198518124Y-73140243D01*
X198518124Y-73140245D01*
X198484500Y-73352533D01*
X198484500Y-73567467D01*
X198494836Y-73632724D01*
X198518124Y-73779756D01*
X198518124Y-73779759D01*
X198584540Y-73984167D01*
X198584541Y-73984170D01*
X198682120Y-74175678D01*
X198808455Y-74349563D01*
X198960437Y-74501545D01*
X199106181Y-74607434D01*
X199136802Y-74629682D01*
X199179467Y-74685012D01*
X199185446Y-74754626D01*
X199152840Y-74816421D01*
X199136802Y-74830318D01*
X199094539Y-74861023D01*
X198960437Y-74958455D01*
X198960435Y-74958457D01*
X198960434Y-74958457D01*
X198808457Y-75110434D01*
X198808457Y-75110435D01*
X198808455Y-75110437D01*
X198754198Y-75185114D01*
X198682120Y-75284321D01*
X198584541Y-75475829D01*
X198584540Y-75475832D01*
X198518124Y-75680240D01*
X198518124Y-75680243D01*
X198484500Y-75892534D01*
X198484500Y-76107465D01*
X198518124Y-76319756D01*
X198518124Y-76319759D01*
X198584540Y-76524167D01*
X198584541Y-76524170D01*
X198636080Y-76625320D01*
X198682120Y-76715678D01*
X198808455Y-76889563D01*
X198808457Y-76889565D01*
X198903369Y-76984477D01*
X198936854Y-77045800D01*
X198931870Y-77115492D01*
X198889998Y-77171425D01*
X198859021Y-77188340D01*
X198742913Y-77231645D01*
X198742906Y-77231649D01*
X198627812Y-77317809D01*
X198627809Y-77317812D01*
X198541649Y-77432906D01*
X198541645Y-77432913D01*
X198491403Y-77567620D01*
X198491401Y-77567627D01*
X198485000Y-77627155D01*
X198485000Y-78290000D01*
X199555440Y-78290000D01*
X199524755Y-78343147D01*
X199490000Y-78472857D01*
X199490000Y-78607143D01*
X199524755Y-78736853D01*
X199555440Y-78790000D01*
X198485000Y-78790000D01*
X198485000Y-79452844D01*
X198491401Y-79512372D01*
X198491403Y-79512379D01*
X198541645Y-79647086D01*
X198541649Y-79647093D01*
X198627809Y-79762187D01*
X198627812Y-79762190D01*
X198742906Y-79848350D01*
X198742913Y-79848354D01*
X198877620Y-79898596D01*
X198877627Y-79898598D01*
X198937155Y-79904999D01*
X198937172Y-79905000D01*
X199750000Y-79905000D01*
X199750000Y-78984560D01*
X199803147Y-79015245D01*
X199932857Y-79050000D01*
X200067143Y-79050000D01*
X200196853Y-79015245D01*
X200250000Y-78984560D01*
X200250000Y-79905000D01*
X201062828Y-79905000D01*
X201062844Y-79904999D01*
X201122372Y-79898598D01*
X201122379Y-79898596D01*
X201257086Y-79848354D01*
X201257093Y-79848350D01*
X201372187Y-79762190D01*
X201372190Y-79762187D01*
X201458350Y-79647093D01*
X201458354Y-79647086D01*
X201508596Y-79512379D01*
X201508598Y-79512372D01*
X201514999Y-79452844D01*
X201515000Y-79452827D01*
X201515000Y-78790000D01*
X200444560Y-78790000D01*
X200475245Y-78736853D01*
X200510000Y-78607143D01*
X200510000Y-78472857D01*
X200475245Y-78343147D01*
X200444560Y-78290000D01*
X201515000Y-78290000D01*
X201515000Y-77627172D01*
X201514999Y-77627155D01*
X201508598Y-77567627D01*
X201508596Y-77567620D01*
X201458354Y-77432913D01*
X201458350Y-77432906D01*
X201372190Y-77317812D01*
X201372187Y-77317809D01*
X201257093Y-77231649D01*
X201257086Y-77231645D01*
X201140978Y-77188340D01*
X201085044Y-77146469D01*
X201060627Y-77081005D01*
X201075479Y-77012732D01*
X201096624Y-76984483D01*
X201191545Y-76889563D01*
X201317880Y-76715678D01*
X201415458Y-76524170D01*
X201449221Y-76420257D01*
X201481875Y-76319759D01*
X201481875Y-76319758D01*
X201481876Y-76319755D01*
X201515500Y-76107467D01*
X201515500Y-75892533D01*
X201481876Y-75680245D01*
X201481875Y-75680241D01*
X201481875Y-75680240D01*
X201415459Y-75475832D01*
X201415458Y-75475829D01*
X201406962Y-75459155D01*
X204858714Y-75459155D01*
X222743846Y-75459155D01*
X222743846Y-72642503D01*
X204858714Y-72642503D01*
X204858714Y-75459155D01*
X201406962Y-75459155D01*
X201317879Y-75284321D01*
X201191545Y-75110437D01*
X201039563Y-74958455D01*
X200982464Y-74916970D01*
X200863198Y-74830318D01*
X200820532Y-74774988D01*
X200814553Y-74705375D01*
X200847159Y-74643580D01*
X200863198Y-74629682D01*
X200891381Y-74609205D01*
X201039563Y-74501545D01*
X201191545Y-74349563D01*
X201317880Y-74175678D01*
X201415458Y-73984170D01*
X201443009Y-73899376D01*
X201481875Y-73779759D01*
X201481875Y-73779758D01*
X201481876Y-73779755D01*
X201515500Y-73567467D01*
X201515500Y-73352533D01*
X201481876Y-73140245D01*
X201481875Y-73140241D01*
X201481875Y-73140240D01*
X201415459Y-72935832D01*
X201415458Y-72935829D01*
X201317879Y-72744321D01*
X201191545Y-72570437D01*
X201039563Y-72418455D01*
X200865678Y-72292120D01*
X200863198Y-72290318D01*
X200820532Y-72234988D01*
X200814553Y-72165375D01*
X200847159Y-72103580D01*
X200863198Y-72089682D01*
X200891381Y-72069205D01*
X201039563Y-71961545D01*
X201191545Y-71809563D01*
X201317880Y-71635678D01*
X201415458Y-71444170D01*
X201469766Y-71277026D01*
X201481875Y-71239759D01*
X201481875Y-71239758D01*
X201481876Y-71239755D01*
X201515500Y-71027467D01*
X201515500Y-70812533D01*
X201481876Y-70600245D01*
X201481875Y-70600241D01*
X201481875Y-70600240D01*
X201415459Y-70395832D01*
X201415458Y-70395829D01*
X201317879Y-70204321D01*
X201313773Y-70198670D01*
X215333332Y-70198670D01*
X215348517Y-70314019D01*
X215348519Y-70314024D01*
X215407965Y-70457541D01*
X215407965Y-70457542D01*
X215502539Y-70580792D01*
X215625790Y-70675366D01*
X215769307Y-70734812D01*
X215769312Y-70734814D01*
X215884661Y-70750000D01*
X216333332Y-70750000D01*
X216833332Y-70750000D01*
X217282003Y-70750000D01*
X217397351Y-70734814D01*
X217397356Y-70734812D01*
X217540873Y-70675366D01*
X217540874Y-70675366D01*
X217664124Y-70580792D01*
X217758698Y-70457542D01*
X217758698Y-70457541D01*
X217818144Y-70314024D01*
X217818146Y-70314019D01*
X217833332Y-70198670D01*
X217833332Y-70050000D01*
X216833332Y-70050000D01*
X216833332Y-70750000D01*
X216333332Y-70750000D01*
X216333332Y-70050000D01*
X215333332Y-70050000D01*
X215333332Y-70198670D01*
X201313773Y-70198670D01*
X201191545Y-70030437D01*
X201039563Y-69878455D01*
X200865678Y-69752120D01*
X200674170Y-69654541D01*
X200674167Y-69654540D01*
X200469757Y-69588124D01*
X200328229Y-69565708D01*
X200257467Y-69554500D01*
X199742533Y-69554500D01*
X199671770Y-69565708D01*
X199530243Y-69588124D01*
X199530240Y-69588124D01*
X199325832Y-69654540D01*
X199325829Y-69654541D01*
X199134321Y-69752120D01*
X199037638Y-69822365D01*
X198960437Y-69878455D01*
X198960435Y-69878457D01*
X198960434Y-69878457D01*
X198928846Y-69910046D01*
X198867523Y-69943531D01*
X198797831Y-69938547D01*
X198741898Y-69896675D01*
X198717481Y-69831211D01*
X198717165Y-69822365D01*
X198717165Y-69762230D01*
X198736850Y-69695191D01*
X198753484Y-69674549D01*
X199026704Y-69401329D01*
X215333332Y-69401329D01*
X215333332Y-69550000D01*
X216333332Y-69550000D01*
X216833332Y-69550000D01*
X217833332Y-69550000D01*
X217833332Y-69401329D01*
X217833328Y-69401298D01*
X220232832Y-69401298D01*
X220232832Y-70198703D01*
X220248028Y-70314142D01*
X220248031Y-70314151D01*
X220307425Y-70457541D01*
X220307532Y-70457798D01*
X220402183Y-70581149D01*
X220525534Y-70675800D01*
X220669181Y-70735301D01*
X220784631Y-70750500D01*
X222182032Y-70750499D01*
X222182035Y-70750499D01*
X222297474Y-70735303D01*
X222297478Y-70735301D01*
X222297483Y-70735301D01*
X222441130Y-70675800D01*
X222537792Y-70601627D01*
X222602956Y-70576435D01*
X222671401Y-70590473D01*
X222700956Y-70612324D01*
X235163181Y-83074549D01*
X235196666Y-83135872D01*
X235199500Y-83162230D01*
X235199500Y-83698703D01*
X235214696Y-83814142D01*
X235214699Y-83814151D01*
X235274200Y-83957798D01*
X235368851Y-84081149D01*
X235492202Y-84175800D01*
X235635849Y-84235301D01*
X235751299Y-84250500D01*
X236493653Y-84250499D01*
X236560692Y-84270183D01*
X236606447Y-84322987D01*
X236616391Y-84392146D01*
X236587366Y-84455702D01*
X236559625Y-84479493D01*
X236318920Y-84630738D01*
X236064217Y-84833856D01*
X235833856Y-85064217D01*
X235630738Y-85318920D01*
X235457413Y-85594765D01*
X235316066Y-85888274D01*
X235208471Y-86195761D01*
X235208467Y-86195773D01*
X235135976Y-86513379D01*
X235135974Y-86513395D01*
X235099500Y-86837106D01*
X235099500Y-87162893D01*
X235135974Y-87486604D01*
X235135976Y-87486620D01*
X235208467Y-87804226D01*
X235208471Y-87804238D01*
X235316066Y-88111725D01*
X235457413Y-88405234D01*
X235457415Y-88405237D01*
X235630739Y-88681081D01*
X235833857Y-88935783D01*
X236064217Y-89166143D01*
X236318919Y-89369261D01*
X236594763Y-89542585D01*
X236888278Y-89683935D01*
X237119217Y-89764744D01*
X237195761Y-89791528D01*
X237195773Y-89791532D01*
X237513383Y-89864024D01*
X237837106Y-89900499D01*
X237837107Y-89900500D01*
X237837111Y-89900500D01*
X238162893Y-89900500D01*
X238162893Y-89900499D01*
X238486617Y-89864024D01*
X238804227Y-89791532D01*
X239111722Y-89683935D01*
X239405237Y-89542585D01*
X239681081Y-89369261D01*
X239935783Y-89166143D01*
X240166143Y-88935783D01*
X240178552Y-88920223D01*
X240235740Y-88880081D01*
X240305551Y-88877231D01*
X240365822Y-88912575D01*
X240397416Y-88974894D01*
X240399500Y-88997534D01*
X240399500Y-95054436D01*
X240379815Y-95121475D01*
X240363181Y-95142117D01*
X239575450Y-95929847D01*
X239514127Y-95963332D01*
X239487769Y-95966166D01*
X238951296Y-95966166D01*
X238835857Y-95981362D01*
X238835848Y-95981365D01*
X238692205Y-96040864D01*
X238692202Y-96040865D01*
X238692202Y-96040866D01*
X238568851Y-96135517D01*
X238524242Y-96193653D01*
X238474198Y-96258871D01*
X238414699Y-96402514D01*
X238414698Y-96402516D01*
X238399500Y-96517964D01*
X238399500Y-97915369D01*
X238414696Y-98030808D01*
X238414699Y-98030817D01*
X238474093Y-98174207D01*
X238474200Y-98174464D01*
X238568851Y-98297815D01*
X238692202Y-98392466D01*
X238835849Y-98451967D01*
X238951299Y-98467166D01*
X239748700Y-98467165D01*
X239748703Y-98467165D01*
X239864142Y-98451969D01*
X239864146Y-98451967D01*
X239864151Y-98451967D01*
X240007798Y-98392466D01*
X240131149Y-98297815D01*
X240225800Y-98174464D01*
X240285301Y-98030817D01*
X240300500Y-97915367D01*
X240300499Y-97378894D01*
X240320183Y-97311856D01*
X240336813Y-97291219D01*
X241732951Y-95895082D01*
X241815084Y-95772161D01*
X241871658Y-95635579D01*
X241900500Y-95490584D01*
X241900500Y-95342749D01*
X241900500Y-79726082D01*
X241900500Y-79726079D01*
X241871659Y-79581092D01*
X241871658Y-79581091D01*
X241871658Y-79581087D01*
X241843198Y-79512379D01*
X241815086Y-79444509D01*
X241815085Y-79444507D01*
X241782186Y-79395270D01*
X241782185Y-79395268D01*
X241732956Y-79321589D01*
X241732952Y-79321584D01*
X240436818Y-78025450D01*
X240403333Y-77964127D01*
X240400499Y-77937769D01*
X240400499Y-77401296D01*
X240385303Y-77285857D01*
X240385301Y-77285850D01*
X240385301Y-77285849D01*
X240325800Y-77142202D01*
X240231149Y-77018851D01*
X240107798Y-76924200D01*
X240107794Y-76924198D01*
X239964151Y-76864699D01*
X239964149Y-76864698D01*
X239848701Y-76849500D01*
X239051296Y-76849500D01*
X238935857Y-76864696D01*
X238935848Y-76864699D01*
X238792205Y-76924198D01*
X238792202Y-76924199D01*
X238792202Y-76924200D01*
X238668851Y-77018851D01*
X238594696Y-77115492D01*
X238574198Y-77142205D01*
X238514699Y-77285848D01*
X238514698Y-77285850D01*
X238499500Y-77401298D01*
X238499500Y-78798703D01*
X238514696Y-78914142D01*
X238514699Y-78914151D01*
X238574200Y-79057798D01*
X238668851Y-79181149D01*
X238792202Y-79275800D01*
X238935849Y-79335301D01*
X239051299Y-79350500D01*
X239587769Y-79350499D01*
X239654808Y-79370183D01*
X239675450Y-79386818D01*
X240363181Y-80074549D01*
X240396666Y-80135872D01*
X240399500Y-80162230D01*
X240399500Y-81797213D01*
X240379815Y-81864252D01*
X240327011Y-81910007D01*
X240257853Y-81919951D01*
X240200014Y-81895589D01*
X240107546Y-81824636D01*
X240107541Y-81824633D01*
X239964024Y-81765187D01*
X239964019Y-81765185D01*
X239848671Y-81750000D01*
X239700000Y-81750000D01*
X239700000Y-84250000D01*
X239848671Y-84250000D01*
X239964019Y-84234814D01*
X239964024Y-84234812D01*
X240107541Y-84175366D01*
X240107547Y-84175363D01*
X240200013Y-84104411D01*
X240265182Y-84079216D01*
X240333627Y-84093254D01*
X240383617Y-84142068D01*
X240399500Y-84202786D01*
X240399500Y-85002465D01*
X240379815Y-85069504D01*
X240327011Y-85115259D01*
X240257853Y-85125203D01*
X240194297Y-85096178D01*
X240178554Y-85079779D01*
X240166144Y-85064218D01*
X239935782Y-84833856D01*
X239713513Y-84656603D01*
X239681081Y-84630739D01*
X239405237Y-84457415D01*
X239405234Y-84457413D01*
X239270198Y-84392383D01*
X239218339Y-84345560D01*
X239200000Y-84280663D01*
X239200000Y-83250000D01*
X238500000Y-83250000D01*
X238500000Y-83698670D01*
X238515185Y-83814019D01*
X238515187Y-83814024D01*
X238576026Y-83960905D01*
X238583495Y-84030374D01*
X238552219Y-84092853D01*
X238492130Y-84128505D01*
X238447581Y-84131577D01*
X238162893Y-84099500D01*
X238162889Y-84099500D01*
X237837111Y-84099500D01*
X237837107Y-84099500D01*
X237513395Y-84135974D01*
X237513379Y-84135976D01*
X237195773Y-84208467D01*
X237195771Y-84208468D01*
X237092891Y-84244467D01*
X237023112Y-84248028D01*
X236962485Y-84213299D01*
X236930258Y-84151305D01*
X236936664Y-84081730D01*
X236953555Y-84051948D01*
X237025800Y-83957798D01*
X237085301Y-83814151D01*
X237100500Y-83698701D01*
X237100499Y-82301329D01*
X238500000Y-82301329D01*
X238500000Y-82750000D01*
X239200000Y-82750000D01*
X239200000Y-81750000D01*
X239051329Y-81750000D01*
X238935980Y-81765185D01*
X238935975Y-81765187D01*
X238792458Y-81824633D01*
X238792457Y-81824633D01*
X238669207Y-81919207D01*
X238574633Y-82042457D01*
X238574633Y-82042458D01*
X238515187Y-82185975D01*
X238515185Y-82185980D01*
X238500000Y-82301329D01*
X237100499Y-82301329D01*
X237100499Y-82301300D01*
X237100499Y-82301296D01*
X237085303Y-82185857D01*
X237085301Y-82185852D01*
X237085301Y-82185849D01*
X237025800Y-82042202D01*
X236931149Y-81918851D01*
X236807798Y-81824200D01*
X236807794Y-81824198D01*
X236664151Y-81764699D01*
X236664149Y-81764698D01*
X236548702Y-81749500D01*
X236548701Y-81749500D01*
X236012230Y-81749500D01*
X235945191Y-81729815D01*
X235924549Y-81713181D01*
X231612666Y-77401298D01*
X235199500Y-77401298D01*
X235199500Y-78798703D01*
X235214696Y-78914142D01*
X235214699Y-78914151D01*
X235274200Y-79057798D01*
X235368851Y-79181149D01*
X235492202Y-79275800D01*
X235635849Y-79335301D01*
X235751299Y-79350500D01*
X236548700Y-79350499D01*
X236548703Y-79350499D01*
X236664142Y-79335303D01*
X236664146Y-79335301D01*
X236664151Y-79335301D01*
X236807798Y-79275800D01*
X236931149Y-79181149D01*
X237025800Y-79057798D01*
X237085301Y-78914151D01*
X237100500Y-78798701D01*
X237100499Y-77401300D01*
X237100499Y-77401298D01*
X237100499Y-77401296D01*
X237085303Y-77285857D01*
X237085301Y-77285850D01*
X237085301Y-77285849D01*
X237025800Y-77142202D01*
X236931149Y-77018851D01*
X236807798Y-76924200D01*
X236807794Y-76924198D01*
X236664151Y-76864699D01*
X236664149Y-76864698D01*
X236548701Y-76849500D01*
X235751296Y-76849500D01*
X235635857Y-76864696D01*
X235635848Y-76864699D01*
X235492205Y-76924198D01*
X235492202Y-76924199D01*
X235492202Y-76924200D01*
X235368851Y-77018851D01*
X235294696Y-77115492D01*
X235274198Y-77142205D01*
X235214699Y-77285848D01*
X235214698Y-77285850D01*
X235199500Y-77401298D01*
X231612666Y-77401298D01*
X223428421Y-69217052D01*
X223428420Y-69217051D01*
X223316467Y-69142247D01*
X223316444Y-69142232D01*
X223316399Y-69142202D01*
X223305495Y-69134916D01*
X223305493Y-69134915D01*
X223305490Y-69134913D01*
X223168917Y-69078343D01*
X223168907Y-69078340D01*
X223023920Y-69049500D01*
X223023918Y-69049500D01*
X222646492Y-69049500D01*
X222579453Y-69029815D01*
X222571332Y-69023271D01*
X222570928Y-69023799D01*
X222564482Y-69018853D01*
X222564481Y-69018851D01*
X222441130Y-68924200D01*
X222441126Y-68924198D01*
X222297483Y-68864699D01*
X222297481Y-68864698D01*
X222182033Y-68849500D01*
X220784628Y-68849500D01*
X220669189Y-68864696D01*
X220669180Y-68864699D01*
X220525537Y-68924198D01*
X220525534Y-68924199D01*
X220525534Y-68924200D01*
X220402183Y-69018851D01*
X220307535Y-69142199D01*
X220307530Y-69142205D01*
X220248031Y-69285848D01*
X220248030Y-69285850D01*
X220232832Y-69401298D01*
X217833328Y-69401298D01*
X217818146Y-69285980D01*
X217818144Y-69285975D01*
X217758698Y-69142458D01*
X217758698Y-69142457D01*
X217664124Y-69019207D01*
X217540873Y-68924633D01*
X217397356Y-68865187D01*
X217397351Y-68865185D01*
X217282003Y-68850000D01*
X216833332Y-68850000D01*
X216833332Y-69550000D01*
X216333332Y-69550000D01*
X216333332Y-68850000D01*
X215884661Y-68850000D01*
X215769312Y-68865185D01*
X215769307Y-68865187D01*
X215625790Y-68924633D01*
X215625789Y-68924633D01*
X215502539Y-69019207D01*
X215407965Y-69142457D01*
X215407965Y-69142458D01*
X215348519Y-69285975D01*
X215348517Y-69285980D01*
X215333332Y-69401329D01*
X199026704Y-69401329D01*
X201141214Y-67286819D01*
X201202537Y-67253334D01*
X201228895Y-67250500D01*
X215420172Y-67250500D01*
X215487211Y-67270185D01*
X215495331Y-67276728D01*
X215495736Y-67276201D01*
X215502181Y-67281146D01*
X215502183Y-67281149D01*
X215625534Y-67375800D01*
X215769181Y-67435301D01*
X215884631Y-67450500D01*
X217282032Y-67450499D01*
X217282035Y-67450499D01*
X217397474Y-67435303D01*
X217397478Y-67435301D01*
X217397483Y-67435301D01*
X217541130Y-67375800D01*
X217664481Y-67281149D01*
X217759132Y-67157798D01*
X217818633Y-67014151D01*
X217833832Y-66898701D01*
X217833831Y-66101300D01*
X217833831Y-66101298D01*
X217833831Y-66101296D01*
X217818635Y-65985857D01*
X217818633Y-65985850D01*
X217818633Y-65985849D01*
X217759132Y-65842202D01*
X217664481Y-65718851D01*
X217664478Y-65718848D01*
X217664476Y-65718846D01*
X217658734Y-65713104D01*
X217660963Y-65710874D01*
X217628525Y-65666454D01*
X217624367Y-65596708D01*
X217658576Y-65535786D01*
X217720292Y-65503030D01*
X217745212Y-65500500D01*
X220321452Y-65500500D01*
X220388491Y-65520185D01*
X220434246Y-65572989D01*
X220444190Y-65642147D01*
X220415165Y-65705703D01*
X220407629Y-65712803D01*
X220407930Y-65713104D01*
X220402187Y-65718846D01*
X220402183Y-65718850D01*
X220402183Y-65718851D01*
X220313121Y-65834919D01*
X220307530Y-65842205D01*
X220248031Y-65985848D01*
X220248030Y-65985850D01*
X220232832Y-66101298D01*
X220232832Y-66898703D01*
X220248028Y-67014142D01*
X220248031Y-67014151D01*
X220289452Y-67114151D01*
X220307532Y-67157798D01*
X220402183Y-67281149D01*
X220525534Y-67375800D01*
X220669181Y-67435301D01*
X220784631Y-67450500D01*
X222182032Y-67450499D01*
X222182035Y-67450499D01*
X222297474Y-67435303D01*
X222297478Y-67435301D01*
X222297483Y-67435301D01*
X222441130Y-67375800D01*
X222564481Y-67281149D01*
X222659132Y-67157798D01*
X222718633Y-67014151D01*
X222733832Y-66898701D01*
X222733831Y-66101300D01*
X222733831Y-66101298D01*
X222733831Y-66101296D01*
X222718635Y-65985857D01*
X222718633Y-65985850D01*
X222718633Y-65985849D01*
X222659132Y-65842202D01*
X222564481Y-65718851D01*
X222564478Y-65718848D01*
X222564476Y-65718846D01*
X222558734Y-65713104D01*
X222560963Y-65710874D01*
X222528525Y-65666454D01*
X222524367Y-65596708D01*
X222558576Y-65535786D01*
X222620292Y-65503030D01*
X222645212Y-65500500D01*
X238934108Y-65500500D01*
X238996949Y-65500500D01*
X239003032Y-65500648D01*
X239336929Y-65517052D01*
X239349037Y-65518245D01*
X239362116Y-65520185D01*
X239676699Y-65566849D01*
X239688617Y-65569219D01*
X240009951Y-65649709D01*
X240021588Y-65653240D01*
X240058519Y-65666454D01*
X240333467Y-65764832D01*
X240344688Y-65769479D01*
X240644163Y-65911120D01*
X240654871Y-65916844D01*
X240936852Y-66085857D01*
X240938988Y-66087137D01*
X240949106Y-66093897D01*
X241215170Y-66291224D01*
X241224576Y-66298944D01*
X241470013Y-66521395D01*
X241478604Y-66529986D01*
X241665755Y-66736475D01*
X241701055Y-66775423D01*
X241708775Y-66784829D01*
X241906102Y-67050893D01*
X241912862Y-67061011D01*
X241944712Y-67114149D01*
X242044807Y-67281149D01*
X242083148Y-67345116D01*
X242088883Y-67355844D01*
X242180948Y-67550500D01*
X242230514Y-67655297D01*
X242235170Y-67666540D01*
X242346759Y-67978411D01*
X242350292Y-67990055D01*
X242430777Y-68311369D01*
X242433151Y-68323305D01*
X242481754Y-68650962D01*
X242482947Y-68663071D01*
X242499351Y-68996966D01*
X242499500Y-69003051D01*
X242499500Y-112996948D01*
X242499351Y-113003033D01*
X242482947Y-113336928D01*
X242481754Y-113349037D01*
X242433151Y-113676694D01*
X242430777Y-113688630D01*
X242350292Y-114009944D01*
X242346759Y-114021588D01*
X242235170Y-114333459D01*
X242230514Y-114344702D01*
X242088885Y-114644151D01*
X242083148Y-114654883D01*
X241912862Y-114938988D01*
X241906102Y-114949106D01*
X241708775Y-115215170D01*
X241701055Y-115224576D01*
X241478611Y-115470006D01*
X241470006Y-115478611D01*
X241224576Y-115701055D01*
X241215170Y-115708775D01*
X240949106Y-115906102D01*
X240938988Y-115912862D01*
X240654883Y-116083148D01*
X240644151Y-116088885D01*
X240344702Y-116230514D01*
X240333459Y-116235170D01*
X240021588Y-116346759D01*
X240009944Y-116350292D01*
X239688630Y-116430777D01*
X239676694Y-116433151D01*
X239349037Y-116481754D01*
X239336928Y-116482947D01*
X239021989Y-116498419D01*
X239003031Y-116499351D01*
X238996949Y-116499500D01*
X175003051Y-116499500D01*
X174996968Y-116499351D01*
X174976900Y-116498365D01*
X174663071Y-116482947D01*
X174650962Y-116481754D01*
X174323305Y-116433151D01*
X174311369Y-116430777D01*
X173990055Y-116350292D01*
X173978411Y-116346759D01*
X173666540Y-116235170D01*
X173655301Y-116230515D01*
X173355844Y-116088883D01*
X173345121Y-116083150D01*
X173061011Y-115912862D01*
X173050893Y-115906102D01*
X172784829Y-115708775D01*
X172775423Y-115701055D01*
X172736475Y-115665755D01*
X172529986Y-115478604D01*
X172521395Y-115470013D01*
X172298944Y-115224576D01*
X172291224Y-115215170D01*
X172093897Y-114949106D01*
X172087137Y-114938988D01*
X171916844Y-114654871D01*
X171911120Y-114644163D01*
X171769479Y-114344688D01*
X171764829Y-114333459D01*
X171653240Y-114021588D01*
X171649707Y-114009944D01*
X171631131Y-113935783D01*
X171569219Y-113688617D01*
X171566848Y-113676694D01*
X171548247Y-113551298D01*
X171518245Y-113349037D01*
X171517052Y-113336927D01*
X171500649Y-113003032D01*
X171500500Y-112996948D01*
X171500500Y-111837106D01*
X173099500Y-111837106D01*
X173099500Y-112162893D01*
X173135974Y-112486604D01*
X173135976Y-112486620D01*
X173208467Y-112804226D01*
X173208471Y-112804238D01*
X173316066Y-113111725D01*
X173457413Y-113405234D01*
X173457415Y-113405237D01*
X173630739Y-113681081D01*
X173833857Y-113935783D01*
X174064217Y-114166143D01*
X174318919Y-114369261D01*
X174594763Y-114542585D01*
X174888278Y-114683935D01*
X175119217Y-114764744D01*
X175195761Y-114791528D01*
X175195773Y-114791532D01*
X175513383Y-114864024D01*
X175837106Y-114900499D01*
X175837107Y-114900500D01*
X175837111Y-114900500D01*
X176162893Y-114900500D01*
X176162893Y-114900499D01*
X176486617Y-114864024D01*
X176804227Y-114791532D01*
X177111722Y-114683935D01*
X177405237Y-114542585D01*
X177681081Y-114369261D01*
X177935783Y-114166143D01*
X178166143Y-113935783D01*
X178369261Y-113681081D01*
X178450809Y-113551298D01*
X191316166Y-113551298D01*
X191316166Y-114348703D01*
X191331362Y-114464142D01*
X191331365Y-114464151D01*
X191379273Y-114579812D01*
X191390866Y-114607798D01*
X191485517Y-114731149D01*
X191608868Y-114825800D01*
X191752515Y-114885301D01*
X191867965Y-114900500D01*
X193265366Y-114900499D01*
X193265369Y-114900499D01*
X193380808Y-114885303D01*
X193380812Y-114885301D01*
X193380817Y-114885301D01*
X193524464Y-114825800D01*
X193647815Y-114731149D01*
X193742466Y-114607798D01*
X193801967Y-114464151D01*
X193817166Y-114348701D01*
X193817165Y-113551300D01*
X193817165Y-113551298D01*
X196216166Y-113551298D01*
X196216166Y-114348703D01*
X196231362Y-114464142D01*
X196231365Y-114464151D01*
X196279273Y-114579812D01*
X196290866Y-114607798D01*
X196385517Y-114731149D01*
X196508868Y-114825800D01*
X196652515Y-114885301D01*
X196767965Y-114900500D01*
X198165366Y-114900499D01*
X198165369Y-114900499D01*
X198280808Y-114885303D01*
X198280812Y-114885301D01*
X198280817Y-114885301D01*
X198424464Y-114825800D01*
X198547815Y-114731149D01*
X198547816Y-114731146D01*
X198554262Y-114726201D01*
X198556425Y-114729021D01*
X198603468Y-114703334D01*
X198629826Y-114700500D01*
X213023920Y-114700500D01*
X213121462Y-114681096D01*
X213168913Y-114671658D01*
X213183372Y-114665668D01*
X213197206Y-114659939D01*
X213244658Y-114650500D01*
X213407252Y-114650500D01*
X213504794Y-114631096D01*
X213552245Y-114621658D01*
X213688827Y-114565084D01*
X213738061Y-114532186D01*
X213811748Y-114482952D01*
X214743401Y-113551298D01*
X215332832Y-113551298D01*
X215332832Y-114348703D01*
X215348028Y-114464142D01*
X215348031Y-114464151D01*
X215395939Y-114579812D01*
X215407532Y-114607798D01*
X215502183Y-114731149D01*
X215625534Y-114825800D01*
X215769181Y-114885301D01*
X215884631Y-114900500D01*
X217282032Y-114900499D01*
X217282035Y-114900499D01*
X217397474Y-114885303D01*
X217397478Y-114885301D01*
X217397483Y-114885301D01*
X217541130Y-114825800D01*
X217664481Y-114731149D01*
X217759132Y-114607798D01*
X217818633Y-114464151D01*
X217833832Y-114348701D01*
X217833831Y-113551300D01*
X217833831Y-113551298D01*
X220232832Y-113551298D01*
X220232832Y-114348703D01*
X220248028Y-114464142D01*
X220248031Y-114464151D01*
X220295939Y-114579812D01*
X220307532Y-114607798D01*
X220402183Y-114731149D01*
X220525534Y-114825800D01*
X220669181Y-114885301D01*
X220784631Y-114900500D01*
X222182032Y-114900499D01*
X222182035Y-114900499D01*
X222297474Y-114885303D01*
X222297478Y-114885301D01*
X222297483Y-114885301D01*
X222441130Y-114825800D01*
X222564481Y-114731149D01*
X222564482Y-114731146D01*
X222570928Y-114726201D01*
X222573091Y-114729021D01*
X222620134Y-114703334D01*
X222646492Y-114700500D01*
X224290586Y-114700500D01*
X224388128Y-114681096D01*
X224435579Y-114671658D01*
X224572161Y-114615084D01*
X224624943Y-114579816D01*
X224695082Y-114532952D01*
X227390927Y-111837106D01*
X235099500Y-111837106D01*
X235099500Y-112162893D01*
X235135974Y-112486604D01*
X235135976Y-112486620D01*
X235208467Y-112804226D01*
X235208471Y-112804238D01*
X235316066Y-113111725D01*
X235457413Y-113405234D01*
X235457415Y-113405237D01*
X235630739Y-113681081D01*
X235833857Y-113935783D01*
X236064217Y-114166143D01*
X236318919Y-114369261D01*
X236594763Y-114542585D01*
X236888278Y-114683935D01*
X237119217Y-114764744D01*
X237195761Y-114791528D01*
X237195773Y-114791532D01*
X237513383Y-114864024D01*
X237837106Y-114900499D01*
X237837107Y-114900500D01*
X237837111Y-114900500D01*
X238162893Y-114900500D01*
X238162893Y-114900499D01*
X238486617Y-114864024D01*
X238804227Y-114791532D01*
X239111722Y-114683935D01*
X239405237Y-114542585D01*
X239681081Y-114369261D01*
X239935783Y-114166143D01*
X240166143Y-113935783D01*
X240369261Y-113681081D01*
X240542585Y-113405237D01*
X240683935Y-113111722D01*
X240791532Y-112804227D01*
X240864024Y-112486617D01*
X240900500Y-112162889D01*
X240900500Y-111837111D01*
X240864024Y-111513383D01*
X240791532Y-111195773D01*
X240683935Y-110888278D01*
X240542585Y-110594763D01*
X240369261Y-110318919D01*
X240166143Y-110064217D01*
X239935783Y-109833857D01*
X239681081Y-109630739D01*
X239405237Y-109457415D01*
X239405234Y-109457413D01*
X239111725Y-109316066D01*
X238804238Y-109208471D01*
X238804226Y-109208467D01*
X238486620Y-109135976D01*
X238486604Y-109135974D01*
X238162893Y-109099500D01*
X238162889Y-109099500D01*
X237837111Y-109099500D01*
X237837107Y-109099500D01*
X237513395Y-109135974D01*
X237513379Y-109135976D01*
X237195773Y-109208467D01*
X237195761Y-109208471D01*
X236888274Y-109316066D01*
X236594765Y-109457413D01*
X236318920Y-109630738D01*
X236064217Y-109833856D01*
X235833856Y-110064217D01*
X235630738Y-110318920D01*
X235457413Y-110594765D01*
X235316066Y-110888274D01*
X235208471Y-111195761D01*
X235208467Y-111195773D01*
X235135976Y-111513379D01*
X235135974Y-111513395D01*
X235099500Y-111837106D01*
X227390927Y-111837106D01*
X235824548Y-103403483D01*
X235885871Y-103369999D01*
X235912229Y-103367165D01*
X236448703Y-103367165D01*
X236564142Y-103351969D01*
X236564146Y-103351967D01*
X236564151Y-103351967D01*
X236707798Y-103292466D01*
X236831149Y-103197815D01*
X236925800Y-103074464D01*
X236985301Y-102930817D01*
X237000500Y-102815367D01*
X237000499Y-101417966D01*
X237000499Y-101417964D01*
X238399500Y-101417964D01*
X238399500Y-102815369D01*
X238414696Y-102930808D01*
X238414699Y-102930817D01*
X238474093Y-103074207D01*
X238474200Y-103074464D01*
X238568851Y-103197815D01*
X238692202Y-103292466D01*
X238835849Y-103351967D01*
X238951299Y-103367166D01*
X239748700Y-103367165D01*
X239748703Y-103367165D01*
X239864142Y-103351969D01*
X239864146Y-103351967D01*
X239864151Y-103351967D01*
X240007798Y-103292466D01*
X240131149Y-103197815D01*
X240225800Y-103074464D01*
X240285301Y-102930817D01*
X240300500Y-102815367D01*
X240300499Y-101417966D01*
X240300499Y-101417964D01*
X240300499Y-101417962D01*
X240285303Y-101302523D01*
X240285301Y-101302516D01*
X240285301Y-101302515D01*
X240225800Y-101158868D01*
X240131149Y-101035517D01*
X240007798Y-100940866D01*
X240007794Y-100940864D01*
X239864151Y-100881365D01*
X239864149Y-100881364D01*
X239748701Y-100866166D01*
X238951296Y-100866166D01*
X238835857Y-100881362D01*
X238835848Y-100881365D01*
X238692205Y-100940864D01*
X238568851Y-101035517D01*
X238474198Y-101158871D01*
X238414699Y-101302514D01*
X238414698Y-101302516D01*
X238399500Y-101417964D01*
X237000499Y-101417964D01*
X237000499Y-101417962D01*
X236985303Y-101302523D01*
X236985301Y-101302516D01*
X236985301Y-101302515D01*
X236925800Y-101158868D01*
X236831149Y-101035517D01*
X236707798Y-100940866D01*
X236707794Y-100940864D01*
X236564151Y-100881365D01*
X236564149Y-100881364D01*
X236448701Y-100866166D01*
X235651296Y-100866166D01*
X235535857Y-100881362D01*
X235535848Y-100881365D01*
X235392205Y-100940864D01*
X235268851Y-101035517D01*
X235174198Y-101158871D01*
X235114699Y-101302514D01*
X235114698Y-101302516D01*
X235099500Y-101417964D01*
X235099500Y-101954436D01*
X235079815Y-102021475D01*
X235063181Y-102042117D01*
X223942117Y-113163181D01*
X223880794Y-113196666D01*
X223854436Y-113199500D01*
X222646492Y-113199500D01*
X222579453Y-113179815D01*
X222571332Y-113173271D01*
X222570928Y-113173799D01*
X222564482Y-113168853D01*
X222564481Y-113168851D01*
X222441130Y-113074200D01*
X222441126Y-113074198D01*
X222297483Y-113014699D01*
X222297481Y-113014698D01*
X222182033Y-112999500D01*
X220784628Y-112999500D01*
X220669189Y-113014696D01*
X220669180Y-113014699D01*
X220525537Y-113074198D01*
X220402183Y-113168851D01*
X220307530Y-113292205D01*
X220248031Y-113435848D01*
X220248030Y-113435850D01*
X220232832Y-113551298D01*
X217833831Y-113551298D01*
X217833831Y-113551296D01*
X217818635Y-113435857D01*
X217818633Y-113435850D01*
X217818633Y-113435849D01*
X217759132Y-113292202D01*
X217664481Y-113168851D01*
X217541130Y-113074200D01*
X217541126Y-113074198D01*
X217397483Y-113014699D01*
X217397481Y-113014698D01*
X217282033Y-112999500D01*
X215884628Y-112999500D01*
X215769189Y-113014696D01*
X215769180Y-113014699D01*
X215625537Y-113074198D01*
X215502183Y-113168851D01*
X215407530Y-113292205D01*
X215348031Y-113435848D01*
X215348030Y-113435850D01*
X215332832Y-113551298D01*
X214743401Y-113551298D01*
X216657881Y-111636817D01*
X216719204Y-111603333D01*
X216745562Y-111600499D01*
X217282035Y-111600499D01*
X217397474Y-111585303D01*
X217397478Y-111585301D01*
X217397483Y-111585301D01*
X217541130Y-111525800D01*
X217664481Y-111431149D01*
X217759132Y-111307798D01*
X217818633Y-111164151D01*
X217833832Y-111048701D01*
X217833832Y-111048670D01*
X220233332Y-111048670D01*
X220248517Y-111164019D01*
X220248519Y-111164024D01*
X220307965Y-111307541D01*
X220307965Y-111307542D01*
X220402539Y-111430792D01*
X220525790Y-111525366D01*
X220669307Y-111584812D01*
X220669312Y-111584814D01*
X220784661Y-111600000D01*
X221233332Y-111600000D01*
X221733332Y-111600000D01*
X222182003Y-111600000D01*
X222297351Y-111584814D01*
X222297356Y-111584812D01*
X222440873Y-111525366D01*
X222440874Y-111525366D01*
X222564124Y-111430792D01*
X222658698Y-111307542D01*
X222658698Y-111307541D01*
X222718144Y-111164024D01*
X222718146Y-111164019D01*
X222733332Y-111048670D01*
X222733332Y-110900000D01*
X221733332Y-110900000D01*
X221733332Y-111600000D01*
X221233332Y-111600000D01*
X221233332Y-110900000D01*
X220233332Y-110900000D01*
X220233332Y-111048670D01*
X217833832Y-111048670D01*
X217833831Y-110251329D01*
X220233332Y-110251329D01*
X220233332Y-110400000D01*
X221233332Y-110400000D01*
X221733332Y-110400000D01*
X222733332Y-110400000D01*
X222733332Y-110251329D01*
X222718146Y-110135980D01*
X222718144Y-110135975D01*
X222658698Y-109992458D01*
X222658698Y-109992457D01*
X222564124Y-109869207D01*
X222440873Y-109774633D01*
X222297356Y-109715187D01*
X222297351Y-109715185D01*
X222182003Y-109700000D01*
X221733332Y-109700000D01*
X221733332Y-110400000D01*
X221233332Y-110400000D01*
X221233332Y-109700000D01*
X220784661Y-109700000D01*
X220669312Y-109715185D01*
X220669307Y-109715187D01*
X220525790Y-109774633D01*
X220525789Y-109774633D01*
X220402539Y-109869207D01*
X220307965Y-109992457D01*
X220307965Y-109992458D01*
X220248519Y-110135975D01*
X220248517Y-110135980D01*
X220233332Y-110251329D01*
X217833831Y-110251329D01*
X217833831Y-110251300D01*
X217833831Y-110251298D01*
X217833831Y-110251296D01*
X217818635Y-110135857D01*
X217818633Y-110135850D01*
X217818633Y-110135849D01*
X217759132Y-109992202D01*
X217664481Y-109868851D01*
X217541130Y-109774200D01*
X217541126Y-109774198D01*
X217397483Y-109714699D01*
X217397481Y-109714698D01*
X217282033Y-109699500D01*
X215884628Y-109699500D01*
X215769189Y-109714696D01*
X215769180Y-109714699D01*
X215625537Y-109774198D01*
X215502183Y-109868851D01*
X215407530Y-109992205D01*
X215348031Y-110135848D01*
X215348030Y-110135850D01*
X215332832Y-110251298D01*
X215332832Y-110787769D01*
X215313147Y-110854808D01*
X215296513Y-110875450D01*
X213058783Y-113113181D01*
X212997460Y-113146666D01*
X212971102Y-113149500D01*
X212926076Y-113149500D01*
X212897242Y-113155234D01*
X212897243Y-113155235D01*
X212781093Y-113178339D01*
X212781087Y-113178341D01*
X212752794Y-113190061D01*
X212705341Y-113199500D01*
X198629826Y-113199500D01*
X198562787Y-113179815D01*
X198554666Y-113173271D01*
X198554262Y-113173799D01*
X198547816Y-113168853D01*
X198547815Y-113168851D01*
X198424464Y-113074200D01*
X198424460Y-113074198D01*
X198280817Y-113014699D01*
X198280815Y-113014698D01*
X198165367Y-112999500D01*
X196767962Y-112999500D01*
X196652523Y-113014696D01*
X196652514Y-113014699D01*
X196508871Y-113074198D01*
X196385517Y-113168851D01*
X196290864Y-113292205D01*
X196231365Y-113435848D01*
X196231364Y-113435850D01*
X196216166Y-113551298D01*
X193817165Y-113551298D01*
X193817165Y-113551296D01*
X193801969Y-113435857D01*
X193801967Y-113435850D01*
X193801967Y-113435849D01*
X193742466Y-113292202D01*
X193647815Y-113168851D01*
X193524464Y-113074200D01*
X193524460Y-113074198D01*
X193380817Y-113014699D01*
X193380815Y-113014698D01*
X193265367Y-112999500D01*
X191867962Y-112999500D01*
X191752523Y-113014696D01*
X191752514Y-113014699D01*
X191608871Y-113074198D01*
X191485517Y-113168851D01*
X191390864Y-113292205D01*
X191331365Y-113435848D01*
X191331364Y-113435850D01*
X191316166Y-113551298D01*
X178450809Y-113551298D01*
X178542585Y-113405237D01*
X178683935Y-113111722D01*
X178791532Y-112804227D01*
X178864024Y-112486617D01*
X178900500Y-112162889D01*
X178900500Y-111837111D01*
X178864024Y-111513383D01*
X178791532Y-111195773D01*
X178683935Y-110888278D01*
X178542585Y-110594763D01*
X178369261Y-110318919D01*
X178166143Y-110064217D01*
X177935783Y-109833857D01*
X177681081Y-109630739D01*
X177405237Y-109457415D01*
X177405234Y-109457413D01*
X177111725Y-109316066D01*
X176804238Y-109208471D01*
X176804226Y-109208467D01*
X176486620Y-109135976D01*
X176486604Y-109135974D01*
X176162893Y-109099500D01*
X176162889Y-109099500D01*
X175837111Y-109099500D01*
X175837107Y-109099500D01*
X175513395Y-109135974D01*
X175513379Y-109135976D01*
X175195773Y-109208467D01*
X175195761Y-109208471D01*
X174888274Y-109316066D01*
X174594765Y-109457413D01*
X174318920Y-109630738D01*
X174064217Y-109833856D01*
X173833856Y-110064217D01*
X173630738Y-110318920D01*
X173457413Y-110594765D01*
X173316066Y-110888274D01*
X173208471Y-111195761D01*
X173208467Y-111195773D01*
X173135976Y-111513379D01*
X173135974Y-111513395D01*
X173099500Y-111837106D01*
X171500500Y-111837106D01*
X171500500Y-101417964D01*
X173149500Y-101417964D01*
X173149500Y-102815369D01*
X173164696Y-102930808D01*
X173164699Y-102930817D01*
X173224093Y-103074207D01*
X173224200Y-103074464D01*
X173318851Y-103197815D01*
X173442202Y-103292466D01*
X173585849Y-103351967D01*
X173701299Y-103367166D01*
X174237769Y-103367165D01*
X174304808Y-103386849D01*
X174325450Y-103403484D01*
X182050383Y-111128416D01*
X182154918Y-111232951D01*
X182154921Y-111232953D01*
X182154922Y-111232954D01*
X182277837Y-111315083D01*
X182277840Y-111315085D01*
X182334413Y-111338518D01*
X182334414Y-111338518D01*
X182414422Y-111371659D01*
X182530575Y-111394763D01*
X182549802Y-111398587D01*
X182559415Y-111400500D01*
X182559416Y-111400500D01*
X182559417Y-111400500D01*
X182707252Y-111400500D01*
X191403506Y-111400500D01*
X191470545Y-111420185D01*
X191478665Y-111426728D01*
X191479070Y-111426201D01*
X191485515Y-111431146D01*
X191485517Y-111431149D01*
X191608868Y-111525800D01*
X191752515Y-111585301D01*
X191867965Y-111600500D01*
X193265366Y-111600499D01*
X193265369Y-111600499D01*
X193380808Y-111585303D01*
X193380812Y-111585301D01*
X193380817Y-111585301D01*
X193524464Y-111525800D01*
X193647815Y-111431149D01*
X193742466Y-111307798D01*
X193801967Y-111164151D01*
X193817166Y-111048701D01*
X193817166Y-111048670D01*
X196216666Y-111048670D01*
X196231851Y-111164019D01*
X196231853Y-111164024D01*
X196291299Y-111307541D01*
X196291299Y-111307542D01*
X196385873Y-111430792D01*
X196509124Y-111525366D01*
X196652641Y-111584812D01*
X196652646Y-111584814D01*
X196767995Y-111600000D01*
X197216666Y-111600000D01*
X197716666Y-111600000D01*
X198165337Y-111600000D01*
X198280685Y-111584814D01*
X198280690Y-111584812D01*
X198424207Y-111525366D01*
X198424208Y-111525366D01*
X198547458Y-111430792D01*
X198642032Y-111307542D01*
X198642032Y-111307541D01*
X198701478Y-111164024D01*
X198701480Y-111164019D01*
X198716666Y-111048670D01*
X198716666Y-110900000D01*
X197716666Y-110900000D01*
X197716666Y-111600000D01*
X197216666Y-111600000D01*
X197216666Y-110900000D01*
X196216666Y-110900000D01*
X196216666Y-111048670D01*
X193817166Y-111048670D01*
X193817165Y-110251329D01*
X196216666Y-110251329D01*
X196216666Y-110400000D01*
X197216666Y-110400000D01*
X197716666Y-110400000D01*
X198716666Y-110400000D01*
X198716666Y-110251329D01*
X198701480Y-110135980D01*
X198701478Y-110135975D01*
X198642032Y-109992458D01*
X198642032Y-109992457D01*
X198547458Y-109869207D01*
X198424207Y-109774633D01*
X198280690Y-109715187D01*
X198280685Y-109715185D01*
X198165337Y-109700000D01*
X197716666Y-109700000D01*
X197716666Y-110400000D01*
X197216666Y-110400000D01*
X197216666Y-109700000D01*
X196767995Y-109700000D01*
X196652646Y-109715185D01*
X196652641Y-109715187D01*
X196509124Y-109774633D01*
X196509123Y-109774633D01*
X196385873Y-109869207D01*
X196291299Y-109992457D01*
X196291299Y-109992458D01*
X196231853Y-110135975D01*
X196231851Y-110135980D01*
X196216666Y-110251329D01*
X193817165Y-110251329D01*
X193817165Y-110251300D01*
X193817165Y-110251298D01*
X193817165Y-110251296D01*
X193801969Y-110135857D01*
X193801967Y-110135850D01*
X193801967Y-110135849D01*
X193742466Y-109992202D01*
X193647815Y-109868851D01*
X193524464Y-109774200D01*
X193524460Y-109774198D01*
X193380817Y-109714699D01*
X193380815Y-109714698D01*
X193265367Y-109699500D01*
X191867962Y-109699500D01*
X191752523Y-109714696D01*
X191752514Y-109714699D01*
X191608871Y-109774198D01*
X191608868Y-109774199D01*
X191608868Y-109774200D01*
X191485517Y-109868851D01*
X191485515Y-109868853D01*
X191479070Y-109873799D01*
X191476906Y-109870978D01*
X191429864Y-109896666D01*
X191403506Y-109899500D01*
X182995563Y-109899500D01*
X182928524Y-109879815D01*
X182907882Y-109863181D01*
X175860038Y-102815336D01*
X176450000Y-102815336D01*
X176465185Y-102930685D01*
X176465187Y-102930690D01*
X176524633Y-103074207D01*
X176524633Y-103074208D01*
X176619207Y-103197458D01*
X176742458Y-103292032D01*
X176885975Y-103351478D01*
X176885980Y-103351480D01*
X177001329Y-103366666D01*
X177150000Y-103366666D01*
X177650000Y-103366666D01*
X177798671Y-103366666D01*
X177914019Y-103351480D01*
X177914024Y-103351478D01*
X178057541Y-103292032D01*
X178057542Y-103292032D01*
X178180792Y-103197458D01*
X178275366Y-103074208D01*
X178275366Y-103074207D01*
X178334812Y-102930690D01*
X178334814Y-102930685D01*
X178350000Y-102815336D01*
X178350000Y-102366666D01*
X177650000Y-102366666D01*
X177650000Y-103366666D01*
X177150000Y-103366666D01*
X177150000Y-102366666D01*
X176450000Y-102366666D01*
X176450000Y-102815336D01*
X175860038Y-102815336D01*
X175086818Y-102042116D01*
X175053333Y-101980793D01*
X175050499Y-101954435D01*
X175050499Y-101417995D01*
X176450000Y-101417995D01*
X176450000Y-101866666D01*
X177150000Y-101866666D01*
X177650000Y-101866666D01*
X178350000Y-101866666D01*
X178350000Y-101417995D01*
X178334814Y-101302646D01*
X178334812Y-101302641D01*
X178275366Y-101159124D01*
X178275366Y-101159123D01*
X178180792Y-101035873D01*
X178057541Y-100941299D01*
X177914024Y-100881853D01*
X177914019Y-100881851D01*
X177798671Y-100866666D01*
X177650000Y-100866666D01*
X177650000Y-101866666D01*
X177150000Y-101866666D01*
X177150000Y-100866666D01*
X177001329Y-100866666D01*
X176885980Y-100881851D01*
X176885975Y-100881853D01*
X176742458Y-100941299D01*
X176742457Y-100941299D01*
X176619207Y-101035873D01*
X176524633Y-101159123D01*
X176524633Y-101159124D01*
X176465187Y-101302641D01*
X176465185Y-101302646D01*
X176450000Y-101417995D01*
X175050499Y-101417995D01*
X175050499Y-101417962D01*
X175035303Y-101302523D01*
X175035301Y-101302516D01*
X175035301Y-101302515D01*
X174975800Y-101158868D01*
X174881149Y-101035517D01*
X174757798Y-100940866D01*
X174757794Y-100940864D01*
X174614151Y-100881365D01*
X174614149Y-100881364D01*
X174498701Y-100866166D01*
X173701296Y-100866166D01*
X173585857Y-100881362D01*
X173585848Y-100881365D01*
X173442205Y-100940864D01*
X173318851Y-101035517D01*
X173224198Y-101158871D01*
X173164699Y-101302514D01*
X173164698Y-101302516D01*
X173149500Y-101417964D01*
X171500500Y-101417964D01*
X171500500Y-100243389D01*
X181779500Y-100243389D01*
X181779500Y-100416611D01*
X181806598Y-100587701D01*
X181860127Y-100752445D01*
X181938768Y-100906788D01*
X182040586Y-101046928D01*
X182163072Y-101169414D01*
X182303212Y-101271232D01*
X182457555Y-101349873D01*
X182622299Y-101403402D01*
X182793389Y-101430500D01*
X182793390Y-101430500D01*
X182966610Y-101430500D01*
X182966611Y-101430500D01*
X183137701Y-101403402D01*
X183302445Y-101349873D01*
X183456788Y-101271232D01*
X183596928Y-101169414D01*
X183719414Y-101046928D01*
X183821232Y-100906788D01*
X183899873Y-100752445D01*
X183953402Y-100587701D01*
X183980500Y-100416611D01*
X183980500Y-100243389D01*
X183970854Y-100182486D01*
X185709500Y-100182486D01*
X185709500Y-100477513D01*
X185741571Y-100721113D01*
X185748007Y-100769993D01*
X185822212Y-101046930D01*
X185824361Y-101054951D01*
X185824364Y-101054961D01*
X185937254Y-101327500D01*
X185937258Y-101327510D01*
X186084761Y-101582993D01*
X186264352Y-101817040D01*
X186264358Y-101817047D01*
X186472952Y-102025641D01*
X186472959Y-102025647D01*
X186707006Y-102205238D01*
X186962489Y-102352741D01*
X186962490Y-102352741D01*
X186962493Y-102352743D01*
X187235048Y-102465639D01*
X187520007Y-102541993D01*
X187812494Y-102580500D01*
X187812501Y-102580500D01*
X188107499Y-102580500D01*
X188107506Y-102580500D01*
X188399993Y-102541993D01*
X188684952Y-102465639D01*
X188957507Y-102352743D01*
X189212994Y-102205238D01*
X189447042Y-102025646D01*
X189655646Y-101817042D01*
X189835238Y-101582994D01*
X189982743Y-101327507D01*
X190095639Y-101054952D01*
X190171993Y-100769993D01*
X190210500Y-100477506D01*
X190210500Y-100243389D01*
X191939500Y-100243389D01*
X191939500Y-100416611D01*
X191966598Y-100587701D01*
X192020127Y-100752445D01*
X192098768Y-100906788D01*
X192200586Y-101046928D01*
X192323072Y-101169414D01*
X192463212Y-101271232D01*
X192617555Y-101349873D01*
X192782299Y-101403402D01*
X192953389Y-101430500D01*
X192953390Y-101430500D01*
X193126610Y-101430500D01*
X193126611Y-101430500D01*
X193297701Y-101403402D01*
X193462445Y-101349873D01*
X193616788Y-101271232D01*
X193756928Y-101169414D01*
X193879414Y-101046928D01*
X193981232Y-100906788D01*
X194059873Y-100752445D01*
X194113402Y-100587701D01*
X194140500Y-100416611D01*
X194140500Y-100243389D01*
X200829500Y-100243389D01*
X200829500Y-100416611D01*
X200856598Y-100587701D01*
X200910127Y-100752445D01*
X200988768Y-100906788D01*
X201090586Y-101046928D01*
X201213072Y-101169414D01*
X201353212Y-101271232D01*
X201507555Y-101349873D01*
X201672299Y-101403402D01*
X201843389Y-101430500D01*
X201843390Y-101430500D01*
X202016610Y-101430500D01*
X202016611Y-101430500D01*
X202187701Y-101403402D01*
X202352445Y-101349873D01*
X202506788Y-101271232D01*
X202646928Y-101169414D01*
X202769414Y-101046928D01*
X202871232Y-100906788D01*
X202949873Y-100752445D01*
X203003402Y-100587701D01*
X203030500Y-100416611D01*
X203030500Y-100243389D01*
X203020854Y-100182486D01*
X204759500Y-100182486D01*
X204759500Y-100477513D01*
X204791571Y-100721113D01*
X204798007Y-100769993D01*
X204872212Y-101046930D01*
X204874361Y-101054951D01*
X204874364Y-101054961D01*
X204987254Y-101327500D01*
X204987258Y-101327510D01*
X205134761Y-101582993D01*
X205314352Y-101817040D01*
X205314358Y-101817047D01*
X205522952Y-102025641D01*
X205522959Y-102025647D01*
X205757006Y-102205238D01*
X206012489Y-102352741D01*
X206012490Y-102352741D01*
X206012493Y-102352743D01*
X206285048Y-102465639D01*
X206570007Y-102541993D01*
X206862494Y-102580500D01*
X206862501Y-102580500D01*
X207157499Y-102580500D01*
X207157506Y-102580500D01*
X207449993Y-102541993D01*
X207734952Y-102465639D01*
X208007507Y-102352743D01*
X208262994Y-102205238D01*
X208497042Y-102025646D01*
X208705646Y-101817042D01*
X208885238Y-101582994D01*
X209032743Y-101327507D01*
X209145639Y-101054952D01*
X209221993Y-100769993D01*
X209260500Y-100477506D01*
X209260500Y-100243389D01*
X210989500Y-100243389D01*
X210989500Y-100416611D01*
X211016598Y-100587701D01*
X211070127Y-100752445D01*
X211148768Y-100906788D01*
X211250586Y-101046928D01*
X211373072Y-101169414D01*
X211513212Y-101271232D01*
X211667555Y-101349873D01*
X211832299Y-101403402D01*
X212003389Y-101430500D01*
X212003390Y-101430500D01*
X212176610Y-101430500D01*
X212176611Y-101430500D01*
X212347701Y-101403402D01*
X212512445Y-101349873D01*
X212666788Y-101271232D01*
X212806928Y-101169414D01*
X212929414Y-101046928D01*
X213031232Y-100906788D01*
X213109873Y-100752445D01*
X213163402Y-100587701D01*
X213190500Y-100416611D01*
X213190500Y-100243389D01*
X219879500Y-100243389D01*
X219879500Y-100416611D01*
X219906598Y-100587701D01*
X219960127Y-100752445D01*
X220038768Y-100906788D01*
X220140586Y-101046928D01*
X220263072Y-101169414D01*
X220403212Y-101271232D01*
X220557555Y-101349873D01*
X220722299Y-101403402D01*
X220893389Y-101430500D01*
X220893390Y-101430500D01*
X221066610Y-101430500D01*
X221066611Y-101430500D01*
X221237701Y-101403402D01*
X221402445Y-101349873D01*
X221556788Y-101271232D01*
X221696928Y-101169414D01*
X221819414Y-101046928D01*
X221921232Y-100906788D01*
X221999873Y-100752445D01*
X222053402Y-100587701D01*
X222080500Y-100416611D01*
X222080500Y-100243389D01*
X222070854Y-100182486D01*
X223809500Y-100182486D01*
X223809500Y-100477513D01*
X223841571Y-100721113D01*
X223848007Y-100769993D01*
X223922212Y-101046930D01*
X223924361Y-101054951D01*
X223924364Y-101054961D01*
X224037254Y-101327500D01*
X224037258Y-101327510D01*
X224184761Y-101582993D01*
X224364352Y-101817040D01*
X224364358Y-101817047D01*
X224572952Y-102025641D01*
X224572959Y-102025647D01*
X224807006Y-102205238D01*
X225062489Y-102352741D01*
X225062490Y-102352741D01*
X225062493Y-102352743D01*
X225335048Y-102465639D01*
X225620007Y-102541993D01*
X225912494Y-102580500D01*
X225912501Y-102580500D01*
X226207499Y-102580500D01*
X226207506Y-102580500D01*
X226499993Y-102541993D01*
X226784952Y-102465639D01*
X227057507Y-102352743D01*
X227312994Y-102205238D01*
X227547042Y-102025646D01*
X227755646Y-101817042D01*
X227935238Y-101582994D01*
X228082743Y-101327507D01*
X228195639Y-101054952D01*
X228271993Y-100769993D01*
X228310500Y-100477506D01*
X228310500Y-100243389D01*
X230039500Y-100243389D01*
X230039500Y-100416611D01*
X230066598Y-100587701D01*
X230120127Y-100752445D01*
X230198768Y-100906788D01*
X230300586Y-101046928D01*
X230423072Y-101169414D01*
X230563212Y-101271232D01*
X230717555Y-101349873D01*
X230882299Y-101403402D01*
X231053389Y-101430500D01*
X231053390Y-101430500D01*
X231226610Y-101430500D01*
X231226611Y-101430500D01*
X231397701Y-101403402D01*
X231562445Y-101349873D01*
X231716788Y-101271232D01*
X231856928Y-101169414D01*
X231979414Y-101046928D01*
X232081232Y-100906788D01*
X232159873Y-100752445D01*
X232213402Y-100587701D01*
X232240500Y-100416611D01*
X232240500Y-100243389D01*
X232213402Y-100072299D01*
X232159873Y-99907555D01*
X232081232Y-99753212D01*
X231979414Y-99613072D01*
X231856928Y-99490586D01*
X231716788Y-99388768D01*
X231562445Y-99310127D01*
X231397701Y-99256598D01*
X231397699Y-99256597D01*
X231397698Y-99256597D01*
X231249271Y-99233089D01*
X231226611Y-99229500D01*
X231053389Y-99229500D01*
X231030729Y-99233089D01*
X230882302Y-99256597D01*
X230717552Y-99310128D01*
X230563211Y-99388768D01*
X230515822Y-99423199D01*
X230423072Y-99490586D01*
X230423070Y-99490588D01*
X230423069Y-99490588D01*
X230300588Y-99613069D01*
X230300588Y-99613070D01*
X230300586Y-99613072D01*
X230256859Y-99673256D01*
X230198768Y-99753211D01*
X230120128Y-99907552D01*
X230066597Y-100072302D01*
X230049146Y-100182486D01*
X230039500Y-100243389D01*
X228310500Y-100243389D01*
X228310500Y-100182494D01*
X228271993Y-99890007D01*
X228195639Y-99605048D01*
X228082743Y-99332493D01*
X228073449Y-99316396D01*
X227935238Y-99077006D01*
X227755647Y-98842959D01*
X227755641Y-98842952D01*
X227547047Y-98634358D01*
X227547040Y-98634352D01*
X227312993Y-98454761D01*
X227057510Y-98307258D01*
X227057500Y-98307254D01*
X226784961Y-98194364D01*
X226784954Y-98194362D01*
X226784952Y-98194361D01*
X226499993Y-98118007D01*
X226451113Y-98111571D01*
X226207513Y-98079500D01*
X226207506Y-98079500D01*
X225912494Y-98079500D01*
X225912486Y-98079500D01*
X225634085Y-98116153D01*
X225620007Y-98118007D01*
X225410264Y-98174207D01*
X225335048Y-98194361D01*
X225335038Y-98194364D01*
X225062499Y-98307254D01*
X225062489Y-98307258D01*
X224807006Y-98454761D01*
X224572959Y-98634352D01*
X224572952Y-98634358D01*
X224364358Y-98842952D01*
X224364352Y-98842959D01*
X224184761Y-99077006D01*
X224037258Y-99332489D01*
X224037254Y-99332499D01*
X223924364Y-99605038D01*
X223924361Y-99605048D01*
X223848008Y-99890004D01*
X223848006Y-99890015D01*
X223809500Y-100182486D01*
X222070854Y-100182486D01*
X222053402Y-100072299D01*
X221999873Y-99907555D01*
X221921232Y-99753212D01*
X221819414Y-99613072D01*
X221760556Y-99554214D01*
X221727071Y-99492891D01*
X221732055Y-99423199D01*
X221773927Y-99367266D01*
X221839391Y-99342849D01*
X221877184Y-99345959D01*
X221998928Y-99375187D01*
X222250000Y-99394947D01*
X222501072Y-99375187D01*
X222745956Y-99316396D01*
X222978631Y-99220019D01*
X223193361Y-99088432D01*
X223193363Y-99088430D01*
X223194180Y-99087732D01*
X222574025Y-98467578D01*
X222605258Y-98454641D01*
X222728097Y-98372563D01*
X222832563Y-98268097D01*
X222914641Y-98145258D01*
X222927578Y-98114025D01*
X223547732Y-98734180D01*
X223548430Y-98733363D01*
X223548432Y-98733361D01*
X223680019Y-98518631D01*
X223776396Y-98285956D01*
X223835187Y-98041072D01*
X223845083Y-97915336D01*
X235100000Y-97915336D01*
X235115185Y-98030685D01*
X235115187Y-98030690D01*
X235174633Y-98174207D01*
X235174633Y-98174208D01*
X235269207Y-98297458D01*
X235392458Y-98392032D01*
X235535975Y-98451478D01*
X235535980Y-98451480D01*
X235651329Y-98466666D01*
X235800000Y-98466666D01*
X236300000Y-98466666D01*
X236448671Y-98466666D01*
X236564019Y-98451480D01*
X236564024Y-98451478D01*
X236707541Y-98392032D01*
X236707542Y-98392032D01*
X236830792Y-98297458D01*
X236925366Y-98174208D01*
X236925366Y-98174207D01*
X236984812Y-98030690D01*
X236984814Y-98030685D01*
X237000000Y-97915336D01*
X237000000Y-97466666D01*
X236300000Y-97466666D01*
X236300000Y-98466666D01*
X235800000Y-98466666D01*
X235800000Y-97466666D01*
X235100000Y-97466666D01*
X235100000Y-97915336D01*
X223845083Y-97915336D01*
X223854947Y-97790000D01*
X223835187Y-97538927D01*
X223776396Y-97294043D01*
X223680019Y-97061368D01*
X223548429Y-96846634D01*
X223547733Y-96845819D01*
X223547732Y-96845819D01*
X222927577Y-97465973D01*
X222914641Y-97434742D01*
X222832563Y-97311903D01*
X222728097Y-97207437D01*
X222605258Y-97125359D01*
X222574023Y-97112421D01*
X223194179Y-96492266D01*
X223193362Y-96491568D01*
X222978631Y-96359980D01*
X222745956Y-96263603D01*
X222501072Y-96204812D01*
X222250000Y-96185052D01*
X221998927Y-96204812D01*
X221754043Y-96263603D01*
X221521368Y-96359980D01*
X221306637Y-96491567D01*
X221305818Y-96492266D01*
X221925974Y-97112421D01*
X221894742Y-97125359D01*
X221771903Y-97207437D01*
X221667437Y-97311903D01*
X221585359Y-97434742D01*
X221572421Y-97465974D01*
X220952266Y-96845818D01*
X220951567Y-96846637D01*
X220819980Y-97061368D01*
X220723603Y-97294043D01*
X220664812Y-97538927D01*
X220645052Y-97790000D01*
X220664812Y-98041072D01*
X220723603Y-98285956D01*
X220819980Y-98518631D01*
X220951568Y-98733362D01*
X220952266Y-98734179D01*
X221572421Y-98114024D01*
X221585359Y-98145258D01*
X221667437Y-98268097D01*
X221771903Y-98372563D01*
X221894742Y-98454641D01*
X221925974Y-98467577D01*
X221305819Y-99087732D01*
X221306989Y-99117539D01*
X221289948Y-99185299D01*
X221238980Y-99233089D01*
X221170264Y-99245738D01*
X221163686Y-99244875D01*
X221089271Y-99233089D01*
X221066611Y-99229500D01*
X220893389Y-99229500D01*
X220870729Y-99233089D01*
X220722302Y-99256597D01*
X220557552Y-99310128D01*
X220403211Y-99388768D01*
X220355822Y-99423199D01*
X220263072Y-99490586D01*
X220263070Y-99490588D01*
X220263069Y-99490588D01*
X220140588Y-99613069D01*
X220140588Y-99613070D01*
X220140586Y-99613072D01*
X220096859Y-99673256D01*
X220038768Y-99753211D01*
X219960128Y-99907552D01*
X219906597Y-100072302D01*
X219889146Y-100182486D01*
X219879500Y-100243389D01*
X213190500Y-100243389D01*
X213163402Y-100072299D01*
X213109873Y-99907555D01*
X213031232Y-99753212D01*
X212929414Y-99613072D01*
X212806928Y-99490586D01*
X212666788Y-99388768D01*
X212512445Y-99310127D01*
X212347701Y-99256598D01*
X212347699Y-99256597D01*
X212347698Y-99256597D01*
X212199271Y-99233089D01*
X212176611Y-99229500D01*
X212003389Y-99229500D01*
X211980729Y-99233089D01*
X211832302Y-99256597D01*
X211667552Y-99310128D01*
X211513211Y-99388768D01*
X211465822Y-99423199D01*
X211373072Y-99490586D01*
X211373070Y-99490588D01*
X211373069Y-99490588D01*
X211250588Y-99613069D01*
X211250588Y-99613070D01*
X211250586Y-99613072D01*
X211206859Y-99673256D01*
X211148768Y-99753211D01*
X211070128Y-99907552D01*
X211016597Y-100072302D01*
X210999146Y-100182486D01*
X210989500Y-100243389D01*
X209260500Y-100243389D01*
X209260500Y-100182494D01*
X209221993Y-99890007D01*
X209145639Y-99605048D01*
X209032743Y-99332493D01*
X209023449Y-99316396D01*
X208885238Y-99077006D01*
X208705647Y-98842959D01*
X208705641Y-98842952D01*
X208497047Y-98634358D01*
X208497040Y-98634352D01*
X208262993Y-98454761D01*
X208007510Y-98307258D01*
X208007500Y-98307254D01*
X207734961Y-98194364D01*
X207734954Y-98194362D01*
X207734952Y-98194361D01*
X207449993Y-98118007D01*
X207401113Y-98111571D01*
X207157513Y-98079500D01*
X207157506Y-98079500D01*
X206862494Y-98079500D01*
X206862486Y-98079500D01*
X206584085Y-98116153D01*
X206570007Y-98118007D01*
X206360264Y-98174207D01*
X206285048Y-98194361D01*
X206285038Y-98194364D01*
X206012499Y-98307254D01*
X206012489Y-98307258D01*
X205757006Y-98454761D01*
X205522959Y-98634352D01*
X205522952Y-98634358D01*
X205314358Y-98842952D01*
X205314352Y-98842959D01*
X205134761Y-99077006D01*
X204987258Y-99332489D01*
X204987254Y-99332499D01*
X204874364Y-99605038D01*
X204874361Y-99605048D01*
X204798008Y-99890004D01*
X204798006Y-99890015D01*
X204759500Y-100182486D01*
X203020854Y-100182486D01*
X203003402Y-100072299D01*
X202949873Y-99907555D01*
X202871232Y-99753212D01*
X202769414Y-99613072D01*
X202710556Y-99554214D01*
X202677071Y-99492891D01*
X202682055Y-99423199D01*
X202723927Y-99367266D01*
X202789391Y-99342849D01*
X202827184Y-99345959D01*
X202948928Y-99375187D01*
X203200000Y-99394947D01*
X203451072Y-99375187D01*
X203695956Y-99316396D01*
X203928631Y-99220019D01*
X204143361Y-99088432D01*
X204143363Y-99088430D01*
X204144180Y-99087732D01*
X203524025Y-98467578D01*
X203555258Y-98454641D01*
X203678097Y-98372563D01*
X203782563Y-98268097D01*
X203864641Y-98145258D01*
X203877578Y-98114025D01*
X204497732Y-98734180D01*
X204498430Y-98733363D01*
X204498432Y-98733361D01*
X204630019Y-98518631D01*
X204726396Y-98285956D01*
X204785187Y-98041072D01*
X204804947Y-97790000D01*
X204785187Y-97538927D01*
X204726396Y-97294043D01*
X204630019Y-97061368D01*
X204498429Y-96846634D01*
X204497733Y-96845819D01*
X204497732Y-96845819D01*
X203877577Y-97465973D01*
X203864641Y-97434742D01*
X203782563Y-97311903D01*
X203678097Y-97207437D01*
X203555258Y-97125359D01*
X203524023Y-97112421D01*
X204144179Y-96492266D01*
X204143362Y-96491568D01*
X203928631Y-96359980D01*
X203695956Y-96263603D01*
X203451072Y-96204812D01*
X203200000Y-96185052D01*
X202948927Y-96204812D01*
X202704043Y-96263603D01*
X202471368Y-96359980D01*
X202256637Y-96491567D01*
X202255818Y-96492266D01*
X202875974Y-97112421D01*
X202844742Y-97125359D01*
X202721903Y-97207437D01*
X202617437Y-97311903D01*
X202535359Y-97434742D01*
X202522421Y-97465974D01*
X201902266Y-96845818D01*
X201901567Y-96846637D01*
X201769980Y-97061368D01*
X201673603Y-97294043D01*
X201614812Y-97538927D01*
X201595052Y-97790000D01*
X201614812Y-98041072D01*
X201673603Y-98285956D01*
X201769980Y-98518631D01*
X201901568Y-98733362D01*
X201902266Y-98734179D01*
X202522421Y-98114024D01*
X202535359Y-98145258D01*
X202617437Y-98268097D01*
X202721903Y-98372563D01*
X202844742Y-98454641D01*
X202875974Y-98467577D01*
X202255819Y-99087732D01*
X202256989Y-99117539D01*
X202239948Y-99185299D01*
X202188980Y-99233089D01*
X202120264Y-99245738D01*
X202113686Y-99244875D01*
X202039271Y-99233089D01*
X202016611Y-99229500D01*
X201843389Y-99229500D01*
X201820729Y-99233089D01*
X201672302Y-99256597D01*
X201507552Y-99310128D01*
X201353211Y-99388768D01*
X201305822Y-99423199D01*
X201213072Y-99490586D01*
X201213070Y-99490588D01*
X201213069Y-99490588D01*
X201090588Y-99613069D01*
X201090588Y-99613070D01*
X201090586Y-99613072D01*
X201046859Y-99673256D01*
X200988768Y-99753211D01*
X200910128Y-99907552D01*
X200856597Y-100072302D01*
X200839146Y-100182486D01*
X200829500Y-100243389D01*
X194140500Y-100243389D01*
X194113402Y-100072299D01*
X194059873Y-99907555D01*
X193981232Y-99753212D01*
X193879414Y-99613072D01*
X193756928Y-99490586D01*
X193616788Y-99388768D01*
X193462445Y-99310127D01*
X193297701Y-99256598D01*
X193297699Y-99256597D01*
X193297698Y-99256597D01*
X193149271Y-99233089D01*
X193126611Y-99229500D01*
X192953389Y-99229500D01*
X192930729Y-99233089D01*
X192782302Y-99256597D01*
X192617552Y-99310128D01*
X192463211Y-99388768D01*
X192415822Y-99423199D01*
X192323072Y-99490586D01*
X192323070Y-99490588D01*
X192323069Y-99490588D01*
X192200588Y-99613069D01*
X192200588Y-99613070D01*
X192200586Y-99613072D01*
X192156859Y-99673256D01*
X192098768Y-99753211D01*
X192020128Y-99907552D01*
X191966597Y-100072302D01*
X191949146Y-100182486D01*
X191939500Y-100243389D01*
X190210500Y-100243389D01*
X190210500Y-100182494D01*
X190171993Y-99890007D01*
X190095639Y-99605048D01*
X189982743Y-99332493D01*
X189973449Y-99316396D01*
X189835238Y-99077006D01*
X189655647Y-98842959D01*
X189655641Y-98842952D01*
X189447047Y-98634358D01*
X189447040Y-98634352D01*
X189212993Y-98454761D01*
X188957510Y-98307258D01*
X188957500Y-98307254D01*
X188684961Y-98194364D01*
X188684954Y-98194362D01*
X188684952Y-98194361D01*
X188399993Y-98118007D01*
X188351113Y-98111571D01*
X188107513Y-98079500D01*
X188107506Y-98079500D01*
X187812494Y-98079500D01*
X187812486Y-98079500D01*
X187534085Y-98116153D01*
X187520007Y-98118007D01*
X187310264Y-98174207D01*
X187235048Y-98194361D01*
X187235038Y-98194364D01*
X186962499Y-98307254D01*
X186962489Y-98307258D01*
X186707006Y-98454761D01*
X186472959Y-98634352D01*
X186472952Y-98634358D01*
X186264358Y-98842952D01*
X186264352Y-98842959D01*
X186084761Y-99077006D01*
X185937258Y-99332489D01*
X185937254Y-99332499D01*
X185824364Y-99605038D01*
X185824361Y-99605048D01*
X185748008Y-99890004D01*
X185748006Y-99890015D01*
X185709500Y-100182486D01*
X183970854Y-100182486D01*
X183953402Y-100072299D01*
X183899873Y-99907555D01*
X183821232Y-99753212D01*
X183719414Y-99613072D01*
X183660556Y-99554214D01*
X183627071Y-99492891D01*
X183632055Y-99423199D01*
X183673927Y-99367266D01*
X183739391Y-99342849D01*
X183777184Y-99345959D01*
X183898928Y-99375187D01*
X184150000Y-99394947D01*
X184401072Y-99375187D01*
X184645956Y-99316396D01*
X184878631Y-99220019D01*
X185093361Y-99088432D01*
X185093363Y-99088430D01*
X185094180Y-99087732D01*
X184474025Y-98467578D01*
X184505258Y-98454641D01*
X184628097Y-98372563D01*
X184732563Y-98268097D01*
X184814641Y-98145258D01*
X184827578Y-98114025D01*
X185447732Y-98734180D01*
X185448430Y-98733363D01*
X185448432Y-98733361D01*
X185580019Y-98518631D01*
X185676396Y-98285956D01*
X185735187Y-98041072D01*
X185754947Y-97790000D01*
X185735187Y-97538927D01*
X185676396Y-97294043D01*
X185580019Y-97061368D01*
X185448429Y-96846634D01*
X185447733Y-96845819D01*
X185447732Y-96845819D01*
X184827577Y-97465973D01*
X184814641Y-97434742D01*
X184732563Y-97311903D01*
X184628097Y-97207437D01*
X184505258Y-97125359D01*
X184474023Y-97112421D01*
X185094179Y-96492266D01*
X185093362Y-96491568D01*
X184878631Y-96359980D01*
X184645956Y-96263603D01*
X184401072Y-96204812D01*
X184150000Y-96185052D01*
X183898927Y-96204812D01*
X183654043Y-96263603D01*
X183421368Y-96359980D01*
X183206637Y-96491567D01*
X183205818Y-96492266D01*
X183825974Y-97112421D01*
X183794742Y-97125359D01*
X183671903Y-97207437D01*
X183567437Y-97311903D01*
X183485359Y-97434742D01*
X183472421Y-97465974D01*
X182852266Y-96845818D01*
X182851567Y-96846637D01*
X182719980Y-97061368D01*
X182623603Y-97294043D01*
X182564812Y-97538927D01*
X182545052Y-97790000D01*
X182564812Y-98041072D01*
X182623603Y-98285956D01*
X182719980Y-98518631D01*
X182851568Y-98733362D01*
X182852266Y-98734179D01*
X183472421Y-98114024D01*
X183485359Y-98145258D01*
X183567437Y-98268097D01*
X183671903Y-98372563D01*
X183794742Y-98454641D01*
X183825974Y-98467577D01*
X183205819Y-99087732D01*
X183206989Y-99117539D01*
X183189948Y-99185299D01*
X183138980Y-99233089D01*
X183070264Y-99245738D01*
X183063686Y-99244875D01*
X182989271Y-99233089D01*
X182966611Y-99229500D01*
X182793389Y-99229500D01*
X182770729Y-99233089D01*
X182622302Y-99256597D01*
X182457552Y-99310128D01*
X182303211Y-99388768D01*
X182255822Y-99423199D01*
X182163072Y-99490586D01*
X182163070Y-99490588D01*
X182163069Y-99490588D01*
X182040588Y-99613069D01*
X182040588Y-99613070D01*
X182040586Y-99613072D01*
X181996859Y-99673256D01*
X181938768Y-99753211D01*
X181860128Y-99907552D01*
X181806597Y-100072302D01*
X181789146Y-100182486D01*
X181779500Y-100243389D01*
X171500500Y-100243389D01*
X171500500Y-96517964D01*
X173149500Y-96517964D01*
X173149500Y-97915369D01*
X173164696Y-98030808D01*
X173164699Y-98030817D01*
X173224093Y-98174207D01*
X173224200Y-98174464D01*
X173318851Y-98297815D01*
X173442202Y-98392466D01*
X173585849Y-98451967D01*
X173701299Y-98467166D01*
X174498700Y-98467165D01*
X174498703Y-98467165D01*
X174614142Y-98451969D01*
X174614146Y-98451967D01*
X174614151Y-98451967D01*
X174757798Y-98392466D01*
X174881149Y-98297815D01*
X174975800Y-98174464D01*
X175035301Y-98030817D01*
X175050500Y-97915367D01*
X175050499Y-96517966D01*
X175050499Y-96517964D01*
X175050499Y-96517962D01*
X175035303Y-96402523D01*
X175035301Y-96402516D01*
X175035301Y-96402515D01*
X174975800Y-96258868D01*
X174881149Y-96135517D01*
X174757798Y-96040866D01*
X174757794Y-96040864D01*
X174614151Y-95981365D01*
X174614149Y-95981364D01*
X174498701Y-95966166D01*
X173701296Y-95966166D01*
X173585857Y-95981362D01*
X173585848Y-95981365D01*
X173442205Y-96040864D01*
X173442202Y-96040865D01*
X173442202Y-96040866D01*
X173318851Y-96135517D01*
X173274242Y-96193653D01*
X173224198Y-96258871D01*
X173164699Y-96402514D01*
X173164698Y-96402516D01*
X173149500Y-96517964D01*
X171500500Y-96517964D01*
X171500500Y-90293594D01*
X171520185Y-90226555D01*
X171572989Y-90180800D01*
X171642147Y-90170856D01*
X171705703Y-90199881D01*
X171720864Y-90215557D01*
X171723772Y-90219148D01*
X171724657Y-90220241D01*
X171871773Y-90339375D01*
X171871775Y-90339376D01*
X171927279Y-90367656D01*
X172040444Y-90425316D01*
X172223297Y-90474312D01*
X172301925Y-90480500D01*
X173228074Y-90480499D01*
X173306703Y-90474312D01*
X173489556Y-90425316D01*
X173658226Y-90339375D01*
X173805342Y-90220242D01*
X173924475Y-90073126D01*
X173924794Y-90072500D01*
X173925075Y-90072201D01*
X173928014Y-90067677D01*
X173928841Y-90068214D01*
X173972768Y-90021703D01*
X174040588Y-90004907D01*
X174106724Y-90027443D01*
X174141730Y-90067843D01*
X174142407Y-90067404D01*
X174145568Y-90072271D01*
X174145765Y-90072499D01*
X174145944Y-90072851D01*
X174145946Y-90072854D01*
X174265013Y-90219886D01*
X174412045Y-90338953D01*
X174412048Y-90338955D01*
X174580625Y-90424848D01*
X174763377Y-90473816D01*
X174841946Y-90479999D01*
X174841960Y-90480000D01*
X175055000Y-90480000D01*
X175055000Y-88395686D01*
X175059394Y-88400080D01*
X175150606Y-88452741D01*
X175252339Y-88480000D01*
X175357661Y-88480000D01*
X175459394Y-88452741D01*
X175550606Y-88400080D01*
X175555000Y-88395686D01*
X175555000Y-90480000D01*
X175680600Y-90480000D01*
X175747639Y-90499685D01*
X175793394Y-90552489D01*
X175804600Y-90604000D01*
X175804600Y-96445684D01*
X175804600Y-96445686D01*
X175804599Y-96445686D01*
X175833440Y-96590673D01*
X175833443Y-96590683D01*
X175890014Y-96727259D01*
X175890017Y-96727265D01*
X175897357Y-96738248D01*
X175897359Y-96738250D01*
X175969779Y-96846637D01*
X175972151Y-96850186D01*
X175972152Y-96850187D01*
X176413181Y-97291215D01*
X176446666Y-97352538D01*
X176449500Y-97378896D01*
X176449500Y-97915369D01*
X176464696Y-98030808D01*
X176464699Y-98030817D01*
X176524093Y-98174207D01*
X176524200Y-98174464D01*
X176618851Y-98297815D01*
X176742202Y-98392466D01*
X176885849Y-98451967D01*
X177001299Y-98467166D01*
X177798700Y-98467165D01*
X177798703Y-98467165D01*
X177914142Y-98451969D01*
X177914146Y-98451967D01*
X177914151Y-98451967D01*
X178057798Y-98392466D01*
X178181149Y-98297815D01*
X178275800Y-98174464D01*
X178335301Y-98030817D01*
X178350500Y-97915367D01*
X178350499Y-96517966D01*
X178350499Y-96517964D01*
X178350499Y-96517962D01*
X178335303Y-96402523D01*
X178335301Y-96402516D01*
X178335301Y-96402515D01*
X178275800Y-96258868D01*
X178181149Y-96135517D01*
X178057798Y-96040866D01*
X178057794Y-96040864D01*
X177914151Y-95981365D01*
X177914149Y-95981364D01*
X177798702Y-95966166D01*
X177798701Y-95966166D01*
X177429600Y-95966166D01*
X177362561Y-95946481D01*
X177316806Y-95893677D01*
X177305600Y-95842166D01*
X177305600Y-95250000D01*
X188894551Y-95250000D01*
X188914317Y-95501151D01*
X188973126Y-95746110D01*
X189069533Y-95978859D01*
X189201160Y-96193653D01*
X189201161Y-96193656D01*
X189256604Y-96258571D01*
X189364776Y-96385224D01*
X189489288Y-96491567D01*
X189556343Y-96548838D01*
X189556346Y-96548839D01*
X189771140Y-96680466D01*
X190003889Y-96776873D01*
X190248852Y-96835683D01*
X190500000Y-96855449D01*
X190751148Y-96835683D01*
X190996111Y-96776873D01*
X191228859Y-96680466D01*
X191443659Y-96548836D01*
X191635224Y-96385224D01*
X191798836Y-96193659D01*
X191930466Y-95978859D01*
X192026873Y-95746111D01*
X192085683Y-95501148D01*
X192105449Y-95250000D01*
X207944551Y-95250000D01*
X207964317Y-95501151D01*
X208023126Y-95746110D01*
X208119533Y-95978859D01*
X208251160Y-96193653D01*
X208251161Y-96193656D01*
X208306604Y-96258571D01*
X208414776Y-96385224D01*
X208539288Y-96491567D01*
X208606343Y-96548838D01*
X208606346Y-96548839D01*
X208821140Y-96680466D01*
X209053889Y-96776873D01*
X209298852Y-96835683D01*
X209550000Y-96855449D01*
X209801148Y-96835683D01*
X210046111Y-96776873D01*
X210278859Y-96680466D01*
X210493659Y-96548836D01*
X210685224Y-96385224D01*
X210848836Y-96193659D01*
X210980466Y-95978859D01*
X211076873Y-95746111D01*
X211135683Y-95501148D01*
X211155449Y-95250000D01*
X226994551Y-95250000D01*
X227014317Y-95501151D01*
X227073126Y-95746110D01*
X227169533Y-95978859D01*
X227301160Y-96193653D01*
X227301161Y-96193656D01*
X227356604Y-96258571D01*
X227464776Y-96385224D01*
X227589288Y-96491567D01*
X227656343Y-96548838D01*
X227656346Y-96548839D01*
X227871140Y-96680466D01*
X228103889Y-96776873D01*
X228348852Y-96835683D01*
X228600000Y-96855449D01*
X228851148Y-96835683D01*
X229096111Y-96776873D01*
X229328859Y-96680466D01*
X229543659Y-96548836D01*
X229579769Y-96517995D01*
X235100000Y-96517995D01*
X235100000Y-96966666D01*
X235800000Y-96966666D01*
X236300000Y-96966666D01*
X237000000Y-96966666D01*
X237000000Y-96517995D01*
X236984814Y-96402646D01*
X236984812Y-96402641D01*
X236925366Y-96259124D01*
X236925366Y-96259123D01*
X236830792Y-96135873D01*
X236707541Y-96041299D01*
X236564024Y-95981853D01*
X236564019Y-95981851D01*
X236448671Y-95966666D01*
X236300000Y-95966666D01*
X236300000Y-96966666D01*
X235800000Y-96966666D01*
X235800000Y-95966666D01*
X235651329Y-95966666D01*
X235535980Y-95981851D01*
X235535975Y-95981853D01*
X235392458Y-96041299D01*
X235392457Y-96041299D01*
X235269207Y-96135873D01*
X235174633Y-96259123D01*
X235174633Y-96259124D01*
X235115187Y-96402641D01*
X235115185Y-96402646D01*
X235100000Y-96517995D01*
X229579769Y-96517995D01*
X229735224Y-96385224D01*
X229898836Y-96193659D01*
X230030466Y-95978859D01*
X230126873Y-95746111D01*
X230185683Y-95501148D01*
X230205449Y-95250000D01*
X230185683Y-94998852D01*
X230126873Y-94753889D01*
X230030466Y-94521141D01*
X230030466Y-94521140D01*
X229898839Y-94306346D01*
X229898838Y-94306343D01*
X229861875Y-94263066D01*
X229735224Y-94114776D01*
X229608571Y-94006604D01*
X229543656Y-93951161D01*
X229543653Y-93951160D01*
X229328859Y-93819533D01*
X229096110Y-93723126D01*
X228851151Y-93664317D01*
X228600000Y-93644551D01*
X228348848Y-93664317D01*
X228103889Y-93723126D01*
X227871140Y-93819533D01*
X227656346Y-93951160D01*
X227656343Y-93951161D01*
X227464776Y-94114776D01*
X227301161Y-94306343D01*
X227301160Y-94306346D01*
X227169533Y-94521140D01*
X227073126Y-94753889D01*
X227014317Y-94998848D01*
X226994551Y-95250000D01*
X211155449Y-95250000D01*
X211135683Y-94998852D01*
X211076873Y-94753889D01*
X210980466Y-94521141D01*
X210980466Y-94521140D01*
X210848839Y-94306346D01*
X210848838Y-94306343D01*
X210811875Y-94263066D01*
X210685224Y-94114776D01*
X210558571Y-94006604D01*
X210493656Y-93951161D01*
X210493653Y-93951160D01*
X210278859Y-93819533D01*
X210046110Y-93723126D01*
X209801151Y-93664317D01*
X209550000Y-93644551D01*
X209298848Y-93664317D01*
X209053889Y-93723126D01*
X208821140Y-93819533D01*
X208606346Y-93951160D01*
X208606343Y-93951161D01*
X208414776Y-94114776D01*
X208251161Y-94306343D01*
X208251160Y-94306346D01*
X208119533Y-94521140D01*
X208023126Y-94753889D01*
X207964317Y-94998848D01*
X207944551Y-95250000D01*
X192105449Y-95250000D01*
X192085683Y-94998852D01*
X192026873Y-94753889D01*
X191930466Y-94521141D01*
X191930466Y-94521140D01*
X191798839Y-94306346D01*
X191798838Y-94306343D01*
X191761875Y-94263066D01*
X191635224Y-94114776D01*
X191508571Y-94006604D01*
X191443656Y-93951161D01*
X191443653Y-93951160D01*
X191228859Y-93819533D01*
X190996110Y-93723126D01*
X190751151Y-93664317D01*
X190500000Y-93644551D01*
X190248848Y-93664317D01*
X190003889Y-93723126D01*
X189771140Y-93819533D01*
X189556346Y-93951160D01*
X189556343Y-93951161D01*
X189364776Y-94114776D01*
X189201161Y-94306343D01*
X189201160Y-94306346D01*
X189069533Y-94521140D01*
X188973126Y-94753889D01*
X188914317Y-94998848D01*
X188894551Y-95250000D01*
X177305600Y-95250000D01*
X177305600Y-90604499D01*
X177325285Y-90537460D01*
X177378089Y-90491705D01*
X177429595Y-90480499D01*
X178308074Y-90480499D01*
X178386703Y-90474312D01*
X178569556Y-90425316D01*
X178738226Y-90339375D01*
X178885342Y-90220242D01*
X179004475Y-90073126D01*
X179004512Y-90073052D01*
X179004546Y-90073016D01*
X179008014Y-90067677D01*
X179008990Y-90068310D01*
X179052484Y-90022255D01*
X179120304Y-90005455D01*
X179186440Y-90027989D01*
X179221246Y-90068157D01*
X179221986Y-90067677D01*
X179225444Y-90073002D01*
X179225488Y-90073053D01*
X179225526Y-90073128D01*
X179277165Y-90136896D01*
X179344658Y-90220242D01*
X179425946Y-90286068D01*
X179491773Y-90339375D01*
X179491775Y-90339376D01*
X179547279Y-90367656D01*
X179660444Y-90425316D01*
X179843297Y-90474312D01*
X179921925Y-90480500D01*
X180848074Y-90480499D01*
X180926703Y-90474312D01*
X181109556Y-90425316D01*
X181278226Y-90339375D01*
X181425342Y-90220242D01*
X181544475Y-90073126D01*
X181544512Y-90073052D01*
X181544546Y-90073016D01*
X181548014Y-90067677D01*
X181548990Y-90068310D01*
X181592484Y-90022255D01*
X181660304Y-90005455D01*
X181726440Y-90027989D01*
X181761246Y-90068157D01*
X181761986Y-90067677D01*
X181765444Y-90073002D01*
X181765488Y-90073053D01*
X181765526Y-90073128D01*
X181817165Y-90136896D01*
X181884658Y-90220242D01*
X181965946Y-90286068D01*
X182031773Y-90339375D01*
X182031775Y-90339376D01*
X182087279Y-90367656D01*
X182200444Y-90425316D01*
X182383297Y-90474312D01*
X182461925Y-90480500D01*
X183388074Y-90480499D01*
X183466703Y-90474312D01*
X183649556Y-90425316D01*
X183818226Y-90339375D01*
X183965342Y-90220242D01*
X184084475Y-90073126D01*
X184084512Y-90073052D01*
X184084546Y-90073016D01*
X184088014Y-90067677D01*
X184088990Y-90068310D01*
X184132484Y-90022255D01*
X184200304Y-90005455D01*
X184266440Y-90027989D01*
X184301246Y-90068157D01*
X184301986Y-90067677D01*
X184305444Y-90073002D01*
X184305488Y-90073053D01*
X184305526Y-90073128D01*
X184357165Y-90136896D01*
X184424658Y-90220242D01*
X184505946Y-90286068D01*
X184571773Y-90339375D01*
X184571775Y-90339376D01*
X184627279Y-90367656D01*
X184740444Y-90425316D01*
X184923297Y-90474312D01*
X185001925Y-90480500D01*
X185928074Y-90480499D01*
X186006703Y-90474312D01*
X186189556Y-90425316D01*
X186358226Y-90339375D01*
X186505342Y-90220242D01*
X186624475Y-90073126D01*
X186624512Y-90073052D01*
X186624546Y-90073016D01*
X186628014Y-90067677D01*
X186628990Y-90068310D01*
X186672484Y-90022255D01*
X186740304Y-90005455D01*
X186806440Y-90027989D01*
X186841246Y-90068157D01*
X186841986Y-90067677D01*
X186845444Y-90073002D01*
X186845488Y-90073053D01*
X186845526Y-90073128D01*
X186897165Y-90136896D01*
X186964658Y-90220242D01*
X187045946Y-90286068D01*
X187111773Y-90339375D01*
X187111775Y-90339376D01*
X187167279Y-90367656D01*
X187280444Y-90425316D01*
X187463297Y-90474312D01*
X187541925Y-90480500D01*
X188468074Y-90480499D01*
X188546703Y-90474312D01*
X188729556Y-90425316D01*
X188898226Y-90339375D01*
X189045342Y-90220242D01*
X189164475Y-90073126D01*
X189164512Y-90073052D01*
X189164546Y-90073016D01*
X189168014Y-90067677D01*
X189168990Y-90068310D01*
X189212484Y-90022255D01*
X189280304Y-90005455D01*
X189346440Y-90027989D01*
X189381246Y-90068157D01*
X189381986Y-90067677D01*
X189385444Y-90073002D01*
X189385488Y-90073053D01*
X189385526Y-90073128D01*
X189437165Y-90136896D01*
X189504658Y-90220242D01*
X189585946Y-90286068D01*
X189651773Y-90339375D01*
X189651775Y-90339376D01*
X189707279Y-90367656D01*
X189820444Y-90425316D01*
X190003297Y-90474312D01*
X190081925Y-90480500D01*
X191008074Y-90480499D01*
X191086703Y-90474312D01*
X191269556Y-90425316D01*
X191438226Y-90339375D01*
X191585342Y-90220242D01*
X191704475Y-90073126D01*
X191704512Y-90073052D01*
X191704546Y-90073016D01*
X191708014Y-90067677D01*
X191708990Y-90068310D01*
X191752484Y-90022255D01*
X191820304Y-90005455D01*
X191886440Y-90027989D01*
X191921246Y-90068157D01*
X191921986Y-90067677D01*
X191925444Y-90073002D01*
X191925488Y-90073053D01*
X191925526Y-90073128D01*
X191977165Y-90136896D01*
X192044658Y-90220242D01*
X192125946Y-90286068D01*
X192191773Y-90339375D01*
X192191775Y-90339376D01*
X192247279Y-90367656D01*
X192360444Y-90425316D01*
X192543297Y-90474312D01*
X192621925Y-90480500D01*
X193548074Y-90480499D01*
X193626703Y-90474312D01*
X193809556Y-90425316D01*
X193978226Y-90339375D01*
X194125342Y-90220242D01*
X194244475Y-90073126D01*
X194330416Y-89904456D01*
X194379412Y-89721603D01*
X194385600Y-89642975D01*
X194385599Y-87717026D01*
X194379412Y-87638397D01*
X194330416Y-87455544D01*
X194261733Y-87320745D01*
X194244476Y-87286875D01*
X194244475Y-87286873D01*
X194125341Y-87139757D01*
X194012358Y-87048264D01*
X193972647Y-86990777D01*
X193970320Y-86920946D01*
X194006116Y-86860942D01*
X194054021Y-86837106D01*
X199099500Y-86837106D01*
X199099500Y-87162893D01*
X199135974Y-87486604D01*
X199135976Y-87486620D01*
X199208467Y-87804226D01*
X199208471Y-87804238D01*
X199316066Y-88111725D01*
X199457413Y-88405234D01*
X199457415Y-88405237D01*
X199630739Y-88681081D01*
X199833857Y-88935783D01*
X200064217Y-89166143D01*
X200318919Y-89369261D01*
X200594763Y-89542585D01*
X200888278Y-89683935D01*
X201119217Y-89764744D01*
X201195761Y-89791528D01*
X201195773Y-89791532D01*
X201513383Y-89864024D01*
X201837106Y-89900499D01*
X201837107Y-89900500D01*
X201837111Y-89900500D01*
X202162893Y-89900500D01*
X202162893Y-89900499D01*
X202486617Y-89864024D01*
X202804227Y-89791532D01*
X203111722Y-89683935D01*
X203405237Y-89542585D01*
X203681081Y-89369261D01*
X203935783Y-89166143D01*
X204166143Y-88935783D01*
X204369261Y-88681081D01*
X204542585Y-88405237D01*
X204683935Y-88111722D01*
X204791532Y-87804227D01*
X204864024Y-87486617D01*
X204900500Y-87162889D01*
X204900500Y-86837111D01*
X204864024Y-86513383D01*
X204791532Y-86195773D01*
X204788178Y-86186189D01*
X204742356Y-86055236D01*
X204683935Y-85888278D01*
X204542585Y-85594763D01*
X204369261Y-85318919D01*
X204166143Y-85064217D01*
X203935783Y-84833857D01*
X203681081Y-84630739D01*
X203405237Y-84457415D01*
X203405234Y-84457413D01*
X203111725Y-84316066D01*
X202804238Y-84208471D01*
X202804226Y-84208467D01*
X202486620Y-84135976D01*
X202486604Y-84135974D01*
X202162893Y-84099500D01*
X202162889Y-84099500D01*
X201837111Y-84099500D01*
X201837107Y-84099500D01*
X201513395Y-84135974D01*
X201513379Y-84135976D01*
X201195773Y-84208467D01*
X201195761Y-84208471D01*
X200888274Y-84316066D01*
X200594765Y-84457413D01*
X200318920Y-84630738D01*
X200064217Y-84833856D01*
X199833856Y-85064217D01*
X199630738Y-85318920D01*
X199457413Y-85594765D01*
X199316066Y-85888274D01*
X199208471Y-86195761D01*
X199208467Y-86195773D01*
X199135976Y-86513379D01*
X199135974Y-86513395D01*
X199099500Y-86837106D01*
X194054021Y-86837106D01*
X194068670Y-86829817D01*
X194090390Y-86827899D01*
X194863888Y-86827899D01*
X194941954Y-86821756D01*
X195123518Y-86773106D01*
X195238281Y-86714632D01*
X195290996Y-86687773D01*
X195290997Y-86687771D01*
X195290999Y-86687771D01*
X195437078Y-86569478D01*
X195555371Y-86423399D01*
X195640706Y-86255918D01*
X195689356Y-86074354D01*
X195695500Y-85996289D01*
X195695499Y-85083712D01*
X195689356Y-85005646D01*
X195640706Y-84824082D01*
X195610103Y-84764019D01*
X195555373Y-84656603D01*
X195522772Y-84616345D01*
X195437078Y-84510522D01*
X195290999Y-84392229D01*
X195290998Y-84392228D01*
X195278691Y-84385958D01*
X195267950Y-84380485D01*
X195217154Y-84332513D01*
X195200358Y-84264692D01*
X195222894Y-84198557D01*
X195267949Y-84159515D01*
X195290999Y-84147771D01*
X195437078Y-84029478D01*
X195555371Y-83883399D01*
X195559422Y-83875450D01*
X195590659Y-83814142D01*
X195640706Y-83715918D01*
X195689356Y-83534354D01*
X195695500Y-83456289D01*
X195695499Y-82543712D01*
X195689356Y-82465646D01*
X195640706Y-82284082D01*
X195590721Y-82185980D01*
X195555373Y-82116603D01*
X195495126Y-82042205D01*
X195437078Y-81970522D01*
X195290999Y-81852229D01*
X195290998Y-81852228D01*
X195278691Y-81845958D01*
X195267950Y-81840485D01*
X195217154Y-81792513D01*
X195200358Y-81724692D01*
X195222894Y-81658557D01*
X195267949Y-81619515D01*
X195290999Y-81607771D01*
X195437078Y-81489478D01*
X195555371Y-81343399D01*
X195640706Y-81175918D01*
X195689356Y-80994354D01*
X195695500Y-80916289D01*
X195695499Y-80003712D01*
X195689356Y-79925646D01*
X195640706Y-79744082D01*
X195591285Y-79647086D01*
X195555373Y-79576603D01*
X195503359Y-79512372D01*
X195437078Y-79430522D01*
X195302558Y-79321589D01*
X195290998Y-79312228D01*
X195278691Y-79305958D01*
X195267950Y-79300485D01*
X195217154Y-79252513D01*
X195200358Y-79184692D01*
X195222894Y-79118557D01*
X195267949Y-79079515D01*
X195290999Y-79067771D01*
X195437078Y-78949478D01*
X195555371Y-78803399D01*
X195557766Y-78798700D01*
X195582363Y-78750422D01*
X195640706Y-78635918D01*
X195689356Y-78454354D01*
X195695500Y-78376289D01*
X195695499Y-77463712D01*
X195689356Y-77385646D01*
X195640706Y-77204082D01*
X195577996Y-77081005D01*
X195555373Y-77036603D01*
X195513161Y-76984476D01*
X195437078Y-76890522D01*
X195290999Y-76772229D01*
X195290998Y-76772228D01*
X195290995Y-76772226D01*
X195277917Y-76765562D01*
X195227122Y-76717586D01*
X195210329Y-76649764D01*
X195232869Y-76583630D01*
X195277923Y-76544593D01*
X195288149Y-76539383D01*
X195435257Y-76420257D01*
X195554383Y-76273149D01*
X195640320Y-76104488D01*
X195689312Y-75921645D01*
X195695500Y-75843021D01*
X195695499Y-74916980D01*
X195689312Y-74838355D01*
X195640320Y-74655512D01*
X195596938Y-74570371D01*
X195554385Y-74486853D01*
X195521554Y-74446311D01*
X195435257Y-74339743D01*
X195348958Y-74269859D01*
X195288146Y-74220614D01*
X195162868Y-74156783D01*
X195119488Y-74134680D01*
X195021819Y-74108510D01*
X194936643Y-74085687D01*
X194858026Y-74079500D01*
X194105954Y-74079500D01*
X194038915Y-74059815D01*
X193993160Y-74007011D01*
X193983216Y-73937853D01*
X194012241Y-73874297D01*
X194027912Y-73859139D01*
X194125342Y-73780242D01*
X194244475Y-73633126D01*
X194330416Y-73464456D01*
X194379412Y-73281603D01*
X194385600Y-73202975D01*
X194385599Y-71277026D01*
X194379412Y-71198397D01*
X194330416Y-71015544D01*
X194267470Y-70892005D01*
X194244476Y-70846875D01*
X194244475Y-70846873D01*
X194166432Y-70750500D01*
X194125342Y-70699758D01*
X194051784Y-70640191D01*
X193978227Y-70580625D01*
X193870118Y-70525541D01*
X193819322Y-70477566D01*
X193802527Y-70409745D01*
X193803474Y-70398870D01*
X193816666Y-70298669D01*
X193816666Y-70150000D01*
X191316666Y-70150000D01*
X191316666Y-70298666D01*
X191320915Y-70330947D01*
X191310147Y-70399982D01*
X191263766Y-70452236D01*
X191196497Y-70471120D01*
X191165881Y-70466904D01*
X191086701Y-70445687D01*
X191014790Y-70440028D01*
X191008075Y-70439500D01*
X191008074Y-70439500D01*
X190081935Y-70439500D01*
X190081916Y-70439501D01*
X190003300Y-70445687D01*
X189820444Y-70494684D01*
X189651775Y-70580623D01*
X189651773Y-70580624D01*
X189504658Y-70699758D01*
X189385524Y-70846873D01*
X189385484Y-70846953D01*
X189385449Y-70846989D01*
X189381986Y-70852323D01*
X189381010Y-70851689D01*
X189337509Y-70897749D01*
X189269688Y-70914543D01*
X189203553Y-70892005D01*
X189168753Y-70851843D01*
X189168014Y-70852323D01*
X189164559Y-70847002D01*
X189164516Y-70846953D01*
X189164476Y-70846875D01*
X189164475Y-70846873D01*
X189086432Y-70750500D01*
X189045342Y-70699758D01*
X188979514Y-70646451D01*
X188898226Y-70580624D01*
X188898224Y-70580623D01*
X188787214Y-70524062D01*
X188729556Y-70494684D01*
X188658323Y-70475597D01*
X188546701Y-70445687D01*
X188474790Y-70440028D01*
X188468075Y-70439500D01*
X188468074Y-70439500D01*
X187541935Y-70439500D01*
X187541916Y-70439501D01*
X187463300Y-70445687D01*
X187280444Y-70494684D01*
X187111775Y-70580623D01*
X187111773Y-70580624D01*
X186964658Y-70699758D01*
X186845524Y-70846873D01*
X186845484Y-70846953D01*
X186845449Y-70846989D01*
X186841986Y-70852323D01*
X186841010Y-70851689D01*
X186797509Y-70897749D01*
X186729688Y-70914543D01*
X186663553Y-70892005D01*
X186628753Y-70851843D01*
X186628014Y-70852323D01*
X186624559Y-70847002D01*
X186624516Y-70846953D01*
X186624476Y-70846875D01*
X186624475Y-70846873D01*
X186546432Y-70750500D01*
X186505342Y-70699758D01*
X186439514Y-70646451D01*
X186358226Y-70580624D01*
X186358224Y-70580623D01*
X186247214Y-70524062D01*
X186189556Y-70494684D01*
X186118323Y-70475597D01*
X186006701Y-70445687D01*
X185934790Y-70440028D01*
X185928075Y-70439500D01*
X185928074Y-70439500D01*
X185001935Y-70439500D01*
X185001916Y-70439501D01*
X184923300Y-70445687D01*
X184740444Y-70494684D01*
X184571775Y-70580623D01*
X184571773Y-70580624D01*
X184424658Y-70699758D01*
X184305524Y-70846873D01*
X184305518Y-70846883D01*
X184305437Y-70847043D01*
X184305365Y-70847118D01*
X184301986Y-70852323D01*
X184301033Y-70851704D01*
X184257457Y-70897834D01*
X184189634Y-70914622D01*
X184123502Y-70892077D01*
X184088643Y-70851837D01*
X184087925Y-70852304D01*
X184084563Y-70847128D01*
X184084468Y-70847018D01*
X184084383Y-70846851D01*
X184058170Y-70814481D01*
X183965257Y-70699743D01*
X183878958Y-70629859D01*
X183818146Y-70580614D01*
X183692868Y-70516783D01*
X183649488Y-70494680D01*
X183561560Y-70471120D01*
X183525792Y-70461536D01*
X183466131Y-70425171D01*
X183435602Y-70362324D01*
X183443897Y-70292949D01*
X183470201Y-70254083D01*
X184222955Y-69501329D01*
X191316666Y-69501329D01*
X191316666Y-69650000D01*
X192316666Y-69650000D01*
X192816666Y-69650000D01*
X193816666Y-69650000D01*
X193816666Y-69501329D01*
X193801480Y-69385980D01*
X193801478Y-69385975D01*
X193742032Y-69242458D01*
X193742032Y-69242457D01*
X193647458Y-69119207D01*
X193524207Y-69024633D01*
X193380690Y-68965187D01*
X193380685Y-68965185D01*
X193265337Y-68950000D01*
X192816666Y-68950000D01*
X192816666Y-69650000D01*
X192316666Y-69650000D01*
X192316666Y-68950000D01*
X191867995Y-68950000D01*
X191752646Y-68965185D01*
X191752641Y-68965187D01*
X191609124Y-69024633D01*
X191609123Y-69024633D01*
X191485873Y-69119207D01*
X191391299Y-69242457D01*
X191391299Y-69242458D01*
X191331853Y-69385975D01*
X191331851Y-69385980D01*
X191316666Y-69501329D01*
X184222955Y-69501329D01*
X186337466Y-67386819D01*
X186398789Y-67353334D01*
X186425147Y-67350500D01*
X191403506Y-67350500D01*
X191470545Y-67370185D01*
X191478665Y-67376728D01*
X191479070Y-67376201D01*
X191485515Y-67381146D01*
X191485517Y-67381149D01*
X191608868Y-67475800D01*
X191752515Y-67535301D01*
X191867965Y-67550500D01*
X193265366Y-67550499D01*
X193265369Y-67550499D01*
X193380808Y-67535303D01*
X193380812Y-67535301D01*
X193380817Y-67535301D01*
X193524464Y-67475800D01*
X193647815Y-67381149D01*
X193742466Y-67257798D01*
X193801967Y-67114151D01*
X193817166Y-66998701D01*
X193817165Y-66201300D01*
X193817165Y-66201298D01*
X193817165Y-66201296D01*
X193801969Y-66085857D01*
X193801967Y-66085850D01*
X193801967Y-66085849D01*
X193742466Y-65942202D01*
X193647815Y-65818851D01*
X193580091Y-65766884D01*
X193522738Y-65722875D01*
X193481536Y-65666447D01*
X193477381Y-65596701D01*
X193511594Y-65535781D01*
X193573311Y-65503029D01*
X193598225Y-65500500D01*
X196435107Y-65500500D01*
X196502146Y-65520185D01*
G37*
G04 #@! TD.AperFunction*
G04 #@! TA.AperFunction,Conductor*
G36*
X181726444Y-73587835D02*
G01*
X181761376Y-73628149D01*
X181762075Y-73627696D01*
X181765340Y-73632724D01*
X181765486Y-73632892D01*
X181765616Y-73633148D01*
X181788275Y-73661130D01*
X181884743Y-73780257D01*
X181975195Y-73853504D01*
X182031853Y-73899385D01*
X182107353Y-73937853D01*
X182200512Y-73985320D01*
X182383355Y-74034312D01*
X182461979Y-74040500D01*
X183388020Y-74040499D01*
X183466645Y-74034312D01*
X183649488Y-73985320D01*
X183778008Y-73919835D01*
X183818146Y-73899385D01*
X183818147Y-73899383D01*
X183818149Y-73899383D01*
X183965257Y-73780257D01*
X184084383Y-73633149D01*
X184084466Y-73632985D01*
X184084541Y-73632906D01*
X184087925Y-73627696D01*
X184088876Y-73628314D01*
X184132429Y-73582184D01*
X184200247Y-73565376D01*
X184266386Y-73587901D01*
X184301265Y-73628145D01*
X184301986Y-73627677D01*
X184305351Y-73632860D01*
X184305441Y-73632963D01*
X184305522Y-73633122D01*
X184305524Y-73633126D01*
X184371351Y-73714414D01*
X184424658Y-73780242D01*
X184505946Y-73846068D01*
X184571773Y-73899375D01*
X184571775Y-73899376D01*
X184627279Y-73927656D01*
X184740444Y-73985316D01*
X184923297Y-74034312D01*
X185001925Y-74040500D01*
X185928074Y-74040499D01*
X186006703Y-74034312D01*
X186189556Y-73985316D01*
X186358226Y-73899375D01*
X186505342Y-73780242D01*
X186624475Y-73633126D01*
X186624512Y-73633052D01*
X186624546Y-73633016D01*
X186628014Y-73627677D01*
X186628990Y-73628310D01*
X186672484Y-73582255D01*
X186740304Y-73565455D01*
X186806440Y-73587989D01*
X186841246Y-73628157D01*
X186841986Y-73627677D01*
X186845444Y-73633002D01*
X186845488Y-73633053D01*
X186845526Y-73633128D01*
X186845545Y-73633151D01*
X186964658Y-73780242D01*
X187045946Y-73846068D01*
X187111773Y-73899375D01*
X187111775Y-73899376D01*
X187167279Y-73927656D01*
X187280444Y-73985316D01*
X187463297Y-74034312D01*
X187541925Y-74040500D01*
X188468074Y-74040499D01*
X188546703Y-74034312D01*
X188729556Y-73985316D01*
X188898226Y-73899375D01*
X189045342Y-73780242D01*
X189164475Y-73633126D01*
X189164512Y-73633052D01*
X189164546Y-73633016D01*
X189168014Y-73627677D01*
X189168990Y-73628310D01*
X189212484Y-73582255D01*
X189280304Y-73565455D01*
X189346440Y-73587989D01*
X189381246Y-73628157D01*
X189381986Y-73627677D01*
X189385444Y-73633002D01*
X189385488Y-73633053D01*
X189385526Y-73633128D01*
X189385545Y-73633151D01*
X189504658Y-73780242D01*
X189585946Y-73846068D01*
X189651773Y-73899375D01*
X189651775Y-73899376D01*
X189707279Y-73927656D01*
X189820444Y-73985316D01*
X190003297Y-74034312D01*
X190081925Y-74040500D01*
X191008074Y-74040499D01*
X191086703Y-74034312D01*
X191269556Y-73985316D01*
X191438226Y-73899375D01*
X191585342Y-73780242D01*
X191704475Y-73633126D01*
X191704512Y-73633052D01*
X191704546Y-73633016D01*
X191708014Y-73627677D01*
X191708990Y-73628310D01*
X191752484Y-73582255D01*
X191820304Y-73565455D01*
X191886440Y-73587989D01*
X191921246Y-73628157D01*
X191921986Y-73627677D01*
X191925444Y-73633002D01*
X191925488Y-73633053D01*
X191925526Y-73633128D01*
X191925545Y-73633151D01*
X192044658Y-73780242D01*
X192125946Y-73846068D01*
X192191773Y-73899375D01*
X192191775Y-73899376D01*
X192267292Y-73937853D01*
X192360444Y-73985316D01*
X192449952Y-74009300D01*
X192509612Y-74045664D01*
X192540141Y-74108510D01*
X192531847Y-74177886D01*
X192495894Y-74225440D01*
X192354743Y-74339743D01*
X192235614Y-74486853D01*
X192149680Y-74655512D01*
X192100687Y-74838356D01*
X192100687Y-74838357D01*
X192094500Y-74916973D01*
X192094500Y-75843010D01*
X192094501Y-75843029D01*
X192100687Y-75921643D01*
X192100688Y-75921645D01*
X192149680Y-76104488D01*
X192151197Y-76107465D01*
X192235614Y-76273146D01*
X192273358Y-76319755D01*
X192354743Y-76420257D01*
X192501851Y-76539383D01*
X192501853Y-76539384D01*
X192512076Y-76544593D01*
X192562873Y-76592565D01*
X192579670Y-76660386D01*
X192557135Y-76726522D01*
X192512085Y-76765561D01*
X192499003Y-76772227D01*
X192352922Y-76890522D01*
X192234626Y-77036603D01*
X192149293Y-77204083D01*
X192100643Y-77385647D01*
X192100643Y-77385648D01*
X192094500Y-77463705D01*
X192094500Y-78376278D01*
X192094501Y-78376297D01*
X192100643Y-78454352D01*
X192149293Y-78635916D01*
X192234626Y-78803396D01*
X192274914Y-78853147D01*
X192352922Y-78949478D01*
X192434137Y-79015245D01*
X192499003Y-79067773D01*
X192522049Y-79079515D01*
X192572845Y-79127489D01*
X192589641Y-79195310D01*
X192567104Y-79261445D01*
X192522049Y-79300485D01*
X192499003Y-79312226D01*
X192352922Y-79430522D01*
X192234626Y-79576603D01*
X192149293Y-79744083D01*
X192100643Y-79925647D01*
X192100643Y-79925648D01*
X192094500Y-80003705D01*
X192094500Y-80916278D01*
X192094501Y-80916297D01*
X192100643Y-80994352D01*
X192149293Y-81175916D01*
X192234626Y-81343396D01*
X192283526Y-81403782D01*
X192352922Y-81489478D01*
X192458745Y-81575172D01*
X192499003Y-81607773D01*
X192522049Y-81619515D01*
X192572845Y-81667489D01*
X192589641Y-81735310D01*
X192567104Y-81801445D01*
X192522049Y-81840485D01*
X192499003Y-81852226D01*
X192352922Y-81970522D01*
X192234626Y-82116603D01*
X192149293Y-82284083D01*
X192100643Y-82465647D01*
X192100643Y-82465648D01*
X192094500Y-82543705D01*
X192094500Y-83456278D01*
X192094501Y-83456297D01*
X192100643Y-83534352D01*
X192149293Y-83715916D01*
X192234626Y-83883396D01*
X192283526Y-83943782D01*
X192352922Y-84029478D01*
X192439392Y-84099500D01*
X192499003Y-84147773D01*
X192522049Y-84159515D01*
X192572845Y-84207489D01*
X192589641Y-84275310D01*
X192567104Y-84341445D01*
X192522049Y-84380485D01*
X192499003Y-84392226D01*
X192352922Y-84510522D01*
X192234626Y-84656603D01*
X192149293Y-84824083D01*
X192100643Y-85005647D01*
X192100643Y-85005648D01*
X192094500Y-85083705D01*
X192094500Y-85996278D01*
X192094501Y-85996297D01*
X192100643Y-86074352D01*
X192149293Y-86255916D01*
X192234626Y-86423396D01*
X192283526Y-86483782D01*
X192352922Y-86569478D01*
X192474980Y-86668319D01*
X192504052Y-86691861D01*
X192502246Y-86694090D01*
X192539589Y-86737562D01*
X192549235Y-86806763D01*
X192519937Y-86870193D01*
X192460998Y-86907715D01*
X192458669Y-86908364D01*
X192360443Y-86934684D01*
X192191775Y-87020623D01*
X192191773Y-87020624D01*
X192044658Y-87139758D01*
X191925524Y-87286873D01*
X191925484Y-87286953D01*
X191925449Y-87286989D01*
X191921986Y-87292323D01*
X191921010Y-87291689D01*
X191877509Y-87337749D01*
X191809688Y-87354543D01*
X191743553Y-87332005D01*
X191708753Y-87291843D01*
X191708014Y-87292323D01*
X191704559Y-87287002D01*
X191704516Y-87286953D01*
X191704476Y-87286875D01*
X191704475Y-87286873D01*
X191623176Y-87186479D01*
X191585342Y-87139758D01*
X191519514Y-87086451D01*
X191438226Y-87020624D01*
X191438224Y-87020623D01*
X191327214Y-86964062D01*
X191269556Y-86934684D01*
X191168908Y-86907715D01*
X191086701Y-86885687D01*
X191014428Y-86880000D01*
X191008075Y-86879500D01*
X191008074Y-86879500D01*
X190081935Y-86879500D01*
X190081916Y-86879501D01*
X190003300Y-86885687D01*
X189820444Y-86934684D01*
X189651775Y-87020623D01*
X189651773Y-87020624D01*
X189504658Y-87139758D01*
X189385524Y-87286873D01*
X189385484Y-87286953D01*
X189385449Y-87286989D01*
X189381986Y-87292323D01*
X189381010Y-87291689D01*
X189337509Y-87337749D01*
X189269688Y-87354543D01*
X189203553Y-87332005D01*
X189168753Y-87291843D01*
X189168014Y-87292323D01*
X189164559Y-87287002D01*
X189164516Y-87286953D01*
X189164476Y-87286875D01*
X189164475Y-87286873D01*
X189083176Y-87186479D01*
X189045342Y-87139758D01*
X188979514Y-87086451D01*
X188898226Y-87020624D01*
X188898224Y-87020623D01*
X188787214Y-86964062D01*
X188729556Y-86934684D01*
X188628908Y-86907715D01*
X188546701Y-86885687D01*
X188474428Y-86880000D01*
X188468075Y-86879500D01*
X188468074Y-86879500D01*
X187541935Y-86879500D01*
X187541916Y-86879501D01*
X187463300Y-86885687D01*
X187280444Y-86934684D01*
X187111775Y-87020623D01*
X187111773Y-87020624D01*
X186964658Y-87139758D01*
X186845524Y-87286873D01*
X186845484Y-87286953D01*
X186845449Y-87286989D01*
X186841986Y-87292323D01*
X186841010Y-87291689D01*
X186797509Y-87337749D01*
X186729688Y-87354543D01*
X186663553Y-87332005D01*
X186628753Y-87291843D01*
X186628014Y-87292323D01*
X186624559Y-87287002D01*
X186624516Y-87286953D01*
X186624476Y-87286875D01*
X186624475Y-87286873D01*
X186543176Y-87186479D01*
X186505342Y-87139758D01*
X186439514Y-87086451D01*
X186358226Y-87020624D01*
X186358224Y-87020623D01*
X186247214Y-86964062D01*
X186189556Y-86934684D01*
X186088908Y-86907715D01*
X186006701Y-86885687D01*
X185934428Y-86880000D01*
X185928075Y-86879500D01*
X185928074Y-86879500D01*
X185001935Y-86879500D01*
X185001916Y-86879501D01*
X184923300Y-86885687D01*
X184740444Y-86934684D01*
X184571775Y-87020623D01*
X184571773Y-87020624D01*
X184424658Y-87139758D01*
X184305524Y-87286873D01*
X184305484Y-87286953D01*
X184305449Y-87286989D01*
X184301986Y-87292323D01*
X184301010Y-87291689D01*
X184257509Y-87337749D01*
X184189688Y-87354543D01*
X184123553Y-87332005D01*
X184088753Y-87291843D01*
X184088014Y-87292323D01*
X184084559Y-87287002D01*
X184084516Y-87286953D01*
X184084476Y-87286875D01*
X184084475Y-87286873D01*
X184003176Y-87186479D01*
X183965342Y-87139758D01*
X183899514Y-87086451D01*
X183818226Y-87020624D01*
X183818224Y-87020623D01*
X183707214Y-86964062D01*
X183649556Y-86934684D01*
X183548908Y-86907715D01*
X183466701Y-86885687D01*
X183394428Y-86880000D01*
X183388075Y-86879500D01*
X183388074Y-86879500D01*
X182461935Y-86879500D01*
X182461916Y-86879501D01*
X182383300Y-86885687D01*
X182200444Y-86934684D01*
X182031775Y-87020623D01*
X182031773Y-87020624D01*
X181884658Y-87139758D01*
X181765524Y-87286873D01*
X181765484Y-87286953D01*
X181765449Y-87286989D01*
X181761986Y-87292323D01*
X181761010Y-87291689D01*
X181717509Y-87337749D01*
X181649688Y-87354543D01*
X181583553Y-87332005D01*
X181548753Y-87291843D01*
X181548014Y-87292323D01*
X181544559Y-87287002D01*
X181544516Y-87286953D01*
X181544476Y-87286875D01*
X181544475Y-87286873D01*
X181463176Y-87186479D01*
X181425342Y-87139758D01*
X181359514Y-87086451D01*
X181278226Y-87020624D01*
X181278224Y-87020623D01*
X181167214Y-86964062D01*
X181109556Y-86934684D01*
X181008908Y-86907715D01*
X180926701Y-86885687D01*
X180854428Y-86880000D01*
X180848075Y-86879500D01*
X180848074Y-86879500D01*
X179921935Y-86879500D01*
X179921916Y-86879501D01*
X179843300Y-86885687D01*
X179660444Y-86934684D01*
X179491775Y-87020623D01*
X179491773Y-87020624D01*
X179344658Y-87139758D01*
X179225524Y-87286873D01*
X179225484Y-87286953D01*
X179225449Y-87286989D01*
X179221986Y-87292323D01*
X179221010Y-87291689D01*
X179177509Y-87337749D01*
X179109688Y-87354543D01*
X179043553Y-87332005D01*
X179008753Y-87291843D01*
X179008014Y-87292323D01*
X179004559Y-87287002D01*
X179004516Y-87286953D01*
X179004476Y-87286875D01*
X179004475Y-87286873D01*
X178923176Y-87186479D01*
X178885342Y-87139758D01*
X178819514Y-87086451D01*
X178738226Y-87020624D01*
X178738224Y-87020623D01*
X178627214Y-86964062D01*
X178569556Y-86934684D01*
X178468908Y-86907715D01*
X178386701Y-86885687D01*
X178308080Y-86879500D01*
X177429600Y-86879500D01*
X177362561Y-86859815D01*
X177316806Y-86807011D01*
X177305600Y-86755500D01*
X177305600Y-86331179D01*
X177290629Y-86255918D01*
X177287356Y-86239464D01*
X177276759Y-86186188D01*
X177222508Y-86055217D01*
X177220865Y-86050625D01*
X177220184Y-86049605D01*
X177187286Y-86000370D01*
X177184563Y-85996294D01*
X177138056Y-85926689D01*
X177138052Y-85926684D01*
X175860038Y-84648670D01*
X176450000Y-84648670D01*
X176465185Y-84764019D01*
X176465187Y-84764024D01*
X176524633Y-84907541D01*
X176524633Y-84907542D01*
X176619207Y-85030792D01*
X176742458Y-85125366D01*
X176885975Y-85184812D01*
X176885980Y-85184814D01*
X177001329Y-85200000D01*
X177150000Y-85200000D01*
X177650000Y-85200000D01*
X177798671Y-85200000D01*
X177914019Y-85184814D01*
X177914024Y-85184812D01*
X178057541Y-85125366D01*
X178057542Y-85125366D01*
X178180792Y-85030792D01*
X178275366Y-84907542D01*
X178275366Y-84907541D01*
X178334812Y-84764024D01*
X178334814Y-84764019D01*
X178350000Y-84648670D01*
X178350000Y-84200000D01*
X177650000Y-84200000D01*
X177650000Y-85200000D01*
X177150000Y-85200000D01*
X177150000Y-84200000D01*
X176450000Y-84200000D01*
X176450000Y-84648670D01*
X175860038Y-84648670D01*
X175086818Y-83875450D01*
X175053333Y-83814127D01*
X175050499Y-83787769D01*
X175050499Y-83251329D01*
X176450000Y-83251329D01*
X176450000Y-83700000D01*
X177150000Y-83700000D01*
X177650000Y-83700000D01*
X178350000Y-83700000D01*
X178350000Y-83251329D01*
X178334814Y-83135980D01*
X178334812Y-83135975D01*
X178275366Y-82992458D01*
X178275366Y-82992457D01*
X178180792Y-82869207D01*
X178057541Y-82774633D01*
X177914024Y-82715187D01*
X177914019Y-82715185D01*
X177798671Y-82700000D01*
X177650000Y-82700000D01*
X177650000Y-83700000D01*
X177150000Y-83700000D01*
X177150000Y-82700000D01*
X177001329Y-82700000D01*
X176885980Y-82715185D01*
X176885975Y-82715187D01*
X176742458Y-82774633D01*
X176742457Y-82774633D01*
X176619207Y-82869207D01*
X176524633Y-82992457D01*
X176524633Y-82992458D01*
X176465187Y-83135975D01*
X176465185Y-83135980D01*
X176450000Y-83251329D01*
X175050499Y-83251329D01*
X175050499Y-83251296D01*
X175035303Y-83135857D01*
X175035301Y-83135850D01*
X175035301Y-83135849D01*
X174975800Y-82992202D01*
X174881149Y-82868851D01*
X174757798Y-82774200D01*
X174757794Y-82774198D01*
X174614151Y-82714699D01*
X174614149Y-82714698D01*
X174498701Y-82699500D01*
X173701296Y-82699500D01*
X173585857Y-82714696D01*
X173585848Y-82714699D01*
X173442205Y-82774198D01*
X173318851Y-82868851D01*
X173224198Y-82992205D01*
X173164699Y-83135848D01*
X173164698Y-83135850D01*
X173149500Y-83251298D01*
X173149500Y-84648703D01*
X173164696Y-84764142D01*
X173164699Y-84764151D01*
X173224093Y-84907541D01*
X173224200Y-84907798D01*
X173318851Y-85031149D01*
X173442202Y-85125800D01*
X173585849Y-85185301D01*
X173701299Y-85200500D01*
X174237769Y-85200499D01*
X174304808Y-85220183D01*
X174325450Y-85236818D01*
X175756951Y-86668319D01*
X175790436Y-86729642D01*
X175785452Y-86799334D01*
X175743580Y-86855267D01*
X175678116Y-86879684D01*
X175669270Y-86880000D01*
X175555000Y-86880000D01*
X175555000Y-87764314D01*
X175550606Y-87759920D01*
X175459394Y-87707259D01*
X175357661Y-87680000D01*
X175252339Y-87680000D01*
X175150606Y-87707259D01*
X175059394Y-87759920D01*
X175055000Y-87764314D01*
X175055000Y-86880000D01*
X174841946Y-86880000D01*
X174763377Y-86886183D01*
X174580625Y-86935151D01*
X174412048Y-87021044D01*
X174412045Y-87021046D01*
X174265013Y-87140113D01*
X174145946Y-87287145D01*
X174145942Y-87287151D01*
X174145761Y-87287508D01*
X174145601Y-87287677D01*
X174142407Y-87292596D01*
X174141507Y-87292011D01*
X174097784Y-87338301D01*
X174029962Y-87355092D01*
X173963828Y-87332550D01*
X173928626Y-87291924D01*
X173928014Y-87292323D01*
X173925148Y-87287910D01*
X173924798Y-87287506D01*
X173924477Y-87286877D01*
X173924475Y-87286873D01*
X173843176Y-87186479D01*
X173805342Y-87139758D01*
X173739514Y-87086451D01*
X173658226Y-87020624D01*
X173658224Y-87020623D01*
X173547214Y-86964062D01*
X173489556Y-86934684D01*
X173388908Y-86907715D01*
X173306701Y-86885687D01*
X173234428Y-86880000D01*
X173228075Y-86879500D01*
X173228074Y-86879500D01*
X172301935Y-86879500D01*
X172301916Y-86879501D01*
X172223300Y-86885687D01*
X172040444Y-86934684D01*
X171871775Y-87020623D01*
X171871773Y-87020624D01*
X171724656Y-87139759D01*
X171720864Y-87144443D01*
X171663376Y-87184153D01*
X171593545Y-87186479D01*
X171533542Y-87150682D01*
X171502418Y-87088128D01*
X171500500Y-87066405D01*
X171500500Y-78351298D01*
X173149500Y-78351298D01*
X173149500Y-79748703D01*
X173164696Y-79864142D01*
X173164699Y-79864151D01*
X173222507Y-80003712D01*
X173224200Y-80007798D01*
X173318851Y-80131149D01*
X173442202Y-80225800D01*
X173585849Y-80285301D01*
X173701299Y-80300500D01*
X174498700Y-80300499D01*
X174498703Y-80300499D01*
X174614142Y-80285303D01*
X174614146Y-80285301D01*
X174614151Y-80285301D01*
X174757798Y-80225800D01*
X174881149Y-80131149D01*
X174975800Y-80007798D01*
X175035301Y-79864151D01*
X175050500Y-79748701D01*
X175050499Y-78351300D01*
X175050499Y-78351298D01*
X176449500Y-78351298D01*
X176449500Y-79748703D01*
X176464696Y-79864142D01*
X176464699Y-79864151D01*
X176522507Y-80003712D01*
X176524200Y-80007798D01*
X176618851Y-80131149D01*
X176742202Y-80225800D01*
X176885849Y-80285301D01*
X177001299Y-80300500D01*
X177798700Y-80300499D01*
X177798703Y-80300499D01*
X177914142Y-80285303D01*
X177914146Y-80285301D01*
X177914151Y-80285301D01*
X178057798Y-80225800D01*
X178181149Y-80131149D01*
X178275800Y-80007798D01*
X178335301Y-79864151D01*
X178350500Y-79748701D01*
X178350499Y-78351300D01*
X178350499Y-78351298D01*
X178350499Y-78351296D01*
X178335303Y-78235857D01*
X178335301Y-78235850D01*
X178335301Y-78235849D01*
X178275800Y-78092202D01*
X178181149Y-77968851D01*
X178057798Y-77874200D01*
X178057794Y-77874198D01*
X177914151Y-77814699D01*
X177914149Y-77814698D01*
X177798701Y-77799500D01*
X177001296Y-77799500D01*
X176885857Y-77814696D01*
X176885848Y-77814699D01*
X176742205Y-77874198D01*
X176742202Y-77874199D01*
X176742202Y-77874200D01*
X176618851Y-77968851D01*
X176571930Y-78030000D01*
X176524198Y-78092205D01*
X176464699Y-78235848D01*
X176464698Y-78235850D01*
X176449500Y-78351298D01*
X175050499Y-78351298D01*
X175050499Y-78351296D01*
X175035303Y-78235857D01*
X175035301Y-78235850D01*
X175035301Y-78235849D01*
X174975800Y-78092202D01*
X174881149Y-77968851D01*
X174757798Y-77874200D01*
X174757794Y-77874198D01*
X174614151Y-77814699D01*
X174614149Y-77814698D01*
X174498701Y-77799500D01*
X173701296Y-77799500D01*
X173585857Y-77814696D01*
X173585848Y-77814699D01*
X173442205Y-77874198D01*
X173442202Y-77874199D01*
X173442202Y-77874200D01*
X173318851Y-77968851D01*
X173271930Y-78030000D01*
X173224198Y-78092205D01*
X173164699Y-78235848D01*
X173164698Y-78235850D01*
X173149500Y-78351298D01*
X171500500Y-78351298D01*
X171500500Y-73853504D01*
X171520185Y-73786465D01*
X171572989Y-73740710D01*
X171642147Y-73730766D01*
X171705703Y-73759791D01*
X171720864Y-73775466D01*
X171723849Y-73779154D01*
X171724742Y-73780256D01*
X171871853Y-73899385D01*
X171947353Y-73937853D01*
X172040512Y-73985320D01*
X172223355Y-74034312D01*
X172301979Y-74040500D01*
X173228020Y-74040499D01*
X173306645Y-74034312D01*
X173489488Y-73985320D01*
X173618008Y-73919835D01*
X173658146Y-73899385D01*
X173658147Y-73899383D01*
X173658149Y-73899383D01*
X173805257Y-73780257D01*
X173924383Y-73633149D01*
X173924514Y-73632892D01*
X173924630Y-73632768D01*
X173927925Y-73627696D01*
X173928852Y-73628298D01*
X173972488Y-73582095D01*
X174040309Y-73565299D01*
X174106444Y-73587835D01*
X174141376Y-73628149D01*
X174142075Y-73627696D01*
X174145340Y-73632724D01*
X174145486Y-73632892D01*
X174145616Y-73633148D01*
X174168275Y-73661130D01*
X174264743Y-73780257D01*
X174355195Y-73853504D01*
X174411853Y-73899385D01*
X174487353Y-73937853D01*
X174580512Y-73985320D01*
X174763355Y-74034312D01*
X174841979Y-74040500D01*
X175768020Y-74040499D01*
X175846645Y-74034312D01*
X176029488Y-73985320D01*
X176158008Y-73919835D01*
X176198146Y-73899385D01*
X176198147Y-73899383D01*
X176198149Y-73899383D01*
X176345257Y-73780257D01*
X176464383Y-73633149D01*
X176464514Y-73632892D01*
X176464630Y-73632768D01*
X176467925Y-73627696D01*
X176468852Y-73628298D01*
X176512488Y-73582095D01*
X176580309Y-73565299D01*
X176646444Y-73587835D01*
X176681376Y-73628149D01*
X176682075Y-73627696D01*
X176685340Y-73632724D01*
X176685486Y-73632892D01*
X176685616Y-73633148D01*
X176708275Y-73661130D01*
X176804743Y-73780257D01*
X176895195Y-73853504D01*
X176951853Y-73899385D01*
X177027353Y-73937853D01*
X177120512Y-73985320D01*
X177303355Y-74034312D01*
X177381979Y-74040500D01*
X178308020Y-74040499D01*
X178386645Y-74034312D01*
X178569488Y-73985320D01*
X178698008Y-73919835D01*
X178738146Y-73899385D01*
X178738147Y-73899383D01*
X178738149Y-73899383D01*
X178885257Y-73780257D01*
X179004383Y-73633149D01*
X179004514Y-73632892D01*
X179004630Y-73632768D01*
X179007925Y-73627696D01*
X179008852Y-73628298D01*
X179052488Y-73582095D01*
X179120309Y-73565299D01*
X179186444Y-73587835D01*
X179221376Y-73628149D01*
X179222075Y-73627696D01*
X179225340Y-73632724D01*
X179225486Y-73632892D01*
X179225616Y-73633148D01*
X179248275Y-73661130D01*
X179344743Y-73780257D01*
X179435195Y-73853504D01*
X179491853Y-73899385D01*
X179567353Y-73937853D01*
X179660512Y-73985320D01*
X179843355Y-74034312D01*
X179921979Y-74040500D01*
X180848020Y-74040499D01*
X180926645Y-74034312D01*
X181109488Y-73985320D01*
X181238008Y-73919835D01*
X181278146Y-73899385D01*
X181278147Y-73899383D01*
X181278149Y-73899383D01*
X181425257Y-73780257D01*
X181544383Y-73633149D01*
X181544514Y-73632892D01*
X181544630Y-73632768D01*
X181547925Y-73627696D01*
X181548852Y-73628298D01*
X181592488Y-73582095D01*
X181660309Y-73565299D01*
X181726444Y-73587835D01*
G37*
G04 #@! TD.AperFunction*
G04 #@! TA.AperFunction,Conductor*
G36*
X191602146Y-65520185D02*
G01*
X191647901Y-65572989D01*
X191657845Y-65642147D01*
X191628820Y-65705703D01*
X191610594Y-65722875D01*
X191479070Y-65823798D01*
X191476906Y-65820978D01*
X191429864Y-65846666D01*
X191403506Y-65849500D01*
X185988994Y-65849500D01*
X185960160Y-65855234D01*
X185960161Y-65855235D01*
X185844011Y-65878339D01*
X185844001Y-65878342D01*
X185763999Y-65911479D01*
X185764000Y-65911480D01*
X185707424Y-65934915D01*
X185659334Y-65967048D01*
X185584500Y-66017049D01*
X185584497Y-66017052D01*
X181158045Y-70443503D01*
X181096722Y-70476988D01*
X181038272Y-70475597D01*
X180926645Y-70445687D01*
X180853756Y-70439951D01*
X180848021Y-70439500D01*
X180848020Y-70439500D01*
X179921989Y-70439500D01*
X179921970Y-70439501D01*
X179843356Y-70445687D01*
X179660512Y-70494680D01*
X179491853Y-70580614D01*
X179344743Y-70699743D01*
X179225613Y-70846855D01*
X179225482Y-70847114D01*
X179225365Y-70847237D01*
X179222075Y-70852304D01*
X179221148Y-70851702D01*
X179177505Y-70897908D01*
X179109683Y-70914700D01*
X179043549Y-70892159D01*
X179008622Y-70851850D01*
X179007925Y-70852304D01*
X179004663Y-70847281D01*
X179004518Y-70847114D01*
X179004386Y-70846855D01*
X179003495Y-70845755D01*
X178885257Y-70699743D01*
X178798958Y-70629859D01*
X178738146Y-70580614D01*
X178612868Y-70516783D01*
X178569488Y-70494680D01*
X178481560Y-70471120D01*
X178386643Y-70445687D01*
X178314736Y-70440028D01*
X178308021Y-70439500D01*
X178308020Y-70439500D01*
X177381989Y-70439500D01*
X177381970Y-70439501D01*
X177303356Y-70445687D01*
X177120512Y-70494680D01*
X176951853Y-70580614D01*
X176804743Y-70699743D01*
X176685613Y-70846855D01*
X176685482Y-70847114D01*
X176685365Y-70847237D01*
X176682075Y-70852304D01*
X176681148Y-70851702D01*
X176637505Y-70897908D01*
X176569683Y-70914700D01*
X176503549Y-70892159D01*
X176468622Y-70851850D01*
X176467925Y-70852304D01*
X176464663Y-70847281D01*
X176464518Y-70847114D01*
X176464386Y-70846855D01*
X176463495Y-70845755D01*
X176345257Y-70699743D01*
X176258958Y-70629859D01*
X176198146Y-70580614D01*
X176072868Y-70516783D01*
X176029488Y-70494680D01*
X175941560Y-70471120D01*
X175846643Y-70445687D01*
X175774736Y-70440028D01*
X175768021Y-70439500D01*
X175768020Y-70439500D01*
X174841989Y-70439500D01*
X174841970Y-70439501D01*
X174763356Y-70445687D01*
X174580512Y-70494680D01*
X174411853Y-70580614D01*
X174264743Y-70699743D01*
X174145613Y-70846855D01*
X174145482Y-70847114D01*
X174145365Y-70847237D01*
X174142075Y-70852304D01*
X174141148Y-70851702D01*
X174097505Y-70897908D01*
X174029683Y-70914700D01*
X173963549Y-70892159D01*
X173928622Y-70851850D01*
X173927925Y-70852304D01*
X173924663Y-70847281D01*
X173924518Y-70847114D01*
X173924386Y-70846855D01*
X173923495Y-70845755D01*
X173805257Y-70699743D01*
X173718958Y-70629859D01*
X173658146Y-70580614D01*
X173532868Y-70516783D01*
X173489488Y-70494680D01*
X173401560Y-70471120D01*
X173306643Y-70445687D01*
X173234736Y-70440028D01*
X173228021Y-70439500D01*
X173228020Y-70439500D01*
X172301989Y-70439500D01*
X172301970Y-70439501D01*
X172223356Y-70445687D01*
X172040512Y-70494680D01*
X171871853Y-70580614D01*
X171724741Y-70699744D01*
X171720864Y-70704533D01*
X171663377Y-70744243D01*
X171593546Y-70746569D01*
X171533542Y-70710773D01*
X171502418Y-70648219D01*
X171500500Y-70626495D01*
X171500500Y-69003051D01*
X171500649Y-68996967D01*
X171503737Y-68934108D01*
X171517052Y-68663068D01*
X171518245Y-68650962D01*
X171566849Y-68323296D01*
X171569218Y-68311385D01*
X171649710Y-67990043D01*
X171653240Y-67978411D01*
X171764835Y-67666525D01*
X171769476Y-67655318D01*
X171911124Y-67355828D01*
X171916840Y-67345136D01*
X172087145Y-67060998D01*
X172093888Y-67050905D01*
X172291232Y-66784818D01*
X172298935Y-66775433D01*
X172521405Y-66529975D01*
X172529975Y-66521405D01*
X172775433Y-66298935D01*
X172784818Y-66291232D01*
X173050905Y-66093888D01*
X173060998Y-66087145D01*
X173345136Y-65916840D01*
X173355828Y-65911124D01*
X173655318Y-65769476D01*
X173666525Y-65764835D01*
X173978412Y-65653239D01*
X173990043Y-65649710D01*
X174311385Y-65569218D01*
X174323296Y-65566849D01*
X174650962Y-65518244D01*
X174663068Y-65517052D01*
X174996967Y-65500648D01*
X175003051Y-65500500D01*
X175065892Y-65500500D01*
X191535107Y-65500500D01*
X191602146Y-65520185D01*
G37*
G04 #@! TD.AperFunction*
M02*
