G04 #@! TF.GenerationSoftware,KiCad,Pcbnew,8.0.9-8.0.9-0~ubuntu22.04.1*
G04 #@! TF.CreationDate,2025-05-05T00:51:58+08:00*
G04 #@! TF.ProjectId,macropad,6d616372-6f70-4616-942e-6b696361645f,rev?*
G04 #@! TF.SameCoordinates,Original*
G04 #@! TF.FileFunction,Soldermask,Top*
G04 #@! TF.FilePolarity,Negative*
%FSLAX46Y46*%
G04 Gerber Fmt 4.6, Leading zero omitted, Abs format (unit mm)*
G04 Created by KiCad (PCBNEW 8.0.9-8.0.9-0~ubuntu22.04.1) date 2025-05-05 00:51:58*
%MOMM*%
%LPD*%
G01*
G04 APERTURE LIST*
G04 Aperture macros list*
%AMRoundRect*
0 Rectangle with rounded corners*
0 $1 Rounding radius*
0 $2 $3 $4 $5 $6 $7 $8 $9 X,Y pos of 4 corners*
0 Add a 4 corners polygon primitive as box body*
4,1,4,$2,$3,$4,$5,$6,$7,$8,$9,$2,$3,0*
0 Add four circle primitives for the rounded corners*
1,1,$1+$1,$2,$3*
1,1,$1+$1,$4,$5*
1,1,$1+$1,$6,$7*
1,1,$1+$1,$8,$9*
0 Add four rect primitives between the rounded corners*
20,1,$1+$1,$2,$3,$4,$5,0*
20,1,$1+$1,$4,$5,$6,$7,0*
20,1,$1+$1,$6,$7,$8,$9,0*
20,1,$1+$1,$8,$9,$2,$3,0*%
G04 Aperture macros list end*
%ADD10C,1.700000*%
%ADD11C,4.000000*%
%ADD12C,2.200000*%
%ADD13RoundRect,0.250000X-0.475000X0.337500X-0.475000X-0.337500X0.475000X-0.337500X0.475000X0.337500X0*%
%ADD14C,5.300000*%
%ADD15RoundRect,0.250000X-0.600000X-0.600000X0.600000X-0.600000X0.600000X0.600000X-0.600000X0.600000X0*%
%ADD16RoundRect,0.250000X0.350000X0.450000X-0.350000X0.450000X-0.350000X-0.450000X0.350000X-0.450000X0*%
%ADD17RoundRect,0.250000X-0.350000X-0.450000X0.350000X-0.450000X0.350000X0.450000X-0.350000X0.450000X0*%
%ADD18C,0.650000*%
%ADD19R,1.450000X0.600000*%
%ADD20R,1.450000X0.300000*%
%ADD21O,2.100000X1.000000*%
%ADD22O,1.600000X1.000000*%
%ADD23C,0.600000*%
G04 APERTURE END LIST*
D10*
X190500000Y-114220000D03*
D11*
X195580000Y-114220000D03*
D10*
X200660000Y-114220000D03*
D12*
X198120000Y-109140000D03*
X191770000Y-111680000D03*
D10*
X209550000Y-152400000D03*
D11*
X214630000Y-152400000D03*
D10*
X219710000Y-152400000D03*
D12*
X217170000Y-147320000D03*
X210820000Y-149860000D03*
D10*
X152400000Y-114220000D03*
D11*
X157480000Y-114220000D03*
D10*
X162560000Y-114220000D03*
D12*
X160020000Y-109140000D03*
X153670000Y-111680000D03*
D10*
X228600000Y-95250000D03*
D11*
X233680000Y-95250000D03*
D10*
X238760000Y-95250000D03*
D12*
X236220000Y-90170000D03*
X229870000Y-92710000D03*
D13*
X97200000Y-77962500D03*
X97200000Y-80037500D03*
D10*
X190500000Y-152400000D03*
D11*
X195580000Y-152400000D03*
D10*
X200660000Y-152400000D03*
D12*
X198120000Y-147320000D03*
X191770000Y-149860000D03*
D10*
X95250000Y-95250000D03*
D11*
X100330000Y-95250000D03*
D10*
X105410000Y-95250000D03*
D12*
X102870000Y-90170000D03*
X96520000Y-92710000D03*
D10*
X152400000Y-152400000D03*
D11*
X157480000Y-152400000D03*
D10*
X162560000Y-152400000D03*
D12*
X160020000Y-147320000D03*
X153670000Y-149860000D03*
D10*
X190500000Y-95250000D03*
D11*
X195580000Y-95250000D03*
D10*
X200660000Y-95250000D03*
D12*
X198120000Y-90170000D03*
X191770000Y-92710000D03*
D10*
X228600000Y-114220000D03*
D11*
X233680000Y-114220000D03*
D10*
X238760000Y-114220000D03*
D12*
X236220000Y-109140000D03*
X229870000Y-111680000D03*
D10*
X171450000Y-133350000D03*
D11*
X176530000Y-133350000D03*
D10*
X181610000Y-133350000D03*
D12*
X179070000Y-128270000D03*
X172720000Y-130810000D03*
D10*
X247650000Y-114220000D03*
D11*
X252730000Y-114220000D03*
D10*
X257810000Y-114220000D03*
D12*
X255270000Y-109140000D03*
X248920000Y-111680000D03*
D10*
X133350000Y-133350000D03*
D11*
X138430000Y-133350000D03*
D10*
X143510000Y-133350000D03*
D12*
X140970000Y-128270000D03*
X134620000Y-130810000D03*
D10*
X114300000Y-95250000D03*
D11*
X119380000Y-95250000D03*
D10*
X124460000Y-95250000D03*
D12*
X121920000Y-90170000D03*
X115570000Y-92710000D03*
D10*
X209550000Y-95250000D03*
D11*
X214630000Y-95250000D03*
D10*
X219710000Y-95250000D03*
D12*
X217170000Y-90170000D03*
X210820000Y-92710000D03*
D14*
X167000000Y-123600000D03*
D10*
X209550000Y-114220000D03*
D11*
X214630000Y-114220000D03*
D10*
X219710000Y-114220000D03*
D12*
X217170000Y-109140000D03*
X210820000Y-111680000D03*
D10*
X76200000Y-95250000D03*
D11*
X81280000Y-95250000D03*
D10*
X86360000Y-95250000D03*
D12*
X83820000Y-90170000D03*
X77470000Y-92710000D03*
D10*
X228600000Y-133350000D03*
D11*
X233680000Y-133350000D03*
D10*
X238760000Y-133350000D03*
D12*
X236220000Y-128270000D03*
X229870000Y-130810000D03*
D10*
X190500000Y-133350000D03*
D11*
X195580000Y-133350000D03*
D10*
X200660000Y-133350000D03*
D12*
X198120000Y-128270000D03*
X191770000Y-130810000D03*
D10*
X76200000Y-133350000D03*
D11*
X81280000Y-133350000D03*
D10*
X86360000Y-133350000D03*
D12*
X83820000Y-128270000D03*
X77470000Y-130810000D03*
D10*
X247650000Y-133350000D03*
D11*
X252730000Y-133350000D03*
D10*
X257810000Y-133350000D03*
D12*
X255270000Y-128270000D03*
X248920000Y-130810000D03*
D10*
X114300000Y-133350000D03*
D11*
X119380000Y-133350000D03*
D10*
X124460000Y-133350000D03*
D12*
X121920000Y-128270000D03*
X115570000Y-130810000D03*
D10*
X247650000Y-152400000D03*
D11*
X252730000Y-152400000D03*
D10*
X257810000Y-152400000D03*
D12*
X255270000Y-147320000D03*
X248920000Y-149860000D03*
D10*
X95250000Y-114220000D03*
D11*
X100330000Y-114220000D03*
D10*
X105410000Y-114220000D03*
D12*
X102870000Y-109140000D03*
X96520000Y-111680000D03*
D10*
X133350000Y-114220000D03*
D11*
X138430000Y-114220000D03*
D10*
X143510000Y-114220000D03*
D12*
X140970000Y-109140000D03*
X134620000Y-111680000D03*
D10*
X76200000Y-152400000D03*
D11*
X81280000Y-152400000D03*
D10*
X86360000Y-152400000D03*
D12*
X83820000Y-147320000D03*
X77470000Y-149860000D03*
D15*
X91730000Y-77855000D03*
D10*
X94270000Y-77855000D03*
X91730000Y-80395000D03*
X94270000Y-80395000D03*
X91730000Y-82935000D03*
X94270000Y-82935000D03*
X95250000Y-133350000D03*
D11*
X100330000Y-133350000D03*
D10*
X105410000Y-133350000D03*
D12*
X102870000Y-128270000D03*
X96520000Y-130810000D03*
D10*
X114300000Y-114220000D03*
D11*
X119380000Y-114220000D03*
D10*
X124460000Y-114220000D03*
D12*
X121920000Y-109140000D03*
X115570000Y-111680000D03*
D14*
X243250000Y-143000000D03*
D10*
X133350000Y-95250000D03*
D11*
X138430000Y-95250000D03*
D10*
X143510000Y-95250000D03*
D12*
X140970000Y-90170000D03*
X134620000Y-92710000D03*
D10*
X171450000Y-114220000D03*
D11*
X176530000Y-114220000D03*
D10*
X181610000Y-114220000D03*
D12*
X179070000Y-109140000D03*
X172720000Y-111680000D03*
D14*
X90800000Y-104600000D03*
D10*
X171450000Y-152400000D03*
D11*
X176530000Y-152400000D03*
D10*
X181610000Y-152400000D03*
D12*
X179070000Y-147320000D03*
X172720000Y-149860000D03*
D10*
X152400000Y-95250000D03*
D11*
X157480000Y-95250000D03*
D10*
X162560000Y-95250000D03*
D12*
X160020000Y-90170000D03*
X153670000Y-92710000D03*
D14*
X90750000Y-142750000D03*
D10*
X152400000Y-133350000D03*
D11*
X157480000Y-133350000D03*
D10*
X162560000Y-133350000D03*
D12*
X160020000Y-128270000D03*
X153670000Y-130810000D03*
D16*
X86865000Y-84375000D03*
X84865000Y-84375000D03*
D10*
X228600000Y-152400000D03*
D11*
X233680000Y-152400000D03*
D10*
X238760000Y-152400000D03*
D12*
X236220000Y-147320000D03*
X229870000Y-149860000D03*
D10*
X247650000Y-95250000D03*
D11*
X252730000Y-95250000D03*
D10*
X257810000Y-95250000D03*
D12*
X255270000Y-90170000D03*
X248920000Y-92710000D03*
D10*
X171450000Y-95250000D03*
D11*
X176530000Y-95250000D03*
D10*
X181610000Y-95250000D03*
D12*
X179070000Y-90170000D03*
X172720000Y-92710000D03*
D16*
X86865000Y-79375000D03*
X84865000Y-79375000D03*
D14*
X243250000Y-104750000D03*
D10*
X114300000Y-152400000D03*
D11*
X119380000Y-152400000D03*
D10*
X124460000Y-152400000D03*
D12*
X121920000Y-147320000D03*
X115570000Y-149860000D03*
D17*
X84865000Y-81285000D03*
X86865000Y-81285000D03*
D18*
X79240000Y-77485000D03*
X79240000Y-83265000D03*
D19*
X80685000Y-77125000D03*
X80685000Y-77925000D03*
D20*
X80685000Y-79125000D03*
X80685000Y-80125000D03*
X80685000Y-80625000D03*
X80685000Y-81625000D03*
D19*
X80685000Y-82825000D03*
X80685000Y-83625000D03*
X80685000Y-83625000D03*
X80685000Y-82825000D03*
D20*
X80685000Y-82125000D03*
X80685000Y-81125000D03*
X80685000Y-79625000D03*
X80685000Y-78625000D03*
D19*
X80685000Y-77925000D03*
X80685000Y-77125000D03*
D21*
X79770000Y-76055000D03*
D22*
X75590000Y-76055000D03*
D21*
X79770000Y-84695000D03*
D22*
X75590000Y-84695000D03*
D10*
X76200000Y-114220000D03*
D11*
X81280000Y-114220000D03*
D10*
X86360000Y-114220000D03*
D12*
X83820000Y-109140000D03*
X77470000Y-111680000D03*
D10*
X95250000Y-152400000D03*
D11*
X100330000Y-152400000D03*
D10*
X105410000Y-152400000D03*
D12*
X102870000Y-147320000D03*
X96520000Y-149860000D03*
D10*
X133350000Y-152400000D03*
D11*
X138430000Y-152400000D03*
D10*
X143510000Y-152400000D03*
D12*
X140970000Y-147320000D03*
X134620000Y-149860000D03*
D10*
X209550000Y-133350000D03*
D11*
X214630000Y-133350000D03*
D10*
X219710000Y-133350000D03*
D12*
X217170000Y-128270000D03*
X210820000Y-130810000D03*
D16*
X86865000Y-76400000D03*
X84865000Y-76400000D03*
D23*
X104000000Y-79000000D03*
X104000000Y-80000000D03*
X103000000Y-80000000D03*
X103000000Y-79000000D03*
X94000000Y-86000000D03*
X94000000Y-87000000D03*
X93000000Y-87000000D03*
X93000000Y-86000000D03*
X127000000Y-128000000D03*
X126000000Y-128000000D03*
X125000000Y-128000000D03*
X135000000Y-97000000D03*
X187000000Y-96000000D03*
X187000000Y-95000000D03*
X187000000Y-94000000D03*
X187000000Y-93000000D03*
X187000000Y-92000000D03*
X150000000Y-94000000D03*
X150000000Y-95000000D03*
X150000000Y-93000000D03*
X150000000Y-92000000D03*
X150000000Y-91000000D03*
X125000000Y-118000000D03*
X125000000Y-119000000D03*
X125000000Y-120000000D03*
X124000000Y-120000000D03*
X124000000Y-119000000D03*
X124000000Y-118000000D03*
X101000000Y-118000000D03*
X101000000Y-119000000D03*
X101000000Y-120000000D03*
X100000000Y-120000000D03*
X100000000Y-119000000D03*
X100000000Y-118000000D03*
X118000000Y-92000000D03*
X119000000Y-92000000D03*
X101000000Y-92000000D03*
X100000000Y-92000000D03*
X99000000Y-92000000D03*
X105000000Y-93000000D03*
X105000000Y-92000000D03*
X114000000Y-90000000D03*
X113000000Y-90000000D03*
X112000000Y-90000000D03*
X111000000Y-90000000D03*
X108991332Y-104000000D03*
X110000000Y-105000000D03*
X111000000Y-104000000D03*
X110000000Y-103000000D03*
X113000000Y-104000000D03*
X112000000Y-105000000D03*
X111000000Y-106000000D03*
X110000000Y-107000000D03*
X108991332Y-106000000D03*
X108000000Y-105000000D03*
X112000000Y-103000000D03*
X111000000Y-102000000D03*
X110000000Y-101000000D03*
X109000000Y-102000000D03*
X107934314Y-103065686D03*
X107000000Y-104000000D03*
X97600000Y-102200000D03*
X128600000Y-123150000D03*
X120600000Y-105200000D03*
X127800000Y-123800000D03*
X121640520Y-105890670D03*
X83030870Y-79775000D03*
X83115000Y-82375000D03*
X130000000Y-128000000D03*
X112800000Y-117600000D03*
X111400000Y-124800000D03*
X131000000Y-122400000D03*
X82400000Y-83600000D03*
X118800000Y-108400000D03*
X107750000Y-114250000D03*
X106000000Y-98250000D03*
X99650000Y-100875000D03*
X82225761Y-77425761D03*
X102050000Y-104750000D03*
X111700000Y-92100000D03*
X109800000Y-152400000D03*
X112600000Y-112400000D03*
X110400000Y-134200000D03*
X113470000Y-111800000D03*
X94600000Y-93600000D03*
X90400000Y-97000000D03*
X107400000Y-89400000D03*
X118000000Y-89200000D03*
X101000000Y-89400000D03*
X125800000Y-92600000D03*
X82865000Y-78625000D03*
X82380870Y-81109130D03*
X97450000Y-81300000D03*
X91199479Y-89800521D03*
X91800521Y-89199479D03*
M02*
