M48
; DRILL file {KiCad 8.0.9-8.0.9-0~ubuntu22.04.1} date 2025-05-05T00:52:08+0800
; FORMAT={-:-/ absolute / inch / decimal}
; #@! TF.CreationDate,2025-05-05T00:52:08+08:00
; #@! TF.GenerationSoftware,Kicad,Pcbnew,8.0.9-8.0.9-0~ubuntu22.04.1
; #@! TF.FileFunction,Plated,1,2,PTH
FMAT,2
INCH
; #@! TA.AperFunction,Plated,PTH,ViaDrill
T1C0.0118
; #@! TA.AperFunction,Plated,PTH,ComponentDrill
T2C0.0236
; #@! TA.AperFunction,Plated,PTH,ComponentDrill
T3C0.0394
; #@! TA.AperFunction,Plated,PTH,ComponentDrill
T4C0.0591
%
G90
G05
T1
X3.2372Y-3.0483
X3.2433Y-3.1933
X3.2441Y-3.2913
X3.2624Y-3.0955
X3.2689Y-3.1407
X3.2722Y-3.2431
X3.5591Y-3.8189
X3.5905Y-3.5355
X3.6142Y-3.5118
X3.6614Y-3.3858
X3.6614Y-3.4252
X3.7008Y-3.3858
X3.7008Y-3.4252
X3.7244Y-3.685
X3.8366Y-3.2008
X3.8425Y-4.0236
X3.8976Y-3.622
X3.9232Y-3.9715
X3.937Y-3.622
X3.937Y-4.6457
X3.937Y-4.685
X3.937Y-4.7244
X3.9764Y-3.5197
X3.9764Y-3.622
X3.9764Y-4.6457
X3.9764Y-4.685
X3.9764Y-4.7244
X4.0177Y-4.124
X4.0551Y-3.1102
X4.0551Y-3.1496
X4.0945Y-3.1102
X4.0945Y-3.1496
X4.1339Y-3.622
X4.1339Y-3.6614
X4.1732Y-3.8681
X4.2126Y-4.0945
X4.2283Y-3.5197
X4.2421Y-4.498
X4.2494Y-4.0577
X4.252Y-4.1339
X4.291Y-4.0945
X4.291Y-4.1732
X4.2913Y-4.0157
X4.3228Y-6.0
X4.3307Y-3.9764
X4.3307Y-4.0551
X4.3307Y-4.1339
X4.3307Y-4.2126
X4.3465Y-5.2835
X4.3701Y-3.5433
X4.3701Y-4.0157
X4.3701Y-4.0945
X4.3701Y-4.1732
X4.3858Y-4.9134
X4.3976Y-3.626
X4.4094Y-3.5433
X4.4094Y-4.0551
X4.4094Y-4.1339
X4.4331Y-4.4252
X4.4409Y-4.6299
X4.4488Y-3.5433
X4.4488Y-4.0945
X4.4673Y-4.4016
X4.4882Y-3.5433
X4.6457Y-3.5118
X4.6457Y-3.622
X4.6772Y-4.2677
X4.685Y-3.622
X4.748Y-4.1417
X4.789Y-4.1689
X4.8819Y-4.6457
X4.8819Y-4.685
X4.8819Y-4.7244
X4.9213Y-4.6457
X4.9213Y-4.685
X4.9213Y-4.7244
X4.9213Y-5.0394
X4.9528Y-3.6457
X4.9606Y-5.0394
X5.0Y-5.0394
X5.0315Y-4.874
X5.063Y-4.8484
X5.1181Y-5.0394
X5.1575Y-4.8189
X5.315Y-3.8189
X5.9055Y-3.5827
X5.9055Y-3.622
X5.9055Y-3.6614
X5.9055Y-3.7008
X5.9055Y-3.7402
X7.3622Y-3.622
X7.3622Y-3.6614
X7.3622Y-3.7008
X7.3622Y-3.7402
X7.3622Y-3.7795
T3
X3.6114Y-3.0652
X3.6114Y-3.1652
X3.6114Y-3.2652
X3.7114Y-3.0652
X3.7114Y-3.1652
X3.7114Y-3.2652
T4
X3.05Y-3.65
X3.05Y-4.3969
X3.05Y-5.15
X3.05Y-5.9
X3.3Y-3.55
X3.3Y-4.2969
X3.3Y-5.05
X3.3Y-5.8
X3.8Y-3.65
X3.8Y-4.3969
X3.8Y-5.15
X3.8Y-5.9
X4.05Y-3.55
X4.05Y-4.2969
X4.05Y-5.05
X4.05Y-5.8
X4.55Y-3.65
X4.55Y-4.3969
X4.55Y-5.15
X4.55Y-5.9
X4.8Y-3.55
X4.8Y-4.2969
X4.8Y-5.05
X4.8Y-5.8
X5.3Y-3.65
X5.3Y-4.3969
X5.3Y-5.15
X5.3Y-5.9
X5.55Y-3.55
X5.55Y-4.2969
X5.55Y-5.05
X5.55Y-5.8
X6.05Y-3.65
X6.05Y-4.3969
X6.05Y-5.15
X6.05Y-5.9
X6.3Y-3.55
X6.3Y-4.2969
X6.3Y-5.05
X6.3Y-5.8
X6.8Y-3.65
X6.8Y-4.3969
X6.8Y-5.15
X6.8Y-5.9
X7.05Y-3.55
X7.05Y-4.2969
X7.05Y-5.05
X7.05Y-5.8
X7.55Y-3.65
X7.55Y-4.3969
X7.55Y-5.15
X7.55Y-5.9
X7.8Y-3.55
X7.8Y-4.2969
X7.8Y-5.05
X7.8Y-5.8
X8.3Y-3.65
X8.3Y-4.3969
X8.3Y-5.15
X8.3Y-5.9
X8.55Y-3.55
X8.55Y-4.2969
X8.55Y-5.05
X8.55Y-5.8
X9.05Y-3.65
X9.05Y-4.3969
X9.05Y-5.15
X9.05Y-5.9
X9.3Y-3.55
X9.3Y-4.2969
X9.3Y-5.05
X9.3Y-5.8
X9.8Y-3.65
X9.8Y-4.3969
X9.8Y-5.15
X9.8Y-5.9
X10.05Y-3.55
X10.05Y-4.2969
X10.05Y-5.05
X10.05Y-5.8
T2
G00X2.9878Y-2.9943
M15
G01X2.9642Y-2.9943
M16
G05
G00X2.9878Y-3.3344
M15
G01X2.9642Y-3.3344
M16
G05
G00X3.1622Y-2.9943
M15
G01X3.1189Y-2.9943
M16
G05
G00X3.1622Y-3.3344
M15
G01X3.1189Y-3.3344
M16
G05
M30
