%TF.GenerationSoftware,KiCad,Pcbnew,8.0.9-8.0.9-0~ubuntu22.04.1*%
%TF.CreationDate,2025-05-05T00:52:08+08:00*%
%TF.ProjectId,macropad,6d616372-6f70-4616-942e-6b696361645f,rev?*%
%TF.SameCoordinates,Original*%
%TF.FileFunction,Drillmap*%
%TF.FilePolarity,Positive*%
%FSLAX45Y45*%
G04 Gerber Fmt 4.5, Leading zero omitted, Abs format (unit mm)*
G04 Created by KiCad (PCBNEW 8.0.9-8.0.9-0~ubuntu22.04.1) date 2025-05-05 00:52:08*
%MOMM*%
%LPD*%
G01*
G04 APERTURE LIST*
%ADD10C,0.050000*%
%ADD11C,0.200000*%
%ADD12C,0.100000*%
%ADD13C,0.150000*%
G04 APERTURE END LIST*
D10*
X7420000Y-8820000D02*
X7420000Y-15860000D01*
X7420000Y-8820000D02*
X7420000Y-8600000D01*
X25980000Y-15860000D02*
X7420000Y-15860000D01*
X10700000Y-8800000D02*
X25980000Y-8800000D01*
X10700000Y-7500000D02*
X10700000Y-8800000D01*
X7420000Y-8600000D02*
X7420000Y-7500000D01*
X25980000Y-8800000D02*
X25980000Y-15860000D01*
X7420000Y-7500000D02*
X10700000Y-7500000D01*
D11*
D12*
X8207576Y-7727576D02*
X8237576Y-7757576D01*
X8237576Y-7727576D02*
X8207576Y-7757576D01*
X8223087Y-8095913D02*
X8253087Y-8125913D01*
X8253087Y-8095913D02*
X8223087Y-8125913D01*
X8225000Y-8345000D02*
X8255000Y-8375000D01*
X8255000Y-8345000D02*
X8225000Y-8375000D01*
X8271500Y-7847500D02*
X8301500Y-7877500D01*
X8301500Y-7847500D02*
X8271500Y-7877500D01*
X8288087Y-7962500D02*
X8318087Y-7992500D01*
X8318087Y-7962500D02*
X8288087Y-7992500D01*
X8296500Y-8222500D02*
X8326500Y-8252500D01*
X8326500Y-8222500D02*
X8296500Y-8252500D01*
X9025000Y-9685000D02*
X9055000Y-9715000D01*
X9055000Y-9685000D02*
X9025000Y-9715000D01*
X9104948Y-8965052D02*
X9134948Y-8995052D01*
X9134948Y-8965052D02*
X9104948Y-8995052D01*
X9165052Y-8904948D02*
X9195052Y-8934948D01*
X9195052Y-8904948D02*
X9165052Y-8934948D01*
X9285000Y-8585000D02*
X9315000Y-8615000D01*
X9315000Y-8585000D02*
X9285000Y-8615000D01*
X9285000Y-8685000D02*
X9315000Y-8715000D01*
X9315000Y-8685000D02*
X9285000Y-8715000D01*
X9385000Y-8585000D02*
X9415000Y-8615000D01*
X9415000Y-8585000D02*
X9385000Y-8615000D01*
X9385000Y-8685000D02*
X9415000Y-8715000D01*
X9415000Y-8685000D02*
X9385000Y-8715000D01*
X9445000Y-9345000D02*
X9475000Y-9375000D01*
X9475000Y-9345000D02*
X9445000Y-9375000D01*
X9730000Y-8115000D02*
X9760000Y-8145000D01*
X9760000Y-8115000D02*
X9730000Y-8145000D01*
X9745000Y-10205000D02*
X9775000Y-10235000D01*
X9775000Y-10205000D02*
X9745000Y-10235000D01*
X9885000Y-9185000D02*
X9915000Y-9215000D01*
X9915000Y-9185000D02*
X9885000Y-9215000D01*
X9950000Y-10072500D02*
X9980000Y-10102500D01*
X9980000Y-10072500D02*
X9950000Y-10102500D01*
X9985000Y-9185000D02*
X10015000Y-9215000D01*
X10015000Y-9185000D02*
X9985000Y-9215000D01*
X9985000Y-11785000D02*
X10015000Y-11815000D01*
X10015000Y-11785000D02*
X9985000Y-11815000D01*
X9985000Y-11885000D02*
X10015000Y-11915000D01*
X10015000Y-11885000D02*
X9985000Y-11915000D01*
X9985000Y-11985000D02*
X10015000Y-12015000D01*
X10015000Y-11985000D02*
X9985000Y-12015000D01*
X10085000Y-8925000D02*
X10115000Y-8955000D01*
X10115000Y-8925000D02*
X10085000Y-8955000D01*
X10085000Y-9185000D02*
X10115000Y-9215000D01*
X10115000Y-9185000D02*
X10085000Y-9215000D01*
X10085000Y-11785000D02*
X10115000Y-11815000D01*
X10115000Y-11785000D02*
X10085000Y-11815000D01*
X10085000Y-11885000D02*
X10115000Y-11915000D01*
X10115000Y-11885000D02*
X10085000Y-11915000D01*
X10085000Y-11985000D02*
X10115000Y-12015000D01*
X10115000Y-11985000D02*
X10085000Y-12015000D01*
X10190000Y-10460000D02*
X10220000Y-10490000D01*
X10220000Y-10460000D02*
X10190000Y-10490000D01*
X10285000Y-7885000D02*
X10315000Y-7915000D01*
X10315000Y-7885000D02*
X10285000Y-7915000D01*
X10285000Y-7985000D02*
X10315000Y-8015000D01*
X10315000Y-7985000D02*
X10285000Y-8015000D01*
X10385000Y-7885000D02*
X10415000Y-7915000D01*
X10415000Y-7885000D02*
X10385000Y-7915000D01*
X10385000Y-7985000D02*
X10415000Y-8015000D01*
X10415000Y-7985000D02*
X10385000Y-8015000D01*
X10485000Y-9185000D02*
X10515000Y-9215000D01*
X10515000Y-9185000D02*
X10485000Y-9215000D01*
X10485000Y-9285000D02*
X10515000Y-9315000D01*
X10515000Y-9285000D02*
X10485000Y-9315000D01*
X10585000Y-9810000D02*
X10615000Y-9840000D01*
X10615000Y-9810000D02*
X10585000Y-9840000D01*
X10685000Y-10385000D02*
X10715000Y-10415000D01*
X10715000Y-10385000D02*
X10685000Y-10415000D01*
X10725000Y-8925000D02*
X10755000Y-8955000D01*
X10755000Y-8925000D02*
X10725000Y-8955000D01*
X10760000Y-11410000D02*
X10790000Y-11440000D01*
X10790000Y-11410000D02*
X10760000Y-11440000D01*
X10778431Y-10291569D02*
X10808431Y-10321569D01*
X10808431Y-10291569D02*
X10778431Y-10321569D01*
X10785000Y-10485000D02*
X10815000Y-10515000D01*
X10815000Y-10485000D02*
X10785000Y-10515000D01*
X10884133Y-10385000D02*
X10914133Y-10415000D01*
X10914133Y-10385000D02*
X10884133Y-10415000D01*
X10884133Y-10585000D02*
X10914133Y-10615000D01*
X10914133Y-10585000D02*
X10884133Y-10615000D01*
X10885000Y-10185000D02*
X10915000Y-10215000D01*
X10915000Y-10185000D02*
X10885000Y-10215000D01*
X10965000Y-15225000D02*
X10995000Y-15255000D01*
X10995000Y-15225000D02*
X10965000Y-15255000D01*
X10985000Y-10085000D02*
X11015000Y-10115000D01*
X11015000Y-10085000D02*
X10985000Y-10115000D01*
X10985000Y-10285000D02*
X11015000Y-10315000D01*
X11015000Y-10285000D02*
X10985000Y-10315000D01*
X10985000Y-10485000D02*
X11015000Y-10515000D01*
X11015000Y-10485000D02*
X10985000Y-10515000D01*
X10985000Y-10685000D02*
X11015000Y-10715000D01*
X11015000Y-10685000D02*
X10985000Y-10715000D01*
X11025000Y-13405000D02*
X11055000Y-13435000D01*
X11055000Y-13405000D02*
X11025000Y-13435000D01*
X11085000Y-8985000D02*
X11115000Y-9015000D01*
X11115000Y-8985000D02*
X11085000Y-9015000D01*
X11085000Y-10185000D02*
X11115000Y-10215000D01*
X11115000Y-10185000D02*
X11085000Y-10215000D01*
X11085000Y-10385000D02*
X11115000Y-10415000D01*
X11115000Y-10385000D02*
X11085000Y-10415000D01*
X11085000Y-10585000D02*
X11115000Y-10615000D01*
X11115000Y-10585000D02*
X11085000Y-10615000D01*
X11125000Y-12465000D02*
X11155000Y-12495000D01*
X11155000Y-12465000D02*
X11125000Y-12495000D01*
X11155000Y-9195000D02*
X11185000Y-9225000D01*
X11185000Y-9195000D02*
X11155000Y-9225000D01*
X11185000Y-8985000D02*
X11215000Y-9015000D01*
X11215000Y-8985000D02*
X11185000Y-9015000D01*
X11185000Y-10285000D02*
X11215000Y-10315000D01*
X11215000Y-10285000D02*
X11185000Y-10315000D01*
X11185000Y-10485000D02*
X11215000Y-10515000D01*
X11215000Y-10485000D02*
X11185000Y-10515000D01*
X11245000Y-11225000D02*
X11275000Y-11255000D01*
X11275000Y-11225000D02*
X11245000Y-11255000D01*
X11265000Y-11745000D02*
X11295000Y-11775000D01*
X11295000Y-11745000D02*
X11265000Y-11775000D01*
X11285000Y-8985000D02*
X11315000Y-9015000D01*
X11315000Y-8985000D02*
X11285000Y-9015000D01*
X11285000Y-10385000D02*
X11315000Y-10415000D01*
X11315000Y-10385000D02*
X11285000Y-10415000D01*
X11332000Y-11165000D02*
X11362000Y-11195000D01*
X11362000Y-11165000D02*
X11332000Y-11195000D01*
X11385000Y-8985000D02*
X11415000Y-9015000D01*
X11415000Y-8985000D02*
X11385000Y-9015000D01*
X11785000Y-8905000D02*
X11815000Y-8935000D01*
X11815000Y-8905000D02*
X11785000Y-8935000D01*
X11785000Y-9185000D02*
X11815000Y-9215000D01*
X11815000Y-9185000D02*
X11785000Y-9215000D01*
X11865000Y-10825000D02*
X11895000Y-10855000D01*
X11895000Y-10825000D02*
X11865000Y-10855000D01*
X11885000Y-9185000D02*
X11915000Y-9215000D01*
X11915000Y-9185000D02*
X11885000Y-9215000D01*
X12045000Y-10505000D02*
X12075000Y-10535000D01*
X12075000Y-10505000D02*
X12045000Y-10535000D01*
X12149052Y-10574067D02*
X12179052Y-10604067D01*
X12179052Y-10574067D02*
X12149052Y-10604067D01*
X12385000Y-11785000D02*
X12415000Y-11815000D01*
X12415000Y-11785000D02*
X12385000Y-11815000D01*
X12385000Y-11885000D02*
X12415000Y-11915000D01*
X12415000Y-11885000D02*
X12385000Y-11915000D01*
X12385000Y-11985000D02*
X12415000Y-12015000D01*
X12415000Y-11985000D02*
X12385000Y-12015000D01*
X12485000Y-11785000D02*
X12515000Y-11815000D01*
X12515000Y-11785000D02*
X12485000Y-11815000D01*
X12485000Y-11885000D02*
X12515000Y-11915000D01*
X12515000Y-11885000D02*
X12485000Y-11915000D01*
X12485000Y-11985000D02*
X12515000Y-12015000D01*
X12515000Y-11985000D02*
X12485000Y-12015000D01*
X12485000Y-12785000D02*
X12515000Y-12815000D01*
X12515000Y-12785000D02*
X12485000Y-12815000D01*
X12565000Y-9245000D02*
X12595000Y-9275000D01*
X12595000Y-9245000D02*
X12565000Y-9275000D01*
X12585000Y-12785000D02*
X12615000Y-12815000D01*
X12615000Y-12785000D02*
X12585000Y-12815000D01*
X12685000Y-12785000D02*
X12715000Y-12815000D01*
X12715000Y-12785000D02*
X12685000Y-12815000D01*
X12765000Y-12365000D02*
X12795000Y-12395000D01*
X12795000Y-12365000D02*
X12765000Y-12395000D01*
X12845000Y-12300000D02*
X12875000Y-12330000D01*
X12875000Y-12300000D02*
X12845000Y-12330000D01*
X12985000Y-12785000D02*
X13015000Y-12815000D01*
X13015000Y-12785000D02*
X12985000Y-12815000D01*
X13085000Y-12225000D02*
X13115000Y-12255000D01*
X13115000Y-12225000D02*
X13085000Y-12255000D01*
X13485000Y-9685000D02*
X13515000Y-9715000D01*
X13515000Y-9685000D02*
X13485000Y-9715000D01*
X14985000Y-9085000D02*
X15015000Y-9115000D01*
X15015000Y-9085000D02*
X14985000Y-9115000D01*
X14985000Y-9185000D02*
X15015000Y-9215000D01*
X15015000Y-9185000D02*
X14985000Y-9215000D01*
X14985000Y-9285000D02*
X15015000Y-9315000D01*
X15015000Y-9285000D02*
X14985000Y-9315000D01*
X14985000Y-9385000D02*
X15015000Y-9415000D01*
X15015000Y-9385000D02*
X14985000Y-9415000D01*
X14985000Y-9485000D02*
X15015000Y-9515000D01*
X15015000Y-9485000D02*
X14985000Y-9515000D01*
X18685000Y-9185000D02*
X18715000Y-9215000D01*
X18715000Y-9185000D02*
X18685000Y-9215000D01*
X18685000Y-9285000D02*
X18715000Y-9315000D01*
X18715000Y-9285000D02*
X18685000Y-9315000D01*
X18685000Y-9385000D02*
X18715000Y-9415000D01*
X18715000Y-9385000D02*
X18685000Y-9415000D01*
X18685000Y-9485000D02*
X18715000Y-9515000D01*
X18715000Y-9485000D02*
X18685000Y-9515000D01*
X18685000Y-9585000D02*
X18715000Y-9615000D01*
X18715000Y-9585000D02*
X18685000Y-9615000D01*
X7589000Y-7605500D02*
G75*
G02*
X7529000Y-7605500I-30000J0D01*
G01*
X7529000Y-7605500D02*
G75*
G02*
X7589000Y-7605500I30000J0D01*
G01*
X7589000Y-7575500D02*
X7529000Y-7575500D01*
X7529000Y-7635500D02*
G75*
G02*
X7529000Y-7575500I0J30000D01*
G01*
X7529000Y-7635500D02*
X7589000Y-7635500D01*
X7589000Y-7635500D02*
G75*
G03*
X7589000Y-7575500I0J30000D01*
G01*
X7589000Y-8469500D02*
G75*
G02*
X7529000Y-8469500I-30000J0D01*
G01*
X7529000Y-8469500D02*
G75*
G02*
X7589000Y-8469500I30000J0D01*
G01*
X7589000Y-8439500D02*
X7529000Y-8439500D01*
X7529000Y-8499500D02*
G75*
G02*
X7529000Y-8439500I0J30000D01*
G01*
X7529000Y-8499500D02*
X7589000Y-8499500D01*
X7589000Y-8499500D02*
G75*
G03*
X7589000Y-8439500I0J30000D01*
G01*
X8007000Y-7605500D02*
G75*
G02*
X7947000Y-7605500I-30000J0D01*
G01*
X7947000Y-7605500D02*
G75*
G02*
X8007000Y-7605500I30000J0D01*
G01*
X8032000Y-7575500D02*
X7922000Y-7575500D01*
X7922000Y-7635500D02*
G75*
G02*
X7922000Y-7575500I0J30000D01*
G01*
X7922000Y-7635500D02*
X8032000Y-7635500D01*
X8032000Y-7635500D02*
G75*
G03*
X8032000Y-7575500I0J30000D01*
G01*
X8007000Y-8469500D02*
G75*
G02*
X7947000Y-8469500I-30000J0D01*
G01*
X7947000Y-8469500D02*
G75*
G02*
X8007000Y-8469500I30000J0D01*
G01*
X8032000Y-8439500D02*
X7922000Y-8439500D01*
X7922000Y-8499500D02*
G75*
G02*
X7922000Y-8439500I0J30000D01*
G01*
X7922000Y-8499500D02*
X8032000Y-8499500D01*
X8032000Y-8499500D02*
G75*
G03*
X8032000Y-8439500I0J30000D01*
G01*
X9173000Y-7735500D02*
X9173000Y-7835500D01*
X9123000Y-7785500D02*
X9223000Y-7785500D01*
X9173000Y-7989500D02*
X9173000Y-8089500D01*
X9123000Y-8039500D02*
X9223000Y-8039500D01*
X9173000Y-8243500D02*
X9173000Y-8343500D01*
X9123000Y-8293500D02*
X9223000Y-8293500D01*
X9427000Y-7735500D02*
X9427000Y-7835500D01*
X9377000Y-7785500D02*
X9477000Y-7785500D01*
X9427000Y-7989500D02*
X9427000Y-8089500D01*
X9377000Y-8039500D02*
X9477000Y-8039500D01*
X9427000Y-8243500D02*
X9427000Y-8343500D01*
X9377000Y-8293500D02*
X9477000Y-8293500D01*
D13*
X7800033Y-9324034D02*
X7800033Y-9217967D01*
X7693966Y-9217967D01*
X7693966Y-9324034D01*
X7800033Y-9324034D01*
X7800033Y-11221033D02*
X7800033Y-11114967D01*
X7693966Y-11114967D01*
X7693966Y-11221033D01*
X7800033Y-11221033D01*
X7800033Y-13134033D02*
X7800033Y-13027966D01*
X7693966Y-13027966D01*
X7693966Y-13134033D01*
X7800033Y-13134033D01*
X7800033Y-15039033D02*
X7800033Y-14932966D01*
X7693966Y-14932966D01*
X7693966Y-15039033D01*
X7800033Y-15039033D01*
X8435034Y-9070034D02*
X8435034Y-8963967D01*
X8328966Y-8963967D01*
X8328966Y-9070034D01*
X8435034Y-9070034D01*
X8435034Y-10967034D02*
X8435034Y-10860967D01*
X8328966Y-10860967D01*
X8328966Y-10967034D01*
X8435034Y-10967034D01*
X8435034Y-12880033D02*
X8435034Y-12773966D01*
X8328966Y-12773966D01*
X8328966Y-12880033D01*
X8435034Y-12880033D01*
X8435034Y-14785033D02*
X8435034Y-14678966D01*
X8328966Y-14678966D01*
X8328966Y-14785033D01*
X8435034Y-14785033D01*
X9705034Y-9324034D02*
X9705034Y-9217967D01*
X9598967Y-9217967D01*
X9598967Y-9324034D01*
X9705034Y-9324034D01*
X9705034Y-11221033D02*
X9705034Y-11114967D01*
X9598967Y-11114967D01*
X9598967Y-11221033D01*
X9705034Y-11221033D01*
X9705034Y-13134033D02*
X9705034Y-13027966D01*
X9598967Y-13027966D01*
X9598967Y-13134033D01*
X9705034Y-13134033D01*
X9705034Y-15039033D02*
X9705034Y-14932966D01*
X9598967Y-14932966D01*
X9598967Y-15039033D01*
X9705034Y-15039033D01*
X10340034Y-9070034D02*
X10340034Y-8963967D01*
X10233967Y-8963967D01*
X10233967Y-9070034D01*
X10340034Y-9070034D01*
X10340034Y-10967034D02*
X10340034Y-10860967D01*
X10233967Y-10860967D01*
X10233967Y-10967034D01*
X10340034Y-10967034D01*
X10340034Y-12880033D02*
X10340034Y-12773966D01*
X10233967Y-12773966D01*
X10233967Y-12880033D01*
X10340034Y-12880033D01*
X10340034Y-14785033D02*
X10340034Y-14678966D01*
X10233967Y-14678966D01*
X10233967Y-14785033D01*
X10340034Y-14785033D01*
X11610033Y-9324034D02*
X11610033Y-9217967D01*
X11503966Y-9217967D01*
X11503966Y-9324034D01*
X11610033Y-9324034D01*
X11610033Y-11221033D02*
X11610033Y-11114967D01*
X11503966Y-11114967D01*
X11503966Y-11221033D01*
X11610033Y-11221033D01*
X11610033Y-13134033D02*
X11610033Y-13027966D01*
X11503966Y-13027966D01*
X11503966Y-13134033D01*
X11610033Y-13134033D01*
X11610033Y-15039033D02*
X11610033Y-14932966D01*
X11503966Y-14932966D01*
X11503966Y-15039033D01*
X11610033Y-15039033D01*
X12245033Y-9070034D02*
X12245033Y-8963967D01*
X12138966Y-8963967D01*
X12138966Y-9070034D01*
X12245033Y-9070034D01*
X12245033Y-10967034D02*
X12245033Y-10860967D01*
X12138966Y-10860967D01*
X12138966Y-10967034D01*
X12245033Y-10967034D01*
X12245033Y-12880033D02*
X12245033Y-12773966D01*
X12138966Y-12773966D01*
X12138966Y-12880033D01*
X12245033Y-12880033D01*
X12245033Y-14785033D02*
X12245033Y-14678966D01*
X12138966Y-14678966D01*
X12138966Y-14785033D01*
X12245033Y-14785033D01*
X13515033Y-9324034D02*
X13515033Y-9217967D01*
X13408966Y-9217967D01*
X13408966Y-9324034D01*
X13515033Y-9324034D01*
X13515033Y-11221033D02*
X13515033Y-11114967D01*
X13408966Y-11114967D01*
X13408966Y-11221033D01*
X13515033Y-11221033D01*
X13515033Y-13134033D02*
X13515033Y-13027966D01*
X13408966Y-13027966D01*
X13408966Y-13134033D01*
X13515033Y-13134033D01*
X13515033Y-15039033D02*
X13515033Y-14932966D01*
X13408966Y-14932966D01*
X13408966Y-15039033D01*
X13515033Y-15039033D01*
X14150033Y-9070034D02*
X14150033Y-8963967D01*
X14043966Y-8963967D01*
X14043966Y-9070034D01*
X14150033Y-9070034D01*
X14150033Y-10967034D02*
X14150033Y-10860967D01*
X14043966Y-10860967D01*
X14043966Y-10967034D01*
X14150033Y-10967034D01*
X14150033Y-12880033D02*
X14150033Y-12773966D01*
X14043966Y-12773966D01*
X14043966Y-12880033D01*
X14150033Y-12880033D01*
X14150033Y-14785033D02*
X14150033Y-14678966D01*
X14043966Y-14678966D01*
X14043966Y-14785033D01*
X14150033Y-14785033D01*
X15420033Y-9324034D02*
X15420033Y-9217967D01*
X15313966Y-9217967D01*
X15313966Y-9324034D01*
X15420033Y-9324034D01*
X15420033Y-11221033D02*
X15420033Y-11114967D01*
X15313966Y-11114967D01*
X15313966Y-11221033D01*
X15420033Y-11221033D01*
X15420033Y-13134033D02*
X15420033Y-13027966D01*
X15313966Y-13027966D01*
X15313966Y-13134033D01*
X15420033Y-13134033D01*
X15420033Y-15039033D02*
X15420033Y-14932966D01*
X15313966Y-14932966D01*
X15313966Y-15039033D01*
X15420033Y-15039033D01*
X16055033Y-9070034D02*
X16055033Y-8963967D01*
X15948966Y-8963967D01*
X15948966Y-9070034D01*
X16055033Y-9070034D01*
X16055033Y-10967034D02*
X16055033Y-10860967D01*
X15948966Y-10860967D01*
X15948966Y-10967034D01*
X16055033Y-10967034D01*
X16055033Y-12880033D02*
X16055033Y-12773966D01*
X15948966Y-12773966D01*
X15948966Y-12880033D01*
X16055033Y-12880033D01*
X16055033Y-14785033D02*
X16055033Y-14678966D01*
X15948966Y-14678966D01*
X15948966Y-14785033D01*
X16055033Y-14785033D01*
X17325034Y-9324034D02*
X17325034Y-9217967D01*
X17218967Y-9217967D01*
X17218967Y-9324034D01*
X17325034Y-9324034D01*
X17325034Y-11221033D02*
X17325034Y-11114967D01*
X17218967Y-11114967D01*
X17218967Y-11221033D01*
X17325034Y-11221033D01*
X17325034Y-13134033D02*
X17325034Y-13027966D01*
X17218967Y-13027966D01*
X17218967Y-13134033D01*
X17325034Y-13134033D01*
X17325034Y-15039033D02*
X17325034Y-14932966D01*
X17218967Y-14932966D01*
X17218967Y-15039033D01*
X17325034Y-15039033D01*
X17960034Y-9070034D02*
X17960034Y-8963967D01*
X17853967Y-8963967D01*
X17853967Y-9070034D01*
X17960034Y-9070034D01*
X17960034Y-10967034D02*
X17960034Y-10860967D01*
X17853967Y-10860967D01*
X17853967Y-10967034D01*
X17960034Y-10967034D01*
X17960034Y-12880033D02*
X17960034Y-12773966D01*
X17853967Y-12773966D01*
X17853967Y-12880033D01*
X17960034Y-12880033D01*
X17960034Y-14785033D02*
X17960034Y-14678966D01*
X17853967Y-14678966D01*
X17853967Y-14785033D01*
X17960034Y-14785033D01*
X19230034Y-9324034D02*
X19230034Y-9217967D01*
X19123967Y-9217967D01*
X19123967Y-9324034D01*
X19230034Y-9324034D01*
X19230034Y-11221033D02*
X19230034Y-11114967D01*
X19123967Y-11114967D01*
X19123967Y-11221033D01*
X19230034Y-11221033D01*
X19230034Y-13134033D02*
X19230034Y-13027966D01*
X19123967Y-13027966D01*
X19123967Y-13134033D01*
X19230034Y-13134033D01*
X19230034Y-15039033D02*
X19230034Y-14932966D01*
X19123967Y-14932966D01*
X19123967Y-15039033D01*
X19230034Y-15039033D01*
X19865034Y-9070034D02*
X19865034Y-8963967D01*
X19758967Y-8963967D01*
X19758967Y-9070034D01*
X19865034Y-9070034D01*
X19865034Y-10967034D02*
X19865034Y-10860967D01*
X19758967Y-10860967D01*
X19758967Y-10967034D01*
X19865034Y-10967034D01*
X19865034Y-12880033D02*
X19865034Y-12773966D01*
X19758967Y-12773966D01*
X19758967Y-12880033D01*
X19865034Y-12880033D01*
X19865034Y-14785033D02*
X19865034Y-14678966D01*
X19758967Y-14678966D01*
X19758967Y-14785033D01*
X19865034Y-14785033D01*
X21135034Y-9324034D02*
X21135034Y-9217967D01*
X21028967Y-9217967D01*
X21028967Y-9324034D01*
X21135034Y-9324034D01*
X21135034Y-11221033D02*
X21135034Y-11114967D01*
X21028967Y-11114967D01*
X21028967Y-11221033D01*
X21135034Y-11221033D01*
X21135034Y-13134033D02*
X21135034Y-13027966D01*
X21028967Y-13027966D01*
X21028967Y-13134033D01*
X21135034Y-13134033D01*
X21135034Y-15039033D02*
X21135034Y-14932966D01*
X21028967Y-14932966D01*
X21028967Y-15039033D01*
X21135034Y-15039033D01*
X21770034Y-9070034D02*
X21770034Y-8963967D01*
X21663967Y-8963967D01*
X21663967Y-9070034D01*
X21770034Y-9070034D01*
X21770034Y-10967034D02*
X21770034Y-10860967D01*
X21663967Y-10860967D01*
X21663967Y-10967034D01*
X21770034Y-10967034D01*
X21770034Y-12880033D02*
X21770034Y-12773966D01*
X21663967Y-12773966D01*
X21663967Y-12880033D01*
X21770034Y-12880033D01*
X21770034Y-14785033D02*
X21770034Y-14678966D01*
X21663967Y-14678966D01*
X21663967Y-14785033D01*
X21770034Y-14785033D01*
X23040033Y-9324034D02*
X23040033Y-9217967D01*
X22933966Y-9217967D01*
X22933966Y-9324034D01*
X23040033Y-9324034D01*
X23040033Y-11221033D02*
X23040033Y-11114967D01*
X22933966Y-11114967D01*
X22933966Y-11221033D01*
X23040033Y-11221033D01*
X23040033Y-13134033D02*
X23040033Y-13027966D01*
X22933966Y-13027966D01*
X22933966Y-13134033D01*
X23040033Y-13134033D01*
X23040033Y-15039033D02*
X23040033Y-14932966D01*
X22933966Y-14932966D01*
X22933966Y-15039033D01*
X23040033Y-15039033D01*
X23675033Y-9070034D02*
X23675033Y-8963967D01*
X23568966Y-8963967D01*
X23568966Y-9070034D01*
X23675033Y-9070034D01*
X23675033Y-10967034D02*
X23675033Y-10860967D01*
X23568966Y-10860967D01*
X23568966Y-10967034D01*
X23675033Y-10967034D01*
X23675033Y-12880033D02*
X23675033Y-12773966D01*
X23568966Y-12773966D01*
X23568966Y-12880033D01*
X23675033Y-12880033D01*
X23675033Y-14785033D02*
X23675033Y-14678966D01*
X23568966Y-14678966D01*
X23568966Y-14785033D01*
X23675033Y-14785033D01*
X24945033Y-9324034D02*
X24945033Y-9217967D01*
X24838966Y-9217967D01*
X24838966Y-9324034D01*
X24945033Y-9324034D01*
X24945033Y-11221033D02*
X24945033Y-11114967D01*
X24838966Y-11114967D01*
X24838966Y-11221033D01*
X24945033Y-11221033D01*
X24945033Y-13134033D02*
X24945033Y-13027966D01*
X24838966Y-13027966D01*
X24838966Y-13134033D01*
X24945033Y-13134033D01*
X24945033Y-15039033D02*
X24945033Y-14932966D01*
X24838966Y-14932966D01*
X24838966Y-15039033D01*
X24945033Y-15039033D01*
X25580033Y-9070034D02*
X25580033Y-8963967D01*
X25473966Y-8963967D01*
X25473966Y-9070034D01*
X25580033Y-9070034D01*
X25580033Y-10967034D02*
X25580033Y-10860967D01*
X25473966Y-10860967D01*
X25473966Y-10967034D01*
X25580033Y-10967034D01*
X25580033Y-12880033D02*
X25580033Y-12773966D01*
X25473966Y-12773966D01*
X25473966Y-12880033D01*
X25580033Y-12880033D01*
X25580033Y-14785033D02*
X25580033Y-14678966D01*
X25473966Y-14678966D01*
X25473966Y-14785033D01*
X25580033Y-14785033D01*
D11*
X7678277Y-16173984D02*
X7678277Y-15973984D01*
X7678277Y-15973984D02*
X7725896Y-15973984D01*
X7725896Y-15973984D02*
X7754467Y-15983508D01*
X7754467Y-15983508D02*
X7773515Y-16002555D01*
X7773515Y-16002555D02*
X7783039Y-16021603D01*
X7783039Y-16021603D02*
X7792562Y-16059698D01*
X7792562Y-16059698D02*
X7792562Y-16088269D01*
X7792562Y-16088269D02*
X7783039Y-16126365D01*
X7783039Y-16126365D02*
X7773515Y-16145412D01*
X7773515Y-16145412D02*
X7754467Y-16164460D01*
X7754467Y-16164460D02*
X7725896Y-16173984D01*
X7725896Y-16173984D02*
X7678277Y-16173984D01*
X7878277Y-16173984D02*
X7878277Y-16040650D01*
X7878277Y-16078746D02*
X7887801Y-16059698D01*
X7887801Y-16059698D02*
X7897324Y-16050174D01*
X7897324Y-16050174D02*
X7916372Y-16040650D01*
X7916372Y-16040650D02*
X7935420Y-16040650D01*
X8002086Y-16173984D02*
X8002086Y-16040650D01*
X8002086Y-15973984D02*
X7992562Y-15983508D01*
X7992562Y-15983508D02*
X8002086Y-15993031D01*
X8002086Y-15993031D02*
X8011610Y-15983508D01*
X8011610Y-15983508D02*
X8002086Y-15973984D01*
X8002086Y-15973984D02*
X8002086Y-15993031D01*
X8125896Y-16173984D02*
X8106848Y-16164460D01*
X8106848Y-16164460D02*
X8097324Y-16145412D01*
X8097324Y-16145412D02*
X8097324Y-15973984D01*
X8230658Y-16173984D02*
X8211610Y-16164460D01*
X8211610Y-16164460D02*
X8202086Y-16145412D01*
X8202086Y-16145412D02*
X8202086Y-15973984D01*
X8459229Y-16173984D02*
X8459229Y-15973984D01*
X8459229Y-15973984D02*
X8525896Y-16116841D01*
X8525896Y-16116841D02*
X8592563Y-15973984D01*
X8592563Y-15973984D02*
X8592563Y-16173984D01*
X8773515Y-16173984D02*
X8773515Y-16069222D01*
X8773515Y-16069222D02*
X8763991Y-16050174D01*
X8763991Y-16050174D02*
X8744944Y-16040650D01*
X8744944Y-16040650D02*
X8706848Y-16040650D01*
X8706848Y-16040650D02*
X8687801Y-16050174D01*
X8773515Y-16164460D02*
X8754467Y-16173984D01*
X8754467Y-16173984D02*
X8706848Y-16173984D01*
X8706848Y-16173984D02*
X8687801Y-16164460D01*
X8687801Y-16164460D02*
X8678277Y-16145412D01*
X8678277Y-16145412D02*
X8678277Y-16126365D01*
X8678277Y-16126365D02*
X8687801Y-16107317D01*
X8687801Y-16107317D02*
X8706848Y-16097793D01*
X8706848Y-16097793D02*
X8754467Y-16097793D01*
X8754467Y-16097793D02*
X8773515Y-16088269D01*
X8868753Y-16040650D02*
X8868753Y-16240650D01*
X8868753Y-16050174D02*
X8887801Y-16040650D01*
X8887801Y-16040650D02*
X8925896Y-16040650D01*
X8925896Y-16040650D02*
X8944944Y-16050174D01*
X8944944Y-16050174D02*
X8954467Y-16059698D01*
X8954467Y-16059698D02*
X8963991Y-16078746D01*
X8963991Y-16078746D02*
X8963991Y-16135888D01*
X8963991Y-16135888D02*
X8954467Y-16154936D01*
X8954467Y-16154936D02*
X8944944Y-16164460D01*
X8944944Y-16164460D02*
X8925896Y-16173984D01*
X8925896Y-16173984D02*
X8887801Y-16173984D01*
X8887801Y-16173984D02*
X8868753Y-16164460D01*
X9049705Y-16154936D02*
X9059229Y-16164460D01*
X9059229Y-16164460D02*
X9049705Y-16173984D01*
X9049705Y-16173984D02*
X9040182Y-16164460D01*
X9040182Y-16164460D02*
X9049705Y-16154936D01*
X9049705Y-16154936D02*
X9049705Y-16173984D01*
X9049705Y-16050174D02*
X9059229Y-16059698D01*
X9059229Y-16059698D02*
X9049705Y-16069222D01*
X9049705Y-16069222D02*
X9040182Y-16059698D01*
X9040182Y-16059698D02*
X9049705Y-16050174D01*
X9049705Y-16050174D02*
X9049705Y-16069222D01*
D12*
X7387500Y-16487500D02*
X7417500Y-16517500D01*
X7417500Y-16487500D02*
X7387500Y-16517500D01*
D11*
X7716372Y-16393984D02*
X7735420Y-16393984D01*
X7735420Y-16393984D02*
X7754467Y-16403508D01*
X7754467Y-16403508D02*
X7763991Y-16413031D01*
X7763991Y-16413031D02*
X7773515Y-16432079D01*
X7773515Y-16432079D02*
X7783039Y-16470174D01*
X7783039Y-16470174D02*
X7783039Y-16517793D01*
X7783039Y-16517793D02*
X7773515Y-16555888D01*
X7773515Y-16555888D02*
X7763991Y-16574936D01*
X7763991Y-16574936D02*
X7754467Y-16584460D01*
X7754467Y-16584460D02*
X7735420Y-16593984D01*
X7735420Y-16593984D02*
X7716372Y-16593984D01*
X7716372Y-16593984D02*
X7697324Y-16584460D01*
X7697324Y-16584460D02*
X7687801Y-16574936D01*
X7687801Y-16574936D02*
X7678277Y-16555888D01*
X7678277Y-16555888D02*
X7668753Y-16517793D01*
X7668753Y-16517793D02*
X7668753Y-16470174D01*
X7668753Y-16470174D02*
X7678277Y-16432079D01*
X7678277Y-16432079D02*
X7687801Y-16413031D01*
X7687801Y-16413031D02*
X7697324Y-16403508D01*
X7697324Y-16403508D02*
X7716372Y-16393984D01*
X7868753Y-16574936D02*
X7878277Y-16584460D01*
X7878277Y-16584460D02*
X7868753Y-16593984D01*
X7868753Y-16593984D02*
X7859229Y-16584460D01*
X7859229Y-16584460D02*
X7868753Y-16574936D01*
X7868753Y-16574936D02*
X7868753Y-16593984D01*
X7944943Y-16393984D02*
X8068753Y-16393984D01*
X8068753Y-16393984D02*
X8002086Y-16470174D01*
X8002086Y-16470174D02*
X8030658Y-16470174D01*
X8030658Y-16470174D02*
X8049705Y-16479698D01*
X8049705Y-16479698D02*
X8059229Y-16489222D01*
X8059229Y-16489222D02*
X8068753Y-16508269D01*
X8068753Y-16508269D02*
X8068753Y-16555888D01*
X8068753Y-16555888D02*
X8059229Y-16574936D01*
X8059229Y-16574936D02*
X8049705Y-16584460D01*
X8049705Y-16584460D02*
X8030658Y-16593984D01*
X8030658Y-16593984D02*
X7973515Y-16593984D01*
X7973515Y-16593984D02*
X7954467Y-16584460D01*
X7954467Y-16584460D02*
X7944943Y-16574936D01*
X8192562Y-16393984D02*
X8211610Y-16393984D01*
X8211610Y-16393984D02*
X8230658Y-16403508D01*
X8230658Y-16403508D02*
X8240182Y-16413031D01*
X8240182Y-16413031D02*
X8249705Y-16432079D01*
X8249705Y-16432079D02*
X8259229Y-16470174D01*
X8259229Y-16470174D02*
X8259229Y-16517793D01*
X8259229Y-16517793D02*
X8249705Y-16555888D01*
X8249705Y-16555888D02*
X8240182Y-16574936D01*
X8240182Y-16574936D02*
X8230658Y-16584460D01*
X8230658Y-16584460D02*
X8211610Y-16593984D01*
X8211610Y-16593984D02*
X8192562Y-16593984D01*
X8192562Y-16593984D02*
X8173515Y-16584460D01*
X8173515Y-16584460D02*
X8163991Y-16574936D01*
X8163991Y-16574936D02*
X8154467Y-16555888D01*
X8154467Y-16555888D02*
X8144943Y-16517793D01*
X8144943Y-16517793D02*
X8144943Y-16470174D01*
X8144943Y-16470174D02*
X8154467Y-16432079D01*
X8154467Y-16432079D02*
X8163991Y-16413031D01*
X8163991Y-16413031D02*
X8173515Y-16403508D01*
X8173515Y-16403508D02*
X8192562Y-16393984D01*
X8383039Y-16393984D02*
X8402086Y-16393984D01*
X8402086Y-16393984D02*
X8421134Y-16403508D01*
X8421134Y-16403508D02*
X8430658Y-16413031D01*
X8430658Y-16413031D02*
X8440182Y-16432079D01*
X8440182Y-16432079D02*
X8449705Y-16470174D01*
X8449705Y-16470174D02*
X8449705Y-16517793D01*
X8449705Y-16517793D02*
X8440182Y-16555888D01*
X8440182Y-16555888D02*
X8430658Y-16574936D01*
X8430658Y-16574936D02*
X8421134Y-16584460D01*
X8421134Y-16584460D02*
X8402086Y-16593984D01*
X8402086Y-16593984D02*
X8383039Y-16593984D01*
X8383039Y-16593984D02*
X8363991Y-16584460D01*
X8363991Y-16584460D02*
X8354467Y-16574936D01*
X8354467Y-16574936D02*
X8344943Y-16555888D01*
X8344943Y-16555888D02*
X8335420Y-16517793D01*
X8335420Y-16517793D02*
X8335420Y-16470174D01*
X8335420Y-16470174D02*
X8344943Y-16432079D01*
X8344943Y-16432079D02*
X8354467Y-16413031D01*
X8354467Y-16413031D02*
X8363991Y-16403508D01*
X8363991Y-16403508D02*
X8383039Y-16393984D01*
X8535420Y-16593984D02*
X8535420Y-16460650D01*
X8535420Y-16479698D02*
X8544944Y-16470174D01*
X8544944Y-16470174D02*
X8563991Y-16460650D01*
X8563991Y-16460650D02*
X8592563Y-16460650D01*
X8592563Y-16460650D02*
X8611610Y-16470174D01*
X8611610Y-16470174D02*
X8621134Y-16489222D01*
X8621134Y-16489222D02*
X8621134Y-16593984D01*
X8621134Y-16489222D02*
X8630658Y-16470174D01*
X8630658Y-16470174D02*
X8649705Y-16460650D01*
X8649705Y-16460650D02*
X8678277Y-16460650D01*
X8678277Y-16460650D02*
X8697325Y-16470174D01*
X8697325Y-16470174D02*
X8706848Y-16489222D01*
X8706848Y-16489222D02*
X8706848Y-16593984D01*
X8802086Y-16593984D02*
X8802086Y-16460650D01*
X8802086Y-16479698D02*
X8811610Y-16470174D01*
X8811610Y-16470174D02*
X8830658Y-16460650D01*
X8830658Y-16460650D02*
X8859229Y-16460650D01*
X8859229Y-16460650D02*
X8878277Y-16470174D01*
X8878277Y-16470174D02*
X8887801Y-16489222D01*
X8887801Y-16489222D02*
X8887801Y-16593984D01*
X8887801Y-16489222D02*
X8897325Y-16470174D01*
X8897325Y-16470174D02*
X8916372Y-16460650D01*
X8916372Y-16460650D02*
X8944944Y-16460650D01*
X8944944Y-16460650D02*
X8963991Y-16470174D01*
X8963991Y-16470174D02*
X8973515Y-16489222D01*
X8973515Y-16489222D02*
X8973515Y-16593984D01*
X9363991Y-16384460D02*
X9192563Y-16641603D01*
X9621134Y-16393984D02*
X9640182Y-16393984D01*
X9640182Y-16393984D02*
X9659229Y-16403508D01*
X9659229Y-16403508D02*
X9668753Y-16413031D01*
X9668753Y-16413031D02*
X9678277Y-16432079D01*
X9678277Y-16432079D02*
X9687801Y-16470174D01*
X9687801Y-16470174D02*
X9687801Y-16517793D01*
X9687801Y-16517793D02*
X9678277Y-16555888D01*
X9678277Y-16555888D02*
X9668753Y-16574936D01*
X9668753Y-16574936D02*
X9659229Y-16584460D01*
X9659229Y-16584460D02*
X9640182Y-16593984D01*
X9640182Y-16593984D02*
X9621134Y-16593984D01*
X9621134Y-16593984D02*
X9602087Y-16584460D01*
X9602087Y-16584460D02*
X9592563Y-16574936D01*
X9592563Y-16574936D02*
X9583039Y-16555888D01*
X9583039Y-16555888D02*
X9573515Y-16517793D01*
X9573515Y-16517793D02*
X9573515Y-16470174D01*
X9573515Y-16470174D02*
X9583039Y-16432079D01*
X9583039Y-16432079D02*
X9592563Y-16413031D01*
X9592563Y-16413031D02*
X9602087Y-16403508D01*
X9602087Y-16403508D02*
X9621134Y-16393984D01*
X9773515Y-16574936D02*
X9783039Y-16584460D01*
X9783039Y-16584460D02*
X9773515Y-16593984D01*
X9773515Y-16593984D02*
X9763991Y-16584460D01*
X9763991Y-16584460D02*
X9773515Y-16574936D01*
X9773515Y-16574936D02*
X9773515Y-16593984D01*
X9906848Y-16393984D02*
X9925896Y-16393984D01*
X9925896Y-16393984D02*
X9944944Y-16403508D01*
X9944944Y-16403508D02*
X9954468Y-16413031D01*
X9954468Y-16413031D02*
X9963991Y-16432079D01*
X9963991Y-16432079D02*
X9973515Y-16470174D01*
X9973515Y-16470174D02*
X9973515Y-16517793D01*
X9973515Y-16517793D02*
X9963991Y-16555888D01*
X9963991Y-16555888D02*
X9954468Y-16574936D01*
X9954468Y-16574936D02*
X9944944Y-16584460D01*
X9944944Y-16584460D02*
X9925896Y-16593984D01*
X9925896Y-16593984D02*
X9906848Y-16593984D01*
X9906848Y-16593984D02*
X9887801Y-16584460D01*
X9887801Y-16584460D02*
X9878277Y-16574936D01*
X9878277Y-16574936D02*
X9868753Y-16555888D01*
X9868753Y-16555888D02*
X9859229Y-16517793D01*
X9859229Y-16517793D02*
X9859229Y-16470174D01*
X9859229Y-16470174D02*
X9868753Y-16432079D01*
X9868753Y-16432079D02*
X9878277Y-16413031D01*
X9878277Y-16413031D02*
X9887801Y-16403508D01*
X9887801Y-16403508D02*
X9906848Y-16393984D01*
X10163991Y-16593984D02*
X10049706Y-16593984D01*
X10106848Y-16593984D02*
X10106848Y-16393984D01*
X10106848Y-16393984D02*
X10087801Y-16422555D01*
X10087801Y-16422555D02*
X10068753Y-16441603D01*
X10068753Y-16441603D02*
X10049706Y-16451127D01*
X10354468Y-16593984D02*
X10240182Y-16593984D01*
X10297325Y-16593984D02*
X10297325Y-16393984D01*
X10297325Y-16393984D02*
X10278277Y-16422555D01*
X10278277Y-16422555D02*
X10259229Y-16441603D01*
X10259229Y-16441603D02*
X10240182Y-16451127D01*
X10468753Y-16479698D02*
X10449706Y-16470174D01*
X10449706Y-16470174D02*
X10440182Y-16460650D01*
X10440182Y-16460650D02*
X10430658Y-16441603D01*
X10430658Y-16441603D02*
X10430658Y-16432079D01*
X10430658Y-16432079D02*
X10440182Y-16413031D01*
X10440182Y-16413031D02*
X10449706Y-16403508D01*
X10449706Y-16403508D02*
X10468753Y-16393984D01*
X10468753Y-16393984D02*
X10506849Y-16393984D01*
X10506849Y-16393984D02*
X10525896Y-16403508D01*
X10525896Y-16403508D02*
X10535420Y-16413031D01*
X10535420Y-16413031D02*
X10544944Y-16432079D01*
X10544944Y-16432079D02*
X10544944Y-16441603D01*
X10544944Y-16441603D02*
X10535420Y-16460650D01*
X10535420Y-16460650D02*
X10525896Y-16470174D01*
X10525896Y-16470174D02*
X10506849Y-16479698D01*
X10506849Y-16479698D02*
X10468753Y-16479698D01*
X10468753Y-16479698D02*
X10449706Y-16489222D01*
X10449706Y-16489222D02*
X10440182Y-16498746D01*
X10440182Y-16498746D02*
X10430658Y-16517793D01*
X10430658Y-16517793D02*
X10430658Y-16555888D01*
X10430658Y-16555888D02*
X10440182Y-16574936D01*
X10440182Y-16574936D02*
X10449706Y-16584460D01*
X10449706Y-16584460D02*
X10468753Y-16593984D01*
X10468753Y-16593984D02*
X10506849Y-16593984D01*
X10506849Y-16593984D02*
X10525896Y-16584460D01*
X10525896Y-16584460D02*
X10535420Y-16574936D01*
X10535420Y-16574936D02*
X10544944Y-16555888D01*
X10544944Y-16555888D02*
X10544944Y-16517793D01*
X10544944Y-16517793D02*
X10535420Y-16498746D01*
X10535420Y-16498746D02*
X10525896Y-16489222D01*
X10525896Y-16489222D02*
X10506849Y-16479698D01*
X10621134Y-16393984D02*
X10621134Y-16432079D01*
X10697325Y-16393984D02*
X10697325Y-16432079D01*
X10992563Y-16670174D02*
X10983039Y-16660650D01*
X10983039Y-16660650D02*
X10963991Y-16632079D01*
X10963991Y-16632079D02*
X10954468Y-16613031D01*
X10954468Y-16613031D02*
X10944944Y-16584460D01*
X10944944Y-16584460D02*
X10935420Y-16536841D01*
X10935420Y-16536841D02*
X10935420Y-16498746D01*
X10935420Y-16498746D02*
X10944944Y-16451127D01*
X10944944Y-16451127D02*
X10954468Y-16422555D01*
X10954468Y-16422555D02*
X10963991Y-16403508D01*
X10963991Y-16403508D02*
X10983039Y-16374936D01*
X10983039Y-16374936D02*
X10992563Y-16365412D01*
X11078277Y-16593984D02*
X11116372Y-16593984D01*
X11116372Y-16593984D02*
X11135420Y-16584460D01*
X11135420Y-16584460D02*
X11144944Y-16574936D01*
X11144944Y-16574936D02*
X11163991Y-16546365D01*
X11163991Y-16546365D02*
X11173515Y-16508269D01*
X11173515Y-16508269D02*
X11173515Y-16432079D01*
X11173515Y-16432079D02*
X11163991Y-16413031D01*
X11163991Y-16413031D02*
X11154468Y-16403508D01*
X11154468Y-16403508D02*
X11135420Y-16393984D01*
X11135420Y-16393984D02*
X11097325Y-16393984D01*
X11097325Y-16393984D02*
X11078277Y-16403508D01*
X11078277Y-16403508D02*
X11068753Y-16413031D01*
X11068753Y-16413031D02*
X11059230Y-16432079D01*
X11059230Y-16432079D02*
X11059230Y-16479698D01*
X11059230Y-16479698D02*
X11068753Y-16498746D01*
X11068753Y-16498746D02*
X11078277Y-16508269D01*
X11078277Y-16508269D02*
X11097325Y-16517793D01*
X11097325Y-16517793D02*
X11135420Y-16517793D01*
X11135420Y-16517793D02*
X11154468Y-16508269D01*
X11154468Y-16508269D02*
X11163991Y-16498746D01*
X11163991Y-16498746D02*
X11173515Y-16479698D01*
X11354468Y-16393984D02*
X11259229Y-16393984D01*
X11259229Y-16393984D02*
X11249706Y-16489222D01*
X11249706Y-16489222D02*
X11259229Y-16479698D01*
X11259229Y-16479698D02*
X11278277Y-16470174D01*
X11278277Y-16470174D02*
X11325896Y-16470174D01*
X11325896Y-16470174D02*
X11344944Y-16479698D01*
X11344944Y-16479698D02*
X11354468Y-16489222D01*
X11354468Y-16489222D02*
X11363991Y-16508269D01*
X11363991Y-16508269D02*
X11363991Y-16555888D01*
X11363991Y-16555888D02*
X11354468Y-16574936D01*
X11354468Y-16574936D02*
X11344944Y-16584460D01*
X11344944Y-16584460D02*
X11325896Y-16593984D01*
X11325896Y-16593984D02*
X11278277Y-16593984D01*
X11278277Y-16593984D02*
X11259229Y-16584460D01*
X11259229Y-16584460D02*
X11249706Y-16574936D01*
X11602087Y-16593984D02*
X11602087Y-16393984D01*
X11687801Y-16593984D02*
X11687801Y-16489222D01*
X11687801Y-16489222D02*
X11678277Y-16470174D01*
X11678277Y-16470174D02*
X11659230Y-16460650D01*
X11659230Y-16460650D02*
X11630658Y-16460650D01*
X11630658Y-16460650D02*
X11611610Y-16470174D01*
X11611610Y-16470174D02*
X11602087Y-16479698D01*
X11811610Y-16593984D02*
X11792563Y-16584460D01*
X11792563Y-16584460D02*
X11783039Y-16574936D01*
X11783039Y-16574936D02*
X11773515Y-16555888D01*
X11773515Y-16555888D02*
X11773515Y-16498746D01*
X11773515Y-16498746D02*
X11783039Y-16479698D01*
X11783039Y-16479698D02*
X11792563Y-16470174D01*
X11792563Y-16470174D02*
X11811610Y-16460650D01*
X11811610Y-16460650D02*
X11840182Y-16460650D01*
X11840182Y-16460650D02*
X11859230Y-16470174D01*
X11859230Y-16470174D02*
X11868753Y-16479698D01*
X11868753Y-16479698D02*
X11878277Y-16498746D01*
X11878277Y-16498746D02*
X11878277Y-16555888D01*
X11878277Y-16555888D02*
X11868753Y-16574936D01*
X11868753Y-16574936D02*
X11859230Y-16584460D01*
X11859230Y-16584460D02*
X11840182Y-16593984D01*
X11840182Y-16593984D02*
X11811610Y-16593984D01*
X11992563Y-16593984D02*
X11973515Y-16584460D01*
X11973515Y-16584460D02*
X11963991Y-16565412D01*
X11963991Y-16565412D02*
X11963991Y-16393984D01*
X12144944Y-16584460D02*
X12125896Y-16593984D01*
X12125896Y-16593984D02*
X12087801Y-16593984D01*
X12087801Y-16593984D02*
X12068753Y-16584460D01*
X12068753Y-16584460D02*
X12059230Y-16565412D01*
X12059230Y-16565412D02*
X12059230Y-16489222D01*
X12059230Y-16489222D02*
X12068753Y-16470174D01*
X12068753Y-16470174D02*
X12087801Y-16460650D01*
X12087801Y-16460650D02*
X12125896Y-16460650D01*
X12125896Y-16460650D02*
X12144944Y-16470174D01*
X12144944Y-16470174D02*
X12154468Y-16489222D01*
X12154468Y-16489222D02*
X12154468Y-16508269D01*
X12154468Y-16508269D02*
X12059230Y-16527317D01*
X12230658Y-16584460D02*
X12249706Y-16593984D01*
X12249706Y-16593984D02*
X12287801Y-16593984D01*
X12287801Y-16593984D02*
X12306849Y-16584460D01*
X12306849Y-16584460D02*
X12316372Y-16565412D01*
X12316372Y-16565412D02*
X12316372Y-16555888D01*
X12316372Y-16555888D02*
X12306849Y-16536841D01*
X12306849Y-16536841D02*
X12287801Y-16527317D01*
X12287801Y-16527317D02*
X12259230Y-16527317D01*
X12259230Y-16527317D02*
X12240182Y-16517793D01*
X12240182Y-16517793D02*
X12230658Y-16498746D01*
X12230658Y-16498746D02*
X12230658Y-16489222D01*
X12230658Y-16489222D02*
X12240182Y-16470174D01*
X12240182Y-16470174D02*
X12259230Y-16460650D01*
X12259230Y-16460650D02*
X12287801Y-16460650D01*
X12287801Y-16460650D02*
X12306849Y-16470174D01*
X12383039Y-16670174D02*
X12392563Y-16660650D01*
X12392563Y-16660650D02*
X12411611Y-16632079D01*
X12411611Y-16632079D02*
X12421134Y-16613031D01*
X12421134Y-16613031D02*
X12430658Y-16584460D01*
X12430658Y-16584460D02*
X12440182Y-16536841D01*
X12440182Y-16536841D02*
X12440182Y-16498746D01*
X12440182Y-16498746D02*
X12430658Y-16451127D01*
X12430658Y-16451127D02*
X12421134Y-16422555D01*
X12421134Y-16422555D02*
X12411611Y-16403508D01*
X12411611Y-16403508D02*
X12392563Y-16374936D01*
X12392563Y-16374936D02*
X12383039Y-16365412D01*
D12*
X7417500Y-16766500D02*
G75*
G02*
X7357500Y-16766500I-30000J0D01*
G01*
X7357500Y-16766500D02*
G75*
G02*
X7417500Y-16766500I30000J0D01*
G01*
D11*
X7716372Y-16657984D02*
X7735420Y-16657984D01*
X7735420Y-16657984D02*
X7754467Y-16667508D01*
X7754467Y-16667508D02*
X7763991Y-16677031D01*
X7763991Y-16677031D02*
X7773515Y-16696079D01*
X7773515Y-16696079D02*
X7783039Y-16734174D01*
X7783039Y-16734174D02*
X7783039Y-16781793D01*
X7783039Y-16781793D02*
X7773515Y-16819889D01*
X7773515Y-16819889D02*
X7763991Y-16838936D01*
X7763991Y-16838936D02*
X7754467Y-16848460D01*
X7754467Y-16848460D02*
X7735420Y-16857984D01*
X7735420Y-16857984D02*
X7716372Y-16857984D01*
X7716372Y-16857984D02*
X7697324Y-16848460D01*
X7697324Y-16848460D02*
X7687801Y-16838936D01*
X7687801Y-16838936D02*
X7678277Y-16819889D01*
X7678277Y-16819889D02*
X7668753Y-16781793D01*
X7668753Y-16781793D02*
X7668753Y-16734174D01*
X7668753Y-16734174D02*
X7678277Y-16696079D01*
X7678277Y-16696079D02*
X7687801Y-16677031D01*
X7687801Y-16677031D02*
X7697324Y-16667508D01*
X7697324Y-16667508D02*
X7716372Y-16657984D01*
X7868753Y-16838936D02*
X7878277Y-16848460D01*
X7878277Y-16848460D02*
X7868753Y-16857984D01*
X7868753Y-16857984D02*
X7859229Y-16848460D01*
X7859229Y-16848460D02*
X7868753Y-16838936D01*
X7868753Y-16838936D02*
X7868753Y-16857984D01*
X8049705Y-16657984D02*
X8011610Y-16657984D01*
X8011610Y-16657984D02*
X7992562Y-16667508D01*
X7992562Y-16667508D02*
X7983039Y-16677031D01*
X7983039Y-16677031D02*
X7963991Y-16705603D01*
X7963991Y-16705603D02*
X7954467Y-16743698D01*
X7954467Y-16743698D02*
X7954467Y-16819889D01*
X7954467Y-16819889D02*
X7963991Y-16838936D01*
X7963991Y-16838936D02*
X7973515Y-16848460D01*
X7973515Y-16848460D02*
X7992562Y-16857984D01*
X7992562Y-16857984D02*
X8030658Y-16857984D01*
X8030658Y-16857984D02*
X8049705Y-16848460D01*
X8049705Y-16848460D02*
X8059229Y-16838936D01*
X8059229Y-16838936D02*
X8068753Y-16819889D01*
X8068753Y-16819889D02*
X8068753Y-16772269D01*
X8068753Y-16772269D02*
X8059229Y-16753222D01*
X8059229Y-16753222D02*
X8049705Y-16743698D01*
X8049705Y-16743698D02*
X8030658Y-16734174D01*
X8030658Y-16734174D02*
X7992562Y-16734174D01*
X7992562Y-16734174D02*
X7973515Y-16743698D01*
X7973515Y-16743698D02*
X7963991Y-16753222D01*
X7963991Y-16753222D02*
X7954467Y-16772269D01*
X8192562Y-16657984D02*
X8211610Y-16657984D01*
X8211610Y-16657984D02*
X8230658Y-16667508D01*
X8230658Y-16667508D02*
X8240182Y-16677031D01*
X8240182Y-16677031D02*
X8249705Y-16696079D01*
X8249705Y-16696079D02*
X8259229Y-16734174D01*
X8259229Y-16734174D02*
X8259229Y-16781793D01*
X8259229Y-16781793D02*
X8249705Y-16819889D01*
X8249705Y-16819889D02*
X8240182Y-16838936D01*
X8240182Y-16838936D02*
X8230658Y-16848460D01*
X8230658Y-16848460D02*
X8211610Y-16857984D01*
X8211610Y-16857984D02*
X8192562Y-16857984D01*
X8192562Y-16857984D02*
X8173515Y-16848460D01*
X8173515Y-16848460D02*
X8163991Y-16838936D01*
X8163991Y-16838936D02*
X8154467Y-16819889D01*
X8154467Y-16819889D02*
X8144943Y-16781793D01*
X8144943Y-16781793D02*
X8144943Y-16734174D01*
X8144943Y-16734174D02*
X8154467Y-16696079D01*
X8154467Y-16696079D02*
X8163991Y-16677031D01*
X8163991Y-16677031D02*
X8173515Y-16667508D01*
X8173515Y-16667508D02*
X8192562Y-16657984D01*
X8383039Y-16657984D02*
X8402086Y-16657984D01*
X8402086Y-16657984D02*
X8421134Y-16667508D01*
X8421134Y-16667508D02*
X8430658Y-16677031D01*
X8430658Y-16677031D02*
X8440182Y-16696079D01*
X8440182Y-16696079D02*
X8449705Y-16734174D01*
X8449705Y-16734174D02*
X8449705Y-16781793D01*
X8449705Y-16781793D02*
X8440182Y-16819889D01*
X8440182Y-16819889D02*
X8430658Y-16838936D01*
X8430658Y-16838936D02*
X8421134Y-16848460D01*
X8421134Y-16848460D02*
X8402086Y-16857984D01*
X8402086Y-16857984D02*
X8383039Y-16857984D01*
X8383039Y-16857984D02*
X8363991Y-16848460D01*
X8363991Y-16848460D02*
X8354467Y-16838936D01*
X8354467Y-16838936D02*
X8344943Y-16819889D01*
X8344943Y-16819889D02*
X8335420Y-16781793D01*
X8335420Y-16781793D02*
X8335420Y-16734174D01*
X8335420Y-16734174D02*
X8344943Y-16696079D01*
X8344943Y-16696079D02*
X8354467Y-16677031D01*
X8354467Y-16677031D02*
X8363991Y-16667508D01*
X8363991Y-16667508D02*
X8383039Y-16657984D01*
X8535420Y-16857984D02*
X8535420Y-16724650D01*
X8535420Y-16743698D02*
X8544944Y-16734174D01*
X8544944Y-16734174D02*
X8563991Y-16724650D01*
X8563991Y-16724650D02*
X8592563Y-16724650D01*
X8592563Y-16724650D02*
X8611610Y-16734174D01*
X8611610Y-16734174D02*
X8621134Y-16753222D01*
X8621134Y-16753222D02*
X8621134Y-16857984D01*
X8621134Y-16753222D02*
X8630658Y-16734174D01*
X8630658Y-16734174D02*
X8649705Y-16724650D01*
X8649705Y-16724650D02*
X8678277Y-16724650D01*
X8678277Y-16724650D02*
X8697325Y-16734174D01*
X8697325Y-16734174D02*
X8706848Y-16753222D01*
X8706848Y-16753222D02*
X8706848Y-16857984D01*
X8802086Y-16857984D02*
X8802086Y-16724650D01*
X8802086Y-16743698D02*
X8811610Y-16734174D01*
X8811610Y-16734174D02*
X8830658Y-16724650D01*
X8830658Y-16724650D02*
X8859229Y-16724650D01*
X8859229Y-16724650D02*
X8878277Y-16734174D01*
X8878277Y-16734174D02*
X8887801Y-16753222D01*
X8887801Y-16753222D02*
X8887801Y-16857984D01*
X8887801Y-16753222D02*
X8897325Y-16734174D01*
X8897325Y-16734174D02*
X8916372Y-16724650D01*
X8916372Y-16724650D02*
X8944944Y-16724650D01*
X8944944Y-16724650D02*
X8963991Y-16734174D01*
X8963991Y-16734174D02*
X8973515Y-16753222D01*
X8973515Y-16753222D02*
X8973515Y-16857984D01*
X9363991Y-16648460D02*
X9192563Y-16905603D01*
X9621134Y-16657984D02*
X9640182Y-16657984D01*
X9640182Y-16657984D02*
X9659229Y-16667508D01*
X9659229Y-16667508D02*
X9668753Y-16677031D01*
X9668753Y-16677031D02*
X9678277Y-16696079D01*
X9678277Y-16696079D02*
X9687801Y-16734174D01*
X9687801Y-16734174D02*
X9687801Y-16781793D01*
X9687801Y-16781793D02*
X9678277Y-16819889D01*
X9678277Y-16819889D02*
X9668753Y-16838936D01*
X9668753Y-16838936D02*
X9659229Y-16848460D01*
X9659229Y-16848460D02*
X9640182Y-16857984D01*
X9640182Y-16857984D02*
X9621134Y-16857984D01*
X9621134Y-16857984D02*
X9602087Y-16848460D01*
X9602087Y-16848460D02*
X9592563Y-16838936D01*
X9592563Y-16838936D02*
X9583039Y-16819889D01*
X9583039Y-16819889D02*
X9573515Y-16781793D01*
X9573515Y-16781793D02*
X9573515Y-16734174D01*
X9573515Y-16734174D02*
X9583039Y-16696079D01*
X9583039Y-16696079D02*
X9592563Y-16677031D01*
X9592563Y-16677031D02*
X9602087Y-16667508D01*
X9602087Y-16667508D02*
X9621134Y-16657984D01*
X9773515Y-16838936D02*
X9783039Y-16848460D01*
X9783039Y-16848460D02*
X9773515Y-16857984D01*
X9773515Y-16857984D02*
X9763991Y-16848460D01*
X9763991Y-16848460D02*
X9773515Y-16838936D01*
X9773515Y-16838936D02*
X9773515Y-16857984D01*
X9906848Y-16657984D02*
X9925896Y-16657984D01*
X9925896Y-16657984D02*
X9944944Y-16667508D01*
X9944944Y-16667508D02*
X9954468Y-16677031D01*
X9954468Y-16677031D02*
X9963991Y-16696079D01*
X9963991Y-16696079D02*
X9973515Y-16734174D01*
X9973515Y-16734174D02*
X9973515Y-16781793D01*
X9973515Y-16781793D02*
X9963991Y-16819889D01*
X9963991Y-16819889D02*
X9954468Y-16838936D01*
X9954468Y-16838936D02*
X9944944Y-16848460D01*
X9944944Y-16848460D02*
X9925896Y-16857984D01*
X9925896Y-16857984D02*
X9906848Y-16857984D01*
X9906848Y-16857984D02*
X9887801Y-16848460D01*
X9887801Y-16848460D02*
X9878277Y-16838936D01*
X9878277Y-16838936D02*
X9868753Y-16819889D01*
X9868753Y-16819889D02*
X9859229Y-16781793D01*
X9859229Y-16781793D02*
X9859229Y-16734174D01*
X9859229Y-16734174D02*
X9868753Y-16696079D01*
X9868753Y-16696079D02*
X9878277Y-16677031D01*
X9878277Y-16677031D02*
X9887801Y-16667508D01*
X9887801Y-16667508D02*
X9906848Y-16657984D01*
X10049706Y-16677031D02*
X10059229Y-16667508D01*
X10059229Y-16667508D02*
X10078277Y-16657984D01*
X10078277Y-16657984D02*
X10125896Y-16657984D01*
X10125896Y-16657984D02*
X10144944Y-16667508D01*
X10144944Y-16667508D02*
X10154468Y-16677031D01*
X10154468Y-16677031D02*
X10163991Y-16696079D01*
X10163991Y-16696079D02*
X10163991Y-16715127D01*
X10163991Y-16715127D02*
X10154468Y-16743698D01*
X10154468Y-16743698D02*
X10040182Y-16857984D01*
X10040182Y-16857984D02*
X10163991Y-16857984D01*
X10230658Y-16657984D02*
X10354468Y-16657984D01*
X10354468Y-16657984D02*
X10287801Y-16734174D01*
X10287801Y-16734174D02*
X10316372Y-16734174D01*
X10316372Y-16734174D02*
X10335420Y-16743698D01*
X10335420Y-16743698D02*
X10344944Y-16753222D01*
X10344944Y-16753222D02*
X10354468Y-16772269D01*
X10354468Y-16772269D02*
X10354468Y-16819889D01*
X10354468Y-16819889D02*
X10344944Y-16838936D01*
X10344944Y-16838936D02*
X10335420Y-16848460D01*
X10335420Y-16848460D02*
X10316372Y-16857984D01*
X10316372Y-16857984D02*
X10259229Y-16857984D01*
X10259229Y-16857984D02*
X10240182Y-16848460D01*
X10240182Y-16848460D02*
X10230658Y-16838936D01*
X10525896Y-16657984D02*
X10487801Y-16657984D01*
X10487801Y-16657984D02*
X10468753Y-16667508D01*
X10468753Y-16667508D02*
X10459229Y-16677031D01*
X10459229Y-16677031D02*
X10440182Y-16705603D01*
X10440182Y-16705603D02*
X10430658Y-16743698D01*
X10430658Y-16743698D02*
X10430658Y-16819889D01*
X10430658Y-16819889D02*
X10440182Y-16838936D01*
X10440182Y-16838936D02*
X10449706Y-16848460D01*
X10449706Y-16848460D02*
X10468753Y-16857984D01*
X10468753Y-16857984D02*
X10506849Y-16857984D01*
X10506849Y-16857984D02*
X10525896Y-16848460D01*
X10525896Y-16848460D02*
X10535420Y-16838936D01*
X10535420Y-16838936D02*
X10544944Y-16819889D01*
X10544944Y-16819889D02*
X10544944Y-16772269D01*
X10544944Y-16772269D02*
X10535420Y-16753222D01*
X10535420Y-16753222D02*
X10525896Y-16743698D01*
X10525896Y-16743698D02*
X10506849Y-16734174D01*
X10506849Y-16734174D02*
X10468753Y-16734174D01*
X10468753Y-16734174D02*
X10449706Y-16743698D01*
X10449706Y-16743698D02*
X10440182Y-16753222D01*
X10440182Y-16753222D02*
X10430658Y-16772269D01*
X10621134Y-16657984D02*
X10621134Y-16696079D01*
X10697325Y-16657984D02*
X10697325Y-16696079D01*
X10992563Y-16934174D02*
X10983039Y-16924650D01*
X10983039Y-16924650D02*
X10963991Y-16896079D01*
X10963991Y-16896079D02*
X10954468Y-16877031D01*
X10954468Y-16877031D02*
X10944944Y-16848460D01*
X10944944Y-16848460D02*
X10935420Y-16800841D01*
X10935420Y-16800841D02*
X10935420Y-16762746D01*
X10935420Y-16762746D02*
X10944944Y-16715127D01*
X10944944Y-16715127D02*
X10954468Y-16686555D01*
X10954468Y-16686555D02*
X10963991Y-16667508D01*
X10963991Y-16667508D02*
X10983039Y-16638936D01*
X10983039Y-16638936D02*
X10992563Y-16629412D01*
X11106849Y-16657984D02*
X11125896Y-16657984D01*
X11125896Y-16657984D02*
X11144944Y-16667508D01*
X11144944Y-16667508D02*
X11154468Y-16677031D01*
X11154468Y-16677031D02*
X11163991Y-16696079D01*
X11163991Y-16696079D02*
X11173515Y-16734174D01*
X11173515Y-16734174D02*
X11173515Y-16781793D01*
X11173515Y-16781793D02*
X11163991Y-16819889D01*
X11163991Y-16819889D02*
X11154468Y-16838936D01*
X11154468Y-16838936D02*
X11144944Y-16848460D01*
X11144944Y-16848460D02*
X11125896Y-16857984D01*
X11125896Y-16857984D02*
X11106849Y-16857984D01*
X11106849Y-16857984D02*
X11087801Y-16848460D01*
X11087801Y-16848460D02*
X11078277Y-16838936D01*
X11078277Y-16838936D02*
X11068753Y-16819889D01*
X11068753Y-16819889D02*
X11059230Y-16781793D01*
X11059230Y-16781793D02*
X11059230Y-16734174D01*
X11059230Y-16734174D02*
X11068753Y-16696079D01*
X11068753Y-16696079D02*
X11078277Y-16677031D01*
X11078277Y-16677031D02*
X11087801Y-16667508D01*
X11087801Y-16667508D02*
X11106849Y-16657984D01*
X11411610Y-16857984D02*
X11411610Y-16657984D01*
X11497325Y-16857984D02*
X11497325Y-16753222D01*
X11497325Y-16753222D02*
X11487801Y-16734174D01*
X11487801Y-16734174D02*
X11468753Y-16724650D01*
X11468753Y-16724650D02*
X11440182Y-16724650D01*
X11440182Y-16724650D02*
X11421134Y-16734174D01*
X11421134Y-16734174D02*
X11411610Y-16743698D01*
X11621134Y-16857984D02*
X11602087Y-16848460D01*
X11602087Y-16848460D02*
X11592563Y-16838936D01*
X11592563Y-16838936D02*
X11583039Y-16819889D01*
X11583039Y-16819889D02*
X11583039Y-16762746D01*
X11583039Y-16762746D02*
X11592563Y-16743698D01*
X11592563Y-16743698D02*
X11602087Y-16734174D01*
X11602087Y-16734174D02*
X11621134Y-16724650D01*
X11621134Y-16724650D02*
X11649706Y-16724650D01*
X11649706Y-16724650D02*
X11668753Y-16734174D01*
X11668753Y-16734174D02*
X11678277Y-16743698D01*
X11678277Y-16743698D02*
X11687801Y-16762746D01*
X11687801Y-16762746D02*
X11687801Y-16819889D01*
X11687801Y-16819889D02*
X11678277Y-16838936D01*
X11678277Y-16838936D02*
X11668753Y-16848460D01*
X11668753Y-16848460D02*
X11649706Y-16857984D01*
X11649706Y-16857984D02*
X11621134Y-16857984D01*
X11802087Y-16857984D02*
X11783039Y-16848460D01*
X11783039Y-16848460D02*
X11773515Y-16829412D01*
X11773515Y-16829412D02*
X11773515Y-16657984D01*
X11954468Y-16848460D02*
X11935420Y-16857984D01*
X11935420Y-16857984D02*
X11897325Y-16857984D01*
X11897325Y-16857984D02*
X11878277Y-16848460D01*
X11878277Y-16848460D02*
X11868753Y-16829412D01*
X11868753Y-16829412D02*
X11868753Y-16753222D01*
X11868753Y-16753222D02*
X11878277Y-16734174D01*
X11878277Y-16734174D02*
X11897325Y-16724650D01*
X11897325Y-16724650D02*
X11935420Y-16724650D01*
X11935420Y-16724650D02*
X11954468Y-16734174D01*
X11954468Y-16734174D02*
X11963991Y-16753222D01*
X11963991Y-16753222D02*
X11963991Y-16772269D01*
X11963991Y-16772269D02*
X11868753Y-16791317D01*
X12040182Y-16848460D02*
X12059230Y-16857984D01*
X12059230Y-16857984D02*
X12097325Y-16857984D01*
X12097325Y-16857984D02*
X12116372Y-16848460D01*
X12116372Y-16848460D02*
X12125896Y-16829412D01*
X12125896Y-16829412D02*
X12125896Y-16819889D01*
X12125896Y-16819889D02*
X12116372Y-16800841D01*
X12116372Y-16800841D02*
X12097325Y-16791317D01*
X12097325Y-16791317D02*
X12068753Y-16791317D01*
X12068753Y-16791317D02*
X12049706Y-16781793D01*
X12049706Y-16781793D02*
X12040182Y-16762746D01*
X12040182Y-16762746D02*
X12040182Y-16753222D01*
X12040182Y-16753222D02*
X12049706Y-16734174D01*
X12049706Y-16734174D02*
X12068753Y-16724650D01*
X12068753Y-16724650D02*
X12097325Y-16724650D01*
X12097325Y-16724650D02*
X12116372Y-16734174D01*
X12363992Y-16781793D02*
X12516373Y-16781793D01*
X12440182Y-16857984D02*
X12440182Y-16705603D01*
X12849706Y-16724650D02*
X12849706Y-16857984D01*
X12802087Y-16648460D02*
X12754468Y-16791317D01*
X12754468Y-16791317D02*
X12878277Y-16791317D01*
X13097325Y-16848460D02*
X13116373Y-16857984D01*
X13116373Y-16857984D02*
X13154468Y-16857984D01*
X13154468Y-16857984D02*
X13173515Y-16848460D01*
X13173515Y-16848460D02*
X13183039Y-16829412D01*
X13183039Y-16829412D02*
X13183039Y-16819889D01*
X13183039Y-16819889D02*
X13173515Y-16800841D01*
X13173515Y-16800841D02*
X13154468Y-16791317D01*
X13154468Y-16791317D02*
X13125896Y-16791317D01*
X13125896Y-16791317D02*
X13106849Y-16781793D01*
X13106849Y-16781793D02*
X13097325Y-16762746D01*
X13097325Y-16762746D02*
X13097325Y-16753222D01*
X13097325Y-16753222D02*
X13106849Y-16734174D01*
X13106849Y-16734174D02*
X13125896Y-16724650D01*
X13125896Y-16724650D02*
X13154468Y-16724650D01*
X13154468Y-16724650D02*
X13173515Y-16734174D01*
X13297325Y-16857984D02*
X13278277Y-16848460D01*
X13278277Y-16848460D02*
X13268754Y-16829412D01*
X13268754Y-16829412D02*
X13268754Y-16657984D01*
X13402087Y-16857984D02*
X13383039Y-16848460D01*
X13383039Y-16848460D02*
X13373515Y-16838936D01*
X13373515Y-16838936D02*
X13363992Y-16819889D01*
X13363992Y-16819889D02*
X13363992Y-16762746D01*
X13363992Y-16762746D02*
X13373515Y-16743698D01*
X13373515Y-16743698D02*
X13383039Y-16734174D01*
X13383039Y-16734174D02*
X13402087Y-16724650D01*
X13402087Y-16724650D02*
X13430658Y-16724650D01*
X13430658Y-16724650D02*
X13449706Y-16734174D01*
X13449706Y-16734174D02*
X13459230Y-16743698D01*
X13459230Y-16743698D02*
X13468754Y-16762746D01*
X13468754Y-16762746D02*
X13468754Y-16819889D01*
X13468754Y-16819889D02*
X13459230Y-16838936D01*
X13459230Y-16838936D02*
X13449706Y-16848460D01*
X13449706Y-16848460D02*
X13430658Y-16857984D01*
X13430658Y-16857984D02*
X13402087Y-16857984D01*
X13525896Y-16724650D02*
X13602087Y-16724650D01*
X13554468Y-16657984D02*
X13554468Y-16829412D01*
X13554468Y-16829412D02*
X13563992Y-16848460D01*
X13563992Y-16848460D02*
X13583039Y-16857984D01*
X13583039Y-16857984D02*
X13602087Y-16857984D01*
X13659230Y-16848460D02*
X13678277Y-16857984D01*
X13678277Y-16857984D02*
X13716373Y-16857984D01*
X13716373Y-16857984D02*
X13735420Y-16848460D01*
X13735420Y-16848460D02*
X13744944Y-16829412D01*
X13744944Y-16829412D02*
X13744944Y-16819889D01*
X13744944Y-16819889D02*
X13735420Y-16800841D01*
X13735420Y-16800841D02*
X13716373Y-16791317D01*
X13716373Y-16791317D02*
X13687801Y-16791317D01*
X13687801Y-16791317D02*
X13668754Y-16781793D01*
X13668754Y-16781793D02*
X13659230Y-16762746D01*
X13659230Y-16762746D02*
X13659230Y-16753222D01*
X13659230Y-16753222D02*
X13668754Y-16734174D01*
X13668754Y-16734174D02*
X13687801Y-16724650D01*
X13687801Y-16724650D02*
X13716373Y-16724650D01*
X13716373Y-16724650D02*
X13735420Y-16734174D01*
X13811611Y-16934174D02*
X13821135Y-16924650D01*
X13821135Y-16924650D02*
X13840182Y-16896079D01*
X13840182Y-16896079D02*
X13849706Y-16877031D01*
X13849706Y-16877031D02*
X13859230Y-16848460D01*
X13859230Y-16848460D02*
X13868754Y-16800841D01*
X13868754Y-16800841D02*
X13868754Y-16762746D01*
X13868754Y-16762746D02*
X13859230Y-16715127D01*
X13859230Y-16715127D02*
X13849706Y-16686555D01*
X13849706Y-16686555D02*
X13840182Y-16667508D01*
X13840182Y-16667508D02*
X13821135Y-16638936D01*
X13821135Y-16638936D02*
X13811611Y-16629412D01*
D12*
X7367500Y-16980500D02*
X7367500Y-17080500D01*
X7317500Y-17030500D02*
X7417500Y-17030500D01*
D11*
X7783039Y-17121984D02*
X7668753Y-17121984D01*
X7725896Y-17121984D02*
X7725896Y-16921984D01*
X7725896Y-16921984D02*
X7706848Y-16950555D01*
X7706848Y-16950555D02*
X7687801Y-16969603D01*
X7687801Y-16969603D02*
X7668753Y-16979127D01*
X7868753Y-17102936D02*
X7878277Y-17112460D01*
X7878277Y-17112460D02*
X7868753Y-17121984D01*
X7868753Y-17121984D02*
X7859229Y-17112460D01*
X7859229Y-17112460D02*
X7868753Y-17102936D01*
X7868753Y-17102936D02*
X7868753Y-17121984D01*
X8002086Y-16921984D02*
X8021134Y-16921984D01*
X8021134Y-16921984D02*
X8040182Y-16931508D01*
X8040182Y-16931508D02*
X8049705Y-16941031D01*
X8049705Y-16941031D02*
X8059229Y-16960079D01*
X8059229Y-16960079D02*
X8068753Y-16998174D01*
X8068753Y-16998174D02*
X8068753Y-17045793D01*
X8068753Y-17045793D02*
X8059229Y-17083889D01*
X8059229Y-17083889D02*
X8049705Y-17102936D01*
X8049705Y-17102936D02*
X8040182Y-17112460D01*
X8040182Y-17112460D02*
X8021134Y-17121984D01*
X8021134Y-17121984D02*
X8002086Y-17121984D01*
X8002086Y-17121984D02*
X7983039Y-17112460D01*
X7983039Y-17112460D02*
X7973515Y-17102936D01*
X7973515Y-17102936D02*
X7963991Y-17083889D01*
X7963991Y-17083889D02*
X7954467Y-17045793D01*
X7954467Y-17045793D02*
X7954467Y-16998174D01*
X7954467Y-16998174D02*
X7963991Y-16960079D01*
X7963991Y-16960079D02*
X7973515Y-16941031D01*
X7973515Y-16941031D02*
X7983039Y-16931508D01*
X7983039Y-16931508D02*
X8002086Y-16921984D01*
X8192562Y-16921984D02*
X8211610Y-16921984D01*
X8211610Y-16921984D02*
X8230658Y-16931508D01*
X8230658Y-16931508D02*
X8240182Y-16941031D01*
X8240182Y-16941031D02*
X8249705Y-16960079D01*
X8249705Y-16960079D02*
X8259229Y-16998174D01*
X8259229Y-16998174D02*
X8259229Y-17045793D01*
X8259229Y-17045793D02*
X8249705Y-17083889D01*
X8249705Y-17083889D02*
X8240182Y-17102936D01*
X8240182Y-17102936D02*
X8230658Y-17112460D01*
X8230658Y-17112460D02*
X8211610Y-17121984D01*
X8211610Y-17121984D02*
X8192562Y-17121984D01*
X8192562Y-17121984D02*
X8173515Y-17112460D01*
X8173515Y-17112460D02*
X8163991Y-17102936D01*
X8163991Y-17102936D02*
X8154467Y-17083889D01*
X8154467Y-17083889D02*
X8144943Y-17045793D01*
X8144943Y-17045793D02*
X8144943Y-16998174D01*
X8144943Y-16998174D02*
X8154467Y-16960079D01*
X8154467Y-16960079D02*
X8163991Y-16941031D01*
X8163991Y-16941031D02*
X8173515Y-16931508D01*
X8173515Y-16931508D02*
X8192562Y-16921984D01*
X8383039Y-16921984D02*
X8402086Y-16921984D01*
X8402086Y-16921984D02*
X8421134Y-16931508D01*
X8421134Y-16931508D02*
X8430658Y-16941031D01*
X8430658Y-16941031D02*
X8440182Y-16960079D01*
X8440182Y-16960079D02*
X8449705Y-16998174D01*
X8449705Y-16998174D02*
X8449705Y-17045793D01*
X8449705Y-17045793D02*
X8440182Y-17083889D01*
X8440182Y-17083889D02*
X8430658Y-17102936D01*
X8430658Y-17102936D02*
X8421134Y-17112460D01*
X8421134Y-17112460D02*
X8402086Y-17121984D01*
X8402086Y-17121984D02*
X8383039Y-17121984D01*
X8383039Y-17121984D02*
X8363991Y-17112460D01*
X8363991Y-17112460D02*
X8354467Y-17102936D01*
X8354467Y-17102936D02*
X8344943Y-17083889D01*
X8344943Y-17083889D02*
X8335420Y-17045793D01*
X8335420Y-17045793D02*
X8335420Y-16998174D01*
X8335420Y-16998174D02*
X8344943Y-16960079D01*
X8344943Y-16960079D02*
X8354467Y-16941031D01*
X8354467Y-16941031D02*
X8363991Y-16931508D01*
X8363991Y-16931508D02*
X8383039Y-16921984D01*
X8535420Y-17121984D02*
X8535420Y-16988650D01*
X8535420Y-17007698D02*
X8544944Y-16998174D01*
X8544944Y-16998174D02*
X8563991Y-16988650D01*
X8563991Y-16988650D02*
X8592563Y-16988650D01*
X8592563Y-16988650D02*
X8611610Y-16998174D01*
X8611610Y-16998174D02*
X8621134Y-17017222D01*
X8621134Y-17017222D02*
X8621134Y-17121984D01*
X8621134Y-17017222D02*
X8630658Y-16998174D01*
X8630658Y-16998174D02*
X8649705Y-16988650D01*
X8649705Y-16988650D02*
X8678277Y-16988650D01*
X8678277Y-16988650D02*
X8697325Y-16998174D01*
X8697325Y-16998174D02*
X8706848Y-17017222D01*
X8706848Y-17017222D02*
X8706848Y-17121984D01*
X8802086Y-17121984D02*
X8802086Y-16988650D01*
X8802086Y-17007698D02*
X8811610Y-16998174D01*
X8811610Y-16998174D02*
X8830658Y-16988650D01*
X8830658Y-16988650D02*
X8859229Y-16988650D01*
X8859229Y-16988650D02*
X8878277Y-16998174D01*
X8878277Y-16998174D02*
X8887801Y-17017222D01*
X8887801Y-17017222D02*
X8887801Y-17121984D01*
X8887801Y-17017222D02*
X8897325Y-16998174D01*
X8897325Y-16998174D02*
X8916372Y-16988650D01*
X8916372Y-16988650D02*
X8944944Y-16988650D01*
X8944944Y-16988650D02*
X8963991Y-16998174D01*
X8963991Y-16998174D02*
X8973515Y-17017222D01*
X8973515Y-17017222D02*
X8973515Y-17121984D01*
X9363991Y-16912460D02*
X9192563Y-17169603D01*
X9621134Y-16921984D02*
X9640182Y-16921984D01*
X9640182Y-16921984D02*
X9659229Y-16931508D01*
X9659229Y-16931508D02*
X9668753Y-16941031D01*
X9668753Y-16941031D02*
X9678277Y-16960079D01*
X9678277Y-16960079D02*
X9687801Y-16998174D01*
X9687801Y-16998174D02*
X9687801Y-17045793D01*
X9687801Y-17045793D02*
X9678277Y-17083889D01*
X9678277Y-17083889D02*
X9668753Y-17102936D01*
X9668753Y-17102936D02*
X9659229Y-17112460D01*
X9659229Y-17112460D02*
X9640182Y-17121984D01*
X9640182Y-17121984D02*
X9621134Y-17121984D01*
X9621134Y-17121984D02*
X9602087Y-17112460D01*
X9602087Y-17112460D02*
X9592563Y-17102936D01*
X9592563Y-17102936D02*
X9583039Y-17083889D01*
X9583039Y-17083889D02*
X9573515Y-17045793D01*
X9573515Y-17045793D02*
X9573515Y-16998174D01*
X9573515Y-16998174D02*
X9583039Y-16960079D01*
X9583039Y-16960079D02*
X9592563Y-16941031D01*
X9592563Y-16941031D02*
X9602087Y-16931508D01*
X9602087Y-16931508D02*
X9621134Y-16921984D01*
X9773515Y-17102936D02*
X9783039Y-17112460D01*
X9783039Y-17112460D02*
X9773515Y-17121984D01*
X9773515Y-17121984D02*
X9763991Y-17112460D01*
X9763991Y-17112460D02*
X9773515Y-17102936D01*
X9773515Y-17102936D02*
X9773515Y-17121984D01*
X9906848Y-16921984D02*
X9925896Y-16921984D01*
X9925896Y-16921984D02*
X9944944Y-16931508D01*
X9944944Y-16931508D02*
X9954468Y-16941031D01*
X9954468Y-16941031D02*
X9963991Y-16960079D01*
X9963991Y-16960079D02*
X9973515Y-16998174D01*
X9973515Y-16998174D02*
X9973515Y-17045793D01*
X9973515Y-17045793D02*
X9963991Y-17083889D01*
X9963991Y-17083889D02*
X9954468Y-17102936D01*
X9954468Y-17102936D02*
X9944944Y-17112460D01*
X9944944Y-17112460D02*
X9925896Y-17121984D01*
X9925896Y-17121984D02*
X9906848Y-17121984D01*
X9906848Y-17121984D02*
X9887801Y-17112460D01*
X9887801Y-17112460D02*
X9878277Y-17102936D01*
X9878277Y-17102936D02*
X9868753Y-17083889D01*
X9868753Y-17083889D02*
X9859229Y-17045793D01*
X9859229Y-17045793D02*
X9859229Y-16998174D01*
X9859229Y-16998174D02*
X9868753Y-16960079D01*
X9868753Y-16960079D02*
X9878277Y-16941031D01*
X9878277Y-16941031D02*
X9887801Y-16931508D01*
X9887801Y-16931508D02*
X9906848Y-16921984D01*
X10040182Y-16921984D02*
X10163991Y-16921984D01*
X10163991Y-16921984D02*
X10097325Y-16998174D01*
X10097325Y-16998174D02*
X10125896Y-16998174D01*
X10125896Y-16998174D02*
X10144944Y-17007698D01*
X10144944Y-17007698D02*
X10154468Y-17017222D01*
X10154468Y-17017222D02*
X10163991Y-17036270D01*
X10163991Y-17036270D02*
X10163991Y-17083889D01*
X10163991Y-17083889D02*
X10154468Y-17102936D01*
X10154468Y-17102936D02*
X10144944Y-17112460D01*
X10144944Y-17112460D02*
X10125896Y-17121984D01*
X10125896Y-17121984D02*
X10068753Y-17121984D01*
X10068753Y-17121984D02*
X10049706Y-17112460D01*
X10049706Y-17112460D02*
X10040182Y-17102936D01*
X10259229Y-17121984D02*
X10297325Y-17121984D01*
X10297325Y-17121984D02*
X10316372Y-17112460D01*
X10316372Y-17112460D02*
X10325896Y-17102936D01*
X10325896Y-17102936D02*
X10344944Y-17074365D01*
X10344944Y-17074365D02*
X10354468Y-17036270D01*
X10354468Y-17036270D02*
X10354468Y-16960079D01*
X10354468Y-16960079D02*
X10344944Y-16941031D01*
X10344944Y-16941031D02*
X10335420Y-16931508D01*
X10335420Y-16931508D02*
X10316372Y-16921984D01*
X10316372Y-16921984D02*
X10278277Y-16921984D01*
X10278277Y-16921984D02*
X10259229Y-16931508D01*
X10259229Y-16931508D02*
X10249706Y-16941031D01*
X10249706Y-16941031D02*
X10240182Y-16960079D01*
X10240182Y-16960079D02*
X10240182Y-17007698D01*
X10240182Y-17007698D02*
X10249706Y-17026746D01*
X10249706Y-17026746D02*
X10259229Y-17036270D01*
X10259229Y-17036270D02*
X10278277Y-17045793D01*
X10278277Y-17045793D02*
X10316372Y-17045793D01*
X10316372Y-17045793D02*
X10335420Y-17036270D01*
X10335420Y-17036270D02*
X10344944Y-17026746D01*
X10344944Y-17026746D02*
X10354468Y-17007698D01*
X10525896Y-16988650D02*
X10525896Y-17121984D01*
X10478277Y-16912460D02*
X10430658Y-17055317D01*
X10430658Y-17055317D02*
X10554468Y-17055317D01*
X10621134Y-16921984D02*
X10621134Y-16960079D01*
X10697325Y-16921984D02*
X10697325Y-16960079D01*
X10992563Y-17198174D02*
X10983039Y-17188650D01*
X10983039Y-17188650D02*
X10963991Y-17160079D01*
X10963991Y-17160079D02*
X10954468Y-17141031D01*
X10954468Y-17141031D02*
X10944944Y-17112460D01*
X10944944Y-17112460D02*
X10935420Y-17064841D01*
X10935420Y-17064841D02*
X10935420Y-17026746D01*
X10935420Y-17026746D02*
X10944944Y-16979127D01*
X10944944Y-16979127D02*
X10954468Y-16950555D01*
X10954468Y-16950555D02*
X10963991Y-16931508D01*
X10963991Y-16931508D02*
X10983039Y-16902936D01*
X10983039Y-16902936D02*
X10992563Y-16893412D01*
X11154468Y-16921984D02*
X11116372Y-16921984D01*
X11116372Y-16921984D02*
X11097325Y-16931508D01*
X11097325Y-16931508D02*
X11087801Y-16941031D01*
X11087801Y-16941031D02*
X11068753Y-16969603D01*
X11068753Y-16969603D02*
X11059230Y-17007698D01*
X11059230Y-17007698D02*
X11059230Y-17083889D01*
X11059230Y-17083889D02*
X11068753Y-17102936D01*
X11068753Y-17102936D02*
X11078277Y-17112460D01*
X11078277Y-17112460D02*
X11097325Y-17121984D01*
X11097325Y-17121984D02*
X11135420Y-17121984D01*
X11135420Y-17121984D02*
X11154468Y-17112460D01*
X11154468Y-17112460D02*
X11163991Y-17102936D01*
X11163991Y-17102936D02*
X11173515Y-17083889D01*
X11173515Y-17083889D02*
X11173515Y-17036270D01*
X11173515Y-17036270D02*
X11163991Y-17017222D01*
X11163991Y-17017222D02*
X11154468Y-17007698D01*
X11154468Y-17007698D02*
X11135420Y-16998174D01*
X11135420Y-16998174D02*
X11097325Y-16998174D01*
X11097325Y-16998174D02*
X11078277Y-17007698D01*
X11078277Y-17007698D02*
X11068753Y-17017222D01*
X11068753Y-17017222D02*
X11059230Y-17036270D01*
X11411610Y-17121984D02*
X11411610Y-16921984D01*
X11497325Y-17121984D02*
X11497325Y-17017222D01*
X11497325Y-17017222D02*
X11487801Y-16998174D01*
X11487801Y-16998174D02*
X11468753Y-16988650D01*
X11468753Y-16988650D02*
X11440182Y-16988650D01*
X11440182Y-16988650D02*
X11421134Y-16998174D01*
X11421134Y-16998174D02*
X11411610Y-17007698D01*
X11621134Y-17121984D02*
X11602087Y-17112460D01*
X11602087Y-17112460D02*
X11592563Y-17102936D01*
X11592563Y-17102936D02*
X11583039Y-17083889D01*
X11583039Y-17083889D02*
X11583039Y-17026746D01*
X11583039Y-17026746D02*
X11592563Y-17007698D01*
X11592563Y-17007698D02*
X11602087Y-16998174D01*
X11602087Y-16998174D02*
X11621134Y-16988650D01*
X11621134Y-16988650D02*
X11649706Y-16988650D01*
X11649706Y-16988650D02*
X11668753Y-16998174D01*
X11668753Y-16998174D02*
X11678277Y-17007698D01*
X11678277Y-17007698D02*
X11687801Y-17026746D01*
X11687801Y-17026746D02*
X11687801Y-17083889D01*
X11687801Y-17083889D02*
X11678277Y-17102936D01*
X11678277Y-17102936D02*
X11668753Y-17112460D01*
X11668753Y-17112460D02*
X11649706Y-17121984D01*
X11649706Y-17121984D02*
X11621134Y-17121984D01*
X11802087Y-17121984D02*
X11783039Y-17112460D01*
X11783039Y-17112460D02*
X11773515Y-17093412D01*
X11773515Y-17093412D02*
X11773515Y-16921984D01*
X11954468Y-17112460D02*
X11935420Y-17121984D01*
X11935420Y-17121984D02*
X11897325Y-17121984D01*
X11897325Y-17121984D02*
X11878277Y-17112460D01*
X11878277Y-17112460D02*
X11868753Y-17093412D01*
X11868753Y-17093412D02*
X11868753Y-17017222D01*
X11868753Y-17017222D02*
X11878277Y-16998174D01*
X11878277Y-16998174D02*
X11897325Y-16988650D01*
X11897325Y-16988650D02*
X11935420Y-16988650D01*
X11935420Y-16988650D02*
X11954468Y-16998174D01*
X11954468Y-16998174D02*
X11963991Y-17017222D01*
X11963991Y-17017222D02*
X11963991Y-17036270D01*
X11963991Y-17036270D02*
X11868753Y-17055317D01*
X12040182Y-17112460D02*
X12059230Y-17121984D01*
X12059230Y-17121984D02*
X12097325Y-17121984D01*
X12097325Y-17121984D02*
X12116372Y-17112460D01*
X12116372Y-17112460D02*
X12125896Y-17093412D01*
X12125896Y-17093412D02*
X12125896Y-17083889D01*
X12125896Y-17083889D02*
X12116372Y-17064841D01*
X12116372Y-17064841D02*
X12097325Y-17055317D01*
X12097325Y-17055317D02*
X12068753Y-17055317D01*
X12068753Y-17055317D02*
X12049706Y-17045793D01*
X12049706Y-17045793D02*
X12040182Y-17026746D01*
X12040182Y-17026746D02*
X12040182Y-17017222D01*
X12040182Y-17017222D02*
X12049706Y-16998174D01*
X12049706Y-16998174D02*
X12068753Y-16988650D01*
X12068753Y-16988650D02*
X12097325Y-16988650D01*
X12097325Y-16988650D02*
X12116372Y-16998174D01*
X12192563Y-17198174D02*
X12202087Y-17188650D01*
X12202087Y-17188650D02*
X12221134Y-17160079D01*
X12221134Y-17160079D02*
X12230658Y-17141031D01*
X12230658Y-17141031D02*
X12240182Y-17112460D01*
X12240182Y-17112460D02*
X12249706Y-17064841D01*
X12249706Y-17064841D02*
X12249706Y-17026746D01*
X12249706Y-17026746D02*
X12240182Y-16979127D01*
X12240182Y-16979127D02*
X12230658Y-16950555D01*
X12230658Y-16950555D02*
X12221134Y-16931508D01*
X12221134Y-16931508D02*
X12202087Y-16902936D01*
X12202087Y-16902936D02*
X12192563Y-16893412D01*
D13*
X7395533Y-17347534D02*
X7395533Y-17241467D01*
X7289466Y-17241467D01*
X7289466Y-17347534D01*
X7395533Y-17347534D01*
D11*
X7783039Y-17385984D02*
X7668753Y-17385984D01*
X7725896Y-17385984D02*
X7725896Y-17185984D01*
X7725896Y-17185984D02*
X7706848Y-17214555D01*
X7706848Y-17214555D02*
X7687801Y-17233603D01*
X7687801Y-17233603D02*
X7668753Y-17243127D01*
X7868753Y-17366936D02*
X7878277Y-17376460D01*
X7878277Y-17376460D02*
X7868753Y-17385984D01*
X7868753Y-17385984D02*
X7859229Y-17376460D01*
X7859229Y-17376460D02*
X7868753Y-17366936D01*
X7868753Y-17366936D02*
X7868753Y-17385984D01*
X8059229Y-17185984D02*
X7963991Y-17185984D01*
X7963991Y-17185984D02*
X7954467Y-17281222D01*
X7954467Y-17281222D02*
X7963991Y-17271698D01*
X7963991Y-17271698D02*
X7983039Y-17262174D01*
X7983039Y-17262174D02*
X8030658Y-17262174D01*
X8030658Y-17262174D02*
X8049705Y-17271698D01*
X8049705Y-17271698D02*
X8059229Y-17281222D01*
X8059229Y-17281222D02*
X8068753Y-17300270D01*
X8068753Y-17300270D02*
X8068753Y-17347889D01*
X8068753Y-17347889D02*
X8059229Y-17366936D01*
X8059229Y-17366936D02*
X8049705Y-17376460D01*
X8049705Y-17376460D02*
X8030658Y-17385984D01*
X8030658Y-17385984D02*
X7983039Y-17385984D01*
X7983039Y-17385984D02*
X7963991Y-17376460D01*
X7963991Y-17376460D02*
X7954467Y-17366936D01*
X8192562Y-17185984D02*
X8211610Y-17185984D01*
X8211610Y-17185984D02*
X8230658Y-17195508D01*
X8230658Y-17195508D02*
X8240182Y-17205031D01*
X8240182Y-17205031D02*
X8249705Y-17224079D01*
X8249705Y-17224079D02*
X8259229Y-17262174D01*
X8259229Y-17262174D02*
X8259229Y-17309793D01*
X8259229Y-17309793D02*
X8249705Y-17347889D01*
X8249705Y-17347889D02*
X8240182Y-17366936D01*
X8240182Y-17366936D02*
X8230658Y-17376460D01*
X8230658Y-17376460D02*
X8211610Y-17385984D01*
X8211610Y-17385984D02*
X8192562Y-17385984D01*
X8192562Y-17385984D02*
X8173515Y-17376460D01*
X8173515Y-17376460D02*
X8163991Y-17366936D01*
X8163991Y-17366936D02*
X8154467Y-17347889D01*
X8154467Y-17347889D02*
X8144943Y-17309793D01*
X8144943Y-17309793D02*
X8144943Y-17262174D01*
X8144943Y-17262174D02*
X8154467Y-17224079D01*
X8154467Y-17224079D02*
X8163991Y-17205031D01*
X8163991Y-17205031D02*
X8173515Y-17195508D01*
X8173515Y-17195508D02*
X8192562Y-17185984D01*
X8383039Y-17185984D02*
X8402086Y-17185984D01*
X8402086Y-17185984D02*
X8421134Y-17195508D01*
X8421134Y-17195508D02*
X8430658Y-17205031D01*
X8430658Y-17205031D02*
X8440182Y-17224079D01*
X8440182Y-17224079D02*
X8449705Y-17262174D01*
X8449705Y-17262174D02*
X8449705Y-17309793D01*
X8449705Y-17309793D02*
X8440182Y-17347889D01*
X8440182Y-17347889D02*
X8430658Y-17366936D01*
X8430658Y-17366936D02*
X8421134Y-17376460D01*
X8421134Y-17376460D02*
X8402086Y-17385984D01*
X8402086Y-17385984D02*
X8383039Y-17385984D01*
X8383039Y-17385984D02*
X8363991Y-17376460D01*
X8363991Y-17376460D02*
X8354467Y-17366936D01*
X8354467Y-17366936D02*
X8344943Y-17347889D01*
X8344943Y-17347889D02*
X8335420Y-17309793D01*
X8335420Y-17309793D02*
X8335420Y-17262174D01*
X8335420Y-17262174D02*
X8344943Y-17224079D01*
X8344943Y-17224079D02*
X8354467Y-17205031D01*
X8354467Y-17205031D02*
X8363991Y-17195508D01*
X8363991Y-17195508D02*
X8383039Y-17185984D01*
X8535420Y-17385984D02*
X8535420Y-17252650D01*
X8535420Y-17271698D02*
X8544944Y-17262174D01*
X8544944Y-17262174D02*
X8563991Y-17252650D01*
X8563991Y-17252650D02*
X8592563Y-17252650D01*
X8592563Y-17252650D02*
X8611610Y-17262174D01*
X8611610Y-17262174D02*
X8621134Y-17281222D01*
X8621134Y-17281222D02*
X8621134Y-17385984D01*
X8621134Y-17281222D02*
X8630658Y-17262174D01*
X8630658Y-17262174D02*
X8649705Y-17252650D01*
X8649705Y-17252650D02*
X8678277Y-17252650D01*
X8678277Y-17252650D02*
X8697325Y-17262174D01*
X8697325Y-17262174D02*
X8706848Y-17281222D01*
X8706848Y-17281222D02*
X8706848Y-17385984D01*
X8802086Y-17385984D02*
X8802086Y-17252650D01*
X8802086Y-17271698D02*
X8811610Y-17262174D01*
X8811610Y-17262174D02*
X8830658Y-17252650D01*
X8830658Y-17252650D02*
X8859229Y-17252650D01*
X8859229Y-17252650D02*
X8878277Y-17262174D01*
X8878277Y-17262174D02*
X8887801Y-17281222D01*
X8887801Y-17281222D02*
X8887801Y-17385984D01*
X8887801Y-17281222D02*
X8897325Y-17262174D01*
X8897325Y-17262174D02*
X8916372Y-17252650D01*
X8916372Y-17252650D02*
X8944944Y-17252650D01*
X8944944Y-17252650D02*
X8963991Y-17262174D01*
X8963991Y-17262174D02*
X8973515Y-17281222D01*
X8973515Y-17281222D02*
X8973515Y-17385984D01*
X9363991Y-17176460D02*
X9192563Y-17433603D01*
X9621134Y-17185984D02*
X9640182Y-17185984D01*
X9640182Y-17185984D02*
X9659229Y-17195508D01*
X9659229Y-17195508D02*
X9668753Y-17205031D01*
X9668753Y-17205031D02*
X9678277Y-17224079D01*
X9678277Y-17224079D02*
X9687801Y-17262174D01*
X9687801Y-17262174D02*
X9687801Y-17309793D01*
X9687801Y-17309793D02*
X9678277Y-17347889D01*
X9678277Y-17347889D02*
X9668753Y-17366936D01*
X9668753Y-17366936D02*
X9659229Y-17376460D01*
X9659229Y-17376460D02*
X9640182Y-17385984D01*
X9640182Y-17385984D02*
X9621134Y-17385984D01*
X9621134Y-17385984D02*
X9602087Y-17376460D01*
X9602087Y-17376460D02*
X9592563Y-17366936D01*
X9592563Y-17366936D02*
X9583039Y-17347889D01*
X9583039Y-17347889D02*
X9573515Y-17309793D01*
X9573515Y-17309793D02*
X9573515Y-17262174D01*
X9573515Y-17262174D02*
X9583039Y-17224079D01*
X9583039Y-17224079D02*
X9592563Y-17205031D01*
X9592563Y-17205031D02*
X9602087Y-17195508D01*
X9602087Y-17195508D02*
X9621134Y-17185984D01*
X9773515Y-17366936D02*
X9783039Y-17376460D01*
X9783039Y-17376460D02*
X9773515Y-17385984D01*
X9773515Y-17385984D02*
X9763991Y-17376460D01*
X9763991Y-17376460D02*
X9773515Y-17366936D01*
X9773515Y-17366936D02*
X9773515Y-17385984D01*
X9906848Y-17185984D02*
X9925896Y-17185984D01*
X9925896Y-17185984D02*
X9944944Y-17195508D01*
X9944944Y-17195508D02*
X9954468Y-17205031D01*
X9954468Y-17205031D02*
X9963991Y-17224079D01*
X9963991Y-17224079D02*
X9973515Y-17262174D01*
X9973515Y-17262174D02*
X9973515Y-17309793D01*
X9973515Y-17309793D02*
X9963991Y-17347889D01*
X9963991Y-17347889D02*
X9954468Y-17366936D01*
X9954468Y-17366936D02*
X9944944Y-17376460D01*
X9944944Y-17376460D02*
X9925896Y-17385984D01*
X9925896Y-17385984D02*
X9906848Y-17385984D01*
X9906848Y-17385984D02*
X9887801Y-17376460D01*
X9887801Y-17376460D02*
X9878277Y-17366936D01*
X9878277Y-17366936D02*
X9868753Y-17347889D01*
X9868753Y-17347889D02*
X9859229Y-17309793D01*
X9859229Y-17309793D02*
X9859229Y-17262174D01*
X9859229Y-17262174D02*
X9868753Y-17224079D01*
X9868753Y-17224079D02*
X9878277Y-17205031D01*
X9878277Y-17205031D02*
X9887801Y-17195508D01*
X9887801Y-17195508D02*
X9906848Y-17185984D01*
X10154468Y-17185984D02*
X10059229Y-17185984D01*
X10059229Y-17185984D02*
X10049706Y-17281222D01*
X10049706Y-17281222D02*
X10059229Y-17271698D01*
X10059229Y-17271698D02*
X10078277Y-17262174D01*
X10078277Y-17262174D02*
X10125896Y-17262174D01*
X10125896Y-17262174D02*
X10144944Y-17271698D01*
X10144944Y-17271698D02*
X10154468Y-17281222D01*
X10154468Y-17281222D02*
X10163991Y-17300270D01*
X10163991Y-17300270D02*
X10163991Y-17347889D01*
X10163991Y-17347889D02*
X10154468Y-17366936D01*
X10154468Y-17366936D02*
X10144944Y-17376460D01*
X10144944Y-17376460D02*
X10125896Y-17385984D01*
X10125896Y-17385984D02*
X10078277Y-17385984D01*
X10078277Y-17385984D02*
X10059229Y-17376460D01*
X10059229Y-17376460D02*
X10049706Y-17366936D01*
X10259229Y-17385984D02*
X10297325Y-17385984D01*
X10297325Y-17385984D02*
X10316372Y-17376460D01*
X10316372Y-17376460D02*
X10325896Y-17366936D01*
X10325896Y-17366936D02*
X10344944Y-17338365D01*
X10344944Y-17338365D02*
X10354468Y-17300270D01*
X10354468Y-17300270D02*
X10354468Y-17224079D01*
X10354468Y-17224079D02*
X10344944Y-17205031D01*
X10344944Y-17205031D02*
X10335420Y-17195508D01*
X10335420Y-17195508D02*
X10316372Y-17185984D01*
X10316372Y-17185984D02*
X10278277Y-17185984D01*
X10278277Y-17185984D02*
X10259229Y-17195508D01*
X10259229Y-17195508D02*
X10249706Y-17205031D01*
X10249706Y-17205031D02*
X10240182Y-17224079D01*
X10240182Y-17224079D02*
X10240182Y-17271698D01*
X10240182Y-17271698D02*
X10249706Y-17290746D01*
X10249706Y-17290746D02*
X10259229Y-17300270D01*
X10259229Y-17300270D02*
X10278277Y-17309793D01*
X10278277Y-17309793D02*
X10316372Y-17309793D01*
X10316372Y-17309793D02*
X10335420Y-17300270D01*
X10335420Y-17300270D02*
X10344944Y-17290746D01*
X10344944Y-17290746D02*
X10354468Y-17271698D01*
X10544944Y-17385984D02*
X10430658Y-17385984D01*
X10487801Y-17385984D02*
X10487801Y-17185984D01*
X10487801Y-17185984D02*
X10468753Y-17214555D01*
X10468753Y-17214555D02*
X10449706Y-17233603D01*
X10449706Y-17233603D02*
X10430658Y-17243127D01*
X10621134Y-17185984D02*
X10621134Y-17224079D01*
X10697325Y-17185984D02*
X10697325Y-17224079D01*
X10992563Y-17462174D02*
X10983039Y-17452650D01*
X10983039Y-17452650D02*
X10963991Y-17424079D01*
X10963991Y-17424079D02*
X10954468Y-17405031D01*
X10954468Y-17405031D02*
X10944944Y-17376460D01*
X10944944Y-17376460D02*
X10935420Y-17328841D01*
X10935420Y-17328841D02*
X10935420Y-17290746D01*
X10935420Y-17290746D02*
X10944944Y-17243127D01*
X10944944Y-17243127D02*
X10954468Y-17214555D01*
X10954468Y-17214555D02*
X10963991Y-17195508D01*
X10963991Y-17195508D02*
X10983039Y-17166936D01*
X10983039Y-17166936D02*
X10992563Y-17157412D01*
X11097325Y-17271698D02*
X11078277Y-17262174D01*
X11078277Y-17262174D02*
X11068753Y-17252650D01*
X11068753Y-17252650D02*
X11059230Y-17233603D01*
X11059230Y-17233603D02*
X11059230Y-17224079D01*
X11059230Y-17224079D02*
X11068753Y-17205031D01*
X11068753Y-17205031D02*
X11078277Y-17195508D01*
X11078277Y-17195508D02*
X11097325Y-17185984D01*
X11097325Y-17185984D02*
X11135420Y-17185984D01*
X11135420Y-17185984D02*
X11154468Y-17195508D01*
X11154468Y-17195508D02*
X11163991Y-17205031D01*
X11163991Y-17205031D02*
X11173515Y-17224079D01*
X11173515Y-17224079D02*
X11173515Y-17233603D01*
X11173515Y-17233603D02*
X11163991Y-17252650D01*
X11163991Y-17252650D02*
X11154468Y-17262174D01*
X11154468Y-17262174D02*
X11135420Y-17271698D01*
X11135420Y-17271698D02*
X11097325Y-17271698D01*
X11097325Y-17271698D02*
X11078277Y-17281222D01*
X11078277Y-17281222D02*
X11068753Y-17290746D01*
X11068753Y-17290746D02*
X11059230Y-17309793D01*
X11059230Y-17309793D02*
X11059230Y-17347889D01*
X11059230Y-17347889D02*
X11068753Y-17366936D01*
X11068753Y-17366936D02*
X11078277Y-17376460D01*
X11078277Y-17376460D02*
X11097325Y-17385984D01*
X11097325Y-17385984D02*
X11135420Y-17385984D01*
X11135420Y-17385984D02*
X11154468Y-17376460D01*
X11154468Y-17376460D02*
X11163991Y-17366936D01*
X11163991Y-17366936D02*
X11173515Y-17347889D01*
X11173515Y-17347889D02*
X11173515Y-17309793D01*
X11173515Y-17309793D02*
X11163991Y-17290746D01*
X11163991Y-17290746D02*
X11154468Y-17281222D01*
X11154468Y-17281222D02*
X11135420Y-17271698D01*
X11297325Y-17185984D02*
X11316372Y-17185984D01*
X11316372Y-17185984D02*
X11335420Y-17195508D01*
X11335420Y-17195508D02*
X11344944Y-17205031D01*
X11344944Y-17205031D02*
X11354468Y-17224079D01*
X11354468Y-17224079D02*
X11363991Y-17262174D01*
X11363991Y-17262174D02*
X11363991Y-17309793D01*
X11363991Y-17309793D02*
X11354468Y-17347889D01*
X11354468Y-17347889D02*
X11344944Y-17366936D01*
X11344944Y-17366936D02*
X11335420Y-17376460D01*
X11335420Y-17376460D02*
X11316372Y-17385984D01*
X11316372Y-17385984D02*
X11297325Y-17385984D01*
X11297325Y-17385984D02*
X11278277Y-17376460D01*
X11278277Y-17376460D02*
X11268753Y-17366936D01*
X11268753Y-17366936D02*
X11259229Y-17347889D01*
X11259229Y-17347889D02*
X11249706Y-17309793D01*
X11249706Y-17309793D02*
X11249706Y-17262174D01*
X11249706Y-17262174D02*
X11259229Y-17224079D01*
X11259229Y-17224079D02*
X11268753Y-17205031D01*
X11268753Y-17205031D02*
X11278277Y-17195508D01*
X11278277Y-17195508D02*
X11297325Y-17185984D01*
X11602087Y-17385984D02*
X11602087Y-17185984D01*
X11687801Y-17385984D02*
X11687801Y-17281222D01*
X11687801Y-17281222D02*
X11678277Y-17262174D01*
X11678277Y-17262174D02*
X11659230Y-17252650D01*
X11659230Y-17252650D02*
X11630658Y-17252650D01*
X11630658Y-17252650D02*
X11611610Y-17262174D01*
X11611610Y-17262174D02*
X11602087Y-17271698D01*
X11811610Y-17385984D02*
X11792563Y-17376460D01*
X11792563Y-17376460D02*
X11783039Y-17366936D01*
X11783039Y-17366936D02*
X11773515Y-17347889D01*
X11773515Y-17347889D02*
X11773515Y-17290746D01*
X11773515Y-17290746D02*
X11783039Y-17271698D01*
X11783039Y-17271698D02*
X11792563Y-17262174D01*
X11792563Y-17262174D02*
X11811610Y-17252650D01*
X11811610Y-17252650D02*
X11840182Y-17252650D01*
X11840182Y-17252650D02*
X11859230Y-17262174D01*
X11859230Y-17262174D02*
X11868753Y-17271698D01*
X11868753Y-17271698D02*
X11878277Y-17290746D01*
X11878277Y-17290746D02*
X11878277Y-17347889D01*
X11878277Y-17347889D02*
X11868753Y-17366936D01*
X11868753Y-17366936D02*
X11859230Y-17376460D01*
X11859230Y-17376460D02*
X11840182Y-17385984D01*
X11840182Y-17385984D02*
X11811610Y-17385984D01*
X11992563Y-17385984D02*
X11973515Y-17376460D01*
X11973515Y-17376460D02*
X11963991Y-17357412D01*
X11963991Y-17357412D02*
X11963991Y-17185984D01*
X12144944Y-17376460D02*
X12125896Y-17385984D01*
X12125896Y-17385984D02*
X12087801Y-17385984D01*
X12087801Y-17385984D02*
X12068753Y-17376460D01*
X12068753Y-17376460D02*
X12059230Y-17357412D01*
X12059230Y-17357412D02*
X12059230Y-17281222D01*
X12059230Y-17281222D02*
X12068753Y-17262174D01*
X12068753Y-17262174D02*
X12087801Y-17252650D01*
X12087801Y-17252650D02*
X12125896Y-17252650D01*
X12125896Y-17252650D02*
X12144944Y-17262174D01*
X12144944Y-17262174D02*
X12154468Y-17281222D01*
X12154468Y-17281222D02*
X12154468Y-17300270D01*
X12154468Y-17300270D02*
X12059230Y-17319317D01*
X12230658Y-17376460D02*
X12249706Y-17385984D01*
X12249706Y-17385984D02*
X12287801Y-17385984D01*
X12287801Y-17385984D02*
X12306849Y-17376460D01*
X12306849Y-17376460D02*
X12316372Y-17357412D01*
X12316372Y-17357412D02*
X12316372Y-17347889D01*
X12316372Y-17347889D02*
X12306849Y-17328841D01*
X12306849Y-17328841D02*
X12287801Y-17319317D01*
X12287801Y-17319317D02*
X12259230Y-17319317D01*
X12259230Y-17319317D02*
X12240182Y-17309793D01*
X12240182Y-17309793D02*
X12230658Y-17290746D01*
X12230658Y-17290746D02*
X12230658Y-17281222D01*
X12230658Y-17281222D02*
X12240182Y-17262174D01*
X12240182Y-17262174D02*
X12259230Y-17252650D01*
X12259230Y-17252650D02*
X12287801Y-17252650D01*
X12287801Y-17252650D02*
X12306849Y-17262174D01*
X12383039Y-17462174D02*
X12392563Y-17452650D01*
X12392563Y-17452650D02*
X12411611Y-17424079D01*
X12411611Y-17424079D02*
X12421134Y-17405031D01*
X12421134Y-17405031D02*
X12430658Y-17376460D01*
X12430658Y-17376460D02*
X12440182Y-17328841D01*
X12440182Y-17328841D02*
X12440182Y-17290746D01*
X12440182Y-17290746D02*
X12430658Y-17243127D01*
X12430658Y-17243127D02*
X12421134Y-17214555D01*
X12421134Y-17214555D02*
X12411611Y-17195508D01*
X12411611Y-17195508D02*
X12392563Y-17166936D01*
X12392563Y-17166936D02*
X12383039Y-17157412D01*
M02*
